G04*
G04 #@! TF.GenerationSoftware,Altium Limited,Altium Designer,18.1.7 (191)*
G04*
G04 Layer_Color=32896*
%FSLAX44Y44*%
%MOMM*%
G71*
G01*
G75*
%ADD11C,0.1000*%
%ADD12C,0.2000*%
%ADD13C,0.2540*%
%ADD14C,0.2500*%
G36*
X242399Y490663D02*
X250338D01*
Y478511D01*
X265569D01*
Y463119D01*
X277721D01*
Y455341D01*
X295057D01*
Y449995D01*
X277721D01*
Y445944D01*
X295057D01*
Y440435D01*
X277721D01*
Y436384D01*
X295057D01*
Y431037D01*
X277721D01*
Y426987D01*
X295057D01*
Y421478D01*
X277721D01*
Y413700D01*
X265569D01*
Y398470D01*
X250338D01*
Y386642D01*
X242399D01*
Y369305D01*
X237052D01*
Y386642D01*
X233325D01*
Y369305D01*
X227492D01*
Y386642D01*
X223442D01*
Y369305D01*
X218419D01*
Y386642D01*
X214044D01*
Y369305D01*
X208859D01*
Y386642D01*
X200758D01*
Y398470D01*
X185527D01*
Y413700D01*
X173699D01*
Y421478D01*
X156363D01*
Y426987D01*
X173699D01*
Y431037D01*
X156363D01*
Y436384D01*
X173699D01*
Y440435D01*
X156363D01*
Y445944D01*
X173699D01*
Y449995D01*
X156363D01*
Y455341D01*
X156687D01*
X157011D01*
X157821D01*
X158793D01*
X160251D01*
X162358D01*
X164788D01*
X173699D01*
Y463119D01*
X185527D01*
Y478511D01*
X200758D01*
Y490663D01*
X208859D01*
Y508000D01*
X214044D01*
Y490663D01*
X218419D01*
Y508000D01*
X223442D01*
Y490663D01*
X227492D01*
Y508000D01*
X233325D01*
Y490663D01*
X237052D01*
Y508000D01*
X242399D01*
Y490663D01*
D02*
G37*
G36*
X254065Y348890D02*
X226682D01*
X226844Y348728D01*
X227654Y348404D01*
X228626Y348080D01*
X229599Y347594D01*
X254065Y330581D01*
Y315674D01*
X224576Y337062D01*
X224414D01*
X224090Y336738D01*
X223442Y336252D01*
X222307Y335442D01*
X221659Y334956D01*
X220687Y334145D01*
X219553Y333335D01*
X218419Y332525D01*
X216961Y331391D01*
X215178Y330095D01*
X213396Y328799D01*
X211290Y327178D01*
X198004Y316971D01*
Y331553D01*
X221497Y347270D01*
X221659Y347432D01*
X222307Y347756D01*
X223280Y348404D01*
X224576Y348890D01*
X198004D01*
Y361204D01*
X254065D01*
Y348890D01*
D02*
G37*
G36*
Y298338D02*
X222146D01*
X221821D01*
X221173D01*
X220039D01*
X218743D01*
X215826Y298500D01*
X214368D01*
X213234Y298662D01*
X213558Y298500D01*
X214530Y298013D01*
X215826Y297203D01*
X217771Y296069D01*
X254065Y272251D01*
Y260099D01*
X198004D01*
Y271279D01*
X229923D01*
X230247D01*
X230895D01*
X231867D01*
X233001D01*
X235594Y271117D01*
X236728D01*
X237700Y270955D01*
Y271279D01*
X198004Y296717D01*
Y310004D01*
X254065D01*
Y298338D01*
D02*
G37*
G36*
X214206Y249730D02*
X215016D01*
X216961Y249244D01*
X219391Y248271D01*
X220687Y247623D01*
X221984Y246651D01*
X223280Y245679D01*
X224738Y244383D01*
X226034Y242924D01*
X227330Y241142D01*
X228465Y239036D01*
X229599Y236767D01*
Y236605D01*
X229761Y236443D01*
X230085Y235471D01*
X230733Y234013D01*
X231543Y232231D01*
X232353Y230448D01*
X233325Y228828D01*
X234298Y227370D01*
X235108Y226398D01*
X235270Y226236D01*
X235432Y226074D01*
X236404Y225426D01*
X237862Y224778D01*
X238672Y224453D01*
X239644D01*
X239806D01*
X239968D01*
X241103Y224778D01*
X241751Y225102D01*
X242399Y225426D01*
X243209Y226074D01*
X243857Y226884D01*
Y227046D01*
X244181Y227370D01*
X244343Y227856D01*
X244667Y228666D01*
X244991Y229638D01*
X245153Y230935D01*
X245477Y232555D01*
Y235147D01*
X245315Y235795D01*
X245153Y237416D01*
X244829Y239360D01*
X244019Y241790D01*
X243047Y244383D01*
X241751Y246975D01*
X239806Y249568D01*
X251634D01*
X251796Y249244D01*
X252120Y248433D01*
X252768Y247137D01*
X253255Y245193D01*
X253903Y242924D01*
X254551Y240332D01*
X254875Y237092D01*
X255037Y233689D01*
Y231907D01*
X254875Y230124D01*
X254551Y227694D01*
X254065Y225102D01*
X253255Y222509D01*
X252282Y219917D01*
X250824Y217648D01*
X250662Y217324D01*
X250014Y216676D01*
X249042Y215866D01*
X247746Y214732D01*
X245963Y213760D01*
X243857Y212787D01*
X241265Y212139D01*
X238348Y211977D01*
X238186D01*
X237376D01*
X236404Y212139D01*
X235108Y212301D01*
X233649Y212787D01*
X232191Y213274D01*
X230571Y214084D01*
X228951Y215056D01*
X228789Y215218D01*
X228302Y215704D01*
X227492Y216352D01*
X226520Y217648D01*
X225386Y219107D01*
X224090Y221213D01*
X222794Y223643D01*
X221497Y226560D01*
X221335Y226884D01*
X221011Y227694D01*
X220363Y228828D01*
X219715Y230286D01*
X218905Y231907D01*
X218095Y233365D01*
X217285Y234499D01*
X216637Y235471D01*
X216474D01*
X216313Y235795D01*
X215340Y236281D01*
X213882Y236767D01*
X212100Y237092D01*
X211938D01*
X211614D01*
X210642Y236767D01*
X209993Y236443D01*
X209345Y235957D01*
X208697Y235309D01*
X208049Y234499D01*
Y234337D01*
X207887Y234013D01*
X207563Y233365D01*
X207239Y232717D01*
X207077Y231583D01*
X206753Y230448D01*
X206591Y229152D01*
Y226236D01*
X206753Y224939D01*
X207077Y222995D01*
X207563Y221051D01*
X208211Y218783D01*
X209021Y216514D01*
X210318Y214246D01*
X199138D01*
X198976Y214570D01*
X198814Y215218D01*
X198490Y216352D01*
X198004Y217972D01*
X197680Y220079D01*
X197355Y222509D01*
X197193Y225102D01*
X197031Y228180D01*
Y229800D01*
X197193Y231583D01*
X197517Y233689D01*
X198004Y236281D01*
X198814Y238874D01*
X199786Y241466D01*
X201244Y243897D01*
X201406Y244221D01*
X202054Y244869D01*
X203026Y245841D01*
X204323Y246813D01*
X205943Y247947D01*
X208049Y248919D01*
X210480Y249568D01*
X213234Y249892D01*
X213396D01*
X213720D01*
X214206Y249730D01*
D02*
G37*
G36*
X214206Y205010D02*
X215016D01*
X216961Y204524D01*
X219391Y203552D01*
X220687Y202742D01*
X221984Y201932D01*
X223280Y200798D01*
X224738Y199501D01*
X226034Y198043D01*
X227330Y196261D01*
X228465Y194154D01*
X229599Y191886D01*
Y191724D01*
X229761Y191562D01*
X230085Y190590D01*
X230733Y189294D01*
X231543Y187511D01*
X232353Y185891D01*
X233325Y184271D01*
X234298Y182813D01*
X235108Y181840D01*
X235270Y181678D01*
X235432Y181516D01*
X236404Y180706D01*
X237862Y180058D01*
X238672Y179896D01*
X239644Y179734D01*
X239806D01*
X239968D01*
X241103Y180058D01*
X241751Y180382D01*
X242399Y180868D01*
X243209Y181516D01*
X243857Y182327D01*
Y182488D01*
X244181Y182813D01*
X244343Y183299D01*
X244667Y184109D01*
X244991Y185243D01*
X245153Y186377D01*
X245477Y187835D01*
Y190428D01*
X245315Y191076D01*
X245153Y192696D01*
X244829Y194803D01*
X244019Y197233D01*
X243047Y199663D01*
X241751Y202256D01*
X239806Y204848D01*
X251634D01*
X251796Y204524D01*
X252120Y203714D01*
X252768Y202418D01*
X253255Y200636D01*
X253903Y198367D01*
X254551Y195613D01*
X254875Y192696D01*
X255037Y189294D01*
Y187511D01*
X254875Y185729D01*
X254551Y183299D01*
X254065Y180706D01*
X253255Y177952D01*
X252283Y175359D01*
X250824Y172929D01*
X250662Y172605D01*
X250014Y171957D01*
X249042Y171147D01*
X247746Y170012D01*
X245963Y168878D01*
X243857Y168068D01*
X241265Y167420D01*
X238348Y167096D01*
X238186D01*
X237376D01*
X236404Y167258D01*
X235108Y167420D01*
X233649Y167906D01*
X232191Y168392D01*
X230571Y169202D01*
X228951Y170175D01*
X228789Y170336D01*
X228302Y170823D01*
X227492Y171633D01*
X226520Y172767D01*
X225386Y174387D01*
X224090Y176332D01*
X222794Y178762D01*
X221497Y181678D01*
X221335Y182003D01*
X221011Y182813D01*
X220363Y184109D01*
X219715Y185405D01*
X218905Y187025D01*
X218095Y188484D01*
X217285Y189780D01*
X216637Y190752D01*
X216475D01*
X216313Y191076D01*
X215340Y191562D01*
X213882Y192210D01*
X213072Y192372D01*
X212100Y192534D01*
X211938D01*
X211614D01*
X210642Y192210D01*
X209993Y191886D01*
X209345Y191400D01*
X208697Y190752D01*
X208049Y189942D01*
Y189780D01*
X207887Y189456D01*
X207563Y188808D01*
X207239Y187997D01*
X207077Y187025D01*
X206753Y185729D01*
X206591Y184433D01*
Y181516D01*
X206753Y180220D01*
X207077Y178276D01*
X207563Y176332D01*
X208211Y174063D01*
X209021Y171795D01*
X210318Y169526D01*
X199138D01*
X198976Y169851D01*
X198814Y170499D01*
X198490Y171795D01*
X198004Y173415D01*
X197680Y175521D01*
X197355Y177790D01*
X197193Y180544D01*
X197031Y183461D01*
Y185081D01*
X197193Y186863D01*
X197518Y189132D01*
X198004Y191724D01*
X198814Y194317D01*
X199786Y196909D01*
X201244Y199339D01*
X201406Y199663D01*
X202054Y200312D01*
X203026Y201122D01*
X204323Y202256D01*
X205943Y203390D01*
X208049Y204200D01*
X210480Y204848D01*
X213234Y205172D01*
X213396D01*
X213720D01*
X214206Y205010D01*
D02*
G37*
%LPC*%
G36*
X246611Y484506D02*
X204809D01*
Y478511D01*
X204971D01*
X205457D01*
X205943D01*
X206591D01*
X207401D01*
X208373D01*
X209669D01*
X211128D01*
X212748D01*
X214692D01*
X216961D01*
X219553D01*
X222307D01*
X225548D01*
X246611D01*
Y484506D01*
D02*
G37*
G36*
X271564Y459068D02*
X268647D01*
X267837D01*
X267189D01*
X266217D01*
X265731D01*
X265569D01*
Y417751D01*
X271564D01*
Y459068D01*
D02*
G37*
G36*
X185527D02*
X182773D01*
X181801D01*
X181153D01*
X180505D01*
X180181D01*
X179856D01*
X179694D01*
Y417751D01*
X185527D01*
Y459068D01*
D02*
G37*
G36*
X261842Y474460D02*
X225548D01*
X219877D01*
X214854D01*
X210480D01*
X206591D01*
X203188D01*
X200272D01*
X197841D01*
X195735D01*
X193953D01*
X192657D01*
X191523D01*
X190712D01*
X190226D01*
X189902D01*
X189578D01*
Y402521D01*
X261842D01*
Y474460D01*
D02*
G37*
G36*
X246611Y398470D02*
X225548D01*
X222307D01*
X219553D01*
X216961D01*
X214692D01*
X212748D01*
X211128D01*
X209669D01*
X208373D01*
X207401D01*
X206591D01*
X205943D01*
X205457D01*
X204971D01*
X204809D01*
Y392637D01*
X246611D01*
Y398470D01*
D02*
G37*
%LPD*%
D11*
X391020Y57274D02*
Y114424D01*
X284340Y40334D02*
X293230D01*
X271640Y57274D02*
Y120774D01*
Y138554D02*
Y143634D01*
X283070Y156334D02*
X391020D01*
Y146174D02*
Y156334D01*
D12*
X55000Y129250D02*
X255000D01*
X55000Y84000D02*
Y129250D01*
Y84000D02*
X255000D01*
Y129250D01*
D13*
X341000Y21000D02*
Y28997D01*
X337001D01*
X335668Y27664D01*
Y24999D01*
X337001Y23666D01*
X341000D01*
X329004Y21000D02*
Y28997D01*
X333003Y24999D01*
X327671D01*
D14*
X250294Y93000D02*
Y102997D01*
X245296D01*
X243630Y101331D01*
Y97998D01*
X245296Y96332D01*
X250294D01*
X240298Y93000D02*
Y99664D01*
X236966Y102997D01*
X233633Y99664D01*
Y93000D01*
Y97998D01*
X240298D01*
X223636Y101331D02*
X225303Y102997D01*
X228635D01*
X230301Y101331D01*
Y99664D01*
X228635Y97998D01*
X225303D01*
X223636Y96332D01*
Y94666D01*
X225303Y93000D01*
X228635D01*
X230301Y94666D01*
X213640Y101331D02*
X215306Y102997D01*
X218638D01*
X220304Y101331D01*
Y99664D01*
X218638Y97998D01*
X215306D01*
X213640Y96332D01*
Y94666D01*
X215306Y93000D01*
X218638D01*
X220304Y94666D01*
X210307Y99664D02*
X208641D01*
Y97998D01*
X210307D01*
Y99664D01*
Y94666D02*
X208641D01*
Y93000D01*
X210307D01*
Y94666D01*
X191980Y99664D02*
Y94666D01*
X190314Y93000D01*
X188648Y94666D01*
X186982Y93000D01*
X185315Y94666D01*
Y99664D01*
X181983D02*
Y94666D01*
X180317Y93000D01*
X178651Y94666D01*
X176985Y93000D01*
X175319Y94666D01*
Y99664D01*
X171986D02*
Y94666D01*
X170320Y93000D01*
X168654Y94666D01*
X166988Y93000D01*
X165322Y94666D01*
Y99664D01*
X161990Y93000D02*
Y94666D01*
X160324D01*
Y93000D01*
X161990D01*
X153659Y89668D02*
Y99664D01*
X148661D01*
X146994Y97998D01*
Y94666D01*
X148661Y93000D01*
X153659D01*
X143662Y99664D02*
Y94666D01*
X141996Y93000D01*
X136998D01*
Y91334D01*
X138664Y89668D01*
X140330D01*
X136998Y93000D02*
Y99664D01*
X127001D02*
X131999D01*
X133665Y97998D01*
Y94666D01*
X131999Y93000D01*
X127001D01*
X122002D02*
X118670D01*
X117004Y94666D01*
Y97998D01*
X118670Y99664D01*
X122002D01*
X123669Y97998D01*
Y94666D01*
X122002Y93000D01*
X113672D02*
Y99664D01*
X112006D01*
X110340Y97998D01*
Y93000D01*
Y97998D01*
X108673Y99664D01*
X107007Y97998D01*
Y93000D01*
X103675D02*
Y94666D01*
X102009D01*
Y93000D01*
X103675D01*
X95344D02*
X92012D01*
X93678D01*
Y99664D01*
X95344D01*
X85348Y93000D02*
X82015D01*
X80349Y94666D01*
Y97998D01*
X82015Y99664D01*
X85348D01*
X87014Y97998D01*
Y94666D01*
X85348Y93000D01*
X243630Y121331D02*
X245296Y122997D01*
X248628D01*
X250294Y121331D01*
Y119664D01*
X248628Y117998D01*
X245296D01*
X243630Y116332D01*
Y114666D01*
X245296Y113000D01*
X248628D01*
X250294Y114666D01*
X233633Y121331D02*
X235299Y122997D01*
X238632D01*
X240298Y121331D01*
Y119664D01*
X238632Y117998D01*
X235299D01*
X233633Y116332D01*
Y114666D01*
X235299Y113000D01*
X238632D01*
X240298Y114666D01*
X230301Y122997D02*
X226969D01*
X228635D01*
Y113000D01*
X230301D01*
X226969D01*
X221970Y122997D02*
Y113000D01*
X216972D01*
X215306Y114666D01*
Y121331D01*
X216972Y122997D01*
X221970D01*
X211973Y119664D02*
X210307D01*
Y117998D01*
X211973D01*
Y119664D01*
Y114666D02*
X210307D01*
Y113000D01*
X211973D01*
Y114666D01*
X193646Y119664D02*
Y114666D01*
X191980Y113000D01*
X190314Y114666D01*
X188648Y113000D01*
X186982Y114666D01*
Y119664D01*
X183649Y113000D02*
X180317D01*
X181983D01*
Y119664D01*
X183649D01*
X175319Y109668D02*
Y119664D01*
X170320D01*
X168654Y117998D01*
Y114666D01*
X170320Y113000D01*
X175319D01*
X165322Y119664D02*
Y114666D01*
X163656Y113000D01*
X158657D01*
Y111334D01*
X160324Y109668D01*
X161990D01*
X158657Y113000D02*
Y119664D01*
X155325Y117998D02*
X148661D01*
X145328Y119664D02*
Y114666D01*
X143662Y113000D01*
X141996Y114666D01*
X140330Y113000D01*
X138664Y114666D01*
Y119664D01*
X135332Y113000D02*
X131999D01*
X133665D01*
Y122997D01*
X135332D01*
X125335Y119664D02*
X122002D01*
X120336Y117998D01*
Y113000D01*
X125335D01*
X127001Y114666D01*
X125335Y116332D01*
X120336D01*
X117004Y113000D02*
Y119664D01*
X112006D01*
X110340Y117998D01*
Y113000D01*
X107007Y117998D02*
X100343D01*
X97011Y122997D02*
X90346Y113000D01*
Y122997D02*
X97011Y113000D01*
X87014Y122997D02*
X80349Y113000D01*
Y122997D02*
X87014Y113000D01*
X77017Y122997D02*
X70353Y113000D01*
Y122997D02*
X77017Y113000D01*
X67020Y122997D02*
X60356Y113000D01*
Y122997D02*
X67020Y113000D01*
X243630Y52997D02*
X250294D01*
Y47998D01*
X246962D01*
X250294D01*
Y43000D01*
X240298Y52997D02*
X233633D01*
X236966D01*
Y43000D01*
X230301D02*
Y52997D01*
X225303D01*
X223636Y51331D01*
Y47998D01*
X225303Y46332D01*
X230301D01*
X210307Y49665D02*
Y44666D01*
X208641Y43000D01*
X203643D01*
Y49665D01*
X200311Y43000D02*
Y49665D01*
X195312D01*
X193646Y47998D01*
Y43000D01*
X190314Y47998D02*
X183649D01*
X175319Y43000D02*
X178651D01*
X180317Y44666D01*
Y47998D01*
X178651Y49665D01*
X175319D01*
X173652Y47998D01*
Y46332D01*
X180317D01*
X170320Y43000D02*
Y49665D01*
X165322D01*
X163656Y47998D01*
Y43000D01*
X153659Y49665D02*
X158657D01*
X160324Y47998D01*
Y44666D01*
X158657Y43000D01*
X153659D01*
X150327Y49665D02*
Y43000D01*
Y46332D01*
X148661Y47998D01*
X146994Y49665D01*
X145328D01*
X140330D02*
Y44666D01*
X138664Y43000D01*
X133665D01*
Y41334D01*
X135331Y39668D01*
X136998D01*
X133665Y43000D02*
Y49665D01*
X130333Y39668D02*
Y49665D01*
X125335D01*
X123669Y47998D01*
Y44666D01*
X125335Y43000D01*
X130333D01*
X118670Y51331D02*
Y49665D01*
X120336D01*
X117004D01*
X118670D01*
Y44666D01*
X117004Y43000D01*
X107007D02*
X110340D01*
X112006Y44666D01*
Y47998D01*
X110340Y49665D01*
X107007D01*
X105341Y47998D01*
Y46332D01*
X112006D01*
X95344Y52997D02*
Y43000D01*
X100343D01*
X102009Y44666D01*
Y47998D01*
X100343Y49665D01*
X95344D01*
X250294Y72997D02*
X243630D01*
X246962D01*
Y63000D01*
X235299D02*
X238632D01*
X240298Y64666D01*
Y67998D01*
X238632Y69665D01*
X235299D01*
X233633Y67998D01*
Y66332D01*
X240298D01*
X230301Y63000D02*
X226969D01*
X228635D01*
Y72997D01*
X230301D01*
X221970Y63000D02*
Y69665D01*
X216972D01*
X215306Y67998D01*
Y63000D01*
X206975D02*
X210307D01*
X211973Y64666D01*
Y67998D01*
X210307Y69665D01*
X206975D01*
X205309Y67998D01*
Y66332D01*
X211973D01*
X200311Y71331D02*
Y69665D01*
X201977D01*
X198645D01*
X200311D01*
Y64666D01*
X198645Y63000D01*
X183649Y59668D02*
Y69665D01*
X178651D01*
X176985Y67998D01*
Y64666D01*
X178651Y63000D01*
X183649D01*
X171986D02*
X168654D01*
X166988Y64666D01*
Y67998D01*
X168654Y69665D01*
X171986D01*
X173652Y67998D01*
Y64666D01*
X171986Y63000D01*
X163656Y69665D02*
Y63000D01*
Y66332D01*
X161990Y67998D01*
X160324Y69665D01*
X158657D01*
X151993Y71331D02*
Y69665D01*
X153659D01*
X150327D01*
X151993D01*
Y64666D01*
X150327Y63000D01*
X128667D02*
X135332D01*
X128667Y69665D01*
Y71331D01*
X130333Y72997D01*
X133665D01*
X135332Y71331D01*
X125335D02*
X123669Y72997D01*
X120336D01*
X118670Y71331D01*
Y69665D01*
X120336Y67998D01*
X122002D01*
X120336D01*
X118670Y66332D01*
Y64666D01*
X120336Y63000D01*
X123669D01*
X125335Y64666D01*
X250294Y7000D02*
Y16997D01*
X245296D01*
X243630Y15331D01*
Y11998D01*
X245296Y10332D01*
X250294D01*
X238632Y13664D02*
X235299D01*
X233633Y11998D01*
Y7000D01*
X238632D01*
X240298Y8666D01*
X238632Y10332D01*
X233633D01*
X230301Y7000D02*
X225303D01*
X223636Y8666D01*
X225303Y10332D01*
X228635D01*
X230301Y11998D01*
X228635Y13664D01*
X223636D01*
X220304Y7000D02*
X215306D01*
X213640Y8666D01*
X215306Y10332D01*
X218638D01*
X220304Y11998D01*
X218638Y13664D01*
X213640D01*
X210307D02*
X208641D01*
Y11998D01*
X210307D01*
Y13664D01*
Y8666D02*
X208641D01*
Y7000D01*
X210307D01*
Y8666D01*
X191980Y3668D02*
Y13664D01*
X186982D01*
X185315Y11998D01*
Y8666D01*
X186982Y7000D01*
X191980D01*
X181983Y13664D02*
Y8666D01*
X180317Y7000D01*
X175319D01*
Y5334D01*
X176985Y3668D01*
X178651D01*
X175319Y7000D02*
Y13664D01*
X170320Y15331D02*
Y13664D01*
X171986D01*
X168654D01*
X170320D01*
Y8666D01*
X168654Y7000D01*
X163656Y16997D02*
Y7000D01*
Y11998D01*
X161990Y13664D01*
X158657D01*
X156991Y11998D01*
Y7000D01*
X151993D02*
X148661D01*
X146994Y8666D01*
Y11998D01*
X148661Y13664D01*
X151993D01*
X153659Y11998D01*
Y8666D01*
X151993Y7000D01*
X143662D02*
Y13664D01*
X138664D01*
X136998Y11998D01*
Y7000D01*
X250294Y32997D02*
Y24666D01*
X248628Y23000D01*
X245296D01*
X243630Y24666D01*
Y32997D01*
X240298Y23000D02*
X235299D01*
X233633Y24666D01*
X235299Y26332D01*
X238632D01*
X240298Y27998D01*
X238632Y29664D01*
X233633D01*
X225303Y23000D02*
X228635D01*
X230301Y24666D01*
Y27998D01*
X228635Y29664D01*
X225303D01*
X223636Y27998D01*
Y26332D01*
X230301D01*
X220304Y29664D02*
Y23000D01*
Y26332D01*
X218638Y27998D01*
X216972Y29664D01*
X215306D01*
X210307D02*
X208641D01*
Y27998D01*
X210307D01*
Y29664D01*
Y24666D02*
X208641D01*
Y23000D01*
X210307D01*
Y24666D01*
X191980Y23000D02*
Y29664D01*
X190314D01*
X188648Y27998D01*
Y23000D01*
Y27998D01*
X186982Y29664D01*
X185315Y27998D01*
Y23000D01*
X181983D02*
X178651D01*
X180317D01*
Y29664D01*
X181983D01*
X166988D02*
X171986D01*
X173652Y27998D01*
Y24666D01*
X171986Y23000D01*
X166988D01*
X163656Y29664D02*
Y23000D01*
Y26332D01*
X161990Y27998D01*
X160324Y29664D01*
X158657D01*
X151993Y23000D02*
X148661D01*
X146994Y24666D01*
Y27998D01*
X148661Y29664D01*
X151993D01*
X153659Y27998D01*
Y24666D01*
X151993Y23000D01*
M02*
