G04*
G04 #@! TF.GenerationSoftware,Altium Limited,Altium Designer,18.1.7 (191)*
G04*
G04 Layer_Color=8388736*
%FSLAX44Y44*%
%MOMM*%
G71*
G01*
G75*
%ADD16R,1.0032X0.8032*%
%ADD17R,1.0032X0.9032*%
G04:AMPARAMS|DCode=18|XSize=0.4032mm|YSize=0.9032mm|CornerRadius=0.1216mm|HoleSize=0mm|Usage=FLASHONLY|Rotation=0.000|XOffset=0mm|YOffset=0mm|HoleType=Round|Shape=RoundedRectangle|*
%AMROUNDEDRECTD18*
21,1,0.4032,0.6600,0,0,0.0*
21,1,0.1600,0.9032,0,0,0.0*
1,1,0.2432,0.0800,-0.3300*
1,1,0.2432,-0.0800,-0.3300*
1,1,0.2432,-0.0800,0.3300*
1,1,0.2432,0.0800,0.3300*
%
%ADD18ROUNDEDRECTD18*%
%ADD19R,1.1032X0.5032*%
%ADD20R,0.9032X1.0032*%
%ADD21R,1.0032X1.4032*%
%ADD22R,0.4032X0.5532*%
%ADD23R,1.6432X0.6432*%
%ADD24R,0.8032X1.0032*%
%ADD25R,2.0532X0.9032*%
%ADD26R,0.9032X2.0532*%
%ADD27R,1.2532X1.2032*%
%ADD28R,2.4032X1.2532*%
%ADD29R,1.6032X2.3032*%
%ADD30R,1.8032X2.7032*%
%ADD31R,1.0532X0.6532*%
%ADD32R,2.1032X1.5032*%
G04:AMPARAMS|DCode=33|XSize=0.4032mm|YSize=0.6032mm|CornerRadius=0.1216mm|HoleSize=0mm|Usage=FLASHONLY|Rotation=270.000|XOffset=0mm|YOffset=0mm|HoleType=Round|Shape=RoundedRectangle|*
%AMROUNDEDRECTD33*
21,1,0.4032,0.3600,0,0,270.0*
21,1,0.1600,0.6032,0,0,270.0*
1,1,0.2432,-0.1800,-0.0800*
1,1,0.2432,-0.1800,0.0800*
1,1,0.2432,0.1800,0.0800*
1,1,0.2432,0.1800,-0.0800*
%
%ADD33ROUNDEDRECTD33*%
%ADD34R,0.9032X1.1032*%
%ADD35R,0.7032X3.5032*%
%ADD36R,2.2032X3.5032*%
%ADD37R,2.2032X2.7032*%
%ADD38R,1.1032X0.9032*%
%ADD39R,1.4032X1.6032*%
%ADD40R,0.5032X1.1032*%
%ADD41R,0.5032X0.5032*%
%ADD42R,0.5032X0.5032*%
%ADD43R,2.0032X2.0032*%
%ADD44R,1.0000X0.6500*%
%ADD45R,1.0000X1.6000*%
%ADD46C,1.7032*%
%ADD47R,1.7032X1.7032*%
%ADD48C,0.2032*%
%ADD49C,0.8032*%
D16*
X349330Y68000D02*
D03*
X337330D02*
D03*
X58000Y583000D02*
D03*
X46000D02*
D03*
X413000Y534000D02*
D03*
X425000D02*
D03*
X188000Y48540D02*
D03*
X176000D02*
D03*
X333660Y198120D02*
D03*
X321660D02*
D03*
X347060D02*
D03*
X359060D02*
D03*
X250600Y533050D02*
D03*
X238600D02*
D03*
X250600Y544480D02*
D03*
X238600D02*
D03*
X213510Y591470D02*
D03*
X225510D02*
D03*
D17*
X335000Y241000D02*
D03*
X347000D02*
D03*
X335000Y229000D02*
D03*
X347000D02*
D03*
X176000Y28115D02*
D03*
X188000D02*
D03*
X129280Y283924D02*
D03*
X141280D02*
D03*
X273360Y284480D02*
D03*
X261360D02*
D03*
X207320D02*
D03*
X195320D02*
D03*
X225200Y549560D02*
D03*
X213200D02*
D03*
X213200Y562260D02*
D03*
X225200D02*
D03*
D18*
X314500Y474000D02*
D03*
X319500Y473500D02*
D03*
X309500Y484500D02*
D03*
X324500D02*
D03*
X319500D02*
D03*
X314500D02*
D03*
X324500Y473500D02*
D03*
X309500Y474000D02*
D03*
D19*
X229620Y519040D02*
D03*
Y524040D02*
D03*
X198620Y514040D02*
D03*
Y519040D02*
D03*
Y509040D02*
D03*
Y524040D02*
D03*
X229620Y514040D02*
D03*
Y509040D02*
D03*
D20*
X305460Y303180D02*
D03*
Y291180D02*
D03*
X42660Y526510D02*
D03*
Y538510D02*
D03*
Y551910D02*
D03*
Y563910D02*
D03*
X29960Y526510D02*
D03*
Y538510D02*
D03*
X17260Y526510D02*
D03*
Y538510D02*
D03*
X101560Y43038D02*
D03*
Y55038D02*
D03*
X89010Y43038D02*
D03*
Y55038D02*
D03*
D21*
X29840Y582890D02*
D03*
X14840D02*
D03*
Y556490D02*
D03*
X29840D02*
D03*
D22*
X412000Y560000D02*
D03*
X416000D02*
D03*
X420000D02*
D03*
X424000D02*
D03*
X424000Y547800D02*
D03*
X420000D02*
D03*
X416000D02*
D03*
X412000D02*
D03*
D23*
X418000Y553900D02*
D03*
D24*
X411000Y587000D02*
D03*
Y575000D02*
D03*
X304800Y237000D02*
D03*
Y225000D02*
D03*
X201000Y28000D02*
D03*
Y16000D02*
D03*
X305460Y353980D02*
D03*
Y341980D02*
D03*
X122030Y12558D02*
D03*
Y24558D02*
D03*
X249680Y569530D02*
D03*
Y557530D02*
D03*
X238250Y569530D02*
D03*
Y557530D02*
D03*
D25*
X285930Y245540D02*
D03*
Y235540D02*
D03*
Y225540D02*
D03*
Y215540D02*
D03*
Y205540D02*
D03*
Y195540D02*
D03*
Y185540D02*
D03*
Y175540D02*
D03*
Y165540D02*
D03*
Y155540D02*
D03*
Y145540D02*
D03*
Y135540D02*
D03*
Y125540D02*
D03*
Y115540D02*
D03*
Y105540D02*
D03*
Y95540D02*
D03*
X117930D02*
D03*
Y105540D02*
D03*
Y115540D02*
D03*
Y125540D02*
D03*
Y135540D02*
D03*
Y145540D02*
D03*
Y155540D02*
D03*
Y165540D02*
D03*
Y175540D02*
D03*
Y185540D02*
D03*
Y195540D02*
D03*
Y205540D02*
D03*
Y215540D02*
D03*
Y225540D02*
D03*
Y235540D02*
D03*
Y245540D02*
D03*
D26*
X165880Y64390D02*
D03*
X175880D02*
D03*
X185880D02*
D03*
D27*
X163000Y28115D02*
D03*
D28*
X147750Y13865D02*
D03*
Y43366D02*
D03*
D29*
X157780Y290920D02*
D03*
X112780D02*
D03*
Y390920D02*
D03*
X157780D02*
D03*
X244860D02*
D03*
X289860D02*
D03*
Y290920D02*
D03*
X244860D02*
D03*
X178820Y390916D02*
D03*
X223820D02*
D03*
Y290916D02*
D03*
X178820D02*
D03*
D30*
X95360Y21098D02*
D03*
D31*
X80860Y31098D02*
D03*
Y21098D02*
D03*
Y11098D02*
D03*
X109860D02*
D03*
Y21098D02*
D03*
Y31098D02*
D03*
D32*
X356710Y123630D02*
D03*
Y178630D02*
D03*
X324710D02*
D03*
Y123630D02*
D03*
D33*
X308500Y482000D02*
D03*
X325500D02*
D03*
X308500Y476500D02*
D03*
X325500Y476000D02*
D03*
D34*
X294130Y483940D02*
D03*
Y472940D02*
D03*
D35*
X300580Y515750D02*
D03*
X308580D02*
D03*
X316580D02*
D03*
X324580D02*
D03*
X332580D02*
D03*
D36*
X361080D02*
D03*
X272080D02*
D03*
D37*
Y575750D02*
D03*
X361080D02*
D03*
D38*
X225010Y578770D02*
D03*
X214010D02*
D03*
D39*
X362820Y486060D02*
D03*
X344820D02*
D03*
D40*
X211620Y532040D02*
D03*
X216620D02*
D03*
X206620D02*
D03*
X221620D02*
D03*
X206620Y501040D02*
D03*
X221620D02*
D03*
X211620D02*
D03*
X216620D02*
D03*
D41*
X201620Y529040D02*
D03*
X226620Y504040D02*
D03*
D42*
Y529040D02*
D03*
X201620Y504040D02*
D03*
D43*
X214120Y516540D02*
D03*
D44*
X231880Y17068D02*
D03*
Y7668D02*
D03*
D45*
X259850Y12368D02*
D03*
D46*
X427000Y18600D02*
D03*
Y44000D02*
D03*
Y69400D02*
D03*
Y94800D02*
D03*
Y120200D02*
D03*
Y145600D02*
D03*
Y171000D02*
D03*
Y196400D02*
D03*
Y221800D02*
D03*
Y247200D02*
D03*
Y272600D02*
D03*
Y298000D02*
D03*
Y323400D02*
D03*
Y348800D02*
D03*
Y374200D02*
D03*
X23000D02*
D03*
Y348800D02*
D03*
Y323400D02*
D03*
Y298000D02*
D03*
Y272600D02*
D03*
Y247200D02*
D03*
Y221800D02*
D03*
Y196400D02*
D03*
Y171000D02*
D03*
Y145600D02*
D03*
Y120200D02*
D03*
Y94800D02*
D03*
Y69400D02*
D03*
Y44000D02*
D03*
Y18600D02*
D03*
X390760Y554640D02*
D03*
Y529240D02*
D03*
X142889Y574041D02*
D03*
Y548641D02*
D03*
X114949Y574041D02*
D03*
Y548641D02*
D03*
D47*
X427000Y399600D02*
D03*
X23000D02*
D03*
X390760Y580040D02*
D03*
X142889Y523241D02*
D03*
X114949D02*
D03*
D48*
X338580Y545750D02*
D03*
X294580D02*
D03*
D49*
X100000Y30000D02*
D03*
X91000D02*
D03*
Y21000D02*
D03*
X100000D02*
D03*
Y12000D02*
D03*
X91000D02*
D03*
X219580Y522000D02*
D03*
Y511080D02*
D03*
X208660D02*
D03*
Y522000D02*
D03*
M02*
