G04*
G04 #@! TF.GenerationSoftware,Altium Limited,Altium Designer,18.1.7 (191)*
G04*
G04 Layer_Physical_Order=1*
G04 Layer_Color=255*
%FSLAX44Y44*%
%MOMM*%
G71*
G01*
G75*
%ADD12C,0.2000*%
%ADD13C,0.2540*%
%ADD44R,1.0000X0.6500*%
%ADD45R,1.0000X1.6000*%
%ADD50R,0.8000X0.6000*%
%ADD51R,0.8000X0.7000*%
G04:AMPARAMS|DCode=52|XSize=0.2mm|YSize=0.7mm|CornerRadius=0.02mm|HoleSize=0mm|Usage=FLASHONLY|Rotation=0.000|XOffset=0mm|YOffset=0mm|HoleType=Round|Shape=RoundedRectangle|*
%AMROUNDEDRECTD52*
21,1,0.2000,0.6600,0,0,0.0*
21,1,0.1600,0.7000,0,0,0.0*
1,1,0.0400,0.0800,-0.3300*
1,1,0.0400,-0.0800,-0.3300*
1,1,0.0400,-0.0800,0.3300*
1,1,0.0400,0.0800,0.3300*
%
%ADD52ROUNDEDRECTD52*%
%ADD53R,0.9000X0.3000*%
%ADD54R,0.7000X0.8000*%
%ADD55R,0.8000X1.2000*%
%ADD56R,0.2000X0.3500*%
%ADD57R,1.4400X0.4400*%
%ADD58R,0.6000X0.8000*%
%ADD59R,1.8500X0.7000*%
%ADD60R,0.7000X1.8500*%
%ADD61R,1.0500X1.0000*%
%ADD62R,2.2000X1.0500*%
%ADD63R,1.4000X2.1000*%
%ADD64R,1.6000X2.5000*%
%ADD65R,0.8500X0.4500*%
%ADD66R,1.9000X1.3000*%
G04:AMPARAMS|DCode=67|XSize=0.2mm|YSize=0.4mm|CornerRadius=0.02mm|HoleSize=0mm|Usage=FLASHONLY|Rotation=270.000|XOffset=0mm|YOffset=0mm|HoleType=Round|Shape=RoundedRectangle|*
%AMROUNDEDRECTD67*
21,1,0.2000,0.3600,0,0,270.0*
21,1,0.1600,0.4000,0,0,270.0*
1,1,0.0400,-0.1800,-0.0800*
1,1,0.0400,-0.1800,0.0800*
1,1,0.0400,0.1800,0.0800*
1,1,0.0400,0.1800,-0.0800*
%
%ADD67ROUNDEDRECTD67*%
%ADD68R,0.7000X0.9000*%
%ADD69R,0.5000X3.3000*%
%ADD70R,2.0000X3.3000*%
%ADD71R,2.0000X2.5000*%
%ADD72R,0.9000X0.7000*%
%ADD73R,1.2000X1.4000*%
%ADD74R,0.3000X0.9000*%
%ADD75R,0.3000X0.3000*%
%ADD76R,0.3000X0.3000*%
%ADD77R,1.8000X1.8000*%
%ADD78C,1.0000*%
%ADD79C,0.9000*%
%ADD80C,0.7000*%
%ADD81C,0.5000*%
%ADD82C,0.4000*%
%ADD83C,0.6000*%
%ADD84C,1.5000*%
%ADD85R,1.5000X1.5000*%
%ADD86C,0.6000*%
G36*
X168858Y588900D02*
X168687Y589058D01*
X168502Y589199D01*
X168302Y589323D01*
X168087Y589431D01*
X167857Y589523D01*
X167612Y589597D01*
X167352Y589655D01*
X167077Y589697D01*
X166787Y589722D01*
X166482Y589730D01*
Y592270D01*
X166787Y592278D01*
X167077Y592303D01*
X167352Y592345D01*
X167612Y592403D01*
X167857Y592477D01*
X168087Y592569D01*
X168302Y592677D01*
X168502Y592801D01*
X168687Y592942D01*
X168858Y593100D01*
Y588900D01*
D02*
G37*
G36*
X207986Y592740D02*
X213510D01*
Y591470D01*
X214780D01*
Y586946D01*
X219034D01*
Y586946D01*
X219986D01*
Y586946D01*
X222505D01*
X222511Y586925D01*
X222551Y586680D01*
X222580Y586356D01*
X222591Y585918D01*
X222661Y585760D01*
Y584980D01*
X222591Y584822D01*
X222580Y584384D01*
X222551Y584060D01*
X222511Y583815D01*
X222505Y583794D01*
X215280D01*
Y578770D01*
Y573746D01*
X231034D01*
Y575765D01*
X231055Y575771D01*
X231300Y575811D01*
X231624Y575840D01*
X232062Y575851D01*
X232220Y575921D01*
X232815D01*
X233726Y575054D01*
X233726Y574651D01*
Y570800D01*
X238250D01*
Y568260D01*
X233726D01*
Y564324D01*
X233726Y564006D01*
Y563054D01*
X233726Y562736D01*
Y560292D01*
X233070Y560162D01*
X232146Y559544D01*
X232146Y559544D01*
X231897Y559296D01*
X230724Y559782D01*
Y560990D01*
X225200D01*
Y563530D01*
X230724D01*
Y567284D01*
X230126D01*
X228949Y567426D01*
X228701Y567988D01*
X228466Y568554D01*
X228447Y568562D01*
X228439Y568581D01*
X228432Y568583D01*
X227867Y568802D01*
X227773Y568841D01*
Y569530D01*
X227577Y570515D01*
X227020Y571350D01*
X226185Y571908D01*
X225200Y572103D01*
X224215Y571908D01*
X223380Y571350D01*
X222822Y570515D01*
X222626Y569530D01*
Y568841D01*
X222533Y568802D01*
X221968Y568583D01*
X221961Y568581D01*
X221953Y568562D01*
X221933Y568554D01*
X221699Y567988D01*
X221451Y567426D01*
X220914Y567361D01*
X219676Y567284D01*
X218724D01*
Y567284D01*
X207676D01*
Y557236D01*
X210195D01*
X210201Y557215D01*
X210241Y556970D01*
X210270Y556646D01*
X210281Y556208D01*
X210351Y556050D01*
Y555770D01*
X210281Y555612D01*
X210270Y555174D01*
X210241Y554850D01*
X210201Y554605D01*
X210195Y554584D01*
X207676D01*
Y547011D01*
X206406Y546317D01*
X204920Y546613D01*
X203155Y546261D01*
X201658Y545262D01*
X200658Y543765D01*
X200307Y542000D01*
X200658Y540235D01*
X201658Y538738D01*
X203155Y537738D01*
X203596Y537651D01*
Y532064D01*
X198596D01*
Y527064D01*
X192596D01*
Y525310D01*
X198620D01*
Y522770D01*
X192596D01*
Y516016D01*
Y506016D01*
X198596D01*
Y501016D01*
X203596D01*
Y496493D01*
X197146D01*
X160573Y533066D01*
Y574000D01*
X160378Y574985D01*
X159820Y575820D01*
X148820Y586820D01*
X148728Y586881D01*
X149113Y588151D01*
X166280D01*
X166437Y588081D01*
X166694Y588074D01*
X166883Y588058D01*
X167049Y588033D01*
X167191Y588001D01*
X167311Y587964D01*
X167412Y587924D01*
X167495Y587883D01*
X167565Y587839D01*
X167624Y587794D01*
X167736Y587690D01*
X167903Y587628D01*
X169235Y586739D01*
X171000Y586387D01*
X172765Y586739D01*
X174262Y587738D01*
X175261Y589235D01*
X175613Y591000D01*
X175261Y592765D01*
X174682Y593632D01*
X175361Y594902D01*
X207986D01*
Y592740D01*
D02*
G37*
G36*
X227809Y588505D02*
X227593Y588428D01*
X227402Y588300D01*
X227237Y588120D01*
X227097Y587888D01*
X226983Y587606D01*
X226894Y587271D01*
X226831Y586886D01*
X226793Y586449D01*
X226780Y585961D01*
X224240D01*
X224227Y586449D01*
X224189Y586886D01*
X224126Y587271D01*
X224037Y587606D01*
X223923Y587888D01*
X223783Y588120D01*
X223618Y588300D01*
X223427Y588428D01*
X223211Y588505D01*
X222970Y588531D01*
X228050D01*
X227809Y588505D01*
D02*
G37*
G36*
X59942Y588687D02*
X59801Y588502D01*
X59677Y588302D01*
X59569Y588087D01*
X59478Y587857D01*
X59403Y587612D01*
X59353Y587389D01*
X59384Y587199D01*
X59473Y586864D01*
X59587Y586582D01*
X59727Y586350D01*
X59892Y586170D01*
X60083Y586042D01*
X60299Y585965D01*
X60540Y585939D01*
X55460D01*
X55701Y585965D01*
X55917Y586042D01*
X56108Y586170D01*
X56273Y586350D01*
X56413Y586582D01*
X56527Y586864D01*
X56616Y587199D01*
X56647Y587389D01*
X56597Y587612D01*
X56522Y587857D01*
X56431Y588087D01*
X56323Y588302D01*
X56199Y588502D01*
X56058Y588687D01*
X55900Y588858D01*
X60100D01*
X59942Y588687D01*
D02*
G37*
G36*
X414039Y590880D02*
X414249Y590801D01*
X414599Y590730D01*
X415089Y590669D01*
X416489Y590575D01*
X420970Y590500D01*
Y583500D01*
X419640Y583495D01*
X414039Y583120D01*
X413969Y583031D01*
Y590970D01*
X414039Y590880D01*
D02*
G37*
G36*
X226793Y584291D02*
X226831Y583854D01*
X226894Y583469D01*
X226983Y583134D01*
X227097Y582852D01*
X227237Y582620D01*
X227402Y582440D01*
X227593Y582312D01*
X227809Y582235D01*
X228050Y582209D01*
X222970D01*
X223211Y582235D01*
X223427Y582312D01*
X223618Y582440D01*
X223783Y582620D01*
X223923Y582852D01*
X224037Y583134D01*
X224126Y583469D01*
X224189Y583854D01*
X224227Y584291D01*
X224240Y584780D01*
X226780D01*
X226793Y584291D01*
D02*
G37*
G36*
X47886Y580040D02*
X47757Y579978D01*
X47643Y579875D01*
X47544Y579731D01*
X47460Y579546D01*
X47392Y579319D01*
X47339Y579051D01*
X47300Y578742D01*
X47278Y578392D01*
X47270Y578000D01*
X44730D01*
X44722Y578392D01*
X44662Y579051D01*
X44608Y579319D01*
X44540Y579546D01*
X44456Y579731D01*
X44357Y579875D01*
X44243Y579978D01*
X44114Y580040D01*
X43969Y580061D01*
X48031D01*
X47886Y580040D01*
D02*
G37*
G36*
X93911Y593632D02*
X93910Y593632D01*
X92986Y593014D01*
X92986Y593014D01*
X76980Y577009D01*
X51979D01*
X51847Y577206D01*
X52428Y578379D01*
X52526Y578476D01*
X52794Y578476D01*
X56730D01*
Y583000D01*
X58000D01*
Y584270D01*
X63524D01*
Y587524D01*
X62586D01*
X62284Y587744D01*
X61723Y588794D01*
X61747Y588851D01*
X61750Y588858D01*
X61737Y588889D01*
X61748Y588920D01*
X61497Y589468D01*
X61266Y590024D01*
X61263Y590026D01*
X61235Y590037D01*
X61221Y590068D01*
X61215Y590070D01*
X60849Y590205D01*
Y591000D01*
X60632Y592090D01*
X60014Y593014D01*
X59090Y593632D01*
X59089Y593632D01*
X59214Y594902D01*
X93786D01*
X93911Y593632D01*
D02*
G37*
G36*
X262110Y576230D02*
X262085Y576471D01*
X262009Y576687D01*
X261882Y576878D01*
X261704Y577043D01*
X261475Y577183D01*
X261196Y577297D01*
X260866Y577386D01*
X260485Y577449D01*
X260053Y577487D01*
X259570Y577500D01*
Y580040D01*
X260053Y580053D01*
X260485Y580091D01*
X260866Y580154D01*
X261196Y580243D01*
X261475Y580358D01*
X261704Y580497D01*
X261882Y580662D01*
X262009Y580853D01*
X262085Y581069D01*
X262110Y581310D01*
Y576230D01*
D02*
G37*
G36*
X229475Y581069D02*
X229552Y580853D01*
X229680Y580662D01*
X229860Y580497D01*
X230092Y580358D01*
X230374Y580243D01*
X230709Y580154D01*
X231094Y580091D01*
X231531Y580053D01*
X232019Y580040D01*
Y577500D01*
X231531Y577487D01*
X231094Y577449D01*
X230709Y577386D01*
X230374Y577297D01*
X230092Y577183D01*
X229860Y577043D01*
X229680Y576878D01*
X229552Y576687D01*
X229475Y576471D01*
X229449Y576230D01*
Y581310D01*
X229475Y581069D01*
D02*
G37*
G36*
X270110Y579532D02*
X270283Y579406D01*
X270480Y579288D01*
X270698Y579180D01*
X270939Y579081D01*
X271202Y578991D01*
X271487Y578910D01*
X272124Y578777D01*
X272476Y578724D01*
X269106Y575354D01*
X269053Y575706D01*
X268920Y576343D01*
X268839Y576628D01*
X268749Y576891D01*
X268650Y577132D01*
X268542Y577350D01*
X268424Y577547D01*
X268298Y577720D01*
X268162Y577872D01*
X269958Y579668D01*
X270110Y579532D01*
D02*
G37*
G36*
X32139Y576925D02*
X31923Y576848D01*
X31732Y576720D01*
X31567Y576540D01*
X31428Y576308D01*
X31313Y576026D01*
X31224Y575691D01*
X31161Y575306D01*
X31123Y574869D01*
X31110Y574380D01*
X28570D01*
X28557Y574869D01*
X28519Y575306D01*
X28456Y575691D01*
X28367Y576026D01*
X28252Y576308D01*
X28113Y576540D01*
X27948Y576720D01*
X27757Y576848D01*
X27541Y576925D01*
X27300Y576951D01*
X32380D01*
X32139Y576925D01*
D02*
G37*
G36*
X124094Y581772D02*
X123771Y581388D01*
X123483Y580920D01*
X123230Y580367D01*
X123013Y579728D01*
X122830Y579005D01*
X122683Y578197D01*
X122572Y577304D01*
X122455Y575263D01*
X122449Y574116D01*
X115024Y581540D01*
X116172Y581546D01*
X118212Y581664D01*
X119106Y581775D01*
X119914Y581922D01*
X120637Y582104D01*
X121275Y582322D01*
X121828Y582575D01*
X122296Y582863D01*
X122680Y583186D01*
X124094Y581772D01*
D02*
G37*
G36*
X414039Y578857D02*
X414249Y578757D01*
X414599Y578669D01*
X415089Y578592D01*
X415719Y578527D01*
X418450Y578404D01*
X420970Y578380D01*
Y571380D01*
X413969Y571031D01*
Y578969D01*
X414039Y578857D01*
D02*
G37*
G36*
X351110Y569750D02*
X351050Y570320D01*
X350870Y570830D01*
X350570Y571280D01*
X350150Y571670D01*
X349610Y572000D01*
X348951Y572270D01*
X348170Y572480D01*
X347271Y572630D01*
X346250Y572720D01*
X345111Y572750D01*
Y578750D01*
X346250Y578780D01*
X347271Y578870D01*
X348170Y579020D01*
X348951Y579230D01*
X349610Y579500D01*
X350150Y579830D01*
X350570Y580220D01*
X350870Y580670D01*
X351050Y581180D01*
X351110Y581750D01*
Y569750D01*
D02*
G37*
G36*
X282079Y581180D02*
X282260Y580670D01*
X282562Y580220D01*
X282984Y579830D01*
X283527Y579500D01*
X284190Y579230D01*
X284974Y579020D01*
X285879Y578870D01*
X286904Y578780D01*
X288050Y578750D01*
Y572750D01*
X286904Y572720D01*
X285879Y572630D01*
X284974Y572480D01*
X284190Y572270D01*
X283527Y572000D01*
X282984Y571670D01*
X282562Y571280D01*
X282260Y570830D01*
X282079Y570320D01*
X282019Y569750D01*
Y581750D01*
X282079Y581180D01*
D02*
G37*
G36*
X444902Y570138D02*
X443632Y569612D01*
X434742Y578502D01*
X433080Y579613D01*
X431120Y580002D01*
X421049D01*
X420985Y580029D01*
X418494Y580053D01*
X416739Y580132D01*
X416595Y580365D01*
X417272Y581683D01*
X419697Y581846D01*
X420975Y581850D01*
X421040Y581878D01*
X427000D01*
X428960Y582267D01*
X430622Y583378D01*
X431732Y585040D01*
X432122Y587000D01*
X431732Y588960D01*
X430622Y590622D01*
X428960Y591732D01*
X427000Y592122D01*
X421059D01*
X420997Y592149D01*
X416558Y592224D01*
X415524Y592293D01*
Y592524D01*
X414315D01*
X414167Y592607D01*
X414066Y592579D01*
X413969Y592619D01*
X413740Y592524D01*
X412270D01*
Y587000D01*
X409730D01*
Y592524D01*
X406476D01*
Y589272D01*
X406268Y588960D01*
X405878Y587000D01*
X406268Y585040D01*
X406476Y584728D01*
Y581794D01*
X406476Y581476D01*
Y580524D01*
X406476Y580206D01*
Y579337D01*
X406398Y579205D01*
X406405Y579176D01*
X406391Y579150D01*
X406357Y578844D01*
X406279Y578578D01*
X406106Y578183D01*
X405827Y577684D01*
X405440Y577095D01*
X404963Y576452D01*
X402810Y573993D01*
X401901Y573064D01*
X401880Y573011D01*
X401026Y572190D01*
X399784Y572704D01*
Y589064D01*
X381736D01*
Y585102D01*
X380080Y584772D01*
X378418Y583662D01*
X373874Y579118D01*
X372604Y579644D01*
Y589774D01*
X349556D01*
Y582081D01*
X349470Y581923D01*
X349430Y581546D01*
X349384Y581413D01*
X349306Y581297D01*
X349149Y581151D01*
X348863Y580977D01*
X348422Y580796D01*
X347820Y580634D01*
X347062Y580508D01*
X346156Y580428D01*
X345067Y580399D01*
X344985Y580363D01*
X288174D01*
X288093Y580399D01*
X286997Y580428D01*
X286086Y580508D01*
X285323Y580634D01*
X284716Y580797D01*
X284271Y580978D01*
X283982Y581154D01*
X283824Y581300D01*
X283746Y581416D01*
X283699Y581548D01*
X283659Y581923D01*
X283604Y582025D01*
Y589774D01*
X260556D01*
Y581779D01*
X260515Y581768D01*
X260277Y581728D01*
X259959Y581700D01*
X259527Y581689D01*
X259369Y581619D01*
X232220D01*
X232062Y581689D01*
X231624Y581700D01*
X231300Y581729D01*
X231055Y581769D01*
X231034Y581775D01*
Y583794D01*
X228515D01*
X228509Y583815D01*
X228469Y584060D01*
X228440Y584384D01*
X228429Y584822D01*
X228359Y584980D01*
Y585760D01*
X228429Y585918D01*
X228440Y586356D01*
X228469Y586680D01*
X228509Y586925D01*
X228515Y586946D01*
X231034D01*
Y594902D01*
X444902D01*
Y570138D01*
D02*
G37*
G36*
X413969Y571031D02*
X413775Y571007D01*
X413620Y570951D01*
X413475Y570850D01*
X413349Y570710D01*
X413242Y570531D01*
X413155Y570311D01*
X413087Y570051D01*
X413039Y569751D01*
X413010Y569411D01*
X413000Y569030D01*
X411000D01*
X410990Y569411D01*
X410981Y569514D01*
X409843Y568605D01*
X408110Y567021D01*
X407150Y566081D01*
X403081Y571911D01*
X404021Y572872D01*
X406249Y575416D01*
X406793Y576150D01*
X407239Y576828D01*
X407585Y577448D01*
X407832Y578012D01*
X407981Y578519D01*
X408031Y578969D01*
X413969Y571031D01*
D02*
G37*
G36*
X43932Y569057D02*
X43999Y568088D01*
X44023Y567983D01*
X44052Y567909D01*
X44084Y567864D01*
X44120Y567849D01*
X41200D01*
X41236Y567864D01*
X41268Y567909D01*
X41297Y567983D01*
X41322Y568088D01*
X41342Y568222D01*
X41373Y568580D01*
X41388Y569057D01*
X41390Y569340D01*
X43930D01*
X43932Y569057D01*
D02*
G37*
G36*
X226209Y567388D02*
X227300D01*
X227091Y567169D01*
X226904Y566943D01*
X226739Y566711D01*
X226596Y566472D01*
X226475Y566227D01*
X226460Y566189D01*
X226560Y566024D01*
X226690Y565882D01*
X226840Y565780D01*
X227010Y565719D01*
X227200Y565699D01*
X226295D01*
X226244Y565452D01*
X226211Y565180D01*
X226200Y564902D01*
X224200D01*
X224189Y565180D01*
X224156Y565452D01*
X224105Y565699D01*
X223200D01*
X223390Y565719D01*
X223560Y565780D01*
X223710Y565882D01*
X223840Y566024D01*
X223940Y566189D01*
X223925Y566227D01*
X223804Y566472D01*
X223661Y566711D01*
X223496Y566943D01*
X223309Y567169D01*
X223100Y567388D01*
X224191D01*
X224200Y567729D01*
X226200D01*
X226209Y567388D01*
D02*
G37*
G36*
X150394Y572818D02*
X150512Y570777D01*
X150624Y569884D01*
X150770Y569076D01*
X150953Y568353D01*
X151170Y567715D01*
X151423Y567162D01*
X151711Y566693D01*
X152034Y566310D01*
X150620Y564896D01*
X150237Y565219D01*
X149768Y565507D01*
X149215Y565760D01*
X148577Y565977D01*
X147854Y566160D01*
X147045Y566306D01*
X146152Y566418D01*
X144112Y566535D01*
X142964Y566541D01*
X150389Y573966D01*
X150394Y572818D01*
D02*
G37*
G36*
X413020Y567620D02*
X413080Y567280D01*
X413180Y566980D01*
X413320Y566720D01*
X413500Y566500D01*
X413720Y566320D01*
X413980Y566180D01*
X414280Y566080D01*
X414620Y566020D01*
X415000Y566000D01*
Y565333D01*
X416000Y566000D01*
X418000D01*
X419000Y564000D01*
X419000D01*
X418620Y563980D01*
X418280Y563920D01*
X417980Y563820D01*
X417720Y563680D01*
X417500Y563500D01*
X417320Y563280D01*
X417180Y563020D01*
X417080Y562720D01*
X417020Y562380D01*
X417000Y562000D01*
X415000D01*
X414999Y562020D01*
X414980Y562380D01*
X414920Y562720D01*
X414820Y563020D01*
X414680Y563280D01*
X414500Y563500D01*
X414280Y563680D01*
X414020Y563820D01*
X414000Y563827D01*
X413980Y563820D01*
X413720Y563680D01*
X413500Y563500D01*
X413320Y563280D01*
X413180Y563020D01*
X413080Y562720D01*
X413020Y562380D01*
X413000Y562000D01*
X411000Y565000D01*
X413000Y568000D01*
X413020Y567620D01*
D02*
G37*
G36*
X366510Y563251D02*
X366000Y563070D01*
X365550Y562768D01*
X365160Y562346D01*
X364830Y561803D01*
X364560Y561140D01*
X364350Y560356D01*
X364200Y559451D01*
X364110Y558426D01*
X364080Y557281D01*
X358080D01*
X358050Y558426D01*
X357960Y559451D01*
X357810Y560356D01*
X357600Y561140D01*
X357330Y561803D01*
X357000Y562346D01*
X356610Y562768D01*
X356160Y563070D01*
X355650Y563251D01*
X355080Y563311D01*
X367080D01*
X366510Y563251D01*
D02*
G37*
G36*
X277510D02*
X277000Y563070D01*
X276550Y562768D01*
X276160Y562346D01*
X275830Y561803D01*
X275560Y561140D01*
X275350Y560356D01*
X275200Y559451D01*
X275110Y558426D01*
X275080Y557281D01*
X269080D01*
X269050Y558426D01*
X268960Y559451D01*
X268810Y560356D01*
X268600Y561140D01*
X268330Y561803D01*
X268000Y562346D01*
X267610Y562768D01*
X267160Y563070D01*
X266650Y563251D01*
X266080Y563311D01*
X278080D01*
X277510Y563251D01*
D02*
G37*
G36*
X215499Y558795D02*
X215283Y558718D01*
X215092Y558590D01*
X214927Y558410D01*
X214788Y558178D01*
X214673Y557896D01*
X214584Y557561D01*
X214521Y557176D01*
X214483Y556739D01*
X214470Y556250D01*
X211930D01*
X211917Y556739D01*
X211879Y557176D01*
X211816Y557561D01*
X211727Y557896D01*
X211612Y558178D01*
X211473Y558410D01*
X211308Y558590D01*
X211117Y558718D01*
X210901Y558795D01*
X210660Y558821D01*
X215740D01*
X215499Y558795D01*
D02*
G37*
G36*
X425002Y557690D02*
X425108Y556149D01*
X425137Y556090D01*
X425169Y556069D01*
X422000Y556039D01*
X422190Y556061D01*
X422360Y556123D01*
X422510Y556226D01*
X422640Y556368D01*
X422750Y556552D01*
X422840Y556775D01*
X422910Y557038D01*
X422960Y557342D01*
X422990Y557686D01*
X423000Y558069D01*
X425000D01*
X425002Y557690D01*
D02*
G37*
G36*
X257858Y555430D02*
X257687Y555588D01*
X257502Y555729D01*
X257302Y555853D01*
X257087Y555961D01*
X256857Y556053D01*
X256612Y556127D01*
X256352Y556185D01*
X256077Y556227D01*
X255787Y556252D01*
X255482Y556260D01*
Y558800D01*
X255787Y558808D01*
X256077Y558833D01*
X256352Y558875D01*
X256612Y558933D01*
X256857Y559007D01*
X257087Y559099D01*
X257302Y559207D01*
X257502Y559331D01*
X257687Y559472D01*
X257858Y559630D01*
Y555430D01*
D02*
G37*
G36*
X252645Y559829D02*
X252722Y559613D01*
X252850Y559422D01*
X253030Y559257D01*
X253262Y559118D01*
X253544Y559003D01*
X253878Y558914D01*
X254264Y558851D01*
X254701Y558813D01*
X255189Y558800D01*
Y556260D01*
X254701Y556247D01*
X254264Y556209D01*
X253878Y556146D01*
X253544Y556057D01*
X253262Y555942D01*
X253030Y555803D01*
X252850Y555638D01*
X252722Y555447D01*
X252645Y555231D01*
X252619Y554990D01*
Y560070D01*
X252645Y559829D01*
D02*
G37*
G36*
X246741Y554990D02*
X246715Y555231D01*
X246638Y555447D01*
X246510Y555638D01*
X246330Y555803D01*
X246098Y555942D01*
X245816Y556057D01*
X245481Y556146D01*
X245096Y556209D01*
X244659Y556247D01*
X244170Y556260D01*
Y558800D01*
X244659Y558813D01*
X245096Y558851D01*
X245481Y558914D01*
X245816Y559003D01*
X246098Y559118D01*
X246330Y559257D01*
X246510Y559422D01*
X246638Y559613D01*
X246715Y559829D01*
X246741Y560070D01*
Y554990D01*
D02*
G37*
G36*
X241215Y559829D02*
X241292Y559613D01*
X241420Y559422D01*
X241600Y559257D01*
X241832Y559118D01*
X242114Y559003D01*
X242449Y558914D01*
X242834Y558851D01*
X243271Y558813D01*
X243759Y558800D01*
Y556260D01*
X243271Y556247D01*
X242834Y556209D01*
X242449Y556146D01*
X242114Y556057D01*
X241832Y555942D01*
X241600Y555803D01*
X241420Y555638D01*
X241292Y555447D01*
X241215Y555231D01*
X241189Y554990D01*
Y560070D01*
X241215Y559829D01*
D02*
G37*
G36*
X427958Y551800D02*
X427739Y552009D01*
X427513Y552196D01*
X427281Y552361D01*
X427042Y552504D01*
X426797Y552625D01*
X426545Y552724D01*
X426287Y552801D01*
X426195Y552820D01*
X426134Y552810D01*
X425870Y552740D01*
X425647Y552650D01*
X425464Y552540D01*
X425322Y552410D01*
X425220Y552260D01*
X425159Y552090D01*
X425139Y551900D01*
Y555900D01*
X425159Y555710D01*
X425220Y555540D01*
X425322Y555390D01*
X425464Y555260D01*
X425647Y555150D01*
X425870Y555060D01*
X426134Y554990D01*
X426195Y554980D01*
X426287Y554999D01*
X426545Y555076D01*
X426797Y555175D01*
X427042Y555296D01*
X427281Y555439D01*
X427513Y555604D01*
X427739Y555791D01*
X427958Y556000D01*
Y551800D01*
D02*
G37*
G36*
X401107Y560037D02*
X400562Y559467D01*
X399645Y558352D01*
X399273Y557807D01*
X398959Y557271D01*
X398703Y556743D01*
X398506Y556223D01*
X398366Y555712D01*
X398284Y555209D01*
X398260Y554715D01*
X390835Y562140D01*
X391329Y562164D01*
X391832Y562246D01*
X392343Y562386D01*
X392863Y562584D01*
X393391Y562839D01*
X393927Y563153D01*
X394472Y563525D01*
X395025Y563954D01*
X395587Y564442D01*
X396157Y564987D01*
X401107Y560037D01*
D02*
G37*
G36*
X40760Y588211D02*
X40476Y587524D01*
X40476D01*
Y578476D01*
X43058D01*
X43074Y578300D01*
X43081Y577968D01*
X43222Y577645D01*
X43368Y576910D01*
X43986Y575986D01*
X47826Y572146D01*
X47826Y572146D01*
X48750Y571528D01*
X49840Y571311D01*
X78160D01*
X78160Y571311D01*
X79250Y571528D01*
X80174Y572146D01*
X96180Y588151D01*
X123795D01*
X124181Y586881D01*
X124089Y586820D01*
X121762Y584493D01*
X121616Y584447D01*
X121327Y584203D01*
X121051Y584033D01*
X120665Y583856D01*
X120168Y583687D01*
X119564Y583535D01*
X118856Y583406D01*
X118063Y583307D01*
X116120Y583195D01*
X115016Y583190D01*
X114882Y583134D01*
X112593Y582832D01*
X110398Y581923D01*
X108513Y580477D01*
X107067Y578592D01*
X106157Y576396D01*
X105847Y574041D01*
X106157Y571685D01*
X107067Y569490D01*
X108513Y567605D01*
X110398Y566158D01*
X112593Y565249D01*
X114949Y564939D01*
X117305Y565249D01*
X119500Y566158D01*
X121385Y567605D01*
X122832Y569490D01*
X123741Y571685D01*
X124042Y573974D01*
X124098Y574108D01*
X124104Y575212D01*
X124216Y577154D01*
X124315Y577947D01*
X124443Y578656D01*
X124596Y579260D01*
X124765Y579756D01*
X124941Y580142D01*
X125111Y580419D01*
X125355Y580708D01*
X125401Y580854D01*
X126974Y582426D01*
X136908D01*
X137339Y581157D01*
X136453Y580477D01*
X135007Y578592D01*
X134097Y576396D01*
X133787Y574041D01*
X134097Y571685D01*
X135007Y569490D01*
X136453Y567605D01*
X138338Y566158D01*
X140533Y565249D01*
X142822Y564948D01*
X142956Y564892D01*
X144060Y564886D01*
X146003Y564774D01*
X146796Y564675D01*
X147504Y564547D01*
X148108Y564394D01*
X148605Y564225D01*
X148990Y564049D01*
X149267Y563879D01*
X149557Y563635D01*
X149702Y563588D01*
X151426Y561864D01*
Y554424D01*
X150156Y553993D01*
X149325Y555077D01*
X147440Y556523D01*
X145245Y557433D01*
X142889Y557743D01*
X140533Y557433D01*
X138338Y556523D01*
X136453Y555077D01*
X135007Y553192D01*
X134097Y550997D01*
X133797Y548712D01*
X133740Y548578D01*
X133732Y547551D01*
X133609Y545730D01*
X133502Y544986D01*
X133362Y544313D01*
X133197Y543730D01*
X133013Y543241D01*
X132816Y542843D01*
X132614Y542533D01*
X132333Y542208D01*
X132287Y542067D01*
X129068Y538849D01*
X118209D01*
X117956Y540119D01*
X119500Y540758D01*
X121385Y542205D01*
X122832Y544090D01*
X123741Y546285D01*
X124051Y548641D01*
X123741Y550997D01*
X122832Y553192D01*
X121385Y555077D01*
X119500Y556523D01*
X117305Y557433D01*
X114949Y557743D01*
X112593Y557433D01*
X110398Y556523D01*
X108513Y555077D01*
X107067Y553192D01*
X106157Y550997D01*
X106069Y550322D01*
X105914Y550081D01*
X105524Y547907D01*
X105322Y547012D01*
X104872Y545426D01*
X104650Y544818D01*
X104422Y544297D01*
X104202Y543885D01*
X104002Y543585D01*
X103754Y543297D01*
X103707Y543157D01*
X91416Y530865D01*
X90798Y529941D01*
X90581Y528851D01*
X90581Y528850D01*
Y462948D01*
X89408Y462462D01*
X45509Y506361D01*
Y519799D01*
X45579Y519957D01*
X45590Y520389D01*
X45618Y520707D01*
X45658Y520945D01*
X45669Y520986D01*
X47684D01*
Y531716D01*
X47684Y532034D01*
Y532986D01*
X47684Y533304D01*
Y544034D01*
X45979D01*
X45544Y545213D01*
X45979Y546386D01*
X47684D01*
Y557116D01*
X47684Y557434D01*
Y558386D01*
X47684Y558704D01*
Y569434D01*
X45545D01*
X45441Y569678D01*
X45292Y570430D01*
X44674Y571354D01*
X44674Y571354D01*
X42014Y574014D01*
X41090Y574632D01*
X40000Y574849D01*
X40000Y574849D01*
X36420D01*
X35364Y575366D01*
Y589311D01*
X39660D01*
X40760Y588211D01*
D02*
G37*
G36*
X214483Y555081D02*
X214521Y554644D01*
X214584Y554259D01*
X214673Y553924D01*
X214788Y553642D01*
X214927Y553410D01*
X215092Y553230D01*
X215283Y553102D01*
X215499Y553025D01*
X215740Y552999D01*
X210660D01*
X210901Y553025D01*
X211117Y553102D01*
X211308Y553230D01*
X211473Y553410D01*
X211612Y553642D01*
X211727Y553924D01*
X211816Y554259D01*
X211879Y554644D01*
X211917Y555081D01*
X211930Y555569D01*
X214470D01*
X214483Y555081D01*
D02*
G37*
G36*
X265906Y561670D02*
X266282Y561631D01*
X266414Y561584D01*
X266530Y561506D01*
X266676Y561348D01*
X266852Y561059D01*
X267033Y560614D01*
X267196Y560007D01*
X267322Y559244D01*
X267402Y558333D01*
X267431Y557237D01*
X267467Y557156D01*
Y538344D01*
X267431Y538263D01*
X267402Y537167D01*
X267322Y536256D01*
X267196Y535493D01*
X267033Y534887D01*
X266852Y534441D01*
X266676Y534152D01*
X266530Y533994D01*
X266413Y533916D01*
X266282Y533869D01*
X265906Y533829D01*
X265804Y533774D01*
X260556D01*
Y515196D01*
X259600Y514800D01*
X259286Y514774D01*
X248430Y525630D01*
X247595Y526188D01*
X246611Y526384D01*
X236156D01*
X236105Y526418D01*
X235644Y526509D01*
Y527064D01*
X235072D01*
X234393Y528334D01*
X234521Y528526D01*
X243806D01*
X244124Y528526D01*
X245076D01*
X245394Y528526D01*
X249330D01*
Y533050D01*
X250600D01*
Y534320D01*
X256124D01*
Y537574D01*
X253271D01*
X253258Y537727D01*
X253249Y538062D01*
X253173Y538232D01*
Y539298D01*
X253249Y539468D01*
X253258Y539803D01*
X253271Y539956D01*
X256124D01*
Y540132D01*
X257070Y540808D01*
X257394Y540923D01*
X257858Y540730D01*
X257877Y540738D01*
X257896Y540731D01*
X258460Y540980D01*
X259024Y541214D01*
X259032Y541232D01*
X259051Y541241D01*
X259053Y541247D01*
X259272Y541813D01*
X259311Y541907D01*
X260000D01*
X260985Y542102D01*
X261820Y542660D01*
X262378Y543495D01*
X262573Y544480D01*
X262378Y545465D01*
X261820Y546300D01*
X260985Y546858D01*
X260000Y547053D01*
X259311D01*
X259272Y547147D01*
X259053Y547712D01*
X259051Y547719D01*
X259032Y547727D01*
X259024Y547746D01*
X258459Y547980D01*
X257896Y548229D01*
X257891Y548227D01*
X257877Y548222D01*
X257858Y548230D01*
X257851Y548227D01*
X257394Y548037D01*
X257070Y548152D01*
X256124Y548828D01*
Y549004D01*
X251870D01*
Y544480D01*
X249330D01*
Y549004D01*
X245394D01*
X245076Y549004D01*
X244124D01*
X243806Y549004D01*
X235438D01*
X234704Y550274D01*
X234849Y551000D01*
X235588Y552006D01*
X242774D01*
Y554525D01*
X242795Y554531D01*
X243040Y554571D01*
X243365Y554600D01*
X243802Y554611D01*
X243960Y554681D01*
X243970D01*
X244128Y554611D01*
X244566Y554600D01*
X244890Y554571D01*
X245135Y554531D01*
X245156Y554525D01*
Y552006D01*
X254204D01*
Y554145D01*
X255437Y554611D01*
X255694Y554604D01*
X255883Y554588D01*
X256049Y554563D01*
X256191Y554531D01*
X256311Y554494D01*
X256412Y554454D01*
X256495Y554413D01*
X256565Y554369D01*
X256624Y554324D01*
X256736Y554220D01*
X256903Y554158D01*
X258235Y553269D01*
X260000Y552917D01*
X261765Y553269D01*
X263262Y554268D01*
X264261Y555765D01*
X264613Y557530D01*
X264261Y559295D01*
X263486Y560456D01*
X263975Y561726D01*
X265804D01*
X265906Y561670D01*
D02*
G37*
G36*
X435878Y562878D02*
Y408624D01*
X434276D01*
X434174Y408679D01*
X433702Y408729D01*
X433486Y408806D01*
X433294Y408934D01*
X433083Y409162D01*
X432853Y409541D01*
X432627Y410097D01*
X432429Y410833D01*
X432278Y411746D01*
X432183Y412828D01*
X432149Y414113D01*
X432122Y414173D01*
Y472000D01*
X431732Y473960D01*
X430622Y475622D01*
X395882Y510362D01*
Y518009D01*
X395909Y518070D01*
X395926Y518819D01*
X395972Y519476D01*
X396048Y520076D01*
X396150Y520618D01*
X396277Y521102D01*
X396425Y521527D01*
X396590Y521896D01*
X396770Y522211D01*
X396962Y522478D01*
X397232Y522776D01*
X397282Y522916D01*
X398642Y524689D01*
X399552Y526884D01*
X399862Y529240D01*
X399552Y531596D01*
X398642Y533791D01*
X397196Y535676D01*
X395311Y537122D01*
X393116Y538032D01*
X390760Y538342D01*
X388404Y538032D01*
X386209Y537122D01*
X384324Y535676D01*
X383392Y534462D01*
X382122Y534893D01*
Y548987D01*
X383392Y549418D01*
X384324Y548204D01*
X386209Y546758D01*
X388404Y545848D01*
X390760Y545538D01*
X393116Y545848D01*
X395311Y546758D01*
X397196Y548204D01*
X398642Y550089D01*
X399552Y552284D01*
X399843Y554500D01*
X399907Y554635D01*
X399927Y555036D01*
X399980Y555360D01*
X400076Y555711D01*
X400219Y556088D01*
X400416Y556494D01*
X400668Y556925D01*
X400966Y557362D01*
X401797Y558372D01*
X402299Y558897D01*
X402323Y558959D01*
X408092Y564727D01*
X408095Y564728D01*
X408099Y564735D01*
X408162Y564798D01*
X408567Y564745D01*
X409426Y564224D01*
Y560000D01*
X409476Y559751D01*
Y557624D01*
X409276D01*
Y555170D01*
X418000D01*
Y552630D01*
X409276D01*
Y550176D01*
X409476D01*
Y548049D01*
X409427Y547800D01*
Y544000D01*
X409622Y543015D01*
X410180Y542180D01*
X411513Y540848D01*
X411680Y540005D01*
X411822Y539794D01*
X411143Y538524D01*
X407476D01*
Y535270D01*
X413000D01*
Y534000D01*
X414270D01*
Y529476D01*
X418524D01*
X419598Y529002D01*
X419846Y525303D01*
X419850Y524025D01*
X419878Y523960D01*
Y510000D01*
X420267Y508040D01*
X421378Y506378D01*
X423040Y505267D01*
X425000Y504878D01*
X426960Y505267D01*
X428622Y506378D01*
X429733Y508040D01*
X430122Y510000D01*
Y523941D01*
X430149Y524003D01*
X430224Y528442D01*
X430293Y529476D01*
X430524D01*
Y530685D01*
X430607Y530833D01*
X430579Y530934D01*
X430619Y531031D01*
X430524Y531260D01*
Y538524D01*
X428742D01*
X428735Y538562D01*
X428658Y539470D01*
X428649Y539968D01*
X428535Y540231D01*
X428320Y541315D01*
X427541Y542481D01*
X426573Y543448D01*
Y547800D01*
X426524Y548049D01*
Y549359D01*
X426870Y549768D01*
X427635Y550157D01*
X427958Y550150D01*
X427977Y550158D01*
X427996Y550151D01*
X428560Y550400D01*
X429124Y550634D01*
X429132Y550653D01*
X429151Y550661D01*
X429153Y550667D01*
X429372Y551233D01*
X429411Y551327D01*
X430100D01*
X431085Y551522D01*
X431920Y552080D01*
X432478Y552915D01*
X432673Y553900D01*
X432478Y554885D01*
X431920Y555720D01*
X431085Y556278D01*
X430100Y556474D01*
X429411D01*
X429372Y556567D01*
X429154Y557132D01*
X429151Y557139D01*
X429132Y557147D01*
X429124Y557166D01*
X428560Y557400D01*
X427996Y557649D01*
X427991Y557647D01*
X427977Y557642D01*
X427958Y557650D01*
X427768Y557646D01*
X426969Y557953D01*
X426573Y558460D01*
Y560000D01*
X426524Y560249D01*
Y563274D01*
X425270D01*
Y560000D01*
X422730D01*
Y563274D01*
X422574D01*
Y565000D01*
X422378Y565985D01*
X421820Y566820D01*
X420985Y567378D01*
X420000Y567573D01*
X418184D01*
X418000Y567650D01*
X416000D01*
X415711Y567787D01*
X415429Y568558D01*
X415961Y569478D01*
X421052Y569732D01*
X421105Y569758D01*
X428998D01*
X435878Y562878D01*
D02*
G37*
G36*
X229183Y550928D02*
X229225Y550907D01*
X229295Y550889D01*
X229392Y550873D01*
X229517Y550860D01*
X230059Y550835D01*
X230560Y550830D01*
Y548290D01*
X230296Y548289D01*
X229295Y548231D01*
X229225Y548213D01*
X229183Y548192D01*
X229170Y548170D01*
Y550951D01*
X229183Y550928D01*
D02*
G37*
G36*
X16993Y550497D02*
X16808Y550426D01*
X16644Y550308D01*
X16503Y550143D01*
X16383Y549930D01*
X16284Y549671D01*
X16208Y549364D01*
X16154Y549010D01*
X16121Y548609D01*
X16110Y548160D01*
X13570D01*
X13559Y548609D01*
X13526Y549010D01*
X13472Y549364D01*
X13396Y549671D01*
X13297Y549930D01*
X13177Y550143D01*
X13036Y550308D01*
X12872Y550426D01*
X12687Y550497D01*
X12479Y550521D01*
X17200D01*
X16993Y550497D01*
D02*
G37*
G36*
X32259Y550525D02*
X32043Y550448D01*
X31852Y550320D01*
X31687Y550140D01*
X31548Y549908D01*
X31433Y549626D01*
X31344Y549291D01*
X31281Y548906D01*
X31243Y548469D01*
X31230Y547980D01*
X28690D01*
X28677Y548469D01*
X28639Y548906D01*
X28576Y549291D01*
X28487Y549626D01*
X28372Y549908D01*
X28233Y550140D01*
X28068Y550320D01*
X27877Y550448D01*
X27661Y550525D01*
X27420Y550551D01*
X32500D01*
X32259Y550525D01*
D02*
G37*
G36*
X257858Y542380D02*
X257639Y542589D01*
X257413Y542776D01*
X257181Y542941D01*
X256942Y543084D01*
X256697Y543205D01*
X256445Y543304D01*
X256187Y543381D01*
X255921Y543436D01*
X255868Y543442D01*
X255839Y543440D01*
X255534Y543390D01*
X255270Y543320D01*
X255047Y543230D01*
X254864Y543120D01*
X254722Y542990D01*
X254620Y542840D01*
X254559Y542670D01*
X254539Y542480D01*
Y546480D01*
X254559Y546290D01*
X254620Y546120D01*
X254722Y545970D01*
X254864Y545840D01*
X255047Y545730D01*
X255270Y545640D01*
X255534Y545570D01*
X255839Y545520D01*
X255868Y545518D01*
X255921Y545524D01*
X256187Y545579D01*
X256445Y545656D01*
X256697Y545755D01*
X256942Y545876D01*
X257181Y546019D01*
X257413Y546184D01*
X257639Y546371D01*
X257858Y546580D01*
Y542380D01*
D02*
G37*
G36*
X44959Y547915D02*
X44743Y547839D01*
X44552Y547712D01*
X44387Y547534D01*
X44247Y547305D01*
X44133Y547026D01*
X44044Y546696D01*
X43981Y546315D01*
X43943Y545883D01*
X43930Y545401D01*
X41390D01*
X41377Y545883D01*
X41339Y546315D01*
X41276Y546696D01*
X41187Y547026D01*
X41073Y547305D01*
X40933Y547534D01*
X40768Y547712D01*
X40577Y547839D01*
X40361Y547915D01*
X40120Y547940D01*
X45200D01*
X44959Y547915D01*
D02*
G37*
G36*
X214487Y546108D02*
X214483Y546068D01*
X214475Y545791D01*
X214470Y544800D01*
X211930D01*
X211910Y546121D01*
X214491D01*
X214487Y546108D01*
D02*
G37*
G36*
X227499Y546095D02*
X227283Y546018D01*
X227092Y545890D01*
X226927Y545710D01*
X226787Y545478D01*
X226673Y545196D01*
X226584Y544861D01*
X226521Y544476D01*
X226483Y544039D01*
X226470Y543550D01*
X223930D01*
X223917Y544039D01*
X223879Y544476D01*
X223816Y544861D01*
X223727Y545196D01*
X223612Y545478D01*
X223473Y545710D01*
X223308Y545890D01*
X223117Y546018D01*
X222901Y546095D01*
X222660Y546121D01*
X227740D01*
X227499Y546095D01*
D02*
G37*
G36*
X43943Y544531D02*
X43981Y544094D01*
X44044Y543709D01*
X44133Y543374D01*
X44247Y543092D01*
X44387Y542860D01*
X44552Y542680D01*
X44743Y542552D01*
X44959Y542475D01*
X45200Y542449D01*
X40120D01*
X40361Y542475D01*
X40577Y542552D01*
X40768Y542680D01*
X40933Y542860D01*
X41073Y543092D01*
X41187Y543374D01*
X41276Y543709D01*
X41339Y544094D01*
X41377Y544531D01*
X41390Y545019D01*
X43930D01*
X43943Y544531D01*
D02*
G37*
G36*
X31243Y544531D02*
X31281Y544094D01*
X31344Y543709D01*
X31433Y543374D01*
X31548Y543092D01*
X31687Y542860D01*
X31852Y542680D01*
X32043Y542552D01*
X32259Y542475D01*
X32500Y542449D01*
X27420D01*
X27661Y542475D01*
X27877Y542552D01*
X28068Y542680D01*
X28233Y542860D01*
X28372Y543092D01*
X28487Y543374D01*
X28576Y543709D01*
X28639Y544094D01*
X28677Y544531D01*
X28690Y545019D01*
X31230D01*
X31243Y544531D01*
D02*
G37*
G36*
X18543D02*
X18581Y544094D01*
X18644Y543709D01*
X18733Y543374D01*
X18848Y543092D01*
X18987Y542860D01*
X19152Y542680D01*
X19343Y542552D01*
X19559Y542475D01*
X19800Y542449D01*
X14720D01*
X14961Y542475D01*
X15177Y542552D01*
X15368Y542680D01*
X15533Y542860D01*
X15673Y543092D01*
X15787Y543374D01*
X15876Y543709D01*
X15939Y544094D01*
X15977Y544531D01*
X15990Y545019D01*
X18530D01*
X18543Y544531D01*
D02*
G37*
G36*
X113653Y541254D02*
X112659Y541404D01*
X110857Y541530D01*
X110048Y541504D01*
X109302Y541420D01*
X108617Y541278D01*
X107995Y541077D01*
X107434Y540817D01*
X106935Y540499D01*
X106498Y540122D01*
X105003Y542219D01*
X105318Y542585D01*
X105620Y543038D01*
X105908Y543577D01*
X106182Y544204D01*
X106442Y544918D01*
X106922Y546605D01*
X107141Y547580D01*
X107538Y549789D01*
X113653Y541254D01*
D02*
G37*
G36*
X207678Y543211D02*
X207735Y543166D01*
X207815Y543127D01*
X207917Y543094D01*
X208042Y543065D01*
X208189Y543042D01*
X208550Y543010D01*
X209000Y543000D01*
Y541000D01*
X208764Y540997D01*
X208189Y540958D01*
X208042Y540935D01*
X207917Y540906D01*
X207815Y540873D01*
X207735Y540834D01*
X207678Y540789D01*
X207643Y540740D01*
Y543260D01*
X207678Y543211D01*
D02*
G37*
G36*
X252410Y541521D02*
X252240Y541460D01*
X252090Y541358D01*
X251960Y541216D01*
X251850Y541033D01*
X251760Y540810D01*
X251690Y540546D01*
X251640Y540241D01*
X251610Y539896D01*
X251600Y539510D01*
X249600D01*
X249590Y539896D01*
X249560Y540241D01*
X249510Y540546D01*
X249440Y540810D01*
X249350Y541033D01*
X249240Y541216D01*
X249110Y541358D01*
X248960Y541460D01*
X248790Y541521D01*
X248600Y541541D01*
X252600D01*
X252410Y541521D01*
D02*
G37*
G36*
X142814Y541141D02*
X141737Y541133D01*
X139804Y541002D01*
X138949Y540879D01*
X138169Y540717D01*
X137462Y540517D01*
X136830Y540279D01*
X136272Y540003D01*
X135788Y539688D01*
X135379Y539334D01*
X133582Y541130D01*
X133936Y541540D01*
X134251Y542024D01*
X134528Y542582D01*
X134766Y543214D01*
X134966Y543921D01*
X135127Y544701D01*
X135250Y545556D01*
X135381Y547488D01*
X135389Y548566D01*
X142814Y541141D01*
D02*
G37*
G36*
X240899Y541515D02*
X240683Y541438D01*
X240492Y541310D01*
X240327Y541130D01*
X240187Y540898D01*
X240073Y540616D01*
X239984Y540281D01*
X239921Y539896D01*
X239883Y539459D01*
X239870Y538970D01*
X237330D01*
X237317Y539459D01*
X237279Y539896D01*
X237216Y540281D01*
X237127Y540616D01*
X237013Y540898D01*
X236873Y541130D01*
X236708Y541310D01*
X236517Y541438D01*
X236301Y541515D01*
X236060Y541541D01*
X241140D01*
X240899Y541515D01*
D02*
G37*
G36*
X222892Y538567D02*
X223018Y536611D01*
X223052Y536535D01*
X223090Y536510D01*
X220151D01*
X220188Y536535D01*
X220222Y536611D01*
X220252Y536738D01*
X220278Y536916D01*
X220318Y537424D01*
X220350Y539049D01*
X222890D01*
X222892Y538567D01*
D02*
G37*
G36*
X217892D02*
X218018Y536611D01*
X218052Y536535D01*
X218090Y536510D01*
X215150D01*
X215188Y536535D01*
X215222Y536611D01*
X215252Y536738D01*
X215278Y536916D01*
X215318Y537424D01*
X215350Y539049D01*
X217890D01*
X217892Y538567D01*
D02*
G37*
G36*
X212625Y538130D02*
X212695Y537229D01*
X212737Y537010D01*
X212789Y536829D01*
X212850Y536689D01*
X212920Y536590D01*
X213000Y536530D01*
X213090Y536510D01*
X210151D01*
X210240Y536530D01*
X210319Y536590D01*
X210390Y536689D01*
X210451Y536829D01*
X210503Y537010D01*
X210545Y537229D01*
X210578Y537490D01*
X210615Y538130D01*
X210620Y538509D01*
X212620D01*
X212625Y538130D01*
D02*
G37*
G36*
X427009Y539385D02*
X427098Y538350D01*
X427155Y538019D01*
X427243Y537689D01*
X427349Y537419D01*
X427476Y537209D01*
X427621Y537059D01*
X427786Y536969D01*
X427970Y536939D01*
X427378D01*
X427392Y536894D01*
X427512Y536595D01*
X427648Y536331D01*
X427800Y536100D01*
X422200D01*
X422352Y536331D01*
X422488Y536595D01*
X422608Y536894D01*
X422622Y536939D01*
X422030D01*
X422214Y536969D01*
X422379Y537059D01*
X422524Y537209D01*
X422651Y537419D01*
X422757Y537689D01*
X422845Y538019D01*
X422913Y538410D01*
X422961Y538860D01*
X423000Y539940D01*
X427000D01*
X427009Y539385D01*
D02*
G37*
G36*
X251610Y537634D02*
X251640Y537289D01*
X251690Y536984D01*
X251760Y536720D01*
X251850Y536497D01*
X251960Y536314D01*
X252090Y536172D01*
X252240Y536070D01*
X252410Y536009D01*
X252600Y535989D01*
X248600D01*
X248790Y536009D01*
X248960Y536070D01*
X249110Y536172D01*
X249240Y536314D01*
X249350Y536497D01*
X249440Y536720D01*
X249510Y536984D01*
X249560Y537289D01*
X249590Y537634D01*
X249600Y538019D01*
X251600D01*
X251610Y537634D01*
D02*
G37*
G36*
X239883Y538071D02*
X239921Y537634D01*
X239984Y537249D01*
X240073Y536914D01*
X240187Y536632D01*
X240327Y536400D01*
X240492Y536220D01*
X240683Y536092D01*
X240899Y536015D01*
X241140Y535989D01*
X236060D01*
X236301Y536015D01*
X236517Y536092D01*
X236708Y536220D01*
X236873Y536400D01*
X237013Y536632D01*
X237127Y536914D01*
X237216Y537249D01*
X237279Y537634D01*
X237317Y538071D01*
X237330Y538559D01*
X239870D01*
X239883Y538071D01*
D02*
G37*
G36*
X151426Y542857D02*
Y532265D01*
X133865D01*
Y514217D01*
X151913D01*
Y526995D01*
X153183Y527521D01*
X192603Y488100D01*
X193438Y487542D01*
X194423Y487347D01*
X206577D01*
X207562Y487542D01*
X208397Y488100D01*
X213440Y493143D01*
X213997Y493978D01*
X214116Y494571D01*
X214269Y494910D01*
X214272Y495016D01*
X224644D01*
Y501016D01*
X229644D01*
Y506016D01*
X235644D01*
Y512770D01*
X229620D01*
Y515310D01*
X235644D01*
Y516571D01*
X236105Y516662D01*
X236156Y516697D01*
X243664D01*
X250427Y509934D01*
Y501804D01*
X249673Y501453D01*
X249157Y501332D01*
X247765Y502262D01*
X246000Y502613D01*
X244235Y502262D01*
X242738Y501262D01*
X241738Y499765D01*
X241387Y498000D01*
X241738Y496235D01*
X242645Y494878D01*
X242707Y494719D01*
X242876Y494541D01*
X242987Y494407D01*
X243079Y494278D01*
X243154Y494152D01*
X243215Y494029D01*
X243263Y493907D01*
X243300Y493783D01*
X243327Y493654D01*
X243343Y493518D01*
X243352Y493306D01*
X243426Y493144D01*
Y483060D01*
X243622Y482075D01*
X244180Y481240D01*
X271427Y453994D01*
Y324694D01*
X271395Y324650D01*
X270598Y324063D01*
X270180Y323887D01*
X270157Y323892D01*
X270092Y323849D01*
X155180D01*
X121944Y357084D01*
X121020Y357702D01*
X119930Y357919D01*
X119930Y357919D01*
X110183D01*
X110183Y357919D01*
X109093Y357702D01*
X108168Y357084D01*
X108168Y357084D01*
X101992Y350908D01*
X100819Y351394D01*
Y525790D01*
X104752Y529723D01*
X105925Y529237D01*
Y514217D01*
X123973D01*
Y532265D01*
X124876Y533151D01*
X130248D01*
X130248Y533151D01*
X131339Y533368D01*
X132263Y533986D01*
X136316Y538039D01*
X136456Y538085D01*
X136781Y538366D01*
X137091Y538567D01*
X137489Y538765D01*
X137978Y538949D01*
X138561Y539114D01*
X139235Y539253D01*
X139978Y539360D01*
X141799Y539484D01*
X142826Y539492D01*
X142960Y539548D01*
X145245Y539849D01*
X147440Y540758D01*
X149325Y542205D01*
X150156Y543288D01*
X151426Y542857D01*
D02*
G37*
G36*
X364110Y537074D02*
X364200Y536049D01*
X364350Y535144D01*
X364560Y534360D01*
X364830Y533697D01*
X365160Y533154D01*
X365550Y532732D01*
X366000Y532430D01*
X366510Y532249D01*
X367080Y532189D01*
X355080D01*
X355650Y532249D01*
X356160Y532430D01*
X356610Y532732D01*
X357000Y533154D01*
X357330Y533697D01*
X357600Y534360D01*
X357810Y535144D01*
X357960Y536049D01*
X358050Y537074D01*
X358080Y538219D01*
X364080D01*
X364110Y537074D01*
D02*
G37*
G36*
X275110D02*
X275200Y536049D01*
X275350Y535144D01*
X275560Y534360D01*
X275830Y533697D01*
X276160Y533154D01*
X276550Y532732D01*
X277000Y532430D01*
X277510Y532249D01*
X278080Y532189D01*
X266080D01*
X266650Y532249D01*
X267160Y532430D01*
X267610Y532732D01*
X268000Y533154D01*
X268330Y533697D01*
X268600Y534360D01*
X268810Y535144D01*
X268960Y536049D01*
X269050Y537074D01*
X269080Y538219D01*
X275080D01*
X275110Y537074D01*
D02*
G37*
G36*
X228109Y530472D02*
X228167Y530438D01*
X228265Y530408D01*
X228402Y530382D01*
X228577Y530360D01*
X229045Y530328D01*
X230040Y530310D01*
Y527770D01*
X229669Y527768D01*
X228265Y527672D01*
X228167Y527642D01*
X228109Y527608D01*
X228090Y527570D01*
Y530509D01*
X228109Y530472D01*
D02*
G37*
G36*
X428880Y530961D02*
X428801Y530751D01*
X428730Y530401D01*
X428669Y529911D01*
X428575Y528511D01*
X428500Y524030D01*
X421500D01*
X421495Y525360D01*
X421120Y530961D01*
X421031Y531031D01*
X428969D01*
X428880Y530961D01*
D02*
G37*
G36*
X234070Y525065D02*
X234101Y525060D01*
X234154Y525055D01*
X234579Y525043D01*
X235120Y525040D01*
Y523040D01*
X234059Y523009D01*
Y525070D01*
X234070Y525065D01*
D02*
G37*
G36*
X203115Y525472D02*
X203191Y525438D01*
X203318Y525408D01*
X203496Y525382D01*
X203804Y525358D01*
X205049Y525438D01*
X205125Y525472D01*
X205151Y525509D01*
X205152Y525319D01*
X205630Y525310D01*
Y525211D01*
X208134Y524953D01*
X205661Y521917D01*
X205640Y522079D01*
X205585Y522224D01*
X205498Y522352D01*
X205378Y522463D01*
X205224Y522557D01*
X205173Y522578D01*
X205181Y521500D01*
X205154Y521741D01*
X205075Y521957D01*
X204946Y522148D01*
X204765Y522313D01*
X204534Y522453D01*
X204251Y522567D01*
X203917Y522656D01*
X203772Y522680D01*
X203191Y522642D01*
X203115Y522608D01*
X203090Y522570D01*
Y522757D01*
X202610Y522770D01*
Y525310D01*
X203090Y525312D01*
Y525509D01*
X203115Y525472D01*
D02*
G37*
G36*
X44959Y522515D02*
X44743Y522439D01*
X44552Y522312D01*
X44387Y522134D01*
X44247Y521906D01*
X44133Y521626D01*
X44044Y521296D01*
X43981Y520915D01*
X43943Y520483D01*
X43930Y520000D01*
X41390D01*
X41377Y520483D01*
X41339Y520915D01*
X41276Y521296D01*
X41187Y521626D01*
X41073Y521906D01*
X40933Y522134D01*
X40768Y522312D01*
X40577Y522439D01*
X40361Y522515D01*
X40120Y522541D01*
X45200D01*
X44959Y522515D01*
D02*
G37*
G36*
X32259Y522515D02*
X32043Y522439D01*
X31852Y522312D01*
X31687Y522134D01*
X31548Y521906D01*
X31433Y521626D01*
X31344Y521296D01*
X31281Y520915D01*
X31243Y520483D01*
X31230Y520000D01*
X28690D01*
X28677Y520483D01*
X28639Y520915D01*
X28576Y521296D01*
X28487Y521626D01*
X28372Y521906D01*
X28233Y522134D01*
X28068Y522312D01*
X27877Y522439D01*
X27661Y522515D01*
X27420Y522541D01*
X32500D01*
X32259Y522515D01*
D02*
G37*
G36*
X19559D02*
X19343Y522439D01*
X19152Y522312D01*
X18987Y522134D01*
X18848Y521906D01*
X18733Y521626D01*
X18644Y521296D01*
X18581Y520915D01*
X18543Y520483D01*
X18530Y520000D01*
X15990D01*
X15977Y520483D01*
X15939Y520915D01*
X15876Y521296D01*
X15787Y521626D01*
X15673Y521906D01*
X15533Y522134D01*
X15368Y522312D01*
X15177Y522439D01*
X14961Y522515D01*
X14720Y522541D01*
X19800D01*
X19559Y522515D01*
D02*
G37*
G36*
X395677Y523517D02*
X395380Y523104D01*
X395117Y522644D01*
X394890Y522136D01*
X394697Y521582D01*
X394540Y520981D01*
X394417Y520333D01*
X394330Y519638D01*
X394277Y518896D01*
X394260Y518107D01*
X387260D01*
X387243Y518896D01*
X387103Y520333D01*
X386980Y520981D01*
X386823Y521582D01*
X386630Y522136D01*
X386403Y522644D01*
X386140Y523104D01*
X385843Y523517D01*
X385510Y523884D01*
X396010D01*
X395677Y523517D01*
D02*
G37*
G36*
X234070Y520065D02*
X234101Y520060D01*
X234154Y520055D01*
X234579Y520043D01*
X235120Y520040D01*
Y518040D01*
X234059Y518009D01*
Y520070D01*
X234070Y520065D01*
D02*
G37*
G36*
X211669Y521738D02*
X211700Y521507D01*
X211753Y521278D01*
X211829Y521049D01*
X211927Y520822D01*
X212048Y520596D01*
X212190Y520371D01*
X212355Y520148D01*
X212543Y519925D01*
X212753Y519703D01*
X210957Y517907D01*
X210735Y518117D01*
X210513Y518304D01*
X210289Y518470D01*
X210064Y518612D01*
X209838Y518733D01*
X209611Y518831D01*
X209382Y518907D01*
X209153Y518960D01*
X208922Y518991D01*
X208690Y519000D01*
X211660Y521970D01*
X211669Y521738D01*
D02*
G37*
G36*
X223085Y516339D02*
X223162Y516123D01*
X223290Y515932D01*
X223470Y515767D01*
X223702Y515628D01*
X223984Y515513D01*
X224319Y515424D01*
X224465Y515400D01*
X225049Y515438D01*
X225125Y515472D01*
X225151Y515509D01*
Y515322D01*
X225630Y515310D01*
Y512770D01*
X225151Y512757D01*
Y512570D01*
X225125Y512608D01*
X225049Y512642D01*
X224922Y512672D01*
X224744Y512698D01*
X224631Y512707D01*
X224319Y512656D01*
X223984Y512567D01*
X223702Y512453D01*
X223470Y512313D01*
X223290Y512148D01*
X223162Y511957D01*
X223085Y511741D01*
X223059Y511500D01*
Y512761D01*
X222610Y512770D01*
Y512825D01*
X222001Y512852D01*
X220285Y513996D01*
X219580Y514170D01*
X218875Y513996D01*
X217159Y512852D01*
X217143Y512836D01*
X217118Y512823D01*
X217085Y512810D01*
X217044Y512800D01*
X216994Y512790D01*
X216712Y512771D01*
X216620Y512770D01*
X217187Y514912D01*
X219276Y514246D01*
X219580Y514170D01*
X219884Y514246D01*
X222139Y514964D01*
X222610Y514363D01*
Y515169D01*
X222563Y515100D01*
X222139Y514964D01*
X221868Y515310D01*
X222278Y515297D01*
X222531Y515257D01*
X222610Y515202D01*
Y515310D01*
X223059Y515312D01*
Y516580D01*
X223085Y516339D01*
D02*
G37*
G36*
X217187Y514912D02*
X216597Y515100D01*
X216534Y515192D01*
X216629Y515257D01*
X216882Y515297D01*
X217292Y515310D01*
X217187Y514912D01*
D02*
G37*
G36*
X14603Y593632D02*
X12826Y591854D01*
X12208Y590930D01*
X12105Y590414D01*
X9316D01*
Y575366D01*
X20364D01*
Y589311D01*
X24316D01*
Y575366D01*
X26835D01*
X26841Y575345D01*
X26881Y575100D01*
X26910Y574776D01*
X26921Y574338D01*
X26991Y574180D01*
Y574160D01*
X26991Y574160D01*
X27208Y573070D01*
X27826Y572146D01*
X29986Y569986D01*
X29986Y569986D01*
X30910Y569368D01*
X32000Y569151D01*
X37636D01*
Y558704D01*
X37636Y558386D01*
Y557434D01*
X37636Y557116D01*
Y546386D01*
X39341D01*
X39776Y545213D01*
X39341Y544034D01*
X37636D01*
Y533304D01*
X37636Y532986D01*
Y532034D01*
X37636Y531716D01*
Y520986D01*
X39651D01*
X39662Y520945D01*
X39702Y520707D01*
X39730Y520389D01*
X39741Y519957D01*
X39811Y519799D01*
Y507297D01*
X38638Y506811D01*
X32809Y512640D01*
Y519799D01*
X32879Y519957D01*
X32890Y520389D01*
X32919Y520707D01*
X32958Y520945D01*
X32969Y520986D01*
X34984D01*
Y531716D01*
X34984Y532034D01*
Y532986D01*
X34984Y533304D01*
Y544034D01*
X32965D01*
X32959Y544055D01*
X32919Y544300D01*
X32890Y544624D01*
X32879Y545062D01*
X32809Y545220D01*
Y547780D01*
X32879Y547938D01*
X32890Y548376D01*
X32919Y548700D01*
X32959Y548945D01*
X32965Y548966D01*
X35364D01*
Y564014D01*
X24316D01*
Y548966D01*
X26955D01*
X26961Y548945D01*
X27001Y548700D01*
X27030Y548376D01*
X27041Y547938D01*
X27111Y547780D01*
Y545220D01*
X27041Y545062D01*
X27030Y544624D01*
X27001Y544300D01*
X26961Y544055D01*
X26955Y544034D01*
X24936D01*
Y533304D01*
X24936Y532986D01*
Y532034D01*
X24936Y531716D01*
Y520986D01*
X26951D01*
X26962Y520945D01*
X27002Y520707D01*
X27030Y520389D01*
X27041Y519957D01*
X27111Y519799D01*
Y513577D01*
X25938Y513091D01*
X20109Y518920D01*
Y519799D01*
X20179Y519957D01*
X20190Y520389D01*
X20219Y520707D01*
X20258Y520945D01*
X20269Y520986D01*
X22284D01*
Y531716D01*
X22284Y532034D01*
Y532986D01*
X22284Y533304D01*
Y544034D01*
X20265D01*
X20259Y544055D01*
X20219Y544300D01*
X20190Y544624D01*
X20179Y545062D01*
X20109Y545220D01*
Y545740D01*
X19892Y546830D01*
X19313Y547696D01*
X19428Y548255D01*
X19722Y548966D01*
X20364D01*
Y564014D01*
X9316D01*
Y548966D01*
X11864D01*
X11887Y548817D01*
X11911Y548522D01*
X11921Y548120D01*
X12063Y547799D01*
X12208Y547070D01*
X12826Y546146D01*
X13667Y545304D01*
X13141Y544034D01*
X12236D01*
Y533304D01*
X12236Y532986D01*
Y532034D01*
X12236Y531716D01*
Y520986D01*
X14251D01*
X14262Y520945D01*
X14302Y520707D01*
X14330Y520389D01*
X14341Y519957D01*
X14411Y519799D01*
Y517740D01*
X14411Y517740D01*
X14628Y516650D01*
X15246Y515726D01*
X76611Y454360D01*
Y352328D01*
X75341Y351942D01*
X75262Y352062D01*
X73765Y353061D01*
X72000Y353413D01*
X70235Y353061D01*
X68903Y352172D01*
X68736Y352110D01*
X68625Y352006D01*
X68565Y351961D01*
X68495Y351917D01*
X68412Y351875D01*
X68311Y351836D01*
X68191Y351799D01*
X68049Y351767D01*
X67883Y351742D01*
X67694Y351726D01*
X67437Y351719D01*
X67280Y351649D01*
X35145D01*
X35013Y351715D01*
X34584Y351747D01*
X34223Y351823D01*
X33802Y351965D01*
X33326Y352181D01*
X32797Y352476D01*
X32222Y352854D01*
X31621Y353304D01*
X30246Y354504D01*
X29514Y355225D01*
X29379Y355280D01*
X27551Y356682D01*
X25356Y357592D01*
X23000Y357902D01*
X20644Y357592D01*
X18449Y356682D01*
X16564Y355236D01*
X15118Y353351D01*
X14208Y351156D01*
X13898Y348800D01*
X14208Y346444D01*
X15118Y344249D01*
X16564Y342364D01*
X18449Y340918D01*
X20644Y340008D01*
X23000Y339698D01*
X25356Y340008D01*
X27551Y340918D01*
X29379Y342320D01*
X29514Y342375D01*
X30246Y343096D01*
X31621Y344296D01*
X32222Y344746D01*
X32797Y345124D01*
X33325Y345419D01*
X33802Y345635D01*
X34223Y345777D01*
X34585Y345853D01*
X35013Y345885D01*
X35145Y345951D01*
X67280D01*
X67437Y345881D01*
X67694Y345874D01*
X67883Y345858D01*
X68049Y345833D01*
X68191Y345801D01*
X68311Y345764D01*
X68412Y345724D01*
X68495Y345683D01*
X68565Y345639D01*
X68625Y345594D01*
X68736Y345490D01*
X68903Y345428D01*
X70235Y344538D01*
X72000Y344187D01*
X73765Y344538D01*
X75262Y345538D01*
X75341Y345658D01*
X76611Y345272D01*
Y181540D01*
X76611Y181540D01*
X76828Y180450D01*
X77446Y179526D01*
X100420Y156551D01*
X100421Y156545D01*
X100452Y156519D01*
X100589Y156383D01*
X100642Y156233D01*
X100898Y155948D01*
X101021Y155771D01*
X101083Y155648D01*
X101104Y155577D01*
X101108Y155540D01*
X101104Y155503D01*
X101083Y155432D01*
X101021Y155309D01*
X100898Y155132D01*
X100642Y154847D01*
X100589Y154697D01*
X100452Y154561D01*
X100421Y154536D01*
X100420Y154529D01*
X87900Y142009D01*
X49882D01*
X47929Y143961D01*
Y189920D01*
X47929Y189920D01*
X47712Y191010D01*
X47094Y191934D01*
X47094Y191934D01*
X26891Y212138D01*
X26734Y212495D01*
X27096Y213729D01*
X27551Y213918D01*
X29436Y215364D01*
X30882Y217249D01*
X31792Y219444D01*
X32102Y221800D01*
X31792Y224156D01*
X30882Y226351D01*
X29436Y228236D01*
X27551Y229682D01*
X25356Y230592D01*
X23000Y230902D01*
X20644Y230592D01*
X18449Y229682D01*
X16564Y228236D01*
X15118Y226351D01*
X14208Y224156D01*
X13898Y221800D01*
X14208Y219444D01*
X15118Y217249D01*
X16564Y215364D01*
X18449Y213918D01*
X19425Y213513D01*
X19619Y213302D01*
X19775Y213229D01*
X19806Y213208D01*
X19831Y213185D01*
X19862Y213147D01*
X19903Y213078D01*
X19950Y212967D01*
X19999Y212805D01*
X20041Y212589D01*
X20069Y212320D01*
X20081Y211946D01*
X20225Y211629D01*
X20368Y210910D01*
X20986Y209986D01*
X24369Y206603D01*
X23775Y205400D01*
X23000Y205502D01*
X20644Y205192D01*
X18449Y204282D01*
X16564Y202836D01*
X15118Y200951D01*
X14208Y198756D01*
X13898Y196400D01*
X14208Y194044D01*
X15118Y191849D01*
X16564Y189964D01*
X18449Y188518D01*
X18961Y188306D01*
X19116Y188118D01*
X19377Y187980D01*
X19520Y187881D01*
X19635Y187776D01*
X19734Y187659D01*
X19822Y187521D01*
X19902Y187351D01*
X19972Y187143D01*
X20029Y186888D01*
X20066Y186583D01*
X20082Y186168D01*
X20226Y185853D01*
X20368Y185141D01*
X20986Y184217D01*
X23944Y181259D01*
X23351Y180056D01*
X23000Y180102D01*
X20644Y179792D01*
X18449Y178882D01*
X16564Y177436D01*
X15118Y175551D01*
X14208Y173356D01*
X13898Y171000D01*
X14208Y168644D01*
X15118Y166449D01*
X16564Y164564D01*
X18449Y163118D01*
X20644Y162208D01*
X22929Y161908D01*
X23063Y161851D01*
X24090Y161843D01*
X25911Y161719D01*
X26655Y161612D01*
X27328Y161473D01*
X27911Y161308D01*
X28400Y161124D01*
X28798Y160927D01*
X29108Y160725D01*
X29433Y160444D01*
X29573Y160398D01*
X33151Y156820D01*
Y147359D01*
X31881Y147276D01*
X31792Y147956D01*
X30882Y150151D01*
X29436Y152036D01*
X27551Y153482D01*
X25356Y154392D01*
X23000Y154702D01*
X20644Y154392D01*
X18449Y153482D01*
X16564Y152036D01*
X15118Y150151D01*
X14208Y147956D01*
X13898Y145600D01*
X14208Y143244D01*
X15118Y141049D01*
X16564Y139164D01*
X18449Y137718D01*
X20644Y136808D01*
X22929Y136508D01*
X23063Y136451D01*
X24090Y136443D01*
X25911Y136320D01*
X26655Y136213D01*
X27328Y136073D01*
X27911Y135908D01*
X28400Y135724D01*
X28798Y135527D01*
X29108Y135325D01*
X29433Y135044D01*
X29573Y134998D01*
X40252Y124319D01*
X39727Y123049D01*
X35145D01*
X35013Y123115D01*
X34584Y123147D01*
X34223Y123223D01*
X33802Y123365D01*
X33326Y123581D01*
X32797Y123876D01*
X32222Y124254D01*
X31621Y124704D01*
X30246Y125904D01*
X29514Y126625D01*
X29379Y126680D01*
X27551Y128082D01*
X25356Y128992D01*
X23000Y129302D01*
X20644Y128992D01*
X18449Y128082D01*
X16564Y126636D01*
X15118Y124751D01*
X14208Y122556D01*
X13898Y120200D01*
X14208Y117844D01*
X15118Y115649D01*
X16564Y113764D01*
X18449Y112318D01*
X20644Y111408D01*
X23000Y111098D01*
X25356Y111408D01*
X27551Y112318D01*
X29379Y113720D01*
X29514Y113775D01*
X30246Y114496D01*
X31621Y115696D01*
X32222Y116146D01*
X32797Y116524D01*
X33325Y116819D01*
X33802Y117035D01*
X34223Y117177D01*
X34585Y117253D01*
X35013Y117285D01*
X35145Y117351D01*
X39863D01*
X40349Y116178D01*
X29573Y105402D01*
X29433Y105356D01*
X29108Y105075D01*
X28798Y104874D01*
X28400Y104676D01*
X27911Y104492D01*
X27328Y104327D01*
X26655Y104187D01*
X25911Y104080D01*
X24090Y103957D01*
X23063Y103949D01*
X22929Y103892D01*
X20644Y103592D01*
X18449Y102682D01*
X16564Y101236D01*
X15118Y99351D01*
X14208Y97156D01*
X13898Y94800D01*
X14208Y92444D01*
X15118Y90249D01*
X16564Y88364D01*
X18449Y86918D01*
X19999Y86276D01*
X19819Y84976D01*
X19000Y84849D01*
X17910Y84632D01*
X16986Y84014D01*
X16986Y84014D01*
X9986Y77014D01*
X9368Y76090D01*
X9151Y75000D01*
X9151Y75000D01*
Y55000D01*
X9151Y55000D01*
X9368Y53910D01*
X9986Y52986D01*
X12398Y50573D01*
X12444Y50433D01*
X12725Y50108D01*
X12926Y49798D01*
X13124Y49400D01*
X13308Y48911D01*
X13473Y48328D01*
X13613Y47655D01*
X13720Y46911D01*
X13843Y45090D01*
X13851Y44063D01*
X13908Y43929D01*
X14208Y41644D01*
X15118Y39449D01*
X16564Y37564D01*
X18449Y36118D01*
X20644Y35208D01*
X23000Y34898D01*
X25356Y35208D01*
X27551Y36118D01*
X29436Y37564D01*
X30882Y39449D01*
X31792Y41644D01*
X32102Y44000D01*
X31792Y46356D01*
X30882Y48551D01*
X29436Y50436D01*
X27551Y51882D01*
X25356Y52792D01*
X23071Y53092D01*
X22937Y53149D01*
X21910Y53157D01*
X20089Y53280D01*
X19345Y53387D01*
X18672Y53527D01*
X18089Y53692D01*
X17600Y53876D01*
X17202Y54073D01*
X16892Y54275D01*
X16567Y54556D01*
X16427Y54602D01*
X14849Y56180D01*
Y63113D01*
X16119Y63544D01*
X16564Y62964D01*
X18449Y61518D01*
X20644Y60608D01*
X23000Y60298D01*
X25356Y60608D01*
X27551Y61518D01*
X29436Y62964D01*
X30882Y64849D01*
X31792Y67044D01*
X32102Y69400D01*
X31997Y70195D01*
X32083Y70401D01*
X32048Y70485D01*
X32074Y70573D01*
X31995Y71318D01*
X31969Y71965D01*
X31986Y72557D01*
X32045Y73098D01*
X32142Y73586D01*
X32274Y74025D01*
X32438Y74419D01*
X32543Y74611D01*
X124880D01*
X124881Y74611D01*
X125971Y74828D01*
X126895Y75446D01*
X169601Y118151D01*
X267450D01*
X272076Y113526D01*
X272076Y113526D01*
X273000Y112908D01*
X273872Y112735D01*
X274127Y112621D01*
X274559Y112610D01*
X274877Y112582D01*
X275115Y112542D01*
X275156Y112531D01*
Y106810D01*
X285930D01*
X296704D01*
Y110516D01*
Y120516D01*
Y128136D01*
X297974Y128814D01*
X298151Y128696D01*
Y68580D01*
X298151Y68580D01*
X298368Y67489D01*
X298986Y66565D01*
X328105Y37446D01*
X328105Y37446D01*
X329029Y36828D01*
X330120Y36611D01*
X330120Y36611D01*
X404960D01*
X416398Y25173D01*
X416444Y25033D01*
X416725Y24708D01*
X416926Y24398D01*
X417124Y24000D01*
X417308Y23511D01*
X417473Y22928D01*
X417612Y22255D01*
X417720Y21511D01*
X417843Y19690D01*
X417851Y18663D01*
X417907Y18529D01*
X418208Y16244D01*
X419118Y14049D01*
X420564Y12164D01*
X422449Y10718D01*
X424644Y9808D01*
X427000Y9498D01*
X429356Y9808D01*
X431551Y10718D01*
X433436Y12164D01*
X434882Y14049D01*
X435792Y16244D01*
X436102Y18600D01*
X435792Y20956D01*
X434882Y23151D01*
X433436Y25036D01*
X431551Y26482D01*
X429356Y27392D01*
X427071Y27692D01*
X426937Y27749D01*
X425910Y27757D01*
X424089Y27880D01*
X423345Y27987D01*
X422672Y28127D01*
X422089Y28292D01*
X421600Y28476D01*
X421202Y28673D01*
X420892Y28875D01*
X420567Y29156D01*
X420427Y29202D01*
X409651Y39978D01*
X410137Y41151D01*
X414855D01*
X414987Y41085D01*
X415416Y41053D01*
X415777Y40977D01*
X416198Y40835D01*
X416675Y40619D01*
X417203Y40324D01*
X417778Y39946D01*
X418379Y39496D01*
X419754Y38296D01*
X420486Y37575D01*
X420621Y37520D01*
X422449Y36118D01*
X424644Y35208D01*
X427000Y34898D01*
X429356Y35208D01*
X431551Y36118D01*
X433436Y37564D01*
X434882Y39449D01*
X435792Y41644D01*
X436102Y44000D01*
X435792Y46356D01*
X434882Y48551D01*
X433436Y50436D01*
X431551Y51882D01*
X429356Y52792D01*
X427000Y53102D01*
X424644Y52792D01*
X422449Y51882D01*
X420621Y50480D01*
X420486Y50425D01*
X419754Y49704D01*
X418379Y48504D01*
X417778Y48054D01*
X417203Y47676D01*
X416675Y47381D01*
X416198Y47165D01*
X415777Y47023D01*
X415416Y46947D01*
X414987Y46915D01*
X414855Y46849D01*
X410137D01*
X409651Y48022D01*
X420427Y58798D01*
X420567Y58844D01*
X420892Y59125D01*
X421202Y59327D01*
X421600Y59524D01*
X422089Y59708D01*
X422672Y59873D01*
X423345Y60012D01*
X424089Y60120D01*
X425910Y60243D01*
X426937Y60251D01*
X427071Y60307D01*
X429356Y60608D01*
X431551Y61518D01*
X433436Y62964D01*
X434882Y64849D01*
X435792Y67044D01*
X436102Y69400D01*
X435792Y71756D01*
X434882Y73951D01*
X433436Y75836D01*
X431551Y77282D01*
X429356Y78192D01*
X427000Y78502D01*
X424644Y78192D01*
X422449Y77282D01*
X420564Y75836D01*
X419118Y73951D01*
X418208Y71756D01*
X417907Y69471D01*
X417851Y69337D01*
X417843Y68310D01*
X417720Y66489D01*
X417612Y65745D01*
X417473Y65072D01*
X417308Y64489D01*
X417124Y64000D01*
X416927Y63602D01*
X416725Y63292D01*
X416444Y62967D01*
X416398Y62827D01*
X404960Y51389D01*
X335061D01*
X333186Y53263D01*
X333604Y54641D01*
X334095Y54738D01*
X335592Y55738D01*
X336591Y57235D01*
X336910Y58835D01*
X336979Y58992D01*
X336985Y59236D01*
X337001Y59410D01*
X337027Y59566D01*
X337063Y59708D01*
X337107Y59839D01*
X337160Y59959D01*
X337221Y60073D01*
X337293Y60183D01*
X337378Y60291D01*
X337521Y60446D01*
X337583Y60614D01*
X339150Y62180D01*
X339708Y63015D01*
X339799Y63476D01*
X342536D01*
X342854Y63476D01*
X343806D01*
X344124Y63476D01*
X346861D01*
X346952Y63015D01*
X347510Y62180D01*
X349077Y60614D01*
X349138Y60446D01*
X349282Y60291D01*
X349367Y60183D01*
X349439Y60073D01*
X349501Y59959D01*
X349553Y59839D01*
X349597Y59708D01*
X349633Y59566D01*
X349659Y59410D01*
X349675Y59236D01*
X349681Y58992D01*
X349929Y58430D01*
X350164Y57864D01*
X350183Y57856D01*
X350191Y57837D01*
X350764Y57615D01*
X351330Y57380D01*
X351349Y57388D01*
X351368Y57381D01*
X351930Y57629D01*
X352023Y57667D01*
X352510Y57180D01*
X353345Y56623D01*
X354330Y56427D01*
X355315Y56623D01*
X356150Y57180D01*
X356707Y58015D01*
X356903Y59000D01*
X356707Y59985D01*
X356150Y60820D01*
X355662Y61307D01*
X355701Y61400D01*
X355946Y61955D01*
X355949Y61961D01*
X355942Y61981D01*
X355947Y61993D01*
Y61993D01*
X355950Y62000D01*
X355493Y63139D01*
X355493Y63139D01*
X355474Y63149D01*
X355466Y63166D01*
X355466Y63166D01*
X354854Y63476D01*
Y66730D01*
X349330D01*
Y68000D01*
X348060D01*
Y72524D01*
X344124D01*
X343806Y72524D01*
X342854D01*
X342536Y72524D01*
X331806D01*
Y63508D01*
X330565Y63261D01*
X329068Y62262D01*
X328069Y60765D01*
X327971Y60275D01*
X326593Y59856D01*
X312929Y73520D01*
Y114650D01*
X313686Y115606D01*
X314199Y115606D01*
X335734D01*
Y131421D01*
X335734Y131654D01*
X336296Y132691D01*
X345124D01*
X345686Y131654D01*
X345686Y131421D01*
Y115606D01*
X367734D01*
Y131421D01*
X367734Y131654D01*
X368296Y132691D01*
X385080D01*
X416398Y101373D01*
X416444Y101233D01*
X416725Y100908D01*
X416926Y100598D01*
X417124Y100200D01*
X417308Y99711D01*
X417473Y99128D01*
X417612Y98455D01*
X417720Y97711D01*
X417843Y95890D01*
X417851Y94863D01*
X417907Y94729D01*
X418208Y92444D01*
X419118Y90249D01*
X420564Y88364D01*
X422449Y86918D01*
X424644Y86008D01*
X427000Y85698D01*
X429356Y86008D01*
X431551Y86918D01*
X433436Y88364D01*
X434882Y90249D01*
X435792Y92444D01*
X436102Y94800D01*
X435792Y97156D01*
X434882Y99351D01*
X433436Y101236D01*
X431551Y102682D01*
X429356Y103592D01*
X427071Y103892D01*
X426937Y103949D01*
X425910Y103957D01*
X424089Y104080D01*
X423345Y104187D01*
X422672Y104327D01*
X422089Y104492D01*
X421600Y104676D01*
X421202Y104873D01*
X420892Y105075D01*
X420567Y105356D01*
X420427Y105402D01*
X388274Y137554D01*
X387350Y138172D01*
X386260Y138389D01*
X386260Y138389D01*
X328040D01*
X298874Y167554D01*
X297950Y168172D01*
X297207Y168320D01*
X296882Y168459D01*
X296704Y168462D01*
Y172535D01*
X296725Y172541D01*
X296970Y172581D01*
X297295Y172610D01*
X297732Y172621D01*
X297890Y172691D01*
X305860D01*
X311705Y166846D01*
X311706Y166846D01*
X312630Y166228D01*
X313720Y166011D01*
X313720Y166011D01*
X335564D01*
X335564Y166011D01*
X336655Y166228D01*
X337579Y166846D01*
X344513Y173780D01*
X345686Y173293D01*
Y170606D01*
X367734D01*
Y173641D01*
X369004Y174167D01*
X416398Y126773D01*
X416444Y126633D01*
X416725Y126308D01*
X416926Y125998D01*
X417124Y125600D01*
X417308Y125111D01*
X417473Y124528D01*
X417612Y123855D01*
X417720Y123111D01*
X417843Y121290D01*
X417851Y120263D01*
X417907Y120129D01*
X418208Y117844D01*
X419118Y115649D01*
X420564Y113764D01*
X422449Y112318D01*
X424644Y111408D01*
X427000Y111098D01*
X429356Y111408D01*
X431551Y112318D01*
X433436Y113764D01*
X434882Y115649D01*
X435792Y117844D01*
X436102Y120200D01*
X435792Y122556D01*
X434882Y124751D01*
X433436Y126636D01*
X431551Y128082D01*
X429356Y128992D01*
X427071Y129292D01*
X426937Y129349D01*
X425910Y129357D01*
X424089Y129480D01*
X423345Y129587D01*
X422672Y129727D01*
X422089Y129892D01*
X421600Y130076D01*
X421202Y130273D01*
X420892Y130475D01*
X420567Y130756D01*
X420427Y130802D01*
X409651Y141578D01*
X410137Y142751D01*
X414855D01*
X414987Y142685D01*
X415416Y142653D01*
X415777Y142577D01*
X416198Y142435D01*
X416675Y142219D01*
X417203Y141924D01*
X417778Y141546D01*
X418379Y141096D01*
X419754Y139896D01*
X420486Y139175D01*
X420621Y139120D01*
X422449Y137718D01*
X424644Y136808D01*
X427000Y136498D01*
X429356Y136808D01*
X431551Y137718D01*
X433436Y139164D01*
X434882Y141049D01*
X435792Y143244D01*
X436102Y145600D01*
X435792Y147956D01*
X434882Y150151D01*
X433436Y152036D01*
X431551Y153482D01*
X429356Y154392D01*
X427000Y154702D01*
X424644Y154392D01*
X422449Y153482D01*
X420621Y152080D01*
X420486Y152025D01*
X419754Y151304D01*
X418379Y150104D01*
X417778Y149654D01*
X417203Y149276D01*
X416675Y148981D01*
X416198Y148765D01*
X415777Y148623D01*
X415416Y148547D01*
X414987Y148515D01*
X414855Y148449D01*
X409201D01*
X377849Y179800D01*
Y196540D01*
X377849Y196540D01*
X377632Y197630D01*
X377014Y198554D01*
X377014Y198554D01*
X367554Y208014D01*
X366676Y208601D01*
X366656Y208697D01*
X366915Y209871D01*
X403079D01*
X413151Y199799D01*
Y182000D01*
X413151Y182000D01*
X413368Y180910D01*
X413986Y179986D01*
X416398Y177573D01*
X416444Y177433D01*
X416725Y177108D01*
X416926Y176798D01*
X417124Y176400D01*
X417308Y175911D01*
X417473Y175328D01*
X417612Y174655D01*
X417720Y173911D01*
X417843Y172090D01*
X417851Y171063D01*
X417907Y170929D01*
X418208Y168644D01*
X419118Y166449D01*
X420564Y164564D01*
X422449Y163118D01*
X424644Y162208D01*
X427000Y161898D01*
X429356Y162208D01*
X431551Y163118D01*
X433436Y164564D01*
X434882Y166449D01*
X435792Y168644D01*
X436102Y171000D01*
X435792Y173356D01*
X434882Y175551D01*
X433436Y177436D01*
X431551Y178882D01*
X429356Y179792D01*
X427071Y180093D01*
X426937Y180149D01*
X425910Y180157D01*
X424089Y180280D01*
X423345Y180387D01*
X422672Y180527D01*
X422089Y180692D01*
X421600Y180876D01*
X421202Y181073D01*
X420892Y181275D01*
X420567Y181556D01*
X420427Y181602D01*
X418849Y183180D01*
Y190113D01*
X420119Y190544D01*
X420564Y189964D01*
X422449Y188518D01*
X424644Y187608D01*
X427000Y187298D01*
X429356Y187608D01*
X431551Y188518D01*
X433436Y189964D01*
X434882Y191849D01*
X435792Y194044D01*
X436102Y196400D01*
X435792Y198756D01*
X434882Y200951D01*
X433436Y202836D01*
X431551Y204282D01*
X429356Y205192D01*
X427071Y205492D01*
X426937Y205549D01*
X425910Y205557D01*
X424089Y205680D01*
X423345Y205788D01*
X422672Y205927D01*
X422089Y206092D01*
X421600Y206276D01*
X421202Y206473D01*
X420892Y206675D01*
X420567Y206956D01*
X420427Y207002D01*
X409651Y217778D01*
X410137Y218951D01*
X414855D01*
X414987Y218885D01*
X415416Y218853D01*
X415777Y218777D01*
X416198Y218635D01*
X416675Y218419D01*
X417203Y218124D01*
X417778Y217746D01*
X418379Y217296D01*
X419754Y216096D01*
X420486Y215375D01*
X420621Y215320D01*
X422449Y213918D01*
X424644Y213008D01*
X427000Y212698D01*
X429356Y213008D01*
X431551Y213918D01*
X433436Y215364D01*
X434882Y217249D01*
X435792Y219444D01*
X436102Y221800D01*
X435792Y224156D01*
X434882Y226351D01*
X433436Y228236D01*
X431551Y229682D01*
X429356Y230592D01*
X427000Y230902D01*
X424644Y230592D01*
X422449Y229682D01*
X420621Y228280D01*
X420486Y228225D01*
X419754Y227504D01*
X418379Y226304D01*
X417778Y225854D01*
X417203Y225476D01*
X416675Y225181D01*
X416198Y224965D01*
X415777Y224823D01*
X415416Y224747D01*
X414987Y224715D01*
X414855Y224649D01*
X358917D01*
X358587Y225197D01*
X358382Y225919D01*
X359262Y227235D01*
X359613Y229000D01*
X359262Y230765D01*
X358262Y232262D01*
X356765Y233262D01*
X355000Y233613D01*
X353794Y233373D01*
X352524Y234024D01*
Y234024D01*
X341476D01*
Y234024D01*
X340524D01*
Y234024D01*
X329476D01*
Y232347D01*
X328260Y231878D01*
X328162Y231920D01*
X327252Y231924D01*
X325049Y231997D01*
X324714Y232028D01*
X324689Y232036D01*
X324588Y232076D01*
X324505Y232117D01*
X324435Y232161D01*
X324376Y232206D01*
X324264Y232310D01*
X324097Y232372D01*
X323849Y232537D01*
Y234064D01*
X323901Y234099D01*
X324790Y235430D01*
X324848Y235719D01*
X325121Y235820D01*
X325135Y235851D01*
X325166Y235864D01*
X325397Y236420D01*
X325648Y236967D01*
X325654Y237120D01*
X325664Y237194D01*
X325683Y237274D01*
X325712Y237363D01*
X325755Y237462D01*
X325797Y237540D01*
X326334Y238151D01*
X328289D01*
X328447Y238081D01*
X328879Y238070D01*
X329197Y238042D01*
X329435Y238002D01*
X329476Y237991D01*
Y235976D01*
X333730D01*
Y241000D01*
Y246024D01*
X329476D01*
Y244009D01*
X329435Y243998D01*
X329197Y243958D01*
X328879Y243930D01*
X328447Y243919D01*
X328289Y243849D01*
X325000D01*
X323910Y243632D01*
X323289Y243217D01*
X322962Y243090D01*
X322117Y242282D01*
X321777Y241983D01*
X321541Y241797D01*
X321462Y241755D01*
X321363Y241712D01*
X321274Y241683D01*
X321194Y241664D01*
X321120Y241654D01*
X320967Y241648D01*
X320420Y241397D01*
X319864Y241166D01*
X319851Y241135D01*
X319820Y241121D01*
X319813Y241103D01*
X312925D01*
X312823Y241149D01*
X311077Y241206D01*
X310429Y241269D01*
X309892Y241354D01*
X309686Y241404D01*
X309324Y242524D01*
X309517Y243714D01*
X385099Y319297D01*
X415265D01*
X415364Y319252D01*
X415992Y319227D01*
X416536Y319161D01*
X417063Y319052D01*
X417575Y318899D01*
X418075Y318703D01*
X418566Y318460D01*
X419049Y318171D01*
X419527Y317831D01*
X419999Y317440D01*
X420505Y316957D01*
X420643Y316903D01*
X422449Y315518D01*
X424644Y314608D01*
X427000Y314298D01*
X429356Y314608D01*
X431551Y315518D01*
X433436Y316964D01*
X434882Y318849D01*
X435157Y319511D01*
X436427Y319258D01*
Y302142D01*
X435157Y301889D01*
X434882Y302551D01*
X433436Y304436D01*
X431551Y305882D01*
X429356Y306792D01*
X428270Y306935D01*
Y298000D01*
Y289065D01*
X429356Y289208D01*
X431551Y290118D01*
X433436Y291564D01*
X434882Y293449D01*
X435157Y294111D01*
X436427Y293858D01*
Y276742D01*
X435157Y276489D01*
X434882Y277151D01*
X433436Y279036D01*
X431551Y280482D01*
X429356Y281392D01*
X428270Y281535D01*
Y272600D01*
Y263665D01*
X429356Y263808D01*
X431551Y264718D01*
X433436Y266164D01*
X434882Y268049D01*
X435157Y268711D01*
X436427Y268458D01*
Y260266D01*
X433813Y257652D01*
X433667Y257606D01*
X433378Y257362D01*
X433101Y257192D01*
X432715Y257016D01*
X432219Y256847D01*
X431615Y256694D01*
X430906Y256565D01*
X430113Y256466D01*
X428171Y256355D01*
X427067Y256349D01*
X426933Y256293D01*
X424644Y255992D01*
X422449Y255082D01*
X420564Y253636D01*
X419118Y251751D01*
X418208Y249556D01*
X417898Y247200D01*
X418208Y244844D01*
X419118Y242649D01*
X420564Y240764D01*
X422449Y239318D01*
X424644Y238408D01*
X427000Y238098D01*
X429356Y238408D01*
X431551Y239318D01*
X433436Y240764D01*
X434882Y242649D01*
X435792Y244844D01*
X436093Y247133D01*
X436149Y247267D01*
X436155Y248371D01*
X436266Y250313D01*
X436366Y251106D01*
X436494Y251815D01*
X436646Y252419D01*
X436816Y252915D01*
X436992Y253301D01*
X437162Y253578D01*
X437406Y253867D01*
X437452Y254013D01*
X440820Y257380D01*
X441378Y258215D01*
X441573Y259200D01*
Y330000D01*
X441378Y330985D01*
X440820Y331820D01*
X434820Y337820D01*
X433985Y338378D01*
X433000Y338573D01*
X428187D01*
X428104Y339843D01*
X429356Y340008D01*
X431551Y340918D01*
X433436Y342364D01*
X434882Y344249D01*
X435792Y346444D01*
X436102Y348800D01*
X435792Y351156D01*
X434882Y353351D01*
X433436Y355236D01*
X431551Y356682D01*
X429356Y357592D01*
X427000Y357902D01*
X424644Y357592D01*
X422449Y356682D01*
X420676Y355322D01*
X420536Y355272D01*
X420238Y355002D01*
X419971Y354810D01*
X419656Y354630D01*
X419287Y354465D01*
X418862Y354317D01*
X418378Y354190D01*
X417859Y354092D01*
X416557Y353965D01*
X415830Y353949D01*
X415770Y353922D01*
X338322D01*
X321622Y370622D01*
X319960Y371732D01*
X318000Y372122D01*
X298000D01*
X296040Y371732D01*
X294378Y370622D01*
X284378Y360622D01*
X283267Y358960D01*
X282878Y357000D01*
Y337000D01*
Y325000D01*
X283267Y323040D01*
X284378Y321378D01*
X286040Y320267D01*
X288000Y319878D01*
X289960Y320267D01*
X290498Y320395D01*
X290604Y320368D01*
X301094Y309877D01*
X300608Y308704D01*
X300436D01*
Y297656D01*
X300436D01*
Y296704D01*
X300436D01*
Y294855D01*
X299405Y294272D01*
X298384Y294849D01*
Y302944D01*
X292865D01*
X292859Y302965D01*
X292819Y303210D01*
X292790Y303535D01*
X292779Y303972D01*
X292709Y304130D01*
Y305140D01*
X292709Y305140D01*
X292492Y306230D01*
X291874Y307154D01*
X291874Y307154D01*
X278056Y320972D01*
X277995Y321133D01*
X277688Y321458D01*
X277450Y321742D01*
X277248Y322020D01*
X277079Y322290D01*
X276942Y322552D01*
X276834Y322807D01*
X276753Y323056D01*
X276696Y323302D01*
X276663Y323547D01*
X276648Y323870D01*
X276574Y324030D01*
Y455060D01*
X276378Y456045D01*
X275820Y456880D01*
X248573Y484126D01*
Y493144D01*
X248648Y493306D01*
X248657Y493518D01*
X248673Y493654D01*
X248700Y493783D01*
X248723Y493861D01*
X249269Y494178D01*
X250622Y493595D01*
X251180Y492760D01*
X258963Y484977D01*
X256162Y482176D01*
X255604Y481341D01*
X255408Y480356D01*
X255604Y479371D01*
X256162Y478536D01*
X259372Y475326D01*
X259373Y475326D01*
X260207Y474768D01*
X261192Y474572D01*
X261192Y474572D01*
X261931Y473424D01*
X262025Y472951D01*
X262583Y472116D01*
X265793Y468906D01*
X266628Y468348D01*
X267613Y468152D01*
X268351Y467004D01*
X268445Y466530D01*
X269003Y465695D01*
X272213Y462485D01*
X272213Y462485D01*
X273048Y461927D01*
X274033Y461731D01*
X275018Y461927D01*
X275853Y462485D01*
X278654Y465286D01*
X284860Y459080D01*
X285695Y458522D01*
X286680Y458326D01*
X308460D01*
X309445Y458522D01*
X310280Y459080D01*
X313776Y462577D01*
X315154Y462159D01*
X315238Y461735D01*
X316238Y460238D01*
X317735Y459239D01*
X319500Y458887D01*
X321265Y459239D01*
X322762Y460238D01*
X323761Y461735D01*
X324113Y463500D01*
X323761Y465265D01*
X322855Y466622D01*
X322793Y466781D01*
X322684Y466896D01*
X322701Y467531D01*
X323230Y468014D01*
Y473500D01*
X325770D01*
Y468536D01*
X325973Y468576D01*
X326543Y468957D01*
X326924Y469527D01*
X327058Y470200D01*
Y473442D01*
X327300D01*
X327973Y473576D01*
X328543Y473957D01*
X328924Y474527D01*
X328964Y474730D01*
X325500D01*
Y477270D01*
X329077D01*
X329915Y477897D01*
X330026Y477945D01*
X334196Y473776D01*
X335120Y473158D01*
X336210Y472941D01*
X336210Y472941D01*
X360790D01*
X360790Y472941D01*
X361880Y473158D01*
X362804Y473776D01*
X364834Y475806D01*
X364834Y475806D01*
X365452Y476730D01*
X365599Y477468D01*
X365628Y477536D01*
X370344D01*
Y480938D01*
X372060D01*
X374020Y481328D01*
X375682Y482438D01*
X380622Y487378D01*
X381732Y489040D01*
X382122Y491000D01*
Y523587D01*
X383392Y524018D01*
X384238Y522916D01*
X384288Y522775D01*
X384558Y522478D01*
X384750Y522211D01*
X384930Y521896D01*
X385095Y521527D01*
X385243Y521102D01*
X385370Y520618D01*
X385468Y520099D01*
X385595Y518797D01*
X385611Y518070D01*
X385638Y518009D01*
Y508240D01*
X386027Y506280D01*
X387138Y504618D01*
X421878Y469878D01*
Y414173D01*
X421851Y414113D01*
X421817Y412827D01*
X421722Y411746D01*
X421571Y410833D01*
X421373Y410097D01*
X421147Y409541D01*
X420917Y409162D01*
X420706Y408934D01*
X420514Y408806D01*
X420298Y408729D01*
X419827Y408679D01*
X419725Y408624D01*
X417976D01*
Y390576D01*
X434336D01*
X434862Y389306D01*
X431319Y385763D01*
X431257Y385739D01*
X430716Y385222D01*
X430218Y384790D01*
X429741Y384419D01*
X429285Y384108D01*
X428853Y383856D01*
X428448Y383660D01*
X428071Y383516D01*
X427720Y383420D01*
X427396Y383367D01*
X426995Y383347D01*
X426860Y383283D01*
X424644Y382992D01*
X422449Y382082D01*
X420564Y380636D01*
X419118Y378751D01*
X418208Y376556D01*
X417898Y374200D01*
X418208Y371844D01*
X419118Y369649D01*
X420564Y367764D01*
X422449Y366318D01*
X424644Y365408D01*
X427000Y365098D01*
X429356Y365408D01*
X431551Y366318D01*
X433436Y367764D01*
X434882Y369649D01*
X435792Y371844D01*
X436083Y374060D01*
X436147Y374195D01*
X436167Y374596D01*
X436220Y374920D01*
X436316Y375271D01*
X436460Y375648D01*
X436656Y376054D01*
X436908Y376485D01*
X437206Y376922D01*
X438037Y377932D01*
X438539Y378457D01*
X438563Y378519D01*
X443632Y383588D01*
X444902Y383062D01*
X444902Y5098D01*
X266374D01*
Y9519D01*
X269986D01*
X271076Y9736D01*
X272000Y10354D01*
X272617Y11278D01*
X272834Y12368D01*
X272617Y13458D01*
X272000Y14382D01*
X271076Y15000D01*
X269986Y15217D01*
X266374D01*
Y21892D01*
X265934D01*
X265934Y44872D01*
X225294Y44882D01*
X225294Y24920D01*
X224396Y24022D01*
X221904D01*
X213273Y32653D01*
X211910Y33699D01*
X210323Y34356D01*
X208620Y34580D01*
X201762D01*
X200884Y34696D01*
X188000D01*
X186297Y34472D01*
X184710Y33814D01*
X183850Y33155D01*
X182580Y33321D01*
Y44016D01*
X186730D01*
Y48540D01*
X188000D01*
Y49810D01*
X193524D01*
Y53064D01*
X191945D01*
X190904Y53616D01*
Y63120D01*
X185880D01*
Y64390D01*
X184610D01*
Y75164D01*
X167150D01*
Y64390D01*
Y53616D01*
X168669D01*
X169507Y52661D01*
X169420Y52000D01*
Y48540D01*
Y34696D01*
X163000D01*
X163000Y34696D01*
X162572Y34639D01*
X156750D01*
Y36591D01*
X160274D01*
Y42095D01*
X147750D01*
X135226D01*
Y36591D01*
X136750D01*
Y20640D01*
X135226D01*
Y15136D01*
X147750D01*
X160274D01*
Y20640D01*
X161042Y21591D01*
X162572D01*
X163000Y21535D01*
X176000D01*
X177703Y21759D01*
X179290Y22417D01*
X180169Y23091D01*
X181524D01*
Y23091D01*
X182476D01*
Y23091D01*
X183831D01*
X184710Y22417D01*
X186297Y21759D01*
X188000Y21535D01*
X195211D01*
X196476Y21524D01*
Y17270D01*
X205524D01*
Y19994D01*
X206794Y20520D01*
X214525Y12789D01*
X215888Y11743D01*
X217475Y11086D01*
X218856Y10904D01*
X219088Y10597D01*
X219300Y10128D01*
X219390Y9592D01*
X218988Y8990D01*
X218771Y7900D01*
X218988Y6810D01*
X219283Y6368D01*
X218673Y5098D01*
X5098D01*
Y594902D01*
X14077D01*
X14603Y593632D01*
D02*
G37*
G36*
X326822Y499255D02*
X326618Y499179D01*
X326438Y499052D01*
X326282Y498874D01*
X326150Y498646D01*
X326042Y498366D01*
X325958Y498036D01*
X325898Y497655D01*
X325862Y497223D01*
X325850Y496740D01*
X323310D01*
X323298Y497223D01*
X323262Y497655D01*
X323202Y498036D01*
X323118Y498366D01*
X323010Y498646D01*
X322878Y498874D01*
X322722Y499052D01*
X322542Y499179D01*
X322338Y499255D01*
X322110Y499281D01*
X327049D01*
X326822Y499255D01*
D02*
G37*
G36*
X318822D02*
X318618Y499179D01*
X318438Y499052D01*
X318282Y498874D01*
X318150Y498646D01*
X318042Y498366D01*
X317958Y498036D01*
X317898Y497655D01*
X317862Y497223D01*
X317850Y496740D01*
X315310D01*
X315298Y497223D01*
X315262Y497655D01*
X315202Y498036D01*
X315118Y498366D01*
X315010Y498646D01*
X314878Y498874D01*
X314722Y499052D01*
X314542Y499179D01*
X314338Y499255D01*
X314110Y499281D01*
X319049D01*
X318822Y499255D01*
D02*
G37*
G36*
X310822D02*
X310618Y499179D01*
X310438Y499052D01*
X310282Y498874D01*
X310150Y498646D01*
X310042Y498366D01*
X309958Y498036D01*
X309898Y497655D01*
X309862Y497223D01*
X309850Y496740D01*
X307310D01*
X307298Y497223D01*
X307262Y497655D01*
X307202Y498036D01*
X307118Y498366D01*
X307010Y498646D01*
X306878Y498874D01*
X306722Y499052D01*
X306542Y499179D01*
X306338Y499255D01*
X306110Y499281D01*
X311049D01*
X310822Y499255D01*
D02*
G37*
G36*
X302822D02*
X302618Y499179D01*
X302438Y499052D01*
X302282Y498874D01*
X302150Y498646D01*
X302042Y498366D01*
X301958Y498036D01*
X301898Y497655D01*
X301862Y497223D01*
X301850Y496740D01*
X299310D01*
X299298Y497223D01*
X299262Y497655D01*
X299202Y498036D01*
X299118Y498366D01*
X299010Y498646D01*
X298878Y498874D01*
X298722Y499052D01*
X298542Y499179D01*
X298338Y499255D01*
X298111Y499281D01*
X303050D01*
X302822Y499255D01*
D02*
G37*
G36*
X213000Y496554D02*
X212920Y496506D01*
X212850Y496426D01*
X212789Y496313D01*
X212737Y496169D01*
X212695Y495992D01*
X212662Y495783D01*
X212639Y495542D01*
X212620Y494963D01*
X210620D01*
X210615Y495269D01*
X210578Y495783D01*
X210545Y495992D01*
X210503Y496169D01*
X210451Y496313D01*
X210390Y496426D01*
X210319Y496506D01*
X210240Y496554D01*
X210151Y496571D01*
X213090D01*
X213000Y496554D01*
D02*
G37*
G36*
X345067Y571101D02*
X346156Y571072D01*
X347062Y570992D01*
X347819Y570866D01*
X348422Y570704D01*
X348863Y570523D01*
X349149Y570349D01*
X349306Y570203D01*
X349384Y570087D01*
X349430Y569954D01*
X349470Y569577D01*
X349556Y569419D01*
Y561726D01*
X354804D01*
X354907Y561670D01*
X355282Y561631D01*
X355414Y561584D01*
X355530Y561506D01*
X355676Y561348D01*
X355852Y561059D01*
X356033Y560614D01*
X356196Y560007D01*
X356322Y559244D01*
X356402Y558333D01*
X356431Y557237D01*
X356467Y557156D01*
Y538344D01*
X356431Y538263D01*
X356402Y537167D01*
X356322Y536256D01*
X356196Y535493D01*
X356033Y534887D01*
X355852Y534441D01*
X355676Y534152D01*
X355530Y533994D01*
X355414Y533916D01*
X355282Y533869D01*
X354907Y533829D01*
X354804Y533774D01*
X349556D01*
Y497726D01*
X371878D01*
Y493987D01*
X371614Y493811D01*
X370344Y494490D01*
Y494584D01*
X355296D01*
Y478639D01*
X352344D01*
Y494584D01*
X337296D01*
X336683Y495600D01*
Y515750D01*
X336604Y516146D01*
Y533774D01*
X296556D01*
Y499617D01*
X296471Y499463D01*
X296498Y499370D01*
X296461Y499281D01*
X296556Y499051D01*
Y497726D01*
X297092D01*
X297427Y496456D01*
X292116Y491144D01*
X291498Y490220D01*
X291447Y489964D01*
X289106D01*
Y477916D01*
Y474210D01*
X294130D01*
Y471670D01*
X289106D01*
Y470193D01*
X287933Y469707D01*
X261183Y496456D01*
X261709Y497726D01*
X283604D01*
Y533774D01*
X278356D01*
X278253Y533829D01*
X277878Y533869D01*
X277746Y533916D01*
X277630Y533994D01*
X277484Y534152D01*
X277308Y534441D01*
X277127Y534886D01*
X276964Y535493D01*
X276838Y536256D01*
X276758Y537167D01*
X276729Y538263D01*
X276693Y538344D01*
Y557156D01*
X276729Y557237D01*
X276758Y558333D01*
X276838Y559244D01*
X276964Y560007D01*
X277127Y560614D01*
X277308Y561059D01*
X277484Y561348D01*
X277630Y561506D01*
X277746Y561584D01*
X277878Y561631D01*
X278253Y561670D01*
X278356Y561726D01*
X283604D01*
Y569474D01*
X283659Y569576D01*
X283699Y569952D01*
X283746Y570084D01*
X283824Y570200D01*
X283982Y570346D01*
X284271Y570522D01*
X284716Y570703D01*
X285323Y570866D01*
X286086Y570992D01*
X286997Y571072D01*
X288093Y571101D01*
X288174Y571137D01*
X344985D01*
X345067Y571101D01*
D02*
G37*
G36*
X247891Y495639D02*
X247704Y495413D01*
X247539Y495181D01*
X247396Y494942D01*
X247275Y494697D01*
X247176Y494445D01*
X247099Y494187D01*
X247044Y493922D01*
X247011Y493650D01*
X247000Y493372D01*
X245000D01*
X244989Y493650D01*
X244956Y493922D01*
X244901Y494187D01*
X244824Y494445D01*
X244725Y494697D01*
X244604Y494942D01*
X244461Y495181D01*
X244296Y495413D01*
X244109Y495639D01*
X243900Y495858D01*
X248100D01*
X247891Y495639D01*
D02*
G37*
G36*
X338851Y483149D02*
X338821Y483228D01*
X338734Y483297D01*
X338588Y483359D01*
X338385Y483412D01*
X338123Y483457D01*
X337803Y483494D01*
X336988Y483544D01*
X335940Y483560D01*
Y488560D01*
X336493Y488564D01*
X338123Y488663D01*
X338385Y488708D01*
X338588Y488761D01*
X338734Y488823D01*
X338821Y488892D01*
X338851Y488970D01*
Y483149D01*
D02*
G37*
G36*
X365249Y483461D02*
X365005Y483038D01*
X364791Y482564D01*
X364605Y482038D01*
X364448Y481463D01*
X364319Y480836D01*
X364219Y480158D01*
X364104Y478650D01*
X364090Y477820D01*
X361550D01*
X361536Y478650D01*
X361421Y480158D01*
X361321Y480836D01*
X361192Y481463D01*
X361035Y482038D01*
X360849Y482564D01*
X360634Y483038D01*
X360391Y483461D01*
X360120Y483833D01*
X365520D01*
X365249Y483461D01*
D02*
G37*
G36*
X297593Y475077D02*
X297664Y474895D01*
X297782Y474734D01*
X297948Y474595D01*
X298162Y474478D01*
X298423Y474381D01*
X298731Y474306D01*
X299086Y474253D01*
X299489Y474221D01*
X299940Y474210D01*
Y471670D01*
X299489Y471659D01*
X299086Y471627D01*
X298731Y471574D01*
X298423Y471499D01*
X298162Y471402D01*
X297948Y471285D01*
X297782Y471145D01*
X297664Y470985D01*
X297593Y470803D01*
X297569Y470600D01*
Y475280D01*
X297593Y475077D01*
D02*
G37*
G36*
X320511Y467850D02*
X320544Y467579D01*
X320599Y467313D01*
X320676Y467055D01*
X320775Y466803D01*
X320896Y466558D01*
X321039Y466319D01*
X321204Y466087D01*
X321391Y465861D01*
X321600Y465642D01*
X317400D01*
X317609Y465861D01*
X317796Y466087D01*
X317961Y466319D01*
X318104Y466558D01*
X318225Y466803D01*
X318324Y467055D01*
X318401Y467313D01*
X318456Y467579D01*
X318489Y467850D01*
X318500Y468128D01*
X320500D01*
X320511Y467850D01*
D02*
G37*
G36*
X304065Y464089D02*
X303848Y464156D01*
X303389Y464268D01*
X303148Y464314D01*
X302379Y464408D01*
X302108Y464426D01*
X301542Y464440D01*
X300242Y466440D01*
X300536Y466452D01*
X300806Y466490D01*
X301052Y466552D01*
X301274Y466640D01*
X301471Y466752D01*
X301644Y466889D01*
X301793Y467051D01*
X301918Y467238D01*
X302018Y467450D01*
X302095Y467687D01*
X304065Y464089D01*
D02*
G37*
G36*
X430535Y412734D02*
X430640Y411539D01*
X430815Y410484D01*
X431060Y409570D01*
X431375Y408797D01*
X431760Y408164D01*
X432215Y407672D01*
X432740Y407320D01*
X433335Y407109D01*
X434000Y407039D01*
X420000D01*
X420665Y407109D01*
X421260Y407320D01*
X421785Y407672D01*
X422240Y408164D01*
X422625Y408797D01*
X422940Y409570D01*
X423185Y410484D01*
X423360Y411539D01*
X423465Y412734D01*
X423500Y414070D01*
X430500D01*
X430535Y412734D01*
D02*
G37*
G36*
X437347Y379598D02*
X436802Y379027D01*
X435885Y377912D01*
X435513Y377367D01*
X435199Y376831D01*
X434944Y376303D01*
X434746Y375783D01*
X434606Y375272D01*
X434524Y374769D01*
X434500Y374275D01*
X427075Y381700D01*
X427569Y381724D01*
X428072Y381806D01*
X428583Y381946D01*
X429103Y382144D01*
X429631Y382399D01*
X430167Y382713D01*
X430712Y383085D01*
X431265Y383514D01*
X431827Y384002D01*
X432397Y384547D01*
X437347Y379598D01*
D02*
G37*
G36*
X308425Y356279D02*
X308502Y356063D01*
X308630Y355872D01*
X308810Y355707D01*
X309042Y355568D01*
X309324Y355453D01*
X309659Y355364D01*
X309860Y355331D01*
X310092Y355383D01*
X310337Y355457D01*
X310567Y355549D01*
X310782Y355657D01*
X310982Y355781D01*
X311167Y355922D01*
X311338Y356080D01*
Y351880D01*
X311167Y352038D01*
X310982Y352179D01*
X310782Y352303D01*
X310567Y352411D01*
X310337Y352503D01*
X310092Y352577D01*
X309860Y352629D01*
X309659Y352596D01*
X309324Y352507D01*
X309042Y352393D01*
X308810Y352253D01*
X308630Y352088D01*
X308502Y351897D01*
X308425Y351681D01*
X308399Y351440D01*
Y356520D01*
X308425Y356279D01*
D02*
G37*
G36*
X332578Y345178D02*
X334240Y344067D01*
X336200Y343678D01*
X415769D01*
X415830Y343651D01*
X416579Y343634D01*
X417237Y343588D01*
X417836Y343512D01*
X418378Y343410D01*
X418862Y343283D01*
X419287Y343135D01*
X419656Y342970D01*
X419971Y342790D01*
X420238Y342598D01*
X420536Y342328D01*
X420676Y342278D01*
X422449Y340918D01*
X424644Y340008D01*
X425896Y339843D01*
X425813Y338573D01*
X319066D01*
X313840Y343800D01*
X313005Y344358D01*
X312020Y344553D01*
X311214D01*
X309984Y345551D01*
Y347186D01*
X309984Y347504D01*
Y348456D01*
X309984Y348774D01*
Y349402D01*
X310229Y349727D01*
X311254Y350265D01*
X311331Y350233D01*
X311338Y350230D01*
X311369Y350243D01*
X311400Y350232D01*
X311946Y350482D01*
X312504Y350714D01*
X312517Y350745D01*
X312548Y350759D01*
X312686Y351131D01*
X313480D01*
X314570Y351348D01*
X315494Y351966D01*
X316112Y352890D01*
X316329Y353980D01*
X316112Y355070D01*
X315494Y355994D01*
X314570Y356612D01*
X313480Y356829D01*
X312686D01*
X312548Y357201D01*
X312517Y357215D01*
X312507Y357240D01*
X312504Y357247D01*
X311946Y357478D01*
X311400Y357728D01*
X311369Y357717D01*
X311338Y357730D01*
X311332Y357728D01*
X311254Y357695D01*
X310229Y358233D01*
X309984Y358558D01*
Y359504D01*
X306730D01*
Y353980D01*
X305460D01*
Y352710D01*
X300936D01*
Y348774D01*
X300936Y348456D01*
Y347504D01*
X300936Y347186D01*
Y336456D01*
X302451D01*
X302462Y336415D01*
X302502Y336177D01*
X302530Y335859D01*
X302541Y335427D01*
X302611Y335269D01*
Y318214D01*
X301341Y317687D01*
X294283Y324745D01*
X294214Y324915D01*
X293449Y325689D01*
X293122Y326034D01*
Y337000D01*
Y354878D01*
X300122Y361878D01*
X315878D01*
X332578Y345178D01*
D02*
G37*
G36*
X69858Y346700D02*
X69687Y346858D01*
X69502Y346999D01*
X69302Y347123D01*
X69087Y347231D01*
X68857Y347323D01*
X68612Y347397D01*
X68352Y347455D01*
X68077Y347497D01*
X67787Y347522D01*
X67482Y347530D01*
Y350070D01*
X67787Y350078D01*
X68077Y350103D01*
X68352Y350145D01*
X68612Y350203D01*
X68857Y350277D01*
X69087Y350369D01*
X69302Y350477D01*
X69502Y350601D01*
X69687Y350742D01*
X69858Y350900D01*
Y346700D01*
D02*
G37*
G36*
X114722Y346487D02*
X114581Y346302D01*
X114457Y346102D01*
X114349Y345887D01*
X114257Y345657D01*
X114183Y345412D01*
X114125Y345152D01*
X114083Y344877D01*
X114058Y344587D01*
X114050Y344282D01*
X111510D01*
X111502Y344587D01*
X111477Y344877D01*
X111435Y345152D01*
X111377Y345412D01*
X111302Y345657D01*
X111211Y345887D01*
X111103Y346102D01*
X110979Y346302D01*
X110838Y346487D01*
X110680Y346658D01*
X114880D01*
X114722Y346487D01*
D02*
G37*
G36*
X421644Y343550D02*
X421277Y343882D01*
X420864Y344180D01*
X420404Y344442D01*
X419896Y344670D01*
X419342Y344863D01*
X418741Y345020D01*
X418093Y345143D01*
X417398Y345230D01*
X416656Y345283D01*
X415867Y345300D01*
Y352300D01*
X416656Y352318D01*
X418093Y352458D01*
X418741Y352580D01*
X419342Y352738D01*
X419896Y352930D01*
X420404Y353158D01*
X420864Y353420D01*
X421277Y353717D01*
X421644Y354050D01*
Y343550D01*
D02*
G37*
G36*
X29124Y353294D02*
X30583Y352020D01*
X31274Y351503D01*
X31941Y351065D01*
X32582Y350707D01*
X33197Y350428D01*
X33787Y350229D01*
X34352Y350110D01*
X34892Y350070D01*
Y347530D01*
X34352Y347490D01*
X33787Y347371D01*
X33197Y347172D01*
X32582Y346893D01*
X31941Y346535D01*
X31274Y346097D01*
X30583Y345580D01*
X29124Y344306D01*
X28356Y343550D01*
Y354050D01*
X29124Y353294D01*
D02*
G37*
G36*
X308419Y343790D02*
X308480Y343620D01*
X308582Y343470D01*
X308724Y343340D01*
X308907Y343230D01*
X309130Y343140D01*
X309394Y343070D01*
X309699Y343020D01*
X310044Y342990D01*
X310429Y342980D01*
Y340980D01*
X310044Y340970D01*
X309699Y340940D01*
X309394Y340890D01*
X309130Y340820D01*
X308907Y340730D01*
X308724Y340620D01*
X308582Y340490D01*
X308480Y340340D01*
X308419Y340170D01*
X308399Y339980D01*
Y343980D01*
X308419Y343790D01*
D02*
G37*
G36*
X307759Y337985D02*
X307543Y337909D01*
X307352Y337782D01*
X307187Y337604D01*
X307048Y337375D01*
X306933Y337096D01*
X306844Y336766D01*
X306781Y336385D01*
X306743Y335953D01*
X306730Y335471D01*
X304190D01*
X304177Y335953D01*
X304139Y336385D01*
X304076Y336766D01*
X303987Y337096D01*
X303873Y337375D01*
X303733Y337604D01*
X303568Y337782D01*
X303377Y337909D01*
X303161Y337985D01*
X302920Y338010D01*
X308000D01*
X307759Y337985D01*
D02*
G37*
G36*
X290762Y326202D02*
X290859Y326070D01*
X291170Y325701D01*
X292262Y324543D01*
X293042Y323754D01*
X291494Y321710D01*
X291266Y321924D01*
X291043Y322105D01*
X290825Y322253D01*
X290612Y322368D01*
X290404Y322451D01*
X290202Y322500D01*
X290004Y322517D01*
X289811Y322500D01*
X289623Y322451D01*
X289441Y322369D01*
X290704Y326300D01*
X290762Y326202D01*
D02*
G37*
G36*
X421644Y318150D02*
X421097Y318673D01*
X420533Y319140D01*
X419953Y319552D01*
X419356Y319910D01*
X418742Y320213D01*
X418113Y320460D01*
X417467Y320653D01*
X416804Y320790D01*
X416125Y320872D01*
X415429Y320900D01*
Y325900D01*
X416125Y325928D01*
X416804Y326010D01*
X417467Y326147D01*
X418113Y326340D01*
X418742Y326587D01*
X419356Y326890D01*
X419953Y327248D01*
X420533Y327660D01*
X421097Y328128D01*
X421644Y328650D01*
Y318150D01*
D02*
G37*
G36*
X275000Y323796D02*
X275018Y323398D01*
X275072Y323004D01*
X275162Y322614D01*
X275287Y322229D01*
X275449Y321847D01*
X275647Y321469D01*
X275880Y321096D01*
X276150Y320727D01*
X276455Y320361D01*
X276796Y320000D01*
X275270Y317934D01*
X274903Y318275D01*
X274522Y318580D01*
X274125Y318850D01*
X273714Y319083D01*
X273288Y319281D01*
X272847Y319443D01*
X272391Y319568D01*
X271920Y319658D01*
X271434Y319712D01*
X270934Y319730D01*
X270460Y322270D01*
X270943Y322290D01*
X271374Y322350D01*
X271755Y322450D01*
X272086Y322590D01*
X272365Y322770D01*
X272594Y322990D01*
X272771Y323250D01*
X272898Y323550D01*
X272975Y323890D01*
X273000Y324270D01*
X275000Y323796D01*
D02*
G37*
G36*
X225968Y311735D02*
X225801Y311575D01*
X225652Y311398D01*
X225520Y311205D01*
X225406Y310996D01*
X225309Y310772D01*
X225230Y310530D01*
X225169Y310273D01*
X225125Y310000D01*
X225099Y309711D01*
X225090Y309405D01*
X222550Y309574D01*
X222542Y309878D01*
X222519Y310169D01*
X222480Y310445D01*
X222426Y310707D01*
X222356Y310956D01*
X222271Y311190D01*
X222170Y311411D01*
X222054Y311617D01*
X221922Y311809D01*
X221775Y311987D01*
X225968Y311735D01*
D02*
G37*
G36*
X306741Y309086D02*
X306775Y308680D01*
X306831Y308321D01*
X306909Y308010D01*
X307010Y307747D01*
X307133Y307532D01*
X307279Y307365D01*
X307447Y307245D01*
X307638Y307173D01*
X307850Y307150D01*
X303069D01*
X303282Y307173D01*
X303473Y307245D01*
X303641Y307365D01*
X303787Y307532D01*
X303910Y307747D01*
X304011Y308010D01*
X304089Y308321D01*
X304145Y308680D01*
X304179Y309086D01*
X304190Y309540D01*
X306730D01*
X306741Y309086D01*
D02*
G37*
G36*
X291143Y303441D02*
X291181Y303004D01*
X291244Y302619D01*
X291333Y302284D01*
X291448Y302002D01*
X291587Y301770D01*
X291752Y301590D01*
X291943Y301462D01*
X292159Y301385D01*
X292400Y301359D01*
X287320D01*
X287561Y301385D01*
X287777Y301462D01*
X287968Y301590D01*
X288133Y301770D01*
X288272Y302002D01*
X288387Y302284D01*
X288476Y302619D01*
X288539Y303004D01*
X288577Y303441D01*
X288590Y303930D01*
X291130D01*
X291143Y303441D01*
D02*
G37*
G36*
X114063D02*
X114101Y303004D01*
X114164Y302619D01*
X114253Y302284D01*
X114368Y302002D01*
X114507Y301770D01*
X114672Y301590D01*
X114863Y301462D01*
X115079Y301385D01*
X115320Y301359D01*
X110240D01*
X110481Y301385D01*
X110697Y301462D01*
X110888Y301590D01*
X111053Y301770D01*
X111193Y302002D01*
X111307Y302284D01*
X111396Y302619D01*
X111459Y303004D01*
X111497Y303441D01*
X111510Y303930D01*
X114050D01*
X114063Y303441D01*
D02*
G37*
G36*
X225103Y303437D02*
X225141Y303000D01*
X225204Y302615D01*
X225293Y302280D01*
X225408Y301998D01*
X225547Y301766D01*
X225712Y301586D01*
X225903Y301458D01*
X226119Y301381D01*
X226360Y301355D01*
X221280D01*
X221521Y301381D01*
X221737Y301458D01*
X221928Y301586D01*
X222093Y301766D01*
X222232Y301998D01*
X222347Y302280D01*
X222436Y302615D01*
X222499Y303000D01*
X222537Y303437D01*
X222550Y303925D01*
X225090D01*
X225103Y303437D01*
D02*
G37*
G36*
X308923Y293312D02*
X308994Y293131D01*
X309112Y292972D01*
X309277Y292833D01*
X309490Y292716D01*
X309750Y292620D01*
X310058Y292546D01*
X310413Y292493D01*
X310815Y292461D01*
X311264Y292450D01*
Y289910D01*
X310815Y289899D01*
X310413Y289867D01*
X310058Y289814D01*
X309750Y289740D01*
X309490Y289644D01*
X309277Y289527D01*
X309112Y289388D01*
X308994Y289229D01*
X308923Y289048D01*
X308899Y288846D01*
Y293514D01*
X308923Y293312D01*
D02*
G37*
G36*
X302021Y288640D02*
X301995Y288881D01*
X301918Y289097D01*
X301790Y289288D01*
X301610Y289453D01*
X301378Y289592D01*
X301096Y289707D01*
X300761Y289796D01*
X300376Y289859D01*
X299939Y289897D01*
X299450Y289910D01*
Y292450D01*
X299939Y292463D01*
X300376Y292501D01*
X300761Y292564D01*
X301096Y292653D01*
X301378Y292768D01*
X301610Y292907D01*
X301790Y293072D01*
X301918Y293263D01*
X301995Y293479D01*
X302021Y293720D01*
Y288640D01*
D02*
G37*
G36*
X296855Y293479D02*
X296931Y293263D01*
X297058Y293072D01*
X297236Y292907D01*
X297465Y292768D01*
X297744Y292653D01*
X298074Y292564D01*
X298455Y292501D01*
X298887Y292463D01*
X299370Y292450D01*
Y289910D01*
X298887Y289897D01*
X298455Y289859D01*
X298074Y289796D01*
X297744Y289707D01*
X297465Y289592D01*
X297236Y289453D01*
X297058Y289288D01*
X296931Y289097D01*
X296855Y288881D01*
X296829Y288640D01*
Y293720D01*
X296855Y293479D01*
D02*
G37*
G36*
X274637Y290218D02*
X275460D01*
X275302Y290047D01*
X275161Y289862D01*
X275037Y289662D01*
X274929Y289447D01*
X274837Y289217D01*
X274782Y289036D01*
X274833Y288844D01*
X274947Y288562D01*
X275087Y288330D01*
X275252Y288150D01*
X275443Y288022D01*
X275659Y287945D01*
X275900Y287919D01*
X274632D01*
X274630Y287842D01*
X272090D01*
X272088Y287919D01*
X270820D01*
X271061Y287945D01*
X271277Y288022D01*
X271468Y288150D01*
X271633Y288330D01*
X271772Y288562D01*
X271887Y288844D01*
X271938Y289036D01*
X271882Y289217D01*
X271791Y289447D01*
X271683Y289662D01*
X271559Y289862D01*
X271418Y290047D01*
X271260Y290218D01*
X272083D01*
X272090Y290490D01*
X274630D01*
X274637Y290218D01*
D02*
G37*
G36*
X316180Y334180D02*
X317015Y333622D01*
X318000Y333427D01*
X424436D01*
X424644Y332192D01*
X422449Y331282D01*
X420643Y329897D01*
X420505Y329843D01*
X419999Y329361D01*
X419527Y328969D01*
X419049Y328629D01*
X418566Y328340D01*
X418075Y328097D01*
X417575Y327901D01*
X417063Y327748D01*
X416536Y327639D01*
X415992Y327573D01*
X415364Y327548D01*
X415265Y327503D01*
X383400D01*
X381830Y327191D01*
X380499Y326301D01*
X303841Y249643D01*
X300276D01*
X300166Y249690D01*
X299248Y249699D01*
X297725Y249773D01*
X297164Y249831D01*
X296719Y249902D01*
X296704Y249905D01*
Y250564D01*
X295379D01*
X295149Y250659D01*
X294941Y250573D01*
X294717Y250602D01*
X294669Y250564D01*
X275920D01*
X275156Y250564D01*
X274322Y251488D01*
X274014Y251948D01*
X274014Y251948D01*
X248948Y277014D01*
X248024Y277632D01*
X248179Y278896D01*
X253384D01*
Y281471D01*
X253425Y281482D01*
X253663Y281522D01*
X253981Y281550D01*
X254413Y281561D01*
X254571Y281631D01*
X254650D01*
X254808Y281561D01*
X255245Y281550D01*
X255570Y281521D01*
X255815Y281481D01*
X255836Y281475D01*
Y279456D01*
X266566D01*
X266884Y279456D01*
X267836D01*
X268154Y279456D01*
X272090D01*
Y284480D01*
X273360D01*
Y285750D01*
X278884D01*
Y289504D01*
X278189D01*
X277413Y290017D01*
X277108Y290280D01*
X276857Y290827D01*
X276626Y291384D01*
X276595Y291397D01*
X276581Y291428D01*
X276209Y291565D01*
Y292360D01*
X275992Y293450D01*
X275374Y294374D01*
X274450Y294992D01*
X273360Y295209D01*
X272270Y294992D01*
X271346Y294374D01*
X270728Y293450D01*
X270511Y292360D01*
Y291565D01*
X270139Y291428D01*
X270125Y291397D01*
X270094Y291384D01*
X269863Y290827D01*
X269612Y290280D01*
X269307Y290017D01*
X268531Y289504D01*
X267836Y289504D01*
X266884D01*
X266566Y289504D01*
X255836D01*
Y287485D01*
X255815Y287479D01*
X255570Y287439D01*
X255245Y287410D01*
X254808Y287399D01*
X254650Y287329D01*
X254571D01*
X254413Y287399D01*
X253981Y287410D01*
X253663Y287438D01*
X253425Y287478D01*
X253384Y287489D01*
Y302944D01*
X236336D01*
Y279119D01*
X236336Y278896D01*
X235798Y277849D01*
X232891D01*
X232344Y278892D01*
Y302940D01*
X226825D01*
X226819Y302961D01*
X226779Y303206D01*
X226750Y303531D01*
X226739Y303968D01*
X226669Y304126D01*
Y309160D01*
X226736Y309296D01*
X226725Y309327D01*
X226739Y309358D01*
X226746Y309612D01*
X226763Y309794D01*
X226788Y309950D01*
X226819Y310081D01*
X226854Y310189D01*
X226891Y310274D01*
X226929Y310343D01*
X226966Y310398D01*
X227006Y310446D01*
X227112Y310547D01*
X227168Y310676D01*
X227262Y310738D01*
X228262Y312235D01*
X228613Y314000D01*
X228262Y315765D01*
X227516Y316881D01*
X228042Y318151D01*
X270722D01*
X270875Y318081D01*
X271314Y318066D01*
X271674Y318026D01*
X272017Y317960D01*
X272343Y317871D01*
X272656Y317756D01*
X272959Y317615D01*
X273253Y317448D01*
X273541Y317252D01*
X273825Y317026D01*
X274146Y316726D01*
X274239Y316692D01*
X274290Y316607D01*
X274389Y316583D01*
X286757Y304214D01*
X286472Y302944D01*
X281336D01*
Y278896D01*
X298384D01*
Y287511D01*
X299405Y288088D01*
X300436Y287505D01*
Y285656D01*
X310484D01*
Y288210D01*
X310601Y288228D01*
X310899Y288251D01*
X311303Y288261D01*
X311624Y288403D01*
X312354Y288548D01*
X313278Y289166D01*
X314244Y290132D01*
X314862Y291056D01*
X315079Y292146D01*
X315079Y292146D01*
Y309770D01*
X314862Y310860D01*
X314244Y311784D01*
X314244Y311784D01*
X308309Y317720D01*
Y335269D01*
X308379Y335427D01*
X308390Y335859D01*
X308418Y336177D01*
X308458Y336415D01*
X308469Y336456D01*
X309984D01*
Y338682D01*
X311254Y339107D01*
X316180Y334180D01*
D02*
G37*
G36*
X257421Y281940D02*
X257395Y282181D01*
X257318Y282397D01*
X257190Y282588D01*
X257010Y282753D01*
X256778Y282892D01*
X256496Y283007D01*
X256161Y283096D01*
X255776Y283159D01*
X255339Y283197D01*
X254851Y283210D01*
Y285750D01*
X255339Y285763D01*
X255776Y285801D01*
X256161Y285864D01*
X256496Y285953D01*
X256778Y286068D01*
X257010Y286207D01*
X257190Y286372D01*
X257318Y286563D01*
X257395Y286779D01*
X257421Y287020D01*
Y281940D01*
D02*
G37*
G36*
X251855Y286779D02*
X251931Y286563D01*
X252058Y286372D01*
X252236Y286207D01*
X252465Y286068D01*
X252744Y285953D01*
X253074Y285864D01*
X253455Y285801D01*
X253887Y285763D01*
X254370Y285750D01*
Y283210D01*
X253887Y283197D01*
X253455Y283159D01*
X253074Y283096D01*
X252744Y283007D01*
X252465Y282892D01*
X252236Y282753D01*
X252058Y282588D01*
X251931Y282397D01*
X251855Y282181D01*
X251829Y281940D01*
Y287020D01*
X251855Y286779D01*
D02*
G37*
G36*
X191381Y281940D02*
X191355Y282181D01*
X191278Y282397D01*
X191150Y282588D01*
X190970Y282753D01*
X190738Y282892D01*
X190456Y283007D01*
X190121Y283096D01*
X189736Y283159D01*
X189299Y283197D01*
X188811Y283210D01*
Y285750D01*
X189299Y285763D01*
X189736Y285801D01*
X190121Y285864D01*
X190456Y285953D01*
X190738Y286068D01*
X190970Y286207D01*
X191150Y286372D01*
X191278Y286563D01*
X191355Y286779D01*
X191381Y287020D01*
Y281940D01*
D02*
G37*
G36*
X185815Y286779D02*
X185891Y286563D01*
X186018Y286372D01*
X186196Y286207D01*
X186425Y286068D01*
X186704Y285953D01*
X187034Y285864D01*
X187415Y285801D01*
X187847Y285763D01*
X188330Y285750D01*
Y283210D01*
X187847Y283197D01*
X187415Y283159D01*
X187034Y283096D01*
X186704Y283007D01*
X186425Y282892D01*
X186196Y282753D01*
X186018Y282588D01*
X185891Y282397D01*
X185815Y282181D01*
X185790Y281940D01*
Y287020D01*
X185815Y286779D01*
D02*
G37*
G36*
X209449Y281017D02*
X209269Y280947D01*
X209110Y280828D01*
X208972Y280663D01*
X208855Y280451D01*
X208760Y280191D01*
X208685Y279884D01*
X208632Y279530D01*
X208601Y279129D01*
X208590Y278680D01*
X206050D01*
X206039Y279129D01*
X206008Y279530D01*
X205955Y279884D01*
X205880Y280191D01*
X205785Y280451D01*
X205668Y280663D01*
X205530Y280828D01*
X205371Y280947D01*
X205191Y281017D01*
X204989Y281041D01*
X209650D01*
X209449Y281017D01*
D02*
G37*
G36*
X115079Y280455D02*
X114863Y280378D01*
X114672Y280250D01*
X114507Y280070D01*
X114368Y279838D01*
X114253Y279556D01*
X114164Y279221D01*
X114101Y278836D01*
X114063Y278399D01*
X114050Y277910D01*
X111510D01*
X111497Y278399D01*
X111459Y278836D01*
X111396Y279221D01*
X111307Y279556D01*
X111193Y279838D01*
X111053Y280070D01*
X110888Y280250D01*
X110697Y280378D01*
X110481Y280455D01*
X110240Y280481D01*
X115320D01*
X115079Y280455D01*
D02*
G37*
G36*
X151986Y318986D02*
X151986Y318986D01*
X152910Y318368D01*
X154000Y318151D01*
X219958D01*
X220484Y316881D01*
X219739Y315765D01*
X219387Y314000D01*
X219739Y312235D01*
X220416Y311220D01*
X220503Y310937D01*
X220603Y310816D01*
X220652Y310744D01*
X220699Y310662D01*
X220743Y310565D01*
X220785Y310450D01*
X220822Y310317D01*
X220854Y310163D01*
X220879Y309988D01*
X220894Y309791D01*
X220901Y309532D01*
X220971Y309373D01*
Y304126D01*
X220901Y303968D01*
X220890Y303531D01*
X220861Y303206D01*
X220821Y302962D01*
X220815Y302940D01*
X215296D01*
Y278892D01*
X214749Y277849D01*
X212941D01*
X212703Y278186D01*
X212844Y279456D01*
X212844D01*
Y289504D01*
X202114D01*
X201796Y289504D01*
X200844D01*
X200526Y289504D01*
X189796D01*
Y287485D01*
X189775Y287479D01*
X189530Y287439D01*
X189205Y287410D01*
X188768Y287399D01*
X188610Y287329D01*
X188531D01*
X188373Y287399D01*
X187941Y287410D01*
X187623Y287438D01*
X187385Y287478D01*
X187344Y287489D01*
Y302940D01*
X170296D01*
Y278892D01*
X187344D01*
Y281471D01*
X187385Y281482D01*
X187623Y281522D01*
X187941Y281550D01*
X188373Y281561D01*
X188531Y281631D01*
X188610D01*
X188768Y281561D01*
X189205Y281550D01*
X189530Y281521D01*
X189775Y281481D01*
X189796Y281475D01*
Y279456D01*
X200526D01*
X200844Y279456D01*
X201796D01*
X202114Y279456D01*
X204351D01*
X204368Y279342D01*
X204391Y279044D01*
X204401Y278641D01*
X204543Y278320D01*
X204688Y277590D01*
X205306Y276666D01*
X208986Y272986D01*
X208986Y272986D01*
X209910Y272368D01*
X211000Y272151D01*
X211000Y272151D01*
X245754D01*
X269151Y248754D01*
Y228000D01*
X269151Y228000D01*
X269368Y226910D01*
X269986Y225986D01*
X272446Y223526D01*
X272446Y223526D01*
X273370Y222908D01*
X274101Y222763D01*
X274422Y222621D01*
X274805Y222612D01*
X275088Y222590D01*
X275156Y222581D01*
Y210516D01*
Y200516D01*
Y190516D01*
Y180516D01*
Y170516D01*
Y160516D01*
Y150516D01*
Y140516D01*
Y128549D01*
X275115Y128538D01*
X274877Y128498D01*
X274559Y128470D01*
X274127Y128459D01*
X273969Y128389D01*
X166540D01*
X166540Y128389D01*
X165450Y128172D01*
X164526Y127554D01*
X164526Y127554D01*
X129877Y92906D01*
X128704Y93392D01*
Y94270D01*
X119200D01*
Y90516D01*
X125828D01*
X126314Y89343D01*
X121820Y84849D01*
X25875D01*
X25622Y86119D01*
X27551Y86918D01*
X29436Y88364D01*
X30882Y90249D01*
X31792Y92444D01*
X32092Y94729D01*
X32149Y94863D01*
X32157Y95890D01*
X32280Y97711D01*
X32387Y98455D01*
X32527Y99128D01*
X32692Y99711D01*
X32876Y100200D01*
X33073Y100598D01*
X33275Y100908D01*
X33556Y101233D01*
X33602Y101373D01*
X45040Y112811D01*
X93160D01*
X102446Y103526D01*
X103370Y102908D01*
X104460Y102691D01*
X104460Y102691D01*
X105969D01*
X106127Y102621D01*
X106559Y102610D01*
X106877Y102582D01*
X107115Y102542D01*
X107156Y102531D01*
Y96810D01*
X117930D01*
X128704D01*
Y100516D01*
Y110516D01*
Y120516D01*
Y130516D01*
Y142535D01*
X128725Y142541D01*
X128970Y142581D01*
X129295Y142610D01*
X129732Y142621D01*
X129890Y142691D01*
X154439D01*
X158225Y138906D01*
X158225Y138906D01*
X159149Y138288D01*
X160239Y138071D01*
X160239Y138071D01*
X247795D01*
X247886Y137976D01*
X248008Y137830D01*
X248107Y137696D01*
X248186Y137572D01*
X248244Y137462D01*
X248287Y137362D01*
X248317Y137274D01*
X248335Y137194D01*
X248346Y137120D01*
X248351Y136967D01*
X248426Y136805D01*
X248738Y135235D01*
X249738Y133738D01*
X251234Y132738D01*
X252999Y132387D01*
X254765Y132738D01*
X256261Y133738D01*
X257261Y135235D01*
X257612Y137000D01*
X257261Y138765D01*
X256261Y140261D01*
X254765Y141261D01*
X254362Y141341D01*
X254487Y142611D01*
X257666D01*
X257666Y142611D01*
X258756Y142828D01*
X259680Y143446D01*
X264677Y148442D01*
X264838Y148504D01*
X265024Y148680D01*
X265169Y148802D01*
X265304Y148902D01*
X265427Y148980D01*
X265538Y149039D01*
X265637Y149082D01*
X265726Y149111D01*
X265806Y149130D01*
X265880Y149140D01*
X266033Y149146D01*
X266194Y149220D01*
X267765Y149532D01*
X269262Y150532D01*
X270261Y152029D01*
X270613Y153794D01*
X270261Y155559D01*
X269262Y157056D01*
X267765Y158055D01*
X266000Y158407D01*
X264235Y158055D01*
X262738Y157056D01*
X261738Y155559D01*
X261426Y153989D01*
X261352Y153827D01*
X261346Y153674D01*
X261336Y153600D01*
X261317Y153520D01*
X261288Y153431D01*
X261245Y153332D01*
X261186Y153221D01*
X261108Y153098D01*
X261008Y152963D01*
X260886Y152818D01*
X260710Y152632D01*
X260648Y152471D01*
X256562Y148385D01*
X255297Y148504D01*
X254819Y149485D01*
X254834Y149579D01*
X256262Y150532D01*
X257262Y152029D01*
X257613Y153794D01*
X257262Y155559D01*
X256262Y157056D01*
X254765Y158055D01*
X253000Y158407D01*
X251235Y158055D01*
X249738Y157056D01*
X248738Y155559D01*
X248426Y153989D01*
X248352Y153827D01*
X248346Y153674D01*
X248336Y153600D01*
X248317Y153520D01*
X248288Y153431D01*
X248245Y153332D01*
X248186Y153221D01*
X248108Y153098D01*
X248008Y152963D01*
X247912Y152849D01*
X165180D01*
X130474Y187554D01*
X129550Y188172D01*
X128799Y188321D01*
X128704Y188361D01*
Y202562D01*
X128862Y202586D01*
X129167Y202611D01*
X129580Y202621D01*
X129901Y202763D01*
X130630Y202908D01*
X131554Y203526D01*
X134014Y205986D01*
X134014Y205986D01*
X134632Y206910D01*
X134849Y208000D01*
X134849Y208000D01*
Y252000D01*
X134849Y252000D01*
X134632Y253090D01*
X134014Y254014D01*
X134014Y254014D01*
X115629Y272400D01*
Y277710D01*
X115699Y277868D01*
X115710Y278305D01*
X115739Y278630D01*
X115779Y278874D01*
X115785Y278896D01*
X121304D01*
Y302944D01*
X115785D01*
X115779Y302965D01*
X115739Y303210D01*
X115710Y303535D01*
X115699Y303972D01*
X115629Y304130D01*
Y344080D01*
X115699Y344237D01*
X115706Y344494D01*
X115722Y344683D01*
X115747Y344849D01*
X115779Y344991D01*
X115816Y345111D01*
X115856Y345212D01*
X115897Y345295D01*
X115941Y345365D01*
X115986Y345424D01*
X116090Y345536D01*
X116152Y345703D01*
X117042Y347035D01*
X117393Y348800D01*
X117042Y350565D01*
X116784Y350951D01*
X117462Y352221D01*
X118750D01*
X151986Y318986D01*
D02*
G37*
G36*
X109781Y278875D02*
X109821Y278630D01*
X109850Y278305D01*
X109861Y277868D01*
X109931Y277710D01*
Y271220D01*
X109931Y271220D01*
X110148Y270130D01*
X110766Y269206D01*
X128137Y251834D01*
X127611Y250564D01*
X122600D01*
X122345Y250738D01*
X121740Y251834D01*
X121747Y251851D01*
X121750Y251858D01*
X121737Y251889D01*
X121748Y251920D01*
X121497Y252467D01*
X121266Y253024D01*
X121263Y253026D01*
X121235Y253037D01*
X121221Y253068D01*
X121215Y253070D01*
X120849Y253206D01*
Y254000D01*
X120632Y255090D01*
X120014Y256014D01*
X119090Y256632D01*
X118000Y256849D01*
X116910Y256632D01*
X115986Y256014D01*
X115368Y255090D01*
X115151Y254000D01*
Y253206D01*
X114786Y253070D01*
X114779Y253068D01*
X114765Y253037D01*
X114740Y253027D01*
X114733Y253024D01*
X114503Y252467D01*
X114252Y251920D01*
X114253Y251916D01*
X114263Y251889D01*
X114250Y251858D01*
X114252Y251853D01*
X114260Y251834D01*
X113655Y250738D01*
X113400Y250564D01*
X107156D01*
Y246810D01*
X117930D01*
Y244270D01*
X107156D01*
Y241274D01*
X105897Y240643D01*
X105359Y241059D01*
Y278896D01*
X109775D01*
X109781Y278875D01*
D02*
G37*
G36*
X119942Y251687D02*
X119801Y251502D01*
X119677Y251302D01*
X119569Y251087D01*
X119478Y250857D01*
X119403Y250612D01*
X119357Y250406D01*
X119384Y250239D01*
X119473Y249904D01*
X119587Y249622D01*
X119727Y249390D01*
X119892Y249210D01*
X120083Y249082D01*
X120299Y249005D01*
X120540Y248979D01*
X115460D01*
X115701Y249005D01*
X115917Y249082D01*
X116108Y249210D01*
X116273Y249390D01*
X116412Y249622D01*
X116527Y249904D01*
X116616Y250239D01*
X116643Y250406D01*
X116597Y250612D01*
X116523Y250857D01*
X116431Y251087D01*
X116323Y251302D01*
X116199Y251502D01*
X116058Y251687D01*
X115900Y251858D01*
X120100D01*
X119942Y251687D01*
D02*
G37*
G36*
X436145Y254931D02*
X435822Y254547D01*
X435534Y254079D01*
X435281Y253526D01*
X435063Y252887D01*
X434881Y252164D01*
X434734Y251356D01*
X434623Y250463D01*
X434505Y248423D01*
X434500Y247275D01*
X427075Y254700D01*
X428223Y254705D01*
X430263Y254823D01*
X431156Y254934D01*
X431964Y255081D01*
X432687Y255263D01*
X433326Y255481D01*
X433879Y255734D01*
X434347Y256022D01*
X434731Y256345D01*
X436145Y254931D01*
D02*
G37*
G36*
X295200Y248825D02*
X295350Y248661D01*
X295599Y248515D01*
X295949Y248389D01*
X296399Y248282D01*
X296950Y248195D01*
X297600Y248127D01*
X299200Y248050D01*
X300149Y248040D01*
Y243040D01*
X299200Y243030D01*
X296950Y242885D01*
X296399Y242798D01*
X295949Y242691D01*
X295599Y242565D01*
X295350Y242419D01*
X295200Y242255D01*
X295149Y242071D01*
Y249009D01*
X295200Y248825D01*
D02*
G37*
G36*
X331031Y238460D02*
X331005Y238701D01*
X330929Y238917D01*
X330802Y239108D01*
X330624Y239273D01*
X330396Y239412D01*
X330116Y239527D01*
X329786Y239616D01*
X329405Y239679D01*
X328973Y239717D01*
X328490Y239730D01*
Y242270D01*
X328973Y242283D01*
X329405Y242321D01*
X329786Y242384D01*
X330116Y242473D01*
X330396Y242588D01*
X330624Y242727D01*
X330802Y242892D01*
X330929Y243083D01*
X331005Y243299D01*
X331031Y243540D01*
Y238460D01*
D02*
G37*
G36*
X301831Y233030D02*
X299628Y233035D01*
X299200Y233030D01*
X296950Y232885D01*
X296399Y232798D01*
X295949Y232691D01*
X295599Y232565D01*
X295350Y232419D01*
X295200Y232255D01*
X295149Y232071D01*
Y239009D01*
X295200Y238825D01*
X295350Y238661D01*
X295599Y238515D01*
X295949Y238389D01*
X296399Y238282D01*
X296950Y238195D01*
X297600Y238127D01*
X298175Y238099D01*
X298638Y238140D01*
X299392Y238265D01*
X300045Y238440D01*
X300598Y238665D01*
X301051Y238940D01*
X301404Y239265D01*
X301656Y239640D01*
X301809Y240065D01*
X301861Y240540D01*
X301831Y233030D01*
D02*
G37*
G36*
X325898Y240102D02*
X325460Y239655D01*
X324461Y238519D01*
X324388Y238404D01*
X324267Y238178D01*
X324169Y237950D01*
X324093Y237722D01*
X324040Y237493D01*
X324009Y237262D01*
X324000Y237030D01*
X323683Y237346D01*
X323619Y237212D01*
X323531Y236961D01*
X323486Y236735D01*
X320735Y239486D01*
X320961Y239531D01*
X321212Y239619D01*
X321346Y239683D01*
X321030Y240000D01*
X321262Y240009D01*
X321493Y240040D01*
X321722Y240093D01*
X321950Y240169D01*
X322178Y240267D01*
X322404Y240388D01*
X322476Y240433D01*
X322834Y240716D01*
X323232Y241066D01*
X324102Y241898D01*
X325898Y240102D01*
D02*
G37*
G36*
X108710Y233290D02*
X108688Y233476D01*
X108621Y233643D01*
X108508Y233790D01*
X108350Y233917D01*
X108148Y234025D01*
X107900Y234113D01*
X107608Y234182D01*
X107270Y234231D01*
X106888Y234260D01*
X106460Y234270D01*
Y236810D01*
X106888Y236820D01*
X107270Y236849D01*
X107608Y236898D01*
X107900Y236967D01*
X108148Y237055D01*
X108350Y237163D01*
X108508Y237290D01*
X108621Y237437D01*
X108688Y237604D01*
X108710Y237791D01*
Y233290D01*
D02*
G37*
G36*
X307819Y240690D02*
X307969Y240441D01*
X308220Y240220D01*
X308570Y240029D01*
X309020Y239867D01*
X309569Y239735D01*
X310219Y239632D01*
X310970Y239559D01*
X312770Y239500D01*
Y234500D01*
X311819Y234485D01*
X310219Y234368D01*
X309569Y234265D01*
X309020Y234133D01*
X308570Y233971D01*
X308220Y233780D01*
X307969Y233559D01*
X307819Y233310D01*
X307770Y233030D01*
Y240970D01*
X307819Y240690D01*
D02*
G37*
G36*
X323313Y230942D02*
X323498Y230801D01*
X323698Y230677D01*
X323913Y230569D01*
X324143Y230478D01*
X324388Y230403D01*
X324398Y230401D01*
X324946Y230350D01*
X327220Y230275D01*
X328153Y230270D01*
Y227730D01*
X327220Y227725D01*
X324170Y227531D01*
X324143Y227523D01*
X323913Y227431D01*
X323698Y227323D01*
X323498Y227199D01*
X323313Y227058D01*
X323142Y226900D01*
Y227411D01*
X323142Y227411D01*
X322910Y227326D01*
X322767Y227231D01*
Y230769D01*
X322910Y230674D01*
X323142Y230589D01*
X323142Y230589D01*
Y231100D01*
X323313Y230942D01*
D02*
G37*
G36*
X350965Y231299D02*
X351042Y231083D01*
X351170Y230892D01*
X351350Y230727D01*
X351582Y230588D01*
X351855Y230477D01*
X351857Y230478D01*
X352087Y230569D01*
X352302Y230677D01*
X352502Y230801D01*
X352687Y230942D01*
X352858Y231100D01*
Y230297D01*
X353021Y230283D01*
X353509Y230270D01*
Y227730D01*
X353021Y227717D01*
X352858Y227703D01*
Y226900D01*
X352687Y227058D01*
X352502Y227199D01*
X352302Y227323D01*
X352087Y227431D01*
X351857Y227523D01*
X351855Y227523D01*
X351582Y227412D01*
X351350Y227273D01*
X351170Y227108D01*
X351042Y226917D01*
X350965Y226701D01*
X350939Y226460D01*
Y227709D01*
X350787Y227722D01*
X350482Y227730D01*
Y230270D01*
X350787Y230278D01*
X350939Y230291D01*
Y231540D01*
X350965Y231299D01*
D02*
G37*
G36*
X331031Y226460D02*
X331005Y226701D01*
X330929Y226917D01*
X330802Y227108D01*
X330624Y227273D01*
X330396Y227412D01*
X330116Y227527D01*
X329786Y227616D01*
X329405Y227679D01*
X328973Y227717D01*
X328490Y227730D01*
Y230270D01*
X328973Y230283D01*
X329405Y230321D01*
X329786Y230384D01*
X330116Y230473D01*
X330396Y230588D01*
X330624Y230727D01*
X330802Y230892D01*
X330929Y231083D01*
X331005Y231299D01*
X331031Y231540D01*
Y226460D01*
D02*
G37*
G36*
X284163Y223771D02*
X284020Y223866D01*
X283788Y223951D01*
X283469Y224025D01*
X283062Y224090D01*
X281984Y224190D01*
X279710Y224265D01*
X278777Y224270D01*
Y226810D01*
X279710Y226815D01*
X283469Y227054D01*
X283788Y227129D01*
X284020Y227214D01*
X284163Y227309D01*
Y223771D01*
D02*
G37*
G36*
X276710Y223290D02*
X276688Y223476D01*
X276621Y223643D01*
X276508Y223790D01*
X276350Y223917D01*
X276148Y224025D01*
X275900Y224113D01*
X275608Y224182D01*
X275270Y224231D01*
X274888Y224260D01*
X274460Y224270D01*
Y226810D01*
X274888Y226820D01*
X275270Y226849D01*
X275608Y226898D01*
X275900Y226967D01*
X276148Y227055D01*
X276350Y227163D01*
X276508Y227290D01*
X276621Y227437D01*
X276688Y227604D01*
X276710Y227791D01*
Y223290D01*
D02*
G37*
G36*
X108710D02*
X108688Y223476D01*
X108621Y223643D01*
X108508Y223790D01*
X108350Y223917D01*
X108148Y224025D01*
X107900Y224113D01*
X107608Y224182D01*
X107270Y224231D01*
X106888Y224260D01*
X106460Y224270D01*
Y226810D01*
X106888Y226820D01*
X107270Y226849D01*
X107608Y226898D01*
X107900Y226967D01*
X108148Y227055D01*
X108350Y227163D01*
X108508Y227290D01*
X108621Y227437D01*
X108688Y227604D01*
X108710Y227791D01*
Y223290D01*
D02*
G37*
G36*
X307772Y228092D02*
X307869Y227967D01*
X308032Y227858D01*
X308261Y227763D01*
X308554Y227683D01*
X308913Y227617D01*
X309337Y227566D01*
X310380Y227507D01*
X311000Y227500D01*
Y222500D01*
X310380Y222493D01*
X308913Y222383D01*
X308554Y222317D01*
X308261Y222237D01*
X308032Y222142D01*
X307869Y222033D01*
X307772Y221908D01*
X307739Y221770D01*
Y228230D01*
X307772Y228092D01*
D02*
G37*
G36*
X295200Y228825D02*
X295350Y228661D01*
X295599Y228515D01*
X295949Y228389D01*
X296399Y228282D01*
X296950Y228195D01*
X297600Y228127D01*
X298320Y228092D01*
X300581Y228272D01*
X301031Y228375D01*
X301381Y228496D01*
X301630Y228635D01*
X301780Y228793D01*
X301831Y228969D01*
Y221031D01*
X301780Y221412D01*
X301630Y221754D01*
X301381Y222055D01*
X301031Y222317D01*
X300581Y222538D01*
X300030Y222719D01*
X299380Y222859D01*
X298631Y222960D01*
X298380Y222977D01*
X296950Y222885D01*
X296399Y222798D01*
X295949Y222691D01*
X295599Y222565D01*
X295350Y222419D01*
X295200Y222255D01*
X295149Y222071D01*
Y229009D01*
X295200Y228825D01*
D02*
G37*
G36*
X421644Y216550D02*
X420876Y217306D01*
X419417Y218580D01*
X418726Y219097D01*
X418059Y219535D01*
X417419Y219893D01*
X416803Y220172D01*
X416213Y220371D01*
X415648Y220490D01*
X415108Y220530D01*
Y223070D01*
X415648Y223110D01*
X416213Y223229D01*
X416803Y223428D01*
X417419Y223707D01*
X418059Y224065D01*
X418726Y224503D01*
X419417Y225020D01*
X420876Y226294D01*
X421644Y227050D01*
Y216550D01*
D02*
G37*
G36*
X108710Y213290D02*
X108688Y213476D01*
X108621Y213643D01*
X108508Y213790D01*
X108350Y213917D01*
X108148Y214025D01*
X107900Y214113D01*
X107608Y214182D01*
X107270Y214231D01*
X106888Y214260D01*
X106460Y214270D01*
Y216810D01*
X106888Y216820D01*
X107270Y216849D01*
X107608Y216898D01*
X107900Y216967D01*
X108148Y217055D01*
X108350Y217163D01*
X108508Y217290D01*
X108621Y217437D01*
X108688Y217604D01*
X108710Y217791D01*
Y213290D01*
D02*
G37*
G36*
X295145Y217839D02*
X295222Y217623D01*
X295350Y217432D01*
X295530Y217267D01*
X295762Y217127D01*
X296044Y217013D01*
X296379Y216924D01*
X296764Y216861D01*
X297201Y216823D01*
X297689Y216810D01*
Y214270D01*
X297201Y214257D01*
X296764Y214219D01*
X296379Y214156D01*
X296044Y214067D01*
X295762Y213953D01*
X295530Y213813D01*
X295350Y213648D01*
X295222Y213457D01*
X295145Y213241D01*
X295119Y213000D01*
Y218080D01*
X295145Y217839D01*
D02*
G37*
G36*
X25415Y214671D02*
X25175Y214511D01*
X24962Y214317D01*
X24779Y214089D01*
X24623Y213827D01*
X24496Y213530D01*
X24397Y213199D01*
X24327Y212833D01*
X24284Y212434D01*
X24270Y212000D01*
X21730D01*
X21716Y212434D01*
X21674Y212833D01*
X21603Y213199D01*
X21504Y213530D01*
X21377Y213827D01*
X21221Y214089D01*
X21037Y214317D01*
X20826Y214511D01*
X20585Y214671D01*
X20317Y214796D01*
X25683D01*
X25415Y214671D01*
D02*
G37*
G36*
X127143Y207718D02*
X127216Y207527D01*
X127337Y207359D01*
X127506Y207213D01*
X127724Y207090D01*
X127991Y206989D01*
X128305Y206911D01*
X128668Y206855D01*
X129080Y206821D01*
X129540Y206810D01*
Y204270D01*
X129080Y204259D01*
X128668Y204225D01*
X128305Y204169D01*
X127991Y204091D01*
X127724Y203990D01*
X127506Y203867D01*
X127337Y203721D01*
X127216Y203553D01*
X127143Y203362D01*
X127119Y203150D01*
Y207931D01*
X127143Y207718D01*
D02*
G37*
G36*
X295145Y207839D02*
X295222Y207623D01*
X295350Y207432D01*
X295530Y207267D01*
X295762Y207127D01*
X296044Y207013D01*
X296379Y206924D01*
X296764Y206861D01*
X297201Y206823D01*
X297689Y206810D01*
Y204270D01*
X297201Y204257D01*
X296764Y204219D01*
X296379Y204156D01*
X296044Y204067D01*
X295762Y203953D01*
X295530Y203813D01*
X295350Y203648D01*
X295222Y203457D01*
X295145Y203241D01*
X295119Y203000D01*
Y208080D01*
X295145Y207839D01*
D02*
G37*
G36*
X322933Y202356D02*
X322978Y201635D01*
X323005Y201459D01*
X323038Y201315D01*
X323077Y201203D01*
X323122Y201123D01*
X323173Y201075D01*
X323231Y201059D01*
X320089D01*
X320147Y201075D01*
X320198Y201123D01*
X320243Y201203D01*
X320282Y201315D01*
X320315Y201459D01*
X320342Y201635D01*
X320378Y202084D01*
X320390Y202660D01*
X322930D01*
X322933Y202356D01*
D02*
G37*
G36*
X108710Y196865D02*
X108853Y196843D01*
X109143Y196818D01*
X109448Y196810D01*
Y194270D01*
X109143Y194262D01*
X108853Y194237D01*
X108710Y194215D01*
Y193000D01*
X108685Y193241D01*
X108609Y193457D01*
X108482Y193648D01*
X108304Y193813D01*
X108076Y193953D01*
X107938Y194009D01*
X107843Y193971D01*
X107628Y193863D01*
X107428Y193739D01*
X107243Y193598D01*
X107072Y193440D01*
Y194220D01*
X106653Y194257D01*
X106171Y194270D01*
Y196810D01*
X106653Y196823D01*
X107072Y196860D01*
Y197640D01*
X107243Y197482D01*
X107428Y197341D01*
X107628Y197217D01*
X107843Y197109D01*
X107938Y197071D01*
X108076Y197127D01*
X108304Y197267D01*
X108482Y197432D01*
X108609Y197623D01*
X108685Y197839D01*
X108710Y198080D01*
Y196865D01*
D02*
G37*
G36*
X419899Y205353D02*
X420383Y205038D01*
X420941Y204762D01*
X421573Y204523D01*
X422280Y204324D01*
X423060Y204162D01*
X423915Y204039D01*
X425848Y203908D01*
X426925Y203900D01*
X419500Y196475D01*
X419492Y197553D01*
X419361Y199485D01*
X419238Y200340D01*
X419076Y201120D01*
X418877Y201827D01*
X418638Y202459D01*
X418362Y203017D01*
X418047Y203501D01*
X417693Y203911D01*
X419489Y205707D01*
X419899Y205353D01*
D02*
G37*
G36*
X363055Y200419D02*
X363131Y200203D01*
X363258Y200012D01*
X363436Y199847D01*
X363665Y199708D01*
X363944Y199593D01*
X364274Y199504D01*
X364655Y199441D01*
X365087Y199403D01*
X365569Y199390D01*
Y196850D01*
X365087Y196837D01*
X364655Y196799D01*
X364274Y196736D01*
X363944Y196647D01*
X363665Y196532D01*
X363436Y196393D01*
X363258Y196228D01*
X363131Y196037D01*
X363055Y195821D01*
X363030Y195580D01*
Y200660D01*
X363055Y200419D01*
D02*
G37*
G36*
X102855Y199423D02*
X103077Y199235D01*
X103301Y199070D01*
X103526Y198928D01*
X103752Y198807D01*
X103980Y198709D01*
X104208Y198633D01*
X104437Y198580D01*
X104668Y198549D01*
X104900Y198540D01*
X101930Y195570D01*
X101921Y195802D01*
X101890Y196033D01*
X101837Y196262D01*
X101761Y196490D01*
X101663Y196718D01*
X101542Y196944D01*
X101399Y197169D01*
X101235Y197393D01*
X101047Y197615D01*
X100837Y197837D01*
X102633Y199633D01*
X102855Y199423D01*
D02*
G37*
G36*
X340476Y203151D02*
X341536Y202644D01*
X341536Y201881D01*
Y199390D01*
X347060D01*
Y198120D01*
X348330D01*
Y193596D01*
X352266D01*
X352584Y193596D01*
X353536D01*
X353854Y193596D01*
X356055D01*
X356061Y193575D01*
X356101Y193330D01*
X356130Y193006D01*
X356141Y192568D01*
X356211Y192410D01*
Y190820D01*
X354696Y189304D01*
X354078Y188380D01*
X353932Y187648D01*
X353791Y187326D01*
X353783Y186946D01*
X353762Y186664D01*
X353760Y186654D01*
X345686D01*
Y181560D01*
X345620Y181555D01*
X345306Y181549D01*
X344982Y181409D01*
X344244Y181262D01*
X343320Y180644D01*
X343320Y180644D01*
X336907Y174232D01*
X335734Y174718D01*
Y186654D01*
X327670D01*
X327637Y186971D01*
X327629Y187326D01*
X327488Y187648D01*
X327342Y188380D01*
X326724Y189304D01*
X326724Y189304D01*
X324509Y191520D01*
Y192391D01*
X324514Y192421D01*
X324579Y192568D01*
X324586Y192854D01*
X324711Y193596D01*
X326866D01*
X327184Y193596D01*
X328136D01*
X328454Y193596D01*
X332390D01*
Y198120D01*
X333660D01*
Y199390D01*
X339184D01*
Y202644D01*
X340244Y203151D01*
X340476D01*
D02*
G37*
G36*
X295145Y197839D02*
X295222Y197623D01*
X295350Y197432D01*
X295530Y197267D01*
X295762Y197127D01*
X296044Y197013D01*
X296379Y196924D01*
X296764Y196861D01*
X297201Y196823D01*
X297689Y196810D01*
Y194270D01*
X297201Y194257D01*
X296764Y194219D01*
X296379Y194156D01*
X296044Y194067D01*
X295762Y193953D01*
X295530Y193813D01*
X295350Y193648D01*
X295222Y193457D01*
X295145Y193241D01*
X295119Y193000D01*
Y198080D01*
X295145Y197839D01*
D02*
G37*
G36*
X361359Y195155D02*
X361143Y195078D01*
X360952Y194950D01*
X360787Y194770D01*
X360648Y194538D01*
X360533Y194256D01*
X360444Y193921D01*
X360381Y193536D01*
X360343Y193099D01*
X360330Y192610D01*
X357790D01*
X357777Y193099D01*
X357739Y193536D01*
X357676Y193921D01*
X357587Y194256D01*
X357472Y194538D01*
X357333Y194770D01*
X357168Y194950D01*
X356977Y195078D01*
X356761Y195155D01*
X356520Y195181D01*
X361600D01*
X361359Y195155D01*
D02*
G37*
G36*
X323959D02*
X323743Y195078D01*
X323552Y194950D01*
X323387Y194770D01*
X323247Y194538D01*
X323133Y194256D01*
X323044Y193921D01*
X322981Y193536D01*
X322943Y193099D01*
X322930Y192610D01*
X320390D01*
X320377Y193099D01*
X320339Y193536D01*
X320276Y193921D01*
X320187Y194256D01*
X320073Y194538D01*
X319933Y194770D01*
X319768Y194950D01*
X319577Y195078D01*
X319361Y195155D01*
X319120Y195181D01*
X324200D01*
X323959Y195155D01*
D02*
G37*
G36*
X108710Y186865D02*
X108853Y186843D01*
X109143Y186818D01*
X109448Y186810D01*
Y184270D01*
X109143Y184262D01*
X108853Y184237D01*
X108710Y184215D01*
Y183000D01*
X108685Y183241D01*
X108609Y183457D01*
X108482Y183648D01*
X108304Y183813D01*
X108076Y183953D01*
X107938Y184009D01*
X107843Y183971D01*
X107628Y183863D01*
X107428Y183739D01*
X107243Y183598D01*
X107072Y183440D01*
Y184220D01*
X106653Y184257D01*
X106171Y184270D01*
Y186810D01*
X106653Y186823D01*
X107072Y186860D01*
Y187640D01*
X107243Y187482D01*
X107428Y187341D01*
X107628Y187217D01*
X107843Y187109D01*
X107938Y187071D01*
X108076Y187127D01*
X108304Y187267D01*
X108482Y187432D01*
X108609Y187623D01*
X108685Y187839D01*
X108710Y188080D01*
Y186865D01*
D02*
G37*
G36*
X25763Y189392D02*
X25450Y189174D01*
X25173Y188922D01*
X24934Y188638D01*
X24731Y188320D01*
X24565Y187969D01*
X24436Y187584D01*
X24344Y187166D01*
X24288Y186715D01*
X24270Y186231D01*
X21730D01*
X21712Y186715D01*
X21656Y187166D01*
X21564Y187584D01*
X21435Y187969D01*
X21269Y188320D01*
X21066Y188638D01*
X20827Y188922D01*
X20550Y189174D01*
X20237Y189392D01*
X19886Y189577D01*
X26114D01*
X25763Y189392D01*
D02*
G37*
G36*
X357989Y186868D02*
X358063Y186157D01*
X358127Y185869D01*
X358210Y185624D01*
X358311Y185424D01*
X358431Y185269D01*
X358569Y185158D01*
X358726Y185091D01*
X358900Y185069D01*
X354520D01*
X354694Y185091D01*
X354851Y185158D01*
X354989Y185269D01*
X355109Y185424D01*
X355210Y185624D01*
X355293Y185869D01*
X355357Y186157D01*
X355403Y186490D01*
X355431Y186868D01*
X355440Y187290D01*
X357980D01*
X357989Y186868D01*
D02*
G37*
G36*
X325989D02*
X326063Y186157D01*
X326127Y185869D01*
X326210Y185624D01*
X326311Y185424D01*
X326431Y185269D01*
X326569Y185158D01*
X326726Y185091D01*
X326900Y185069D01*
X322519D01*
X322694Y185091D01*
X322851Y185158D01*
X322989Y185269D01*
X323109Y185424D01*
X323210Y185624D01*
X323293Y185869D01*
X323357Y186157D01*
X323403Y186490D01*
X323431Y186868D01*
X323440Y187290D01*
X325980D01*
X325989Y186868D01*
D02*
G37*
G36*
X127132Y186843D02*
X127173Y186836D01*
X127240Y186830D01*
X127602Y186817D01*
X128460Y186810D01*
Y184270D01*
X127119Y184230D01*
Y186850D01*
X127132Y186843D01*
D02*
G37*
G36*
X295145Y187839D02*
X295222Y187623D01*
X295350Y187432D01*
X295530Y187267D01*
X295762Y187127D01*
X296044Y187013D01*
X296379Y186924D01*
X296764Y186861D01*
X297201Y186823D01*
X297689Y186810D01*
Y184270D01*
X297201Y184257D01*
X296764Y184219D01*
X296379Y184156D01*
X296044Y184067D01*
X295762Y183953D01*
X295530Y183813D01*
X295350Y183648D01*
X295222Y183457D01*
X295145Y183241D01*
X295119Y183000D01*
Y188080D01*
X295145Y187839D01*
D02*
G37*
G36*
X108710Y176865D02*
X108853Y176843D01*
X109143Y176818D01*
X109448Y176810D01*
Y174270D01*
X109143Y174262D01*
X108853Y174237D01*
X108710Y174215D01*
Y173000D01*
X108685Y173241D01*
X108609Y173457D01*
X108482Y173648D01*
X108304Y173813D01*
X108076Y173953D01*
X107938Y174009D01*
X107843Y173971D01*
X107628Y173863D01*
X107428Y173739D01*
X107243Y173598D01*
X107072Y173440D01*
Y174220D01*
X106653Y174257D01*
X106171Y174270D01*
Y176810D01*
X106653Y176823D01*
X107072Y176860D01*
Y177640D01*
X107243Y177482D01*
X107428Y177341D01*
X107628Y177217D01*
X107843Y177109D01*
X107938Y177071D01*
X108076Y177127D01*
X108304Y177267D01*
X108482Y177432D01*
X108609Y177623D01*
X108685Y177839D01*
X108710Y178080D01*
Y176865D01*
D02*
G37*
G36*
X347271Y176724D02*
X347252Y176845D01*
X347193Y176953D01*
X347097Y177048D01*
X346961Y177131D01*
X346787Y177201D01*
X346574Y177258D01*
X346322Y177303D01*
X346032Y177334D01*
X345335Y177360D01*
Y179900D01*
X345702Y179906D01*
X346322Y179957D01*
X346574Y180002D01*
X346787Y180059D01*
X346961Y180129D01*
X347097Y180212D01*
X347193Y180307D01*
X347252Y180415D01*
X347271Y180536D01*
Y176724D01*
D02*
G37*
G36*
X295145Y177839D02*
X295222Y177623D01*
X295350Y177432D01*
X295530Y177267D01*
X295762Y177127D01*
X296044Y177013D01*
X296379Y176924D01*
X296764Y176861D01*
X297201Y176823D01*
X297689Y176810D01*
Y174270D01*
X297201Y174257D01*
X296764Y174219D01*
X296379Y174156D01*
X296044Y174067D01*
X295762Y173953D01*
X295530Y173813D01*
X295350Y173648D01*
X295222Y173457D01*
X295145Y173241D01*
X295119Y173000D01*
Y178080D01*
X295145Y177839D01*
D02*
G37*
G36*
X127145D02*
X127222Y177623D01*
X127350Y177432D01*
X127530Y177267D01*
X127762Y177127D01*
X128044Y177013D01*
X128379Y176924D01*
X128764Y176861D01*
X129201Y176823D01*
X129690Y176810D01*
Y174270D01*
X129201Y174257D01*
X128764Y174219D01*
X128379Y174156D01*
X128044Y174067D01*
X127762Y173953D01*
X127530Y173813D01*
X127350Y173648D01*
X127222Y173457D01*
X127145Y173241D01*
X127119Y173000D01*
Y178080D01*
X127145Y177839D01*
D02*
G37*
G36*
X419899Y179953D02*
X420383Y179638D01*
X420941Y179362D01*
X421573Y179123D01*
X422280Y178923D01*
X423060Y178762D01*
X423915Y178639D01*
X425848Y178508D01*
X426925Y178500D01*
X419500Y171075D01*
X419492Y172153D01*
X419361Y174085D01*
X419238Y174940D01*
X419076Y175720D01*
X418877Y176427D01*
X418638Y177059D01*
X418362Y177617D01*
X418047Y178101D01*
X417693Y178511D01*
X419489Y180307D01*
X419899Y179953D01*
D02*
G37*
G36*
X108710Y166865D02*
X108853Y166843D01*
X109143Y166818D01*
X109448Y166810D01*
Y164270D01*
X109143Y164262D01*
X108853Y164237D01*
X108710Y164215D01*
Y163000D01*
X108685Y163241D01*
X108609Y163457D01*
X108482Y163648D01*
X108304Y163813D01*
X108076Y163953D01*
X107938Y164009D01*
X107843Y163971D01*
X107628Y163863D01*
X107428Y163739D01*
X107243Y163598D01*
X107072Y163440D01*
Y164220D01*
X106653Y164257D01*
X106171Y164270D01*
Y166810D01*
X106653Y166823D01*
X107072Y166860D01*
Y167640D01*
X107243Y167482D01*
X107428Y167341D01*
X107628Y167217D01*
X107843Y167109D01*
X107938Y167071D01*
X108076Y167127D01*
X108304Y167267D01*
X108482Y167432D01*
X108609Y167623D01*
X108685Y167839D01*
X108710Y168080D01*
Y166865D01*
D02*
G37*
G36*
X102528Y169281D02*
X102752Y169096D01*
X102976Y168936D01*
X103201Y168801D01*
X103427Y168691D01*
X103654Y168607D01*
X103881Y168547D01*
X104109Y168512D01*
X104338Y168503D01*
X104568Y168518D01*
X101945Y165238D01*
X101912Y165464D01*
X101860Y165690D01*
X101788Y165916D01*
X101696Y166141D01*
X101584Y166365D01*
X101453Y166588D01*
X101302Y166810D01*
X101131Y167032D01*
X100941Y167253D01*
X100731Y167473D01*
X102305Y169491D01*
X102528Y169281D01*
D02*
G37*
G36*
X295136Y167167D02*
X295189Y167092D01*
X295276Y167026D01*
X295398Y166969D01*
X295554Y166920D01*
X295746Y166880D01*
X295972Y166850D01*
X296529Y166814D01*
X296860Y166810D01*
Y164270D01*
X296529Y164266D01*
X295746Y164200D01*
X295554Y164160D01*
X295398Y164111D01*
X295276Y164054D01*
X295189Y163988D01*
X295136Y163913D01*
X295119Y163829D01*
Y167250D01*
X295136Y167167D01*
D02*
G37*
G36*
X30508Y169848D02*
X30639Y167915D01*
X30762Y167060D01*
X30924Y166280D01*
X31123Y165573D01*
X31362Y164941D01*
X31638Y164383D01*
X31953Y163899D01*
X32307Y163489D01*
X30511Y161693D01*
X30101Y162047D01*
X29617Y162362D01*
X29059Y162638D01*
X28427Y162877D01*
X27720Y163076D01*
X26940Y163238D01*
X26085Y163361D01*
X24153Y163492D01*
X23075Y163500D01*
X30500Y170925D01*
X30508Y169848D01*
D02*
G37*
G36*
X295145Y157839D02*
X295222Y157623D01*
X295350Y157432D01*
X295530Y157267D01*
X295762Y157128D01*
X296044Y157013D01*
X296379Y156924D01*
X296764Y156861D01*
X297201Y156823D01*
X297689Y156810D01*
Y154270D01*
X297201Y154257D01*
X296764Y154219D01*
X296379Y154156D01*
X296044Y154067D01*
X295762Y153953D01*
X295530Y153813D01*
X295350Y153648D01*
X295222Y153457D01*
X295145Y153241D01*
X295119Y153000D01*
Y158080D01*
X295145Y157839D01*
D02*
G37*
G36*
X104557Y158265D02*
X104938Y157959D01*
X105335Y157690D01*
X105746Y157457D01*
X106172Y157259D01*
X106613Y157097D01*
X107069Y156972D01*
X107387Y156911D01*
X107466Y156924D01*
X107796Y157013D01*
X108076Y157128D01*
X108304Y157267D01*
X108482Y157432D01*
X108609Y157623D01*
X108685Y157839D01*
X108710Y158080D01*
Y153000D01*
X108685Y153241D01*
X108609Y153457D01*
X108482Y153648D01*
X108304Y153813D01*
X108076Y153953D01*
X107796Y154067D01*
X107466Y154156D01*
X107387Y154169D01*
X107069Y154108D01*
X106613Y153983D01*
X106172Y153821D01*
X105746Y153623D01*
X105335Y153390D01*
X104938Y153120D01*
X104557Y152815D01*
X104190Y152474D01*
X101868Y153744D01*
X102191Y154103D01*
X102443Y154462D01*
X102622Y154822D01*
X102730Y155181D01*
X102766Y155540D01*
X102730Y155899D01*
X102622Y156258D01*
X102443Y156618D01*
X102191Y156977D01*
X101868Y157336D01*
X104190Y158606D01*
X104557Y158265D01*
D02*
G37*
G36*
X265970Y150794D02*
X265738Y150785D01*
X265507Y150754D01*
X265278Y150701D01*
X265049Y150625D01*
X264822Y150527D01*
X264596Y150406D01*
X264371Y150264D01*
X264147Y150098D01*
X263925Y149911D01*
X263703Y149701D01*
X261907Y151497D01*
X262117Y151719D01*
X262304Y151941D01*
X262470Y152165D01*
X262612Y152390D01*
X262733Y152616D01*
X262831Y152844D01*
X262907Y153072D01*
X262960Y153301D01*
X262991Y153532D01*
X263000Y153764D01*
X265970Y150794D01*
D02*
G37*
G36*
X252970D02*
X252738Y150785D01*
X252507Y150754D01*
X252278Y150701D01*
X252050Y150625D01*
X251822Y150527D01*
X251596Y150406D01*
X251371Y150264D01*
X251147Y150098D01*
X250925Y149911D01*
X250703Y149701D01*
X248907Y151497D01*
X249117Y151719D01*
X249305Y151941D01*
X249470Y152165D01*
X249612Y152390D01*
X249733Y152616D01*
X249831Y152844D01*
X249907Y153072D01*
X249960Y153301D01*
X249991Y153532D01*
X250000Y153764D01*
X252970Y150794D01*
D02*
G37*
G36*
X295144Y147782D02*
X295219Y147578D01*
X295344Y147398D01*
X295519Y147242D01*
X295744Y147110D01*
X296019Y147002D01*
X296345Y146918D01*
X296720Y146858D01*
X297145Y146822D01*
X297620Y146810D01*
Y144270D01*
X297145Y144258D01*
X296720Y144222D01*
X296345Y144162D01*
X296019Y144078D01*
X295744Y143970D01*
X295519Y143838D01*
X295344Y143682D01*
X295219Y143502D01*
X295144Y143298D01*
X295119Y143069D01*
Y148010D01*
X295144Y147782D01*
D02*
G37*
G36*
X127145Y147839D02*
X127222Y147623D01*
X127350Y147432D01*
X127530Y147267D01*
X127762Y147128D01*
X128044Y147013D01*
X128379Y146924D01*
X128764Y146861D01*
X129201Y146823D01*
X129690Y146810D01*
Y144270D01*
X129201Y144257D01*
X128764Y144219D01*
X128379Y144156D01*
X128044Y144067D01*
X127762Y143953D01*
X127530Y143813D01*
X127350Y143648D01*
X127222Y143457D01*
X127145Y143241D01*
X127119Y143000D01*
Y148080D01*
X127145Y147839D01*
D02*
G37*
G36*
X108710Y143000D02*
X108685Y143241D01*
X108609Y143457D01*
X108482Y143648D01*
X108304Y143813D01*
X108076Y143953D01*
X107796Y144067D01*
X107466Y144156D01*
X107085Y144219D01*
X106653Y144257D01*
X106171Y144270D01*
Y146810D01*
X106653Y146823D01*
X107085Y146861D01*
X107466Y146924D01*
X107796Y147013D01*
X108076Y147128D01*
X108304Y147267D01*
X108482Y147432D01*
X108609Y147623D01*
X108685Y147839D01*
X108710Y148080D01*
Y143000D01*
D02*
G37*
G36*
X421644Y140350D02*
X420876Y141106D01*
X419417Y142380D01*
X418726Y142897D01*
X418059Y143335D01*
X417419Y143693D01*
X416803Y143972D01*
X416213Y144171D01*
X415648Y144290D01*
X415108Y144330D01*
Y146870D01*
X415648Y146910D01*
X416213Y147029D01*
X416803Y147228D01*
X417419Y147507D01*
X418059Y147865D01*
X418726Y148303D01*
X419417Y148820D01*
X420876Y150094D01*
X421644Y150850D01*
Y140350D01*
D02*
G37*
G36*
X108710Y136875D02*
X108923Y136843D01*
X109213Y136818D01*
X109518Y136810D01*
Y134270D01*
X109213Y134262D01*
X108923Y134237D01*
X108710Y134205D01*
Y133000D01*
X108685Y133241D01*
X108609Y133457D01*
X108482Y133648D01*
X108304Y133813D01*
X108076Y133953D01*
X107972Y133995D01*
X107913Y133971D01*
X107698Y133863D01*
X107498Y133739D01*
X107313Y133598D01*
X107142Y133440D01*
Y134210D01*
X107085Y134219D01*
X106653Y134257D01*
X106171Y134270D01*
Y136810D01*
X106653Y136823D01*
X107085Y136861D01*
X107142Y136870D01*
Y137640D01*
X107313Y137482D01*
X107498Y137341D01*
X107698Y137217D01*
X107913Y137109D01*
X107972Y137085D01*
X108076Y137128D01*
X108304Y137267D01*
X108482Y137432D01*
X108609Y137623D01*
X108685Y137839D01*
X108710Y138080D01*
Y136875D01*
D02*
G37*
G36*
X250924Y140883D02*
X251147Y140695D01*
X251371Y140530D01*
X251596Y140387D01*
X251822Y140267D01*
X252049Y140169D01*
X252277Y140093D01*
X252507Y140040D01*
X252738Y140008D01*
X252969Y140000D01*
X250000Y137030D01*
X249991Y137262D01*
X249960Y137492D01*
X249906Y137722D01*
X249830Y137950D01*
X249732Y138177D01*
X249612Y138404D01*
X249469Y138629D01*
X249304Y138852D01*
X249116Y139075D01*
X248907Y139296D01*
X250703Y141092D01*
X250924Y140883D01*
D02*
G37*
G36*
X30508Y144447D02*
X30639Y142515D01*
X30762Y141660D01*
X30924Y140880D01*
X31123Y140173D01*
X31362Y139541D01*
X31638Y138983D01*
X31953Y138499D01*
X32307Y138089D01*
X30511Y136293D01*
X30101Y136647D01*
X29617Y136962D01*
X29059Y137238D01*
X28427Y137477D01*
X27720Y137676D01*
X26940Y137838D01*
X26085Y137961D01*
X24153Y138092D01*
X23075Y138100D01*
X30500Y145525D01*
X30508Y144447D01*
D02*
G37*
G36*
X295133Y136843D02*
X295173Y136836D01*
X295240Y136830D01*
X295602Y136817D01*
X296460Y136810D01*
Y134270D01*
X295119Y134229D01*
Y136851D01*
X295133Y136843D01*
D02*
G37*
G36*
X104970Y132540D02*
X104738Y132531D01*
X104507Y132500D01*
X104278Y132447D01*
X104050Y132371D01*
X103822Y132273D01*
X103596Y132152D01*
X103371Y132010D01*
X103147Y131845D01*
X102925Y131657D01*
X102703Y131447D01*
X100907Y133243D01*
X101117Y133465D01*
X101305Y133687D01*
X101469Y133911D01*
X101612Y134136D01*
X101733Y134362D01*
X101831Y134590D01*
X101907Y134818D01*
X101960Y135048D01*
X101991Y135278D01*
X102000Y135510D01*
X104970Y132540D01*
D02*
G37*
G36*
X108710Y126875D02*
X108923Y126843D01*
X109213Y126818D01*
X109518Y126810D01*
Y124270D01*
X109213Y124262D01*
X108923Y124237D01*
X108710Y124205D01*
Y123000D01*
X108685Y123241D01*
X108609Y123457D01*
X108482Y123648D01*
X108304Y123813D01*
X108076Y123953D01*
X107972Y123995D01*
X107913Y123971D01*
X107698Y123863D01*
X107498Y123739D01*
X107313Y123598D01*
X107142Y123440D01*
Y124210D01*
X107085Y124219D01*
X106653Y124257D01*
X106171Y124270D01*
Y126810D01*
X106653Y126823D01*
X107085Y126861D01*
X107142Y126870D01*
Y127640D01*
X107313Y127482D01*
X107498Y127341D01*
X107698Y127217D01*
X107913Y127109D01*
X107972Y127085D01*
X108076Y127128D01*
X108304Y127267D01*
X108482Y127432D01*
X108609Y127623D01*
X108685Y127839D01*
X108710Y128080D01*
Y126875D01*
D02*
G37*
G36*
X102858Y123440D02*
X102687Y123598D01*
X102502Y123739D01*
X102302Y123863D01*
X102087Y123971D01*
X101857Y124062D01*
X101612Y124137D01*
X101352Y124195D01*
X101077Y124237D01*
X100787Y124262D01*
X100482Y124270D01*
Y126810D01*
X100787Y126818D01*
X101077Y126843D01*
X101352Y126885D01*
X101612Y126943D01*
X101857Y127017D01*
X102087Y127109D01*
X102302Y127217D01*
X102502Y127341D01*
X102687Y127482D01*
X102858Y127640D01*
Y123440D01*
D02*
G37*
G36*
X276710Y123000D02*
X276685Y123241D01*
X276609Y123457D01*
X276482Y123648D01*
X276304Y123813D01*
X276075Y123953D01*
X275796Y124067D01*
X275466Y124156D01*
X275085Y124219D01*
X274653Y124257D01*
X274170Y124270D01*
Y126810D01*
X274653Y126823D01*
X275085Y126861D01*
X275466Y126924D01*
X275796Y127013D01*
X276075Y127128D01*
X276304Y127267D01*
X276482Y127432D01*
X276609Y127623D01*
X276685Y127839D01*
X276710Y128080D01*
Y123000D01*
D02*
G37*
G36*
X419899Y129153D02*
X420383Y128838D01*
X420941Y128562D01*
X421573Y128323D01*
X422280Y128124D01*
X423060Y127962D01*
X423915Y127839D01*
X425848Y127708D01*
X426925Y127700D01*
X419500Y120275D01*
X419492Y121353D01*
X419361Y123285D01*
X419238Y124140D01*
X419076Y124920D01*
X418877Y125627D01*
X418638Y126259D01*
X418362Y126817D01*
X418047Y127301D01*
X417693Y127711D01*
X419489Y129507D01*
X419899Y129153D01*
D02*
G37*
G36*
X29124Y124694D02*
X30583Y123420D01*
X31274Y122903D01*
X31941Y122465D01*
X32582Y122107D01*
X33197Y121828D01*
X33787Y121629D01*
X34352Y121510D01*
X34892Y121470D01*
Y118930D01*
X34352Y118890D01*
X33787Y118771D01*
X33197Y118572D01*
X32582Y118293D01*
X31941Y117935D01*
X31274Y117497D01*
X30583Y116980D01*
X29124Y115706D01*
X28356Y114950D01*
Y125450D01*
X29124Y124694D01*
D02*
G37*
G36*
X276710Y113000D02*
X276685Y113241D01*
X276609Y113457D01*
X276482Y113648D01*
X276304Y113813D01*
X276075Y113953D01*
X275796Y114067D01*
X275466Y114156D01*
X275085Y114219D01*
X274653Y114257D01*
X274170Y114270D01*
Y116810D01*
X274653Y116823D01*
X275085Y116861D01*
X275466Y116924D01*
X275796Y117013D01*
X276075Y117128D01*
X276304Y117267D01*
X276482Y117432D01*
X276609Y117623D01*
X276685Y117839D01*
X276710Y118080D01*
Y113000D01*
D02*
G37*
G36*
X108710D02*
X108685Y113241D01*
X108609Y113457D01*
X108482Y113648D01*
X108304Y113813D01*
X108076Y113953D01*
X107796Y114067D01*
X107466Y114156D01*
X107085Y114219D01*
X106653Y114257D01*
X106171Y114270D01*
Y116810D01*
X106653Y116823D01*
X107085Y116861D01*
X107466Y116924D01*
X107796Y117013D01*
X108076Y117128D01*
X108304Y117267D01*
X108482Y117432D01*
X108609Y117623D01*
X108685Y117839D01*
X108710Y118080D01*
Y113000D01*
D02*
G37*
G36*
Y103000D02*
X108685Y103241D01*
X108609Y103457D01*
X108482Y103648D01*
X108304Y103813D01*
X108076Y103953D01*
X107796Y104067D01*
X107466Y104156D01*
X107085Y104219D01*
X106653Y104257D01*
X106171Y104270D01*
Y106810D01*
X106653Y106823D01*
X107085Y106861D01*
X107466Y106924D01*
X107796Y107013D01*
X108076Y107128D01*
X108304Y107267D01*
X108482Y107432D01*
X108609Y107623D01*
X108685Y107839D01*
X108710Y108080D01*
Y103000D01*
D02*
G37*
G36*
X419899Y103753D02*
X420383Y103438D01*
X420941Y103162D01*
X421573Y102923D01*
X422280Y102724D01*
X423060Y102562D01*
X423915Y102439D01*
X425848Y102308D01*
X426925Y102300D01*
X419500Y94875D01*
X419492Y95953D01*
X419361Y97885D01*
X419238Y98740D01*
X419076Y99520D01*
X418877Y100227D01*
X418638Y100859D01*
X418362Y101417D01*
X418047Y101901D01*
X417693Y102311D01*
X419489Y104107D01*
X419899Y103753D01*
D02*
G37*
G36*
X32307Y102311D02*
X31953Y101901D01*
X31638Y101417D01*
X31362Y100859D01*
X31123Y100227D01*
X30924Y99520D01*
X30762Y98740D01*
X30639Y97885D01*
X30508Y95953D01*
X30500Y94875D01*
X23075Y102300D01*
X24153Y102308D01*
X26085Y102439D01*
X26940Y102562D01*
X27720Y102724D01*
X28427Y102923D01*
X29059Y103162D01*
X29617Y103438D01*
X30101Y103753D01*
X30511Y104107D01*
X32307Y102311D01*
D02*
G37*
G36*
X31958Y76562D02*
X31569Y76127D01*
X31233Y75651D01*
X30949Y75136D01*
X30718Y74580D01*
X30539Y73984D01*
X30413Y73348D01*
X30339Y72671D01*
X30318Y71955D01*
X30349Y71198D01*
X30433Y70401D01*
X24001Y76833D01*
X24798Y76749D01*
X25555Y76718D01*
X26271Y76739D01*
X26948Y76813D01*
X27584Y76939D01*
X28180Y77118D01*
X28736Y77349D01*
X29251Y77633D01*
X29727Y77969D01*
X30162Y78358D01*
X31958Y76562D01*
D02*
G37*
G36*
X350355Y65050D02*
X350350Y65019D01*
X350345Y64966D01*
X350333Y64541D01*
X350330Y64000D01*
X348330D01*
X348299Y65061D01*
X350360D01*
X350355Y65050D01*
D02*
G37*
G36*
X338355D02*
X338349Y65019D01*
X338345Y64966D01*
X338333Y64541D01*
X338330Y64000D01*
X336330D01*
X336300Y65061D01*
X338360D01*
X338355Y65050D01*
D02*
G37*
G36*
X426925Y61900D02*
X425848Y61892D01*
X423915Y61761D01*
X423060Y61638D01*
X422280Y61476D01*
X421573Y61277D01*
X420941Y61038D01*
X420383Y60762D01*
X419899Y60447D01*
X419489Y60093D01*
X417693Y61889D01*
X418047Y62299D01*
X418362Y62783D01*
X418638Y63341D01*
X418877Y63973D01*
X419076Y64680D01*
X419238Y65460D01*
X419361Y66315D01*
X419492Y68247D01*
X419500Y69325D01*
X426925Y61900D01*
D02*
G37*
G36*
X351969Y62791D02*
X352184Y62622D01*
X352411Y62474D01*
X352648Y62345D01*
X352896Y62237D01*
X353155Y62149D01*
X353425Y62082D01*
X353706Y62034D01*
X353997Y62007D01*
X354300Y62000D01*
X351330Y59030D01*
X351323Y59333D01*
X351296Y59624D01*
X351248Y59905D01*
X351181Y60175D01*
X351093Y60434D01*
X350985Y60682D01*
X350856Y60919D01*
X350708Y61146D01*
X350539Y61361D01*
X350350Y61566D01*
X351764Y62980D01*
X351969Y62791D01*
D02*
G37*
G36*
X336310Y61566D02*
X336121Y61361D01*
X335952Y61146D01*
X335804Y60919D01*
X335675Y60682D01*
X335567Y60434D01*
X335479Y60175D01*
X335412Y59905D01*
X335364Y59624D01*
X335337Y59333D01*
X335330Y59030D01*
X332360Y62000D01*
X332663Y62007D01*
X332954Y62034D01*
X333235Y62082D01*
X333505Y62149D01*
X333764Y62237D01*
X334012Y62345D01*
X334249Y62474D01*
X334476Y62622D01*
X334691Y62791D01*
X334896Y62980D01*
X336310Y61566D01*
D02*
G37*
G36*
X15899Y52953D02*
X16383Y52638D01*
X16941Y52362D01*
X17573Y52123D01*
X18280Y51923D01*
X19060Y51762D01*
X19915Y51639D01*
X21848Y51508D01*
X22925Y51500D01*
X15500Y44075D01*
X15492Y45153D01*
X15361Y47085D01*
X15238Y47940D01*
X15077Y48720D01*
X14877Y49427D01*
X14638Y50059D01*
X14362Y50617D01*
X14047Y51101D01*
X13693Y51511D01*
X15489Y53307D01*
X15899Y52953D01*
D02*
G37*
G36*
X421644Y38750D02*
X420876Y39506D01*
X419417Y40780D01*
X418726Y41297D01*
X418059Y41735D01*
X417419Y42093D01*
X416803Y42372D01*
X416213Y42571D01*
X415648Y42690D01*
X415108Y42730D01*
Y45270D01*
X415648Y45310D01*
X416213Y45429D01*
X416803Y45628D01*
X417419Y45907D01*
X418059Y46265D01*
X418726Y46703D01*
X419417Y47220D01*
X420876Y48494D01*
X421644Y49250D01*
Y38750D01*
D02*
G37*
G36*
X419899Y27553D02*
X420383Y27238D01*
X420941Y26962D01*
X421573Y26723D01*
X422280Y26523D01*
X423060Y26362D01*
X423915Y26239D01*
X425848Y26108D01*
X426925Y26100D01*
X419500Y18675D01*
X419492Y19753D01*
X419361Y21685D01*
X419238Y22540D01*
X419076Y23320D01*
X418877Y24027D01*
X418638Y24659D01*
X418362Y25217D01*
X418047Y25701D01*
X417693Y26111D01*
X419489Y27907D01*
X419899Y27553D01*
D02*
G37*
%LPC*%
G36*
X212240Y590200D02*
X207986D01*
Y586946D01*
X212240D01*
Y590200D01*
D02*
G37*
G36*
X212740Y583794D02*
X207986D01*
Y583512D01*
X207147Y582611D01*
X207024Y582519D01*
X206462Y582271D01*
X205896Y582036D01*
X205888Y582017D01*
X205869Y582009D01*
X205867Y582002D01*
X205648Y581437D01*
X205609Y581343D01*
X204920D01*
X203935Y581147D01*
X203100Y580590D01*
X202542Y579755D01*
X202347Y578770D01*
X202542Y577785D01*
X203100Y576950D01*
X203935Y576392D01*
X204920Y576197D01*
X205609D01*
X205648Y576103D01*
X205867Y575538D01*
X205869Y575531D01*
X205888Y575523D01*
X205896Y575504D01*
X206462Y575269D01*
X207024Y575021D01*
X207147Y574929D01*
X207986Y574028D01*
Y573746D01*
X212740D01*
Y578770D01*
Y583794D01*
D02*
G37*
%LPD*%
G36*
X207281Y580661D02*
X207507Y580474D01*
X207739Y580309D01*
X207978Y580166D01*
X208223Y580045D01*
X208475Y579946D01*
X208667Y579889D01*
X208820Y579930D01*
X209040Y580020D01*
X209220Y580130D01*
X209360Y580260D01*
X209460Y580410D01*
X209520Y580580D01*
X209540Y580770D01*
Y579770D01*
X209548Y579770D01*
Y577770D01*
X209540Y577770D01*
Y576770D01*
X209520Y576960D01*
X209460Y577130D01*
X209360Y577280D01*
X209220Y577410D01*
X209040Y577520D01*
X208820Y577610D01*
X208667Y577651D01*
X208475Y577594D01*
X208223Y577495D01*
X207978Y577374D01*
X207739Y577231D01*
X207507Y577066D01*
X207281Y576879D01*
X207062Y576670D01*
Y580870D01*
X207281Y580661D01*
D02*
G37*
%LPC*%
G36*
X63524Y581730D02*
X59270D01*
Y578476D01*
X63524D01*
Y581730D01*
D02*
G37*
G36*
X256124Y531780D02*
X251870D01*
Y528526D01*
X256124D01*
Y531780D01*
D02*
G37*
G36*
X411730Y532730D02*
X407476D01*
Y529476D01*
X411730D01*
Y532730D01*
D02*
G37*
G36*
X253384Y402944D02*
X236336D01*
Y378896D01*
X253384D01*
Y402944D01*
D02*
G37*
G36*
X166304D02*
X149256D01*
Y378896D01*
X166304D01*
Y402944D01*
D02*
G37*
G36*
X121304D02*
X104256D01*
Y378896D01*
X121304D01*
Y402944D01*
D02*
G37*
G36*
X232344Y402940D02*
X215296D01*
Y378892D01*
X232344D01*
Y402940D01*
D02*
G37*
G36*
X187344D02*
X170296D01*
Y378892D01*
X187344D01*
Y402940D01*
D02*
G37*
G36*
X32024Y408624D02*
X13976D01*
Y390576D01*
X32024D01*
Y408624D01*
D02*
G37*
G36*
X298384Y402944D02*
X281336D01*
Y378896D01*
X298384D01*
Y402944D01*
D02*
G37*
G36*
X23000Y383302D02*
X20644Y382992D01*
X18449Y382082D01*
X16564Y380636D01*
X15118Y378751D01*
X14208Y376556D01*
X13898Y374200D01*
X14208Y371844D01*
X15118Y369649D01*
X16564Y367764D01*
X18449Y366318D01*
X20644Y365408D01*
X23000Y365098D01*
X25356Y365408D01*
X27551Y366318D01*
X29436Y367764D01*
X30882Y369649D01*
X31792Y371844D01*
X32102Y374200D01*
X31792Y376556D01*
X30882Y378751D01*
X29436Y380636D01*
X27551Y382082D01*
X25356Y382992D01*
X23000Y383302D01*
D02*
G37*
G36*
Y332502D02*
X20644Y332192D01*
X18449Y331282D01*
X16564Y329836D01*
X15118Y327951D01*
X14208Y325756D01*
X13898Y323400D01*
X14208Y321044D01*
X15118Y318849D01*
X16564Y316964D01*
X18449Y315518D01*
X20644Y314608D01*
X23000Y314298D01*
X25356Y314608D01*
X27551Y315518D01*
X29436Y316964D01*
X30882Y318849D01*
X31792Y321044D01*
X32102Y323400D01*
X31792Y325756D01*
X30882Y327951D01*
X29436Y329836D01*
X27551Y331282D01*
X25356Y332192D01*
X23000Y332502D01*
D02*
G37*
G36*
X425730Y306935D02*
X424644Y306792D01*
X422449Y305882D01*
X420564Y304436D01*
X419118Y302551D01*
X418208Y300356D01*
X418065Y299270D01*
X425730D01*
Y306935D01*
D02*
G37*
G36*
Y296730D02*
X418065D01*
X418208Y295644D01*
X419118Y293449D01*
X420564Y291564D01*
X422449Y290118D01*
X424644Y289208D01*
X425730Y289065D01*
Y296730D01*
D02*
G37*
G36*
X23000Y307102D02*
X20644Y306792D01*
X18449Y305882D01*
X16564Y304436D01*
X15118Y302551D01*
X14208Y300356D01*
X13898Y298000D01*
X14208Y295644D01*
X15118Y293449D01*
X16564Y291564D01*
X18449Y290118D01*
X20644Y289208D01*
X23000Y288898D01*
X25356Y289208D01*
X27551Y290118D01*
X29436Y291564D01*
X30882Y293449D01*
X31792Y295644D01*
X32102Y298000D01*
X31792Y300356D01*
X30882Y302551D01*
X29436Y304436D01*
X27551Y305882D01*
X25356Y306792D01*
X23000Y307102D01*
D02*
G37*
G36*
X425730Y281535D02*
X424644Y281392D01*
X422449Y280482D01*
X420564Y279036D01*
X419118Y277151D01*
X418208Y274956D01*
X418065Y273870D01*
X425730D01*
Y281535D01*
D02*
G37*
G36*
Y271330D02*
X418065D01*
X418208Y270244D01*
X419118Y268049D01*
X420564Y266164D01*
X422449Y264718D01*
X424644Y263808D01*
X425730Y263665D01*
Y271330D01*
D02*
G37*
G36*
X23000Y281702D02*
X20644Y281392D01*
X18449Y280482D01*
X16564Y279036D01*
X15118Y277151D01*
X14208Y274956D01*
X13898Y272600D01*
X14208Y270244D01*
X15118Y268049D01*
X16564Y266164D01*
X18449Y264718D01*
X20644Y263808D01*
X23000Y263498D01*
X25356Y263808D01*
X27551Y264718D01*
X29436Y266164D01*
X30882Y268049D01*
X31792Y270244D01*
X32102Y272600D01*
X31792Y274956D01*
X30882Y277151D01*
X29436Y279036D01*
X27551Y280482D01*
X25356Y281392D01*
X23000Y281702D01*
D02*
G37*
G36*
Y256302D02*
X20644Y255992D01*
X18449Y255082D01*
X16564Y253636D01*
X15118Y251751D01*
X14208Y249556D01*
X13898Y247200D01*
X14208Y244844D01*
X15118Y242649D01*
X16564Y240764D01*
X18449Y239318D01*
X20644Y238408D01*
X23000Y238098D01*
X25356Y238408D01*
X27551Y239318D01*
X29436Y240764D01*
X30882Y242649D01*
X31792Y244844D01*
X32102Y247200D01*
X31792Y249556D01*
X30882Y251751D01*
X29436Y253636D01*
X27551Y255082D01*
X25356Y255992D01*
X23000Y256302D01*
D02*
G37*
G36*
X341476Y246024D02*
X340524D01*
X340206Y246024D01*
X336270D01*
Y241000D01*
Y235976D01*
X340206D01*
X340524Y235976D01*
X341476D01*
X341794Y235976D01*
X352524D01*
Y235976D01*
X353794Y236627D01*
X355000Y236387D01*
X356765Y236738D01*
X358262Y237738D01*
X359262Y239235D01*
X359613Y241000D01*
X359262Y242765D01*
X358262Y244262D01*
X356765Y245261D01*
X355000Y245613D01*
X353794Y245373D01*
X352524Y246024D01*
Y246024D01*
X341794D01*
X341476Y246024D01*
D02*
G37*
G36*
X296704Y104270D02*
X285930D01*
X275156D01*
Y100516D01*
Y96810D01*
X285930D01*
X296704D01*
Y100516D01*
Y104270D01*
D02*
G37*
G36*
Y94270D02*
X287200D01*
Y90516D01*
X296704D01*
Y94270D01*
D02*
G37*
G36*
X284660D02*
X275156D01*
Y90516D01*
X284660D01*
Y94270D01*
D02*
G37*
G36*
X350600Y72524D02*
Y69270D01*
X354854D01*
Y72524D01*
X350600D01*
D02*
G37*
G36*
X190904Y75164D02*
X187150D01*
Y65660D01*
X190904D01*
Y75164D01*
D02*
G37*
G36*
X164610D02*
X160856D01*
Y65660D01*
X164610D01*
Y75164D01*
D02*
G37*
G36*
X106584Y60562D02*
X96536D01*
Y58043D01*
X96515Y58037D01*
X96270Y57997D01*
X95946Y57968D01*
X95508Y57957D01*
X95350Y57887D01*
X95220D01*
X95062Y57957D01*
X94625Y57968D01*
X94300Y57997D01*
X94056Y58037D01*
X94034Y58043D01*
Y60562D01*
X83986D01*
Y49514D01*
X83986D01*
Y48562D01*
X83986D01*
Y45733D01*
X83668Y45670D01*
X82744Y45052D01*
X82183Y44492D01*
X82022Y44430D01*
X81836Y44254D01*
X81691Y44132D01*
X81556Y44032D01*
X81433Y43954D01*
X81322Y43895D01*
X81223Y43852D01*
X81134Y43823D01*
X81054Y43804D01*
X80980Y43794D01*
X80827Y43788D01*
X80666Y43714D01*
X79095Y43401D01*
X77598Y42402D01*
X76599Y40905D01*
X76247Y39140D01*
X76599Y37375D01*
X77422Y36142D01*
X77328Y35735D01*
X77085Y35265D01*
X76830Y34930D01*
X76828Y34929D01*
X76681Y34872D01*
X75086D01*
Y27324D01*
X85836D01*
Y26004D01*
X85369Y25364D01*
X84850Y24951D01*
X84715Y24872D01*
X82130D01*
Y21098D01*
Y17324D01*
X84715D01*
X84850Y17245D01*
X85369Y16832D01*
X85836Y16192D01*
Y14872D01*
X75086D01*
Y7324D01*
X85836D01*
Y7074D01*
X94090D01*
Y19735D01*
X93970Y19708D01*
X93835Y19665D01*
X93728Y19615D01*
X93648Y19559D01*
X93595Y19495D01*
X91526Y21124D01*
X88790Y18971D01*
X88625Y19134D01*
X88444Y19280D01*
X88248Y19408D01*
X88036Y19519D01*
X87809Y19614D01*
X87566Y19691D01*
X87421Y19725D01*
Y18558D01*
X87395Y18799D01*
X87318Y19015D01*
X87190Y19206D01*
X87010Y19371D01*
X86778Y19511D01*
X86496Y19625D01*
X86170Y19712D01*
X85994Y19676D01*
X85715Y19591D01*
X85486Y19486D01*
X85308Y19363D01*
X85181Y19220D01*
X85105Y19059D01*
X85079Y18879D01*
Y19822D01*
X84851Y19828D01*
Y22368D01*
X85079Y22374D01*
Y23317D01*
X85105Y23137D01*
X85181Y22976D01*
X85308Y22833D01*
X85486Y22710D01*
X85715Y22605D01*
X85994Y22520D01*
X86170Y22485D01*
X86496Y22571D01*
X86778Y22685D01*
X87010Y22825D01*
X87190Y22990D01*
X87318Y23181D01*
X87395Y23397D01*
X87421Y23638D01*
Y22444D01*
X87662Y22496D01*
X87909Y22568D01*
X88141Y22656D01*
X88360Y22760D01*
X88563Y22880D01*
X88752Y23017D01*
X88927Y23169D01*
X91526Y21124D01*
X93492Y22671D01*
X93547Y22613D01*
X93631Y22562D01*
X93745Y22516D01*
X93888Y22477D01*
X94060Y22444D01*
X94262Y22416D01*
X94752Y22380D01*
X95360Y22368D01*
Y21098D01*
X96630D01*
Y7074D01*
X104884D01*
Y7324D01*
X115634D01*
Y14872D01*
X104884D01*
Y17324D01*
X115634D01*
Y17349D01*
X116348Y17713D01*
X117506Y16895D01*
Y13828D01*
X122030D01*
X126554D01*
Y17764D01*
X126554Y18082D01*
Y19034D01*
X126554Y19352D01*
Y30082D01*
X125039D01*
X125028Y30123D01*
X124988Y30361D01*
X124960Y30679D01*
X124949Y31111D01*
X124879Y31269D01*
Y41970D01*
X124879Y41970D01*
X124662Y43060D01*
X124044Y43984D01*
X114314Y53715D01*
X114252Y53876D01*
X114076Y54062D01*
X113954Y54207D01*
X113854Y54342D01*
X113776Y54465D01*
X113717Y54576D01*
X113674Y54675D01*
X113645Y54764D01*
X113626Y54844D01*
X113616Y54918D01*
X113610Y55071D01*
X113536Y55233D01*
X113223Y56803D01*
X112224Y58300D01*
X110727Y59300D01*
X108962Y59651D01*
X107854Y59430D01*
X106584Y60301D01*
Y60562D01*
D02*
G37*
G36*
X164610Y63120D02*
X160856D01*
Y53616D01*
X164610D01*
Y63120D01*
D02*
G37*
G36*
X160274Y50139D02*
X149020D01*
Y44636D01*
X160274D01*
Y50139D01*
D02*
G37*
G36*
X146480D02*
X135226D01*
Y44636D01*
X146480D01*
Y50139D01*
D02*
G37*
G36*
X193524Y47270D02*
X189270D01*
Y44016D01*
X193524D01*
Y47270D01*
D02*
G37*
G36*
X79590Y24872D02*
X75086D01*
Y22368D01*
X79590D01*
Y24872D01*
D02*
G37*
G36*
X24270Y27535D02*
Y19870D01*
X31935D01*
X31792Y20956D01*
X30882Y23151D01*
X29436Y25036D01*
X27551Y26482D01*
X25356Y27392D01*
X24270Y27535D01*
D02*
G37*
G36*
X21730D02*
X20644Y27392D01*
X18449Y26482D01*
X16564Y25036D01*
X15118Y23151D01*
X14208Y20956D01*
X14065Y19870D01*
X21730D01*
Y27535D01*
D02*
G37*
G36*
X79590Y19828D02*
X75086D01*
Y17324D01*
X79590D01*
Y19828D01*
D02*
G37*
G36*
X205524Y14730D02*
X202270D01*
Y10476D01*
X205524D01*
Y14730D01*
D02*
G37*
G36*
X199730D02*
X196476D01*
Y10476D01*
X199730D01*
Y14730D01*
D02*
G37*
G36*
X31935Y17330D02*
X24270D01*
Y9665D01*
X25356Y9808D01*
X27551Y10718D01*
X29436Y12164D01*
X30882Y14049D01*
X31792Y16244D01*
X31935Y17330D01*
D02*
G37*
G36*
X21730D02*
X14065D01*
X14208Y16244D01*
X15118Y14049D01*
X16564Y12164D01*
X18449Y10718D01*
X20644Y9808D01*
X21730Y9665D01*
Y17330D01*
D02*
G37*
G36*
X160274Y12595D02*
X149020D01*
Y7092D01*
X160274D01*
Y12595D01*
D02*
G37*
G36*
X146480D02*
X135226D01*
Y7092D01*
X146480D01*
Y12595D01*
D02*
G37*
G36*
X126554Y11288D02*
X123300D01*
Y7034D01*
X126554D01*
Y11288D01*
D02*
G37*
G36*
X120760D02*
X117506D01*
Y7034D01*
X120760D01*
Y11288D01*
D02*
G37*
%LPD*%
G36*
X350965Y243299D02*
X351042Y243083D01*
X351170Y242892D01*
X351350Y242727D01*
X351582Y242588D01*
X351855Y242477D01*
X351857Y242477D01*
X352087Y242569D01*
X352302Y242677D01*
X352502Y242801D01*
X352687Y242942D01*
X352858Y243100D01*
Y242297D01*
X353021Y242283D01*
X353509Y242270D01*
Y239730D01*
X353021Y239717D01*
X352858Y239703D01*
Y238900D01*
X352687Y239058D01*
X352502Y239199D01*
X352302Y239323D01*
X352087Y239431D01*
X351857Y239522D01*
X351855Y239523D01*
X351582Y239412D01*
X351350Y239273D01*
X351170Y239108D01*
X351042Y238917D01*
X350965Y238701D01*
X350939Y238460D01*
Y239709D01*
X350787Y239722D01*
X350482Y239730D01*
Y242270D01*
X350787Y242278D01*
X350939Y242291D01*
Y243540D01*
X350965Y243299D01*
D02*
G37*
G36*
X105025Y57337D02*
X105102Y57121D01*
X105230Y56930D01*
X105410Y56765D01*
X105642Y56625D01*
X105867Y56535D01*
X106049Y56607D01*
X106264Y56715D01*
X106464Y56839D01*
X106649Y56980D01*
X106820Y57138D01*
Y56343D01*
X107081Y56321D01*
X107570Y56308D01*
Y53768D01*
X107081Y53755D01*
X106820Y53733D01*
Y52938D01*
X106649Y53096D01*
X106464Y53237D01*
X106264Y53361D01*
X106049Y53469D01*
X105867Y53541D01*
X105642Y53450D01*
X105410Y53311D01*
X105230Y53146D01*
X105102Y52955D01*
X105025Y52739D01*
X104999Y52498D01*
Y53738D01*
X104749Y53760D01*
X104444Y53768D01*
Y56308D01*
X104749Y56316D01*
X104999Y56338D01*
Y57578D01*
X105025Y57337D01*
D02*
G37*
G36*
X98121Y52498D02*
X98095Y52739D01*
X98018Y52955D01*
X97890Y53146D01*
X97710Y53311D01*
X97478Y53450D01*
X97196Y53565D01*
X96861Y53654D01*
X96476Y53717D01*
X96039Y53755D01*
X95550Y53768D01*
Y56308D01*
X96039Y56321D01*
X96476Y56359D01*
X96861Y56422D01*
X97196Y56511D01*
X97478Y56625D01*
X97710Y56765D01*
X97890Y56930D01*
X98018Y57121D01*
X98095Y57337D01*
X98121Y57578D01*
Y52498D01*
D02*
G37*
G36*
X92475Y57337D02*
X92552Y57121D01*
X92680Y56930D01*
X92860Y56765D01*
X93092Y56625D01*
X93374Y56511D01*
X93709Y56422D01*
X94094Y56359D01*
X94531Y56321D01*
X95020Y56308D01*
Y53768D01*
X94531Y53755D01*
X94094Y53717D01*
X93709Y53654D01*
X93374Y53565D01*
X93092Y53450D01*
X92860Y53311D01*
X92680Y53146D01*
X92552Y52955D01*
X92475Y52739D01*
X92449Y52498D01*
Y57578D01*
X92475Y57337D01*
D02*
G37*
G36*
X111971Y54776D02*
X112002Y54545D01*
X112055Y54316D01*
X112131Y54088D01*
X112229Y53860D01*
X112350Y53634D01*
X112493Y53409D01*
X112658Y53185D01*
X112845Y52963D01*
X113055Y52741D01*
X111259Y50945D01*
X111037Y51155D01*
X110815Y51342D01*
X110591Y51508D01*
X110366Y51650D01*
X110140Y51771D01*
X109913Y51869D01*
X109684Y51945D01*
X109455Y51998D01*
X109224Y52029D01*
X108992Y52038D01*
X111962Y55008D01*
X111971Y54776D01*
D02*
G37*
G36*
X107499Y42931D02*
X107714Y42762D01*
X107941Y42614D01*
X108178Y42485D01*
X108426Y42377D01*
X108685Y42289D01*
X108955Y42222D01*
X109236Y42174D01*
X109527Y42147D01*
X109830Y42140D01*
X106860Y39170D01*
X106853Y39473D01*
X106826Y39764D01*
X106778Y40045D01*
X106711Y40315D01*
X106623Y40574D01*
X106515Y40822D01*
X106386Y41059D01*
X106238Y41286D01*
X106069Y41501D01*
X105880Y41706D01*
X107294Y43120D01*
X107499Y42931D01*
D02*
G37*
G36*
X84953Y41437D02*
X84743Y41215D01*
X84556Y40993D01*
X84390Y40769D01*
X84248Y40544D01*
X84127Y40318D01*
X84029Y40090D01*
X83953Y39862D01*
X83900Y39633D01*
X83869Y39402D01*
X83860Y39170D01*
X80890Y42140D01*
X81122Y42149D01*
X81353Y42180D01*
X81582Y42233D01*
X81811Y42309D01*
X82038Y42407D01*
X82264Y42528D01*
X82489Y42670D01*
X82712Y42836D01*
X82935Y43023D01*
X83157Y43233D01*
X84953Y41437D01*
D02*
G37*
G36*
X111751Y36779D02*
X111564Y36553D01*
X111399Y36321D01*
X111256Y36082D01*
X111135Y35837D01*
X111036Y35585D01*
X110959Y35327D01*
X110904Y35062D01*
X110878Y34847D01*
X110900Y34597D01*
X110950Y34297D01*
X111020Y34037D01*
X111110Y33818D01*
X111220Y33637D01*
X111350Y33498D01*
X111500Y33398D01*
X111670Y33338D01*
X111860Y33317D01*
X107860D01*
X108050Y33338D01*
X108220Y33398D01*
X108370Y33498D01*
X108500Y33637D01*
X108610Y33818D01*
X108700Y34037D01*
X108770Y34297D01*
X108820Y34597D01*
X108842Y34847D01*
X108816Y35062D01*
X108761Y35327D01*
X108684Y35585D01*
X108585Y35837D01*
X108464Y36082D01*
X108321Y36321D01*
X108156Y36553D01*
X107969Y36779D01*
X107760Y36998D01*
X111960D01*
X111751Y36779D01*
D02*
G37*
G36*
X82802Y36827D02*
X82661Y36642D01*
X82537Y36442D01*
X82429Y36227D01*
X82338Y35997D01*
X82263Y35752D01*
X82205Y35492D01*
X82163Y35217D01*
X82160Y35175D01*
X82181Y34932D01*
X82244Y34546D01*
X82333Y34212D01*
X82448Y33930D01*
X82587Y33698D01*
X82752Y33518D01*
X82943Y33390D01*
X83159Y33313D01*
X83400Y33287D01*
X78320D01*
X78561Y33313D01*
X78777Y33390D01*
X78968Y33518D01*
X79133Y33698D01*
X79272Y33930D01*
X79387Y34212D01*
X79476Y34546D01*
X79539Y34932D01*
X79560Y35175D01*
X79557Y35217D01*
X79515Y35492D01*
X79457Y35752D01*
X79383Y35997D01*
X79291Y36227D01*
X79183Y36442D01*
X79059Y36642D01*
X78918Y36827D01*
X78760Y36998D01*
X82960D01*
X82802Y36827D01*
D02*
G37*
G36*
X123313Y30585D02*
X123351Y30153D01*
X123414Y29772D01*
X123503Y29442D01*
X123617Y29162D01*
X123757Y28934D01*
X123922Y28756D01*
X124113Y28629D01*
X124329Y28553D01*
X124570Y28528D01*
X119490D01*
X119731Y28553D01*
X119947Y28629D01*
X120138Y28756D01*
X120303Y28934D01*
X120442Y29162D01*
X120557Y29442D01*
X120646Y29772D01*
X120709Y30153D01*
X120747Y30585D01*
X120760Y31068D01*
X123300D01*
X123313Y30585D01*
D02*
G37*
G36*
X119091Y20906D02*
X119073Y21235D01*
X119018Y21491D01*
X118927Y21674D01*
X118799Y21783D01*
X118634Y21820D01*
X118433Y21783D01*
X118196Y21674D01*
X117922Y21491D01*
X117611Y21235D01*
X117264Y20906D01*
X116366Y23600D01*
X116884Y24136D01*
X117756Y25149D01*
X118110Y25627D01*
X118410Y26085D01*
X118655Y26525D01*
X118846Y26945D01*
X118982Y27346D01*
X119064Y27728D01*
X119091Y28091D01*
Y20906D01*
D02*
G37*
G36*
X114065Y22620D02*
X114114Y22567D01*
X114194Y22520D01*
X114307Y22480D01*
X114452Y22446D01*
X114629Y22418D01*
X114838Y22396D01*
X115354Y22371D01*
X115660Y22368D01*
Y19828D01*
X115354Y19825D01*
X114629Y19778D01*
X114452Y19750D01*
X114307Y19716D01*
X114194Y19676D01*
X114114Y19629D01*
X114065Y19576D01*
X114049Y19518D01*
Y22678D01*
X114065Y22620D01*
D02*
G37*
%LPC*%
G36*
X338580Y551892D02*
X336230Y551424D01*
X334237Y550093D01*
X332906Y548100D01*
X332438Y545750D01*
X332906Y543400D01*
X334237Y541407D01*
X336230Y540075D01*
X338580Y539608D01*
X340930Y540075D01*
X342923Y541407D01*
X344254Y543400D01*
X344722Y545750D01*
X344254Y548100D01*
X342923Y550093D01*
X340930Y551424D01*
X338580Y551892D01*
D02*
G37*
G36*
X294580D02*
X292229Y551424D01*
X290237Y550093D01*
X288906Y548100D01*
X288438Y545750D01*
X288906Y543400D01*
X290237Y541407D01*
X292229Y540075D01*
X294580Y539608D01*
X296930Y540075D01*
X298923Y541407D01*
X300254Y543400D01*
X300722Y545750D01*
X300254Y548100D01*
X298923Y550093D01*
X296930Y551424D01*
X294580Y551892D01*
D02*
G37*
G36*
X304190Y359504D02*
X300936D01*
Y355250D01*
X304190D01*
Y359504D01*
D02*
G37*
G36*
X278884Y283210D02*
X274630D01*
Y279456D01*
X278884D01*
Y283210D01*
D02*
G37*
G36*
X166304Y302944D02*
X149256D01*
Y286773D01*
X147990D01*
X147832Y286843D01*
X147395Y286854D01*
X147070Y286883D01*
X146825Y286923D01*
X146804Y286929D01*
Y288948D01*
X136074D01*
X135756Y288948D01*
X134804D01*
X134486Y288948D01*
X130550D01*
Y283924D01*
X129280D01*
Y282654D01*
X123756D01*
Y278900D01*
X124610D01*
X124865Y278726D01*
X125470Y277630D01*
X125463Y277613D01*
X125460Y277606D01*
X125473Y277575D01*
X125462Y277544D01*
X125713Y276996D01*
X125943Y276440D01*
X125975Y276427D01*
X125989Y276396D01*
X125995Y276394D01*
X126361Y276259D01*
Y275464D01*
X126578Y274374D01*
X127196Y273450D01*
X128120Y272832D01*
X129210Y272615D01*
X130300Y272832D01*
X131224Y273450D01*
X131842Y274374D01*
X132059Y275464D01*
Y276259D01*
X132424Y276394D01*
X132431Y276396D01*
X132445Y276427D01*
X132470Y276437D01*
X132476Y276440D01*
X132707Y276996D01*
X132958Y277544D01*
X132957Y277548D01*
X132947Y277575D01*
X132960Y277606D01*
X132950Y277630D01*
X133555Y278726D01*
X133810Y278900D01*
X135756Y278900D01*
X136074Y278900D01*
X146804D01*
Y280919D01*
X146825Y280925D01*
X147070Y280965D01*
X147395Y280994D01*
X147832Y281005D01*
X147990Y281075D01*
X149256D01*
Y278896D01*
X166304D01*
Y302944D01*
D02*
G37*
G36*
X128010Y288948D02*
X123756D01*
Y285194D01*
X128010D01*
Y288948D01*
D02*
G37*
G36*
X116660Y94270D02*
X107156D01*
Y90516D01*
X116660D01*
Y94270D01*
D02*
G37*
%LPD*%
G36*
X145245Y286223D02*
X145322Y286007D01*
X145450Y285816D01*
X145630Y285651D01*
X145862Y285511D01*
X146144Y285397D01*
X146479Y285308D01*
X146864Y285245D01*
X147301Y285207D01*
X147789Y285194D01*
Y282654D01*
X147301Y282641D01*
X146864Y282603D01*
X146479Y282540D01*
X146144Y282451D01*
X145862Y282337D01*
X145630Y282197D01*
X145450Y282032D01*
X145322Y281841D01*
X145245Y281625D01*
X145219Y281384D01*
Y286464D01*
X145245Y286223D01*
D02*
G37*
G36*
X131509Y280459D02*
X131293Y280382D01*
X131102Y280254D01*
X130937Y280074D01*
X130798Y279842D01*
X130683Y279560D01*
X130594Y279225D01*
X130567Y279058D01*
X130613Y278852D01*
X130688Y278607D01*
X130779Y278377D01*
X130887Y278162D01*
X131011Y277962D01*
X131152Y277777D01*
X131310Y277606D01*
X127110D01*
X127268Y277777D01*
X127409Y277962D01*
X127533Y278162D01*
X127641Y278377D01*
X127732Y278607D01*
X127807Y278852D01*
X127853Y279058D01*
X127826Y279225D01*
X127737Y279560D01*
X127622Y279842D01*
X127483Y280074D01*
X127318Y280254D01*
X127127Y280382D01*
X126911Y280459D01*
X126670Y280485D01*
X131750D01*
X131509Y280459D01*
D02*
G37*
%LPC*%
G36*
X339184Y196850D02*
X334930D01*
Y193596D01*
X339184D01*
Y196850D01*
D02*
G37*
G36*
X345790D02*
X341536D01*
Y193596D01*
X345790D01*
Y196850D01*
D02*
G37*
%LPD*%
D12*
X418000Y553900D02*
X430100D01*
X246000Y483060D02*
X274000Y455060D01*
Y321000D02*
Y455060D01*
X246000Y483060D02*
Y498000D01*
X349330Y64000D02*
Y68000D01*
Y64000D02*
X354330Y59000D01*
X337330Y64000D02*
Y68000D01*
X332330Y59000D02*
X337330Y64000D01*
X250600Y533050D02*
Y544480D01*
X260000D01*
X318000Y336000D02*
X433000D01*
X312020Y341980D02*
X318000Y336000D01*
X305460Y341980D02*
X312020D01*
X433000Y336000D02*
X439000Y330000D01*
Y259200D02*
Y330000D01*
X427000Y247200D02*
X439000Y259200D01*
X308460Y460900D02*
X313500Y465940D01*
X303500Y460900D02*
X308460D01*
X286680D02*
X303500D01*
X257290Y490290D02*
X262603Y484977D01*
X257982Y480356D02*
X262603Y484977D01*
X257982Y480356D02*
X261192Y477146D01*
X265813Y481767D01*
X269023Y478556D01*
X264402Y473936D02*
X269023Y478556D01*
X264402Y473936D02*
X267613Y470725D01*
X272233Y475346D01*
X275444Y472136D01*
X270823Y467515D02*
X275444Y472136D01*
X270823Y467515D02*
X274033Y464305D01*
X278654Y468926D01*
X281864Y465715D01*
X285075Y462505D01*
X286680Y460900D01*
X253000Y494580D02*
X257290Y490290D01*
X253000Y494580D02*
Y511000D01*
X244730Y519270D02*
X253000Y511000D01*
X235350Y519270D02*
X244730D01*
X235350Y523810D02*
X246611D01*
X257540Y512881D01*
Y496460D02*
Y512881D01*
Y496460D02*
X288560Y465440D01*
X303500D01*
X424000Y543110D02*
Y547800D01*
X423940Y543050D02*
X424000Y543110D01*
X415000Y541380D02*
X416000Y542380D01*
X412000Y544000D02*
X414810Y541190D01*
X412000Y544000D02*
Y547800D01*
X416000Y542380D02*
Y547800D01*
X424000Y555250D02*
Y560000D01*
X420000D02*
Y565000D01*
X416000D02*
X420000D01*
X412000Y565000D02*
Y574000D01*
Y560000D02*
Y565000D01*
X416000D01*
X416000Y565000D01*
Y560000D02*
Y565000D01*
X411120Y574880D02*
X412000Y574000D01*
X411000Y575000D02*
X411120Y574880D01*
X225200Y562260D02*
Y569530D01*
X204920Y578770D02*
X214010D01*
X209000Y542000D02*
X211620Y539380D01*
X204920Y542000D02*
X209000D01*
X211620Y532040D02*
Y539380D01*
X147000Y585000D02*
X158000Y574000D01*
Y532000D02*
Y574000D01*
Y532000D02*
X196080Y493920D01*
X142889Y574041D02*
X154000Y562930D01*
Y530343D02*
Y562930D01*
Y530343D02*
X194423Y489920D01*
X206577D01*
X211620Y494963D01*
Y501040D01*
X114949Y574041D02*
X125908Y585000D01*
X147000D01*
X196080Y493920D02*
X204920D01*
X206620Y495620D01*
Y501040D01*
X303500Y465440D02*
X305000Y466940D01*
X314500Y466985D02*
Y474000D01*
X313500Y465985D02*
X314500Y466985D01*
X313500Y465940D02*
Y465985D01*
X235120Y524040D02*
X235350Y523810D01*
X229620Y524040D02*
X235120D01*
Y519040D02*
X235350Y519270D01*
X229620Y519040D02*
X235120D01*
X319500Y463500D02*
Y473500D01*
X101560Y43038D02*
X105962D01*
X109860Y39140D01*
Y31098D02*
Y39140D01*
D13*
X238250Y569530D02*
X249680D01*
X259850Y12368D02*
X269986D01*
X231648Y7900D02*
X231880Y7668D01*
X221620Y7900D02*
X231648D01*
X274460Y225540D02*
X285930D01*
X272000Y228000D02*
X274460Y225540D01*
X272000Y228000D02*
Y249934D01*
X246934Y275000D02*
X272000Y249934D01*
X211000Y275000D02*
X246934D01*
X207320Y278680D02*
X211000Y275000D01*
X207320Y278680D02*
Y284480D01*
X89010Y55038D02*
X101560D01*
X108962D01*
X122030Y41970D01*
Y24558D02*
Y41970D01*
X257666Y145460D02*
X266000Y153794D01*
X249079Y140920D02*
X252999Y137000D01*
X160239Y140920D02*
X249079D01*
X249206Y150000D02*
X253000Y153794D01*
X164000Y150000D02*
X249206D01*
X162120Y145460D02*
X257666D01*
X132039Y175540D02*
X162120Y145460D01*
X155619Y145540D02*
X160239Y140920D01*
X321000Y237000D02*
X325000Y241000D01*
X273360Y284480D02*
Y292360D01*
X288000Y325000D02*
X290000D01*
X305460Y309540D01*
Y303180D02*
Y309540D01*
X305460Y353980D02*
X313480D01*
X95000Y591000D02*
X171000D01*
X78160Y574160D02*
X95000Y591000D01*
X49840Y574160D02*
X78160D01*
X46000Y578000D02*
X49840Y574160D01*
X46000Y578000D02*
Y583000D01*
X58000D02*
Y591000D01*
X289860Y290920D02*
Y305140D01*
X274000Y321000D02*
X289860Y305140D01*
X154000Y321000D02*
X274000D01*
X119930Y355070D02*
X154000Y321000D01*
X93430Y228570D02*
Y528851D01*
X42660Y505181D02*
X88890Y458951D01*
Y211580D02*
Y458951D01*
X29960Y511460D02*
X84000Y457421D01*
Y186000D02*
Y457421D01*
X17260Y517740D02*
X79460Y455540D01*
X29960Y511460D02*
Y526510D01*
X79460Y181540D02*
Y455540D01*
X23000Y348800D02*
X72000D01*
X79460Y181540D02*
X105460Y155540D01*
X84000Y186000D02*
X104460Y165540D01*
X88890Y211580D02*
X104930Y195540D01*
X93430Y228570D02*
X106460Y215540D01*
X97970Y234030D02*
Y526970D01*
Y234030D02*
X106460Y225540D01*
X110183Y355070D02*
X119930D01*
X102510Y347397D02*
X110183Y355070D01*
X102510Y239490D02*
Y347397D01*
Y239490D02*
X106460Y235540D01*
X117930D01*
X112780Y271220D02*
X132000Y252000D01*
Y208000D02*
Y252000D01*
X129540Y205540D02*
X132000Y208000D01*
X128460Y185540D02*
X164000Y150000D01*
X347000Y229000D02*
X347000Y229000D01*
X355000D01*
X347000Y241000D02*
X355000D01*
X347000Y241000D02*
X347000Y241000D01*
X325000Y241000D02*
X335000D01*
X335000Y229000D02*
X335000Y229000D01*
X321000Y229000D02*
X335000D01*
X216620Y514040D02*
X229620D01*
X80860Y21098D02*
X95360D01*
X117930Y145540D02*
X155619D01*
X117930Y175540D02*
X132039D01*
X117930Y185540D02*
X128460D01*
X249680Y557530D02*
X260000D01*
X322720Y212720D02*
X404259D01*
X305540Y195540D02*
X322720Y212720D01*
X416000Y182000D02*
X427000Y171000D01*
X416000Y182000D02*
Y200979D01*
X404259Y212720D02*
X416000Y200979D01*
X320260Y217260D02*
X406140D01*
X308540Y205540D02*
X320260Y217260D01*
X406140D02*
X427000Y196400D01*
X318000Y221800D02*
X427000D01*
X311740Y215540D02*
X318000Y221800D01*
X285930Y195540D02*
X305540D01*
X285930Y205540D02*
X308540D01*
X285930Y215540D02*
X311740D01*
X359060Y198120D02*
X367000D01*
X370460Y194660D01*
Y176740D02*
Y194660D01*
X365540Y206000D02*
X375000Y196540D01*
Y178620D02*
Y196540D01*
Y178620D02*
X408021Y145600D01*
X321660Y198120D02*
Y202660D01*
X325000Y206000D01*
X365540D01*
X408021Y145600D02*
X427000D01*
X370460Y176740D02*
X427000Y120200D01*
X386260Y135540D02*
X427000Y94800D01*
X326860Y135540D02*
X386260D01*
X296860Y165540D02*
X326860Y135540D01*
X285930Y165540D02*
X296860D01*
X301000Y68580D02*
Y131000D01*
Y68580D02*
X330120Y39460D01*
X406140D01*
X427000Y18600D01*
X310080Y72340D02*
X333881Y48540D01*
X406140D01*
X427000Y69400D01*
X332000Y44000D02*
X427000D01*
X305540Y70460D02*
X332000Y44000D01*
X305540Y70460D02*
Y137620D01*
X296460Y135540D02*
X301000Y131000D01*
X297860Y155540D02*
X310080Y143320D01*
Y72340D02*
Y143320D01*
X285930Y155540D02*
X297860D01*
X297620Y145540D02*
X305540Y137620D01*
X285930Y145540D02*
X297620D01*
X285930Y135540D02*
X296460D01*
X23000Y120200D02*
X96221D01*
X100880Y115540D02*
X117930D01*
X96221Y120200D02*
X100880Y115540D01*
X23000Y94800D02*
X43860Y115660D01*
X94340D01*
X104460Y105540D01*
X117930D01*
X12000Y55000D02*
X23000Y44000D01*
Y69400D02*
X31060Y77460D01*
X124881D01*
X19000Y82000D02*
X123000D01*
X12000Y75000D02*
X19000Y82000D01*
X12000Y55000D02*
Y75000D01*
X124881Y77460D02*
X168421Y121000D01*
X268630D01*
X274090Y115540D01*
X285930D01*
X123000Y82000D02*
X166540Y125540D01*
X285930D01*
X223820Y313820D02*
X224000Y314000D01*
X223820Y290916D02*
Y313820D01*
X89080Y139160D02*
X105460Y155540D01*
X48702Y139160D02*
X89080D01*
X45080Y142781D02*
X48702Y139160D01*
X45080Y142781D02*
Y189920D01*
X23000Y212000D02*
X45080Y189920D01*
X23000Y212000D02*
Y221800D01*
X104930Y145540D02*
X117930D01*
X23000Y186231D02*
Y196400D01*
Y186231D02*
X40540Y168691D01*
Y140901D02*
Y168691D01*
Y140901D02*
X46821Y134620D01*
X94010D01*
X104930Y145540D01*
X99540Y130080D02*
X105000Y135540D01*
X44941Y130080D02*
X99540D01*
X36000Y139021D02*
X44941Y130080D01*
X36000Y139021D02*
Y158000D01*
X23000Y171000D02*
X36000Y158000D01*
X23000Y145600D02*
X43060Y125540D01*
X105000D01*
X104930Y175540D02*
X117930D01*
X105460Y155540D02*
X117930D01*
X104460Y165540D02*
X104930D01*
X117930D01*
X104930Y185540D02*
X117930D01*
Y195540D02*
X118000D01*
X104930D02*
X117930D01*
X112780Y290920D02*
Y348800D01*
X208660Y522000D02*
X214120Y516540D01*
X206620Y524040D02*
X208660Y522000D01*
X362820Y477820D02*
Y486060D01*
X360790Y475790D02*
X362820Y477820D01*
X336210Y475790D02*
X360790D01*
X330000Y482000D02*
X336210Y475790D01*
X325500Y482000D02*
X330000D01*
X300580Y495580D02*
Y515750D01*
X294130Y489130D02*
X300580Y495580D01*
X294130Y483940D02*
Y489130D01*
X303500Y476500D02*
X308500D01*
X299940Y472940D02*
X303500Y476500D01*
X294130Y472940D02*
X299940D01*
X308580Y495420D02*
X309500Y494500D01*
X308580Y495420D02*
Y515750D01*
X309500Y484500D02*
Y494500D01*
X316580Y496000D02*
Y515750D01*
X314500Y493920D02*
X316580Y496000D01*
X314500Y484500D02*
Y493920D01*
X324580Y496580D02*
Y515750D01*
X319500Y491500D02*
X324580Y496580D01*
X319500Y484500D02*
Y491500D01*
X214120Y516540D02*
X216620Y514040D01*
X198620Y524040D02*
X206620D01*
X213200Y544800D02*
Y549560D01*
Y544800D02*
X216620Y541380D01*
Y532040D02*
Y541380D01*
X213200Y562260D02*
X213200Y562260D01*
Y549560D02*
Y562260D01*
X234160Y557530D02*
X238250D01*
X232000Y555370D02*
X234160Y557530D01*
X232000Y551000D02*
Y555370D01*
X230560Y549560D02*
X232000Y551000D01*
X225200Y549560D02*
X230560D01*
X225200Y542990D02*
Y549560D01*
X221620Y539410D02*
X225200Y542990D01*
X221620Y532040D02*
Y539410D01*
X234050Y533050D02*
X238600D01*
X230040Y529040D02*
X234050Y533050D01*
X226620Y529040D02*
X230040D01*
X238600Y533050D02*
Y544480D01*
X238250Y557530D02*
X249680D01*
X269060Y578770D02*
X272080Y575750D01*
X225010Y578770D02*
X269060D01*
X225010D02*
X225510Y579270D01*
Y591470D01*
X42660Y505181D02*
Y526510D01*
X17260Y517740D02*
Y526510D01*
X14840Y582890D02*
Y589840D01*
X17160Y592160D01*
X40840D01*
X46000Y587000D01*
Y583000D02*
Y587000D01*
X29840Y574160D02*
Y582890D01*
Y574160D02*
X32000Y572000D01*
X40000D01*
X42660Y569340D01*
Y563910D02*
Y569340D01*
Y538510D02*
Y551910D01*
X29840Y556490D02*
X29960Y556370D01*
Y538510D02*
Y556370D01*
X14840Y548160D02*
Y556490D01*
Y548160D02*
X17260Y545740D01*
Y538510D02*
Y545740D01*
X129210Y275464D02*
Y283854D01*
X118000Y245610D02*
Y254000D01*
X117930Y245540D02*
X118000Y245610D01*
X112780Y271220D02*
Y290920D01*
X117930Y205540D02*
X129540D01*
X105000Y125540D02*
X117930D01*
X105000Y135540D02*
X117930D01*
X106460Y215540D02*
X117930D01*
X93430Y528851D02*
X113220Y548641D01*
X114949D01*
X130248Y536000D02*
X142889Y548641D01*
X107000Y536000D02*
X130248D01*
X97970Y526970D02*
X107000Y536000D01*
X106460Y225540D02*
X117930D01*
X84758Y43038D02*
X89010D01*
X80860Y39140D02*
X84758Y43038D01*
X80860Y31098D02*
Y39140D01*
X119120Y24558D02*
X122030D01*
X115660Y21098D02*
X119120Y24558D01*
X109860Y21098D02*
X115660D01*
X313720Y168860D02*
X335564D01*
X307040Y175540D02*
X313720Y168860D01*
X285930Y175540D02*
X307040D01*
X345335Y178630D02*
X356710D01*
X335564Y168860D02*
X345335Y178630D01*
X359060Y189640D02*
Y198120D01*
X356710Y187290D02*
X359060Y189640D01*
X356710Y178630D02*
Y187290D01*
X321660Y190340D02*
Y198120D01*
Y190340D02*
X324710Y187290D01*
Y178630D02*
Y187290D01*
X314634Y178630D02*
X324710D01*
X307724Y185540D02*
X314634Y178630D01*
X285930Y185540D02*
X307724D01*
X305460Y291180D02*
X311264D01*
X312230Y292146D01*
Y309770D01*
X305460Y316540D02*
X312230Y309770D01*
X305460Y316540D02*
Y341980D01*
X289860Y290920D02*
X290120Y291180D01*
X305460D01*
X244860Y290920D02*
X251300Y284480D01*
X261360D01*
X178820Y290916D02*
X185256Y284480D01*
X195320D01*
X150784Y283924D02*
X157780Y290920D01*
X141280Y283924D02*
X150784D01*
D44*
X231880Y17068D02*
D03*
Y7668D02*
D03*
D45*
X259850Y12368D02*
D03*
D50*
X349330Y68000D02*
D03*
X337330D02*
D03*
X58000Y583000D02*
D03*
X46000D02*
D03*
X413000Y534000D02*
D03*
X425000D02*
D03*
X188000Y48540D02*
D03*
X176000D02*
D03*
X333660Y198120D02*
D03*
X321660D02*
D03*
X347060D02*
D03*
X359060D02*
D03*
X250600Y533050D02*
D03*
X238600D02*
D03*
X250600Y544480D02*
D03*
X238600D02*
D03*
X213510Y591470D02*
D03*
X225510D02*
D03*
D51*
X335000Y241000D02*
D03*
X347000D02*
D03*
X335000Y229000D02*
D03*
X347000D02*
D03*
X176000Y28115D02*
D03*
X188000D02*
D03*
X129280Y283924D02*
D03*
X141280D02*
D03*
X273360Y284480D02*
D03*
X261360D02*
D03*
X207320D02*
D03*
X195320D02*
D03*
X225200Y549560D02*
D03*
X213200D02*
D03*
X213200Y562260D02*
D03*
X225200D02*
D03*
D52*
X314500Y474000D02*
D03*
X319500Y473500D02*
D03*
X309500Y484500D02*
D03*
X324500D02*
D03*
X319500D02*
D03*
X314500D02*
D03*
X324500Y473500D02*
D03*
X309500Y474000D02*
D03*
D53*
X229620Y519040D02*
D03*
Y524040D02*
D03*
X198620Y514040D02*
D03*
Y519040D02*
D03*
Y509040D02*
D03*
Y524040D02*
D03*
X229620Y514040D02*
D03*
Y509040D02*
D03*
D54*
X305460Y303180D02*
D03*
Y291180D02*
D03*
X42660Y526510D02*
D03*
Y538510D02*
D03*
Y551910D02*
D03*
Y563910D02*
D03*
X29960Y526510D02*
D03*
Y538510D02*
D03*
X17260Y526510D02*
D03*
Y538510D02*
D03*
X101560Y43038D02*
D03*
Y55038D02*
D03*
X89010Y43038D02*
D03*
Y55038D02*
D03*
D55*
X29840Y582890D02*
D03*
X14840D02*
D03*
Y556490D02*
D03*
X29840D02*
D03*
D56*
X412000Y560000D02*
D03*
X416000D02*
D03*
X420000D02*
D03*
X424000D02*
D03*
X424000Y547800D02*
D03*
X420000D02*
D03*
X416000D02*
D03*
X412000D02*
D03*
D57*
X418000Y553900D02*
D03*
D58*
X411000Y587000D02*
D03*
Y575000D02*
D03*
X304800Y237000D02*
D03*
Y225000D02*
D03*
X201000Y28000D02*
D03*
Y16000D02*
D03*
X305460Y353980D02*
D03*
Y341980D02*
D03*
X122030Y12558D02*
D03*
Y24558D02*
D03*
X249680Y569530D02*
D03*
Y557530D02*
D03*
X238250Y569530D02*
D03*
Y557530D02*
D03*
D59*
X285930Y245540D02*
D03*
Y235540D02*
D03*
Y225540D02*
D03*
Y215540D02*
D03*
Y205540D02*
D03*
Y195540D02*
D03*
Y185540D02*
D03*
Y175540D02*
D03*
Y165540D02*
D03*
Y155540D02*
D03*
Y145540D02*
D03*
Y135540D02*
D03*
Y125540D02*
D03*
Y115540D02*
D03*
Y105540D02*
D03*
Y95540D02*
D03*
X117930D02*
D03*
Y105540D02*
D03*
Y115540D02*
D03*
Y125540D02*
D03*
Y135540D02*
D03*
Y145540D02*
D03*
Y155540D02*
D03*
Y165540D02*
D03*
Y175540D02*
D03*
Y185540D02*
D03*
Y195540D02*
D03*
Y205540D02*
D03*
Y215540D02*
D03*
Y225540D02*
D03*
Y235540D02*
D03*
Y245540D02*
D03*
D60*
X165880Y64390D02*
D03*
X175880D02*
D03*
X185880D02*
D03*
D61*
X163000Y28115D02*
D03*
D62*
X147750Y13865D02*
D03*
Y43366D02*
D03*
D63*
X157780Y290920D02*
D03*
X112780D02*
D03*
Y390920D02*
D03*
X157780D02*
D03*
X244860D02*
D03*
X289860D02*
D03*
Y290920D02*
D03*
X244860D02*
D03*
X178820Y390916D02*
D03*
X223820D02*
D03*
Y290916D02*
D03*
X178820D02*
D03*
D64*
X95360Y21098D02*
D03*
D65*
X80860Y31098D02*
D03*
Y21098D02*
D03*
Y11098D02*
D03*
X109860D02*
D03*
Y21098D02*
D03*
Y31098D02*
D03*
D66*
X356710Y123630D02*
D03*
Y178630D02*
D03*
X324710D02*
D03*
Y123630D02*
D03*
D67*
X308500Y482000D02*
D03*
X325500D02*
D03*
X308500Y476500D02*
D03*
X325500Y476000D02*
D03*
D68*
X294130Y483940D02*
D03*
Y472940D02*
D03*
D69*
X300580Y515750D02*
D03*
X308580D02*
D03*
X316580D02*
D03*
X324580D02*
D03*
X332580D02*
D03*
D70*
X361080D02*
D03*
X272080D02*
D03*
D71*
Y575750D02*
D03*
X361080D02*
D03*
D72*
X225010Y578770D02*
D03*
X214010D02*
D03*
D73*
X362820Y486060D02*
D03*
X344820D02*
D03*
D74*
X211620Y532040D02*
D03*
X216620D02*
D03*
X206620D02*
D03*
X221620D02*
D03*
X206620Y501040D02*
D03*
X221620D02*
D03*
X211620D02*
D03*
X216620D02*
D03*
D75*
X201620Y529040D02*
D03*
X226620Y504040D02*
D03*
D76*
Y529040D02*
D03*
X201620Y504040D02*
D03*
D77*
X214120Y516540D02*
D03*
D78*
X219178Y17442D02*
X225294D01*
X208620Y28000D02*
X219178Y17442D01*
X201000Y28000D02*
X208620D01*
X200884Y28115D02*
X201000Y28000D01*
X188000Y28115D02*
X200884D01*
X163000Y28115D02*
X163000Y28115D01*
X176000D01*
Y48540D02*
Y52000D01*
Y28115D02*
Y48540D01*
D79*
X175880Y48660D02*
X176000Y48540D01*
D80*
X425000Y510000D02*
Y534000D01*
X288000Y337000D02*
Y357000D01*
Y331000D02*
Y337000D01*
Y325000D02*
Y331000D01*
Y357000D02*
X298000Y367000D01*
X318000D01*
X336200Y348800D01*
X427000D01*
X431120Y574880D02*
X441000Y565000D01*
X411120Y574880D02*
X431120D01*
X441000Y388200D02*
Y565000D01*
X421000Y587000D02*
X427000D01*
X411000D02*
X421000D01*
X390760Y508240D02*
Y529240D01*
Y508240D02*
X427000Y472000D01*
Y399600D02*
Y472000D01*
X411000Y574880D02*
X411120D01*
X390760Y554640D02*
X411000Y574880D01*
X427000Y374200D02*
X441000Y388200D01*
X382040Y580040D02*
X390760D01*
X377000Y575000D02*
X382040Y580040D01*
X377000Y491000D02*
Y575000D01*
X372060Y486060D02*
X377000Y491000D01*
X362820Y486060D02*
X372060D01*
D81*
X315000Y237000D02*
X321000D01*
X304800D02*
X315000D01*
X303200Y235540D02*
X304800Y237140D01*
X315000Y229000D02*
X321000D01*
X311000Y225000D02*
X315000Y229000D01*
X304800Y225000D02*
X311000D01*
X383400Y323400D02*
X427000D01*
X305540Y245540D02*
X383400Y323400D01*
X285930Y245540D02*
X305540D01*
X335940Y486060D02*
X344820D01*
X332580Y489420D02*
X335940Y486060D01*
X332580Y489420D02*
Y515750D01*
X285930Y235540D02*
X303200D01*
X285930Y225540D02*
X304400D01*
D82*
X415000Y541380D02*
X423560D01*
X425000Y539940D01*
Y534000D02*
Y539940D01*
D83*
X272080Y515750D02*
Y575750D01*
X361080Y515750D02*
Y575750D01*
X272080D02*
X361080D01*
D84*
X427000Y18600D02*
D03*
Y44000D02*
D03*
Y69400D02*
D03*
Y94800D02*
D03*
Y120200D02*
D03*
Y145600D02*
D03*
Y171000D02*
D03*
Y196400D02*
D03*
Y221800D02*
D03*
Y247200D02*
D03*
Y272600D02*
D03*
Y298000D02*
D03*
Y323400D02*
D03*
Y348800D02*
D03*
Y374200D02*
D03*
X23000D02*
D03*
Y348800D02*
D03*
Y323400D02*
D03*
Y298000D02*
D03*
Y272600D02*
D03*
Y247200D02*
D03*
Y221800D02*
D03*
Y196400D02*
D03*
Y171000D02*
D03*
Y145600D02*
D03*
Y120200D02*
D03*
Y94800D02*
D03*
Y69400D02*
D03*
Y44000D02*
D03*
Y18600D02*
D03*
X390760Y554640D02*
D03*
Y529240D02*
D03*
X142889Y574041D02*
D03*
Y548641D02*
D03*
X114949Y574041D02*
D03*
Y548641D02*
D03*
D85*
X427000Y399600D02*
D03*
X23000D02*
D03*
X390760Y580040D02*
D03*
X142889Y523241D02*
D03*
X114949D02*
D03*
D86*
X72000Y267000D02*
D03*
X340524Y187648D02*
D03*
X345335Y299270D02*
D03*
X359000Y286000D02*
D03*
X386000Y313000D02*
D03*
X378000Y329843D02*
D03*
X340930D02*
D03*
Y358233D02*
D03*
X22000Y442000D02*
D03*
X37000Y426000D02*
D03*
X48750Y471670D02*
D03*
X69000Y454000D02*
D03*
X401797Y512770D02*
D03*
X408000Y506378D02*
D03*
X104256Y357902D02*
D03*
Y456880D02*
D03*
Y495000D02*
D03*
X155000Y520389D02*
D03*
X207676Y481767D02*
D03*
X240000D02*
D03*
X267836Y327951D02*
D03*
X280000Y459239D02*
D03*
Y407000D02*
D03*
Y360000D02*
D03*
X296556Y307154D02*
D03*
X200000Y115000D02*
D03*
X403000Y55000D02*
D03*
X355000Y142000D02*
D03*
X371000Y32000D02*
D03*
X284000Y77282D02*
D03*
X403079Y33488D02*
D03*
X381000Y181073D02*
D03*
X401000Y206910D02*
D03*
X373000D02*
D03*
X369000Y241648D02*
D03*
Y229000D02*
D03*
X385243Y500000D02*
D03*
X385370Y542380D02*
D03*
X432000Y488000D02*
D03*
X414000Y500000D02*
D03*
X345227Y567000D02*
D03*
X352160Y550176D02*
D03*
X343040Y526884D02*
D03*
X342662Y503000D02*
D03*
X290498D02*
D03*
X290120Y526884D02*
D03*
X281000Y550176D02*
D03*
X287933Y567000D02*
D03*
X268000Y494407D02*
D03*
X160000Y583512D02*
D03*
X192603Y534441D02*
D03*
X195320Y503000D02*
D03*
X165000Y535270D02*
D03*
X136000Y561348D02*
D03*
X95360Y544300D02*
D03*
Y582271D02*
D03*
X85000Y505000D02*
D03*
X52000D02*
D03*
Y544300D02*
D03*
X85000Y477000D02*
D03*
X157000Y313820D02*
D03*
X175000Y314000D02*
D03*
X210351D02*
D03*
X254571Y257362D02*
D03*
X264402Y248000D02*
D03*
X194423Y341980D02*
D03*
X175000D02*
D03*
X157000D02*
D03*
X194423Y327191D02*
D03*
X175000D02*
D03*
X157000D02*
D03*
X68000Y184000D02*
D03*
X44000Y237000D02*
D03*
X59000D02*
D03*
X62586Y326000D02*
D03*
X44941Y341980D02*
D03*
X62586D02*
D03*
X121750Y326000D02*
D03*
Y341980D02*
D03*
X131842Y195540D02*
D03*
X193000Y156233D02*
D03*
X180000D02*
D03*
X167000D02*
D03*
X259730Y188802D02*
D03*
X271640Y178802D02*
D03*
X253203Y167000D02*
D03*
X266000D02*
D03*
X280000Y255000D02*
D03*
X273370Y275000D02*
D03*
X255245Y276259D02*
D03*
X315079Y268049D02*
D03*
X327488Y256355D02*
D03*
X314862Y244270D02*
D03*
X310429Y163000D02*
D03*
X302541Y168860D02*
D03*
X345620Y164191D02*
D03*
X369000D02*
D03*
X404259Y131000D02*
D03*
X407000Y105075D02*
D03*
X373000Y75000D02*
D03*
Y127554D02*
D03*
X340476D02*
D03*
X329435Y78502D02*
D03*
X318000D02*
D03*
X245614Y48660D02*
D03*
X232344Y48551D02*
D03*
X260000Y48660D02*
D03*
X221634Y44374D02*
D03*
X270014Y33488D02*
D03*
X270000Y22928D02*
D03*
X221620Y7900D02*
D03*
X269986Y12368D02*
D03*
X166304Y18529D02*
D03*
X185880Y18600D02*
D03*
X221620Y33814D02*
D03*
X213273Y38000D02*
D03*
X197000D02*
D03*
X185880D02*
D03*
X166304D02*
D03*
X239000Y134000D02*
D03*
X226000D02*
D03*
X213000D02*
D03*
X200000D02*
D03*
X138000D02*
D03*
X151000D02*
D03*
X164000D02*
D03*
X177000D02*
D03*
X109781Y71318D02*
D03*
X118000Y88000D02*
D03*
X70235Y57887D02*
D03*
X49882D02*
D03*
X60000Y57957D02*
D03*
Y109000D02*
D03*
X49882D02*
D03*
X70235D02*
D03*
X95000Y106000D02*
D03*
X51000Y155432D02*
D03*
X97000Y155577D02*
D03*
X108962Y55038D02*
D03*
X266000Y153794D02*
D03*
X253000D02*
D03*
X252999Y137000D02*
D03*
X315000Y229000D02*
D03*
X321000Y237000D02*
D03*
X273360Y292360D02*
D03*
X288000Y337000D02*
D03*
Y331000D02*
D03*
Y325000D02*
D03*
X313480Y353980D02*
D03*
X430100Y553900D02*
D03*
X430000Y561000D02*
D03*
X171000Y591000D02*
D03*
X58000D02*
D03*
X246000Y498000D02*
D03*
X72000Y348800D02*
D03*
X355000Y229000D02*
D03*
Y241000D02*
D03*
X315000Y237000D02*
D03*
X321000Y229000D02*
D03*
X332330Y59000D02*
D03*
X354330D02*
D03*
X260000Y557530D02*
D03*
Y544480D02*
D03*
X224000Y314000D02*
D03*
X104930Y175540D02*
D03*
Y165540D02*
D03*
Y195540D02*
D03*
X112780Y348800D02*
D03*
X104930Y185540D02*
D03*
X100000Y30000D02*
D03*
X91000D02*
D03*
Y21000D02*
D03*
X100000D02*
D03*
Y12000D02*
D03*
X91000D02*
D03*
X425000Y516000D02*
D03*
Y522000D02*
D03*
Y510000D02*
D03*
X430000Y547000D02*
D03*
X421000Y587000D02*
D03*
X427000D02*
D03*
X225200Y569530D02*
D03*
X204920Y578770D02*
D03*
Y542000D02*
D03*
X219580Y522000D02*
D03*
Y511080D02*
D03*
X208660D02*
D03*
Y522000D02*
D03*
X305000Y466940D02*
D03*
X319500Y463500D02*
D03*
X129210Y275464D02*
D03*
X118000Y254000D02*
D03*
X105000Y125540D02*
D03*
Y135540D02*
D03*
X80860Y39140D02*
D03*
X109860D02*
D03*
M02*
