M48
;Layer_Color=9474304
;FILE_FORMAT=4:4
METRIC,LZ
;TYPE=PLATED
T1F00S00C0.3000
T2F00S00C0.5000
T3F00S00C0.9000
T4F00S00C1.5000
T5F00S00C1.7000
;TYPE=NON_PLATED
T6F00S00C0.9000
T7F00S00C1.1000
T8F00S00C2.0000
%
T01
X00008697Y00009
X00030937
X00053177
X00071
X00091Y00012
X001
Y00021
Y0003
X00091
Y00021
X0008086Y0003914
X0010986
X00108962Y00055038
X0007506Y00063036
X0003406Y000882
X0002306Y001074
X00008697Y0009796
X0002306Y001328
X00052316
X0004806Y00109756
X0011022Y0009645
X0012315Y00088364
X00137801Y0010645
X0011022Y0012645
Y0013645
X00136961Y00009808
X00008697Y0003124
X00171524Y0003891
Y00019439
X00169Y0000881
X00186617Y00009
X001911Y0001951
Y0003891
X0020222
X00218493
X0022684Y00034724
X00226854Y00045284
X00237564Y00049461
X00250835Y0004957
X0026522
X00275249Y00044958
X00275234Y00034398
X0027522Y00023838
X00275206Y00013278
X00297817Y00009
X00320057
X00342297
X00364537
X00386777
X00409017
X00431257
X00453497
X00475737
X00497977
X00520217
X00524Y0005431
Y0006431
X00521Y00077
X005309Y0004949
X00503738Y00049
X00498Y00054137
X00492738Y00049
Y00059665
X00483Y00075
X00473Y00084
Y00092
X0041006Y000792
X00382Y0006431
X0035369
X0035406Y00076469
X0030552Y00091636
X0027755Y00088
Y0011645
Y0012645
X00251Y00126
Y00116
X0025059Y0010645
X0024724Y0013673
X00305466Y00130007
X00316Y0013645
X00357Y00138
X00373375Y001382
X00395Y0013
X0041475Y00034398
X0051426Y0012706
X005268Y0012808
X00525Y0013645
X00532
X00539
X005383Y00128
X0050406Y00139312
X00178Y00131706
X00208857Y00009
X0022684Y0000881
X0056284Y00009
X0058508
X0060732
X006518
X00674Y00017978
X00685673Y00039817
X00701773Y00039777
X00711Y00027
Y00018
X00721Y0006181
X00636Y00049737
X006199Y00049777
X005474Y00049737
X005747Y0013448
X005847
X0060738Y001372
X0063706
X00634Y002072
X0063Y00214211
X00663Y002146
Y002072
X00671Y0021
X006809Y00215833
X00697Y00215793
X0066Y00226
X00663Y002414
X006556
X006556Y00301
X00663
X0067235Y003092
X0062906Y00307864
X00600204Y003352
X00585476Y003562
X005928Y003686
X0058416Y003773
X00543336Y00389924
X00561Y00425
X006085
X0074076Y0042396
Y0040172
X00727Y003903
X007271Y00365
X00714469Y003542
X00713Y00248
X005928Y00243
X00577Y00249
X0057453Y00207556
X00584
X005928
X00604998Y00189582
X0057106Y00198965
X00563Y002001
X00554584Y001992
X00563Y00158
X00593Y0028
X00686Y004824
X00682009Y00496
X006666Y00531425
X00638169Y0053035
X0074076Y0053516
Y0051292
Y0049068
Y0046844
Y004462
X0053Y00425
X00525999Y00331
X00533Y00295
X00526667Y00276704
X00517Y00277006
X00507Y00277
X00496
X00486581Y00276258
X0048906Y002592
X00481Y002455
X0048163Y00228
X00472Y00235
X00464
X00456Y00215
X0044694Y0021428
X00452861Y002582
X00517Y0026
X0052686Y002598
X00512799Y00245435
X00511Y00228
X00512447Y0021993
X00523584
X0052406Y001992
X0051206Y00198938
X00408Y00201165
X0040206Y002082
X00376Y00181
X0034706Y0019132
X003338Y001912
X00324Y0018977
X00304Y0019645
X00312Y00215
X00328Y00218
X00335Y0022645
X0033983Y00236
X00347968
X0035123Y0025423
X00358Y0026
X00375Y00259235
X00353076Y00281
X00332Y0026
X0032583Y00252
X00318
X00309999Y00261
X0029115Y00255
X0026545Y0023504
X002399Y0020824
X00247Y00193
X00246999Y00185
Y00176
Y00163
X0024724Y00154436
X00238Y00163
X00229
X00177142Y00159
X0015514Y00226
X001559Y0026204
X00145Y00261
X00168363Y00307
X00191322Y002932
X0021106
X0027336Y0029279
X00297718Y00306
X00292792Y00315
X00305594
X0030546Y0036229
X00298889Y00428727
X0028992Y004372
X00271Y00447
X002639Y004581
X002406
X002173
Y004814
X002406
X002639
Y005047
X002406
X002173
X00194
X00182Y00499551
Y00517227
X0018Y0053141
X00194Y00528
X002173
X002406
X002639
X00336Y00534
X00350076Y0043604
X00256Y00432
X002371
X002182
X001993
X001804
X001615
X0016145Y00408
X0018035
X0019925
X0023705
X0025595
X00194Y004581
Y004814
X00321Y00144
X0013858Y0019304
X0010968Y0019645
X00107666Y0024645
X00096486Y00265058
X0013608Y0026592
X0012928Y00275614
X0013608Y0023645
X0007095Y00213
X0002306Y00209
Y001836
Y001582
X0006406Y001432
X0008185Y00153
X0005845Y00279991
X0006695Y00294711
X0004195Y00390078
X00047Y00408
X00037Y00411516
X00025Y00415
X00008697Y0042396
Y004462
Y0046844
Y0049068
Y0051292
X0003
X00026Y00525
X00018Y00533
X00034
X00063Y00516
X000819
X00088Y004635
X00072
X0008Y004555
Y004395
X00072Y004315
X00088
Y004475
X00072
X001045Y00431
X001237Y00432
X001426
X0014255Y00408
X0012365
X0010095Y0040359
X00093Y00582524
X00075
X00026
Y00573
Y00557
Y00541
X0001
X00018Y00549
X00034
Y00565
X00018
X0001Y00557
Y00573
Y00582524
X00008697Y0060188
Y0062412
Y0064636
Y006686
Y0069084
Y0071308
Y0073532
Y0075756
Y007798
Y0080204
Y0084652
Y00891
X00029081
X0005132
X0007356
X000958
X0011804
X0014028
X0012132Y00855
X001102
Y00835097
X0009908
X0008796
X0007684
X0006572
Y00855
X0007684
X0008796
X0012132Y00835097
X0013244
X00118Y00758549
Y0074055
Y0072095
X0011795Y0069695
X0009395Y00697
X00094Y00721
X00065Y00727683
Y0077173
X00044416Y00693
X001305Y00582
X00143Y00582024
X001746Y0059705
X001856
X001936Y0063005
Y0064205
X001856Y0067505
X001746
X001681Y006863
X001681Y00698
X001746Y007107
X001856
X001936Y007437
Y007557
X001856Y007887
X001746
X0017692Y00835097
X001658
X0015468
X0014356
Y00855
X0015468
X001658
X0017692
X0018804
X0019916
X0021028
X002214
X0023252
X0024364
X0025476
X0026588
X0027588Y00864653
X00287Y0086973
X0029812
X0030924
X0032036
X0033148
X003426
X0035369Y00866356
X0036423Y00856
X0036925Y008456
X00379
X003958Y008458
X0041804
X0044028
X0046252
X00479Y00848
X00498991
X0050588Y0085897
X00517Y0086997
X0051888Y00891
X0053
X00507Y00888
X0049612Y00891
X0049588Y00877
X0048476Y00866
X0047388Y00891
X0045164
X004294
X0040716
X0038492
X0036268
X0034044
X003182
X0029596
X0027372
X0025148
X0022924
X00207
X0018476
X0016252
X0018804Y00835097
X0019916
X0021028
X002214
X0023252
X0024364
X0025476
X0026476Y00835
X0027588Y00837024
X00287Y00848
X0029812Y0085019
X0030924
X0032036
X0033148
X003426Y0084934
X0033906Y008162
X0034906
X0035906
X0036906
X0037906
X00408301Y00772801
X00446101
X0047906Y008162
X0048906
X0049906
X00523Y0079234
Y0068234
X0052334Y0064384
Y0063272
Y006216
X0053446
X004791Y0060447
X004691
X004591
X004491
X004391
X00403Y00605465
X003891Y00605597
X00379941Y0060554
X00367941
X003391Y0060447
X00328678Y005923
X002925Y00582024
X00279Y00595279
X00258Y005731
X00258Y005651
X00266Y005651
X00274Y005571
X00274Y005491
X00274Y005411
X0025Y005731
X00242Y005731
X00234Y00585
X00226452Y00582024
X002173Y00582
X00234Y00597
X00234Y00609
Y00621
X00234Y00633
X00234Y00645
Y00657
X002173Y006647
X002587Y00671738
X00234Y00701
Y00713
X00225Y00777776
Y007887
Y008
Y00811624
X00267
Y008
Y007887
Y00777776
X00315Y007823
Y007923
Y007723
Y00755476
X00313Y0069673
Y00667476
X00327Y00653895
X0034854Y0065954
X0036054
X0036295Y00646225
X0034559Y00635345
X003426Y0066705
X004591Y006309
X004991Y0058013
X0054558Y006216
X005567
X00567586Y00629
X00578706Y0064
X00589826Y00651
X00600946Y00662
X00612066Y00673
X00623186Y00684
X00634306Y00695
X00645426Y00706
X00656546
X00667666
Y00726
X00656546
X00645426
X00634524Y00724
X00623404Y00713
X00612284Y00702
X00601164Y00691
X00590044Y0068
X00578924Y00669
X00567804Y00658
X00556684Y00647
X0055127Y006823
X00555Y00758
Y00794
X00582Y00812371
X00584926Y00849449
X00598197Y0084934
X00612582
X00622611Y00853952
X00622596Y00864512
X00622582Y00875072
X00622568Y00885632
X006518Y00891
X0067404
X0069628
X0071852
X0074076
Y0086876
Y0084652
X00736Y00825
X00727656Y00815891
X00713271
X007Y00816
X00686Y00815891
Y00801506
X00685891Y00788235
Y00773849
X00685782Y00760579
Y00746193
X00685673Y00732923
X00689906Y00726
X00678786
X00701026
X00712146
X0074112Y00726024
X0074076Y0071308
X0073412Y00715776
X00723266Y00706
X00701026
X00689906
X0074076Y00693
X00740524Y00663
X0074076Y0064636
Y0062412
X0074075Y00604
Y005731
X0074076Y005574
X00701831Y00548
X006508
X006215Y005772
X00621Y005887
X0060895Y006037
X00616Y0062
X006165Y006402
X00579Y0061
X00574216Y00853626
X00574202Y00864186
Y008901
X00563082
X00551962
X00540842
X0054106Y0087
X0055218
X006462Y00808
X0074076Y007798
T02
X0062Y003283
Y003903
T03
X00023Y000186
Y00044
Y000694
Y000948
Y001202
X00431997Y000731
Y000477
Y000223
X00460299Y00022301
Y00047701
Y00073101
X00658Y00073099
Y00047699
Y00022299
X007271Y000223
Y000477
Y000731
Y000985
Y001239
Y001493
Y001747
Y002001
Y002255
Y002509
Y002763
Y003017
Y003271
Y003525
Y003779
Y004033
X005199Y00494999
X004945
X004691
Y005204
X004945
X005199
X00443699Y00520399
Y00495
X00418299
Y00520399
X00392899
Y00495
X00367501Y00495001
X00342101
X00316701
Y00520401
X00342101
X00367501
X00023Y003996
Y003742
Y003488
Y003234
Y00298
Y002726
Y002472
Y002218
Y001964
Y00171
Y001456
T04
X000192Y008202
X000446Y008456
X0007Y008202
Y00871
T05
X000192Y00871
T06
X005612Y0005258
X006052
X00697Y006116
Y006556
T07
X000463Y0061865
Y0065365
X000463Y0073205
Y0076705
T08
X00051Y00506
X00095
M30
