G04*
G04 #@! TF.GenerationSoftware,Altium Limited,Altium Designer,18.1.9 (240)*
G04*
G04 Layer_Physical_Order=2*
G04 Layer_Color=16711680*
%FSLAX44Y44*%
%MOMM*%
G71*
G01*
G75*
%ADD12C,0.2000*%
%ADD13C,0.2540*%
%ADD80C,0.7000*%
%ADD83C,0.6000*%
%ADD84C,1.5000*%
%ADD85R,1.5000X1.5000*%
%ADD86C,0.6000*%
%ADD87R,1.0000X1.5500*%
%ADD88R,0.8000X1.4000*%
%ADD89R,0.7000X1.7500*%
%ADD90R,0.8000X1.5000*%
%ADD91R,1.3000X1.0000*%
%ADD92R,1.5000X1.5000*%
%ADD93R,1.3000X1.5000*%
G36*
X173313Y592942D02*
X173498Y592801D01*
X173698Y592677D01*
X173913Y592569D01*
X174143Y592477D01*
X174388Y592403D01*
X174648Y592345D01*
X174923Y592303D01*
X175213Y592278D01*
X175518Y592270D01*
Y589730D01*
X175213Y589722D01*
X174923Y589697D01*
X174648Y589655D01*
X174388Y589597D01*
X174143Y589523D01*
X173913Y589431D01*
X173698Y589323D01*
X173498Y589199D01*
X173313Y589058D01*
X173142Y588900D01*
Y593100D01*
X173313Y592942D01*
D02*
G37*
G36*
X383321Y577500D02*
X383295Y577741D01*
X383218Y577957D01*
X383090Y578148D01*
X382910Y578313D01*
X382678Y578452D01*
X382396Y578567D01*
X382061Y578656D01*
X381676Y578719D01*
X381239Y578757D01*
X380751Y578770D01*
Y581310D01*
X381239Y581323D01*
X381676Y581361D01*
X382061Y581424D01*
X382396Y581513D01*
X382678Y581628D01*
X382910Y581767D01*
X383090Y581932D01*
X383218Y582123D01*
X383295Y582339D01*
X383321Y582580D01*
Y577500D01*
D02*
G37*
G36*
X264093Y559827D02*
X263883Y559605D01*
X263696Y559383D01*
X263530Y559159D01*
X263388Y558934D01*
X263267Y558708D01*
X263169Y558480D01*
X263093Y558252D01*
X263040Y558022D01*
X263009Y557792D01*
X263000Y557560D01*
X260030Y560530D01*
X260262Y560539D01*
X260492Y560570D01*
X260722Y560623D01*
X260951Y560699D01*
X261178Y560797D01*
X261404Y560918D01*
X261629Y561060D01*
X261852Y561226D01*
X262075Y561413D01*
X262297Y561623D01*
X264093Y559827D01*
D02*
G37*
G36*
X419543Y529270D02*
X422559Y526664D01*
X423165Y526245D01*
X423713Y525919D01*
X424202Y525686D01*
X424631Y525547D01*
X425002Y525500D01*
X424538Y525036D01*
X424738Y525009D01*
X424970Y525000D01*
X422000Y522030D01*
X421991Y522262D01*
X421964Y522462D01*
X421500Y521998D01*
X421453Y522369D01*
X421314Y522799D01*
X421081Y523287D01*
X420755Y523835D01*
X420336Y524441D01*
X419219Y525831D01*
X417730Y527457D01*
X416846Y528358D01*
X418642Y530154D01*
X419543Y529270D01*
D02*
G37*
G36*
X444902Y5098D02*
X265934D01*
X265934Y37632D01*
X266832Y38530D01*
X273560D01*
Y46284D01*
X265806D01*
Y45770D01*
X264908Y44872D01*
X225294Y44882D01*
X225294Y5996D01*
X224396Y5098D01*
X5098D01*
Y594902D01*
X166639D01*
X167318Y593632D01*
X166738Y592765D01*
X166387Y591000D01*
X166738Y589235D01*
X167738Y587738D01*
X169235Y586739D01*
X171000Y586387D01*
X172765Y586739D01*
X174097Y587628D01*
X174264Y587690D01*
X174375Y587794D01*
X174435Y587839D01*
X174505Y587883D01*
X174588Y587924D01*
X174689Y587964D01*
X174809Y588001D01*
X174951Y588033D01*
X175117Y588058D01*
X175306Y588074D01*
X175563Y588081D01*
X175720Y588151D01*
X381736D01*
Y583045D01*
X381715Y583039D01*
X381470Y582999D01*
X381146Y582970D01*
X380708Y582959D01*
X380550Y582889D01*
X282510D01*
X282510Y582889D01*
X281420Y582672D01*
X280496Y582054D01*
X280496Y582054D01*
X261323Y562882D01*
X261162Y562820D01*
X260976Y562644D01*
X260831Y562522D01*
X260696Y562422D01*
X260573Y562344D01*
X260462Y562285D01*
X260363Y562242D01*
X260274Y562213D01*
X260194Y562194D01*
X260120Y562184D01*
X259967Y562178D01*
X259806Y562104D01*
X258235Y561791D01*
X256738Y560792D01*
X255739Y559295D01*
X255387Y557530D01*
X255739Y555765D01*
X256738Y554268D01*
X258235Y553269D01*
X260000Y552917D01*
X261765Y553269D01*
X263262Y554268D01*
X264261Y555765D01*
X264574Y557335D01*
X264648Y557497D01*
X264654Y557650D01*
X264664Y557724D01*
X264683Y557804D01*
X264712Y557893D01*
X264755Y557992D01*
X264814Y558103D01*
X264892Y558226D01*
X264992Y558361D01*
X265114Y558506D01*
X265290Y558692D01*
X265352Y558853D01*
X283690Y577191D01*
X380550D01*
X380708Y577121D01*
X381146Y577110D01*
X381470Y577081D01*
X381715Y577041D01*
X381736Y577035D01*
Y571016D01*
X399784D01*
Y585528D01*
X400957Y586014D01*
X403151Y583820D01*
Y541000D01*
X403151Y541000D01*
X403368Y539910D01*
X403986Y538986D01*
X415601Y527370D01*
X415668Y527203D01*
X416533Y526322D01*
X417967Y524756D01*
X419013Y523455D01*
X419366Y522943D01*
X419624Y522509D01*
X419778Y522186D01*
X419836Y522007D01*
X419863Y521792D01*
X419878Y521767D01*
Y510000D01*
Y494122D01*
X408378Y482622D01*
X407267Y480960D01*
X406878Y479000D01*
Y363800D01*
X407267Y361840D01*
X408378Y360178D01*
X415437Y353119D01*
X415461Y353057D01*
X415978Y352516D01*
X416410Y352018D01*
X416781Y351541D01*
X417092Y351085D01*
X417344Y350653D01*
X417541Y350248D01*
X417684Y349871D01*
X417780Y349520D01*
X417833Y349196D01*
X417853Y348795D01*
X417917Y348660D01*
X418208Y346444D01*
X419118Y344249D01*
X420564Y342364D01*
X422449Y340918D01*
X424644Y340008D01*
X427000Y339698D01*
X429356Y340008D01*
X431551Y340918D01*
X433436Y342364D01*
X434882Y344249D01*
X435792Y346444D01*
X436102Y348800D01*
X435792Y351156D01*
X434882Y353351D01*
X433436Y355236D01*
X431551Y356682D01*
X429356Y357592D01*
X427140Y357883D01*
X427005Y357947D01*
X426604Y357967D01*
X426280Y358020D01*
X425929Y358116D01*
X425552Y358259D01*
X425146Y358456D01*
X424715Y358708D01*
X424278Y359006D01*
X423268Y359837D01*
X422743Y360339D01*
X422681Y360363D01*
X417122Y365922D01*
Y371147D01*
X418392Y371400D01*
X419118Y369649D01*
X420564Y367764D01*
X422449Y366318D01*
X424644Y365408D01*
X427000Y365098D01*
X429356Y365408D01*
X431551Y366318D01*
X433436Y367764D01*
X434882Y369649D01*
X435792Y371844D01*
X436102Y374200D01*
X435792Y376556D01*
X434882Y378751D01*
X433436Y380636D01*
X431551Y382082D01*
X429356Y382992D01*
X427000Y383302D01*
X424644Y382992D01*
X422449Y382082D01*
X420564Y380636D01*
X419118Y378751D01*
X418392Y377000D01*
X417122Y377253D01*
Y389660D01*
X417976Y390576D01*
X418392Y390576D01*
X436024D01*
Y408624D01*
X418392D01*
X417976Y408624D01*
X417122Y409540D01*
Y476878D01*
X428622Y488378D01*
X429733Y490040D01*
X430122Y492000D01*
Y510000D01*
Y522000D01*
X429733Y523960D01*
X428622Y525622D01*
X426960Y526732D01*
X425358Y527051D01*
X425208Y527137D01*
X424993Y527164D01*
X424814Y527222D01*
X424491Y527376D01*
X424057Y527634D01*
X423569Y527971D01*
X420661Y530484D01*
X419797Y531331D01*
X419630Y531399D01*
X408849Y542180D01*
Y585000D01*
X408849Y585000D01*
X408632Y586090D01*
X408014Y587014D01*
X402014Y593014D01*
X401090Y593632D01*
X401089Y593632D01*
X401214Y594902D01*
X444902D01*
X444902Y5098D01*
D02*
G37*
G36*
X422173Y358602D02*
X423288Y357685D01*
X423833Y357313D01*
X424369Y356999D01*
X424897Y356744D01*
X425417Y356546D01*
X425928Y356406D01*
X426431Y356324D01*
X426925Y356300D01*
X419500Y348875D01*
X419476Y349369D01*
X419394Y349872D01*
X419254Y350383D01*
X419057Y350903D01*
X418801Y351431D01*
X418487Y351967D01*
X418115Y352512D01*
X417686Y353065D01*
X417198Y353627D01*
X416653Y354198D01*
X421603Y359147D01*
X422173Y358602D01*
D02*
G37*
%LPC*%
G36*
X142889Y583143D02*
X140533Y582832D01*
X138338Y581923D01*
X136453Y580477D01*
X135007Y578592D01*
X134097Y576396D01*
X133787Y574041D01*
X134097Y571685D01*
X135007Y569490D01*
X136453Y567605D01*
X138338Y566158D01*
X140533Y565249D01*
X142889Y564939D01*
X145245Y565249D01*
X147440Y566158D01*
X149325Y567605D01*
X150772Y569490D01*
X151681Y571685D01*
X151991Y574041D01*
X151681Y576396D01*
X150772Y578592D01*
X149325Y580477D01*
X147440Y581923D01*
X145245Y582832D01*
X142889Y583143D01*
D02*
G37*
G36*
X114949D02*
X112593Y582832D01*
X110398Y581923D01*
X108513Y580477D01*
X107067Y578592D01*
X106157Y576396D01*
X105847Y574041D01*
X106157Y571685D01*
X107067Y569490D01*
X108513Y567605D01*
X110398Y566158D01*
X112593Y565249D01*
X114949Y564939D01*
X117305Y565249D01*
X119500Y566158D01*
X121385Y567605D01*
X122832Y569490D01*
X123741Y571685D01*
X124051Y574041D01*
X123741Y576396D01*
X122832Y578592D01*
X121385Y580477D01*
X119500Y581923D01*
X117305Y582832D01*
X114949Y583143D01*
D02*
G37*
G36*
X390760Y563742D02*
X388404Y563432D01*
X386209Y562522D01*
X384324Y561076D01*
X382878Y559191D01*
X381968Y556996D01*
X381658Y554640D01*
X381968Y552284D01*
X382878Y550089D01*
X384324Y548204D01*
X386209Y546758D01*
X388404Y545848D01*
X390760Y545538D01*
X393116Y545848D01*
X395311Y546758D01*
X397196Y548204D01*
X398642Y550089D01*
X399552Y552284D01*
X399862Y554640D01*
X399552Y556996D01*
X398642Y559191D01*
X397196Y561076D01*
X395311Y562522D01*
X393116Y563432D01*
X390760Y563742D01*
D02*
G37*
G36*
X338580Y551892D02*
X336230Y551424D01*
X334237Y550093D01*
X332906Y548100D01*
X332438Y545750D01*
X332906Y543400D01*
X334237Y541407D01*
X336230Y540075D01*
X338580Y539608D01*
X340930Y540075D01*
X342923Y541407D01*
X344254Y543400D01*
X344722Y545750D01*
X344254Y548100D01*
X342923Y550093D01*
X340930Y551424D01*
X338580Y551892D01*
D02*
G37*
G36*
X294580D02*
X292229Y551424D01*
X290237Y550093D01*
X288906Y548100D01*
X288438Y545750D01*
X288906Y543400D01*
X290237Y541407D01*
X292229Y540075D01*
X294580Y539608D01*
X296930Y540075D01*
X298923Y541407D01*
X300254Y543400D01*
X300722Y545750D01*
X300254Y548100D01*
X298923Y550093D01*
X296930Y551424D01*
X294580Y551892D01*
D02*
G37*
G36*
X142889Y557743D02*
X140533Y557433D01*
X138338Y556523D01*
X136453Y555077D01*
X135007Y553192D01*
X134097Y550997D01*
X133787Y548641D01*
X134097Y546285D01*
X135007Y544090D01*
X136453Y542205D01*
X138338Y540758D01*
X140533Y539849D01*
X142889Y539539D01*
X145245Y539849D01*
X147440Y540758D01*
X149325Y542205D01*
X150772Y544090D01*
X151681Y546285D01*
X151991Y548641D01*
X151681Y550997D01*
X150772Y553192D01*
X149325Y555077D01*
X147440Y556523D01*
X145245Y557433D01*
X142889Y557743D01*
D02*
G37*
G36*
X114949D02*
X112593Y557433D01*
X110398Y556523D01*
X108513Y555077D01*
X107067Y553192D01*
X106157Y550997D01*
X105847Y548641D01*
X106157Y546285D01*
X107067Y544090D01*
X108513Y542205D01*
X110398Y540758D01*
X112593Y539849D01*
X114949Y539539D01*
X117305Y539849D01*
X119500Y540758D01*
X121385Y542205D01*
X122832Y544090D01*
X123741Y546285D01*
X124051Y548641D01*
X123741Y550997D01*
X122832Y553192D01*
X121385Y555077D01*
X119500Y556523D01*
X117305Y557433D01*
X114949Y557743D01*
D02*
G37*
G36*
X390760Y538342D02*
X388404Y538032D01*
X386209Y537122D01*
X384324Y535676D01*
X382878Y533791D01*
X381968Y531596D01*
X381658Y529240D01*
X381968Y526884D01*
X382878Y524689D01*
X384324Y522804D01*
X386209Y521358D01*
X388404Y520448D01*
X390760Y520138D01*
X393116Y520448D01*
X395311Y521358D01*
X397196Y522804D01*
X398642Y524689D01*
X399552Y526884D01*
X399862Y529240D01*
X399552Y531596D01*
X398642Y533791D01*
X397196Y535676D01*
X395311Y537122D01*
X393116Y538032D01*
X390760Y538342D01*
D02*
G37*
G36*
X151913Y532265D02*
X133865D01*
Y519743D01*
X133790Y519621D01*
X133822Y519489D01*
X133770Y519363D01*
X133865Y519134D01*
Y518621D01*
X133808Y518521D01*
X133607Y518232D01*
X132902Y517399D01*
X132437Y516917D01*
X132372Y516752D01*
X130939Y515320D01*
X123973D01*
Y532265D01*
X105925D01*
Y519743D01*
X105850Y519621D01*
X105882Y519489D01*
X105830Y519363D01*
X105925Y519134D01*
Y518621D01*
X105868Y518521D01*
X105667Y518232D01*
X104962Y517399D01*
X104497Y516917D01*
X104432Y516752D01*
X10216Y422536D01*
X9598Y421612D01*
X9381Y420522D01*
X9381Y420522D01*
Y384970D01*
X9381Y384970D01*
X9598Y383880D01*
X10216Y382956D01*
X12398Y380773D01*
X12444Y380633D01*
X12725Y380308D01*
X12926Y379998D01*
X13124Y379600D01*
X13308Y379111D01*
X13473Y378528D01*
X13613Y377855D01*
X13720Y377111D01*
X13843Y375290D01*
X13851Y374263D01*
X13908Y374129D01*
X14208Y371844D01*
X15118Y369649D01*
X16564Y367764D01*
X18449Y366318D01*
X20644Y365408D01*
X23000Y365098D01*
X25356Y365408D01*
X27551Y366318D01*
X29436Y367764D01*
X30882Y369649D01*
X31792Y371844D01*
X32102Y374200D01*
X31792Y376556D01*
X30882Y378751D01*
X29436Y380636D01*
X27551Y382082D01*
X25356Y382992D01*
X23071Y383293D01*
X22937Y383349D01*
X21910Y383357D01*
X20089Y383480D01*
X19345Y383587D01*
X18672Y383727D01*
X18089Y383892D01*
X17600Y384076D01*
X17202Y384273D01*
X16892Y384475D01*
X16567Y384756D01*
X16427Y384802D01*
X15079Y386150D01*
Y390576D01*
X32024D01*
Y408624D01*
X26005D01*
X25999Y408645D01*
X25959Y408890D01*
X25930Y409215D01*
X25919Y409652D01*
X25849Y409810D01*
Y423691D01*
X111780Y509622D01*
X132119D01*
X132119Y509622D01*
X133209Y509839D01*
X134134Y510456D01*
X136385Y512708D01*
X136542Y512766D01*
X137503Y513659D01*
X137862Y513946D01*
X138170Y514160D01*
X138269Y514217D01*
X138782D01*
X139012Y514122D01*
X139137Y514174D01*
X139269Y514142D01*
X139391Y514217D01*
X151913D01*
Y532265D01*
D02*
G37*
G36*
X204920Y546613D02*
X203155Y546261D01*
X201658Y545262D01*
X200658Y543765D01*
X200307Y542000D01*
X200658Y540235D01*
X201658Y538738D01*
X203155Y537738D01*
X204920Y537387D01*
X206685Y537738D01*
X208042Y538645D01*
X208201Y538707D01*
X208379Y538876D01*
X208513Y538987D01*
X208642Y539079D01*
X208768Y539154D01*
X208891Y539215D01*
X209013Y539263D01*
X209137Y539300D01*
X209266Y539327D01*
X209403Y539343D01*
X209614Y539352D01*
X209776Y539427D01*
X219934D01*
X243426Y515934D01*
Y502856D01*
X243352Y502694D01*
X243343Y502482D01*
X243327Y502346D01*
X243300Y502217D01*
X243263Y502093D01*
X243215Y501971D01*
X243154Y501848D01*
X243079Y501722D01*
X242987Y501592D01*
X242876Y501459D01*
X242707Y501281D01*
X242645Y501122D01*
X241738Y499765D01*
X241387Y498000D01*
X241738Y496235D01*
X242738Y494738D01*
X244235Y493739D01*
X246000Y493387D01*
X247765Y493739D01*
X249262Y494738D01*
X250261Y496235D01*
X250613Y498000D01*
X250261Y499765D01*
X249355Y501122D01*
X249293Y501281D01*
X249124Y501459D01*
X249013Y501593D01*
X248921Y501722D01*
X248846Y501848D01*
X248785Y501971D01*
X248737Y502093D01*
X248700Y502217D01*
X248673Y502346D01*
X248657Y502482D01*
X248648Y502694D01*
X248573Y502856D01*
Y517000D01*
X248378Y517985D01*
X247820Y518820D01*
X222820Y543820D01*
X221985Y544378D01*
X221000Y544574D01*
X209776D01*
X209614Y544648D01*
X209403Y544657D01*
X209266Y544673D01*
X209137Y544700D01*
X209013Y544737D01*
X208891Y544785D01*
X208768Y544846D01*
X208642Y544921D01*
X208513Y545013D01*
X208379Y545124D01*
X208201Y545293D01*
X208042Y545355D01*
X206685Y546261D01*
X204920Y546613D01*
D02*
G37*
G36*
X305000Y471553D02*
X303235Y471201D01*
X301738Y470201D01*
X300739Y468705D01*
X300387Y466940D01*
X300739Y465175D01*
X301738Y463678D01*
X303235Y462678D01*
X304835Y462360D01*
X304992Y462291D01*
X305236Y462285D01*
X305410Y462269D01*
X305567Y462243D01*
X305709Y462207D01*
X305839Y462163D01*
X305959Y462110D01*
X306073Y462049D01*
X306183Y461977D01*
X306291Y461892D01*
X306446Y461749D01*
X306614Y461687D01*
X306620Y461680D01*
X307455Y461122D01*
X308440Y460927D01*
X314644D01*
X314806Y460852D01*
X315018Y460843D01*
X315154Y460827D01*
X315283Y460800D01*
X315407Y460763D01*
X315529Y460715D01*
X315652Y460654D01*
X315778Y460579D01*
X315907Y460487D01*
X316041Y460376D01*
X316219Y460207D01*
X316378Y460145D01*
X317735Y459239D01*
X319500Y458887D01*
X321265Y459239D01*
X322762Y460238D01*
X323761Y461735D01*
X324113Y463500D01*
X323761Y465265D01*
X322762Y466762D01*
X321265Y467761D01*
X319500Y468113D01*
X317735Y467761D01*
X316378Y466855D01*
X316219Y466793D01*
X316041Y466624D01*
X315907Y466513D01*
X315778Y466421D01*
X315652Y466346D01*
X315529Y466285D01*
X315407Y466237D01*
X315283Y466200D01*
X315154Y466173D01*
X315018Y466157D01*
X314806Y466148D01*
X314644Y466073D01*
X309789D01*
X309777Y466101D01*
X309733Y466231D01*
X309697Y466373D01*
X309671Y466530D01*
X309655Y466703D01*
X309649Y466948D01*
X309580Y467105D01*
X309261Y468705D01*
X308262Y470201D01*
X306765Y471201D01*
X305000Y471553D01*
D02*
G37*
G36*
X112780Y353413D02*
X111015Y353061D01*
X109683Y352172D01*
X109516Y352110D01*
X109404Y352006D01*
X109345Y351961D01*
X109275Y351917D01*
X109192Y351875D01*
X109091Y351836D01*
X108971Y351799D01*
X108829Y351767D01*
X108663Y351742D01*
X108474Y351726D01*
X108217Y351719D01*
X108060Y351649D01*
X76720D01*
X76563Y351719D01*
X76306Y351726D01*
X76117Y351742D01*
X75951Y351767D01*
X75809Y351799D01*
X75689Y351836D01*
X75588Y351876D01*
X75505Y351917D01*
X75435Y351961D01*
X75376Y352006D01*
X75264Y352110D01*
X75097Y352172D01*
X73765Y353061D01*
X72000Y353413D01*
X70235Y353061D01*
X68738Y352062D01*
X67738Y350565D01*
X67387Y348800D01*
X67738Y347035D01*
X68738Y345538D01*
X70235Y344538D01*
X72000Y344187D01*
X73765Y344538D01*
X75097Y345428D01*
X75264Y345490D01*
X75376Y345594D01*
X75435Y345639D01*
X75505Y345683D01*
X75588Y345724D01*
X75689Y345764D01*
X75809Y345801D01*
X75951Y345833D01*
X76117Y345858D01*
X76306Y345874D01*
X76563Y345881D01*
X76720Y345951D01*
X108060D01*
X108217Y345881D01*
X108474Y345874D01*
X108663Y345858D01*
X108829Y345833D01*
X108971Y345801D01*
X109091Y345764D01*
X109192Y345724D01*
X109275Y345683D01*
X109345Y345639D01*
X109404Y345594D01*
X109516Y345490D01*
X109683Y345428D01*
X111015Y344538D01*
X112780Y344187D01*
X114545Y344538D01*
X116042Y345538D01*
X117042Y347035D01*
X117393Y348800D01*
X117042Y350565D01*
X116042Y352062D01*
X114545Y353061D01*
X112780Y353413D01*
D02*
G37*
G36*
X23000Y357902D02*
X20644Y357592D01*
X18449Y356682D01*
X16564Y355236D01*
X15118Y353351D01*
X14208Y351156D01*
X13898Y348800D01*
X14208Y346444D01*
X15118Y344249D01*
X16564Y342364D01*
X18449Y340918D01*
X20644Y340008D01*
X23000Y339698D01*
X25356Y340008D01*
X27551Y340918D01*
X29436Y342364D01*
X30882Y344249D01*
X31792Y346444D01*
X32102Y348800D01*
X31792Y351156D01*
X30882Y353351D01*
X29436Y355236D01*
X27551Y356682D01*
X25356Y357592D01*
X23000Y357902D01*
D02*
G37*
G36*
X427000Y332502D02*
X424644Y332192D01*
X422449Y331282D01*
X420564Y329836D01*
X419118Y327951D01*
X418208Y325756D01*
X417898Y323400D01*
X418208Y321044D01*
X419118Y318849D01*
X420564Y316964D01*
X422449Y315518D01*
X424644Y314608D01*
X427000Y314298D01*
X429356Y314608D01*
X431551Y315518D01*
X433436Y316964D01*
X434882Y318849D01*
X435792Y321044D01*
X436102Y323400D01*
X435792Y325756D01*
X434882Y327951D01*
X433436Y329836D01*
X431551Y331282D01*
X429356Y332192D01*
X427000Y332502D01*
D02*
G37*
G36*
X27461Y337019D02*
X27461Y337019D01*
X18539D01*
X17449Y336802D01*
X16525Y336184D01*
X16524Y336184D01*
X9986Y329645D01*
X9368Y328721D01*
X9151Y327631D01*
X9151Y327631D01*
Y105800D01*
X9151Y105800D01*
X9368Y104710D01*
X9986Y103786D01*
X12398Y101373D01*
X12444Y101233D01*
X12725Y100908D01*
X12926Y100598D01*
X13124Y100200D01*
X13308Y99711D01*
X13473Y99128D01*
X13613Y98455D01*
X13720Y97711D01*
X13843Y95890D01*
X13851Y94863D01*
X13908Y94729D01*
X14208Y92444D01*
X15118Y90249D01*
X16564Y88364D01*
X18449Y86918D01*
X20644Y86008D01*
X23000Y85698D01*
X25356Y86008D01*
X27551Y86918D01*
X29436Y88364D01*
X30882Y90249D01*
X31792Y92444D01*
X32102Y94800D01*
X31792Y97156D01*
X30882Y99351D01*
X29436Y101236D01*
X27551Y102682D01*
X25356Y103592D01*
X23071Y103892D01*
X22937Y103949D01*
X21910Y103957D01*
X20089Y104080D01*
X19345Y104187D01*
X18672Y104327D01*
X18089Y104492D01*
X17600Y104676D01*
X17202Y104873D01*
X16892Y105075D01*
X16567Y105356D01*
X16427Y105402D01*
X14849Y106980D01*
Y113913D01*
X16119Y114344D01*
X16564Y113764D01*
X18449Y112318D01*
X20644Y111408D01*
X23000Y111098D01*
X25356Y111408D01*
X27551Y112318D01*
X29436Y113764D01*
X30882Y115649D01*
X31792Y117844D01*
X32102Y120200D01*
X31792Y122556D01*
X30882Y124751D01*
X29436Y126636D01*
X27551Y128082D01*
X25356Y128992D01*
X23000Y129302D01*
X20644Y128992D01*
X18449Y128082D01*
X16564Y126636D01*
X16119Y126056D01*
X14849Y126487D01*
Y139313D01*
X16119Y139744D01*
X16564Y139164D01*
X18449Y137718D01*
X20644Y136808D01*
X23000Y136498D01*
X25356Y136808D01*
X27551Y137718D01*
X29436Y139164D01*
X30882Y141049D01*
X31792Y143244D01*
X32102Y145600D01*
X31792Y147956D01*
X30882Y150151D01*
X29436Y152036D01*
X27551Y153482D01*
X25356Y154392D01*
X23000Y154702D01*
X20644Y154392D01*
X18449Y153482D01*
X16564Y152036D01*
X16119Y151456D01*
X14849Y151887D01*
Y164713D01*
X16119Y165144D01*
X16564Y164564D01*
X18449Y163118D01*
X20644Y162208D01*
X23000Y161898D01*
X25356Y162208D01*
X27551Y163118D01*
X29436Y164564D01*
X30882Y166449D01*
X31792Y168644D01*
X32102Y171000D01*
X31792Y173356D01*
X30882Y175551D01*
X29436Y177436D01*
X27551Y178882D01*
X25356Y179792D01*
X23000Y180102D01*
X20644Y179792D01*
X18449Y178882D01*
X16564Y177436D01*
X16119Y176856D01*
X14849Y177287D01*
Y190113D01*
X16119Y190544D01*
X16564Y189964D01*
X18449Y188518D01*
X20644Y187608D01*
X23000Y187298D01*
X25356Y187608D01*
X27551Y188518D01*
X29436Y189964D01*
X30882Y191849D01*
X31792Y194044D01*
X32102Y196400D01*
X31792Y198756D01*
X30882Y200951D01*
X29436Y202836D01*
X27551Y204282D01*
X25356Y205192D01*
X23000Y205502D01*
X20644Y205192D01*
X18449Y204282D01*
X16564Y202836D01*
X16119Y202256D01*
X14849Y202687D01*
Y215513D01*
X16119Y215944D01*
X16564Y215364D01*
X18449Y213918D01*
X20644Y213008D01*
X23000Y212698D01*
X25356Y213008D01*
X27551Y213918D01*
X29436Y215364D01*
X30882Y217249D01*
X31792Y219444D01*
X32102Y221800D01*
X31792Y224156D01*
X30882Y226351D01*
X29436Y228236D01*
X27551Y229682D01*
X25356Y230592D01*
X23000Y230902D01*
X20644Y230592D01*
X18449Y229682D01*
X16564Y228236D01*
X16119Y227656D01*
X14849Y228087D01*
Y240913D01*
X16119Y241344D01*
X16564Y240764D01*
X18449Y239318D01*
X20644Y238408D01*
X23000Y238098D01*
X25356Y238408D01*
X27551Y239318D01*
X29379Y240720D01*
X29514Y240775D01*
X30246Y241496D01*
X31621Y242696D01*
X32222Y243146D01*
X32797Y243524D01*
X33325Y243819D01*
X33802Y244035D01*
X34223Y244177D01*
X34585Y244253D01*
X35013Y244285D01*
X35145Y244351D01*
X59779D01*
X65071Y239059D01*
Y196080D01*
X65071Y196080D01*
X65288Y194990D01*
X65906Y194066D01*
X96446Y163526D01*
X96446Y163526D01*
X97370Y162908D01*
X98460Y162691D01*
X98460Y162691D01*
X100210D01*
X100367Y162621D01*
X100624Y162614D01*
X100813Y162598D01*
X100979Y162573D01*
X101121Y162541D01*
X101241Y162504D01*
X101342Y162464D01*
X101425Y162423D01*
X101495Y162379D01*
X101554Y162334D01*
X101666Y162230D01*
X101833Y162168D01*
X103165Y161278D01*
X104930Y160927D01*
X106695Y161278D01*
X108192Y162278D01*
X109192Y163775D01*
X109543Y165540D01*
X109192Y167305D01*
X108192Y168802D01*
X106695Y169802D01*
X106237Y169893D01*
Y171187D01*
X106695Y171278D01*
X108192Y172278D01*
X109192Y173775D01*
X109543Y175540D01*
X109192Y177305D01*
X108192Y178802D01*
X106695Y179802D01*
X106237Y179893D01*
Y181187D01*
X106695Y181278D01*
X108192Y182278D01*
X109192Y183775D01*
X109543Y185540D01*
X109192Y187305D01*
X108192Y188802D01*
X106695Y189802D01*
X106237Y189893D01*
Y191187D01*
X106695Y191278D01*
X108192Y192278D01*
X109192Y193775D01*
X109543Y195540D01*
X109192Y197305D01*
X108192Y198802D01*
X106695Y199802D01*
X104930Y200153D01*
X103165Y199802D01*
X101833Y198912D01*
X101666Y198850D01*
X101554Y198746D01*
X101495Y198701D01*
X101425Y198657D01*
X101342Y198615D01*
X101241Y198576D01*
X101121Y198539D01*
X100979Y198507D01*
X100813Y198482D01*
X100624Y198466D01*
X100367Y198459D01*
X100210Y198389D01*
X91060D01*
X84389Y205061D01*
Y245880D01*
X84389Y245881D01*
X84172Y246971D01*
X83554Y247895D01*
X36849Y294601D01*
Y312400D01*
X36849Y312400D01*
X36632Y313490D01*
X36014Y314414D01*
X36014Y314414D01*
X33602Y316827D01*
X33556Y316967D01*
X33275Y317292D01*
X33073Y317602D01*
X32876Y318000D01*
X32692Y318489D01*
X32527Y319072D01*
X32387Y319745D01*
X32280Y320489D01*
X32157Y322310D01*
X32149Y323337D01*
X32092Y323471D01*
X31792Y325756D01*
X30882Y327951D01*
X29436Y329836D01*
X29289Y329949D01*
X29697Y331151D01*
X202820D01*
X218648Y315323D01*
X218710Y315162D01*
X218886Y314976D01*
X219008Y314831D01*
X219108Y314696D01*
X219186Y314573D01*
X219245Y314462D01*
X219288Y314363D01*
X219317Y314274D01*
X219336Y314194D01*
X219346Y314120D01*
X219352Y313967D01*
X219426Y313806D01*
X219739Y312235D01*
X220738Y310738D01*
X222235Y309739D01*
X224000Y309387D01*
X225765Y309739D01*
X227262Y310738D01*
X228262Y312235D01*
X228613Y314000D01*
X228262Y315765D01*
X227262Y317262D01*
X225765Y318262D01*
X224195Y318574D01*
X224033Y318648D01*
X223880Y318654D01*
X223806Y318664D01*
X223726Y318683D01*
X223637Y318712D01*
X223538Y318755D01*
X223427Y318814D01*
X223304Y318892D01*
X223169Y318992D01*
X223024Y319114D01*
X222838Y319290D01*
X222677Y319352D01*
X206014Y336014D01*
X205090Y336632D01*
X204000Y336849D01*
X204000Y336849D01*
X28316D01*
X27461Y337019D01*
D02*
G37*
G36*
X428270Y306935D02*
Y299270D01*
X435935D01*
X435792Y300356D01*
X434882Y302551D01*
X433436Y304436D01*
X431551Y305882D01*
X429356Y306792D01*
X428270Y306935D01*
D02*
G37*
G36*
X425730Y306935D02*
X424644Y306792D01*
X422449Y305882D01*
X420564Y304436D01*
X419118Y302551D01*
X418208Y300356D01*
X418065Y299270D01*
X425730D01*
Y306935D01*
D02*
G37*
G36*
Y296730D02*
X418065D01*
X418208Y295644D01*
X419118Y293449D01*
X420564Y291564D01*
X422449Y290118D01*
X424644Y289208D01*
X425730Y289065D01*
Y296730D01*
D02*
G37*
G36*
X435935D02*
X428270D01*
Y289065D01*
X429356Y289208D01*
X431551Y290118D01*
X433436Y291564D01*
X434882Y293449D01*
X435792Y295644D01*
X435935Y296730D01*
D02*
G37*
G36*
X428270Y281535D02*
Y273870D01*
X435935D01*
X435792Y274956D01*
X434882Y277151D01*
X433436Y279036D01*
X431551Y280482D01*
X429356Y281392D01*
X428270Y281535D01*
D02*
G37*
G36*
X425730Y281535D02*
X424644Y281392D01*
X422449Y280482D01*
X420564Y279036D01*
X419118Y277151D01*
X418208Y274956D01*
X418065Y273870D01*
X425730D01*
Y281535D01*
D02*
G37*
G36*
Y271330D02*
X418065D01*
X418208Y270244D01*
X419118Y268049D01*
X420564Y266164D01*
X422449Y264718D01*
X424644Y263808D01*
X425730Y263665D01*
Y271330D01*
D02*
G37*
G36*
X435935D02*
X428270D01*
Y263665D01*
X429356Y263808D01*
X431551Y264718D01*
X433436Y266164D01*
X434882Y268049D01*
X435792Y270244D01*
X435935Y271330D01*
D02*
G37*
G36*
X427000Y256302D02*
X424644Y255992D01*
X422449Y255082D01*
X420564Y253636D01*
X419118Y251751D01*
X418208Y249556D01*
X417898Y247200D01*
X418208Y244844D01*
X419118Y242649D01*
X420564Y240764D01*
X422449Y239318D01*
X424644Y238408D01*
X427000Y238098D01*
X429356Y238408D01*
X431551Y239318D01*
X433436Y240764D01*
X434882Y242649D01*
X435792Y244844D01*
X436102Y247200D01*
X435792Y249556D01*
X434882Y251751D01*
X433436Y253636D01*
X431551Y255082D01*
X429356Y255992D01*
X427000Y256302D01*
D02*
G37*
G36*
X288000Y341613D02*
X286235Y341261D01*
X284738Y340262D01*
X283738Y338765D01*
X283387Y337000D01*
Y325000D01*
Y252686D01*
X283738Y250921D01*
X284738Y249425D01*
X306194Y227969D01*
X304182Y225636D01*
X303448Y224891D01*
X303380Y224723D01*
X257716Y179058D01*
X257098Y178134D01*
X256881Y177044D01*
X256881Y177044D01*
Y164191D01*
X256842Y164133D01*
X256852Y164083D01*
X256444Y163330D01*
X255641Y162904D01*
X255597Y162913D01*
X255597Y162913D01*
X213988D01*
X213988Y162913D01*
X212898Y162696D01*
X211974Y162078D01*
X211974Y162078D01*
X110285Y60390D01*
X110124Y60328D01*
X109938Y60152D01*
X109793Y60030D01*
X109658Y59930D01*
X109535Y59852D01*
X109424Y59793D01*
X109325Y59750D01*
X109236Y59721D01*
X109156Y59702D01*
X109082Y59692D01*
X108929Y59686D01*
X108767Y59612D01*
X107197Y59300D01*
X105700Y58300D01*
X104700Y56803D01*
X104349Y55038D01*
X104700Y53273D01*
X105700Y51776D01*
X107197Y50777D01*
X108962Y50425D01*
X110727Y50777D01*
X112224Y51776D01*
X113223Y53273D01*
X113536Y54843D01*
X113610Y55005D01*
X113616Y55158D01*
X113626Y55232D01*
X113645Y55312D01*
X113674Y55401D01*
X113717Y55500D01*
X113776Y55611D01*
X113854Y55734D01*
X113954Y55869D01*
X114076Y56014D01*
X114253Y56200D01*
X114314Y56361D01*
X215168Y157215D01*
X248318D01*
X248997Y155945D01*
X248738Y155559D01*
X248387Y153794D01*
X248738Y152029D01*
X249628Y150697D01*
X249690Y150530D01*
X249794Y150418D01*
X249839Y150359D01*
X249883Y150289D01*
X249925Y150206D01*
X249964Y150105D01*
X250001Y149985D01*
X250033Y149843D01*
X250058Y149677D01*
X250074Y149488D01*
X250081Y149231D01*
X250151Y149074D01*
Y147000D01*
X250151Y147000D01*
X250368Y145910D01*
X250986Y144986D01*
X253203Y142768D01*
X252635Y141540D01*
X251234Y141261D01*
X249738Y140261D01*
X248738Y138765D01*
X248387Y137000D01*
X248738Y135235D01*
X249628Y133903D01*
X249690Y133736D01*
X249793Y133624D01*
X249839Y133564D01*
X249882Y133495D01*
X249924Y133411D01*
X249964Y133311D01*
X250000Y133191D01*
X250032Y133048D01*
X250057Y132883D01*
X250074Y132694D01*
X250081Y132437D01*
X250151Y132280D01*
Y118580D01*
X250151Y118580D01*
X250368Y117490D01*
X250985Y116566D01*
X288151Y79399D01*
Y36000D01*
X288151Y36000D01*
X288368Y34910D01*
X288986Y33986D01*
X292986Y29986D01*
X292986Y29986D01*
X293910Y29368D01*
X295000Y29151D01*
X361000D01*
X361000Y29151D01*
X362090Y29368D01*
X363014Y29986D01*
X367344Y34316D01*
X367344Y34316D01*
X367962Y35240D01*
X368119Y36030D01*
X370036D01*
X370354Y36030D01*
X371306D01*
X371624Y36030D01*
X381354D01*
Y38530D01*
X387060D01*
Y47554D01*
Y56578D01*
X371624D01*
X371306Y56578D01*
X370354D01*
X370036Y56578D01*
X360624D01*
X360306Y56578D01*
X359260D01*
X358079Y56896D01*
X357831Y57457D01*
X357596Y58024D01*
X357577Y58032D01*
X357569Y58051D01*
X357562Y58054D01*
X356997Y58272D01*
X356903Y58311D01*
Y59000D01*
X356708Y59985D01*
X356150Y60820D01*
X355315Y61378D01*
X354330Y61574D01*
X353745Y61457D01*
X353633Y61643D01*
X353360Y62638D01*
X354284Y63256D01*
X417014Y125986D01*
X417632Y126910D01*
X417849Y128000D01*
X417849Y128000D01*
Y140794D01*
X419118Y141049D01*
X420564Y139164D01*
X422449Y137718D01*
X424644Y136808D01*
X427000Y136498D01*
X429356Y136808D01*
X431551Y137718D01*
X433436Y139164D01*
X434882Y141049D01*
X435792Y143244D01*
X436102Y145600D01*
X435792Y147956D01*
X434882Y150151D01*
X433436Y152036D01*
X431551Y153482D01*
X429356Y154392D01*
X427000Y154702D01*
X424644Y154392D01*
X422449Y153482D01*
X420564Y152036D01*
X419118Y150151D01*
X417849Y150406D01*
Y166194D01*
X419118Y166449D01*
X420564Y164564D01*
X422449Y163118D01*
X424644Y162208D01*
X427000Y161898D01*
X429356Y162208D01*
X431551Y163118D01*
X433436Y164564D01*
X434882Y166449D01*
X435792Y168644D01*
X436102Y171000D01*
X435792Y173356D01*
X434882Y175551D01*
X433436Y177436D01*
X431551Y178882D01*
X429356Y179792D01*
X427000Y180102D01*
X424644Y179792D01*
X422449Y178882D01*
X420564Y177436D01*
X419118Y175551D01*
X417849Y175806D01*
Y191594D01*
X419118Y191849D01*
X420564Y189964D01*
X422449Y188518D01*
X424644Y187608D01*
X427000Y187298D01*
X429356Y187608D01*
X431551Y188518D01*
X433436Y189964D01*
X434882Y191849D01*
X435792Y194044D01*
X436102Y196400D01*
X435792Y198756D01*
X434882Y200951D01*
X433436Y202836D01*
X431551Y204282D01*
X429356Y205192D01*
X427000Y205502D01*
X424644Y205192D01*
X422449Y204282D01*
X420564Y202836D01*
X419118Y200951D01*
X417849Y201206D01*
Y208620D01*
X420427Y211198D01*
X420567Y211244D01*
X420892Y211525D01*
X421202Y211726D01*
X421600Y211924D01*
X422089Y212108D01*
X422672Y212273D01*
X423345Y212412D01*
X424089Y212519D01*
X425910Y212643D01*
X426937Y212651D01*
X427071Y212708D01*
X429356Y213008D01*
X431551Y213918D01*
X433436Y215364D01*
X434882Y217249D01*
X435792Y219444D01*
X436102Y221800D01*
X435792Y224156D01*
X434882Y226351D01*
X433436Y228236D01*
X431551Y229682D01*
X429356Y230592D01*
X427000Y230902D01*
X424644Y230592D01*
X422449Y229682D01*
X420564Y228236D01*
X419118Y226351D01*
X418208Y224156D01*
X417907Y221871D01*
X417851Y221737D01*
X417843Y220710D01*
X417720Y218889D01*
X417612Y218145D01*
X417473Y217472D01*
X417308Y216889D01*
X417124Y216400D01*
X416927Y216002D01*
X416725Y215692D01*
X416444Y215367D01*
X416398Y215227D01*
X412986Y211814D01*
X412368Y210890D01*
X412151Y209800D01*
X412151Y209800D01*
Y129180D01*
X397874Y114903D01*
X396604Y115429D01*
Y122284D01*
X392350D01*
Y114530D01*
X395705D01*
X396231Y113260D01*
X381503Y98532D01*
X380330Y99018D01*
Y115694D01*
X295330D01*
Y96644D01*
X377956D01*
X378442Y95471D01*
X350930Y67959D01*
X350643Y67902D01*
X349719Y67284D01*
X349719Y67284D01*
X341316Y58882D01*
X340698Y57957D01*
X340556Y57241D01*
X340411Y56924D01*
X340399Y56578D01*
X338624D01*
X338306Y56578D01*
X337354D01*
X336713Y57848D01*
X336943Y59000D01*
X336591Y60765D01*
X335592Y62262D01*
X334095Y63261D01*
X332330Y63613D01*
X330565Y63261D01*
X329233Y62372D01*
X329066Y62310D01*
X328954Y62206D01*
X328895Y62161D01*
X328825Y62117D01*
X328742Y62076D01*
X328641Y62036D01*
X328521Y61999D01*
X328379Y61967D01*
X328213Y61942D01*
X328024Y61926D01*
X327767Y61919D01*
X327610Y61849D01*
X326688D01*
X298267Y90270D01*
X298052Y91349D01*
X297435Y92273D01*
X297435Y92273D01*
X269742Y119967D01*
X270228Y121140D01*
X270370D01*
Y129664D01*
Y138188D01*
X267219D01*
Y146460D01*
X267219Y146460D01*
X267002Y147550D01*
X266903Y147698D01*
X267323Y149008D01*
X267738Y149159D01*
X268926Y148387D01*
Y144520D01*
X281974D01*
Y150789D01*
X281995Y150795D01*
X282240Y150835D01*
X282565Y150864D01*
X283002Y150875D01*
X283160Y150945D01*
X317794D01*
X317794Y150945D01*
X318884Y151162D01*
X319808Y151780D01*
X324560Y156531D01*
X325830Y156005D01*
Y138554D01*
X350830D01*
Y157604D01*
X327429D01*
X326903Y158874D01*
X357014Y188986D01*
X357014Y188986D01*
X357151Y189191D01*
X358421Y188805D01*
Y155730D01*
X358421Y155730D01*
X358638Y154640D01*
X359256Y153716D01*
X376432Y136540D01*
X376432Y136540D01*
X377356Y135922D01*
X378446Y135705D01*
X378446Y135705D01*
X379270D01*
X379428Y135635D01*
X379865Y135624D01*
X380190Y135595D01*
X380434Y135555D01*
X380456Y135549D01*
Y132030D01*
X385556D01*
Y124824D01*
X391080D01*
X396604D01*
Y132578D01*
X396504D01*
Y145078D01*
X380456D01*
Y142361D01*
X379186Y141843D01*
X364119Y156910D01*
Y234730D01*
X364119Y234730D01*
X363902Y235820D01*
X363284Y236744D01*
X363284Y236744D01*
X360352Y239677D01*
X360290Y239838D01*
X360114Y240024D01*
X359992Y240169D01*
X359892Y240304D01*
X359814Y240427D01*
X359755Y240538D01*
X359712Y240637D01*
X359683Y240726D01*
X359664Y240806D01*
X359654Y240880D01*
X359648Y241033D01*
X359574Y241194D01*
X359262Y242765D01*
X358262Y244262D01*
X356765Y245261D01*
X355000Y245613D01*
X353235Y245261D01*
X351738Y244262D01*
X350738Y242765D01*
X350387Y241000D01*
X350738Y239235D01*
X351738Y237738D01*
X353235Y236738D01*
X354805Y236426D01*
X354967Y236352D01*
X355120Y236346D01*
X355194Y236336D01*
X355274Y236317D01*
X355363Y236288D01*
X355462Y236245D01*
X355573Y236186D01*
X355696Y236108D01*
X355831Y236008D01*
X355976Y235886D01*
X356162Y235710D01*
X356323Y235648D01*
X357725Y234246D01*
X357692Y234170D01*
X356765Y233262D01*
X355000Y233613D01*
X353235Y233262D01*
X351738Y232262D01*
X350738Y230765D01*
X350387Y229000D01*
X350738Y227235D01*
X351628Y225903D01*
X351690Y225736D01*
X351794Y225624D01*
X351839Y225565D01*
X351883Y225495D01*
X351925Y225412D01*
X351964Y225311D01*
X352001Y225191D01*
X352033Y225049D01*
X352058Y224883D01*
X352074Y224694D01*
X352081Y224437D01*
X352151Y224280D01*
Y192180D01*
X316614Y156643D01*
X283160D01*
X283002Y156713D01*
X282565Y156724D01*
X282240Y156753D01*
X281995Y156793D01*
X281974Y156799D01*
Y163068D01*
X268926D01*
Y158627D01*
X267970Y158116D01*
X267656Y158077D01*
X266000Y158407D01*
X264235Y158055D01*
X263849Y157798D01*
X262741Y158389D01*
X262602Y159653D01*
X262618Y159677D01*
X262579Y159873D01*
Y160127D01*
X262617Y160324D01*
X262579Y160381D01*
Y175864D01*
X307409Y220694D01*
X307577Y220762D01*
X308344Y221518D01*
X309691Y222771D01*
X310786Y223685D01*
X311202Y223990D01*
X311541Y224209D01*
X311768Y224329D01*
X311834Y224354D01*
X311935Y224369D01*
X311965Y224387D01*
X321000D01*
X322765Y224739D01*
X324262Y225738D01*
X325261Y227235D01*
X325613Y229000D01*
X325261Y230765D01*
X324262Y232262D01*
X322765Y233262D01*
X321000Y233613D01*
X313597D01*
X292613Y254597D01*
Y325000D01*
Y337000D01*
X292262Y338765D01*
X291262Y340262D01*
X289765Y341261D01*
X288000Y341613D01*
D02*
G37*
G36*
X277164Y138188D02*
X272910D01*
Y130934D01*
X277164D01*
Y138188D01*
D02*
G37*
G36*
Y128394D02*
X272910D01*
Y121140D01*
X277164D01*
Y128394D01*
D02*
G37*
G36*
X389810Y122284D02*
X385556D01*
Y114530D01*
X389810D01*
Y122284D01*
D02*
G37*
G36*
X427000Y129302D02*
X424644Y128992D01*
X422449Y128082D01*
X420564Y126636D01*
X419118Y124751D01*
X418208Y122556D01*
X417898Y120200D01*
X418208Y117844D01*
X419118Y115649D01*
X420564Y113764D01*
X422449Y112318D01*
X424644Y111408D01*
X427000Y111098D01*
X429356Y111408D01*
X431551Y112318D01*
X433436Y113764D01*
X434882Y115649D01*
X435792Y117844D01*
X436102Y120200D01*
X435792Y122556D01*
X434882Y124751D01*
X433436Y126636D01*
X431551Y128082D01*
X429356Y128992D01*
X427000Y129302D01*
D02*
G37*
G36*
Y103902D02*
X424644Y103592D01*
X422449Y102682D01*
X420564Y101236D01*
X419118Y99351D01*
X418208Y97156D01*
X417898Y94800D01*
X418208Y92444D01*
X419118Y90249D01*
X420564Y88364D01*
X422449Y86918D01*
X424644Y86008D01*
X427000Y85698D01*
X429356Y86008D01*
X431551Y86918D01*
X433436Y88364D01*
X434882Y90249D01*
X435792Y92444D01*
X436102Y94800D01*
X435792Y97156D01*
X434882Y99351D01*
X433436Y101236D01*
X431551Y102682D01*
X429356Y103592D01*
X427000Y103902D01*
D02*
G37*
G36*
Y78502D02*
X424644Y78192D01*
X422449Y77282D01*
X420564Y75836D01*
X419118Y73951D01*
X418208Y71756D01*
X417898Y69400D01*
X418208Y67044D01*
X419118Y64849D01*
X420564Y62964D01*
X422449Y61518D01*
X424644Y60608D01*
X427000Y60298D01*
X429356Y60608D01*
X431551Y61518D01*
X433436Y62964D01*
X434882Y64849D01*
X435792Y67044D01*
X436102Y69400D01*
X435792Y71756D01*
X434882Y73951D01*
X433436Y75836D01*
X431551Y77282D01*
X429356Y78192D01*
X427000Y78502D01*
D02*
G37*
G36*
X23000D02*
X20644Y78192D01*
X18449Y77282D01*
X16564Y75836D01*
X15118Y73951D01*
X14208Y71756D01*
X13898Y69400D01*
X14208Y67044D01*
X15118Y64849D01*
X16564Y62964D01*
X18449Y61518D01*
X20644Y60608D01*
X23000Y60298D01*
X25356Y60608D01*
X27551Y61518D01*
X29436Y62964D01*
X30882Y64849D01*
X31792Y67044D01*
X32102Y69400D01*
X31792Y71756D01*
X30882Y73951D01*
X29436Y75836D01*
X27551Y77282D01*
X25356Y78192D01*
X23000Y78502D01*
D02*
G37*
G36*
X389600Y56578D02*
Y48824D01*
X396354D01*
Y56578D01*
X389600D01*
D02*
G37*
G36*
X283854D02*
X276100D01*
Y48824D01*
X283854D01*
Y56578D01*
D02*
G37*
G36*
X273560D02*
X265806D01*
Y48824D01*
X273560D01*
Y56578D01*
D02*
G37*
G36*
X396354Y46284D02*
X389600D01*
Y38530D01*
X396354D01*
Y46284D01*
D02*
G37*
G36*
X283854D02*
X276100D01*
Y38530D01*
X283854D01*
Y46284D01*
D02*
G37*
G36*
X427000Y53102D02*
X424644Y52792D01*
X422449Y51882D01*
X420564Y50436D01*
X419118Y48551D01*
X418208Y46356D01*
X417898Y44000D01*
X418208Y41644D01*
X419118Y39449D01*
X420564Y37564D01*
X422449Y36118D01*
X424644Y35208D01*
X427000Y34898D01*
X429356Y35208D01*
X431551Y36118D01*
X433436Y37564D01*
X434882Y39449D01*
X435792Y41644D01*
X436102Y44000D01*
X435792Y46356D01*
X434882Y48551D01*
X433436Y50436D01*
X431551Y51882D01*
X429356Y52792D01*
X427000Y53102D01*
D02*
G37*
G36*
X23000D02*
X20644Y52792D01*
X18449Y51882D01*
X16564Y50436D01*
X15118Y48551D01*
X14208Y46356D01*
X13898Y44000D01*
X14208Y41644D01*
X15118Y39449D01*
X16564Y37564D01*
X18449Y36118D01*
X20644Y35208D01*
X23000Y34898D01*
X25356Y35208D01*
X27551Y36118D01*
X29436Y37564D01*
X30882Y39449D01*
X31792Y41644D01*
X32102Y44000D01*
X31792Y46356D01*
X30882Y48551D01*
X29436Y50436D01*
X27551Y51882D01*
X25356Y52792D01*
X23000Y53102D01*
D02*
G37*
G36*
X105000Y140153D02*
X103235Y139802D01*
X101738Y138802D01*
X100738Y137305D01*
X100426Y135735D01*
X100352Y135573D01*
X100346Y135420D01*
X100336Y135346D01*
X100317Y135266D01*
X100288Y135177D01*
X100245Y135078D01*
X100186Y134967D01*
X100108Y134844D01*
X100008Y134709D01*
X99886Y134564D01*
X99710Y134378D01*
X99648Y134217D01*
X78846Y113414D01*
X78228Y112490D01*
X78011Y111400D01*
X78011Y111400D01*
Y43860D01*
X77941Y43703D01*
X77934Y43446D01*
X77918Y43257D01*
X77893Y43091D01*
X77861Y42949D01*
X77824Y42829D01*
X77784Y42728D01*
X77743Y42645D01*
X77699Y42575D01*
X77654Y42516D01*
X77550Y42404D01*
X77488Y42237D01*
X76599Y40905D01*
X76247Y39140D01*
X76599Y37375D01*
X77598Y35878D01*
X79095Y34878D01*
X80860Y34527D01*
X82625Y34878D01*
X84122Y35878D01*
X85121Y37375D01*
X85473Y39140D01*
X85121Y40905D01*
X84232Y42237D01*
X84170Y42404D01*
X84066Y42516D01*
X84021Y42575D01*
X83977Y42645D01*
X83935Y42728D01*
X83896Y42829D01*
X83859Y42949D01*
X83827Y43091D01*
X83802Y43257D01*
X83786Y43446D01*
X83779Y43703D01*
X83709Y43860D01*
Y59603D01*
X84882Y60089D01*
X104508Y40463D01*
X104570Y40302D01*
X104746Y40116D01*
X104868Y39971D01*
X104968Y39836D01*
X105046Y39713D01*
X105105Y39602D01*
X105148Y39503D01*
X105177Y39414D01*
X105196Y39334D01*
X105206Y39260D01*
X105212Y39107D01*
X105286Y38946D01*
X105598Y37375D01*
X106598Y35878D01*
X108095Y34878D01*
X109860Y34527D01*
X111625Y34878D01*
X113122Y35878D01*
X114122Y37375D01*
X114473Y39140D01*
X114122Y40905D01*
X113122Y42402D01*
X111625Y43401D01*
X110055Y43714D01*
X109893Y43788D01*
X109740Y43794D01*
X109666Y43804D01*
X109586Y43823D01*
X109497Y43852D01*
X109398Y43895D01*
X109287Y43954D01*
X109164Y44032D01*
X109029Y44132D01*
X108884Y44254D01*
X108698Y44430D01*
X108537Y44492D01*
X88249Y64780D01*
Y104760D01*
X103677Y120188D01*
X103838Y120250D01*
X104024Y120426D01*
X104169Y120548D01*
X104304Y120648D01*
X104427Y120726D01*
X104538Y120785D01*
X104637Y120828D01*
X104726Y120857D01*
X104806Y120876D01*
X104880Y120886D01*
X105033Y120892D01*
X105195Y120966D01*
X106765Y121278D01*
X108262Y122278D01*
X109262Y123775D01*
X109613Y125540D01*
X109262Y127305D01*
X108262Y128802D01*
X106765Y129802D01*
X106307Y129893D01*
Y131187D01*
X106765Y131278D01*
X108262Y132278D01*
X109262Y133775D01*
X109613Y135540D01*
X109262Y137305D01*
X108262Y138802D01*
X106765Y139802D01*
X105000Y140153D01*
D02*
G37*
G36*
X24270Y27535D02*
Y19870D01*
X31935D01*
X31792Y20956D01*
X30882Y23151D01*
X29436Y25036D01*
X27551Y26482D01*
X25356Y27392D01*
X24270Y27535D01*
D02*
G37*
G36*
X21730D02*
X20644Y27392D01*
X18449Y26482D01*
X16564Y25036D01*
X15118Y23151D01*
X14208Y20956D01*
X14065Y19870D01*
X21730D01*
Y27535D01*
D02*
G37*
G36*
X31935Y17330D02*
X24270D01*
Y9665D01*
X25356Y9808D01*
X27551Y10718D01*
X29436Y12164D01*
X30882Y14049D01*
X31792Y16244D01*
X31935Y17330D01*
D02*
G37*
G36*
X21730D02*
X14065D01*
X14208Y16244D01*
X15118Y14049D01*
X16564Y12164D01*
X18449Y10718D01*
X20644Y9808D01*
X21730Y9665D01*
Y17330D01*
D02*
G37*
G36*
X427000Y27702D02*
X424644Y27392D01*
X422449Y26482D01*
X420564Y25036D01*
X419118Y23151D01*
X418208Y20956D01*
X417898Y18600D01*
X418208Y16244D01*
X419118Y14049D01*
X420564Y12164D01*
X422449Y10718D01*
X424644Y9808D01*
X427000Y9498D01*
X429356Y9808D01*
X431551Y10718D01*
X433436Y12164D01*
X434882Y14049D01*
X435792Y16244D01*
X436102Y18600D01*
X435792Y20956D01*
X434882Y23151D01*
X433436Y25036D01*
X431551Y26482D01*
X429356Y27392D01*
X427000Y27702D01*
D02*
G37*
%LPD*%
G36*
X139012Y515771D02*
X138814Y515915D01*
X138581Y515987D01*
X138311D01*
X138006Y515915D01*
X137665Y515771D01*
X137288Y515556D01*
X136875Y515268D01*
X136425Y514909D01*
X135420Y513975D01*
X133624Y515771D01*
X134127Y516292D01*
X134917Y517226D01*
X135204Y517639D01*
X135420Y518016D01*
X135563Y518358D01*
X135635Y518663D01*
Y518932D01*
X135563Y519166D01*
X135420Y519363D01*
X139012Y515771D01*
D02*
G37*
G36*
X111072D02*
X110874Y515915D01*
X110641Y515987D01*
X110371D01*
X110066Y515915D01*
X109725Y515771D01*
X109347Y515556D01*
X108934Y515268D01*
X108485Y514909D01*
X107480Y513975D01*
X105684Y515771D01*
X106187Y516292D01*
X106977Y517226D01*
X107264Y517639D01*
X107480Y518016D01*
X107623Y518358D01*
X107695Y518663D01*
Y518932D01*
X107623Y519166D01*
X107480Y519363D01*
X111072Y515771D01*
D02*
G37*
G36*
X24283Y409121D02*
X24321Y408684D01*
X24384Y408298D01*
X24473Y407964D01*
X24588Y407682D01*
X24727Y407450D01*
X24892Y407270D01*
X25083Y407142D01*
X25299Y407065D01*
X25540Y407039D01*
X20460D01*
X20701Y407065D01*
X20917Y407142D01*
X21108Y407270D01*
X21273Y407450D01*
X21412Y407682D01*
X21527Y407964D01*
X21616Y408298D01*
X21679Y408684D01*
X21717Y409121D01*
X21730Y409609D01*
X24270D01*
X24283Y409121D01*
D02*
G37*
G36*
X15899Y383153D02*
X16383Y382838D01*
X16941Y382562D01*
X17573Y382323D01*
X18280Y382123D01*
X19060Y381962D01*
X19915Y381839D01*
X21848Y381708D01*
X22925Y381700D01*
X15500Y374275D01*
X15492Y375353D01*
X15361Y377285D01*
X15238Y378140D01*
X15077Y378920D01*
X14877Y379627D01*
X14638Y380259D01*
X14362Y380817D01*
X14047Y381301D01*
X13693Y381711D01*
X15489Y383507D01*
X15899Y383153D01*
D02*
G37*
G36*
X207281Y543891D02*
X207507Y543704D01*
X207739Y543539D01*
X207978Y543396D01*
X208223Y543275D01*
X208475Y543176D01*
X208733Y543099D01*
X208999Y543044D01*
X209270Y543011D01*
X209548Y543000D01*
Y541000D01*
X209270Y540989D01*
X208999Y540956D01*
X208733Y540901D01*
X208475Y540824D01*
X208223Y540725D01*
X207978Y540604D01*
X207739Y540461D01*
X207507Y540296D01*
X207281Y540109D01*
X207062Y539900D01*
Y544100D01*
X207281Y543891D01*
D02*
G37*
G36*
X247011Y502350D02*
X247044Y502079D01*
X247099Y501813D01*
X247176Y501555D01*
X247275Y501303D01*
X247396Y501058D01*
X247539Y500819D01*
X247704Y500587D01*
X247891Y500361D01*
X248100Y500142D01*
X243900D01*
X244109Y500361D01*
X244296Y500587D01*
X244461Y500819D01*
X244604Y501058D01*
X244725Y501303D01*
X244824Y501555D01*
X244901Y501813D01*
X244956Y502079D01*
X244989Y502350D01*
X245000Y502628D01*
X247000D01*
X247011Y502350D01*
D02*
G37*
G36*
X308007Y466607D02*
X308034Y466316D01*
X308082Y466035D01*
X308149Y465765D01*
X308237Y465506D01*
X308345Y465258D01*
X308474Y465021D01*
X308622Y464794D01*
X308791Y464579D01*
X308980Y464374D01*
X307566Y462960D01*
X307361Y463149D01*
X307146Y463318D01*
X306919Y463466D01*
X306682Y463595D01*
X306434Y463703D01*
X306175Y463791D01*
X305905Y463858D01*
X305624Y463906D01*
X305333Y463933D01*
X305030Y463940D01*
X308000Y466910D01*
X308007Y466607D01*
D02*
G37*
G36*
X317358Y461400D02*
X317139Y461609D01*
X316913Y461796D01*
X316681Y461961D01*
X316442Y462104D01*
X316197Y462225D01*
X315945Y462324D01*
X315687Y462401D01*
X315422Y462456D01*
X315150Y462489D01*
X314872Y462500D01*
Y464500D01*
X315150Y464511D01*
X315422Y464544D01*
X315687Y464599D01*
X315945Y464676D01*
X316197Y464775D01*
X316442Y464896D01*
X316681Y465039D01*
X316913Y465204D01*
X317139Y465391D01*
X317358Y465600D01*
Y461400D01*
D02*
G37*
G36*
X110638Y346700D02*
X110467Y346858D01*
X110282Y346999D01*
X110082Y347123D01*
X109867Y347231D01*
X109637Y347323D01*
X109392Y347397D01*
X109132Y347455D01*
X108857Y347497D01*
X108567Y347522D01*
X108262Y347530D01*
Y350070D01*
X108567Y350078D01*
X108857Y350103D01*
X109132Y350145D01*
X109392Y350203D01*
X109637Y350277D01*
X109867Y350369D01*
X110082Y350477D01*
X110282Y350601D01*
X110467Y350742D01*
X110638Y350900D01*
Y346700D01*
D02*
G37*
G36*
X74313Y350742D02*
X74498Y350601D01*
X74698Y350477D01*
X74913Y350369D01*
X75143Y350277D01*
X75388Y350203D01*
X75648Y350145D01*
X75923Y350103D01*
X76213Y350078D01*
X76518Y350070D01*
Y347530D01*
X76213Y347522D01*
X75923Y347497D01*
X75648Y347455D01*
X75388Y347397D01*
X75143Y347323D01*
X74913Y347231D01*
X74698Y347123D01*
X74498Y346999D01*
X74313Y346858D01*
X74142Y346700D01*
Y350900D01*
X74313Y350742D01*
D02*
G37*
G36*
X30508Y322248D02*
X30639Y320315D01*
X30762Y319460D01*
X30924Y318680D01*
X31123Y317973D01*
X31362Y317341D01*
X31638Y316783D01*
X31953Y316299D01*
X32307Y315889D01*
X30511Y314093D01*
X30101Y314447D01*
X29617Y314762D01*
X29059Y315038D01*
X28427Y315277D01*
X27720Y315476D01*
X26940Y315638D01*
X26085Y315761D01*
X24153Y315892D01*
X23075Y315900D01*
X30500Y323325D01*
X30508Y322248D01*
D02*
G37*
G36*
X221925Y317883D02*
X222148Y317696D01*
X222371Y317530D01*
X222596Y317388D01*
X222822Y317267D01*
X223050Y317169D01*
X223278Y317093D01*
X223507Y317040D01*
X223738Y317009D01*
X223970Y317000D01*
X221000Y314030D01*
X220991Y314262D01*
X220960Y314493D01*
X220907Y314722D01*
X220831Y314951D01*
X220733Y315178D01*
X220612Y315404D01*
X220470Y315629D01*
X220305Y315853D01*
X220117Y316075D01*
X219907Y316297D01*
X221703Y318093D01*
X221925Y317883D01*
D02*
G37*
G36*
X30508Y296847D02*
X30639Y294915D01*
X30762Y294060D01*
X30924Y293280D01*
X31123Y292573D01*
X31362Y291941D01*
X31638Y291383D01*
X31953Y290899D01*
X32307Y290489D01*
X30511Y288693D01*
X30101Y289047D01*
X29617Y289362D01*
X29059Y289638D01*
X28427Y289877D01*
X27720Y290077D01*
X26940Y290238D01*
X26085Y290361D01*
X24153Y290492D01*
X23075Y290500D01*
X30500Y297925D01*
X30508Y296847D01*
D02*
G37*
G36*
X29124Y277094D02*
X30583Y275820D01*
X31274Y275303D01*
X31941Y274865D01*
X32582Y274507D01*
X33197Y274228D01*
X33787Y274029D01*
X34352Y273910D01*
X34892Y273870D01*
Y271330D01*
X34352Y271290D01*
X33787Y271171D01*
X33197Y270972D01*
X32582Y270693D01*
X31941Y270335D01*
X31274Y269897D01*
X30583Y269380D01*
X29124Y268106D01*
X28356Y267350D01*
Y277850D01*
X29124Y277094D01*
D02*
G37*
G36*
Y251694D02*
X30583Y250420D01*
X31274Y249903D01*
X31941Y249465D01*
X32582Y249107D01*
X33197Y248828D01*
X33787Y248629D01*
X34352Y248510D01*
X34892Y248470D01*
Y245930D01*
X34352Y245890D01*
X33787Y245771D01*
X33197Y245572D01*
X32582Y245293D01*
X31941Y244935D01*
X31274Y244497D01*
X30583Y243980D01*
X29124Y242706D01*
X28356Y241950D01*
Y252450D01*
X29124Y251694D01*
D02*
G37*
G36*
X102788Y193440D02*
X102617Y193598D01*
X102432Y193739D01*
X102232Y193863D01*
X102017Y193971D01*
X101787Y194062D01*
X101542Y194137D01*
X101282Y194195D01*
X101007Y194237D01*
X100717Y194262D01*
X100412Y194270D01*
Y196810D01*
X100717Y196818D01*
X101007Y196843D01*
X101282Y196885D01*
X101542Y196943D01*
X101787Y197017D01*
X102017Y197109D01*
X102232Y197217D01*
X102432Y197341D01*
X102617Y197482D01*
X102788Y197640D01*
Y193440D01*
D02*
G37*
G36*
Y183440D02*
X102617Y183598D01*
X102432Y183739D01*
X102232Y183863D01*
X102017Y183971D01*
X101787Y184062D01*
X101542Y184137D01*
X101282Y184195D01*
X101007Y184237D01*
X100717Y184262D01*
X100412Y184270D01*
Y186810D01*
X100717Y186818D01*
X101007Y186843D01*
X101282Y186885D01*
X101542Y186943D01*
X101787Y187017D01*
X102017Y187109D01*
X102232Y187217D01*
X102432Y187341D01*
X102617Y187482D01*
X102788Y187640D01*
Y183440D01*
D02*
G37*
G36*
Y173440D02*
X102617Y173598D01*
X102432Y173739D01*
X102232Y173863D01*
X102017Y173971D01*
X101787Y174062D01*
X101542Y174137D01*
X101282Y174195D01*
X101007Y174237D01*
X100717Y174262D01*
X100412Y174270D01*
Y176810D01*
X100717Y176818D01*
X101007Y176843D01*
X101282Y176885D01*
X101542Y176943D01*
X101787Y177017D01*
X102017Y177109D01*
X102232Y177217D01*
X102432Y177341D01*
X102617Y177482D01*
X102788Y177640D01*
Y173440D01*
D02*
G37*
G36*
Y163440D02*
X102617Y163598D01*
X102432Y163739D01*
X102232Y163863D01*
X102017Y163971D01*
X101787Y164062D01*
X101542Y164137D01*
X101282Y164195D01*
X101007Y164237D01*
X100717Y164262D01*
X100412Y164270D01*
Y166810D01*
X100717Y166818D01*
X101007Y166843D01*
X101282Y166885D01*
X101542Y166943D01*
X101787Y167017D01*
X102017Y167109D01*
X102232Y167217D01*
X102432Y167341D01*
X102617Y167482D01*
X102788Y167640D01*
Y163440D01*
D02*
G37*
G36*
X15899Y103753D02*
X16383Y103438D01*
X16941Y103162D01*
X17573Y102923D01*
X18280Y102724D01*
X19060Y102562D01*
X19915Y102439D01*
X21848Y102308D01*
X22925Y102300D01*
X15500Y94875D01*
X15492Y95953D01*
X15361Y97885D01*
X15238Y98740D01*
X15077Y99520D01*
X14877Y100227D01*
X14638Y100859D01*
X14362Y101417D01*
X14047Y101901D01*
X13693Y102311D01*
X15489Y104107D01*
X15899Y103753D01*
D02*
G37*
G36*
X358009Y240738D02*
X358040Y240507D01*
X358093Y240278D01*
X358169Y240049D01*
X358267Y239822D01*
X358388Y239596D01*
X358530Y239371D01*
X358695Y239147D01*
X358883Y238925D01*
X359093Y238703D01*
X357297Y236907D01*
X357075Y237117D01*
X356852Y237304D01*
X356629Y237470D01*
X356404Y237612D01*
X356178Y237733D01*
X355951Y237831D01*
X355722Y237907D01*
X355493Y237960D01*
X355262Y237991D01*
X355030Y238000D01*
X358000Y240970D01*
X358009Y240738D01*
D02*
G37*
G36*
X356942Y226687D02*
X356801Y226502D01*
X356677Y226302D01*
X356569Y226087D01*
X356478Y225857D01*
X356403Y225612D01*
X356345Y225352D01*
X356303Y225077D01*
X356278Y224787D01*
X356270Y224482D01*
X353730D01*
X353722Y224787D01*
X353697Y225077D01*
X353655Y225352D01*
X353597Y225612D01*
X353522Y225857D01*
X353431Y226087D01*
X353323Y226302D01*
X353199Y226502D01*
X353058Y226687D01*
X352900Y226858D01*
X357100D01*
X356942Y226687D01*
D02*
G37*
G36*
X311688Y226000D02*
X311418Y225959D01*
X311091Y225837D01*
X310707Y225634D01*
X310266Y225350D01*
X309768Y224984D01*
X308600Y224009D01*
X307204Y222709D01*
X306420Y221938D01*
X304624Y223734D01*
X305396Y224517D01*
X308036Y227580D01*
X308320Y228021D01*
X308524Y228405D01*
X308646Y228732D01*
X308686Y229002D01*
X311688Y226000D01*
D02*
G37*
G36*
X426925Y214300D02*
X425848Y214292D01*
X423915Y214161D01*
X423060Y214038D01*
X422280Y213876D01*
X421573Y213677D01*
X420941Y213438D01*
X420383Y213162D01*
X419899Y212847D01*
X419489Y212493D01*
X417693Y214289D01*
X418047Y214699D01*
X418362Y215183D01*
X418638Y215741D01*
X418877Y216373D01*
X419076Y217080D01*
X419238Y217860D01*
X419361Y218715D01*
X419492Y220648D01*
X419500Y221725D01*
X426925Y214300D01*
D02*
G37*
G36*
X261000Y160000D02*
X258460Y156190D01*
X258435Y156673D01*
X258358Y157104D01*
X258231Y157485D01*
X258054Y157816D01*
X257825Y158095D01*
X257546Y158324D01*
X257215Y158501D01*
X256834Y158628D01*
X256403Y158705D01*
X255920Y158730D01*
Y161270D01*
X256403Y161295D01*
X256834Y161372D01*
X257215Y161499D01*
X257546Y161676D01*
X257825Y161905D01*
X258054Y162184D01*
X258231Y162515D01*
X258358Y162896D01*
X258435Y163327D01*
X258460Y163810D01*
X261000Y160000D01*
D02*
G37*
G36*
X270511Y155064D02*
X270518Y155064D01*
Y152524D01*
X270511Y152524D01*
Y151254D01*
X270485Y151495D01*
X270408Y151711D01*
X270280Y151902D01*
X270100Y152067D01*
X269868Y152206D01*
X269586Y152321D01*
X269357Y152382D01*
X269143Y152317D01*
X268913Y152225D01*
X268698Y152117D01*
X268498Y151993D01*
X268313Y151852D01*
X268142Y151694D01*
Y152519D01*
X267941Y152524D01*
Y155064D01*
X268142Y155069D01*
Y155894D01*
X268313Y155736D01*
X268498Y155595D01*
X268698Y155471D01*
X268913Y155363D01*
X269143Y155272D01*
X269357Y155206D01*
X269586Y155267D01*
X269868Y155381D01*
X270100Y155521D01*
X270280Y155686D01*
X270408Y155877D01*
X270485Y156093D01*
X270511Y156334D01*
Y155064D01*
D02*
G37*
G36*
X280415Y156093D02*
X280492Y155877D01*
X280620Y155686D01*
X280800Y155521D01*
X281032Y155381D01*
X281314Y155267D01*
X281649Y155178D01*
X282034Y155115D01*
X282471Y155077D01*
X282959Y155064D01*
Y152524D01*
X282471Y152511D01*
X282034Y152473D01*
X281649Y152410D01*
X281314Y152321D01*
X281032Y152206D01*
X280800Y152067D01*
X280620Y151902D01*
X280492Y151711D01*
X280415Y151495D01*
X280389Y151254D01*
Y156334D01*
X280415Y156093D01*
D02*
G37*
G36*
X254942Y151481D02*
X254801Y151296D01*
X254677Y151096D01*
X254569Y150881D01*
X254478Y150651D01*
X254403Y150406D01*
X254345Y150146D01*
X254303Y149871D01*
X254278Y149581D01*
X254270Y149276D01*
X251730D01*
X251722Y149581D01*
X251697Y149871D01*
X251655Y150146D01*
X251597Y150406D01*
X251523Y150651D01*
X251431Y150881D01*
X251323Y151096D01*
X251199Y151296D01*
X251058Y151481D01*
X250900Y151652D01*
X255100D01*
X254942Y151481D01*
D02*
G37*
G36*
X382041Y136014D02*
X382015Y136255D01*
X381938Y136471D01*
X381810Y136662D01*
X381630Y136827D01*
X381398Y136966D01*
X381116Y137081D01*
X380781Y137170D01*
X380396Y137233D01*
X379959Y137271D01*
X379470Y137284D01*
Y139824D01*
X379959Y139837D01*
X380396Y139875D01*
X380781Y139938D01*
X381116Y140027D01*
X381398Y140141D01*
X381630Y140281D01*
X381810Y140446D01*
X381938Y140637D01*
X382015Y140853D01*
X382041Y141094D01*
Y136014D01*
D02*
G37*
G36*
X254942Y134687D02*
X254801Y134502D01*
X254676Y134302D01*
X254568Y134087D01*
X254477Y133857D01*
X254402Y133612D01*
X254344Y133352D01*
X254303Y133077D01*
X254278Y132787D01*
X254270Y132482D01*
X251730D01*
X251721Y132787D01*
X251696Y133077D01*
X251655Y133352D01*
X251597Y133612D01*
X251522Y133857D01*
X251431Y134087D01*
X251323Y134302D01*
X251198Y134502D01*
X251057Y134687D01*
X250900Y134857D01*
X255100D01*
X254942Y134687D01*
D02*
G37*
G36*
X330188Y56900D02*
X330017Y57058D01*
X329832Y57199D01*
X329632Y57323D01*
X329417Y57431D01*
X329187Y57523D01*
X328942Y57597D01*
X328682Y57655D01*
X328407Y57697D01*
X328117Y57722D01*
X327812Y57730D01*
Y60270D01*
X328117Y60278D01*
X328407Y60303D01*
X328682Y60345D01*
X328942Y60403D01*
X329187Y60477D01*
X329417Y60569D01*
X329632Y60677D01*
X329832Y60801D01*
X330017Y60942D01*
X330188Y61100D01*
Y56900D01*
D02*
G37*
G36*
X113055Y57335D02*
X112845Y57113D01*
X112658Y56891D01*
X112493Y56667D01*
X112350Y56442D01*
X112229Y56216D01*
X112131Y55988D01*
X112055Y55760D01*
X112002Y55531D01*
X111971Y55300D01*
X111962Y55068D01*
X108992Y58038D01*
X109224Y58047D01*
X109455Y58078D01*
X109684Y58131D01*
X109913Y58207D01*
X110140Y58305D01*
X110366Y58426D01*
X110591Y58568D01*
X110815Y58734D01*
X111037Y58921D01*
X111259Y59131D01*
X113055Y57335D01*
D02*
G37*
G36*
X344606Y56517D02*
X344652Y55927D01*
X344692Y55687D01*
X344743Y55484D01*
X344807Y55318D01*
X344881Y55189D01*
X344967Y55097D01*
X345065Y55042D01*
X345174Y55023D01*
X341486D01*
X341595Y55042D01*
X341693Y55097D01*
X341779Y55189D01*
X341853Y55318D01*
X341917Y55484D01*
X341968Y55687D01*
X342008Y55927D01*
X342037Y56203D01*
X342060Y56867D01*
X344600D01*
X344606Y56517D01*
D02*
G37*
G36*
X322604Y56357D02*
X322660Y55616D01*
X322694Y55435D01*
X322735Y55287D01*
X322785Y55172D01*
X322841Y55089D01*
X322905Y55040D01*
X322976Y55023D01*
X319683D01*
X319755Y55040D01*
X319819Y55089D01*
X319876Y55172D01*
X319925Y55287D01*
X319966Y55435D01*
X320000Y55616D01*
X320026Y55830D01*
X320056Y56357D01*
X320060Y56670D01*
X322600D01*
X322604Y56357D01*
D02*
G37*
G36*
X355334Y56858D02*
X356430D01*
X356221Y56639D01*
X356034Y56413D01*
X355869Y56181D01*
X355726Y55942D01*
X355605Y55697D01*
X355558Y55577D01*
X355580Y55524D01*
X355690Y55343D01*
X355820Y55203D01*
X355970Y55104D01*
X356140Y55044D01*
X356330Y55023D01*
X355395D01*
X355374Y54921D01*
X355341Y54650D01*
X355330Y54372D01*
X353330D01*
X353319Y54650D01*
X353286Y54921D01*
X353265Y55023D01*
X352330D01*
X352520Y55044D01*
X352690Y55104D01*
X352840Y55203D01*
X352970Y55343D01*
X353080Y55524D01*
X353102Y55577D01*
X353055Y55697D01*
X352934Y55942D01*
X352791Y56181D01*
X352626Y56413D01*
X352439Y56639D01*
X352230Y56858D01*
X353326D01*
X353330Y57024D01*
X355330D01*
X355334Y56858D01*
D02*
G37*
G36*
X333334D02*
X334430D01*
X334221Y56639D01*
X334034Y56413D01*
X333869Y56181D01*
X333726Y55942D01*
X333605Y55697D01*
X333558Y55577D01*
X333580Y55524D01*
X333690Y55343D01*
X333820Y55203D01*
X333970Y55104D01*
X334140Y55044D01*
X334330Y55023D01*
X333395D01*
X333374Y54921D01*
X333341Y54650D01*
X333330Y54372D01*
X331330D01*
X331319Y54650D01*
X331286Y54921D01*
X331265Y55023D01*
X330330D01*
X330520Y55044D01*
X330690Y55104D01*
X330840Y55203D01*
X330970Y55343D01*
X331080Y55524D01*
X331102Y55577D01*
X331055Y55697D01*
X330934Y55942D01*
X330791Y56181D01*
X330626Y56413D01*
X330439Y56639D01*
X330230Y56858D01*
X331326D01*
X331330Y57024D01*
X333330D01*
X333334Y56858D01*
D02*
G37*
G36*
X104970Y132540D02*
X104738Y132531D01*
X104507Y132500D01*
X104278Y132447D01*
X104050Y132371D01*
X103822Y132273D01*
X103596Y132152D01*
X103371Y132010D01*
X103147Y131845D01*
X102925Y131657D01*
X102703Y131447D01*
X100907Y133243D01*
X101117Y133465D01*
X101305Y133687D01*
X101469Y133911D01*
X101612Y134136D01*
X101733Y134362D01*
X101831Y134590D01*
X101907Y134818D01*
X101960Y135048D01*
X101991Y135278D01*
X102000Y135510D01*
X104970Y132540D01*
D02*
G37*
G36*
Y122540D02*
X104738Y122531D01*
X104507Y122500D01*
X104278Y122447D01*
X104050Y122371D01*
X103822Y122273D01*
X103596Y122152D01*
X103371Y122009D01*
X103147Y121845D01*
X102925Y121657D01*
X102703Y121447D01*
X100907Y123243D01*
X101117Y123465D01*
X101305Y123687D01*
X101469Y123911D01*
X101612Y124136D01*
X101733Y124362D01*
X101831Y124590D01*
X101907Y124818D01*
X101960Y125047D01*
X101991Y125278D01*
X102000Y125510D01*
X104970Y122540D01*
D02*
G37*
G36*
X82138Y43353D02*
X82163Y43063D01*
X82205Y42788D01*
X82263Y42528D01*
X82338Y42283D01*
X82429Y42053D01*
X82537Y41838D01*
X82661Y41638D01*
X82802Y41453D01*
X82960Y41282D01*
X78760D01*
X78918Y41453D01*
X79059Y41638D01*
X79183Y41838D01*
X79291Y42053D01*
X79383Y42283D01*
X79457Y42528D01*
X79515Y42788D01*
X79557Y43063D01*
X79582Y43353D01*
X79590Y43658D01*
X82130D01*
X82138Y43353D01*
D02*
G37*
G36*
X107785Y43023D02*
X108007Y42836D01*
X108231Y42670D01*
X108456Y42528D01*
X108682Y42407D01*
X108910Y42309D01*
X109138Y42233D01*
X109367Y42180D01*
X109598Y42149D01*
X109830Y42140D01*
X106860Y39170D01*
X106851Y39402D01*
X106820Y39633D01*
X106767Y39862D01*
X106691Y40090D01*
X106593Y40318D01*
X106472Y40544D01*
X106329Y40769D01*
X106165Y40993D01*
X105977Y41215D01*
X105767Y41437D01*
X107563Y43233D01*
X107785Y43023D01*
D02*
G37*
D12*
X246000Y498000D02*
Y517000D01*
X221000Y542000D02*
X246000Y517000D01*
X204920Y542000D02*
X221000D01*
X332330Y46304D02*
Y59000D01*
X354330Y46304D02*
Y59000D01*
X305000Y466940D02*
X308440Y463500D01*
X319500D01*
D13*
X259730Y160000D02*
Y177044D01*
Y151100D02*
Y160000D01*
X255661D02*
X259730D01*
X255597Y160064D02*
X255661Y160000D01*
X213988Y160064D02*
X255597D01*
X108962Y55038D02*
X213988Y160064D01*
X259730Y177044D02*
X311686Y229000D01*
X259730Y151100D02*
X264370Y146460D01*
X259830Y118170D02*
Y140170D01*
X253000Y147000D02*
X259830Y140170D01*
X253000Y147000D02*
Y153794D01*
X266000D02*
X275450D01*
X259830Y118170D02*
X321330Y56670D01*
X264370Y121309D02*
Y146460D01*
X252999Y118580D02*
X291000Y80580D01*
X252999Y118580D02*
Y137000D01*
X264370Y121309D02*
X295420Y90259D01*
Y89000D02*
Y90259D01*
X295508Y89000D02*
X325508Y59000D01*
X325420D02*
X325508D01*
X321330Y46304D02*
Y56670D01*
X291000Y36000D02*
Y80580D01*
X295420Y89000D02*
X295508D01*
X325508Y59000D02*
X332330D01*
X406000Y541000D02*
X425000Y522000D01*
X406000Y541000D02*
Y585000D01*
X400000Y591000D02*
X406000Y585000D01*
X171000Y591000D02*
X400000D01*
X72000Y348800D02*
X112780D01*
X355000Y191000D02*
Y229000D01*
X317794Y153794D02*
X355000Y191000D01*
X275450Y153794D02*
X317794D01*
X343330Y46304D02*
Y56867D01*
X351733Y65270D01*
X352270D02*
X415000Y128000D01*
X351733Y65270D02*
X352270D01*
X415000Y128000D02*
Y209800D01*
X291000Y36000D02*
X295000Y32000D01*
X361000D01*
X365330Y36330D01*
Y46304D01*
X378446Y138554D02*
X388480D01*
X361270Y155730D02*
X378446Y138554D01*
X361270Y155730D02*
Y234730D01*
X355000Y241000D02*
X361270Y234730D01*
X415000Y209800D02*
X427000Y221800D01*
X282510Y580040D02*
X390760D01*
X260000Y557530D02*
X282510Y580040D01*
X204000Y334000D02*
X224000Y314000D01*
X27631Y334000D02*
X204000D01*
X27461Y334170D02*
X27631Y334000D01*
X18539Y334170D02*
X27461D01*
X12000Y327631D02*
X18539Y334170D01*
X12000Y105800D02*
Y327631D01*
Y105800D02*
X23000Y94800D01*
Y247200D02*
X60959D01*
X67920Y240239D01*
Y196080D02*
Y240239D01*
Y196080D02*
X98460Y165540D01*
X104930D01*
X97039Y175540D02*
X104930D01*
X72460Y200119D02*
X97039Y175540D01*
X72460Y200119D02*
Y242120D01*
X41979Y272600D02*
X72460Y242120D01*
X23000Y272600D02*
X41979D01*
X23000Y323400D02*
X34000Y312400D01*
Y293421D02*
Y312400D01*
Y293421D02*
X81540Y245881D01*
Y203881D02*
Y245881D01*
Y203881D02*
X89881Y195540D01*
X104930D01*
X93460Y185540D02*
X104930D01*
X77000Y202000D02*
X93460Y185540D01*
X77000Y202000D02*
Y244000D01*
X23000Y298000D02*
X77000Y244000D01*
X132119Y512471D02*
X142889Y523241D01*
X110600Y512471D02*
X132119D01*
X23000Y424871D02*
X110600Y512471D01*
X23000Y399600D02*
Y424871D01*
X12230Y420522D02*
X114949Y523241D01*
X12230Y384970D02*
Y420522D01*
Y384970D02*
X23000Y374200D01*
X80860Y111400D02*
X105000Y135540D01*
X80860Y39140D02*
Y111400D01*
X85400Y105940D02*
X105000Y125540D01*
X85400Y63600D02*
Y105940D01*
Y63600D02*
X109860Y39140D01*
D80*
X425000Y516000D02*
Y522000D01*
Y510000D02*
Y516000D01*
Y492000D02*
Y510000D01*
X412000Y479000D02*
X425000Y492000D01*
X412000Y363800D02*
Y479000D01*
Y363800D02*
X427000Y348800D01*
D83*
X315000Y229000D02*
X321000D01*
X311686D02*
X315000D01*
X288000Y331000D02*
Y337000D01*
Y325000D02*
Y331000D01*
Y252686D02*
Y325000D01*
Y252686D02*
X311686Y229000D01*
D84*
X427000Y18600D02*
D03*
Y44000D02*
D03*
Y69400D02*
D03*
Y94800D02*
D03*
Y120200D02*
D03*
Y145600D02*
D03*
Y171000D02*
D03*
Y196400D02*
D03*
Y221800D02*
D03*
Y247200D02*
D03*
Y272600D02*
D03*
Y298000D02*
D03*
Y323400D02*
D03*
Y348800D02*
D03*
Y374200D02*
D03*
X23000D02*
D03*
Y348800D02*
D03*
Y323400D02*
D03*
Y298000D02*
D03*
Y272600D02*
D03*
Y247200D02*
D03*
Y221800D02*
D03*
Y196400D02*
D03*
Y171000D02*
D03*
Y145600D02*
D03*
Y120200D02*
D03*
Y94800D02*
D03*
Y69400D02*
D03*
Y44000D02*
D03*
Y18600D02*
D03*
X390760Y554640D02*
D03*
Y529240D02*
D03*
X142889Y574041D02*
D03*
Y548641D02*
D03*
X114949Y574041D02*
D03*
Y548641D02*
D03*
D85*
X427000Y399600D02*
D03*
X23000D02*
D03*
X390760Y580040D02*
D03*
X142889Y523241D02*
D03*
X114949D02*
D03*
D86*
X72000Y267000D02*
D03*
X340524Y187648D02*
D03*
X345335Y299270D02*
D03*
X359000Y286000D02*
D03*
X386000Y313000D02*
D03*
X378000Y329843D02*
D03*
X340930D02*
D03*
Y358233D02*
D03*
X22000Y442000D02*
D03*
X37000Y426000D02*
D03*
X48750Y471670D02*
D03*
X69000Y454000D02*
D03*
X401797Y512770D02*
D03*
X408000Y506378D02*
D03*
X104256Y357902D02*
D03*
Y456880D02*
D03*
Y495000D02*
D03*
X155000Y520389D02*
D03*
X207676Y481767D02*
D03*
X240000D02*
D03*
X267836Y327951D02*
D03*
X280000Y459239D02*
D03*
Y407000D02*
D03*
Y360000D02*
D03*
X296556Y307154D02*
D03*
X200000Y115000D02*
D03*
X403000Y55000D02*
D03*
X355000Y142000D02*
D03*
X376432Y32000D02*
D03*
X284000Y77282D02*
D03*
X403079Y33488D02*
D03*
X381000Y181073D02*
D03*
X401000Y206910D02*
D03*
X373000D02*
D03*
X369000Y241648D02*
D03*
Y229000D02*
D03*
X385243Y500000D02*
D03*
X385370Y542380D02*
D03*
X432000Y488000D02*
D03*
X414000Y500000D02*
D03*
X345227Y567000D02*
D03*
X352160Y550176D02*
D03*
X343040Y526884D02*
D03*
X342662Y503000D02*
D03*
X290498D02*
D03*
X290120Y526884D02*
D03*
X281000Y550176D02*
D03*
X287933Y567000D02*
D03*
X268000Y494407D02*
D03*
X160000Y583512D02*
D03*
X192603Y534441D02*
D03*
X195320Y503000D02*
D03*
X165000Y535270D02*
D03*
X136000Y561348D02*
D03*
X95360Y544300D02*
D03*
Y582271D02*
D03*
X85000Y505000D02*
D03*
X52000D02*
D03*
Y544300D02*
D03*
X85000Y477000D02*
D03*
X157000Y313820D02*
D03*
X175000Y314000D02*
D03*
X210351D02*
D03*
X254571Y257362D02*
D03*
X264402Y248000D02*
D03*
X194423Y341980D02*
D03*
X175000D02*
D03*
X157000D02*
D03*
X194423Y327191D02*
D03*
X175000D02*
D03*
X157000D02*
D03*
X68000Y184000D02*
D03*
X44000Y237000D02*
D03*
X59000D02*
D03*
X62586Y326000D02*
D03*
X44941Y341980D02*
D03*
X62586D02*
D03*
X121750Y326000D02*
D03*
Y341980D02*
D03*
X131842Y195540D02*
D03*
X193000Y156233D02*
D03*
X180000D02*
D03*
X167000D02*
D03*
X259730Y188802D02*
D03*
X271640Y178802D02*
D03*
X253203Y167000D02*
D03*
X266000D02*
D03*
X280000Y255000D02*
D03*
X273370Y275000D02*
D03*
X255245Y276259D02*
D03*
X315079Y268049D02*
D03*
X327488Y256355D02*
D03*
X314862Y244270D02*
D03*
X310429Y163000D02*
D03*
X302541Y168860D02*
D03*
X345620Y164191D02*
D03*
X369000D02*
D03*
X404259Y131000D02*
D03*
X407000Y105075D02*
D03*
X373000Y75000D02*
D03*
Y127554D02*
D03*
X340476D02*
D03*
X329435Y78502D02*
D03*
X318000D02*
D03*
X245614Y48660D02*
D03*
X232344Y48551D02*
D03*
X260000Y48660D02*
D03*
X221634Y44374D02*
D03*
X270014Y33488D02*
D03*
X270000Y22928D02*
D03*
X221620Y7900D02*
D03*
X269986Y12368D02*
D03*
X166304Y18529D02*
D03*
X185880Y18600D02*
D03*
X221620Y33814D02*
D03*
X213273Y38000D02*
D03*
X197000D02*
D03*
X185880D02*
D03*
X166304D02*
D03*
X239000Y134000D02*
D03*
X226000D02*
D03*
X213000D02*
D03*
X200000D02*
D03*
X138000D02*
D03*
X151000D02*
D03*
X164000D02*
D03*
X177000D02*
D03*
X109781Y71318D02*
D03*
X118000Y88000D02*
D03*
X70235Y57887D02*
D03*
X49882D02*
D03*
X60000Y57957D02*
D03*
Y109000D02*
D03*
X49882D02*
D03*
X70235D02*
D03*
X95000Y106000D02*
D03*
X51000Y155432D02*
D03*
X97000Y155577D02*
D03*
X108962Y55038D02*
D03*
X266000Y153794D02*
D03*
X253000D02*
D03*
X252999Y137000D02*
D03*
X315000Y229000D02*
D03*
X321000Y237000D02*
D03*
X273360Y292360D02*
D03*
X288000Y337000D02*
D03*
Y331000D02*
D03*
Y325000D02*
D03*
X313480Y353980D02*
D03*
X430100Y553900D02*
D03*
X430000Y561000D02*
D03*
X171000Y591000D02*
D03*
X58000D02*
D03*
X246000Y498000D02*
D03*
X72000Y348800D02*
D03*
X355000Y229000D02*
D03*
Y241000D02*
D03*
X315000Y237000D02*
D03*
X321000Y229000D02*
D03*
X332330Y59000D02*
D03*
X354330D02*
D03*
X260000Y557530D02*
D03*
Y544480D02*
D03*
X224000Y314000D02*
D03*
X104930Y175540D02*
D03*
Y165540D02*
D03*
Y195540D02*
D03*
X112780Y348800D02*
D03*
X104930Y185540D02*
D03*
X100000Y30000D02*
D03*
X91000D02*
D03*
Y21000D02*
D03*
X100000D02*
D03*
Y12000D02*
D03*
X91000D02*
D03*
X425000Y516000D02*
D03*
Y522000D02*
D03*
Y510000D02*
D03*
X430000Y547000D02*
D03*
X421000Y587000D02*
D03*
X427000D02*
D03*
X225200Y569530D02*
D03*
X204920Y578770D02*
D03*
Y542000D02*
D03*
X219580Y522000D02*
D03*
Y511080D02*
D03*
X208660D02*
D03*
Y522000D02*
D03*
X305000Y466940D02*
D03*
X319500Y463500D02*
D03*
X129210Y275464D02*
D03*
X118000Y254000D02*
D03*
X105000Y125540D02*
D03*
Y135540D02*
D03*
X80860Y39140D02*
D03*
X109860D02*
D03*
D87*
X275450Y153794D02*
D03*
D88*
X271640Y129664D02*
D03*
D89*
X299330Y46304D02*
D03*
X310330D02*
D03*
X321330D02*
D03*
X332330D02*
D03*
X343330D02*
D03*
X354330D02*
D03*
X365330D02*
D03*
X376330D02*
D03*
D90*
X391080Y123554D02*
D03*
D91*
X388480Y138554D02*
D03*
D92*
X274830Y47554D02*
D03*
D93*
X388330D02*
D03*
M02*
