G04*
G04 #@! TF.GenerationSoftware,Altium Limited,Altium Designer,18.1.9 (240)*
G04*
G04 Layer_Color=32896*
%FSLAX44Y44*%
%MOMM*%
G71*
G01*
G75*
%ADD10C,0.2500*%
%ADD13C,0.2000*%
%ADD14C,0.2540*%
%ADD15C,0.1000*%
%ADD16C,0.1500*%
G36*
X574723Y459273D02*
Y458717D01*
Y457328D01*
Y455662D01*
Y453162D01*
Y449551D01*
Y445384D01*
Y430107D01*
X588056D01*
X588056Y409829D01*
X614445Y409829D01*
Y383718D01*
X635278D01*
Y369829D01*
X665000D01*
Y360941D01*
X635278D01*
Y353441D01*
X665000D01*
Y344830D01*
X635278D01*
Y337885D01*
X665000D01*
Y327886D01*
X635278D01*
Y321497D01*
X665000D01*
Y312330D01*
X635278D01*
Y298719D01*
X614445D01*
Y272608D01*
X588056Y272608D01*
X588056Y251775D01*
X574723D01*
Y222053D01*
X565557D01*
Y251775D01*
X558612D01*
Y222053D01*
X549168D01*
Y251775D01*
X542224D01*
Y222053D01*
X533057D01*
Y251775D01*
X526113D01*
Y222053D01*
X516668D01*
Y251775D01*
X503335D01*
X503335Y272608D01*
X477224D01*
Y298719D01*
X456947D01*
Y312330D01*
X427225Y312330D01*
Y321497D01*
X456947Y321497D01*
Y327886D01*
X427225Y327886D01*
Y337885D01*
X456947Y337885D01*
Y344830D01*
X427225Y344830D01*
Y353441D01*
X456947Y353441D01*
Y360941D01*
X427225Y360941D01*
Y369829D01*
X456947Y369829D01*
Y383718D01*
X477224D01*
Y409829D01*
X503335D01*
X503335Y430107D01*
X516668D01*
Y459828D01*
X526113D01*
Y430107D01*
X533057D01*
Y459828D01*
X542224D01*
Y430107D01*
X549168D01*
Y459828D01*
X558612D01*
Y430107D01*
X565557D01*
Y459828D01*
X574723D01*
Y459273D01*
D02*
G37*
G36*
X413336Y292330D02*
X392225D01*
Y339274D01*
X391948Y338996D01*
X391392Y337608D01*
X390837Y335941D01*
X390003Y334274D01*
X360837Y292330D01*
X335282D01*
X371948Y342885D01*
Y343163D01*
X371392Y343719D01*
X370559Y344830D01*
X369170Y346774D01*
X368337Y347885D01*
X366948Y349552D01*
X365559Y351496D01*
X364170Y353441D01*
X362226Y355941D01*
X360004Y358996D01*
X357781Y362052D01*
X355004Y365663D01*
X337504Y388440D01*
X362504D01*
X389448Y348163D01*
X389725Y347885D01*
X390281Y346774D01*
X391392Y345107D01*
X392225Y342885D01*
Y388440D01*
X413336D01*
Y292330D01*
D02*
G37*
G36*
X325560D02*
X305560D01*
Y347052D01*
Y347607D01*
Y348718D01*
Y350663D01*
Y352885D01*
X305838Y357885D01*
Y360385D01*
X306115Y362329D01*
X305838Y361774D01*
X305004Y360107D01*
X303615Y357885D01*
X301671Y354552D01*
X260838Y292330D01*
X240005D01*
Y388440D01*
X259172D01*
Y333719D01*
Y333163D01*
Y332052D01*
Y330385D01*
Y328441D01*
X258894Y323997D01*
Y322052D01*
X258616Y320386D01*
X259172D01*
X302782Y388440D01*
X325560D01*
Y292330D01*
D02*
G37*
G36*
X191117Y389829D02*
X194728Y389274D01*
X199172Y388440D01*
X203617Y387051D01*
X208061Y385385D01*
X212228Y382885D01*
X212783Y382607D01*
X213894Y381496D01*
X215561Y379829D01*
X217228Y377607D01*
X219172Y374829D01*
X220839Y371218D01*
X221950Y367052D01*
X222505Y362329D01*
Y362052D01*
Y361496D01*
X222227Y360663D01*
Y359274D01*
X221394Y355941D01*
X219728Y351774D01*
X218617Y349552D01*
X216950Y347330D01*
X215283Y345107D01*
X213061Y342607D01*
X210561Y340385D01*
X207505Y338163D01*
X203894Y336219D01*
X200006Y334274D01*
X199728D01*
X199450Y333997D01*
X197783Y333441D01*
X195283Y332330D01*
X192228Y330941D01*
X189172Y329552D01*
X186395Y327885D01*
X183895Y326219D01*
X182228Y324830D01*
X181950Y324552D01*
X181672Y324274D01*
X180561Y322608D01*
X179450Y320108D01*
X178895Y318719D01*
Y317052D01*
Y316774D01*
Y316497D01*
X179450Y314552D01*
X180006Y313441D01*
X180561Y312330D01*
X181672Y310941D01*
X183061Y309830D01*
X183339D01*
X183895Y309275D01*
X184728Y308997D01*
X186117Y308441D01*
X187784Y307886D01*
X190006Y307608D01*
X192784Y307052D01*
X197228D01*
X198339Y307330D01*
X201117Y307608D01*
X204450Y308163D01*
X208617Y309552D01*
X213061Y311219D01*
X217505Y313441D01*
X221950Y316774D01*
Y296497D01*
X221394Y296219D01*
X220005Y295664D01*
X217783Y294552D01*
X214450Y293719D01*
X210561Y292608D01*
X206117Y291497D01*
X200561Y290941D01*
X194728Y290664D01*
X191672D01*
X188617Y290941D01*
X184450Y291497D01*
X180006Y292330D01*
X175561Y293719D01*
X171117Y295386D01*
X167228Y297886D01*
X166673Y298164D01*
X165562Y299275D01*
X164173Y300941D01*
X162228Y303164D01*
X160562Y306219D01*
X158895Y309830D01*
X157784Y314275D01*
X157506Y319274D01*
Y319552D01*
Y320941D01*
X157784Y322608D01*
X158062Y324830D01*
X158895Y327330D01*
X159728Y329830D01*
X161117Y332608D01*
X162784Y335385D01*
X163062Y335663D01*
X163895Y336496D01*
X165006Y337885D01*
X167228Y339552D01*
X169728Y341496D01*
X173339Y343719D01*
X177506Y345941D01*
X182506Y348163D01*
X183061Y348441D01*
X184450Y348996D01*
X186395Y350107D01*
X188895Y351218D01*
X191672Y352607D01*
X194172Y353996D01*
X196117Y355385D01*
X197783Y356496D01*
Y356774D01*
X198339Y357052D01*
X199172Y358718D01*
X200006Y361218D01*
X200561Y364274D01*
Y364552D01*
Y365107D01*
X200006Y366774D01*
X199450Y367885D01*
X198617Y368996D01*
X197506Y370107D01*
X196117Y371218D01*
X195839D01*
X195283Y371496D01*
X194172Y372052D01*
X193061Y372607D01*
X191117Y372885D01*
X189172Y373440D01*
X186950Y373718D01*
X181950D01*
X179728Y373440D01*
X176395Y372885D01*
X173062Y372052D01*
X169173Y370941D01*
X165284Y369552D01*
X161395Y367329D01*
Y386496D01*
X161950Y386774D01*
X163062Y387051D01*
X165006Y387607D01*
X167784Y388440D01*
X171395Y388996D01*
X175561Y389551D01*
X180006Y389829D01*
X185284Y390107D01*
X188061D01*
X191117Y389829D01*
D02*
G37*
G36*
X114451Y389829D02*
X118340Y389273D01*
X122784Y388440D01*
X127229Y387051D01*
X131673Y385385D01*
X135840Y382885D01*
X136395Y382607D01*
X137506Y381496D01*
X138895Y379829D01*
X140840Y377607D01*
X142784Y374829D01*
X144173Y371218D01*
X145284Y367052D01*
X145840Y362329D01*
Y362052D01*
Y361496D01*
X145562Y360663D01*
Y359274D01*
X144728Y355941D01*
X143062Y351774D01*
X141673Y349552D01*
X140284Y347330D01*
X138340Y345107D01*
X136117Y342607D01*
X133617Y340385D01*
X130562Y338163D01*
X126951Y336219D01*
X123062Y334274D01*
X122784D01*
X122507Y333996D01*
X120840Y333441D01*
X118618Y332330D01*
X115562Y330941D01*
X112784Y329552D01*
X110007Y327885D01*
X107507Y326219D01*
X105840Y324830D01*
X105562Y324552D01*
X105285Y324274D01*
X103896Y322608D01*
X102785Y320108D01*
X102507Y318719D01*
X102229Y317052D01*
Y316774D01*
Y316497D01*
X102785Y314552D01*
X103340Y313441D01*
X104173Y312330D01*
X105285Y310941D01*
X106673Y309830D01*
X106951D01*
X107507Y309275D01*
X108340Y308997D01*
X109729Y308441D01*
X111673Y307886D01*
X113618Y307608D01*
X116118Y307052D01*
X120562D01*
X121673Y307330D01*
X124451Y307608D01*
X128062Y308163D01*
X132229Y309552D01*
X136395Y311219D01*
X140840Y313441D01*
X145284Y316774D01*
Y296497D01*
X144728Y296219D01*
X143340Y295664D01*
X141117Y294552D01*
X138062Y293719D01*
X134173Y292608D01*
X129451Y291497D01*
X124451Y290941D01*
X118618Y290664D01*
X115562D01*
X112507Y290941D01*
X108340Y291497D01*
X103896Y292330D01*
X99173Y293719D01*
X94729Y295386D01*
X90562Y297886D01*
X90007Y298164D01*
X88896Y299275D01*
X87507Y300941D01*
X85562Y303164D01*
X83618Y306219D01*
X82229Y309830D01*
X81118Y314275D01*
X80563Y319274D01*
Y319552D01*
Y320941D01*
X80840Y322608D01*
X81118Y324830D01*
X81952Y327330D01*
X82785Y329830D01*
X84174Y332608D01*
X85840Y335385D01*
X86118Y335663D01*
X86951Y336496D01*
X88340Y337885D01*
X90285Y339552D01*
X93062Y341496D01*
X96396Y343718D01*
X100562Y345941D01*
X105562Y348163D01*
X106118Y348441D01*
X107507Y348996D01*
X109729Y350107D01*
X111951Y351218D01*
X114729Y352607D01*
X117229Y353996D01*
X119451Y355385D01*
X121118Y356496D01*
Y356774D01*
X121673Y357052D01*
X122507Y358718D01*
X123618Y361218D01*
X123895Y362607D01*
X124173Y364274D01*
Y364552D01*
Y365107D01*
X123618Y366774D01*
X123062Y367885D01*
X122229Y368996D01*
X121118Y370107D01*
X119729Y371218D01*
X119451D01*
X118896Y371496D01*
X117784Y372052D01*
X116396Y372607D01*
X114729Y372885D01*
X112507Y373440D01*
X110285Y373718D01*
X105285D01*
X103062Y373440D01*
X99729Y372885D01*
X96396Y372052D01*
X92507Y370940D01*
X88618Y369552D01*
X84729Y367329D01*
Y386496D01*
X85285Y386774D01*
X86396Y387051D01*
X88618Y387607D01*
X91396Y388440D01*
X95007Y388996D01*
X98896Y389551D01*
X103618Y389829D01*
X108618Y390107D01*
X111396D01*
X114451Y389829D01*
D02*
G37*
%LPC*%
G36*
X581112Y419829D02*
X510280D01*
X510280Y409829D01*
X581112D01*
X581112Y414551D01*
Y416218D01*
Y417329D01*
Y418440D01*
Y418996D01*
Y419551D01*
Y419829D01*
D02*
G37*
G36*
X624723Y376774D02*
X614445D01*
Y376496D01*
Y375663D01*
Y374829D01*
Y373718D01*
Y372329D01*
Y370663D01*
Y368441D01*
Y365941D01*
Y363163D01*
Y359830D01*
Y355941D01*
Y351496D01*
Y346774D01*
Y341219D01*
Y305108D01*
X624723D01*
Y376774D01*
D02*
G37*
G36*
X477224Y376774D02*
X467225D01*
Y305108D01*
X477224D01*
Y341219D01*
Y346774D01*
Y351496D01*
Y355941D01*
Y359829D01*
Y363163D01*
Y365941D01*
Y368441D01*
Y370663D01*
Y372329D01*
Y373718D01*
Y374829D01*
Y375663D01*
Y376496D01*
Y376774D01*
D02*
G37*
G36*
X607501Y402885D02*
X484169Y402885D01*
Y278997D01*
X607501Y278997D01*
Y341219D01*
Y350941D01*
Y359552D01*
Y367052D01*
Y373718D01*
Y379552D01*
Y384552D01*
Y388718D01*
Y392329D01*
Y395385D01*
Y397607D01*
Y399551D01*
Y400940D01*
Y401773D01*
Y402329D01*
Y402885D01*
D02*
G37*
G36*
X581112Y272608D02*
X510280D01*
X510280Y262331D01*
X581112D01*
X581112Y267331D01*
Y268720D01*
Y269831D01*
Y271497D01*
Y272331D01*
Y272608D01*
D02*
G37*
%LPD*%
D10*
X254300Y70997D02*
Y62666D01*
X252634Y61000D01*
X249302D01*
X247635Y62666D01*
Y70997D01*
X244303Y61000D02*
X239305D01*
X237639Y62666D01*
X239305Y64332D01*
X242637D01*
X244303Y65998D01*
X242637Y67664D01*
X237639D01*
X229308Y61000D02*
X232640D01*
X234306Y62666D01*
Y65998D01*
X232640Y67664D01*
X229308D01*
X227642Y65998D01*
Y64332D01*
X234306D01*
X224310Y67664D02*
Y61000D01*
Y64332D01*
X222644Y65998D01*
X220977Y67664D01*
X219311D01*
X214313D02*
X212647D01*
Y65998D01*
X214313D01*
Y67664D01*
Y62666D02*
X212647D01*
Y61000D01*
X214313D01*
Y62666D01*
X195986Y61000D02*
Y67664D01*
X194319D01*
X192653Y65998D01*
Y61000D01*
Y65998D01*
X190987Y67664D01*
X189321Y65998D01*
Y61000D01*
X185989D02*
X182656D01*
X184322D01*
Y67664D01*
X185989D01*
X170993D02*
X175992D01*
X177658Y65998D01*
Y62666D01*
X175992Y61000D01*
X170993D01*
X167661Y67664D02*
Y61000D01*
Y64332D01*
X165995Y65998D01*
X164329Y67664D01*
X162663D01*
X155998Y61000D02*
X152666D01*
X151000Y62666D01*
Y65998D01*
X152666Y67664D01*
X155998D01*
X157664Y65998D01*
Y62666D01*
X155998Y61000D01*
X254300Y45000D02*
Y54997D01*
X249302D01*
X247635Y53331D01*
Y49998D01*
X249302Y48332D01*
X254300D01*
X242637Y51665D02*
X239305D01*
X237639Y49998D01*
Y45000D01*
X242637D01*
X244303Y46666D01*
X242637Y48332D01*
X237639D01*
X234306Y45000D02*
X229308D01*
X227642Y46666D01*
X229308Y48332D01*
X232640D01*
X234306Y49998D01*
X232640Y51665D01*
X227642D01*
X224310Y45000D02*
X219311D01*
X217645Y46666D01*
X219311Y48332D01*
X222644D01*
X224310Y49998D01*
X222644Y51665D01*
X217645D01*
X214313D02*
X212647D01*
Y49998D01*
X214313D01*
Y51665D01*
Y46666D02*
X212647D01*
Y45000D01*
X214313D01*
Y46666D01*
X195986Y41668D02*
Y51665D01*
X190987D01*
X189321Y49998D01*
Y46666D01*
X190987Y45000D01*
X195986D01*
X185989Y51665D02*
Y46666D01*
X184322Y45000D01*
X179324D01*
Y43334D01*
X180990Y41668D01*
X182656D01*
X179324Y45000D02*
Y51665D01*
X174326Y53331D02*
Y51665D01*
X175992D01*
X172660D01*
X174326D01*
Y46666D01*
X172660Y45000D01*
X167661Y54997D02*
Y45000D01*
Y49998D01*
X165995Y51665D01*
X162663D01*
X160997Y49998D01*
Y45000D01*
X155998D02*
X152666D01*
X151000Y46666D01*
Y49998D01*
X152666Y51665D01*
X155998D01*
X157664Y49998D01*
Y46666D01*
X155998Y45000D01*
X147668D02*
Y51665D01*
X142669D01*
X141003Y49998D01*
Y45000D01*
X254294Y109997D02*
X247630D01*
X250962D01*
Y100000D01*
X239299D02*
X242632D01*
X244298Y101666D01*
Y104998D01*
X242632Y106664D01*
X239299D01*
X237633Y104998D01*
Y103332D01*
X244298D01*
X234301Y100000D02*
X230969D01*
X232635D01*
Y109997D01*
X234301D01*
X225970Y100000D02*
Y106664D01*
X220972D01*
X219306Y104998D01*
Y100000D01*
X210975D02*
X214307D01*
X215973Y101666D01*
Y104998D01*
X214307Y106664D01*
X210975D01*
X209309Y104998D01*
Y103332D01*
X215973D01*
X204311Y108331D02*
Y106664D01*
X205977D01*
X202645D01*
X204311D01*
Y101666D01*
X202645Y100000D01*
X187649Y96668D02*
Y106664D01*
X182651D01*
X180985Y104998D01*
Y101666D01*
X182651Y100000D01*
X187649D01*
X175986D02*
X172654D01*
X170988Y101666D01*
Y104998D01*
X172654Y106664D01*
X175986D01*
X177652Y104998D01*
Y101666D01*
X175986Y100000D01*
X167656Y106664D02*
Y100000D01*
Y103332D01*
X165990Y104998D01*
X164324Y106664D01*
X162657D01*
X155993Y108331D02*
Y106664D01*
X157659D01*
X154327D01*
X155993D01*
Y101666D01*
X154327Y100000D01*
X132667D02*
X139332D01*
X132667Y106664D01*
Y108331D01*
X134333Y109997D01*
X137665D01*
X139332Y108331D01*
X129335D02*
X127669Y109997D01*
X124336D01*
X122670Y108331D01*
Y106664D01*
X124336Y104998D01*
X126003D01*
X124336D01*
X122670Y103332D01*
Y101666D01*
X124336Y100000D01*
X127669D01*
X129335Y101666D01*
X247635Y90997D02*
X254300D01*
Y85998D01*
X250968D01*
X254300D01*
Y81000D01*
X244303Y90997D02*
X237639D01*
X240971D01*
Y81000D01*
X234306D02*
Y90997D01*
X229308D01*
X227642Y89331D01*
Y85998D01*
X229308Y84332D01*
X234306D01*
X214313Y87664D02*
Y82666D01*
X212647Y81000D01*
X207648D01*
Y87664D01*
X204316Y81000D02*
Y87664D01*
X199318D01*
X197652Y85998D01*
Y81000D01*
X194319Y85998D02*
X187655D01*
X179324Y81000D02*
X182656D01*
X184322Y82666D01*
Y85998D01*
X182656Y87664D01*
X179324D01*
X177658Y85998D01*
Y84332D01*
X184322D01*
X174326Y81000D02*
Y87664D01*
X169327D01*
X167661Y85998D01*
Y81000D01*
X157664Y87664D02*
X162663D01*
X164329Y85998D01*
Y82666D01*
X162663Y81000D01*
X157664D01*
X154332Y87664D02*
Y81000D01*
Y84332D01*
X152666Y85998D01*
X151000Y87664D01*
X149334D01*
X144335D02*
Y82666D01*
X142669Y81000D01*
X137671D01*
Y79334D01*
X139337Y77668D01*
X141003D01*
X137671Y81000D02*
Y87664D01*
X134339Y77668D02*
Y87664D01*
X129340D01*
X127674Y85998D01*
Y82666D01*
X129340Y81000D01*
X134339D01*
X122676Y89331D02*
Y87664D01*
X124342D01*
X121010D01*
X122676D01*
Y82666D01*
X121010Y81000D01*
X111013D02*
X114345D01*
X116011Y82666D01*
Y85998D01*
X114345Y87664D01*
X111013D01*
X109347Y85998D01*
Y84332D01*
X116011D01*
X99350Y90997D02*
Y81000D01*
X104348D01*
X106014Y82666D01*
Y85998D01*
X104348Y87664D01*
X99350D01*
X247630Y158331D02*
X249296Y159997D01*
X252628D01*
X254294Y158331D01*
Y156664D01*
X252628Y154998D01*
X249296D01*
X247630Y153332D01*
Y151666D01*
X249296Y150000D01*
X252628D01*
X254294Y151666D01*
X237633Y158331D02*
X239299Y159997D01*
X242632D01*
X244298Y158331D01*
Y156664D01*
X242632Y154998D01*
X239299D01*
X237633Y153332D01*
Y151666D01*
X239299Y150000D01*
X242632D01*
X244298Y151666D01*
X234301Y159997D02*
X230969D01*
X232635D01*
Y150000D01*
X234301D01*
X230969D01*
X225970Y159997D02*
Y150000D01*
X220972D01*
X219306Y151666D01*
Y158331D01*
X220972Y159997D01*
X225970D01*
X215973Y156664D02*
X214307D01*
Y154998D01*
X215973D01*
Y156664D01*
Y151666D02*
X214307D01*
Y150000D01*
X215973D01*
Y151666D01*
X197646Y156664D02*
Y151666D01*
X195980Y150000D01*
X194314Y151666D01*
X192648Y150000D01*
X190982Y151666D01*
Y156664D01*
X187649Y150000D02*
X184317D01*
X185983D01*
Y156664D01*
X187649D01*
X179319Y146668D02*
Y156664D01*
X174320D01*
X172654Y154998D01*
Y151666D01*
X174320Y150000D01*
X179319D01*
X169322Y156664D02*
Y151666D01*
X167656Y150000D01*
X162657D01*
Y148334D01*
X164324Y146668D01*
X165990D01*
X162657Y150000D02*
Y156664D01*
X159325Y154998D02*
X152661D01*
X149328Y156664D02*
Y151666D01*
X147662Y150000D01*
X145996Y151666D01*
X144330Y150000D01*
X142664Y151666D01*
Y156664D01*
X139332Y150000D02*
X135999D01*
X137665D01*
Y159997D01*
X139332D01*
X129335Y156664D02*
X126003D01*
X124336Y154998D01*
Y150000D01*
X129335D01*
X131001Y151666D01*
X129335Y153332D01*
X124336D01*
X121004Y150000D02*
Y156664D01*
X116006D01*
X114340Y154998D01*
Y150000D01*
X111007Y154998D02*
X104343D01*
X101011Y159997D02*
X94346Y150000D01*
Y159997D02*
X101011Y150000D01*
X91014Y159997D02*
X84349Y150000D01*
Y159997D02*
X91014Y150000D01*
X81017Y159997D02*
X74352Y150000D01*
Y159997D02*
X81017Y150000D01*
X71020Y159997D02*
X64356Y150000D01*
Y159997D02*
X71020Y150000D01*
X254294Y130000D02*
Y139997D01*
X249296D01*
X247630Y138331D01*
Y134998D01*
X249296Y133332D01*
X254294D01*
X244298Y130000D02*
Y136664D01*
X240965Y139997D01*
X237633Y136664D01*
Y130000D01*
Y134998D01*
X244298D01*
X227636Y138331D02*
X229303Y139997D01*
X232635D01*
X234301Y138331D01*
Y136664D01*
X232635Y134998D01*
X229303D01*
X227636Y133332D01*
Y131666D01*
X229303Y130000D01*
X232635D01*
X234301Y131666D01*
X217640Y138331D02*
X219306Y139997D01*
X222638D01*
X224304Y138331D01*
Y136664D01*
X222638Y134998D01*
X219306D01*
X217640Y133332D01*
Y131666D01*
X219306Y130000D01*
X222638D01*
X224304Y131666D01*
X214307Y136664D02*
X212641D01*
Y134998D01*
X214307D01*
Y136664D01*
Y131666D02*
X212641D01*
Y130000D01*
X214307D01*
Y131666D01*
X195980Y136664D02*
Y131666D01*
X194314Y130000D01*
X192648Y131666D01*
X190982Y130000D01*
X189315Y131666D01*
Y136664D01*
X185983D02*
Y131666D01*
X184317Y130000D01*
X182651Y131666D01*
X180985Y130000D01*
X179319Y131666D01*
Y136664D01*
X175986D02*
Y131666D01*
X174320Y130000D01*
X172654Y131666D01*
X170988Y130000D01*
X169322Y131666D01*
Y136664D01*
X165990Y130000D02*
Y131666D01*
X164324D01*
Y130000D01*
X165990D01*
X157659Y126668D02*
Y136664D01*
X152661D01*
X150995Y134998D01*
Y131666D01*
X152661Y130000D01*
X157659D01*
X147662Y136664D02*
Y131666D01*
X145996Y130000D01*
X140998D01*
Y128334D01*
X142664Y126668D01*
X144330D01*
X140998Y130000D02*
Y136664D01*
X131001D02*
X135999D01*
X137665Y134998D01*
Y131666D01*
X135999Y130000D01*
X131001D01*
X126003D02*
X122670D01*
X121004Y131666D01*
Y134998D01*
X122670Y136664D01*
X126003D01*
X127669Y134998D01*
Y131666D01*
X126003Y130000D01*
X117672D02*
Y136664D01*
X116006D01*
X114340Y134998D01*
Y130000D01*
Y134998D01*
X112674Y136664D01*
X111007Y134998D01*
Y130000D01*
X107675D02*
Y131666D01*
X106009D01*
Y130000D01*
X107675D01*
X99344D02*
X96012D01*
X97678D01*
Y136664D01*
X99344D01*
X89348Y130000D02*
X86015D01*
X84349Y131666D01*
Y134998D01*
X86015Y136664D01*
X89348D01*
X91014Y134998D01*
Y131666D01*
X89348Y130000D01*
D13*
X402000Y617300D02*
Y625300D01*
D14*
X90336Y591997D02*
X97000D01*
Y586998D01*
X93668D01*
X97000D01*
Y582000D01*
X87003Y590331D02*
X85337Y591997D01*
X82005D01*
X80339Y590331D01*
Y588665D01*
X82005Y586998D01*
X83671D01*
X82005D01*
X80339Y585332D01*
Y583666D01*
X82005Y582000D01*
X85337D01*
X87003Y583666D01*
X504637Y827115D02*
X507970D01*
X506304D01*
Y818784D01*
X507970Y817118D01*
X509636D01*
X511302Y818784D01*
X501305Y817118D02*
X497973D01*
X499639D01*
Y827115D01*
X501305Y825449D01*
X486310Y827115D02*
X489642Y825449D01*
X492975Y822116D01*
Y818784D01*
X491308Y817118D01*
X487976D01*
X486310Y818784D01*
Y820450D01*
X487976Y822116D01*
X492975D01*
X364670Y20696D02*
Y30693D01*
X359672D01*
X358005Y29027D01*
Y25694D01*
X359672Y24028D01*
X364670D01*
X349675Y20696D02*
Y30693D01*
X354673Y25694D01*
X348009D01*
D15*
X503251Y629499D02*
Y799099D01*
X364751D02*
X503251D01*
X364751Y629499D02*
Y799099D01*
Y629499D02*
X503251D01*
X414690Y145870D02*
Y156030D01*
X306740D02*
X414690D01*
X295310Y138250D02*
Y143330D01*
Y56970D02*
Y120470D01*
X308010Y40030D02*
X316900D01*
X414690Y56970D02*
Y114120D01*
D16*
X430335Y623831D02*
X431501Y624998D01*
X433834D01*
X435000Y623831D01*
Y619166D01*
X433834Y618000D01*
X431501D01*
X430335Y619166D01*
X424503Y618000D02*
Y624998D01*
X428002Y621499D01*
X423337D01*
X421004Y623831D02*
X419838Y624998D01*
X417506D01*
X416339Y623831D01*
Y619166D01*
X417506Y618000D01*
X419838D01*
X421004Y619166D01*
Y623831D01*
M02*
