G04*
G04 #@! TF.GenerationSoftware,Altium Limited,Altium Designer,18.1.9 (240)*
G04*
G04 Layer_Physical_Order=1*
G04 Layer_Color=255*
%FSLAX44Y44*%
%MOMM*%
G71*
G01*
G75*
%ADD13C,0.2000*%
%ADD14C,0.2540*%
%ADD19R,0.7000X0.9000*%
%ADD20R,0.5000X1.5000*%
%ADD21R,0.6000X0.8000*%
%ADD22R,0.8000X0.7000*%
%ADD23R,0.7000X0.8000*%
%ADD24R,0.8000X0.6000*%
%ADD25R,2.0000X3.0000*%
%ADD26R,1.0000X1.2000*%
%ADD27R,8.4500X8.0000*%
%ADD28R,1.8000X1.3000*%
%ADD29R,1.7500X2.6500*%
%ADD30R,1.5000X0.5000*%
%ADD31R,1.0000X0.6500*%
%ADD32R,1.0000X1.6000*%
%ADD33R,3.0000X3.2000*%
%ADD34R,1.2000X0.8000*%
%ADD35R,1.5000X0.7500*%
%ADD36R,0.2000X0.7000*%
%ADD37R,1.0000X1.0000*%
%ADD38R,1.0000X1.0000*%
%ADD39R,1.2000X0.5500*%
%ADD40R,0.9000X1.0000*%
%ADD41R,3.0000X0.3200*%
%ADD42R,1.6000X2.7000*%
%ADD43R,1.6000X1.8000*%
G04:AMPARAMS|DCode=44|XSize=0.2mm|YSize=0.4mm|CornerRadius=0.02mm|HoleSize=0mm|Usage=FLASHONLY|Rotation=180.000|XOffset=0mm|YOffset=0mm|HoleType=Round|Shape=RoundedRectangle|*
%AMROUNDEDRECTD44*
21,1,0.2000,0.3600,0,0,180.0*
21,1,0.1600,0.4000,0,0,180.0*
1,1,0.0400,-0.0800,0.1800*
1,1,0.0400,0.0800,0.1800*
1,1,0.0400,0.0800,-0.1800*
1,1,0.0400,-0.0800,-0.1800*
%
%ADD44ROUNDEDRECTD44*%
G04:AMPARAMS|DCode=45|XSize=0.2mm|YSize=0.7mm|CornerRadius=0.02mm|HoleSize=0mm|Usage=FLASHONLY|Rotation=270.000|XOffset=0mm|YOffset=0mm|HoleType=Round|Shape=RoundedRectangle|*
%AMROUNDEDRECTD45*
21,1,0.2000,0.6600,0,0,270.0*
21,1,0.1600,0.7000,0,0,270.0*
1,1,0.0400,-0.3300,-0.0800*
1,1,0.0400,-0.3300,0.0800*
1,1,0.0400,0.3300,0.0800*
1,1,0.0400,0.3300,-0.0800*
%
%ADD45ROUNDEDRECTD45*%
%ADD46R,0.9000X0.7000*%
%ADD47R,2.5000X2.0000*%
%ADD48R,3.3000X2.0000*%
%ADD49R,3.3000X0.5000*%
%ADD50R,1.2000X1.4000*%
%ADD51R,2.6000X2.0000*%
%ADD52R,2.0000X2.5000*%
%ADD53R,2.0000X2.5500*%
%ADD54R,0.8000X1.2000*%
%ADD55R,2.2000X1.0500*%
%ADD56R,1.0500X1.0000*%
%ADD57R,1.4000X2.1000*%
%ADD58R,0.7000X1.8500*%
%ADD59R,1.8500X0.7000*%
G04:AMPARAMS|DCode=60|XSize=0.2mm|YSize=0.4mm|CornerRadius=0.02mm|HoleSize=0mm|Usage=FLASHONLY|Rotation=90.000|XOffset=0mm|YOffset=0mm|HoleType=Round|Shape=RoundedRectangle|*
%AMROUNDEDRECTD60*
21,1,0.2000,0.3600,0,0,90.0*
21,1,0.1600,0.4000,0,0,90.0*
1,1,0.0400,0.1800,0.0800*
1,1,0.0400,0.1800,-0.0800*
1,1,0.0400,-0.1800,-0.0800*
1,1,0.0400,-0.1800,0.0800*
%
%ADD60ROUNDEDRECTD60*%
G04:AMPARAMS|DCode=61|XSize=0.2mm|YSize=0.7mm|CornerRadius=0.02mm|HoleSize=0mm|Usage=FLASHONLY|Rotation=180.000|XOffset=0mm|YOffset=0mm|HoleType=Round|Shape=RoundedRectangle|*
%AMROUNDEDRECTD61*
21,1,0.2000,0.6600,0,0,180.0*
21,1,0.1600,0.7000,0,0,180.0*
1,1,0.0400,-0.0800,0.3300*
1,1,0.0400,0.0800,0.3300*
1,1,0.0400,0.0800,-0.3300*
1,1,0.0400,-0.0800,-0.3300*
%
%ADD61ROUNDEDRECTD61*%
%ADD62R,1.4000X1.2000*%
%ADD63R,2.0000X3.3000*%
%ADD64R,0.5000X3.3000*%
%ADD65R,1.4400X0.4400*%
%ADD66R,0.2000X0.3500*%
%ADD67R,1.8000X1.8000*%
%ADD68R,0.3000X0.9000*%
%ADD69R,0.3000X0.3000*%
%ADD70R,0.3000X0.3000*%
%ADD71R,0.9000X0.3000*%
%ADD72R,1.9000X1.3000*%
%ADD73R,0.8500X0.4500*%
%ADD74R,1.6000X2.5000*%
%ADD136R,0.6000X1.6000*%
%ADD137R,1.6000X0.6000*%
%ADD138C,0.2032*%
%ADD139C,0.6000*%
%ADD140C,0.2030*%
%ADD141C,0.4000*%
%ADD142C,1.0000*%
%ADD143C,0.9000*%
%ADD144R,1.5000X1.5000*%
%ADD145C,1.5000*%
%ADD146R,1.5000X1.5000*%
%ADD147C,2.1000*%
%ADD148C,2.3000*%
%ADD149C,0.6000*%
G36*
X744392Y812365D02*
X741423Y812361D01*
X740524Y813258D01*
Y815730D01*
X731476D01*
Y812347D01*
X689000Y812290D01*
X689000Y732310D01*
X723653Y732302D01*
X724194Y731031D01*
X723644Y729703D01*
X723533Y728863D01*
X717250Y722580D01*
X713000D01*
X713000Y722580D01*
X701000D01*
X699297Y722356D01*
X697710Y721699D01*
X696831Y721024D01*
X695476D01*
Y721024D01*
X694524D01*
Y721024D01*
X693169D01*
X692290Y721699D01*
X690703Y722356D01*
X689000Y722580D01*
X640400D01*
X638697Y722356D01*
X637110Y721699D01*
X635747Y720653D01*
X553974Y638880D01*
X548624D01*
Y641030D01*
X539100D01*
X529576D01*
Y637776D01*
X529576Y637776D01*
Y636824D01*
X529576D01*
X529576Y636506D01*
Y627776D01*
X534348D01*
X534447Y627647D01*
X535810Y626601D01*
X537397Y625944D01*
X539100Y625720D01*
X556700D01*
X558403Y625944D01*
X559990Y626601D01*
X561353Y627647D01*
X643126Y709420D01*
X672476D01*
Y705270D01*
X677000D01*
X681524D01*
Y709420D01*
X689000D01*
X690703Y709644D01*
X692290Y710301D01*
X693169Y710976D01*
X694524D01*
Y710976D01*
X695476D01*
Y710976D01*
X696831D01*
X697710Y710301D01*
X699297Y709644D01*
X701000Y709420D01*
X708476D01*
Y705270D01*
X713000D01*
X717524D01*
Y709420D01*
X719976D01*
X721679Y709644D01*
X723266Y710301D01*
X724629Y711347D01*
X734653Y721371D01*
X735699Y722734D01*
X736356Y724321D01*
X736580Y726024D01*
Y728000D01*
X736422Y729206D01*
X737126Y730268D01*
X737411Y730476D01*
X737500D01*
Y740000D01*
X744000D01*
Y730476D01*
X744392D01*
Y394327D01*
X743122Y393801D01*
X736124Y400799D01*
Y412324D01*
X731713D01*
Y533971D01*
X731361Y535736D01*
X730362Y537233D01*
X708333Y559262D01*
X706836Y560261D01*
X705071Y560613D01*
X278720Y560613D01*
X261166Y578166D01*
X260000Y578650D01*
X241000D01*
X239834Y578166D01*
X235834Y574166D01*
X235350Y573000D01*
Y569678D01*
X235247Y569524D01*
X234270D01*
Y565000D01*
Y560476D01*
X234589D01*
X235350Y559578D01*
X234745Y558524D01*
X231270D01*
Y551000D01*
Y543476D01*
X235350D01*
Y543000D01*
X235834Y541834D01*
X240520Y537147D01*
X240034Y535974D01*
X231270D01*
Y495720D01*
X273774D01*
Y535350D01*
X275000D01*
X276166Y535834D01*
X279166Y538834D01*
X279650Y540000D01*
Y551387D01*
X703160Y551387D01*
X722487Y532060D01*
Y412324D01*
X718076D01*
Y394276D01*
X729601D01*
X736387Y387489D01*
Y382378D01*
X735117Y382125D01*
X734982Y382451D01*
X733536Y384336D01*
X731651Y385782D01*
X729456Y386692D01*
X727100Y387002D01*
X724744Y386692D01*
X722549Y385782D01*
X720664Y384336D01*
X719218Y382451D01*
X718308Y380256D01*
X717998Y377900D01*
X718308Y375544D01*
X719218Y373349D01*
X720664Y371464D01*
X722549Y370018D01*
X724744Y369108D01*
X727100Y368798D01*
X729456Y369108D01*
X731651Y370018D01*
X733536Y371464D01*
X734982Y373349D01*
X735117Y373675D01*
X736387Y373422D01*
Y356978D01*
X735117Y356725D01*
X734982Y357051D01*
X733536Y358936D01*
X731651Y360382D01*
X729456Y361292D01*
X727100Y361602D01*
X724744Y361292D01*
X722783Y360479D01*
X708590Y374673D01*
Y477876D01*
X711524D01*
Y486924D01*
X710050D01*
Y490986D01*
X712984D01*
Y506034D01*
X701936D01*
Y490986D01*
X704870D01*
Y486924D01*
X700476D01*
Y486924D01*
X699524D01*
Y486924D01*
X694092D01*
X693567Y488194D01*
X694291Y488919D01*
X694853Y489759D01*
X695050Y490750D01*
Y490986D01*
X697984D01*
Y506034D01*
X686936D01*
Y491590D01*
X683000D01*
X682009Y491393D01*
X681169Y490831D01*
X679084Y488746D01*
X677814Y489272D01*
Y490024D01*
X675358D01*
X674679Y491294D01*
X674683Y491299D01*
X674880Y492290D01*
Y492616D01*
X677814D01*
Y502664D01*
X666766D01*
Y502664D01*
X665814D01*
Y502664D01*
X654766D01*
Y502156D01*
X653593Y501670D01*
X650634Y504629D01*
Y509644D01*
X651807Y510130D01*
X653429Y508509D01*
X654269Y507947D01*
X654766Y507849D01*
Y505316D01*
X665496D01*
X665814Y505316D01*
X666766D01*
X667084Y505316D01*
X677814D01*
Y507750D01*
X685340D01*
X686331Y507947D01*
X687171Y508509D01*
X694291Y515629D01*
X694853Y516469D01*
X695035Y517386D01*
X697984D01*
Y522557D01*
X699254Y523083D01*
X699259Y523079D01*
X700099Y522517D01*
X701090Y522320D01*
X701936D01*
Y517386D01*
X712984D01*
Y532434D01*
X702590D01*
Y532540D01*
X702393Y533531D01*
X701831Y534371D01*
X700873Y535329D01*
X700033Y535891D01*
X699042Y536088D01*
X676498D01*
X675507Y535891D01*
X674667Y535329D01*
X670459Y531121D01*
X669897Y530281D01*
X669700Y529290D01*
Y528064D01*
X667084D01*
X666766Y528064D01*
X665814D01*
X665496Y528064D01*
X662880D01*
Y530310D01*
X662683Y531301D01*
X662121Y532141D01*
X645779Y548483D01*
X644939Y549045D01*
X643948Y549242D01*
X305594D01*
X304603Y549045D01*
X303763Y548483D01*
X280917Y525637D01*
X280355Y524797D01*
X280158Y523806D01*
Y449821D01*
X257927Y427590D01*
X20000D01*
X19009Y427393D01*
X18169Y426831D01*
X6781Y415443D01*
X5608Y415930D01*
Y525400D01*
X6781Y525886D01*
X12834Y519834D01*
X14000Y519350D01*
X102317D01*
X129834Y491834D01*
X131000Y491350D01*
X155726D01*
X156633Y491726D01*
X176274D01*
Y521274D01*
X156633D01*
X155726Y521650D01*
X146683D01*
X122690Y545642D01*
X121524Y546126D01*
Y577524D01*
X99909D01*
X99642Y578166D01*
X98476Y578650D01*
X61524D01*
X60358Y578166D01*
X60092Y577524D01*
X39908D01*
X39642Y578166D01*
X38476Y578650D01*
X5608D01*
Y866463D01*
X6878Y866715D01*
X7824Y864432D01*
X9911Y861711D01*
X12632Y859624D01*
X15800Y858311D01*
X17930Y858031D01*
Y871000D01*
Y883969D01*
X15800Y883689D01*
X12632Y882376D01*
X9911Y880289D01*
X7824Y877568D01*
X6878Y875285D01*
X5608Y875537D01*
Y894392D01*
X577706D01*
Y887963D01*
X576436Y886849D01*
X576000Y886906D01*
X549000D01*
X547297Y886682D01*
X545710Y886025D01*
X545318Y885724D01*
X543476D01*
X543476Y885724D01*
X542524D01*
Y885724D01*
X542206Y885724D01*
X541169D01*
X540290Y886399D01*
X538703Y887056D01*
X537000Y887280D01*
X513700D01*
X511997Y887056D01*
X510410Y886399D01*
X509047Y885353D01*
X484447Y860753D01*
X483401Y859390D01*
X482744Y857803D01*
X482520Y856100D01*
Y841824D01*
X480370D01*
Y832300D01*
Y822776D01*
X483624D01*
X483624Y822776D01*
X484576D01*
Y822776D01*
X484894Y822776D01*
X493306D01*
X493624Y822776D01*
Y822776D01*
X494576D01*
Y822776D01*
X497830D01*
Y832300D01*
Y841824D01*
X495680D01*
Y853374D01*
X516426Y874120D01*
X520476D01*
Y869970D01*
X525000D01*
X529524D01*
Y874120D01*
X537000D01*
X538703Y874344D01*
X540290Y875001D01*
X541169Y875676D01*
X542524D01*
Y875676D01*
X543476D01*
X544649Y875441D01*
X545710Y874627D01*
X547297Y873970D01*
X549000Y873746D01*
X556476D01*
Y869970D01*
X561000D01*
X565524D01*
Y873746D01*
X576000D01*
X577090Y873889D01*
X578360Y872994D01*
X578360Y853121D01*
X619000Y853111D01*
X619000Y893494D01*
X619898Y894392D01*
X744392D01*
Y812365D01*
D02*
G37*
G36*
X734500Y727000D02*
X728000D01*
Y740000D01*
X734500D01*
Y727000D01*
D02*
G37*
G36*
X98476Y562270D02*
X110000D01*
Y561000D01*
X111270D01*
Y544476D01*
X121524D01*
X146000Y520000D01*
X155726D01*
Y507770D01*
X166000D01*
Y505230D01*
X155726D01*
Y493000D01*
X131000D01*
X103000Y521000D01*
X14000D01*
X5608Y529392D01*
Y577000D01*
X38476D01*
Y562270D01*
X50000D01*
X61524D01*
Y577000D01*
X98476D01*
Y562270D01*
D02*
G37*
G36*
X278000Y559000D02*
Y540000D01*
X275000Y537000D01*
X243000Y537000D01*
X237000Y543000D01*
Y559578D01*
X237847Y560424D01*
X238270Y560476D01*
X239476Y560476D01*
X239794Y560476D01*
X243730D01*
Y565000D01*
Y569524D01*
X239794D01*
X239476Y569524D01*
X238524D01*
X238270Y569524D01*
X237000Y569678D01*
Y573000D01*
X241000Y577000D01*
X260000D01*
X278000Y559000D01*
D02*
G37*
G36*
X645454Y531425D02*
Y503556D01*
X645651Y502565D01*
X646213Y501725D01*
X652129Y495809D01*
X652969Y495247D01*
X653960Y495050D01*
X654766D01*
Y492616D01*
X658294D01*
X658780Y491443D01*
X658459Y491121D01*
X657897Y490281D01*
X657846Y490024D01*
X654766D01*
Y479976D01*
X665814D01*
Y479976D01*
X666766D01*
Y479976D01*
X677814D01*
Y482410D01*
X679000D01*
X679991Y482607D01*
X680831Y483169D01*
X684073Y486410D01*
X688476D01*
Y483670D01*
X694000D01*
Y482400D01*
X695270D01*
Y477876D01*
X699524D01*
Y477876D01*
X700476D01*
Y477876D01*
X703410D01*
Y373600D01*
X703607Y372609D01*
X704169Y371769D01*
X719121Y356817D01*
X718308Y354856D01*
X717998Y352500D01*
X718298Y350221D01*
X673689Y305613D01*
X655600D01*
X653835Y305261D01*
X652338Y304262D01*
X651889Y303589D01*
X626972D01*
X596659Y333902D01*
Y357930D01*
X596462Y358921D01*
X595900Y359761D01*
X592887Y362774D01*
X593359Y364099D01*
X594565Y364338D01*
X596062Y365338D01*
X597062Y366835D01*
X597413Y368600D01*
X597062Y370365D01*
X596062Y371862D01*
X594565Y372862D01*
X592800Y373213D01*
X591035Y372862D01*
X589538Y371862D01*
X589090Y371190D01*
X580524D01*
Y377876D01*
Y384610D01*
X581200D01*
X582191Y384807D01*
X583031Y385369D01*
X588831Y391169D01*
X589393Y392009D01*
X589590Y393000D01*
Y417927D01*
X593331Y421669D01*
X593893Y422509D01*
X594090Y423500D01*
Y427476D01*
X597524D01*
Y440524D01*
X585476D01*
Y427476D01*
X588910D01*
Y424573D01*
X585169Y420831D01*
X584607Y419991D01*
X584410Y419000D01*
Y406048D01*
X583140Y405522D01*
X579590Y409073D01*
Y427476D01*
X583524D01*
Y440524D01*
X570476D01*
Y427476D01*
X574410D01*
Y408000D01*
X574607Y407009D01*
X575169Y406169D01*
X577440Y403897D01*
X576954Y402724D01*
X548590D01*
Y427476D01*
X552524D01*
Y440524D01*
X539476D01*
Y427476D01*
X543410D01*
Y401300D01*
X543607Y400309D01*
X544169Y399469D01*
X545869Y397769D01*
X546709Y397207D01*
X547476Y397055D01*
Y390276D01*
Y383590D01*
X545900D01*
X544909Y383393D01*
X544069Y382831D01*
X531562Y370325D01*
X531001Y369485D01*
X530804Y368494D01*
Y329467D01*
X527327Y325990D01*
X514800D01*
X513809Y325793D01*
X512969Y325231D01*
X501562Y313825D01*
X501001Y312985D01*
X500804Y311994D01*
Y285466D01*
X496792Y281455D01*
X496000Y281613D01*
X494235Y281262D01*
X492738Y280262D01*
X491739Y278765D01*
X491387Y277000D01*
X491739Y275235D01*
X492642Y273883D01*
X492477Y273249D01*
X492137Y272613D01*
X353000D01*
X351235Y272262D01*
X349738Y271262D01*
X337766Y259289D01*
X336596Y259915D01*
X336613Y260000D01*
X336261Y261765D01*
X335262Y263262D01*
X334590Y263710D01*
Y268127D01*
X344831Y278369D01*
X345393Y279209D01*
X345590Y280200D01*
Y437840D01*
X381160Y473410D01*
X440250D01*
X441241Y473607D01*
X442081Y474169D01*
X458903Y490990D01*
X460076Y490504D01*
Y485975D01*
X478124D01*
Y504023D01*
X460076D01*
Y497589D01*
X459249D01*
X458258Y497392D01*
X457418Y496830D01*
X453854Y493266D01*
X452651Y493859D01*
X452801Y495000D01*
X452491Y497356D01*
X451582Y499551D01*
X450135Y501436D01*
X448250Y502882D01*
X446055Y503792D01*
X443699Y504102D01*
X441343Y503792D01*
X439148Y502882D01*
X437263Y501436D01*
X435817Y499551D01*
X434907Y497356D01*
X434597Y495000D01*
X434907Y492644D01*
X435720Y490683D01*
X427626Y482590D01*
X411211D01*
X410725Y483763D01*
X413982Y487021D01*
X415943Y486208D01*
X418299Y485898D01*
X420655Y486208D01*
X422850Y487118D01*
X424735Y488564D01*
X426182Y490449D01*
X427091Y492644D01*
X427401Y495000D01*
X427091Y497356D01*
X426182Y499551D01*
X424735Y501436D01*
X422850Y502882D01*
X420655Y503792D01*
X418299Y504102D01*
X415943Y503792D01*
X413748Y502882D01*
X411863Y501436D01*
X410417Y499551D01*
X409507Y497356D01*
X409197Y495000D01*
X409507Y492644D01*
X410320Y490683D01*
X406227Y486590D01*
X401923D01*
Y504024D01*
X383875D01*
Y497565D01*
X383009Y497393D01*
X382169Y496831D01*
X377774Y492437D01*
X376406Y492666D01*
X376309Y492767D01*
X376603Y495001D01*
X376292Y497356D01*
X375383Y499552D01*
X373937Y501437D01*
X372052Y502883D01*
X369856Y503792D01*
X367501Y504103D01*
X365145Y503792D01*
X363184Y502980D01*
X359926Y506238D01*
X360412Y507411D01*
X478427D01*
X486521Y499317D01*
X485708Y497355D01*
X485398Y494999D01*
X485708Y492644D01*
X486618Y490448D01*
X488064Y488563D01*
X489949Y487117D01*
X492144Y486208D01*
X494500Y485897D01*
X496856Y486208D01*
X499051Y487117D01*
X500936Y488563D01*
X502383Y490448D01*
X503292Y492644D01*
X503602Y494999D01*
X503292Y497355D01*
X502383Y499550D01*
X500936Y501435D01*
X499051Y502882D01*
X496856Y503791D01*
X494500Y504101D01*
X492144Y503791D01*
X490182Y502978D01*
X481330Y511830D01*
X480490Y512392D01*
X479499Y512589D01*
X478124D01*
Y529424D01*
X460076D01*
Y512589D01*
X450319D01*
X449911Y513791D01*
X450135Y513963D01*
X451582Y515848D01*
X452491Y518044D01*
X452801Y520399D01*
X452491Y522755D01*
X451582Y524950D01*
X450135Y526835D01*
X448250Y528282D01*
X446055Y529191D01*
X443699Y529501D01*
X441343Y529191D01*
X439148Y528282D01*
X437263Y526835D01*
X435817Y524950D01*
X434907Y522755D01*
X434597Y520399D01*
X434907Y518044D01*
X435817Y515848D01*
X437263Y513963D01*
X437487Y513791D01*
X437079Y512589D01*
X424919D01*
X424511Y513791D01*
X424735Y513963D01*
X426182Y515848D01*
X427091Y518044D01*
X427401Y520399D01*
X427091Y522755D01*
X426182Y524950D01*
X424735Y526835D01*
X422850Y528282D01*
X420655Y529191D01*
X418299Y529501D01*
X415943Y529191D01*
X413748Y528282D01*
X411863Y526835D01*
X410417Y524950D01*
X409507Y522755D01*
X409197Y520399D01*
X409507Y518044D01*
X410417Y515848D01*
X411863Y513963D01*
X412087Y513791D01*
X411679Y512589D01*
X401923D01*
Y529423D01*
X383875D01*
Y512589D01*
X374119D01*
X373711Y513791D01*
X373937Y513965D01*
X375383Y515850D01*
X376292Y518045D01*
X376603Y520401D01*
X376292Y522757D01*
X375383Y524952D01*
X373937Y526837D01*
X372052Y528283D01*
X369856Y529193D01*
X367501Y529503D01*
X365145Y529193D01*
X362950Y528283D01*
X361065Y526837D01*
X359618Y524952D01*
X358709Y522757D01*
X358399Y520401D01*
X358709Y518045D01*
X359618Y515850D01*
X361065Y513965D01*
X361291Y513791D01*
X360883Y512589D01*
X348719D01*
X348311Y513791D01*
X348537Y513965D01*
X349983Y515850D01*
X350892Y518045D01*
X351203Y520401D01*
X350892Y522757D01*
X349983Y524952D01*
X348537Y526837D01*
X346652Y528283D01*
X344456Y529193D01*
X342101Y529503D01*
X339745Y529193D01*
X337550Y528283D01*
X335665Y526837D01*
X334218Y524952D01*
X333309Y522757D01*
X332999Y520401D01*
X333309Y518045D01*
X334218Y515850D01*
X335665Y513965D01*
X335891Y513791D01*
X335483Y512589D01*
X325725D01*
Y529425D01*
X310340D01*
X309855Y530553D01*
X310558Y531410D01*
X332290D01*
X332738Y530738D01*
X334235Y529739D01*
X336000Y529387D01*
X337765Y529739D01*
X339262Y530738D01*
X340261Y532235D01*
X340613Y534000D01*
X340278Y535680D01*
X340287Y535959D01*
X340817Y536950D01*
X639930D01*
X645454Y531425D01*
D02*
G37*
G36*
X292808Y444629D02*
X293410Y444432D01*
Y436073D01*
X288029Y430691D01*
X287467Y429851D01*
X287270Y428860D01*
Y402944D01*
X281336D01*
Y378896D01*
X287270D01*
Y351940D01*
X287467Y350949D01*
X288029Y350109D01*
X297989Y340149D01*
X298829Y339587D01*
X299820Y339390D01*
X300936D01*
Y336456D01*
X303004D01*
Y318710D01*
X302332Y318262D01*
X301333Y316765D01*
X300982Y315000D01*
X301333Y313235D01*
X302332Y311738D01*
X303829Y310739D01*
X305594Y310387D01*
X305982Y310465D01*
X306425Y309974D01*
X305861Y308704D01*
X301352D01*
X300980Y309262D01*
X299483Y310261D01*
X297718Y310613D01*
X295953Y310261D01*
X294457Y309262D01*
X294008Y308590D01*
X283000D01*
X282009Y308393D01*
X281169Y307831D01*
X278169Y304831D01*
X277607Y303991D01*
X277410Y303000D01*
Y289504D01*
X274630D01*
Y284480D01*
X272090D01*
Y289504D01*
X267836D01*
Y289504D01*
X266884D01*
Y289504D01*
X255836D01*
Y287070D01*
X253384D01*
Y302944D01*
X247450D01*
Y378896D01*
X253384D01*
Y402944D01*
X236336D01*
Y378896D01*
X242270D01*
Y302944D01*
X236336D01*
Y279590D01*
X232344D01*
Y302940D01*
X226669D01*
Y378892D01*
X232344D01*
Y402940D01*
X226669D01*
Y406258D01*
X226669Y406258D01*
X226452Y407348D01*
X225834Y408272D01*
X225834Y408272D01*
X219982Y414125D01*
X220468Y415298D01*
X261946D01*
X262937Y415495D01*
X263777Y416057D01*
X291691Y443971D01*
X292140Y444643D01*
X292808Y444629D01*
D02*
G37*
G36*
X547476Y365476D02*
Y357470D01*
X580524D01*
Y359811D01*
X588528D01*
X591481Y356858D01*
Y332963D01*
X591170Y332711D01*
X590278Y332371D01*
X583217Y339431D01*
X582377Y339993D01*
X581386Y340190D01*
X580524D01*
Y353076D01*
Y354930D01*
X547476D01*
Y353076D01*
Y346390D01*
X545800D01*
X544809Y346193D01*
X543969Y345631D01*
X540763Y342426D01*
X539590Y342912D01*
Y365927D01*
X545873Y372210D01*
X547476D01*
Y365476D01*
D02*
G37*
G36*
X736387Y322622D02*
Y306178D01*
X735117Y305925D01*
X734982Y306251D01*
X733536Y308136D01*
X731651Y309582D01*
X729456Y310492D01*
X728370Y310635D01*
Y301700D01*
Y292765D01*
X729456Y292908D01*
X731651Y293818D01*
X733536Y295264D01*
X734982Y297149D01*
X735117Y297475D01*
X736387Y297222D01*
Y280778D01*
X735117Y280525D01*
X734982Y280851D01*
X733536Y282736D01*
X731651Y284182D01*
X729456Y285092D01*
X728370Y285235D01*
Y276300D01*
Y267365D01*
X729456Y267508D01*
X731651Y268418D01*
X733536Y269864D01*
X734982Y271749D01*
X735117Y272075D01*
X736387Y271822D01*
Y255378D01*
X735117Y255125D01*
X734982Y255451D01*
X733536Y257336D01*
X731651Y258782D01*
X729456Y259692D01*
X727100Y260002D01*
X724744Y259692D01*
X722549Y258782D01*
X720664Y257336D01*
X719218Y255451D01*
X718308Y253256D01*
X718003Y250941D01*
X717904Y250870D01*
X716770Y250501D01*
X716262Y251262D01*
X714765Y252262D01*
X713000Y252613D01*
X712207Y252455D01*
X679365Y285297D01*
X679891Y286567D01*
X691180D01*
X692945Y286919D01*
X694442Y287918D01*
X724821Y318298D01*
X727100Y317998D01*
X729456Y318308D01*
X731651Y319218D01*
X733536Y320664D01*
X734982Y322549D01*
X735117Y322875D01*
X736387Y322622D01*
D02*
G37*
G36*
X299283Y433056D02*
X313411Y418928D01*
Y312505D01*
X312238Y312019D01*
X310049Y314207D01*
X310207Y315000D01*
X309856Y316765D01*
X308856Y318262D01*
X308184Y318710D01*
Y336456D01*
X309984D01*
Y347186D01*
X309984Y347504D01*
Y348456D01*
X309984Y348774D01*
Y352710D01*
X300936D01*
Y348774D01*
X300936Y348456D01*
Y347504D01*
X300936Y347186D01*
Y346323D01*
X299666Y345797D01*
X292450Y353013D01*
Y378896D01*
X298384D01*
Y402944D01*
X292450D01*
Y427787D01*
X297718Y433056D01*
X298093Y433169D01*
X298903Y433169D01*
X299283Y433056D01*
D02*
G37*
G36*
X597410Y317913D02*
Y310524D01*
X593476D01*
Y297476D01*
X606524D01*
Y310524D01*
X602590D01*
Y318853D01*
X602900Y319104D01*
X603793Y319446D01*
X624069Y299170D01*
X624909Y298608D01*
X625900Y298411D01*
X651889D01*
X652338Y297738D01*
X653350Y297063D01*
X652964Y295793D01*
X591380D01*
X589615Y295441D01*
X588118Y294442D01*
X566289Y272613D01*
X520853D01*
X520512Y273266D01*
X520354Y273883D01*
X521261Y275241D01*
X521613Y277006D01*
X521261Y278771D01*
X520262Y280268D01*
X519590Y280717D01*
Y297476D01*
X523524D01*
Y310524D01*
X520983D01*
X520456Y311794D01*
X522073Y313410D01*
X534000D01*
X534991Y313607D01*
X535831Y314169D01*
X541237Y319574D01*
X542410Y319088D01*
Y310524D01*
X541476D01*
Y297476D01*
X554524D01*
Y310524D01*
X547590D01*
Y315876D01*
X561410D01*
Y310524D01*
X557476D01*
Y297476D01*
X570524D01*
Y310524D01*
X566590D01*
Y315876D01*
X580524D01*
X581410Y314973D01*
Y310524D01*
X577476D01*
Y297476D01*
X590524D01*
Y310524D01*
X586590D01*
Y326938D01*
X587292Y327377D01*
X587833Y327491D01*
X597410Y317913D01*
D02*
G37*
G36*
X220971Y405078D02*
Y402940D01*
X215296D01*
Y378892D01*
X220971D01*
Y302940D01*
X215296D01*
Y279590D01*
X212844D01*
Y289504D01*
X202114D01*
X201796Y289504D01*
X200844D01*
X200526Y289504D01*
X189796D01*
Y287070D01*
X187344D01*
Y302940D01*
X181410D01*
Y378892D01*
X187344D01*
Y402940D01*
X170296D01*
Y378892D01*
X176230D01*
Y302940D01*
X170296D01*
Y278892D01*
X187344D01*
Y281890D01*
X189796D01*
Y279456D01*
X200526D01*
X200844Y279456D01*
X201796D01*
X202114Y279456D01*
X204775D01*
X204927Y278689D01*
X205489Y277849D01*
X206574Y276763D01*
X206088Y275590D01*
X143160D01*
X142169Y275393D01*
X141329Y274831D01*
X136873Y270375D01*
X136080Y270533D01*
X134315Y270182D01*
X132818Y269182D01*
X131819Y267685D01*
X131467Y265920D01*
X131819Y264155D01*
X132622Y262952D01*
X132168Y261682D01*
X94010D01*
X62590Y293102D01*
Y362600D01*
X62393Y363591D01*
X61831Y364431D01*
X32024Y394239D01*
Y407526D01*
X33258Y408622D01*
X33514Y408591D01*
X33738Y408254D01*
X35235Y407254D01*
X37000Y406903D01*
X38765Y407254D01*
X40262Y408254D01*
X41262Y409751D01*
X41386Y410376D01*
X41672Y410418D01*
X41881Y410290D01*
X42642Y409278D01*
X42387Y408000D01*
X42738Y406235D01*
X43738Y404738D01*
X45235Y403739D01*
X47000Y403387D01*
X48765Y403739D01*
X50262Y404738D01*
X51262Y406235D01*
X51549Y407678D01*
X105927D01*
X109391Y404214D01*
X108865Y402944D01*
X104256D01*
Y378896D01*
X110190D01*
Y302944D01*
X104256D01*
Y278896D01*
X121304D01*
Y302944D01*
X115370D01*
Y378896D01*
X121304D01*
Y402944D01*
X115370D01*
Y404488D01*
X115173Y405479D01*
X114611Y406319D01*
X110875Y410056D01*
X111361Y411229D01*
X214820Y411229D01*
X220971Y405078D01*
D02*
G37*
G36*
X708545Y248792D02*
X708387Y248000D01*
X708738Y246235D01*
X709738Y244738D01*
X711235Y243738D01*
X713000Y243387D01*
X714409Y243668D01*
X715066Y242528D01*
X712169Y239631D01*
X711607Y238791D01*
X711410Y237800D01*
Y218502D01*
X679166Y186258D01*
X596729D01*
X596343Y187528D01*
X597138Y188058D01*
X619262Y210182D01*
X620261Y211679D01*
X620613Y213444D01*
Y224689D01*
X623595Y227672D01*
X625184Y227577D01*
X625476Y227206D01*
Y223270D01*
X630000D01*
X634524D01*
Y227080D01*
X634524Y227524D01*
X635452Y228350D01*
X640076D01*
Y227270D01*
X648800D01*
Y224730D01*
X640076D01*
Y222276D01*
X640276D01*
Y221170D01*
X642800D01*
Y218630D01*
X640276D01*
Y216626D01*
X643739D01*
Y214211D01*
X644222Y213045D01*
X644370Y212897D01*
X643884Y211724D01*
X643270D01*
Y207200D01*
Y202676D01*
X647524D01*
X647524Y202676D01*
X648476D01*
Y202676D01*
X648794Y202676D01*
X656669D01*
X657903Y202371D01*
X658170Y201961D01*
X658358Y201510D01*
X658506Y201448D01*
X658594Y201314D01*
X659584Y200638D01*
X660062Y200537D01*
X660514Y200350D01*
X662473D01*
X663639Y200834D01*
X667166Y204361D01*
X667566Y205326D01*
X668365Y205765D01*
X668920Y205949D01*
X669235Y205739D01*
X671000Y205387D01*
X672765Y205739D01*
X674262Y206738D01*
X675262Y208235D01*
X675613Y210000D01*
X675262Y211765D01*
X674262Y213262D01*
X673590Y213710D01*
Y225000D01*
X673393Y225991D01*
X672831Y226831D01*
X667650Y232013D01*
X667649Y242800D01*
X667332Y243566D01*
X667166Y243967D01*
X665166Y245966D01*
X664000Y246450D01*
X632500D01*
X631334Y245966D01*
X627231Y241864D01*
X627105Y241561D01*
X626873Y241329D01*
Y241000D01*
X626748Y240697D01*
X626215Y239756D01*
X625723Y239524D01*
X625476D01*
Y238613D01*
X623400D01*
X621635Y238262D01*
X620138Y237262D01*
X612738Y229862D01*
X611739Y228365D01*
X611387Y226600D01*
Y215355D01*
X591965Y195933D01*
X567018D01*
X566505Y197203D01*
X567262Y198335D01*
X567613Y200100D01*
X567262Y201865D01*
X566262Y203362D01*
X565590Y203811D01*
Y230927D01*
X567006Y232344D01*
X568276Y231817D01*
X568276Y231326D01*
Y230374D01*
X568276Y230056D01*
Y227370D01*
X575800D01*
X583324D01*
Y230056D01*
X583324Y230374D01*
Y231326D01*
X583324Y231644D01*
Y239874D01*
X568276D01*
Y238190D01*
X566600D01*
X565609Y237993D01*
X564769Y237431D01*
X561169Y233831D01*
X560607Y232991D01*
X560410Y232000D01*
Y203811D01*
X559738Y203362D01*
X558739Y201865D01*
X558387Y200100D01*
X558739Y198335D01*
X559495Y197203D01*
X558982Y195933D01*
X520589D01*
Y233650D01*
X520392Y234641D01*
X519831Y235480D01*
X513480Y241831D01*
X512641Y242392D01*
X511650Y242589D01*
X506824D01*
Y245524D01*
X496776D01*
Y242589D01*
X494024D01*
Y245524D01*
X491589D01*
Y250230D01*
X491392Y251220D01*
X490830Y252060D01*
X483060Y259830D01*
X482220Y260392D01*
X481230Y260589D01*
X480622D01*
X479882Y261328D01*
X479895Y262686D01*
X480636Y263387D01*
X512295D01*
X512974Y262117D01*
X512738Y261765D01*
X512387Y260000D01*
X512738Y258235D01*
X513738Y256738D01*
X515235Y255739D01*
X517000Y255387D01*
X517793Y255545D01*
X526410Y246927D01*
Y222561D01*
X526607Y221570D01*
X527169Y220730D01*
X529730Y218169D01*
X530570Y217607D01*
X531176Y217487D01*
Y214476D01*
X541224D01*
X541224Y214476D01*
X542209Y214207D01*
X543200Y214010D01*
X543276D01*
Y212326D01*
X558324D01*
Y220874D01*
X543276D01*
Y220874D01*
X542494Y220575D01*
X541224Y221264D01*
Y225524D01*
X541224D01*
Y226476D01*
X541224D01*
Y230489D01*
X542039Y231060D01*
X543276Y231326D01*
Y231326D01*
X543276Y231326D01*
X558324D01*
Y239874D01*
X557590D01*
Y243976D01*
X562406D01*
X562724Y243976D01*
X563676D01*
X563994Y243976D01*
X567930D01*
Y249000D01*
Y254024D01*
X563994D01*
X563676Y254024D01*
X562724D01*
X562406Y254024D01*
X551676D01*
Y243976D01*
X552410D01*
Y239874D01*
X543276D01*
Y238125D01*
X542609Y237993D01*
X542367Y237831D01*
X541224Y237524D01*
X541224Y237524D01*
Y237524D01*
X541224Y237524D01*
X531590D01*
Y248000D01*
X531393Y248991D01*
X530831Y249831D01*
X521455Y259207D01*
X521613Y260000D01*
X521261Y261765D01*
X521026Y262117D01*
X521705Y263387D01*
X568200D01*
X569965Y263738D01*
X571462Y264738D01*
X587184Y280461D01*
X587997Y280149D01*
X588409Y279890D01*
X588739Y278235D01*
X589738Y276738D01*
X591235Y275739D01*
X593000Y275387D01*
X594765Y275739D01*
X596262Y276738D01*
X597262Y278235D01*
X597613Y280000D01*
X597455Y280793D01*
X598553Y281890D01*
X675447D01*
X708545Y248792D01*
D02*
G37*
G36*
X279284Y265586D02*
X269725Y256027D01*
X269163Y255187D01*
X268966Y254196D01*
Y208466D01*
X267793Y207980D01*
X246825Y228947D01*
X245985Y229509D01*
X244994Y229706D01*
X169486D01*
X143875Y255316D01*
X144501Y256487D01*
X145000Y256387D01*
X146765Y256738D01*
X148262Y257738D01*
X149262Y259235D01*
X149613Y261000D01*
X149455Y261794D01*
X154517Y266856D01*
X278758D01*
X279284Y265586D01*
D02*
G37*
G36*
X456676Y262524D02*
X456676Y262117D01*
Y259270D01*
X462200D01*
Y258000D01*
X463470D01*
Y253476D01*
X467406D01*
X467935Y253142D01*
X468308Y251691D01*
X468111Y250700D01*
Y250524D01*
X466970D01*
Y245500D01*
X464430D01*
Y250524D01*
X461970D01*
Y245500D01*
X460700D01*
Y244230D01*
X458176D01*
Y240926D01*
X458176Y240926D01*
X458176Y240476D01*
X459176Y239824D01*
X459176Y239206D01*
Y236270D01*
X468200D01*
Y233730D01*
X459176D01*
X459176Y230176D01*
X458176Y229524D01*
X458176Y229074D01*
X458176Y229074D01*
Y227146D01*
X394517D01*
X362455Y259207D01*
X362613Y260000D01*
X362262Y261765D01*
X362026Y262117D01*
X362705Y263387D01*
X455764D01*
X456676Y262524D01*
D02*
G37*
G36*
X346772Y253452D02*
X346968Y252465D01*
X347968Y250968D01*
X349465Y249968D01*
X351230Y249617D01*
X352995Y249968D01*
X354491Y250968D01*
X354940Y251640D01*
X357669D01*
X390140Y219169D01*
X390980Y218607D01*
X391971Y218410D01*
X448927D01*
X451545Y215793D01*
X451387Y215000D01*
X451739Y213235D01*
X452738Y211738D01*
X454235Y210739D01*
X456000Y210387D01*
X457765Y210739D01*
X459262Y211738D01*
X460261Y213235D01*
X460435Y214107D01*
X461813Y214525D01*
X464725Y211613D01*
X465565Y211051D01*
X466556Y210854D01*
X485743D01*
X486734Y211051D01*
X487574Y211613D01*
X494372Y218410D01*
X499000D01*
X499991Y218607D01*
X500831Y219169D01*
X503631Y221969D01*
X503970Y222476D01*
X506824D01*
Y223938D01*
X506943Y224042D01*
X508094Y224501D01*
X509235Y223738D01*
X511000Y223387D01*
X512765Y223738D01*
X514141Y224658D01*
X514706Y224520D01*
X515411Y224173D01*
Y195933D01*
X434708D01*
X433524Y196141D01*
Y206189D01*
X422476D01*
Y206189D01*
X421524D01*
Y206189D01*
X410476D01*
Y206189D01*
X409206Y205537D01*
X408000Y205777D01*
X406235Y205426D01*
X404738Y204426D01*
X403739Y202930D01*
X403681Y202639D01*
X402303Y202221D01*
X374812Y229712D01*
X373315Y230711D01*
X371550Y231063D01*
X319900D01*
X318135Y230711D01*
X316638Y229712D01*
X316539Y229613D01*
X313840D01*
X312974Y230524D01*
Y231476D01*
X312974D01*
Y235730D01*
X308450D01*
Y238270D01*
X312974D01*
Y238502D01*
X314244Y239538D01*
X315000Y239387D01*
X329000D01*
X330765Y239739D01*
X332262Y240738D01*
X345394Y253871D01*
X346772Y253452D01*
D02*
G37*
G36*
X89633Y253705D02*
X90473Y253143D01*
X91464Y252946D01*
X132938D01*
X133056Y252744D01*
X132328Y251474D01*
X124420D01*
Y247720D01*
X133924D01*
Y251117D01*
X135074Y251763D01*
X163071Y223767D01*
X162584Y222594D01*
X142570D01*
X136883Y228281D01*
X136043Y228842D01*
X135053Y229039D01*
X133924D01*
Y231038D01*
X134616Y231746D01*
X135194Y232014D01*
X136080Y231837D01*
X137845Y232188D01*
X139342Y233188D01*
X140342Y234685D01*
X140693Y236450D01*
X140342Y238215D01*
X139342Y239712D01*
X137845Y240711D01*
X136080Y241063D01*
X135194Y240886D01*
X134685Y241103D01*
X133924Y241861D01*
Y245180D01*
X123150D01*
X112376D01*
Y241426D01*
Y231426D01*
Y221426D01*
Y209299D01*
X69489D01*
X55105Y223683D01*
Y286573D01*
X56278Y287059D01*
X89633Y253705D01*
D02*
G37*
G36*
X666000Y242800D02*
X666000Y232000D01*
X664000Y230000D01*
X662157D01*
X661765Y230261D01*
X660000Y230613D01*
X658594Y230333D01*
X657731Y230830D01*
X654800D01*
Y232100D01*
X653530D01*
Y235374D01*
X652070D01*
Y232100D01*
X649530D01*
Y235374D01*
X644070D01*
Y232100D01*
X642800D01*
Y230830D01*
X640276D01*
Y230000D01*
X634524D01*
Y232730D01*
X630000D01*
Y234000D01*
X628730D01*
Y239894D01*
X628397Y240697D01*
X632500Y244800D01*
X664000D01*
X666000Y242800D01*
D02*
G37*
G36*
X663900Y222000D02*
X666000Y219900D01*
X666000Y205527D01*
X662473Y202000D01*
X660514D01*
X659524Y202676D01*
Y205930D01*
X654000D01*
Y207200D01*
X652730D01*
Y211724D01*
X648476D01*
X647402Y212198D01*
X645389Y214211D01*
Y216626D01*
X645530D01*
Y219900D01*
X648070D01*
Y216626D01*
X649530D01*
Y219900D01*
X652070D01*
Y216626D01*
X653530D01*
Y219900D01*
X654800D01*
Y221170D01*
X657731D01*
X658594Y221667D01*
X660000Y221387D01*
X661765Y221738D01*
X662156Y222000D01*
X663900D01*
D02*
G37*
G36*
X254744Y198619D02*
Y190578D01*
X253571Y190091D01*
X251455Y192208D01*
X251613Y193000D01*
X251262Y194765D01*
X250262Y196262D01*
X248765Y197262D01*
X247000Y197613D01*
X245235Y197262D01*
X243738Y196262D01*
X242738Y194765D01*
X242387Y193000D01*
X242738Y191235D01*
X243715Y189773D01*
X243893Y189454D01*
Y188365D01*
X243738Y188261D01*
X242738Y186765D01*
X242387Y185000D01*
X242544Y184207D01*
X240933Y182596D01*
X144581D01*
X138895Y188281D01*
X138055Y188843D01*
X137064Y189040D01*
X133924D01*
Y201426D01*
Y213860D01*
X239503D01*
X254744Y198619D01*
D02*
G37*
G36*
X341536Y199390D02*
X347060D01*
Y198120D01*
X348330D01*
Y193596D01*
X352584D01*
Y193596D01*
X353536D01*
Y193596D01*
X356470D01*
Y186654D01*
X345686D01*
Y181220D01*
X344930D01*
X343939Y181023D01*
X343099Y180461D01*
X336907Y174270D01*
X335734Y174756D01*
Y186654D01*
X328706D01*
X328107Y187774D01*
X328261Y188005D01*
X328613Y189770D01*
X328261Y191535D01*
X327707Y192365D01*
X327661Y192500D01*
X328492Y193476D01*
X332530D01*
Y198000D01*
X333800D01*
Y199270D01*
X339324D01*
Y201410D01*
X341536D01*
Y199390D01*
D02*
G37*
G36*
X15021Y226117D02*
X14208Y224156D01*
X13898Y221800D01*
X14208Y219444D01*
X15118Y217249D01*
X16564Y215364D01*
X18449Y213918D01*
X20644Y213008D01*
X23000Y212698D01*
X25356Y213008D01*
X27058Y213713D01*
X86336Y154436D01*
X86336Y154436D01*
X87260Y153818D01*
X88350Y153601D01*
X88350Y153601D01*
X112376D01*
Y149299D01*
X70730D01*
X29709Y190320D01*
X30882Y191849D01*
X31792Y194044D01*
X32102Y196400D01*
X31792Y198756D01*
X30882Y200951D01*
X29436Y202836D01*
X27551Y204282D01*
X25356Y205192D01*
X23000Y205502D01*
X20644Y205192D01*
X18449Y204282D01*
X16564Y202836D01*
X15118Y200951D01*
X14208Y198756D01*
X13898Y196400D01*
X14208Y194044D01*
X15118Y191849D01*
X16564Y189964D01*
X18449Y188518D01*
X20644Y187608D01*
X23000Y187298D01*
X24478Y187493D01*
X67536Y144436D01*
X67536Y144436D01*
X68460Y143818D01*
X69550Y143601D01*
X69550Y143601D01*
X112376D01*
Y141861D01*
X111615Y141103D01*
X111106Y140886D01*
X110220Y141063D01*
X108455Y140711D01*
X106958Y139712D01*
X106683Y139299D01*
X58730D01*
X31087Y166942D01*
X31792Y168644D01*
X32102Y171000D01*
X31792Y173356D01*
X30882Y175551D01*
X29436Y177436D01*
X27551Y178882D01*
X25356Y179792D01*
X23000Y180102D01*
X20644Y179792D01*
X18449Y178882D01*
X16564Y177436D01*
X15118Y175551D01*
X14208Y173356D01*
X13898Y171000D01*
X14208Y168644D01*
X15118Y166449D01*
X16564Y164564D01*
X18449Y163118D01*
X20644Y162208D01*
X23000Y161898D01*
X25356Y162208D01*
X27058Y162913D01*
X55536Y134436D01*
X55536Y134436D01*
X56460Y133818D01*
X57550Y133601D01*
X57550Y133601D01*
X106683D01*
X106958Y133188D01*
X108455Y132189D01*
X108913Y132097D01*
Y130803D01*
X108455Y130711D01*
X106958Y129712D01*
X106683Y129299D01*
X43330D01*
X31087Y141542D01*
X31792Y143244D01*
X32102Y145600D01*
X31792Y147956D01*
X30882Y150151D01*
X29436Y152036D01*
X27551Y153482D01*
X25356Y154392D01*
X23000Y154702D01*
X20644Y154392D01*
X18449Y153482D01*
X16564Y152036D01*
X15118Y150151D01*
X14208Y147956D01*
X13898Y145600D01*
X14208Y143244D01*
X15118Y141049D01*
X16564Y139164D01*
X18449Y137718D01*
X20644Y136808D01*
X23000Y136498D01*
X25356Y136808D01*
X27058Y137513D01*
X39343Y125229D01*
X38816Y123959D01*
X31211D01*
X30882Y124751D01*
X29436Y126636D01*
X27551Y128082D01*
X25356Y128992D01*
X23000Y129302D01*
X20644Y128992D01*
X18449Y128082D01*
X16564Y126636D01*
X15118Y124751D01*
X14208Y122556D01*
X13898Y120200D01*
X14208Y117844D01*
X15118Y115649D01*
X16564Y113764D01*
X18449Y112318D01*
X20644Y111408D01*
X23000Y111098D01*
X25356Y111408D01*
X27551Y112318D01*
X29436Y113764D01*
X30882Y115649D01*
X31792Y117844D01*
X31847Y118261D01*
X40773D01*
X41259Y117088D01*
X27058Y102887D01*
X25356Y103592D01*
X23000Y103902D01*
X20644Y103592D01*
X18449Y102682D01*
X16564Y101236D01*
X15118Y99351D01*
X14208Y97156D01*
X13898Y94800D01*
X14208Y92444D01*
X15118Y90249D01*
X16564Y88364D01*
X18449Y86918D01*
X20644Y86008D01*
X21772Y85860D01*
X21689Y84590D01*
X16000D01*
X15009Y84393D01*
X14169Y83831D01*
X8169Y77831D01*
X7607Y76991D01*
X7410Y76000D01*
Y57000D01*
X7607Y56009D01*
X8169Y55169D01*
X15021Y48317D01*
X14208Y46356D01*
X13898Y44000D01*
X14208Y41644D01*
X15118Y39449D01*
X16564Y37564D01*
X18449Y36118D01*
X20644Y35208D01*
X23000Y34898D01*
X25356Y35208D01*
X27551Y36118D01*
X29436Y37564D01*
X30882Y39449D01*
X31792Y41644D01*
X32102Y44000D01*
X31792Y46356D01*
X30882Y48551D01*
X29436Y50436D01*
X27551Y51882D01*
X25356Y52792D01*
X23000Y53102D01*
X20644Y52792D01*
X18683Y51979D01*
X12590Y58073D01*
Y74927D01*
X17073Y79410D01*
X20408D01*
X20644Y78192D01*
X18449Y77282D01*
X16564Y75836D01*
X15118Y73951D01*
X14208Y71756D01*
X13898Y69400D01*
X14208Y67044D01*
X15118Y64849D01*
X16564Y62964D01*
X18449Y61518D01*
X20644Y60608D01*
X23000Y60298D01*
X25356Y60608D01*
X27551Y61518D01*
X29436Y62964D01*
X30882Y64849D01*
X31695Y66810D01*
X123180D01*
X124171Y67007D01*
X125011Y67569D01*
X170853Y113410D01*
X247289D01*
X247738Y112738D01*
X248831Y112008D01*
X248828Y111250D01*
X248723Y110644D01*
X247329Y109712D01*
X246008Y110021D01*
X245014Y111014D01*
X244090Y111632D01*
X243000Y111849D01*
X243000Y111849D01*
X175962D01*
X175962Y111849D01*
X174872Y111632D01*
X173948Y111014D01*
X173948Y111014D01*
X120820Y57887D01*
X112500D01*
X112224Y58300D01*
X110727Y59300D01*
X108962Y59651D01*
X107854Y59430D01*
X106584Y60301D01*
Y60562D01*
X96536D01*
Y57887D01*
X94034D01*
Y60562D01*
X83986D01*
Y49514D01*
X83986D01*
Y48562D01*
X83986D01*
Y45733D01*
X83668Y45670D01*
X82744Y45052D01*
X81347Y43656D01*
X80860Y43753D01*
X79095Y43401D01*
X77598Y42402D01*
X76599Y40905D01*
X76247Y39140D01*
X76599Y37375D01*
X77422Y36142D01*
X77106Y35208D01*
X76860Y34872D01*
X75086D01*
Y27324D01*
X85836D01*
Y24872D01*
X82130D01*
Y21098D01*
Y17324D01*
X85836D01*
Y14872D01*
X75086D01*
Y7324D01*
X85836D01*
Y7074D01*
X94090D01*
Y21098D01*
X96630D01*
Y7074D01*
X104884D01*
Y7324D01*
X115634D01*
Y14872D01*
X104884D01*
Y17324D01*
X115634D01*
X115660Y18249D01*
X115806Y18278D01*
X117076Y18276D01*
Y17324D01*
X117076Y17006D01*
Y13070D01*
X121600D01*
X126124D01*
Y17006D01*
X126124Y17324D01*
Y18276D01*
X126124Y18594D01*
Y29324D01*
X124879D01*
Y53888D01*
X177142Y106151D01*
X241820D01*
X243536Y104436D01*
X243536Y104436D01*
X244460Y103818D01*
X245550Y103601D01*
X245550Y103601D01*
X247053D01*
X247329Y103188D01*
X248825Y102189D01*
X250590Y101837D01*
X252355Y102189D01*
X253474Y102936D01*
X254744Y102412D01*
Y84582D01*
X254941Y83591D01*
X255503Y82751D01*
X295939Y42315D01*
X296779Y41754D01*
X297770Y41557D01*
X395781D01*
X410311Y27027D01*
X411151Y26465D01*
X412142Y26268D01*
X417045D01*
X418036Y26465D01*
X418876Y27027D01*
X421703Y29854D01*
X422973Y29328D01*
Y13276D01*
X441021D01*
Y31324D01*
X436646D01*
X436160Y32497D01*
X445121Y41458D01*
X446000Y42054D01*
X446880Y41458D01*
X455839Y32498D01*
X455353Y31325D01*
X451275D01*
Y13277D01*
X469323D01*
Y31325D01*
X462889D01*
Y31701D01*
X462692Y32692D01*
X462130Y33532D01*
X458048Y37614D01*
X458641Y38817D01*
X460299Y38599D01*
X462655Y38909D01*
X464850Y39818D01*
X466735Y41265D01*
X467141Y41794D01*
X468411Y41363D01*
Y36974D01*
X468608Y35983D01*
X469170Y35143D01*
X478599Y25714D01*
X479439Y25152D01*
X480430Y24955D01*
X489420D01*
X490411Y25152D01*
X491250Y25714D01*
X497331Y31793D01*
X497892Y32633D01*
X497922Y32786D01*
X508524D01*
Y38786D01*
X513524D01*
Y43786D01*
X519524D01*
Y50580D01*
X520474Y50946D01*
X520794Y51011D01*
X522235Y50048D01*
X524000Y49697D01*
X525765Y50048D01*
X527262Y51048D01*
X528261Y52545D01*
X528613Y54310D01*
X528261Y56075D01*
X527262Y57572D01*
X525765Y58572D01*
X525307Y58663D01*
Y59957D01*
X525765Y60048D01*
X527262Y61048D01*
X528261Y62545D01*
X528613Y64310D01*
X528815Y64556D01*
X535107D01*
Y36604D01*
X527176D01*
Y8556D01*
X550224D01*
Y18987D01*
X616176D01*
Y8556D01*
X639224D01*
Y36604D01*
X631293D01*
Y64556D01*
X639224D01*
Y100604D01*
X616176D01*
Y64556D01*
X624107D01*
Y36604D01*
X616176D01*
Y26173D01*
X550224D01*
Y36604D01*
X542293D01*
Y64556D01*
X550224D01*
Y100604D01*
X541893D01*
Y103056D01*
X542824D01*
Y113786D01*
X542824Y114104D01*
Y115056D01*
X542824Y115374D01*
Y119310D01*
X533776D01*
Y115374D01*
X533776Y115056D01*
X533776Y113943D01*
X533397Y112673D01*
X531824D01*
Y118810D01*
X526800D01*
X521776D01*
Y114056D01*
Y103056D01*
X531824D01*
Y105487D01*
X533776D01*
Y103056D01*
X534707D01*
Y100604D01*
X527761D01*
X527176Y100604D01*
X525939Y100524D01*
X522270D01*
Y96000D01*
X519730D01*
Y100524D01*
X515794D01*
X515476Y100524D01*
X514524D01*
X514206Y100524D01*
X504850D01*
Y103106D01*
X507466D01*
X507784Y103106D01*
X508736D01*
X509054Y103106D01*
X512990D01*
Y107630D01*
Y112154D01*
X509054D01*
X508736Y112154D01*
X507784D01*
X507466Y112154D01*
X505853D01*
Y114536D01*
X507466D01*
X507784Y114536D01*
X508736D01*
X509054Y114536D01*
X512990D01*
Y119060D01*
Y123584D01*
X509054D01*
X508736Y123584D01*
X507784D01*
X507466Y123584D01*
X505853D01*
Y125272D01*
X513438Y132857D01*
X522234D01*
X523235Y132189D01*
X525000Y131837D01*
X543419D01*
X544776Y130481D01*
Y120956D01*
X561824D01*
X562010Y119763D01*
Y119630D01*
X562104Y119158D01*
X561290Y118094D01*
X561137Y118004D01*
X544776D01*
Y102956D01*
X561824D01*
Y104505D01*
X563094Y105141D01*
X563607Y104758D01*
Y100604D01*
X563176D01*
Y64556D01*
X603224D01*
Y100604D01*
X603083D01*
X602556Y101874D01*
X605431Y104749D01*
X605993Y105589D01*
X606190Y106580D01*
Y108056D01*
X608624D01*
Y119056D01*
Y123810D01*
X603600D01*
X598576D01*
Y119056D01*
Y108056D01*
X599617D01*
X600144Y106786D01*
X597369Y104011D01*
X596807Y103171D01*
X596610Y102180D01*
Y100604D01*
X593790D01*
Y102980D01*
X593593Y103971D01*
X593031Y104811D01*
X589790Y108053D01*
Y113422D01*
X590000D01*
X590673Y113556D01*
X591243Y113937D01*
X591624Y114507D01*
X591758Y115180D01*
Y116780D01*
X591624Y117453D01*
X591272Y117979D01*
X591243Y118032D01*
Y118730D01*
Y119428D01*
X591272Y119481D01*
X591624Y120007D01*
X591664Y120210D01*
X588200D01*
Y122750D01*
X591664D01*
X591624Y122953D01*
X591243Y123523D01*
X590673Y123904D01*
X590000Y124038D01*
X589758D01*
Y127280D01*
X589624Y127953D01*
X589243Y128523D01*
X588673Y128904D01*
X588000Y129038D01*
X587503D01*
X587327Y129267D01*
X587609Y130983D01*
X587962Y131218D01*
X588961Y132715D01*
X589313Y134480D01*
X588961Y136245D01*
X587962Y137742D01*
X586465Y138742D01*
X584700Y139093D01*
X582935Y138742D01*
X581438Y137742D01*
X580438Y136245D01*
X580347Y135787D01*
X579053D01*
X578961Y136245D01*
X577962Y137742D01*
X576465Y138742D01*
X574700Y139093D01*
X572935Y138742D01*
X571438Y137742D01*
X570438Y136245D01*
X570087Y134480D01*
X570438Y132715D01*
X571438Y131218D01*
X572053Y130808D01*
X571668Y129538D01*
X571400D01*
X570727Y129404D01*
X570157Y129023D01*
X569776Y128453D01*
X569642Y127780D01*
Y124538D01*
X569400D01*
X568727Y124404D01*
X568460Y124225D01*
X567425Y124602D01*
X567190Y124788D01*
Y125580D01*
X566993Y126571D01*
X566431Y127411D01*
X563531Y130311D01*
X562691Y130873D01*
X561824Y131045D01*
Y136004D01*
X552299D01*
X548592Y139712D01*
X547095Y140711D01*
X545330Y141063D01*
X525000D01*
X523235Y140711D01*
X522234Y140043D01*
X511950D01*
X510575Y139769D01*
X509409Y138991D01*
X499719Y129301D01*
X498940Y128135D01*
X498667Y126760D01*
Y123584D01*
X496736D01*
Y114536D01*
X498667D01*
Y112154D01*
X496736D01*
Y110220D01*
X487728D01*
X486737Y110023D01*
X485897Y109461D01*
X479799Y103363D01*
X479237Y102523D01*
X479040Y101532D01*
Y101004D01*
X476106D01*
Y96713D01*
X474986Y96114D01*
X474765Y96262D01*
X473000Y96613D01*
X471235Y96262D01*
X469738Y95262D01*
X469290Y94590D01*
X432000D01*
X431009Y94393D01*
X430169Y93831D01*
X411927Y75590D01*
X366370D01*
X365379Y75393D01*
X364539Y74831D01*
X360169Y70461D01*
X359607Y69621D01*
X359451Y68834D01*
X356476D01*
X356476Y68834D01*
X355206Y68621D01*
X353690Y68923D01*
X351925Y68572D01*
X350428Y67572D01*
X349980Y66900D01*
X302313D01*
X282005Y87207D01*
X282163Y88000D01*
X281812Y89765D01*
X281550Y90156D01*
X282229Y91426D01*
X289880D01*
Y95180D01*
X280376D01*
Y92943D01*
X279106Y92303D01*
X277550Y92613D01*
X275785Y92261D01*
X274288Y91262D01*
X273288Y89765D01*
X273190Y89269D01*
X271812Y88851D01*
X270590Y90073D01*
Y118088D01*
X271763Y118574D01*
X273095Y117242D01*
X272937Y116450D01*
X273288Y114685D01*
X274288Y113188D01*
X275785Y112189D01*
X277550Y111837D01*
X279106Y112147D01*
X280102Y111645D01*
X280376Y111370D01*
Y107720D01*
X291150D01*
X301924D01*
Y111426D01*
Y119632D01*
X302453Y119811D01*
X303194Y119843D01*
X303635Y119182D01*
X310649Y112169D01*
X311489Y111607D01*
X312480Y111410D01*
X336530D01*
X337521Y111607D01*
X338361Y112169D01*
X342831Y116639D01*
X343393Y117479D01*
X343590Y118470D01*
Y128927D01*
X344513Y129850D01*
X345686Y129364D01*
Y115606D01*
X367734D01*
Y131654D01*
X347976D01*
X347490Y132827D01*
X350073Y135410D01*
X353289D01*
X353738Y134738D01*
X355235Y133738D01*
X357000Y133387D01*
X358765Y133738D01*
X360262Y134738D01*
X361261Y136235D01*
X361613Y138000D01*
X361261Y139765D01*
X360343Y141140D01*
X360482Y141709D01*
X360829Y142410D01*
X377476D01*
Y139270D01*
X383000D01*
Y138000D01*
X384270D01*
Y132976D01*
X388524D01*
Y132976D01*
X389476D01*
X390414Y132453D01*
X390742Y131930D01*
X390727Y131706D01*
X390387Y130000D01*
X390738Y128235D01*
X391738Y126738D01*
X393235Y125738D01*
X395000Y125387D01*
X396765Y125738D01*
X398262Y126738D01*
X399262Y128235D01*
X399613Y130000D01*
X399273Y131706D01*
X399258Y131930D01*
X399914Y132976D01*
X400524D01*
Y142410D01*
X638927D01*
X705854Y75483D01*
Y40956D01*
X706051Y39965D01*
X706613Y39125D01*
X719121Y26617D01*
X718308Y24656D01*
X717998Y22300D01*
X718308Y19944D01*
X719218Y17749D01*
X720650Y15883D01*
X720587Y15402D01*
X720319Y14613D01*
X672210D01*
X666802Y20021D01*
X667102Y22299D01*
X666792Y24655D01*
X665882Y26850D01*
X664436Y28735D01*
X662551Y30182D01*
X660356Y31091D01*
X658000Y31401D01*
X655644Y31091D01*
X653449Y30182D01*
X651564Y28735D01*
X650118Y26850D01*
X649208Y24655D01*
X648898Y22299D01*
X649208Y19943D01*
X650118Y17748D01*
X651564Y15863D01*
X653449Y14417D01*
X655644Y13507D01*
X658000Y13197D01*
X660279Y13497D01*
X666898Y6878D01*
X666809Y6303D01*
X666444Y5608D01*
X271594D01*
Y22802D01*
X270910D01*
X270910Y45557D01*
X230270Y45567D01*
X230270Y25830D01*
X229372Y24932D01*
X227124D01*
X218493Y33563D01*
X217130Y34609D01*
X215543Y35266D01*
X213840Y35490D01*
X206982D01*
X206105Y35606D01*
X193220D01*
X191517Y35382D01*
X189930Y34724D01*
X189070Y34065D01*
X187800Y34230D01*
Y44926D01*
X191950D01*
Y49450D01*
X193220D01*
Y50720D01*
X198744D01*
Y53974D01*
X197165D01*
X196124Y54526D01*
Y64030D01*
X191100D01*
Y65300D01*
X189830D01*
Y76074D01*
X172370D01*
Y65300D01*
Y54526D01*
X173889D01*
X174727Y53571D01*
X174640Y52910D01*
Y49450D01*
Y35606D01*
X168220D01*
X168220Y35606D01*
X167792Y35549D01*
X161970D01*
Y37501D01*
X165494D01*
Y43005D01*
X152970D01*
X140446D01*
Y37501D01*
X141970D01*
Y21549D01*
X140446D01*
Y16046D01*
X152970D01*
X165494D01*
Y21549D01*
X166262Y22501D01*
X167792D01*
X168220Y22445D01*
X181220D01*
X182923Y22669D01*
X184510Y23327D01*
X185389Y24002D01*
X186744D01*
Y24002D01*
X187696D01*
Y24002D01*
X189051D01*
X189930Y23327D01*
X191517Y22669D01*
X193220Y22445D01*
X201581D01*
Y18296D01*
X210629D01*
Y21019D01*
X211898Y21546D01*
X219745Y13699D01*
X221108Y12653D01*
X222695Y11996D01*
X224398Y11772D01*
X230270D01*
X230270Y6506D01*
X229372Y5608D01*
X127117D01*
X126124Y6276D01*
X126124Y6878D01*
Y10530D01*
X121600D01*
X117076D01*
Y6878D01*
X117076Y6276D01*
X116083Y5608D01*
X5608D01*
Y233870D01*
X6781Y234356D01*
X15021Y226117D01*
D02*
G37*
G36*
X222567Y161169D02*
X223407Y160607D01*
X224398Y160410D01*
X225289D01*
X225738Y159738D01*
X227235Y158738D01*
X229000Y158387D01*
X230765Y158738D01*
X232262Y159738D01*
X232736Y160449D01*
X234264D01*
X234738Y159738D01*
X236235Y158738D01*
X238000Y158387D01*
X239765Y158738D01*
X241262Y159738D01*
X241736Y160448D01*
X243263D01*
X243738Y159738D01*
X245234Y158738D01*
X246999Y158387D01*
X248765Y158738D01*
X249140Y158989D01*
X250410Y158310D01*
Y135073D01*
X249168Y133831D01*
X248607Y132991D01*
X248410Y132000D01*
Y129710D01*
X247738Y129261D01*
X247289Y128589D01*
X172420D01*
X171429Y128392D01*
X170588Y127831D01*
X135194Y92437D01*
X133924Y92963D01*
Y95180D01*
X124420D01*
Y91426D01*
X132387D01*
X132914Y90156D01*
X127347Y84590D01*
X24311D01*
X24228Y85860D01*
X25356Y86008D01*
X27551Y86918D01*
X29436Y88364D01*
X30882Y90249D01*
X31792Y92444D01*
X32102Y94800D01*
X31792Y97156D01*
X31087Y98858D01*
X45950Y113721D01*
X98380D01*
X107666Y104436D01*
X108590Y103818D01*
X109680Y103601D01*
X109680Y103601D01*
X112376D01*
Y97720D01*
X123150D01*
X133924D01*
Y101426D01*
Y111426D01*
Y123860D01*
X135970D01*
X136961Y124057D01*
X137801Y124619D01*
X175593Y162410D01*
X221325D01*
X222567Y161169D01*
D02*
G37*
G36*
X522270Y80476D02*
X525906D01*
X526524Y80476D01*
X527176Y79476D01*
Y68976D01*
X526056Y68377D01*
X525765Y68572D01*
X524000Y68923D01*
X522235Y68572D01*
X520738Y67572D01*
X519739Y66075D01*
X519492Y64834D01*
X513524D01*
Y69834D01*
X513089D01*
Y79578D01*
X513835Y80324D01*
X514359Y80476D01*
X515476D01*
X515794Y80476D01*
X519730D01*
Y85000D01*
X522270D01*
Y80476D01*
D02*
G37*
G36*
X469738Y88738D02*
X471235Y87739D01*
X473000Y87387D01*
X474765Y87739D01*
X474986Y87886D01*
X476106Y87287D01*
Y85250D01*
X481630D01*
Y82710D01*
X476106D01*
Y78956D01*
X478675D01*
X479354Y77686D01*
X478739Y76765D01*
X478387Y75000D01*
X477142Y74755D01*
X477022Y75361D01*
X476460Y76200D01*
X466851Y85810D01*
X466011Y86372D01*
X465020Y86569D01*
X443877D01*
X442886Y86372D01*
X442046Y85810D01*
X436927Y80691D01*
X436548Y80983D01*
X434353Y81892D01*
X431997Y82202D01*
X429641Y81892D01*
X427446Y80983D01*
X425561Y79536D01*
X424115Y77651D01*
X423205Y75456D01*
X422895Y73100D01*
X423205Y70745D01*
X424115Y68549D01*
X425561Y66664D01*
X426857Y65670D01*
X426426Y64400D01*
X422181D01*
X421190Y64203D01*
X420350Y63641D01*
X414111Y57402D01*
X303260D01*
X299970Y60693D01*
X300614Y61845D01*
X301240Y61720D01*
X349980D01*
X350428Y61048D01*
X351925Y60048D01*
X353690Y59697D01*
X355206Y59999D01*
X356476Y59786D01*
Y59786D01*
X356476Y59786D01*
X367206D01*
X367524Y59786D01*
X368476D01*
X368794Y59786D01*
X372730D01*
Y64310D01*
Y68834D01*
X368703D01*
X368313Y69303D01*
X368035Y70104D01*
X368246Y70410D01*
X413000D01*
X413991Y70607D01*
X414831Y71169D01*
X433073Y89410D01*
X469290D01*
X469738Y88738D01*
D02*
G37*
%LPC*%
G36*
X71270Y882961D02*
Y872270D01*
X81961D01*
X81714Y874139D01*
X80503Y877064D01*
X78576Y879576D01*
X76064Y881503D01*
X73139Y882714D01*
X71270Y882961D01*
D02*
G37*
G36*
X20470Y883969D02*
Y872270D01*
X32169D01*
X31889Y874400D01*
X30577Y877568D01*
X28489Y880289D01*
X25768Y882376D01*
X22600Y883689D01*
X20470Y883969D01*
D02*
G37*
G36*
X68730Y882961D02*
X66861Y882714D01*
X63936Y881503D01*
X61424Y879576D01*
X59497Y877064D01*
X58285Y874139D01*
X58039Y872270D01*
X68730D01*
Y882961D01*
D02*
G37*
G36*
X565524Y867430D02*
X562270D01*
Y863176D01*
X565524D01*
Y867430D01*
D02*
G37*
G36*
X559730D02*
X556476D01*
Y863176D01*
X559730D01*
Y867430D01*
D02*
G37*
G36*
X529524D02*
X526270D01*
Y863176D01*
X529524D01*
Y867430D01*
D02*
G37*
G36*
X523730D02*
X520476D01*
Y863176D01*
X523730D01*
Y867430D01*
D02*
G37*
G36*
X138024Y863324D02*
X134770D01*
Y859070D01*
X138024D01*
Y863324D01*
D02*
G37*
G36*
X132230D02*
X128976D01*
Y859070D01*
X132230D01*
Y863324D01*
D02*
G37*
G36*
X81961Y869730D02*
X71270D01*
Y859040D01*
X73139Y859286D01*
X76064Y860497D01*
X78576Y862424D01*
X80503Y864936D01*
X81714Y867861D01*
X81961Y869730D01*
D02*
G37*
G36*
X68730D02*
X58039D01*
X58285Y867861D01*
X59497Y864936D01*
X61424Y862424D01*
X63936Y860497D01*
X66861Y859286D01*
X68730Y859039D01*
Y869730D01*
D02*
G37*
G36*
X101524Y863124D02*
X98270D01*
Y858870D01*
X101524D01*
Y863124D01*
D02*
G37*
G36*
X95730D02*
X92476D01*
Y858870D01*
X95730D01*
Y863124D01*
D02*
G37*
G36*
X32169Y869730D02*
X20470D01*
Y858031D01*
X22600Y858311D01*
X25768Y859624D01*
X28489Y861711D01*
X30577Y864432D01*
X31889Y867600D01*
X32169Y869730D01*
D02*
G37*
G36*
X346000Y866580D02*
X285000D01*
X283297Y866356D01*
X281710Y865699D01*
X280347Y864653D01*
X267574Y851880D01*
X139130D01*
X138024Y852276D01*
X138024Y853150D01*
Y856530D01*
X128976D01*
Y852276D01*
X127870Y851880D01*
X121100D01*
X119397Y851656D01*
X117810Y850999D01*
X116931Y850324D01*
X115576D01*
Y850324D01*
X114624D01*
Y850324D01*
X113269D01*
X112390Y850999D01*
X110803Y851656D01*
X109100Y851880D01*
X102713D01*
X101524Y852076D01*
X101524Y853150D01*
Y856330D01*
X92476D01*
X92476Y852076D01*
X91287Y851880D01*
X54937D01*
X53176Y854176D01*
X50664Y856103D01*
X47739Y857315D01*
X44600Y857728D01*
X41461Y857315D01*
X38536Y856103D01*
X36024Y854176D01*
X34097Y851664D01*
X32885Y848739D01*
X32472Y845600D01*
X32885Y842461D01*
X34097Y839536D01*
X36024Y837024D01*
X38536Y835097D01*
X41461Y833885D01*
X44600Y833472D01*
X47739Y833885D01*
X50664Y835097D01*
X53176Y837024D01*
X54477Y838720D01*
X109100D01*
X110803Y838944D01*
X112390Y839601D01*
X113269Y840276D01*
X114624D01*
Y840276D01*
X115576D01*
Y840276D01*
X116931D01*
X117810Y839601D01*
X119397Y838944D01*
X121100Y838720D01*
X270300D01*
X272003Y838944D01*
X273590Y839601D01*
X274953Y840647D01*
X287726Y853420D01*
X343274D01*
X352520Y844174D01*
Y841824D01*
X350370D01*
Y832300D01*
Y822776D01*
X353624D01*
X353624Y822776D01*
X354576D01*
Y822776D01*
X354894Y822776D01*
X363306D01*
X363624Y822776D01*
Y822776D01*
X364576D01*
Y822776D01*
X367830D01*
Y832300D01*
Y841824D01*
X365680D01*
Y846900D01*
X365456Y848603D01*
X364799Y850190D01*
X363753Y851553D01*
X350653Y864653D01*
X349290Y865699D01*
X347703Y866356D01*
X346000Y866580D01*
D02*
G37*
G36*
X474576Y841824D02*
X473624D01*
X473306Y841824D01*
X464894D01*
X464576Y841824D01*
X463624D01*
X463306Y841824D01*
X454894D01*
X454576Y841824D01*
X453624D01*
X453306Y841824D01*
X444894D01*
X444576Y841824D01*
X443624D01*
X443306Y841824D01*
X434894D01*
X434576Y841824D01*
X433624D01*
X433306Y841824D01*
X424894D01*
X424576Y841824D01*
X423624D01*
X423306Y841824D01*
X414894D01*
X414576Y841824D01*
X413624D01*
X413306Y841824D01*
X404894D01*
X404576Y841824D01*
X403624D01*
X403306Y841824D01*
X394894D01*
X394576Y841824D01*
X393624D01*
X393306Y841824D01*
X384894D01*
X384576Y841824D01*
X383624D01*
X383306Y841824D01*
X380370D01*
Y832300D01*
Y822776D01*
X383306D01*
X383624Y822776D01*
X384576D01*
X384894Y822776D01*
X393306D01*
X393624Y822776D01*
X394576D01*
X394894Y822776D01*
X403306D01*
X403624Y822776D01*
X404576D01*
X404894Y822776D01*
X413306D01*
X413624Y822776D01*
X414576D01*
X414894Y822776D01*
X423306D01*
X423624Y822776D01*
X424576D01*
X424894Y822776D01*
X433306D01*
X433624Y822776D01*
X434576D01*
X434894Y822776D01*
X443306D01*
X443624Y822776D01*
X444576D01*
X444894Y822776D01*
X453306D01*
X453624Y822776D01*
X454576D01*
X454894Y822776D01*
X463306D01*
X463624Y822776D01*
X464576D01*
X464894Y822776D01*
X473306D01*
X473624Y822776D01*
X474576D01*
X474894Y822776D01*
X477830D01*
Y832300D01*
Y841824D01*
X474894D01*
X474576Y841824D01*
D02*
G37*
G36*
X503624Y841824D02*
X500370D01*
Y833570D01*
X503624D01*
Y841824D01*
D02*
G37*
G36*
X337830D02*
X334576D01*
Y833570D01*
X337830D01*
Y841824D01*
D02*
G37*
G36*
X503624Y831030D02*
X500370D01*
Y822776D01*
X503624D01*
Y831030D01*
D02*
G37*
G36*
X374576Y841824D02*
X373624D01*
X373306Y841824D01*
X370370D01*
Y832300D01*
Y822776D01*
X373306D01*
X373624Y822776D01*
X374576D01*
X374894Y822776D01*
X377830D01*
Y832300D01*
Y841824D01*
X374894D01*
X374576Y841824D01*
D02*
G37*
G36*
X337830Y831030D02*
X334576D01*
Y822776D01*
X337830D01*
Y831030D01*
D02*
G37*
G36*
X344576Y841824D02*
X343624D01*
X343306Y841824D01*
X340370D01*
Y832300D01*
Y822776D01*
X343306D01*
X343624Y822776D01*
X344576D01*
X344894Y822776D01*
X347830D01*
Y832300D01*
Y841824D01*
X344894D01*
X344576Y841824D01*
D02*
G37*
G36*
X71270Y832161D02*
Y821470D01*
X81961D01*
X81714Y823339D01*
X80503Y826264D01*
X78576Y828776D01*
X76064Y830703D01*
X73139Y831915D01*
X71270Y832161D01*
D02*
G37*
G36*
X20470D02*
Y821470D01*
X31161D01*
X30914Y823339D01*
X29703Y826264D01*
X27776Y828776D01*
X25264Y830703D01*
X22339Y831915D01*
X20470Y832161D01*
D02*
G37*
G36*
X68730Y832161D02*
X66861Y831915D01*
X63936Y830703D01*
X61424Y828776D01*
X59497Y826264D01*
X58285Y823339D01*
X58039Y821470D01*
X68730D01*
Y832161D01*
D02*
G37*
G36*
X17930D02*
X16061Y831915D01*
X13136Y830703D01*
X10624Y828776D01*
X8697Y826264D01*
X7485Y823339D01*
X7240Y821470D01*
X17930D01*
Y832161D01*
D02*
G37*
G36*
X740524Y822524D02*
X737270D01*
Y818270D01*
X740524D01*
Y822524D01*
D02*
G37*
G36*
X734730D02*
X731476D01*
Y818270D01*
X734730D01*
Y822524D01*
D02*
G37*
G36*
X572556Y845590D02*
X562000D01*
X561009Y845393D01*
X560169Y844831D01*
X517927Y802590D01*
X353430D01*
X352439Y802393D01*
X351599Y801831D01*
X314657Y764890D01*
X308624D01*
Y766506D01*
X308624Y766824D01*
Y767776D01*
X308624Y768094D01*
Y771030D01*
X289576D01*
Y768094D01*
X289576Y767776D01*
X289229Y766650D01*
X283452D01*
X282524Y767476D01*
X282524Y767920D01*
Y771730D01*
X273476D01*
Y767920D01*
X273476Y767476D01*
X272548Y766650D01*
X232000D01*
X230834Y766166D01*
X223834Y759166D01*
X223834Y759166D01*
X191394Y726727D01*
X190124Y727253D01*
Y736224D01*
X188449D01*
Y738176D01*
X190124D01*
Y739054D01*
X191394Y739733D01*
X191835Y739438D01*
X193600Y739087D01*
X195365Y739438D01*
X196862Y740438D01*
X197861Y741935D01*
X198213Y743700D01*
X197861Y745465D01*
X196862Y746962D01*
X195365Y747962D01*
X193600Y748313D01*
X191835Y747962D01*
X191703Y747873D01*
X190448Y748363D01*
X190124Y749224D01*
Y750176D01*
X190448Y751037D01*
X191703Y751527D01*
X191835Y751439D01*
X193600Y751087D01*
X195365Y751439D01*
X196862Y752438D01*
X197861Y753935D01*
X198213Y755700D01*
X197861Y757465D01*
X196862Y758962D01*
X195365Y759961D01*
X193600Y760313D01*
X191835Y759961D01*
X191394Y759667D01*
X190124Y760346D01*
Y761224D01*
X188449D01*
Y763176D01*
X190124D01*
Y773906D01*
X190124Y774224D01*
Y775176D01*
X190124Y775494D01*
Y779430D01*
X181076D01*
Y775494D01*
X181076Y775176D01*
Y774224D01*
X181076Y773906D01*
Y763176D01*
X182751D01*
Y761224D01*
X181076D01*
Y758549D01*
X179124D01*
Y761224D01*
X177449D01*
Y763176D01*
X179124D01*
Y773906D01*
X179124Y774224D01*
Y775176D01*
X179124Y775494D01*
Y779430D01*
X170076D01*
Y775494D01*
X170076Y775176D01*
Y774224D01*
X170076Y773906D01*
Y768849D01*
X141000D01*
X141000Y768849D01*
X139910Y768632D01*
X138986Y768014D01*
X138986Y768014D01*
X126060Y755089D01*
X112896D01*
X112896Y755089D01*
X111806Y754872D01*
X110882Y754254D01*
X110881Y754254D01*
X100906Y744279D01*
X100288Y743354D01*
X100071Y742264D01*
X100071Y742264D01*
Y722130D01*
X95290Y717349D01*
X69824D01*
Y723574D01*
X61149D01*
Y775526D01*
X69824D01*
Y804074D01*
X46776D01*
Y775526D01*
X55451D01*
Y723574D01*
X46776D01*
Y695026D01*
X69824D01*
Y711651D01*
X96470D01*
X96470Y711651D01*
X97560Y711868D01*
X98484Y712486D01*
X104709Y718710D01*
X105149Y718840D01*
X105504Y718856D01*
X106331Y718740D01*
X112536Y712536D01*
X112536Y712536D01*
X113460Y711918D01*
X114550Y711701D01*
X141776D01*
Y700526D01*
X164824D01*
Y728574D01*
X141776D01*
Y717399D01*
X115730D01*
X110849Y722280D01*
Y738980D01*
X116180Y744311D01*
X126060D01*
X138986Y731386D01*
X138986Y731386D01*
X139910Y730768D01*
X141000Y730551D01*
X141000Y730551D01*
X170076D01*
Y725494D01*
X170076Y725176D01*
Y724224D01*
X170076Y723906D01*
Y719970D01*
X179124D01*
Y723906D01*
X179124Y724224D01*
Y725176D01*
X179124Y725494D01*
Y736224D01*
X177449D01*
Y738176D01*
X179124D01*
Y740851D01*
X181076D01*
Y738176D01*
X182751D01*
Y736224D01*
X181076D01*
Y725494D01*
X181076Y725176D01*
Y724224D01*
X181076Y723906D01*
Y719970D01*
X185600D01*
Y718700D01*
X186870D01*
Y713176D01*
X190124Y713176D01*
X190350Y712000D01*
Y702524D01*
X182794D01*
X182476Y702524D01*
X181524D01*
X181206Y702524D01*
X177270D01*
Y698000D01*
Y693476D01*
X181206D01*
X181524Y693476D01*
X182476D01*
X182794Y693476D01*
X190350D01*
Y691324D01*
X182794D01*
X182476Y691324D01*
X181524D01*
X181206Y691324D01*
X177270D01*
Y686300D01*
Y681276D01*
X181206D01*
X181524Y681276D01*
X182476D01*
X182794Y681276D01*
X190350D01*
Y673750D01*
X190124Y672574D01*
X189080Y672574D01*
X186870D01*
Y667050D01*
X185600D01*
Y665780D01*
X181076D01*
Y661844D01*
X181076Y661526D01*
Y660574D01*
X181076Y660256D01*
Y649526D01*
X182751D01*
Y647574D01*
X181076D01*
Y644899D01*
X179124D01*
Y647574D01*
X177449D01*
Y649526D01*
X179124D01*
Y660256D01*
X179124Y660574D01*
Y661526D01*
X179124Y661844D01*
Y665780D01*
X170076D01*
Y661844D01*
X170076Y661526D01*
Y660574D01*
X170076Y660256D01*
Y658099D01*
X167230D01*
X164824Y660505D01*
Y685174D01*
X141776D01*
Y657126D01*
X160145D01*
X164036Y653236D01*
X164036Y653236D01*
X164960Y652618D01*
X166050Y652401D01*
X166050Y652401D01*
X170076D01*
Y649526D01*
X171751D01*
Y647574D01*
X170076D01*
Y636526D01*
X170076D01*
Y635574D01*
X170076D01*
Y624526D01*
X171751D01*
Y622574D01*
X170076D01*
Y619899D01*
X166050D01*
X166050Y619899D01*
X164960Y619682D01*
X164036Y619064D01*
X164036Y619064D01*
X160145Y615174D01*
X141776D01*
Y587126D01*
X164824D01*
Y611795D01*
X167230Y614201D01*
X170076D01*
Y611844D01*
X170076Y611526D01*
Y610574D01*
X170076Y610256D01*
Y606320D01*
X179124D01*
Y610256D01*
X179124Y610574D01*
Y611526D01*
X179124Y611844D01*
Y622574D01*
X177449D01*
Y624526D01*
X179124D01*
Y627201D01*
X181076D01*
Y624526D01*
X182751D01*
Y622574D01*
X181076D01*
Y611526D01*
X181076D01*
Y610574D01*
X181076D01*
Y606320D01*
X185600D01*
Y605050D01*
X186870D01*
Y599526D01*
X187619D01*
X187638Y599518D01*
X188237Y598829D01*
X188468Y598256D01*
X188370Y598020D01*
X188435Y597864D01*
X188402Y597698D01*
X188531Y597050D01*
X188308Y595928D01*
X187672Y594978D01*
X186722Y594342D01*
X185600Y594119D01*
X184952Y594248D01*
X184786Y594215D01*
X184630Y594280D01*
X184186Y594096D01*
X183714Y594002D01*
X183620Y593861D01*
X183464Y593797D01*
X173317Y583650D01*
X160000D01*
X158834Y583166D01*
X158350Y582000D01*
Y579683D01*
X153531Y574864D01*
X153405Y574561D01*
X153173Y574328D01*
Y574001D01*
X153048Y573697D01*
X152384Y572524D01*
X151476D01*
Y556476D01*
X152384D01*
X153048Y555303D01*
X153173Y555000D01*
Y554671D01*
X153405Y554439D01*
X153531Y554136D01*
X156834Y550834D01*
X158000Y550350D01*
X173548D01*
X174476Y549524D01*
X174476Y549080D01*
Y545270D01*
X179000D01*
X183524D01*
Y547823D01*
X184794Y548349D01*
X187136Y546007D01*
X187439Y545881D01*
X187672Y545649D01*
X187999D01*
X188303Y545524D01*
X189476Y544860D01*
Y543476D01*
X202524D01*
Y558524D01*
X201792D01*
X201024Y559476D01*
Y570524D01*
X201024D01*
Y571476D01*
X201024D01*
Y572654D01*
X202197Y573140D01*
X204140Y571197D01*
X203654Y570024D01*
X202476D01*
Y559976D01*
X205410D01*
Y556000D01*
X205607Y555009D01*
X206169Y554169D01*
X206476Y553862D01*
Y543476D01*
X219524D01*
Y558524D01*
X210590D01*
Y559976D01*
X213206D01*
X213524Y559976D01*
X214476D01*
X214794Y559976D01*
X218730D01*
Y565000D01*
Y570024D01*
X214794D01*
X214476Y570024D01*
X213524D01*
X213206Y570024D01*
X210590D01*
Y571000D01*
X210393Y571991D01*
X209831Y572831D01*
X206498Y576165D01*
X223166Y592834D01*
X223650Y594000D01*
Y661305D01*
X223494Y661680D01*
X223455Y662083D01*
X223262Y662241D01*
X223166Y662471D01*
X222792Y662627D01*
X222479Y662884D01*
X221209Y663269D01*
X220806Y663229D01*
X220408Y663308D01*
X220201Y663170D01*
X219952Y663145D01*
X219695Y662832D01*
X219670Y662815D01*
X219645Y662810D01*
X218421Y661992D01*
X217300Y661769D01*
X216178Y661992D01*
X215228Y662628D01*
X214592Y663578D01*
X214369Y664700D01*
X214605Y665884D01*
X214541Y666206D01*
X214854Y666801D01*
X215509Y667476D01*
X215730D01*
Y673000D01*
X217000D01*
Y674270D01*
X222024D01*
Y678524D01*
X222024D01*
Y679476D01*
X222024D01*
Y682851D01*
X225976D01*
Y681676D01*
X244024D01*
Y682851D01*
X245976D01*
Y675176D01*
X262450D01*
Y663113D01*
X260697Y661360D01*
X259524Y661846D01*
Y662024D01*
X248794D01*
X248476Y662024D01*
X247524D01*
X247206Y662024D01*
X236476D01*
Y662024D01*
X235206Y661373D01*
X234000Y661613D01*
X232235Y661262D01*
X230738Y660262D01*
X229739Y658765D01*
X229387Y657000D01*
X229739Y655235D01*
X230738Y653738D01*
X232235Y652738D01*
X234000Y652387D01*
X235206Y652627D01*
X236476Y651976D01*
Y651976D01*
X247206D01*
X247524Y651976D01*
X248476D01*
X248794Y651976D01*
X259524D01*
Y654410D01*
X260000D01*
X260991Y654607D01*
X261831Y655169D01*
X264833Y658170D01*
X266006Y657684D01*
Y654669D01*
X260697Y649360D01*
X259524Y649846D01*
Y650024D01*
X248794D01*
X248476Y650024D01*
X247524D01*
X247206Y650024D01*
X236476D01*
Y650024D01*
X235206Y649373D01*
X234000Y649613D01*
X232235Y649261D01*
X230738Y648262D01*
X229739Y646765D01*
X229387Y645000D01*
X229739Y643235D01*
X230738Y641738D01*
X232235Y640739D01*
X234000Y640387D01*
X235206Y640627D01*
X236476Y639976D01*
Y639976D01*
X247206D01*
X247524Y639976D01*
X248476D01*
X248794Y639976D01*
X259524D01*
Y642410D01*
X260000D01*
X260991Y642607D01*
X261831Y643169D01*
X268389Y649726D01*
X269562Y649240D01*
Y646225D01*
X260697Y637360D01*
X259524Y637846D01*
Y638024D01*
X248794D01*
X248476Y638024D01*
X247524D01*
X247206Y638024D01*
X236476D01*
Y638024D01*
X235206Y637373D01*
X234000Y637613D01*
X232235Y637262D01*
X230738Y636262D01*
X229739Y634765D01*
X229387Y633000D01*
X229739Y631235D01*
X230738Y629738D01*
X232235Y628739D01*
X234000Y628387D01*
X235206Y628627D01*
X236476Y627976D01*
Y627976D01*
X247206D01*
X247524Y627976D01*
X248476D01*
X248794Y627976D01*
X259524D01*
Y630410D01*
X260000D01*
X260991Y630607D01*
X261831Y631169D01*
X271945Y641282D01*
X273118Y640796D01*
Y637891D01*
X260697Y625470D01*
X259524Y625956D01*
Y626024D01*
X248794D01*
X248476Y626024D01*
X247524D01*
X247206Y626024D01*
X236476D01*
Y626024D01*
X235206Y625373D01*
X234000Y625613D01*
X232235Y625261D01*
X230738Y624262D01*
X229739Y622765D01*
X229387Y621000D01*
X229739Y619235D01*
X230738Y617738D01*
X232235Y616739D01*
X234000Y616387D01*
X235206Y616627D01*
X236476Y615976D01*
Y615976D01*
X247206D01*
X247524Y615976D01*
X248476D01*
X248794Y615976D01*
X259524D01*
Y618410D01*
X259890D01*
X260881Y618607D01*
X261721Y619169D01*
X275501Y632948D01*
X276674Y632462D01*
Y629297D01*
X260697Y613320D01*
X259524Y613806D01*
Y614024D01*
X248794D01*
X248476Y614024D01*
X247524D01*
X247206Y614024D01*
X236476D01*
Y614024D01*
X235206Y613373D01*
X234000Y613613D01*
X232235Y613261D01*
X230738Y612262D01*
X229739Y610765D01*
X229387Y609000D01*
X229739Y607235D01*
X230738Y605738D01*
X232235Y604739D01*
X234000Y604387D01*
X235206Y604627D01*
X236476Y603976D01*
Y603976D01*
X247206D01*
X247524Y603976D01*
X248476D01*
X248794Y603976D01*
X259524D01*
Y606410D01*
X260040D01*
X261031Y606607D01*
X261871Y607169D01*
X279057Y624354D01*
X280230Y623868D01*
Y621593D01*
X260328Y601691D01*
X259524Y602024D01*
Y602024D01*
X248794D01*
X248476Y602024D01*
X247524D01*
X247206Y602024D01*
X236476D01*
Y602024D01*
X235206Y601373D01*
X234000Y601613D01*
X232235Y601261D01*
X230738Y600262D01*
X229739Y598765D01*
X229387Y597000D01*
X229739Y595235D01*
X230738Y593738D01*
X232235Y592738D01*
X234000Y592387D01*
X235206Y592627D01*
X236476Y591976D01*
Y591976D01*
X247206D01*
X247524Y591976D01*
X248476D01*
X248794Y591976D01*
X255382D01*
X255892Y590805D01*
X255259Y590024D01*
X248794D01*
X248476Y590024D01*
X247524D01*
X247206Y590024D01*
X236476D01*
Y590024D01*
X235206Y589373D01*
X234000Y589613D01*
X232235Y589262D01*
X230738Y588262D01*
X229739Y586765D01*
X229387Y585000D01*
X229739Y583235D01*
X230738Y581738D01*
X232235Y580738D01*
X234000Y580387D01*
X235206Y580627D01*
X236476Y579976D01*
Y579976D01*
X247206D01*
X247524Y579976D01*
X248476D01*
X248794Y579976D01*
X259524D01*
Y586861D01*
X283217Y610554D01*
X284390Y610068D01*
Y602110D01*
X284390Y601792D01*
Y600840D01*
X284390Y600522D01*
Y596586D01*
X288914D01*
X293438D01*
Y600522D01*
X293438Y600840D01*
Y601792D01*
X293438Y602110D01*
Y604726D01*
X293536D01*
X294527Y604923D01*
X295367Y605485D01*
X300931Y611049D01*
X301493Y611889D01*
X301690Y612880D01*
Y627776D01*
X308624D01*
Y636824D01*
X308624D01*
Y637776D01*
X308624D01*
Y639710D01*
X310777D01*
X312410Y638077D01*
Y605597D01*
X293293Y586479D01*
X292500Y586637D01*
X290735Y586286D01*
X289238Y585286D01*
X288239Y583789D01*
X287887Y582024D01*
X288239Y580259D01*
X289238Y578762D01*
X290735Y577762D01*
X292500Y577411D01*
X294265Y577762D01*
X295762Y578762D01*
X296761Y580259D01*
X297113Y582024D01*
X296955Y582817D01*
X316140Y602002D01*
X317410Y601476D01*
Y587000D01*
X317607Y586009D01*
X318169Y585169D01*
X327837Y575500D01*
X328678Y574939D01*
X329669Y574742D01*
X485331D01*
X486322Y574939D01*
X487163Y575500D01*
X490931Y579269D01*
X491493Y580109D01*
X491690Y581100D01*
Y582776D01*
X493306D01*
X493624Y582776D01*
X494576D01*
X494894Y582776D01*
X497830D01*
Y592300D01*
Y601824D01*
X494894D01*
X494576Y601824D01*
X493624D01*
X493306Y601824D01*
X484894D01*
X484576Y601824D01*
X483624D01*
X483439Y603094D01*
X483713Y604470D01*
X483362Y606235D01*
X482362Y607732D01*
X480865Y608731D01*
X479100Y609083D01*
X477335Y608731D01*
X475838Y607732D01*
X474838Y606235D01*
X474748Y605777D01*
X473453D01*
X473362Y606235D01*
X472362Y607732D01*
X470865Y608731D01*
X469100Y609083D01*
X467335Y608731D01*
X465838Y607732D01*
X464838Y606235D01*
X464748Y605777D01*
X463453D01*
X463362Y606235D01*
X462362Y607732D01*
X460865Y608731D01*
X459100Y609083D01*
X457335Y608731D01*
X455838Y607732D01*
X454838Y606235D01*
X454748Y605777D01*
X453453D01*
X453362Y606235D01*
X452362Y607732D01*
X450865Y608731D01*
X449100Y609083D01*
X447335Y608731D01*
X445838Y607732D01*
X444838Y606235D01*
X444487Y604470D01*
X444761Y603094D01*
X444576Y601824D01*
X443624D01*
X443306Y601824D01*
X440370D01*
Y592300D01*
Y582776D01*
X443306D01*
X443624Y582776D01*
X444576D01*
X444894Y582776D01*
X453306D01*
X453624Y582776D01*
X454576D01*
X454894Y582776D01*
X463306D01*
X463624Y582776D01*
X464576D01*
X464894Y582776D01*
X473306D01*
X473624Y582776D01*
X474576D01*
X474894Y582776D01*
X483306D01*
X483624Y582776D01*
X484576D01*
X484894Y582776D01*
X485317D01*
X485844Y581506D01*
X484258Y579921D01*
X330742D01*
X322590Y588073D01*
Y660476D01*
X322393Y661467D01*
X321831Y662307D01*
X317455Y666684D01*
X317613Y667476D01*
X317262Y669241D01*
X316262Y670738D01*
X314765Y671738D01*
X313000Y672089D01*
X311235Y671738D01*
X309894Y670842D01*
X309231Y671019D01*
X308624Y671356D01*
Y676824D01*
X308624D01*
Y677776D01*
X308624D01*
Y686824D01*
X308624D01*
Y687776D01*
X308624D01*
Y696824D01*
X308624D01*
Y697776D01*
X308624D01*
Y706824D01*
X308624D01*
Y707776D01*
X308624D01*
Y716824D01*
X308624D01*
Y717776D01*
X308624D01*
Y726506D01*
X308624Y726824D01*
Y727776D01*
X308624Y728094D01*
Y736506D01*
X308624Y736824D01*
Y737776D01*
X308624Y738094D01*
Y746824D01*
X308624D01*
Y747776D01*
X308624D01*
Y756824D01*
X308624D01*
Y757776D01*
X308624D01*
Y759710D01*
X315730D01*
X316721Y759907D01*
X317561Y760469D01*
X354503Y797410D01*
X519000D01*
X519991Y797607D01*
X520831Y798169D01*
X563073Y840410D01*
X564776D01*
Y823347D01*
X572824D01*
Y829781D01*
X575427D01*
X580840Y824369D01*
X581680Y823807D01*
X582671Y823610D01*
X585976D01*
Y820994D01*
X585976Y820676D01*
Y819724D01*
X585976Y819406D01*
Y808676D01*
X596024D01*
Y811610D01*
X598576D01*
Y808976D01*
X613624D01*
Y820024D01*
X598576D01*
Y816790D01*
X596024D01*
Y819406D01*
X596024Y819724D01*
Y820676D01*
X596024Y820994D01*
Y831724D01*
X585976D01*
Y828790D01*
X583744D01*
X579393Y833140D01*
X579919Y834410D01*
X598576D01*
Y823976D01*
X613624D01*
Y832917D01*
X614894Y833444D01*
X620669Y827669D01*
X621509Y827107D01*
X622500Y826910D01*
X624976D01*
Y823976D01*
X640024D01*
Y826910D01*
X641676D01*
Y822794D01*
X641676Y822476D01*
Y821524D01*
X641676Y821206D01*
Y817270D01*
X646200D01*
X650724D01*
Y821206D01*
X650724Y821524D01*
Y822476D01*
X650724Y822794D01*
Y833524D01*
X641676D01*
Y832090D01*
X640024D01*
Y835024D01*
X624976D01*
Y832090D01*
X623573D01*
X616831Y838831D01*
X615991Y839393D01*
X615000Y839590D01*
X579629D01*
X574387Y844831D01*
X573547Y845393D01*
X572556Y845590D01*
D02*
G37*
G36*
X579324Y821395D02*
X576570D01*
Y813641D01*
X579324D01*
Y821395D01*
D02*
G37*
G36*
X574030D02*
X571276D01*
Y813641D01*
X574030D01*
Y821395D01*
D02*
G37*
G36*
X650724Y814730D02*
X647470D01*
Y810476D01*
X650724D01*
Y814730D01*
D02*
G37*
G36*
X644930D02*
X641676D01*
Y810476D01*
X644930D01*
Y814730D01*
D02*
G37*
G36*
X81961Y818930D02*
X71270D01*
Y808240D01*
X73139Y808485D01*
X76064Y809697D01*
X78576Y811624D01*
X80503Y814136D01*
X81714Y817061D01*
X81961Y818930D01*
D02*
G37*
G36*
X31161D02*
X20470D01*
Y808240D01*
X22339Y808485D01*
X25264Y809697D01*
X27776Y811624D01*
X29703Y814136D01*
X30914Y817061D01*
X31161Y818930D01*
D02*
G37*
G36*
X68730D02*
X58039D01*
X58285Y817061D01*
X59497Y814136D01*
X61424Y811624D01*
X63936Y809697D01*
X66861Y808485D01*
X68730Y808239D01*
Y818930D01*
D02*
G37*
G36*
X17930D02*
X7239D01*
X7485Y817061D01*
X8697Y814136D01*
X10624Y811624D01*
X13136Y809697D01*
X16061Y808485D01*
X17930Y808239D01*
Y818930D01*
D02*
G37*
G36*
X640024Y820024D02*
X624976D01*
Y808976D01*
X625410D01*
Y806024D01*
X620794D01*
X620476Y806024D01*
X619524D01*
X619206Y806024D01*
X608476D01*
Y803590D01*
X598000D01*
X597009Y803393D01*
X596169Y802831D01*
X588669Y795331D01*
X588107Y794491D01*
X587910Y793500D01*
Y738824D01*
X585476D01*
Y728094D01*
X585476Y727776D01*
Y726824D01*
X585476Y726506D01*
Y723890D01*
X574024D01*
Y730524D01*
X565976D01*
Y712476D01*
X574024D01*
Y718710D01*
X585476D01*
Y715776D01*
X595524D01*
Y726506D01*
X595524Y726824D01*
Y727776D01*
X595524Y728094D01*
Y738824D01*
X593090D01*
Y792427D01*
X599073Y798410D01*
X608476D01*
Y795976D01*
X619206D01*
X619524Y795976D01*
X620476D01*
X620794Y795976D01*
X631524D01*
Y806024D01*
X630590D01*
Y808976D01*
X640024D01*
Y820024D01*
D02*
G37*
G36*
X308624Y796824D02*
X300370D01*
Y793570D01*
X308624D01*
Y796824D01*
D02*
G37*
G36*
X297830D02*
X289576D01*
Y793570D01*
X297830D01*
Y796824D01*
D02*
G37*
G36*
X262524Y809824D02*
X247270D01*
Y793570D01*
X262524D01*
Y809824D01*
D02*
G37*
G36*
X244730D02*
X229476D01*
Y793570D01*
X244730D01*
Y809824D01*
D02*
G37*
G36*
X548624Y796824D02*
X540370D01*
Y793570D01*
X548624D01*
Y796824D01*
D02*
G37*
G36*
X537830D02*
X529576D01*
Y793570D01*
X537830D01*
Y796824D01*
D02*
G37*
G36*
X561730Y792730D02*
X557476D01*
Y788976D01*
X561730D01*
Y792730D01*
D02*
G37*
G36*
X566324Y821395D02*
X558276D01*
Y803347D01*
X559710D01*
Y802000D01*
X559907Y801009D01*
X560385Y800294D01*
X560265Y799811D01*
X559817Y799024D01*
X557476D01*
Y795270D01*
X563000D01*
Y794000D01*
X564270D01*
Y788976D01*
X568524D01*
Y788976D01*
X569476D01*
Y788976D01*
X572410D01*
Y787324D01*
X569794D01*
X569476Y787324D01*
X568524D01*
X568206Y787324D01*
X557476D01*
Y784890D01*
X548624D01*
Y786506D01*
X548624Y786824D01*
Y787776D01*
X548624Y788094D01*
Y791030D01*
X539100D01*
X529576D01*
Y788094D01*
X529576Y787776D01*
Y786824D01*
X529576Y786506D01*
Y778094D01*
X529576Y777776D01*
Y776824D01*
X529576Y776506D01*
Y768094D01*
X529576Y767776D01*
Y766824D01*
X529576Y766506D01*
Y758094D01*
X529576Y757776D01*
Y756824D01*
X529576Y756506D01*
Y748094D01*
X529576Y747776D01*
Y746824D01*
X529576Y746506D01*
Y738094D01*
X529576Y737776D01*
Y736824D01*
X529576Y736506D01*
Y728094D01*
X529576Y727776D01*
Y726824D01*
X529576Y726506D01*
Y718094D01*
X529576Y717776D01*
Y716824D01*
X529576Y716506D01*
Y708094D01*
X529576Y707776D01*
Y706824D01*
X529576Y706506D01*
Y698094D01*
X529576Y697776D01*
Y696824D01*
X529576Y696506D01*
Y688094D01*
X529576Y687776D01*
Y686824D01*
X529576Y686506D01*
Y683570D01*
X539100D01*
X548624D01*
Y686506D01*
X548624Y686824D01*
Y687776D01*
X548624Y688094D01*
Y696506D01*
X548624Y696824D01*
Y697776D01*
X548624Y698094D01*
Y706506D01*
X548624Y706824D01*
Y707776D01*
X548624Y708094D01*
Y716506D01*
X548624Y716824D01*
Y717776D01*
X548624Y718094D01*
Y726506D01*
X548624Y726824D01*
Y727776D01*
X548624Y728094D01*
Y736506D01*
X548624Y736824D01*
Y737776D01*
X548624Y738094D01*
Y746506D01*
X548624Y746824D01*
Y747776D01*
X548624Y748094D01*
Y756506D01*
X548624Y756824D01*
Y757776D01*
X548624Y758094D01*
Y766506D01*
X548624Y766824D01*
Y767776D01*
X548624Y768094D01*
Y769710D01*
X557476D01*
Y764976D01*
X568206D01*
X568524Y764976D01*
X569476D01*
X569794Y764976D01*
X572410D01*
Y763024D01*
X569794D01*
X569476Y763024D01*
X568524D01*
X568206Y763024D01*
X564270D01*
Y758000D01*
Y752976D01*
X568206D01*
X568524Y752976D01*
X569476D01*
X569794Y752976D01*
X573910D01*
Y750524D01*
X572476D01*
Y732476D01*
X580524D01*
Y750524D01*
X579090D01*
Y752976D01*
X580524D01*
Y763024D01*
X577590D01*
Y764976D01*
X580524D01*
Y775024D01*
X569794D01*
X569476Y775024D01*
X568524D01*
X568206Y775024D01*
X557476D01*
Y774890D01*
X548624D01*
Y776506D01*
X548624Y776824D01*
Y777776D01*
X548624Y778094D01*
Y779710D01*
X557476D01*
Y777276D01*
X568206D01*
X568524Y777276D01*
X569476D01*
X569794Y777276D01*
X580524D01*
Y787324D01*
X577590D01*
Y788976D01*
X580524D01*
Y799024D01*
X577585D01*
X577393Y799991D01*
X576831Y800831D01*
X575586Y802077D01*
X576112Y803347D01*
X579324D01*
Y811101D01*
X575300D01*
X571276D01*
Y803590D01*
X566324D01*
Y821395D01*
D02*
G37*
G36*
X308624Y791030D02*
X289576D01*
Y788094D01*
X289576Y787776D01*
Y786824D01*
X289576Y786506D01*
Y783570D01*
X308624D01*
Y786506D01*
X308624Y786824D01*
Y787776D01*
X308624Y788094D01*
Y791030D01*
D02*
G37*
G36*
X190124Y786224D02*
X186870D01*
Y781970D01*
X190124D01*
Y786224D01*
D02*
G37*
G36*
X184330D02*
X181076D01*
Y781970D01*
X184330D01*
Y786224D01*
D02*
G37*
G36*
X179124D02*
X175870D01*
Y781970D01*
X179124D01*
Y786224D01*
D02*
G37*
G36*
X173330D02*
X170076D01*
Y781970D01*
X173330D01*
Y786224D01*
D02*
G37*
G36*
X262524Y791030D02*
X247270D01*
Y774776D01*
X262524D01*
Y791030D01*
D02*
G37*
G36*
X244730D02*
X229476D01*
Y774776D01*
X244730D01*
Y791030D01*
D02*
G37*
G36*
X282524Y778524D02*
X279270D01*
Y774270D01*
X282524D01*
Y778524D01*
D02*
G37*
G36*
X276730D02*
X273476D01*
Y774270D01*
X276730D01*
Y778524D01*
D02*
G37*
G36*
X308624Y781030D02*
X289576D01*
Y778094D01*
X289576Y777776D01*
Y776824D01*
X289576Y776506D01*
Y773570D01*
X308624D01*
Y776506D01*
X308624Y776824D01*
Y777776D01*
X308624Y778094D01*
Y781030D01*
D02*
G37*
G36*
X164824Y798574D02*
X141776D01*
Y770526D01*
X164824D01*
Y798574D01*
D02*
G37*
G36*
X46300Y774135D02*
X44466Y773893D01*
X42758Y773185D01*
X41290Y772060D01*
X40165Y770592D01*
X39457Y768884D01*
X39215Y767050D01*
X39457Y765216D01*
X40165Y763508D01*
X41290Y762040D01*
X42758Y760915D01*
X44466Y760207D01*
X46300Y759965D01*
X48134Y760207D01*
X49842Y760915D01*
X51310Y762040D01*
X52435Y763508D01*
X53143Y765216D01*
X53385Y767050D01*
X53143Y768884D01*
X52435Y770592D01*
X51310Y772060D01*
X49842Y773185D01*
X48134Y773893D01*
X46300Y774135D01*
D02*
G37*
G36*
X561730Y763024D02*
X557476D01*
Y759270D01*
X561730D01*
Y763024D01*
D02*
G37*
G36*
Y756730D02*
X557476D01*
Y752976D01*
X561730D01*
Y756730D01*
D02*
G37*
G36*
X567524Y750524D02*
X564770D01*
Y742770D01*
X567524D01*
Y750524D01*
D02*
G37*
G36*
X562230D02*
X559476D01*
Y742770D01*
X562230D01*
Y750524D01*
D02*
G37*
G36*
X567524Y740230D02*
X564770D01*
Y732476D01*
X567524D01*
Y740230D01*
D02*
G37*
G36*
X562230D02*
X559476D01*
Y732476D01*
X562230D01*
Y740230D01*
D02*
G37*
G36*
X46300Y739135D02*
X44466Y738893D01*
X42758Y738186D01*
X41290Y737060D01*
X40165Y735592D01*
X39457Y733884D01*
X39215Y732050D01*
X39457Y730216D01*
X40165Y728508D01*
X41290Y727040D01*
X42758Y725915D01*
X44466Y725207D01*
X46300Y724965D01*
X48134Y725207D01*
X49842Y725915D01*
X51310Y727040D01*
X52435Y728508D01*
X53143Y730216D01*
X53385Y732050D01*
X53143Y733884D01*
X52435Y735592D01*
X51310Y737060D01*
X49842Y738186D01*
X48134Y738893D01*
X46300Y739135D01*
D02*
G37*
G36*
X179124Y717430D02*
X175870D01*
Y713176D01*
X179124D01*
Y717430D01*
D02*
G37*
G36*
X173330D02*
X170076D01*
Y713176D01*
X173330D01*
Y717430D01*
D02*
G37*
G36*
X184330D02*
X181076D01*
Y713176D01*
X184330D01*
Y717430D01*
D02*
G37*
G36*
X174730Y702524D02*
X170476D01*
Y699270D01*
X174730D01*
Y702524D01*
D02*
G37*
G36*
X717524Y702730D02*
X714270D01*
Y698476D01*
X717524D01*
Y702730D01*
D02*
G37*
G36*
X711730D02*
X708476D01*
Y698476D01*
X711730D01*
Y702730D01*
D02*
G37*
G36*
X681524D02*
X678270D01*
Y698476D01*
X681524D01*
Y702730D01*
D02*
G37*
G36*
X675730D02*
X672476D01*
Y698476D01*
X675730D01*
Y702730D01*
D02*
G37*
G36*
X174730Y696730D02*
X170476D01*
Y693476D01*
X174730D01*
Y696730D01*
D02*
G37*
G36*
X174730Y691324D02*
X170476D01*
Y687570D01*
X174730D01*
Y691324D01*
D02*
G37*
G36*
X741024Y689624D02*
X712976D01*
Y681693D01*
X685024D01*
Y689624D01*
X648976D01*
Y666576D01*
X685024D01*
Y674507D01*
X712976D01*
Y666576D01*
X723407D01*
Y600624D01*
X712976D01*
Y592693D01*
X685024D01*
Y600624D01*
X648976D01*
Y592293D01*
X646524D01*
Y593224D01*
X635794D01*
X635476Y593224D01*
X634524D01*
X634206Y593224D01*
X630270D01*
Y588700D01*
Y584176D01*
X634206D01*
X634524Y584176D01*
X635637Y584176D01*
X636907Y583797D01*
Y582224D01*
X630770D01*
Y577200D01*
Y572176D01*
X646524D01*
Y582224D01*
X644093D01*
Y584176D01*
X646524D01*
Y585107D01*
X648976D01*
Y577576D01*
X685024D01*
Y585507D01*
X712976D01*
Y577576D01*
X741024D01*
Y600624D01*
X730593D01*
Y666576D01*
X741024D01*
Y689624D01*
D02*
G37*
G36*
X174730Y685030D02*
X170476D01*
Y681276D01*
X174730D01*
Y685030D01*
D02*
G37*
G36*
X244024Y676724D02*
X236270D01*
Y673970D01*
X244024D01*
Y676724D01*
D02*
G37*
G36*
X233730D02*
X225976D01*
Y673970D01*
X233730D01*
Y676724D01*
D02*
G37*
G36*
X244024Y671430D02*
X236270D01*
Y668676D01*
X244024D01*
Y671430D01*
D02*
G37*
G36*
X233730D02*
X225976D01*
Y668676D01*
X233730D01*
Y671430D01*
D02*
G37*
G36*
X184330Y672574D02*
X181076D01*
Y668320D01*
X184330D01*
Y672574D01*
D02*
G37*
G36*
X179124D02*
X175870D01*
Y668320D01*
X179124D01*
Y672574D01*
D02*
G37*
G36*
X173330D02*
X170076D01*
Y668320D01*
X173330D01*
Y672574D01*
D02*
G37*
G36*
X222024Y671730D02*
X218270D01*
Y667476D01*
X222024D01*
Y671730D01*
D02*
G37*
G36*
X69824Y690674D02*
X46776D01*
Y662126D01*
X69824D01*
Y690674D01*
D02*
G37*
G36*
X623230Y659024D02*
X618476D01*
Y655270D01*
X623230D01*
Y659024D01*
D02*
G37*
G36*
X697000Y661742D02*
X694650Y661274D01*
X692657Y659943D01*
X691326Y657951D01*
X690858Y655600D01*
X691326Y653250D01*
X692657Y651257D01*
X694650Y649926D01*
X697000Y649458D01*
X699350Y649926D01*
X701343Y651257D01*
X702674Y653250D01*
X703142Y655600D01*
X702674Y657951D01*
X701343Y659943D01*
X699350Y661274D01*
X697000Y661742D01*
D02*
G37*
G36*
X623230Y652730D02*
X618476D01*
Y648976D01*
X623230D01*
Y652730D01*
D02*
G37*
G36*
X46300Y660735D02*
X44466Y660493D01*
X42758Y659785D01*
X41290Y658660D01*
X40165Y657192D01*
X39457Y655484D01*
X39216Y653650D01*
X39457Y651816D01*
X40165Y650108D01*
X41290Y648640D01*
X42758Y647515D01*
X44466Y646807D01*
X46300Y646565D01*
X48134Y646807D01*
X49842Y647515D01*
X51310Y648640D01*
X52435Y650108D01*
X53143Y651816D01*
X53385Y653650D01*
X53143Y655484D01*
X52435Y657192D01*
X51310Y658660D01*
X49842Y659785D01*
X48134Y660493D01*
X46300Y660735D01*
D02*
G37*
G36*
X548624Y681030D02*
X539100D01*
X529576D01*
Y678094D01*
X529576Y677776D01*
Y676824D01*
X529576Y676506D01*
Y668094D01*
X529576Y667776D01*
Y666824D01*
X529576Y666506D01*
Y658094D01*
X529576Y657776D01*
Y656824D01*
X529576Y656506D01*
Y648094D01*
X529576Y647776D01*
Y646824D01*
X529576Y646506D01*
Y643570D01*
X539100D01*
X548624D01*
Y646506D01*
X548624Y646824D01*
Y647776D01*
X548624Y648094D01*
Y656506D01*
X548624Y656824D01*
Y657776D01*
X548624Y658094D01*
Y666506D01*
X548624Y666824D01*
Y667776D01*
X548624Y668094D01*
Y676506D01*
X548624Y676824D01*
Y677776D01*
X548624Y678094D01*
Y681030D01*
D02*
G37*
G36*
X167824Y647674D02*
X138776D01*
Y624626D01*
X167824D01*
Y647674D01*
D02*
G37*
G36*
X46300Y625735D02*
X44466Y625493D01*
X42758Y624785D01*
X41290Y623660D01*
X40165Y622192D01*
X39457Y620484D01*
X39216Y618650D01*
X39457Y616816D01*
X40165Y615108D01*
X41290Y613641D01*
X42758Y612515D01*
X44466Y611807D01*
X46300Y611565D01*
X48134Y611807D01*
X49842Y612515D01*
X51310Y613641D01*
X52435Y615108D01*
X53143Y616816D01*
X53385Y618650D01*
X53143Y620484D01*
X52435Y622192D01*
X51310Y623660D01*
X49842Y624785D01*
X48134Y625493D01*
X46300Y625735D01*
D02*
G37*
G36*
X697000Y617742D02*
X694650Y617275D01*
X692657Y615943D01*
X691326Y613951D01*
X690858Y611600D01*
X691326Y609250D01*
X692657Y607257D01*
X694650Y605926D01*
X697000Y605458D01*
X699350Y605926D01*
X701343Y607257D01*
X702674Y609250D01*
X703142Y611600D01*
X702674Y613951D01*
X701343Y615943D01*
X699350Y617275D01*
X697000Y617742D01*
D02*
G37*
G36*
X446101Y777413D02*
X444336Y777062D01*
X442839Y776062D01*
X441839Y774566D01*
X441488Y772801D01*
X441839Y771036D01*
X442839Y769539D01*
X443252Y769263D01*
Y643899D01*
X443252Y643899D01*
X443469Y642809D01*
X444086Y641885D01*
X454584Y631387D01*
X454487Y630900D01*
X454838Y629135D01*
X455022Y628860D01*
X454343Y627590D01*
X428000D01*
X427009Y627393D01*
X426169Y626831D01*
X407269Y607931D01*
X406707Y607091D01*
X406510Y606100D01*
Y601824D01*
X404894D01*
X404576Y601824D01*
X403624D01*
X403306Y601824D01*
X394894D01*
X394576Y601824D01*
X393624D01*
X393306Y601824D01*
X384894D01*
X383839Y602621D01*
X383747Y603094D01*
X384202Y603775D01*
X384553Y605540D01*
X384202Y607305D01*
X383203Y608802D01*
X381706Y609801D01*
X379941Y610153D01*
X378176Y609801D01*
X376679Y608802D01*
X375679Y607305D01*
X375328Y605540D01*
X375679Y603775D01*
X376134Y603094D01*
X375457Y601824D01*
X374576Y601824D01*
X373624D01*
X373306Y601824D01*
X372030D01*
X371747Y603094D01*
X372202Y603775D01*
X372553Y605540D01*
X372202Y607305D01*
X371203Y608802D01*
X369706Y609801D01*
X367941Y610153D01*
X366176Y609801D01*
X364679Y608802D01*
X363679Y607305D01*
X363328Y605540D01*
X363679Y603775D01*
X364230Y602951D01*
X364290Y602757D01*
X363455Y601824D01*
X363306Y601824D01*
X361589D01*
X361493Y602307D01*
X360931Y603147D01*
X359416Y604663D01*
Y653895D01*
X360540Y654927D01*
X362305Y655278D01*
X363802Y656278D01*
X364801Y657775D01*
X365153Y659540D01*
X364801Y661305D01*
X363802Y662802D01*
X362305Y663801D01*
X360540Y664153D01*
X358775Y663801D01*
X357278Y662802D01*
X356278Y661305D01*
X355927Y659540D01*
X356085Y658747D01*
X355365Y658028D01*
X354966Y657912D01*
X354114D01*
X353715Y658028D01*
X352995Y658747D01*
X353153Y659540D01*
X352802Y661305D01*
X351802Y662802D01*
X350305Y663801D01*
X348540Y664153D01*
X346775Y663801D01*
X345278Y662802D01*
X344278Y661305D01*
X343927Y659540D01*
X344278Y657775D01*
X345278Y656278D01*
X346775Y655278D01*
X348540Y654927D01*
X349664Y653895D01*
Y605543D01*
X347269Y603147D01*
X346707Y602307D01*
X346611Y601824D01*
X344894D01*
X344576Y601824D01*
X343624D01*
X343306Y601824D01*
X340370D01*
Y592300D01*
Y582776D01*
X343306D01*
X343624Y582776D01*
X344576D01*
X344894Y582776D01*
X353624D01*
Y582776D01*
X354576D01*
Y582776D01*
X363306D01*
X363624Y582776D01*
X364576D01*
X364894Y582776D01*
X373306D01*
X373624Y582776D01*
X374576D01*
X374894Y582776D01*
X383306D01*
X383624Y582776D01*
X384576D01*
X384894Y582776D01*
X393306D01*
X393624Y582776D01*
X394576D01*
X394894Y582776D01*
X403306D01*
X403624Y582776D01*
X404576D01*
X404894Y582776D01*
X413624D01*
Y582776D01*
X414576D01*
Y582776D01*
X423624D01*
Y582776D01*
X424576D01*
Y582776D01*
X433306D01*
X433624Y582776D01*
X434576D01*
X434894Y582776D01*
X437830D01*
Y592300D01*
Y601824D01*
X434894D01*
X434576Y601824D01*
X433624D01*
X433306Y601824D01*
X431589D01*
X431493Y602307D01*
X430931Y603147D01*
X428976Y605103D01*
Y607813D01*
X434573Y613410D01*
X492462D01*
X502778Y603094D01*
X502252Y601824D01*
X500370D01*
Y593570D01*
X503624D01*
Y600452D01*
X504894Y600978D01*
X509275Y596597D01*
X510115Y596035D01*
X511106Y595838D01*
X582494D01*
X583485Y596035D01*
X584325Y596597D01*
X613138Y625410D01*
X619289D01*
X619593Y625207D01*
X619884Y624640D01*
X620105Y623870D01*
X625100D01*
Y621330D01*
X620136D01*
X620176Y621127D01*
X620557Y620557D01*
X621127Y620176D01*
X621800Y620042D01*
X625042D01*
Y619800D01*
X625176Y619127D01*
X625355Y618860D01*
X624978Y617825D01*
X624792Y617590D01*
X624000D01*
X623009Y617393D01*
X622169Y616831D01*
X619269Y613931D01*
X618707Y613091D01*
X618535Y612224D01*
X613576D01*
Y607206D01*
X612306Y606820D01*
X612212Y606962D01*
X610715Y607962D01*
X608950Y608313D01*
X607185Y607962D01*
X605688Y606962D01*
X604688Y605465D01*
X604337Y603700D01*
X604688Y601935D01*
X605688Y600438D01*
X607185Y599439D01*
X608950Y599087D01*
X610715Y599439D01*
X612212Y600438D01*
X612306Y600580D01*
X613576Y600195D01*
Y595176D01*
X628624D01*
Y612224D01*
X629817Y612410D01*
X629950D01*
X630422Y612504D01*
X631486Y611690D01*
X631523Y611627D01*
Y611627D01*
X631523Y611626D01*
X631576Y610450D01*
Y595176D01*
X646624D01*
Y612224D01*
X645075D01*
X644439Y613494D01*
X644822Y614007D01*
X648976D01*
Y613576D01*
X685024D01*
Y621576D01*
Y629576D01*
Y637576D01*
Y645576D01*
Y653624D01*
X648976D01*
Y653483D01*
X647706Y652956D01*
X644831Y655831D01*
X643991Y656393D01*
X643000Y656590D01*
X641524D01*
Y659024D01*
X625770D01*
Y654000D01*
Y648976D01*
X641524D01*
Y650017D01*
X642794Y650544D01*
X645569Y647769D01*
X646409Y647207D01*
X647400Y647010D01*
X648976D01*
Y644190D01*
X646600D01*
X645609Y643993D01*
X644769Y643431D01*
X641527Y640190D01*
X636158D01*
Y640400D01*
X636024Y641073D01*
X635643Y641643D01*
X635073Y642024D01*
X634400Y642158D01*
X632800D01*
X632127Y642024D01*
X631601Y641672D01*
X631548Y641643D01*
X630850D01*
X630152D01*
X630099Y641672D01*
X629573Y642024D01*
X629370Y642064D01*
Y638600D01*
X626830D01*
Y642064D01*
X626627Y642024D01*
X626057Y641643D01*
X625676Y641073D01*
X625542Y640400D01*
Y640158D01*
X622300D01*
X621627Y640024D01*
X621057Y639643D01*
X620676Y639073D01*
X620636Y638870D01*
X625600D01*
Y636330D01*
X620559D01*
X620090Y635486D01*
X619794Y635162D01*
X610172D01*
X609181Y634965D01*
X608341Y634403D01*
X584747Y610809D01*
X583368Y611227D01*
X583261Y611765D01*
X582262Y613262D01*
X580765Y614262D01*
X579000Y614613D01*
X577235Y614262D01*
X575738Y613262D01*
X574739Y611765D01*
X574387Y610000D01*
X573262Y609146D01*
X517517D01*
X499831Y626831D01*
X498991Y627393D01*
X498000Y627590D01*
X463857D01*
X463178Y628860D01*
X463362Y629135D01*
X463713Y630900D01*
X463362Y632665D01*
X462362Y634162D01*
X460865Y635162D01*
X459100Y635513D01*
X458613Y635416D01*
X448950Y645079D01*
Y769263D01*
X449362Y769539D01*
X450362Y771036D01*
X450713Y772801D01*
X450362Y774566D01*
X449362Y776062D01*
X447866Y777062D01*
X446101Y777413D01*
D02*
G37*
G36*
X184330Y603780D02*
X181076D01*
Y599526D01*
X184330D01*
Y603780D01*
D02*
G37*
G36*
X179124D02*
X175870D01*
Y599526D01*
X179124D01*
Y603780D01*
D02*
G37*
G36*
X173330D02*
X170076D01*
Y599526D01*
X173330D01*
Y603780D01*
D02*
G37*
G36*
X337830Y601824D02*
X334576D01*
Y593570D01*
X337830D01*
Y601824D01*
D02*
G37*
G36*
X627730Y593224D02*
X623476D01*
Y589970D01*
X627730D01*
Y593224D01*
D02*
G37*
G36*
X293438Y594046D02*
X290184D01*
Y589792D01*
X293438D01*
Y594046D01*
D02*
G37*
G36*
X287644D02*
X284390D01*
Y589792D01*
X287644D01*
Y594046D01*
D02*
G37*
G36*
X627730Y587430D02*
X623476D01*
Y584176D01*
X627730D01*
Y587430D01*
D02*
G37*
G36*
X503624Y591030D02*
X500370D01*
Y582776D01*
X503624D01*
Y591030D01*
D02*
G37*
G36*
X337830D02*
X334576D01*
Y582776D01*
X337830D01*
Y591030D01*
D02*
G37*
G36*
X69824Y610174D02*
X46776D01*
Y581626D01*
X69824D01*
Y610174D01*
D02*
G37*
G36*
X628230Y582224D02*
X623476D01*
Y578470D01*
X628230D01*
Y582224D01*
D02*
G37*
G36*
Y575930D02*
X623476D01*
Y572176D01*
X628230D01*
Y575930D01*
D02*
G37*
G36*
X231730Y569524D02*
X227476D01*
Y566270D01*
X231730D01*
Y569524D01*
D02*
G37*
G36*
X221270Y570024D02*
Y566270D01*
X225524D01*
Y570024D01*
X221270D01*
D02*
G37*
G36*
X231730Y563730D02*
X227476D01*
Y560476D01*
X231730D01*
Y563730D01*
D02*
G37*
G36*
X225524Y563730D02*
X221270D01*
Y559976D01*
X225524D01*
Y563730D01*
D02*
G37*
G36*
X228730Y558524D02*
X223476D01*
Y552270D01*
X228730D01*
Y558524D01*
D02*
G37*
G36*
Y549730D02*
X223476D01*
Y543476D01*
X228730D01*
Y549730D01*
D02*
G37*
G36*
X183524Y542730D02*
X180270D01*
Y538476D01*
X183524D01*
Y542730D01*
D02*
G37*
G36*
X177730D02*
X174476D01*
Y538476D01*
X177730D01*
Y542730D01*
D02*
G37*
G36*
X172524Y543524D02*
X163270D01*
Y536770D01*
X172524D01*
Y543524D01*
D02*
G37*
G36*
X160730D02*
X151476D01*
Y536770D01*
X160730D01*
Y543524D01*
D02*
G37*
G36*
X172524Y534230D02*
X163270D01*
Y527476D01*
X172524D01*
Y534230D01*
D02*
G37*
G36*
X160730D02*
X151476D01*
Y527476D01*
X160730D01*
Y534230D01*
D02*
G37*
G36*
X228730Y535974D02*
X186226D01*
Y495720D01*
X228730D01*
Y535974D01*
D02*
G37*
G36*
X95000Y517623D02*
X91992Y517227D01*
X89188Y516066D01*
X86781Y514219D01*
X84934Y511812D01*
X83773Y509008D01*
X83377Y506000D01*
X83773Y502992D01*
X84934Y500188D01*
X86781Y497781D01*
X89188Y495934D01*
X91992Y494773D01*
X95000Y494377D01*
X98008Y494773D01*
X100812Y495934D01*
X103219Y497781D01*
X105066Y500188D01*
X106227Y502992D01*
X106623Y506000D01*
X106227Y509008D01*
X105066Y511812D01*
X103219Y514219D01*
X100812Y516066D01*
X98008Y517227D01*
X95000Y517623D01*
D02*
G37*
G36*
X51000D02*
X47992Y517227D01*
X45188Y516066D01*
X42781Y514219D01*
X40934Y511812D01*
X39773Y509008D01*
X39377Y506000D01*
X39773Y502992D01*
X40934Y500188D01*
X42781Y497781D01*
X45188Y495934D01*
X47992Y494773D01*
X51000Y494377D01*
X54008Y494773D01*
X56812Y495934D01*
X59219Y497781D01*
X61066Y500188D01*
X62227Y502992D01*
X62623Y506000D01*
X62227Y509008D01*
X61066Y511812D01*
X59219Y514219D01*
X56812Y516066D01*
X54008Y517227D01*
X51000Y517623D01*
D02*
G37*
G36*
X176274Y478274D02*
X167270D01*
Y464770D01*
X176274D01*
Y478274D01*
D02*
G37*
G36*
X164730D02*
X155726D01*
Y464770D01*
X164730D01*
Y478274D01*
D02*
G37*
G36*
X273774Y493180D02*
X231270D01*
Y452926D01*
X273774D01*
Y493180D01*
D02*
G37*
G36*
X228730D02*
X186226D01*
Y452926D01*
X228730D01*
Y493180D01*
D02*
G37*
G36*
X121524Y467524D02*
X111270D01*
Y452270D01*
X121524D01*
Y467524D01*
D02*
G37*
G36*
X61524D02*
X51270D01*
Y452270D01*
X61524D01*
Y467524D01*
D02*
G37*
G36*
X108730D02*
X98476D01*
Y452270D01*
X108730D01*
Y467524D01*
D02*
G37*
G36*
X48730D02*
X38476D01*
Y452270D01*
X48730D01*
Y467524D01*
D02*
G37*
G36*
X176274Y462230D02*
X167270D01*
Y448726D01*
X176274D01*
Y462230D01*
D02*
G37*
G36*
X164730D02*
X155726D01*
Y448726D01*
X164730D01*
Y462230D01*
D02*
G37*
G36*
X121524Y449730D02*
X111270D01*
Y434476D01*
X121524D01*
Y449730D01*
D02*
G37*
G36*
X108730D02*
X98476D01*
Y434476D01*
X108730D01*
Y449730D01*
D02*
G37*
G36*
X61524D02*
X51270D01*
Y434476D01*
X61524D01*
Y449730D01*
D02*
G37*
G36*
X48730D02*
X38476D01*
Y434476D01*
X48730D01*
Y449730D01*
D02*
G37*
%LPD*%
G36*
X289576Y763570D02*
X299100D01*
Y761030D01*
X289576D01*
Y757776D01*
X289576D01*
Y756824D01*
X289576D01*
Y753570D01*
X299100D01*
Y751030D01*
X289576D01*
Y747776D01*
X289576D01*
Y746824D01*
X289576D01*
Y743570D01*
X299100D01*
Y741030D01*
X289576D01*
Y739000D01*
X274200D01*
X263697Y728497D01*
X262524Y728983D01*
Y741030D01*
X247270D01*
Y724776D01*
X258317D01*
X258803Y723603D01*
X256200Y721000D01*
X235000D01*
X222000Y708000D01*
Y690524D01*
X211976D01*
Y679476D01*
X211976D01*
Y678524D01*
X211976D01*
Y667476D01*
X212303D01*
X212987Y666206D01*
X212687Y664700D01*
X213039Y662935D01*
X214038Y661438D01*
X215535Y660439D01*
X217300Y660087D01*
X219065Y660439D01*
X220562Y661438D01*
X220730Y661690D01*
X222000Y661305D01*
Y594000D01*
X205331Y577331D01*
X203831Y578831D01*
X202991Y579393D01*
X202000Y579590D01*
X201024D01*
Y582524D01*
X190976D01*
Y571476D01*
X190976D01*
Y570524D01*
X190976D01*
Y566270D01*
X196000D01*
Y563730D01*
X190976D01*
Y559476D01*
X190208Y558524D01*
X189476D01*
Y552270D01*
X196000D01*
Y549730D01*
X189476D01*
Y547659D01*
X188303Y547173D01*
X183524Y551952D01*
Y554730D01*
X179000D01*
X174476D01*
Y552000D01*
X158000D01*
X154697Y555303D01*
X155183Y556476D01*
X160730D01*
Y564500D01*
Y572524D01*
X155183D01*
X154697Y573697D01*
X160000Y579000D01*
Y582000D01*
X174000D01*
X184630Y592630D01*
X185600Y592437D01*
X187365Y592789D01*
X188862Y593788D01*
X189862Y595285D01*
X190213Y597050D01*
X190020Y598020D01*
X192000Y600000D01*
Y624755D01*
X192982Y625560D01*
X193600Y625437D01*
X195365Y625788D01*
X196862Y626788D01*
X197861Y628285D01*
X198213Y630050D01*
X197861Y631815D01*
X196862Y633312D01*
X195365Y634311D01*
X193600Y634663D01*
X192982Y634540D01*
X192000Y635345D01*
Y636755D01*
X192982Y637560D01*
X193600Y637437D01*
X195365Y637789D01*
X196862Y638788D01*
X197861Y640285D01*
X198213Y642050D01*
X197861Y643815D01*
X196862Y645312D01*
X195365Y646311D01*
X193600Y646663D01*
X192982Y646540D01*
X192000Y647345D01*
Y681276D01*
X193524D01*
Y691324D01*
X192000D01*
Y693476D01*
X193524D01*
Y696730D01*
X188000D01*
Y699270D01*
X193524D01*
Y702524D01*
X192000D01*
Y725000D01*
X225000Y758000D01*
X232000Y765000D01*
X273476D01*
Y762270D01*
X282524D01*
Y765000D01*
X289576D01*
Y763570D01*
D02*
G37*
%LPC*%
G36*
X282524Y759730D02*
X279270D01*
Y755476D01*
X282524D01*
Y759730D01*
D02*
G37*
G36*
X276730D02*
X273476D01*
Y755476D01*
X276730D01*
Y759730D01*
D02*
G37*
G36*
X262524Y759824D02*
X247270D01*
Y743570D01*
X262524D01*
Y759824D01*
D02*
G37*
G36*
X244730D02*
X229476D01*
Y743570D01*
X244730D01*
Y759824D01*
D02*
G37*
G36*
Y741030D02*
X229476D01*
Y724776D01*
X244730D01*
Y741030D01*
D02*
G37*
G36*
X172524Y572524D02*
X163270D01*
Y565770D01*
X172524D01*
Y572524D01*
D02*
G37*
G36*
X183524Y561524D02*
X180270D01*
Y557270D01*
X183524D01*
Y561524D01*
D02*
G37*
G36*
X177730D02*
X174476D01*
Y557270D01*
X177730D01*
Y561524D01*
D02*
G37*
G36*
X172524Y563230D02*
X163270D01*
Y556476D01*
X172524D01*
Y563230D01*
D02*
G37*
G36*
X108730Y559730D02*
X98476D01*
Y544476D01*
X108730D01*
Y559730D01*
D02*
G37*
G36*
X61524D02*
X51270D01*
Y544476D01*
X61524D01*
Y559730D01*
D02*
G37*
G36*
X48730D02*
X38476D01*
Y544476D01*
X48730D01*
Y559730D01*
D02*
G37*
G36*
X246270Y569524D02*
Y566270D01*
X250524D01*
Y569524D01*
X246270D01*
D02*
G37*
G36*
X250524Y563730D02*
X246270D01*
Y560476D01*
X250524D01*
Y563730D01*
D02*
G37*
G36*
X253524Y558524D02*
X248270D01*
Y552270D01*
X253524D01*
Y558524D01*
D02*
G37*
G36*
X270524D02*
X265270D01*
Y552270D01*
X270524D01*
Y558524D01*
D02*
G37*
G36*
X262730D02*
X257476D01*
Y552270D01*
X262730D01*
Y558524D01*
D02*
G37*
G36*
X245730D02*
X240476D01*
Y552270D01*
X245730D01*
Y558524D01*
D02*
G37*
G36*
X270524Y549730D02*
X265270D01*
Y543476D01*
X270524D01*
Y549730D01*
D02*
G37*
G36*
X262730D02*
X257476D01*
Y543476D01*
X262730D01*
Y549730D01*
D02*
G37*
G36*
X253524D02*
X248270D01*
Y543476D01*
X253524D01*
Y549730D01*
D02*
G37*
G36*
X245730D02*
X240476D01*
Y543476D01*
X245730D01*
Y549730D01*
D02*
G37*
G36*
X521170Y529335D02*
Y521670D01*
X528835D01*
X528692Y522756D01*
X527783Y524951D01*
X526336Y526836D01*
X524451Y528282D01*
X522256Y529192D01*
X521170Y529335D01*
D02*
G37*
G36*
X518630D02*
X517544Y529192D01*
X515349Y528282D01*
X513464Y526836D01*
X512018Y524951D01*
X511108Y522756D01*
X510965Y521670D01*
X518630D01*
Y529335D01*
D02*
G37*
G36*
X528835Y519130D02*
X521170D01*
Y511465D01*
X522256Y511608D01*
X524451Y512518D01*
X526336Y513964D01*
X527783Y515849D01*
X528692Y518044D01*
X528835Y519130D01*
D02*
G37*
G36*
X518630D02*
X510965D01*
X511108Y518044D01*
X512018Y515849D01*
X513464Y513964D01*
X515349Y512518D01*
X517544Y511608D01*
X518630Y511465D01*
Y519130D01*
D02*
G37*
G36*
X494500Y529502D02*
X492144Y529192D01*
X489949Y528282D01*
X488064Y526836D01*
X486618Y524951D01*
X485708Y522756D01*
X485398Y520400D01*
X485708Y518044D01*
X486618Y515849D01*
X488064Y513964D01*
X489949Y512518D01*
X492144Y511608D01*
X494500Y511298D01*
X496856Y511608D01*
X499051Y512518D01*
X500936Y513964D01*
X502383Y515849D01*
X503292Y518044D01*
X503602Y520400D01*
X503292Y522756D01*
X502383Y524951D01*
X500936Y526836D01*
X499051Y528282D01*
X496856Y529192D01*
X494500Y529502D01*
D02*
G37*
G36*
X521170Y503934D02*
Y496269D01*
X528835D01*
X528692Y497355D01*
X527783Y499550D01*
X526336Y501435D01*
X524451Y502882D01*
X522256Y503791D01*
X521170Y503934D01*
D02*
G37*
G36*
X518630D02*
X517544Y503791D01*
X515349Y502882D01*
X513464Y501435D01*
X512018Y499550D01*
X511108Y497355D01*
X510965Y496269D01*
X518630D01*
Y503934D01*
D02*
G37*
G36*
X528835Y493729D02*
X521170D01*
Y486064D01*
X522256Y486208D01*
X524451Y487117D01*
X526336Y488563D01*
X527783Y490448D01*
X528692Y492644D01*
X528835Y493729D01*
D02*
G37*
G36*
X518630D02*
X510965D01*
X511108Y492644D01*
X512018Y490448D01*
X513464Y488563D01*
X515349Y487117D01*
X517544Y486208D01*
X518630Y486064D01*
Y493729D01*
D02*
G37*
G36*
X692730Y481130D02*
X688476D01*
Y477876D01*
X692730D01*
Y481130D01*
D02*
G37*
G36*
X614524Y440524D02*
X609770D01*
Y435270D01*
X614524D01*
Y440524D01*
D02*
G37*
G36*
X607230D02*
X602476D01*
Y435270D01*
X607230D01*
Y440524D01*
D02*
G37*
G36*
X536524D02*
X531270D01*
Y435270D01*
X536524D01*
Y440524D01*
D02*
G37*
G36*
X528730D02*
X523476D01*
Y435270D01*
X528730D01*
Y440524D01*
D02*
G37*
G36*
X567524D02*
X562270D01*
Y435270D01*
X567524D01*
Y440524D01*
D02*
G37*
G36*
X559730D02*
X554476D01*
Y435270D01*
X559730D01*
Y440524D01*
D02*
G37*
G36*
X614524Y432730D02*
X609770D01*
Y427476D01*
X614524D01*
Y432730D01*
D02*
G37*
G36*
X607230D02*
X602476D01*
Y427476D01*
X607230D01*
Y432730D01*
D02*
G37*
G36*
X567524Y432730D02*
X562270D01*
Y427476D01*
X567524D01*
Y432730D01*
D02*
G37*
G36*
X559730D02*
X554476D01*
Y427476D01*
X559730D01*
Y432730D01*
D02*
G37*
G36*
X536524Y432730D02*
X531270D01*
Y427476D01*
X536524D01*
Y432730D01*
D02*
G37*
G36*
X528730D02*
X523476D01*
Y427476D01*
X528730D01*
Y432730D01*
D02*
G37*
G36*
X620000Y394403D02*
X618430Y394090D01*
X617099Y393201D01*
X616209Y391870D01*
X615897Y390300D01*
X616209Y388730D01*
X617099Y387399D01*
X618430Y386510D01*
X620000Y386197D01*
X621570Y386510D01*
X622901Y387399D01*
X623791Y388730D01*
X624103Y390300D01*
X623791Y391870D01*
X622901Y393201D01*
X621570Y394090D01*
X620000Y394403D01*
D02*
G37*
G36*
Y332403D02*
X618430Y332090D01*
X617099Y331201D01*
X616209Y329870D01*
X615897Y328300D01*
X616209Y326730D01*
X617099Y325399D01*
X618430Y324510D01*
X620000Y324197D01*
X621570Y324510D01*
X622901Y325399D01*
X623791Y326730D01*
X624103Y328300D01*
X623791Y329870D01*
X622901Y331201D01*
X621570Y332090D01*
X620000Y332403D01*
D02*
G37*
G36*
X725830Y310635D02*
X724744Y310492D01*
X722549Y309582D01*
X720664Y308136D01*
X719218Y306251D01*
X718308Y304056D01*
X718165Y302970D01*
X725830D01*
Y310635D01*
D02*
G37*
G36*
Y300430D02*
X718165D01*
X718308Y299344D01*
X719218Y297149D01*
X720664Y295264D01*
X722549Y293818D01*
X724744Y292908D01*
X725830Y292765D01*
Y300430D01*
D02*
G37*
G36*
Y285235D02*
X724744Y285092D01*
X722549Y284182D01*
X720664Y282736D01*
X719218Y280851D01*
X718308Y278656D01*
X718165Y277570D01*
X725830D01*
Y285235D01*
D02*
G37*
G36*
Y275030D02*
X718165D01*
X718308Y273944D01*
X719218Y271749D01*
X720664Y269864D01*
X722549Y268418D01*
X724744Y267508D01*
X725830Y267365D01*
Y275030D01*
D02*
G37*
G36*
X309984Y359504D02*
X306730D01*
Y355250D01*
X309984D01*
Y359504D01*
D02*
G37*
G36*
X304190D02*
X300936D01*
Y355250D01*
X304190D01*
Y359504D01*
D02*
G37*
G36*
X539524Y310524D02*
X534270D01*
Y305270D01*
X539524D01*
Y310524D01*
D02*
G37*
G36*
X531730D02*
X526476D01*
Y305270D01*
X531730D01*
Y310524D01*
D02*
G37*
G36*
X539524Y302730D02*
X534270D01*
Y297476D01*
X539524D01*
Y302730D01*
D02*
G37*
G36*
X531730D02*
X526476D01*
Y297476D01*
X531730D01*
Y302730D01*
D02*
G37*
G36*
X166304Y402944D02*
X149256D01*
Y378896D01*
X155190D01*
Y302944D01*
X149256D01*
Y286514D01*
X146804D01*
Y288948D01*
X136074D01*
X135756Y288948D01*
X134804D01*
X134486Y288948D01*
X130550D01*
Y283924D01*
Y278900D01*
X134486D01*
X134804Y278900D01*
X135756D01*
X136074Y278900D01*
X146804D01*
Y281334D01*
X149256D01*
Y278896D01*
X166304D01*
Y302944D01*
X160370D01*
Y378896D01*
X166304D01*
Y402944D01*
D02*
G37*
G36*
X128010Y288948D02*
X123756D01*
Y285194D01*
X128010D01*
Y288948D01*
D02*
G37*
G36*
Y282654D02*
X123756D01*
Y278900D01*
X128010D01*
Y282654D01*
D02*
G37*
G36*
X570470Y254024D02*
Y250270D01*
X574724D01*
Y254024D01*
X570470D01*
D02*
G37*
G36*
X574724Y247730D02*
X570470D01*
Y243976D01*
X574724D01*
Y247730D01*
D02*
G37*
G36*
X599324Y240324D02*
X594070D01*
Y235070D01*
X599324D01*
Y240324D01*
D02*
G37*
G36*
X591530D02*
X586276D01*
Y235070D01*
X591530D01*
Y240324D01*
D02*
G37*
G36*
X599324Y232530D02*
X594070D01*
Y227276D01*
X599324D01*
Y232530D01*
D02*
G37*
G36*
X591530D02*
X586276D01*
Y227276D01*
X591530D01*
Y232530D01*
D02*
G37*
G36*
X634524Y220730D02*
X631270D01*
Y216476D01*
X634524D01*
Y220730D01*
D02*
G37*
G36*
X628730D02*
X625476D01*
Y216476D01*
X628730D01*
Y220730D01*
D02*
G37*
G36*
X640730Y211724D02*
X636476D01*
Y208470D01*
X640730D01*
Y211724D01*
D02*
G37*
G36*
Y205930D02*
X636476D01*
Y202676D01*
X640730D01*
Y205930D01*
D02*
G37*
G36*
X584345Y224830D02*
X575800D01*
X568276D01*
Y221826D01*
X568276Y221826D01*
Y220874D01*
X568276D01*
X568276Y220556D01*
Y212326D01*
X568350D01*
Y206800D01*
X568834Y205634D01*
X572234Y202234D01*
X573400Y201750D01*
X595000D01*
X596166Y202234D01*
X599166Y205234D01*
X599650Y206400D01*
Y211276D01*
X599324Y212062D01*
Y224324D01*
X587062D01*
X586276Y224650D01*
X584530D01*
X584345Y224830D01*
D02*
G37*
%LPD*%
G36*
X586276Y219070D02*
X592800D01*
Y217800D01*
X594070D01*
Y211276D01*
X598000D01*
Y206400D01*
X595000Y203400D01*
X573400D01*
X570000Y206800D01*
Y212326D01*
X574530D01*
Y216600D01*
X575800D01*
Y217870D01*
X583324D01*
Y220874D01*
X583324D01*
Y221730D01*
X583556Y223000D01*
X586276D01*
Y219070D01*
D02*
G37*
%LPC*%
G36*
X583324Y215330D02*
X577070D01*
Y212326D01*
X583324D01*
Y215330D01*
D02*
G37*
G36*
X591530Y216530D02*
X586276D01*
Y211276D01*
X591530D01*
Y216530D01*
D02*
G37*
G36*
X460930Y256730D02*
X456676D01*
Y253476D01*
X460930D01*
Y256730D01*
D02*
G37*
G36*
X459430Y250524D02*
X458176D01*
Y246770D01*
X459430D01*
Y250524D01*
D02*
G37*
G36*
X121880Y251474D02*
X112376D01*
Y247720D01*
X121880D01*
Y251474D01*
D02*
G37*
G36*
X634524Y239524D02*
X631270D01*
Y235270D01*
X634524D01*
Y239524D01*
D02*
G37*
G36*
X657324Y235374D02*
X656070D01*
Y233370D01*
X657324D01*
Y235374D01*
D02*
G37*
G36*
X641530D02*
X640276D01*
Y233370D01*
X641530D01*
Y235374D01*
D02*
G37*
G36*
X657324Y218630D02*
X656070D01*
Y216626D01*
X657324D01*
Y218630D01*
D02*
G37*
G36*
X659524Y211724D02*
X655270D01*
Y208470D01*
X659524D01*
Y211724D01*
D02*
G37*
G36*
X345790Y196850D02*
X341536D01*
Y193596D01*
X345790D01*
Y196850D01*
D02*
G37*
G36*
X339324Y196730D02*
X335070D01*
Y193476D01*
X339324D01*
Y196730D01*
D02*
G37*
G36*
X381730Y136730D02*
X377476D01*
Y132976D01*
X381730D01*
Y136730D01*
D02*
G37*
G36*
X608624Y131104D02*
X604870D01*
Y126350D01*
X608624D01*
Y131104D01*
D02*
G37*
G36*
X602330D02*
X598576D01*
Y126350D01*
X602330D01*
Y131104D01*
D02*
G37*
G36*
X542824Y126104D02*
X539570D01*
Y121850D01*
X542824D01*
Y126104D01*
D02*
G37*
G36*
X537030D02*
X533776D01*
Y121850D01*
X537030D01*
Y126104D01*
D02*
G37*
G36*
X531824Y126104D02*
X528070D01*
Y121350D01*
X531824D01*
Y126104D01*
D02*
G37*
G36*
X525530D02*
X521776D01*
Y121350D01*
X525530D01*
Y126104D01*
D02*
G37*
G36*
X515530Y123584D02*
Y120330D01*
X519784D01*
Y123584D01*
X515530D01*
D02*
G37*
G36*
X519784Y117790D02*
X515530D01*
Y114536D01*
X519784D01*
Y117790D01*
D02*
G37*
G36*
X515530Y112154D02*
Y108900D01*
X519784D01*
Y112154D01*
X515530D01*
D02*
G37*
G36*
X519784Y106360D02*
X515530D01*
Y103106D01*
X519784D01*
Y106360D01*
D02*
G37*
G36*
X301924Y105180D02*
X291150D01*
X280376D01*
Y101426D01*
Y97720D01*
X291150D01*
X301924D01*
Y101426D01*
Y105180D01*
D02*
G37*
G36*
Y95180D02*
X292420D01*
Y91426D01*
X301924D01*
Y95180D01*
D02*
G37*
G36*
X196124Y76074D02*
X192370D01*
Y66570D01*
X196124D01*
Y76074D01*
D02*
G37*
G36*
X169830D02*
X166076D01*
Y66570D01*
X169830D01*
Y76074D01*
D02*
G37*
G36*
X667024Y82123D02*
X648976D01*
Y64075D01*
X667024D01*
Y82123D01*
D02*
G37*
G36*
X169830Y64030D02*
X166076D01*
Y54526D01*
X169830D01*
Y64030D01*
D02*
G37*
G36*
X605200Y58722D02*
X602850Y58254D01*
X600857Y56923D01*
X599525Y54931D01*
X599058Y52580D01*
X599525Y50230D01*
X600857Y48237D01*
X602850Y46906D01*
X605200Y46438D01*
X607550Y46906D01*
X609543Y48237D01*
X610874Y50230D01*
X611342Y52580D01*
X610874Y54931D01*
X609543Y56923D01*
X607550Y58254D01*
X605200Y58722D01*
D02*
G37*
G36*
X561200D02*
X558850Y58254D01*
X556857Y56923D01*
X555526Y54931D01*
X555058Y52580D01*
X555526Y50230D01*
X556857Y48237D01*
X558850Y46906D01*
X561200Y46438D01*
X563550Y46906D01*
X565543Y48237D01*
X566875Y50230D01*
X567342Y52580D01*
X566875Y54931D01*
X565543Y56923D01*
X563550Y58254D01*
X561200Y58722D01*
D02*
G37*
G36*
X165494Y51049D02*
X154240D01*
Y45546D01*
X165494D01*
Y51049D01*
D02*
G37*
G36*
X151700D02*
X140446D01*
Y45546D01*
X151700D01*
Y51049D01*
D02*
G37*
G36*
X198744Y48180D02*
X194490D01*
Y44926D01*
X198744D01*
Y48180D01*
D02*
G37*
G36*
X658000Y56801D02*
X655644Y56491D01*
X653449Y55582D01*
X651564Y54135D01*
X650118Y52250D01*
X649208Y50055D01*
X648898Y47699D01*
X649208Y45343D01*
X650118Y43148D01*
X651564Y41263D01*
X653449Y39817D01*
X655644Y38907D01*
X658000Y38597D01*
X660356Y38907D01*
X662551Y39817D01*
X664436Y41263D01*
X665882Y43148D01*
X666792Y45343D01*
X667102Y47699D01*
X666792Y50055D01*
X665882Y52250D01*
X664436Y54135D01*
X662551Y55582D01*
X660356Y56491D01*
X658000Y56801D01*
D02*
G37*
G36*
X79590Y24872D02*
X75086D01*
Y22368D01*
X79590D01*
Y24872D01*
D02*
G37*
G36*
X24270Y27535D02*
Y19870D01*
X31935D01*
X31792Y20956D01*
X30882Y23151D01*
X29436Y25036D01*
X27551Y26482D01*
X25356Y27392D01*
X24270Y27535D01*
D02*
G37*
G36*
X21730D02*
X20644Y27392D01*
X18449Y26482D01*
X16564Y25036D01*
X15118Y23151D01*
X14208Y20956D01*
X14065Y19870D01*
X21730D01*
Y27535D01*
D02*
G37*
G36*
X79590Y19828D02*
X75086D01*
Y17324D01*
X79590D01*
Y19828D01*
D02*
G37*
G36*
X210629Y15755D02*
X207374D01*
Y11501D01*
X210629D01*
Y15755D01*
D02*
G37*
G36*
X204834D02*
X201581D01*
Y11501D01*
X204834D01*
Y15755D01*
D02*
G37*
G36*
X31935Y17330D02*
X24270D01*
Y9665D01*
X25356Y9808D01*
X27551Y10718D01*
X29436Y12164D01*
X30882Y14049D01*
X31792Y16244D01*
X31935Y17330D01*
D02*
G37*
G36*
X21730D02*
X14065D01*
X14208Y16244D01*
X15118Y14049D01*
X16564Y12164D01*
X18449Y10718D01*
X20644Y9808D01*
X21730Y9665D01*
Y17330D01*
D02*
G37*
G36*
X165494Y13506D02*
X154240D01*
Y8001D01*
X165494D01*
Y13506D01*
D02*
G37*
G36*
X151700D02*
X140446D01*
Y8001D01*
X151700D01*
Y13506D01*
D02*
G37*
G36*
X121880Y95180D02*
X112376D01*
Y91426D01*
X121880D01*
Y95180D01*
D02*
G37*
G36*
X375270Y68834D02*
Y65580D01*
X379524D01*
Y68834D01*
X375270D01*
D02*
G37*
G36*
X379524Y63040D02*
X375270D01*
Y59786D01*
X379524D01*
Y63040D01*
D02*
G37*
%LPD*%
D13*
X105962Y43038D02*
X109860Y39140D01*
Y31098D02*
Y39140D01*
X101560Y43038D02*
X105962D01*
D14*
X119120Y24558D02*
X122030D01*
X168100Y698000D02*
X176100D01*
X168100Y686300D02*
X176100D01*
X80860Y21098D02*
X95360D01*
X245550Y106450D02*
X250590D01*
X243000Y109000D02*
X245550Y106450D01*
X175962Y109000D02*
X243000D01*
X122000Y55038D02*
X175962Y109000D01*
X122030Y24558D02*
Y55008D01*
X122000Y55038D02*
X122030Y55008D01*
X108962Y55038D02*
X122000D01*
X110220Y136450D02*
X123150D01*
X84758Y43038D02*
X89010D01*
X57550Y136450D02*
X110220D01*
X80860Y39140D02*
X84758Y43038D01*
X23000Y171000D02*
X57550Y136450D01*
X80860Y31098D02*
Y39140D01*
X23000Y145600D02*
X42150Y126450D01*
X110220D02*
X123150D01*
X42150D02*
X110220D01*
X58300Y714500D02*
X96470D01*
X58300D02*
Y789800D01*
Y709300D02*
Y714500D01*
X114550Y714550D02*
X153300D01*
X108000Y721100D02*
X114550Y714550D01*
X108000Y721100D02*
Y740160D01*
X102920Y742264D02*
X112896Y752240D01*
X185600Y755700D02*
Y768700D01*
Y755700D02*
X193600D01*
X174600D02*
Y768700D01*
Y755700D02*
X185600D01*
X171900Y766000D02*
X174600Y768700D01*
X141000Y766000D02*
X171900D01*
X127240Y752240D02*
X141000Y766000D01*
X112896Y752240D02*
X127240D01*
X185600Y730700D02*
Y743700D01*
X193600D01*
X174600D02*
X185600D01*
X171900Y733400D02*
X174600Y730700D01*
X141000Y733400D02*
X171900D01*
X127240Y747160D02*
X141000Y733400D01*
X115000Y747160D02*
X127240D01*
X108000Y740160D02*
X115000Y747160D01*
X174600Y730700D02*
Y743700D01*
X96470Y714500D02*
X102920Y720950D01*
Y742264D01*
X44128Y219136D02*
X76814Y186450D01*
X123150D01*
X23000Y298000D02*
X44128Y276872D01*
Y219136D02*
Y276872D01*
X109680Y196450D02*
X123150D01*
X72561D02*
X109680D01*
X123150Y236450D02*
X136080D01*
X21000Y119000D02*
X23110Y121110D01*
X23000Y220000D02*
X24800D01*
X36000Y215769D02*
X85319Y166450D01*
X123150D01*
X23000Y247200D02*
X36000Y234200D01*
Y215769D02*
Y234200D01*
X88350Y156450D02*
X123150D01*
X23000Y221800D02*
X24800Y220000D01*
X88350Y156450D01*
X24800Y220000D02*
X27100D01*
X37000Y411516D02*
X39562Y414078D01*
X216000Y414078D01*
X223820Y406258D01*
Y390916D02*
Y406258D01*
X23000Y348800D02*
X52256Y319544D01*
Y222503D02*
Y319544D01*
Y222503D02*
X68309Y206450D01*
X123150D01*
X23000Y323400D02*
X48192Y298208D01*
Y220819D02*
Y298208D01*
Y220819D02*
X72561Y196450D01*
X69550Y146450D02*
X123150D01*
X23000Y193000D02*
X69550Y146450D01*
X23000Y193000D02*
Y196400D01*
X40064Y217453D02*
X81067Y176450D01*
X40064Y217453D02*
Y255536D01*
X81067Y176450D02*
X123150D01*
X23000Y272600D02*
X40064Y255536D01*
X23110Y121110D02*
X101440D01*
X106101Y116450D02*
X123150D01*
X101440Y121110D02*
X106101Y116450D01*
X223820Y290916D02*
Y390916D01*
X686000Y482400D02*
X694000D01*
X574202Y890100D02*
X584230D01*
X612432Y885632D02*
X622568D01*
X446101Y643899D02*
X459100Y630900D01*
X446101Y643899D02*
Y772801D01*
X109860Y21098D02*
X115660D01*
X119120Y24558D01*
X101560Y55038D02*
X108962D01*
X89010D02*
X101560D01*
X226840Y8810D02*
X236868D01*
X265070Y13278D02*
X275206D01*
X23000Y94800D02*
X44770Y116570D01*
X109680Y106450D02*
X123150D01*
X99560Y116570D02*
X109680Y106450D01*
X44770Y116570D02*
X99560D01*
X538300Y120580D02*
Y128000D01*
X514260Y119060D02*
Y127060D01*
X521000Y77000D02*
Y85000D01*
X526800Y120080D02*
Y128080D01*
X621500Y577200D02*
X629500D01*
X621000Y588700D02*
X629000D01*
X539100Y682300D02*
X551270D01*
X439100Y592300D02*
Y604470D01*
X499100Y580130D02*
Y592300D01*
X339100D02*
Y604470D01*
X479100Y592300D02*
Y604470D01*
X469100Y592300D02*
Y604470D01*
X459100Y592300D02*
Y604470D01*
X449100Y592300D02*
Y604470D01*
X279000Y595279D02*
X288877D01*
X288914Y595316D01*
X575300Y812371D02*
X582000D01*
X555000Y794000D02*
X563000D01*
X555000Y758000D02*
X563000D01*
X166050Y655250D02*
X174600D01*
X185600Y642050D02*
X193600D01*
X153300Y668000D02*
Y671150D01*
Y668000D02*
X166050Y655250D01*
X185600Y642050D02*
Y655050D01*
X174600Y642050D02*
X185600D01*
X174600D02*
Y655050D01*
X185600Y630050D02*
X193600D01*
X174600D02*
X185600D01*
Y617050D02*
Y630050D01*
X174600Y617050D02*
Y630050D01*
X166050Y617050D02*
X174600D01*
X153300Y604300D02*
X166050Y617050D01*
X153300Y601150D02*
Y604300D01*
X217300Y664700D02*
Y672700D01*
X185600Y780700D02*
Y788700D01*
X174600Y780700D02*
Y788700D01*
X185600Y710700D02*
Y718700D01*
X174600Y710700D02*
Y718700D01*
X185600Y667050D02*
Y675050D01*
X174600Y667050D02*
Y675050D01*
X185600Y597050D02*
Y605050D01*
X174600Y597050D02*
Y605050D01*
X248700Y685700D02*
X254000Y691000D01*
X217700Y685700D02*
X248700D01*
X254000Y691000D02*
Y701000D01*
X217000Y673000D02*
X217300Y672700D01*
X235000D01*
X217000Y685000D02*
X217700Y685700D01*
X234000Y713000D02*
X242000D01*
X234000Y701000D02*
X242000D01*
X234000Y657000D02*
X242000D01*
X234000Y645000D02*
X242000D01*
X234000Y633000D02*
X242000D01*
X234000Y621000D02*
X242000D01*
X234000Y609000D02*
X242000D01*
X234000Y597000D02*
X242000D01*
X234000Y585000D02*
X242000D01*
D19*
X603600Y125080D02*
D03*
Y114080D02*
D03*
X526800Y120080D02*
D03*
Y109080D02*
D03*
D20*
X562300Y812371D02*
D03*
X575300D02*
D03*
X568800Y832371D02*
D03*
X570000Y721500D02*
D03*
X563500Y741500D02*
D03*
X576500D02*
D03*
D21*
X646200Y828000D02*
D03*
Y816000D02*
D03*
X179000Y544000D02*
D03*
Y556000D02*
D03*
X278000Y773000D02*
D03*
Y761000D02*
D03*
X561000Y868700D02*
D03*
Y880700D02*
D03*
X525000Y868700D02*
D03*
Y880700D02*
D03*
X97000Y857600D02*
D03*
Y845600D02*
D03*
X133500Y857800D02*
D03*
Y845800D02*
D03*
X713000Y704000D02*
D03*
Y716000D02*
D03*
X677000Y704000D02*
D03*
Y716000D02*
D03*
X288914Y607316D02*
D03*
Y595316D02*
D03*
X736000Y817000D02*
D03*
Y805000D02*
D03*
X174600Y655050D02*
D03*
Y667050D02*
D03*
X185600Y655050D02*
D03*
Y667050D02*
D03*
X174600Y605050D02*
D03*
Y617050D02*
D03*
X185600Y605050D02*
D03*
Y617050D02*
D03*
X185600Y768700D02*
D03*
Y780700D02*
D03*
X174600Y768700D02*
D03*
Y780700D02*
D03*
Y743700D02*
D03*
Y755700D02*
D03*
X185600Y743700D02*
D03*
Y755700D02*
D03*
Y718700D02*
D03*
Y730700D02*
D03*
X174600Y718700D02*
D03*
Y730700D02*
D03*
X174600Y630050D02*
D03*
Y642050D02*
D03*
X185600Y630050D02*
D03*
Y642050D02*
D03*
X630000Y234000D02*
D03*
Y222000D02*
D03*
X206105Y17026D02*
D03*
Y29025D02*
D03*
X305460Y341980D02*
D03*
Y353980D02*
D03*
X308450Y225000D02*
D03*
Y237000D02*
D03*
X538300Y108580D02*
D03*
Y120580D02*
D03*
X121600Y23800D02*
D03*
Y11800D02*
D03*
D22*
X575000Y782300D02*
D03*
X563000D02*
D03*
X626000Y801000D02*
D03*
X614000D02*
D03*
X575000Y770000D02*
D03*
X563000D02*
D03*
X563000Y794000D02*
D03*
X575000D02*
D03*
X563000Y758000D02*
D03*
X575000D02*
D03*
X188000Y686300D02*
D03*
X176000D02*
D03*
X208000Y565000D02*
D03*
X220000D02*
D03*
X242000Y701000D02*
D03*
X254000D02*
D03*
X254000Y633000D02*
D03*
X242000D02*
D03*
X254000Y621000D02*
D03*
X242000D02*
D03*
Y657000D02*
D03*
X254000D02*
D03*
Y585000D02*
D03*
X242000D02*
D03*
X254000Y597000D02*
D03*
X242000D02*
D03*
X254000Y609000D02*
D03*
X242000D02*
D03*
Y645000D02*
D03*
X254000D02*
D03*
X557200Y249000D02*
D03*
X569200D02*
D03*
X254000Y713000D02*
D03*
X242000D02*
D03*
X537000Y880700D02*
D03*
X549000D02*
D03*
X109100Y845300D02*
D03*
X121100D02*
D03*
X689000Y716000D02*
D03*
X701000D02*
D03*
X141280Y283924D02*
D03*
X129280D02*
D03*
X672290Y497640D02*
D03*
X660290D02*
D03*
X672290Y485000D02*
D03*
X660290D02*
D03*
X672290Y510340D02*
D03*
X660290D02*
D03*
X195320Y284480D02*
D03*
X207320D02*
D03*
X672290Y523040D02*
D03*
X660290D02*
D03*
X261360Y284480D02*
D03*
X273360D02*
D03*
X193220Y29025D02*
D03*
X181220D02*
D03*
X416000Y201165D02*
D03*
X428000D02*
D03*
X395000Y138000D02*
D03*
X383000D02*
D03*
X493630Y95980D02*
D03*
X481630D02*
D03*
X481630Y83980D02*
D03*
X493630D02*
D03*
D23*
X590500Y733300D02*
D03*
Y721300D02*
D03*
X591000Y814200D02*
D03*
Y826200D02*
D03*
X196000Y565000D02*
D03*
Y577000D02*
D03*
X217000Y685000D02*
D03*
Y673000D02*
D03*
X536200Y220000D02*
D03*
Y232000D02*
D03*
X489000Y228000D02*
D03*
Y240000D02*
D03*
X501800Y228000D02*
D03*
Y240000D02*
D03*
X305460Y291180D02*
D03*
Y303180D02*
D03*
X101560Y55038D02*
D03*
Y43038D02*
D03*
X89010Y55038D02*
D03*
Y43038D02*
D03*
D24*
X233000Y565000D02*
D03*
X245000D02*
D03*
X176000Y698000D02*
D03*
X188000D02*
D03*
X474200Y258000D02*
D03*
X462200D02*
D03*
X321800Y198000D02*
D03*
X333800D02*
D03*
X641000Y588700D02*
D03*
X629000D02*
D03*
X654000Y207200D02*
D03*
X642000D02*
D03*
X706000Y482400D02*
D03*
X694000D02*
D03*
X181220Y49450D02*
D03*
X193220D02*
D03*
X359060Y198120D02*
D03*
X347060D02*
D03*
X362000Y64310D02*
D03*
X374000D02*
D03*
X502260Y119060D02*
D03*
X514260D02*
D03*
X502260Y107630D02*
D03*
X514260D02*
D03*
X509000Y85000D02*
D03*
X521000D02*
D03*
X509000Y96000D02*
D03*
X521000D02*
D03*
D25*
X50000Y451000D02*
D03*
Y561000D02*
D03*
X110000Y451000D02*
D03*
Y561000D02*
D03*
D26*
X264000Y551000D02*
D03*
X247000D02*
D03*
X230000D02*
D03*
X213000D02*
D03*
X196000D02*
D03*
D27*
X230000Y494450D02*
D03*
D28*
X162000Y535500D02*
D03*
Y564500D02*
D03*
D29*
X166000Y463500D02*
D03*
Y506500D02*
D03*
D30*
X235000Y685700D02*
D03*
Y672700D02*
D03*
X255000Y679200D02*
D03*
D31*
X584230Y890100D02*
D03*
Y880700D02*
D03*
X237100Y8578D02*
D03*
Y17978D02*
D03*
D32*
X612200Y885400D02*
D03*
X265070Y13278D02*
D03*
D33*
X246000Y742300D02*
D03*
Y792300D02*
D03*
D34*
X632500Y814500D02*
D03*
Y829500D02*
D03*
X606100D02*
D03*
Y814500D02*
D03*
D35*
X468200Y235000D02*
D03*
D36*
X475700Y245500D02*
D03*
X470700D02*
D03*
X465700D02*
D03*
X460700D02*
D03*
X475700Y224500D02*
D03*
X470700D02*
D03*
X465700D02*
D03*
X460700D02*
D03*
D37*
X517000Y304000D02*
D03*
X533000D02*
D03*
X546000Y434000D02*
D03*
X530000D02*
D03*
X577000D02*
D03*
X561000D02*
D03*
X564000Y304000D02*
D03*
X548000D02*
D03*
X584000D02*
D03*
X600000D02*
D03*
D38*
X592800Y217800D02*
D03*
Y233800D02*
D03*
D39*
X575800Y216600D02*
D03*
Y226100D02*
D03*
Y235600D02*
D03*
X550800D02*
D03*
Y216600D02*
D03*
D40*
X591500Y434000D02*
D03*
X608500D02*
D03*
D41*
X564000Y319000D02*
D03*
Y325200D02*
D03*
Y331400D02*
D03*
Y337600D02*
D03*
Y343800D02*
D03*
Y350000D02*
D03*
Y356200D02*
D03*
Y362400D02*
D03*
Y368600D02*
D03*
Y374800D02*
D03*
Y381000D02*
D03*
Y387200D02*
D03*
Y393400D02*
D03*
Y399600D02*
D03*
D42*
X736000Y745500D02*
D03*
D43*
Y794000D02*
D03*
D44*
X627600Y621600D02*
D03*
X628100Y638600D02*
D03*
X633600Y621600D02*
D03*
Y638600D02*
D03*
D45*
X625600Y637600D02*
D03*
Y632600D02*
D03*
X625100Y622600D02*
D03*
Y627600D02*
D03*
X636100Y632600D02*
D03*
Y627600D02*
D03*
Y622600D02*
D03*
Y637600D02*
D03*
D46*
X624500Y654000D02*
D03*
X635500D02*
D03*
X629500Y577200D02*
D03*
X640500D02*
D03*
D47*
X727000Y589100D02*
D03*
Y678100D02*
D03*
D48*
X667000D02*
D03*
Y589100D02*
D03*
D49*
Y617600D02*
D03*
Y625600D02*
D03*
Y633600D02*
D03*
Y641600D02*
D03*
Y649600D02*
D03*
D50*
X621100Y603700D02*
D03*
X639100D02*
D03*
D51*
X153300Y636150D02*
D03*
X153300Y749550D02*
D03*
D52*
X153300Y601150D02*
D03*
Y671150D02*
D03*
X153300Y784550D02*
D03*
Y714550D02*
D03*
X538700Y22580D02*
D03*
X627700D02*
D03*
D53*
X58300Y676400D02*
D03*
Y595900D02*
D03*
X58300Y709300D02*
D03*
Y789800D02*
D03*
D54*
X692460Y524910D02*
D03*
X707460D02*
D03*
Y498510D02*
D03*
X692460D02*
D03*
D55*
X152970Y44275D02*
D03*
Y14776D02*
D03*
D56*
X168220Y29025D02*
D03*
D57*
X157780Y390920D02*
D03*
X112780D02*
D03*
Y290920D02*
D03*
X157780D02*
D03*
X178820Y290916D02*
D03*
X223820D02*
D03*
Y390916D02*
D03*
X178820D02*
D03*
X244860Y290920D02*
D03*
X289860D02*
D03*
Y390920D02*
D03*
X244860D02*
D03*
D58*
X191100Y65300D02*
D03*
X181100D02*
D03*
X171100D02*
D03*
D59*
X123150Y246450D02*
D03*
Y236450D02*
D03*
Y226450D02*
D03*
Y216450D02*
D03*
Y206450D02*
D03*
Y196450D02*
D03*
Y186450D02*
D03*
Y176450D02*
D03*
Y166450D02*
D03*
Y156450D02*
D03*
Y146450D02*
D03*
Y136450D02*
D03*
Y126450D02*
D03*
Y116450D02*
D03*
Y106450D02*
D03*
Y96450D02*
D03*
X291150D02*
D03*
Y106450D02*
D03*
Y116450D02*
D03*
Y126450D02*
D03*
Y136450D02*
D03*
Y146450D02*
D03*
Y156450D02*
D03*
Y166450D02*
D03*
Y176450D02*
D03*
Y186450D02*
D03*
Y196450D02*
D03*
Y206450D02*
D03*
Y216450D02*
D03*
Y226450D02*
D03*
Y236450D02*
D03*
Y246450D02*
D03*
D60*
X571200Y121980D02*
D03*
X588200Y121480D02*
D03*
X571200Y115980D02*
D03*
X588200D02*
D03*
D61*
X587200Y123980D02*
D03*
X572200Y124480D02*
D03*
X582200Y113480D02*
D03*
X577200D02*
D03*
X572200D02*
D03*
X587200D02*
D03*
X577200Y124480D02*
D03*
X582200Y123980D02*
D03*
D62*
X553300Y110480D02*
D03*
Y128480D02*
D03*
D63*
X627700Y82580D02*
D03*
X538700D02*
D03*
D64*
X567200D02*
D03*
X575200D02*
D03*
X583200D02*
D03*
X591200D02*
D03*
X599200D02*
D03*
D65*
X648800Y226000D02*
D03*
D66*
X654800Y232100D02*
D03*
X650800D02*
D03*
X646800D02*
D03*
X642800D02*
D03*
X642800Y219900D02*
D03*
X646800D02*
D03*
X650800D02*
D03*
X654800D02*
D03*
D67*
X498000Y54310D02*
D03*
D68*
X500500Y38810D02*
D03*
X495500D02*
D03*
X505500D02*
D03*
X490500D02*
D03*
X505500Y69810D02*
D03*
X490500D02*
D03*
X500500D02*
D03*
X495500D02*
D03*
D69*
X485500Y41810D02*
D03*
X510500Y66810D02*
D03*
D70*
Y41810D02*
D03*
X485500Y66810D02*
D03*
D71*
X513500Y46810D02*
D03*
Y51810D02*
D03*
X482500Y61810D02*
D03*
Y46810D02*
D03*
Y56810D02*
D03*
Y51810D02*
D03*
X513500Y61810D02*
D03*
Y56810D02*
D03*
D72*
X324710Y123630D02*
D03*
Y178630D02*
D03*
X356710D02*
D03*
Y123630D02*
D03*
D73*
X109860Y31098D02*
D03*
Y21098D02*
D03*
Y11098D02*
D03*
X80860D02*
D03*
Y21098D02*
D03*
Y31098D02*
D03*
D74*
X95360Y21098D02*
D03*
D136*
X419100Y592300D02*
D03*
X429100D02*
D03*
X339100D02*
D03*
X349100D02*
D03*
X359100D02*
D03*
X369100D02*
D03*
X379100D02*
D03*
X389100D02*
D03*
X399100D02*
D03*
X409100D02*
D03*
X439100D02*
D03*
X449100D02*
D03*
X459100D02*
D03*
X469100D02*
D03*
X479100D02*
D03*
X489100D02*
D03*
X499100D02*
D03*
Y832300D02*
D03*
X489100D02*
D03*
X479100D02*
D03*
X469100D02*
D03*
X459100D02*
D03*
X449100D02*
D03*
X439100D02*
D03*
X429100D02*
D03*
X419100D02*
D03*
X409100D02*
D03*
X399100D02*
D03*
X389100D02*
D03*
X379100D02*
D03*
X369100D02*
D03*
X359100D02*
D03*
X349100D02*
D03*
X339100D02*
D03*
D137*
X299100Y792300D02*
D03*
Y782300D02*
D03*
Y772300D02*
D03*
Y762300D02*
D03*
Y752300D02*
D03*
Y742300D02*
D03*
Y732300D02*
D03*
Y722300D02*
D03*
Y712300D02*
D03*
Y702300D02*
D03*
Y692300D02*
D03*
Y682300D02*
D03*
Y672300D02*
D03*
Y662300D02*
D03*
Y652300D02*
D03*
Y642300D02*
D03*
Y632300D02*
D03*
X539100D02*
D03*
Y642300D02*
D03*
Y652300D02*
D03*
Y662300D02*
D03*
Y672300D02*
D03*
Y682300D02*
D03*
Y692300D02*
D03*
Y702300D02*
D03*
Y712300D02*
D03*
Y722300D02*
D03*
Y732300D02*
D03*
Y742300D02*
D03*
Y752300D02*
D03*
Y762300D02*
D03*
Y772300D02*
D03*
Y782300D02*
D03*
Y792300D02*
D03*
D138*
X297718Y306000D02*
X302640D01*
X283000D02*
X297718D01*
X302640D02*
X305460Y303180D01*
X280000Y303000D02*
X283000Y306000D01*
X500500Y51810D02*
X513500D01*
X498000Y54310D02*
X500500Y51810D01*
X490500Y61810D02*
X498000Y54310D01*
X395000Y130000D02*
Y138000D01*
X706000Y373600D02*
X727100Y352500D01*
X706000Y373600D02*
Y482400D01*
X299100Y762300D02*
X315730D01*
X353430Y800000D01*
X519000D01*
X562000Y843000D01*
X572556D01*
X578556Y837000D01*
X615000D01*
X622500Y829500D01*
X632500D01*
X570000Y721500D02*
X570200Y721300D01*
X590500D01*
Y733300D02*
Y793500D01*
X598000Y801000D01*
X614000D01*
X562300Y802000D02*
Y812371D01*
Y802000D02*
X563300Y801000D01*
X573000D01*
X575000Y799000D01*
Y794000D02*
Y799000D01*
X575000Y794000D02*
X575000Y794000D01*
X575000Y782300D02*
Y794000D01*
X575000Y758000D02*
X576500Y756500D01*
X575000Y758000D02*
X575000Y758000D01*
X576500Y741500D02*
Y756500D01*
X575000Y758000D02*
Y770000D01*
X560700Y772300D02*
X563000Y770000D01*
X539100Y772300D02*
X560700D01*
X539100Y782300D02*
X539100Y782300D01*
X563000D01*
X632500Y829500D02*
X644700D01*
X646200Y828000D01*
X629000Y814500D02*
X632500D01*
X628000Y813500D02*
X629000Y814500D01*
X628000Y803000D02*
Y813500D01*
X626000Y801000D02*
X628000Y803000D01*
X605800Y814200D02*
X606100Y814500D01*
X591000Y814200D02*
X605800D01*
X582671Y826200D02*
X591000D01*
X576500Y832371D02*
X582671Y826200D01*
X568800Y832371D02*
X576500D01*
X663450Y232550D02*
X671000Y225000D01*
Y210000D02*
Y225000D01*
X432000Y92000D02*
X473000D01*
X413000Y73000D02*
X432000Y92000D01*
X366370Y73000D02*
X413000D01*
X362000Y68630D02*
X366370Y73000D01*
X362000Y64310D02*
Y68630D01*
X297770Y44146D02*
X396854D01*
X257334Y84582D02*
Y199692D01*
X300715Y51256D02*
X416656D01*
X264444Y87527D02*
Y202637D01*
X257334Y84582D02*
X297770Y44146D01*
X264444Y87527D02*
X300715Y51256D01*
X302188Y54812D02*
X415183D01*
X268000Y89000D02*
X302188Y54812D01*
X268000Y89000D02*
Y204110D01*
X277550Y88000D02*
X301240Y64310D01*
X353690D01*
X169780Y116000D02*
X251000D01*
X123180Y69400D02*
X169780Y116000D01*
X23000Y69400D02*
X123180D01*
X172420Y126000D02*
X251000D01*
X128420Y82000D02*
X172420Y126000D01*
X517000Y260000D02*
X529000Y248000D01*
Y222561D02*
Y248000D01*
Y222561D02*
X531561Y220000D01*
X536200D01*
X517000Y277006D02*
Y304000D01*
X501800Y228000D02*
X501800Y228000D01*
X511000D01*
X496000Y277000D02*
X503394Y284394D01*
X563000Y158000D02*
X642200D01*
X311000D02*
X563000D01*
X642200D02*
X727100Y73100D01*
X302550Y166450D02*
X311000Y158000D01*
X571200Y115980D02*
X572200D01*
Y113480D02*
Y115980D01*
X577200Y123980D02*
Y131980D01*
X513500Y56810D02*
X521500D01*
X524000Y54310D01*
X582200Y131980D02*
X584700Y134480D01*
X582200Y123980D02*
Y131980D01*
X521500Y61810D02*
X524000Y64310D01*
X513500Y61810D02*
X521500D01*
X574700Y134480D02*
X577200Y131980D01*
X660473Y167556D02*
X689029Y139000D01*
X383473Y167556D02*
X660473D01*
X376000Y175029D02*
X383473Y167556D01*
X659000Y164000D02*
X687556Y135444D01*
X382000Y164000D02*
X659000D01*
X367370Y178630D02*
X382000Y164000D01*
X634000Y207200D02*
X642000D01*
X630000Y214211D02*
Y222000D01*
X563000Y200100D02*
Y232000D01*
X566600Y235600D01*
X575800D01*
X555000D02*
Y246800D01*
X557200Y249000D01*
X550800Y235600D02*
X555000D01*
X542000Y234000D02*
X543600Y235600D01*
X538200Y234000D02*
X542000D01*
X536200Y232000D02*
X538200Y234000D01*
X543600Y235600D02*
X550800D01*
X536200Y220000D02*
X538400Y217800D01*
X542000D01*
X543200Y216600D01*
X550800D01*
X481630Y228000D02*
X489000D01*
X351230Y254230D02*
X358741D01*
X489000Y221730D02*
Y228000D01*
X484270Y217000D02*
X489000Y221730D01*
X465700Y219500D02*
X468200Y217000D01*
X484270D01*
X465700Y219500D02*
Y224500D01*
X358741Y254230D02*
X391971Y221000D01*
X450000D02*
X456000Y215000D01*
X391971Y221000D02*
X450000D01*
X232444Y168556D02*
X238000Y163000D01*
X173047Y168556D02*
X232444D01*
X123150Y136450D02*
X140941D01*
X173047Y168556D01*
X545900Y381000D02*
X564000D01*
X533394Y368494D02*
X545900Y381000D01*
X393444Y224556D02*
X460644D01*
X501800Y223800D02*
Y228000D01*
X499000Y221000D02*
X501800Y223800D01*
X493299Y221000D02*
X499000D01*
X485743Y213444D02*
X493299Y221000D01*
X466556Y213444D02*
X485743D01*
X358000Y260000D02*
X393444Y224556D01*
X460700Y219300D02*
Y224500D01*
Y219300D02*
X466556Y213444D01*
X460644Y224556D02*
X460700Y224500D01*
X174520Y165000D02*
X222398D01*
X224398Y163000D02*
X229000D01*
X222398Y165000D02*
X224398Y163000D01*
X135970Y126450D02*
X174520Y165000D01*
X123150Y126450D02*
X135970D01*
X544800Y374800D02*
X564000D01*
X537000Y367000D02*
X544800Y374800D01*
X503394Y284394D02*
Y311994D01*
X507000Y277000D02*
Y310500D01*
X503394Y311994D02*
X514800Y323400D01*
X507000Y310500D02*
X516294Y319794D01*
X529894D01*
X514800Y323400D02*
X528400D01*
X529894Y319794D02*
X537000Y326900D01*
X528400Y323400D02*
X533394Y328394D01*
Y368494D01*
X537000Y326900D02*
Y367000D01*
X651000Y226000D02*
X660000D01*
X608500Y425000D02*
Y434000D01*
X561000Y425000D02*
Y434000D01*
X530000Y425000D02*
Y434000D01*
X533000Y295000D02*
Y304000D01*
X533000Y304000D02*
X533000Y304000D01*
X593000Y280000D02*
X597480Y284480D01*
X676520D01*
X713000Y248000D01*
X564000Y368600D02*
X592800D01*
X312000Y292735D02*
Y308594D01*
X305594Y315000D02*
X312000Y308594D01*
X305594Y315000D02*
Y341846D01*
X305460Y341980D02*
X305594Y341846D01*
X283000Y273000D02*
X289860Y279860D01*
X143160Y273000D02*
X283000D01*
X289860Y279860D02*
Y290920D01*
X123150Y176000D02*
X123600D01*
X331000Y215000D02*
X371087D01*
X328000Y218000D02*
X331000Y215000D01*
X371087D02*
X402419Y183668D01*
X369946Y211112D02*
X400946Y180112D01*
X316000Y211112D02*
X369946D01*
X368473Y207556D02*
X399473Y176556D01*
X292256Y207556D02*
X368473D01*
X367000Y204000D02*
X398000Y173000D01*
X316000Y204000D02*
X367000D01*
X408000Y201165D02*
X416000D01*
X349000Y138000D02*
X357000D01*
X341000Y130000D02*
X349000Y138000D01*
X341000Y118470D02*
Y130000D01*
X336530Y114000D02*
X341000Y118470D01*
X312480Y114000D02*
X336530D01*
X305466Y121014D02*
X312480Y114000D01*
X305466Y121014D02*
Y130007D01*
X310662Y216450D02*
X316000Y211112D01*
X325830Y252000D02*
Y268274D01*
X343000Y280200D02*
Y438913D01*
X332000Y269200D02*
X343000Y280200D01*
X332000Y260000D02*
Y269200D01*
X325830Y268274D02*
X339444Y281888D01*
X309999Y261000D02*
X314000Y265000D01*
Y267920D01*
X332000Y285920D01*
X318000Y252000D02*
Y266000D01*
X335556Y283556D01*
X339444Y281888D02*
Y440386D01*
X335556Y283556D02*
Y441527D01*
X332000Y285920D02*
Y443000D01*
X328000Y287000D02*
Y480900D01*
X296000Y255000D02*
X328000Y287000D01*
X324000Y288029D02*
Y476000D01*
X296971Y261000D02*
X324000Y288029D01*
X320000Y289058D02*
Y421027D01*
X295942Y265000D02*
X320000Y289058D01*
X282360Y265000D02*
X295942D01*
X284000Y261000D02*
X296971D01*
X291150Y255000D02*
X296000D01*
X356826Y655826D02*
X360540Y659540D01*
X356826Y603590D02*
Y655826D01*
X359100Y592300D02*
Y601316D01*
X356826Y603590D02*
X359100Y601316D01*
X348540Y659540D02*
X352254Y655826D01*
Y604470D02*
Y655826D01*
X349100Y601316D02*
X352254Y604470D01*
X349100Y592300D02*
Y601316D01*
X330000Y145000D02*
X640000D01*
X321450Y136450D02*
X330000Y145000D01*
X316000Y136450D02*
X321450D01*
X307600Y144000D02*
X321000D01*
X305150Y146450D02*
X307600Y144000D01*
X291150Y146450D02*
X305150D01*
X321000Y144000D02*
X325556Y148556D01*
X641473D01*
X712000Y78029D01*
X643059Y152112D02*
X715556Y79615D01*
X310888Y152112D02*
X643059D01*
X291150Y136450D02*
X316000D01*
Y137199D01*
X321800Y181540D02*
X324000Y183740D01*
Y189770D01*
Y195800D01*
X321800Y198000D02*
X324000Y195800D01*
X123600Y176000D02*
X246999D01*
X253000Y134000D02*
Y187000D01*
X251000Y132000D02*
X253000Y134000D01*
X251000Y126000D02*
Y132000D01*
X247000Y193000D02*
X253000Y187000D01*
X242006Y180006D02*
X246999Y185000D01*
X304000Y196450D02*
X308450D01*
X291150D02*
X304000D01*
X291150Y206450D02*
X292256Y207556D01*
X275206Y252206D02*
X284000Y261000D01*
X275206Y210794D02*
Y252206D01*
Y210794D02*
X279550Y206450D01*
X271556Y122444D02*
Y254196D01*
X282360Y265000D01*
X143508Y180006D02*
X242006D01*
X237556Y172444D02*
X246676Y163324D01*
X162444Y172444D02*
X237556D01*
X271556Y122444D02*
X277550Y116450D01*
X246999Y163000D02*
X249000D01*
X240576Y216450D02*
X257334Y199692D01*
X243521Y223560D02*
X264444Y202637D01*
X244994Y227116D02*
X268000Y204110D01*
X136450Y146450D02*
X162444Y172444D01*
X123150Y176450D02*
X123600Y176000D01*
X123150Y216450D02*
X240576D01*
X166940Y223560D02*
X243521D01*
X168413Y227116D02*
X244994D01*
X712000Y62800D02*
X727100Y47700D01*
X712000Y62800D02*
Y78029D01*
X428699Y480000D02*
X443699Y495000D01*
X379058Y480000D02*
X428699D01*
X339444Y440386D02*
X379058Y480000D01*
X123150Y186450D02*
X137064D01*
X143508Y180006D01*
X459249Y494999D02*
X469100D01*
X440250Y476000D02*
X459249Y494999D01*
X380087Y476000D02*
X440250D01*
X343000Y438913D02*
X380087Y476000D01*
X335556Y441527D02*
X378029Y484000D01*
X407299D01*
X418299Y495000D01*
X332000Y443000D02*
X384000Y495000D01*
X392899D01*
X305000Y436027D02*
X320000Y421027D01*
X305000Y436027D02*
Y502972D01*
X316701Y483299D02*
X324000Y476000D01*
X316701Y483299D02*
Y495001D01*
X328000Y480900D02*
X342101Y495001D01*
X279550Y206450D02*
X291150D01*
X308472Y506445D02*
X356057D01*
X305000Y502972D02*
X308472Y506445D01*
X356057D02*
X367501Y495001D01*
X296000Y520550D02*
X309450Y534000D01*
X296000Y435000D02*
Y520550D01*
X289860Y428860D02*
X296000Y435000D01*
X210000Y277000D02*
X277000D01*
X207320Y279680D02*
X210000Y277000D01*
X207320Y279680D02*
Y284480D01*
X136080Y265920D02*
X143160Y273000D01*
X277000Y277000D02*
X280000Y280000D01*
Y303000D01*
X310445Y291180D02*
X312000Y292735D01*
X305460Y291180D02*
X310445D01*
X299820Y341980D02*
X305460D01*
X289860Y351940D02*
X299820Y341980D01*
X305460Y353980D02*
Y362290D01*
X273360Y284480D02*
Y292790D01*
X129280Y275614D02*
Y283924D01*
X289860Y390920D02*
Y428860D01*
X309450Y534000D02*
X336000D01*
X289860Y520860D02*
X308540Y539540D01*
X286304Y522333D02*
X307067Y543096D01*
X282748Y523806D02*
X305594Y546652D01*
X643948D01*
X282748Y448748D02*
Y523806D01*
X307067Y543096D02*
X642475D01*
X286304Y447275D02*
Y522333D01*
X308540Y539540D02*
X641002D01*
X289860Y445802D02*
Y520860D01*
X27888Y417888D02*
X261946Y417888D01*
X25000Y415000D02*
X27888Y417888D01*
X648044Y503556D02*
Y532498D01*
X641002Y539540D02*
X648044Y532498D01*
Y503556D02*
X653960Y497640D01*
X660290D01*
X21928Y421444D02*
X260473D01*
X12000Y258200D02*
X23000Y247200D01*
X12000Y411516D02*
X21928Y421444D01*
X12000Y258200D02*
Y411516D01*
X642475Y543096D02*
X651600Y533971D01*
Y514000D02*
Y533971D01*
Y514000D02*
X655260Y510340D01*
X660290D01*
X20000Y425000D02*
X259000D01*
X6516Y238284D02*
X23000Y221800D01*
X6516Y411516D02*
X20000Y425000D01*
X6516Y238284D02*
Y411516D01*
X643948Y546652D02*
X660290Y530310D01*
Y523040D02*
Y530310D01*
X261946Y417888D02*
X289860Y445802D01*
X260473Y421444D02*
X286304Y447275D01*
X259000Y425000D02*
X282748Y448748D01*
X47000Y408000D02*
X49268Y410268D01*
X306550Y156450D02*
X310888Y152112D01*
X640000Y145000D02*
X708444Y76556D01*
X374000Y64310D02*
X382000D01*
X353690D02*
X362000D01*
X420290Y35993D02*
X431997Y47700D01*
X420290Y32103D02*
Y35993D01*
X417045Y28858D02*
X420290Y32103D01*
X412142Y28858D02*
X417045D01*
X396854Y44146D02*
X412142Y28858D01*
X440000Y58000D02*
X444000Y54000D01*
X423400Y58000D02*
X440000D01*
X444000Y44000D02*
Y54000D01*
X431997Y31997D02*
X444000Y44000D01*
X416656Y51256D02*
X423400Y58000D01*
X431997Y22300D02*
Y31997D01*
X56066Y290934D02*
X91464Y255536D01*
X23000Y374200D02*
X56066Y341134D01*
X91464Y255536D02*
X134964D01*
X56066Y290934D02*
Y341134D01*
X134964Y255536D02*
X166940Y223560D01*
X441219Y61810D02*
X448000Y55029D01*
X422181Y61810D02*
X441219D01*
X460299Y22301D02*
Y31701D01*
X448000Y44000D02*
X460299Y31701D01*
X415183Y54812D02*
X422181Y61810D01*
X448000Y44000D02*
Y55029D01*
X60000Y292029D02*
X92937Y259092D01*
X60000Y292029D02*
Y362600D01*
X92937Y259092D02*
X136437D01*
X23000Y399600D02*
X60000Y362600D01*
X136437Y259092D02*
X168413Y227116D01*
X277550Y126450D02*
X291150D01*
X376000Y175029D02*
Y181000D01*
X716800Y139000D02*
X727100Y149300D01*
X689029Y139000D02*
X716800D01*
X291150Y186450D02*
X303550D01*
X321800Y181540D02*
X324710Y178630D01*
X311370D02*
X324710D01*
X303550Y186450D02*
X311370Y178630D01*
X16000Y82000D02*
X128420D01*
X10000Y76000D02*
X16000Y82000D01*
X10000Y57000D02*
X23000Y44000D01*
X10000Y57000D02*
Y76000D01*
X277550Y116450D02*
X291150D01*
X123150Y146450D02*
X136450D01*
X402419Y183668D02*
X680239D01*
X714000Y217429D01*
Y237800D01*
X727100Y250900D01*
X699042Y533498D02*
X700000Y532540D01*
Y526000D02*
Y532540D01*
Y526000D02*
X701090Y524910D01*
X707460D01*
X707630D01*
X676498Y533498D02*
X699042D01*
X672290Y529290D02*
X676498Y533498D01*
X672290Y523040D02*
Y529290D01*
X692460Y517460D02*
Y524910D01*
X685340Y510340D02*
X692460Y517460D01*
X672290Y510340D02*
X685340D01*
X692460Y490750D02*
Y498510D01*
X690710Y489000D02*
X692460Y490750D01*
X683000Y489000D02*
X690710D01*
X679000Y485000D02*
X683000Y489000D01*
X672290Y485000D02*
X679000D01*
X672290Y492290D02*
Y497640D01*
X671040Y491040D02*
X672290Y492290D01*
X662040Y491040D02*
X671040D01*
X660290Y489290D02*
X662040Y491040D01*
X660290Y485000D02*
Y489290D01*
X400946Y180112D02*
X681712D01*
X291150Y216450D02*
X310662D01*
X398000Y173000D02*
X725400D01*
X308450Y196450D02*
X316000Y204000D01*
X399473Y176556D02*
X703556D01*
X681712Y180112D02*
X727100Y225500D01*
X725400Y173000D02*
X727100Y174700D01*
X703556Y176556D02*
X727100Y200100D01*
X356710Y178630D02*
X367370D01*
X359060Y180980D02*
Y198120D01*
X356710Y178630D02*
X359060Y180980D01*
X344930Y178630D02*
X356710D01*
X291150Y176450D02*
X303550D01*
X335890Y169590D02*
X344930Y178630D01*
X303550Y176450D02*
X310410Y169590D01*
X335890D01*
X715556Y135444D02*
X727100Y123900D01*
X687556Y135444D02*
X715556D01*
X347060Y191320D02*
Y198120D01*
X333800Y191200D02*
Y198000D01*
X291150Y166450D02*
X302550D01*
X291150Y156450D02*
X306550D01*
X708444Y40956D02*
Y76556D01*
X715556Y67254D02*
Y79615D01*
Y67254D02*
X721000Y61810D01*
X708444Y40956D02*
X727100Y22300D01*
X49268Y410268D02*
X107000D01*
X112780Y404488D01*
Y390920D02*
Y404488D01*
X289860Y351940D02*
Y390920D01*
Y290920D02*
X290120Y291180D01*
X305460D01*
X244860Y290920D02*
Y390920D01*
Y290920D02*
X251300Y284480D01*
X261360D01*
X178820Y290916D02*
X185256Y284480D01*
X195320D01*
X178820Y290916D02*
Y390916D01*
X150784Y283924D02*
X157780Y290920D01*
X141280Y283924D02*
X150784D01*
X157780Y290920D02*
Y390920D01*
X112780Y290920D02*
Y390920D01*
X707460Y483860D02*
Y498510D01*
X706000Y482400D02*
X707460Y483860D01*
X517000Y304000D02*
Y312000D01*
X521000Y316000D01*
X534000D01*
X541000Y323000D01*
Y339000D01*
X545800Y343800D01*
X564000D01*
Y337600D02*
X581386D01*
X600000Y318986D01*
Y304000D02*
Y318986D01*
X584000Y304000D02*
Y327230D01*
X579830Y331400D02*
X584000Y327230D01*
X564000Y331400D02*
X579830D01*
X545000Y307000D02*
X548000Y304000D01*
X545000Y307000D02*
Y323400D01*
X546800Y325200D01*
X564000D01*
Y304000D02*
Y319000D01*
X591500Y423500D02*
Y434000D01*
X587000Y419000D02*
X591500Y423500D01*
X587000Y393000D02*
Y419000D01*
X581200Y387200D02*
X587000Y393000D01*
X564000Y387200D02*
X581200D01*
X582494Y395294D02*
Y402506D01*
X577000Y408000D02*
X582494Y402506D01*
X577000Y408000D02*
Y434000D01*
X580600Y393400D02*
X582494Y395294D01*
X564000Y393400D02*
X580600D01*
X546000Y401300D02*
Y434000D01*
Y401300D02*
X547700Y399600D01*
X564000D01*
X481610Y84000D02*
X481630Y83980D01*
X473000Y84000D02*
X481610D01*
X493630Y83980D02*
X500500Y77110D01*
Y69810D02*
Y77110D01*
X505500Y69810D02*
Y77500D01*
X502260Y80740D02*
X505500Y77500D01*
X502260Y80740D02*
Y107630D01*
X495500Y69810D02*
Y75500D01*
X494000Y77000D02*
X495500Y75500D01*
X493850Y76850D02*
X494000Y77000D01*
X487948Y76850D02*
X493850D01*
X482500Y61810D02*
X490500D01*
X521000Y85000D02*
Y96000D01*
X514260Y107630D02*
Y119060D01*
X487728Y107630D02*
X502260D01*
X481630Y101532D02*
X487728Y107630D01*
X481630Y95980D02*
Y101532D01*
X493630Y95980D02*
X493630Y95980D01*
Y83980D02*
Y95980D01*
X486098Y75000D02*
X487948Y76850D01*
X483000Y75000D02*
X486098D01*
X564600Y119630D02*
X568250Y115980D01*
X564600Y119630D02*
Y125580D01*
X561700Y128480D02*
X564600Y125580D01*
X553300Y128480D02*
X561700D01*
X568250Y115980D02*
X571200D01*
X577200Y108964D02*
Y113480D01*
Y108964D02*
X577414Y108750D01*
X582200Y108964D02*
Y113480D01*
X581986Y108750D02*
X582200Y108964D01*
X581986Y101310D02*
Y108750D01*
Y101310D02*
X583200Y100096D01*
Y82580D02*
Y100096D01*
X577414Y102310D02*
Y108750D01*
X575200Y100096D02*
X577414Y102310D01*
X575200Y82580D02*
Y100096D01*
X587200Y106980D02*
Y113480D01*
Y106980D02*
X591200Y102980D01*
Y82580D02*
Y102980D01*
X599200Y82580D02*
Y102180D01*
X603600Y106580D01*
Y114080D01*
X635500Y654000D02*
X643000D01*
X647400Y649600D01*
X667000D01*
X646600Y641600D02*
X667000D01*
X642600Y637600D02*
X646600Y641600D01*
X636100Y637600D02*
X642600D01*
X649484Y625600D02*
X667000D01*
X647270Y627814D02*
X649484Y625600D01*
X640830Y627814D02*
X647270D01*
X649484Y633600D02*
X667000D01*
X648270Y632386D02*
X649484Y633600D01*
X640830Y632386D02*
X648270D01*
X640616Y632600D02*
X640830Y632386D01*
X636100Y632600D02*
X640616D01*
Y627600D02*
X640830Y627814D01*
X636100Y627600D02*
X640616D01*
X633600Y622600D02*
X636100D01*
X633600Y621600D02*
Y622600D01*
X575556Y606556D02*
X579000Y610000D01*
X516444Y606556D02*
X575556D01*
X620584Y627600D02*
X625100D01*
X612066Y628000D02*
X620184D01*
X620584Y627600D01*
X511106Y598428D02*
X582494D01*
X426386Y608886D02*
X433500Y616000D01*
X493534D01*
X426386Y604030D02*
Y608886D01*
Y604030D02*
X429100Y601316D01*
X493534Y616000D02*
X511106Y598428D01*
X429100Y592300D02*
Y601316D01*
X621084Y632600D02*
X625600D01*
X621056Y632572D02*
X621084Y632600D01*
X610172Y632572D02*
X621056D01*
X513000Y603000D02*
X580600D01*
X431606Y620572D02*
X495428D01*
X513000Y603000D01*
X421814Y610780D02*
X431606Y620572D01*
X421814Y604030D02*
Y610780D01*
X419100Y601316D02*
X421814Y604030D01*
X419100Y592300D02*
Y601316D01*
X582494Y598428D02*
X612066Y628000D01*
X580600Y603000D02*
X610172Y632572D01*
X619100Y637600D02*
X625600D01*
X616500Y640200D02*
X619100Y637600D01*
X616000Y620000D02*
X618600Y622600D01*
X625100D01*
X633600Y618650D02*
Y621600D01*
X621100Y603700D02*
Y612100D01*
X624000Y615000D01*
X629950D01*
X633600Y618650D01*
X608950Y603700D02*
X621100D01*
X498000Y625000D02*
X516444Y606556D01*
X428000Y625000D02*
X498000D01*
X409100Y606100D02*
X428000Y625000D01*
X409100Y592300D02*
Y606100D01*
X313000Y667476D02*
X320000Y660476D01*
Y587000D02*
Y660476D01*
Y587000D02*
X329669Y577331D01*
X485331D01*
X489100Y581100D01*
Y592300D01*
X292500Y582024D02*
X315000Y604524D01*
Y639150D01*
X311850Y642300D02*
X315000Y639150D01*
X299100Y642300D02*
X311850D01*
X299100Y612880D02*
Y632300D01*
X293536Y607316D02*
X299100Y612880D01*
X288914Y607316D02*
X293536D01*
X254000Y585000D02*
Y585000D01*
X286376Y617376D01*
X379100Y592300D02*
Y604699D01*
X379941Y605540D01*
X369100Y592300D02*
Y604381D01*
X367941Y605540D02*
X369100Y604381D01*
X188000Y698000D02*
X202300D01*
X230000Y494450D02*
Y551000D01*
X245000Y553000D02*
Y565000D01*
Y553000D02*
X247000Y551000D01*
X233000Y565000D02*
X233000Y565000D01*
X220000Y565000D02*
X233000D01*
X230000Y562000D02*
X233000Y565000D01*
X230000Y551000D02*
Y562000D01*
X208000Y556000D02*
Y565000D01*
Y556000D02*
X213000Y551000D01*
X208000Y565000D02*
Y571000D01*
X202000Y577000D02*
X208000Y571000D01*
X196000Y577000D02*
X202000D01*
X188100Y686300D02*
X202400D01*
X34000Y549000D02*
X53000D01*
X26000Y557000D02*
X45000D01*
X34000Y565000D02*
X53000D01*
X26000Y573000D02*
X45000D01*
X286376Y617376D02*
Y649600D01*
X289076Y652300D01*
X299100D01*
X282820Y620520D02*
Y656206D01*
X259300Y597000D02*
X282820Y620520D01*
X254000Y597000D02*
X259300D01*
X279264Y628224D02*
Y665714D01*
X260040Y609000D02*
X279264Y628224D01*
X254000Y609000D02*
X260040D01*
X275708Y636818D02*
Y672708D01*
X259890Y621000D02*
X275708Y636818D01*
X254000Y621000D02*
X259890D01*
X268596Y653596D02*
Y687596D01*
X260000Y645000D02*
X268596Y653596D01*
X254000Y645000D02*
X260000D01*
X272152Y645152D02*
Y680530D01*
X260000Y633000D02*
X272152Y645152D01*
X254000Y633000D02*
X260000D01*
X268596Y687596D02*
X283300Y702300D01*
X260000Y657000D02*
X265040Y662040D01*
Y694040D01*
X283300Y712300D01*
X272152Y680530D02*
X283922Y692300D01*
X282820Y656206D02*
X288914Y662300D01*
X299100D01*
X279264Y665714D02*
X285850Y672300D01*
X299100D01*
X275708Y672708D02*
X285300Y682300D01*
X299100D01*
X283300Y702300D02*
X299100D01*
X283300Y712300D02*
X299100D01*
X261200Y679200D02*
Y700906D01*
X282594Y722300D02*
X299100D01*
X261200Y700906D02*
X282594Y722300D01*
X254000Y657000D02*
X260000D01*
X283922Y692300D02*
X299100D01*
X254000Y713000D02*
X262000D01*
X281300Y732300D01*
X299100D01*
D139*
X335000Y226450D02*
X371550D01*
X319900D02*
X335000D01*
X663000Y301000D02*
X675600D01*
X655600D02*
X663000D01*
X675600D02*
X727100Y352500D01*
X518000Y191320D02*
X593876D01*
X406680D02*
X518000D01*
X568200Y268000D02*
X591380Y291180D01*
X353000Y268000D02*
X568200D01*
X329000Y244000D02*
X353000Y268000D01*
X532000Y136450D02*
X539000D01*
X525000D02*
X532000D01*
X591380Y291180D02*
X691180D01*
X623400Y234000D02*
X630000D01*
X616000Y226600D02*
X623400Y234000D01*
X616000Y213444D02*
Y226600D01*
X593876Y191320D02*
X616000Y213444D01*
X691180Y291180D02*
X727100Y327100D01*
X315000Y244000D02*
X329000D01*
X371550Y226450D02*
X406680Y191320D01*
X318450Y225000D02*
X319900Y226450D01*
X308450Y225000D02*
X318450D01*
X312550Y246450D02*
X315000Y244000D01*
X309000Y236450D02*
X325000D01*
X308450Y237000D02*
X309000Y236450D01*
X307900D02*
X308450Y237000D01*
X291150Y236450D02*
X307900D01*
X291150Y246450D02*
X312550D01*
X307000Y226450D02*
X308450Y225000D01*
X291150Y226450D02*
X307000D01*
X705071Y556000D02*
X727100Y533971D01*
Y403300D02*
Y533971D01*
X275100Y556000D02*
X705071Y556000D01*
X539000Y136450D02*
X545330D01*
X553300Y128480D01*
X741000Y16500D02*
Y389400D01*
X734500Y10000D02*
X741000Y16500D01*
X727100Y403300D02*
X741000Y389400D01*
X274000Y557100D02*
X275100Y556000D01*
X658000Y22299D02*
X670299Y10000D01*
X734500D01*
D140*
X568200Y132800D02*
X572200Y128800D01*
Y124480D02*
Y128800D01*
X736000Y817000D02*
Y825000D01*
X299100Y772300D02*
X315000D01*
X299100Y782300D02*
X315000D01*
X299100Y792300D02*
X315000D01*
X646200Y808000D02*
Y816000D01*
X563000Y758000D02*
X563500Y757500D01*
Y741500D02*
Y757500D01*
X299242Y47701D02*
X401447D01*
X260889Y86055D02*
Y201165D01*
Y86055D02*
X299242Y47701D01*
X625900Y301000D02*
X655600D01*
X594070Y332830D02*
X625900Y301000D01*
X594070Y332830D02*
Y357930D01*
X589600Y362400D02*
X594070Y357930D01*
X564000Y356200D02*
X585476D01*
X592800Y243000D02*
Y244800D01*
Y233800D02*
Y243000D01*
X585100Y226100D02*
X592800Y233800D01*
X575800Y226100D02*
X585100D01*
X569200Y249000D02*
X577000D01*
X592800Y244800D02*
X593000Y245000D01*
X518000Y191320D02*
Y233650D01*
X511650Y240000D02*
X518000Y233650D01*
X501800Y240000D02*
X511650D01*
X475700Y245500D02*
X481000D01*
X591600Y216600D02*
X592800Y217800D01*
X575800Y216600D02*
X591600D01*
X651000Y237000D02*
X653450D01*
X643000D02*
X651000D01*
X650800Y236800D02*
X651000Y237000D01*
X650800Y232100D02*
Y236800D01*
X630000Y237000D02*
X643000D01*
X642800Y236800D02*
X643000Y237000D01*
X642800Y232100D02*
Y236800D01*
X653450Y237000D02*
X654800Y235650D01*
Y232100D02*
Y235650D01*
X642800Y219900D02*
Y225500D01*
Y208000D02*
Y219900D01*
X642000Y207200D02*
X642800Y208000D01*
X651000Y216000D02*
X654800D01*
X647600D02*
X651000D01*
X646800Y216800D02*
X647600Y216000D01*
X646800Y216800D02*
Y219900D01*
X654800Y216000D02*
Y219900D01*
Y208000D02*
Y216000D01*
X650800Y216200D02*
X651000Y216000D01*
X650800Y216200D02*
Y219900D01*
X654000Y207200D02*
X654800Y208000D01*
X564000Y362400D02*
X589600D01*
X474200Y254200D02*
Y258000D01*
X470700Y250700D02*
X474200Y254200D01*
X470700Y245500D02*
Y250700D01*
X489000Y240000D02*
X501800D01*
X489000D02*
Y250230D01*
X481230Y258000D02*
X489000Y250230D01*
X474200Y258000D02*
X481230D01*
X428000Y192149D02*
Y201165D01*
X316000Y290085D02*
Y420000D01*
X295360Y269445D02*
X316000Y290085D01*
X153445Y269445D02*
X295360D01*
X242049Y220005D02*
X260889Y201165D01*
X165467Y220005D02*
X242049D01*
X165467Y220005D02*
X165467Y220005D01*
X141498Y220005D02*
X165467D01*
X301000Y435000D02*
X316000Y420000D01*
X301000Y435000D02*
Y504000D01*
X307000Y510000D02*
X479499D01*
X301000Y504000D02*
X307000Y510000D01*
X479499D02*
X494500Y494999D01*
X145000Y261000D02*
X153445Y269445D01*
X401447Y47701D02*
X414750Y34398D01*
X135053Y226450D02*
X141498Y220005D01*
X123150Y226450D02*
X135053D01*
X474630Y38370D02*
Y74370D01*
X465020Y83980D02*
X474630Y74370D01*
X443877Y83980D02*
X465020D01*
X460299Y73101D02*
X471000Y62400D01*
X432997Y73100D02*
X443877Y83980D01*
X471000Y36974D02*
Y62400D01*
Y36974D02*
X480430Y27544D01*
X489420D01*
X495500Y33624D01*
Y38810D01*
X474630Y38370D02*
X481902Y31098D01*
X487948D01*
X490500Y33650D01*
Y38810D01*
X509000Y85000D02*
X509500Y84500D01*
X510500Y66810D02*
Y84500D01*
X509000Y85000D02*
Y96000D01*
D141*
X511950Y136450D02*
X525000D01*
X502260Y107630D02*
Y119060D01*
Y126760D01*
X511950Y136450D01*
X567200Y82580D02*
Y106880D01*
X563600Y110480D02*
X567200Y106880D01*
X553300Y110480D02*
X563600D01*
X526800Y109080D02*
X537800D01*
X538300Y108580D01*
Y82980D02*
Y108580D01*
X538700Y22580D02*
Y82580D01*
Y22580D02*
X627700D01*
Y82580D01*
X667000Y678100D02*
X727000D01*
Y589100D02*
Y678100D01*
X667000Y589100D02*
X727000D01*
X666600Y588700D02*
X667000Y589100D01*
X641000Y588700D02*
X666600D01*
X640500Y588200D02*
X641000Y588700D01*
X640500Y577200D02*
Y588200D01*
X639100Y603700D02*
Y614000D01*
X642700Y617600D01*
X667000D01*
D142*
X549000Y880326D02*
X576000D01*
X181220Y29025D02*
Y49450D01*
Y52910D01*
X168220Y29025D02*
X181220D01*
X168220Y29025D02*
X168220Y29025D01*
X193220D02*
X206105D01*
X206220Y28910D01*
X213840D01*
X224398Y18352D01*
X230514D01*
X121100Y845300D02*
X270300D01*
X359100Y832300D02*
Y846900D01*
X346000Y860000D02*
X359100Y846900D01*
X285000Y860000D02*
X346000D01*
X270300Y845300D02*
X285000Y860000D01*
X44900Y845300D02*
X109100D01*
X44600Y845600D02*
X44900Y845300D01*
X525000Y880700D02*
X537000D01*
X513700D02*
X525000D01*
X489100Y856100D02*
X513700Y880700D01*
X489100Y832300D02*
Y856100D01*
X730000Y726024D02*
Y728000D01*
X719976Y716000D02*
X730000Y726024D01*
X713000Y716000D02*
X719976D01*
X713000Y716000D02*
X713000Y716000D01*
X701000Y716000D02*
X713000D01*
X689000Y716000D02*
X689000Y716000D01*
X677000Y716000D02*
X689000D01*
X640400D02*
X677000D01*
X556700Y632300D02*
X640400Y716000D01*
X539100Y632300D02*
X556700D01*
D143*
X181100Y49570D02*
X181220Y49450D01*
D144*
X460299Y22301D02*
D03*
X431997Y22300D02*
D03*
X658000Y73099D02*
D03*
X727100Y403300D02*
D03*
X23000Y399600D02*
D03*
D145*
X460299Y47701D02*
D03*
Y73101D02*
D03*
X431997Y47700D02*
D03*
Y73100D02*
D03*
X367501Y495001D02*
D03*
X342101D02*
D03*
X367501Y520401D02*
D03*
X342101D02*
D03*
X519900Y494999D02*
D03*
X494500D02*
D03*
X519900Y520400D02*
D03*
X494500D02*
D03*
X443699Y495000D02*
D03*
X418299D02*
D03*
X443699Y520399D02*
D03*
X418299D02*
D03*
X658000Y22299D02*
D03*
Y47699D02*
D03*
X727100Y377900D02*
D03*
Y352500D02*
D03*
Y327100D02*
D03*
Y301700D02*
D03*
Y276300D02*
D03*
Y250900D02*
D03*
Y225500D02*
D03*
Y200100D02*
D03*
Y174700D02*
D03*
Y149300D02*
D03*
Y123900D02*
D03*
Y98500D02*
D03*
Y73100D02*
D03*
Y47700D02*
D03*
Y22300D02*
D03*
X23000Y18600D02*
D03*
Y44000D02*
D03*
Y69400D02*
D03*
Y94800D02*
D03*
Y120200D02*
D03*
Y145600D02*
D03*
Y171000D02*
D03*
Y196400D02*
D03*
Y221800D02*
D03*
Y247200D02*
D03*
Y272600D02*
D03*
Y298000D02*
D03*
Y323400D02*
D03*
Y348800D02*
D03*
Y374200D02*
D03*
D146*
X316701Y495001D02*
D03*
Y520401D02*
D03*
X469100Y494999D02*
D03*
Y520400D02*
D03*
X392899Y495000D02*
D03*
Y520399D02*
D03*
D147*
X44600Y845600D02*
D03*
X19200Y820200D02*
D03*
X70000D02*
D03*
Y871000D02*
D03*
D148*
X19200D02*
D03*
D149*
X297718Y306000D02*
D03*
X335000Y226450D02*
D03*
X697000Y215793D02*
D03*
X680900Y215833D02*
D03*
X685673Y39817D02*
D03*
X701773Y39777D02*
D03*
X636000Y49737D02*
D03*
X619900Y49777D02*
D03*
X547400Y49737D02*
D03*
X530900Y49490D02*
D03*
X138580Y193040D02*
D03*
X239900Y208240D02*
D03*
X265450Y235040D02*
D03*
X155900Y262040D02*
D03*
X638169Y530350D02*
D03*
X353076Y281000D02*
D03*
X350076Y436040D02*
D03*
X523000Y792340D02*
D03*
Y682340D02*
D03*
X359060Y816200D02*
D03*
X489060D02*
D03*
X499060D02*
D03*
X479060D02*
D03*
X379060D02*
D03*
X369060D02*
D03*
X349060D02*
D03*
X339060D02*
D03*
X452861Y258200D02*
D03*
X375000Y259235D02*
D03*
X604998Y189582D02*
D03*
X571060Y198965D02*
D03*
X554584Y199200D02*
D03*
X523584Y219930D02*
D03*
X524060Y199200D02*
D03*
X512799Y245435D02*
D03*
X489060Y259200D02*
D03*
X526860Y259800D02*
D03*
X526667Y276704D02*
D03*
X486581Y276258D02*
D03*
X525999Y331000D02*
D03*
X543336Y389924D02*
D03*
X584160Y377300D02*
D03*
X600204Y335200D02*
D03*
X672350Y309200D02*
D03*
X629060Y307864D02*
D03*
X714469Y354200D02*
D03*
X637060Y137200D02*
D03*
X607380D02*
D03*
X504060Y139312D02*
D03*
X373375Y138200D02*
D03*
X410060Y79200D02*
D03*
X354060Y76469D02*
D03*
X305520Y91636D02*
D03*
X512447Y219930D02*
D03*
X512060Y198938D02*
D03*
X446940Y214280D02*
D03*
X402060Y208200D02*
D03*
X191322Y293200D02*
D03*
X211060D02*
D03*
X292792Y315000D02*
D03*
X289920Y437200D02*
D03*
X298889Y428727D02*
D03*
X75060Y63036D02*
D03*
X34060Y88200D02*
D03*
X64060Y143200D02*
D03*
X52316Y132800D02*
D03*
X48060Y109756D02*
D03*
X23060Y107400D02*
D03*
Y132800D02*
D03*
Y158200D02*
D03*
Y183600D02*
D03*
Y209000D02*
D03*
X81850Y153000D02*
D03*
X70950Y213000D02*
D03*
X155140Y226000D02*
D03*
X100950Y403590D02*
D03*
X255950Y408000D02*
D03*
X237050D02*
D03*
X199250D02*
D03*
X180350D02*
D03*
X142550D02*
D03*
X123650D02*
D03*
X161450D02*
D03*
X168363Y307000D02*
D03*
X96486Y265058D02*
D03*
X58450Y279991D02*
D03*
X66950Y294711D02*
D03*
X41950Y390078D02*
D03*
X44416Y693000D02*
D03*
X117950Y696950D02*
D03*
X93950Y697000D02*
D03*
X651800Y9000D02*
D03*
X607320D02*
D03*
X585080D02*
D03*
X562840D02*
D03*
X136961Y9808D02*
D03*
X169000Y8810D02*
D03*
X186617Y9000D02*
D03*
X208857D02*
D03*
X297817D02*
D03*
X320057D02*
D03*
X342297D02*
D03*
X364537D02*
D03*
X386777D02*
D03*
X409017D02*
D03*
X431257D02*
D03*
X453497D02*
D03*
X475737D02*
D03*
X497977D02*
D03*
X520217D02*
D03*
X674000Y17978D02*
D03*
X711000Y18000D02*
D03*
Y27000D02*
D03*
X727000Y390300D02*
D03*
X727100Y365000D02*
D03*
X682009Y496000D02*
D03*
X701831Y548000D02*
D03*
X666600Y531425D02*
D03*
X650800Y548000D02*
D03*
X178000Y131706D02*
D03*
X177142Y159000D02*
D03*
X137801Y106450D02*
D03*
X247240Y136730D02*
D03*
Y154436D02*
D03*
X71000Y9000D02*
D03*
X53177D02*
D03*
X30937D02*
D03*
X8697Y97960D02*
D03*
Y31240D02*
D03*
Y9000D02*
D03*
Y423960D02*
D03*
Y490680D02*
D03*
Y468440D02*
D03*
Y446200D02*
D03*
Y512920D02*
D03*
Y601880D02*
D03*
Y624120D02*
D03*
Y646360D02*
D03*
Y668600D02*
D03*
Y690840D02*
D03*
Y713080D02*
D03*
Y735320D02*
D03*
Y757560D02*
D03*
Y779800D02*
D03*
Y802040D02*
D03*
Y846520D02*
D03*
Y891000D02*
D03*
X395800Y845800D02*
D03*
X418040D02*
D03*
X440280D02*
D03*
X462520D02*
D03*
X29081Y891000D02*
D03*
X51320D02*
D03*
X73560D02*
D03*
X95800D02*
D03*
X118040D02*
D03*
X140280D02*
D03*
X162520D02*
D03*
X184760D02*
D03*
X207000D02*
D03*
X229240D02*
D03*
X251480D02*
D03*
X273720D02*
D03*
X295960D02*
D03*
X318200D02*
D03*
X340440D02*
D03*
X362680D02*
D03*
X384920D02*
D03*
X407160D02*
D03*
X429400D02*
D03*
X451640D02*
D03*
X496120D02*
D03*
X473880D02*
D03*
X740760Y423960D02*
D03*
Y401720D02*
D03*
Y535160D02*
D03*
Y512920D02*
D03*
Y490680D02*
D03*
Y468440D02*
D03*
Y446200D02*
D03*
X740750Y573100D02*
D03*
X740524Y663000D02*
D03*
X740760Y646360D02*
D03*
Y624120D02*
D03*
X740750Y604000D02*
D03*
X740760Y557400D02*
D03*
Y713080D02*
D03*
Y693000D02*
D03*
Y868760D02*
D03*
Y846520D02*
D03*
Y779800D02*
D03*
Y891000D02*
D03*
X718520D02*
D03*
X696280D02*
D03*
X674040D02*
D03*
X651800D02*
D03*
X63000Y516000D02*
D03*
X81900D02*
D03*
X30000Y512920D02*
D03*
X104500Y431000D02*
D03*
X123700Y432000D02*
D03*
X142600D02*
D03*
X161500D02*
D03*
X180400D02*
D03*
X199300D02*
D03*
X218200D02*
D03*
X237100D02*
D03*
X256000D02*
D03*
X271000Y447000D02*
D03*
X328678Y592300D02*
D03*
X345590Y635345D02*
D03*
X327000Y653895D02*
D03*
X362950Y646225D02*
D03*
X389100Y605597D02*
D03*
X403000Y605465D02*
D03*
X315000Y755476D02*
D03*
X342600Y667050D02*
D03*
X313000Y696730D02*
D03*
X258700Y671738D02*
D03*
X226452Y582024D02*
D03*
X217300Y582000D02*
D03*
X182000Y499551D02*
D03*
Y517227D02*
D03*
X180000Y531410D02*
D03*
X130500Y582000D02*
D03*
X143000Y582024D02*
D03*
X93000Y582524D02*
D03*
X75000D02*
D03*
X26000D02*
D03*
X10000D02*
D03*
X118000Y758549D02*
D03*
X65000Y771730D02*
D03*
Y727683D02*
D03*
X94000Y721000D02*
D03*
X118000Y720950D02*
D03*
Y740550D02*
D03*
X267000Y777776D02*
D03*
Y788700D02*
D03*
Y800000D02*
D03*
Y811624D02*
D03*
X225000D02*
D03*
Y800000D02*
D03*
Y788700D02*
D03*
Y777776D02*
D03*
X741120Y726024D02*
D03*
X734120Y715776D02*
D03*
X723266Y706000D02*
D03*
X523340Y643840D02*
D03*
Y632720D02*
D03*
Y621600D02*
D03*
X534460D02*
D03*
X545580D02*
D03*
X556684Y647000D02*
D03*
X567586Y629000D02*
D03*
X556700Y621600D02*
D03*
X578924Y669000D02*
D03*
X567804Y658000D02*
D03*
X589826Y651000D02*
D03*
X578706Y640000D02*
D03*
X612066Y673000D02*
D03*
X600946Y662000D02*
D03*
X601164Y691000D02*
D03*
X590044Y680000D02*
D03*
X623404Y713000D02*
D03*
X612284Y702000D02*
D03*
X634306Y695000D02*
D03*
X623186Y684000D02*
D03*
X645426Y706000D02*
D03*
X634524Y724000D02*
D03*
X645426Y726000D02*
D03*
X656546D02*
D03*
Y706000D02*
D03*
X667666D02*
D03*
X689906D02*
D03*
X701026D02*
D03*
X667666Y726000D02*
D03*
X678786D02*
D03*
X689906D02*
D03*
X701026D02*
D03*
X712146D02*
D03*
X685673Y732923D02*
D03*
X685782Y746193D02*
D03*
Y760579D02*
D03*
X685891Y773849D02*
D03*
X686000Y801506D02*
D03*
X685891Y788235D02*
D03*
X686000Y815891D02*
D03*
X713271D02*
D03*
X700000Y816000D02*
D03*
X727656Y815891D02*
D03*
X479000Y848000D02*
D03*
X484760Y866000D02*
D03*
X498991Y848000D02*
D03*
X505880Y858970D02*
D03*
X495880Y877000D02*
D03*
X517000Y869970D02*
D03*
X541060Y870000D02*
D03*
X552180D02*
D03*
X507000Y888000D02*
D03*
X518880Y891000D02*
D03*
X530000D02*
D03*
X540842Y890100D02*
D03*
X551962D02*
D03*
X563082D02*
D03*
X264760Y835000D02*
D03*
X275880Y837024D02*
D03*
Y864653D02*
D03*
X65720Y855000D02*
D03*
X76840D02*
D03*
X87960D02*
D03*
X65720Y835097D02*
D03*
X76840D02*
D03*
X87960D02*
D03*
X99080D02*
D03*
X110200D02*
D03*
X121320D02*
D03*
X132440D02*
D03*
X143560D02*
D03*
X110200Y855000D02*
D03*
X121320D02*
D03*
X143560D02*
D03*
X154680D02*
D03*
X165800D02*
D03*
X176920D02*
D03*
X188040D02*
D03*
X199160D02*
D03*
X210280D02*
D03*
X154680Y835097D02*
D03*
X165800D02*
D03*
X176920D02*
D03*
X188040D02*
D03*
X199160D02*
D03*
X210280D02*
D03*
X221400D02*
D03*
X232520D02*
D03*
X243640D02*
D03*
X254760D02*
D03*
X221400Y855000D02*
D03*
X232520D02*
D03*
X243640D02*
D03*
X254760D02*
D03*
X265880D02*
D03*
X379000Y845600D02*
D03*
X369250D02*
D03*
X364230Y856000D02*
D03*
X353690Y866356D02*
D03*
X287000Y848000D02*
D03*
X342600Y849340D02*
D03*
X331480Y850190D02*
D03*
X320360D02*
D03*
X309240D02*
D03*
X298120D02*
D03*
X342600Y869730D02*
D03*
X331480D02*
D03*
X320360D02*
D03*
X309240D02*
D03*
X298120D02*
D03*
X287000D02*
D03*
X80000Y439500D02*
D03*
X72000Y431500D02*
D03*
X88000D02*
D03*
Y463500D02*
D03*
X72000D02*
D03*
X80000Y455500D02*
D03*
X72000Y447500D02*
D03*
X88000D02*
D03*
X395000Y130000D02*
D03*
X498000Y54137D02*
D03*
X503738Y49000D02*
D03*
X492738Y59665D02*
D03*
Y49000D02*
D03*
X123150Y88364D02*
D03*
X110220Y96450D02*
D03*
X313000Y667476D02*
D03*
X107666Y246450D02*
D03*
X736000Y825000D02*
D03*
X315000Y772300D02*
D03*
Y782300D02*
D03*
Y792300D02*
D03*
X646200Y808000D02*
D03*
X671000Y210000D02*
D03*
X473000Y92000D02*
D03*
X250590Y106450D02*
D03*
X277550Y88000D02*
D03*
X472000Y235000D02*
D03*
X464000D02*
D03*
X585476Y356200D02*
D03*
X655600Y241400D02*
D03*
X663000D02*
D03*
X663000Y301000D02*
D03*
X655600D02*
D03*
X517000Y260000D02*
D03*
X517000Y277006D02*
D03*
X577000Y249000D02*
D03*
X592800Y243000D02*
D03*
X481000Y245500D02*
D03*
X511000Y228000D02*
D03*
X496000Y277000D02*
D03*
X507000D02*
D03*
X563000Y158000D02*
D03*
X524000Y54310D02*
D03*
Y64310D02*
D03*
X574700Y134480D02*
D03*
X563000Y200100D02*
D03*
X634000Y207200D02*
D03*
X630000Y214211D02*
D03*
X584000Y207556D02*
D03*
X592800D02*
D03*
X574530D02*
D03*
X351230Y254230D02*
D03*
X481630Y228000D02*
D03*
X456000Y215000D02*
D03*
X238000Y163000D02*
D03*
X110220Y136450D02*
D03*
X80860Y39140D02*
D03*
X358000Y260000D02*
D03*
X229000Y163000D02*
D03*
X110220Y126450D02*
D03*
X109860Y39140D02*
D03*
X663000Y214600D02*
D03*
Y207200D02*
D03*
X660000Y226000D02*
D03*
X608500Y425000D02*
D03*
X561000D02*
D03*
X530000D02*
D03*
X533000Y295000D02*
D03*
X592800Y368600D02*
D03*
X593000Y280000D02*
D03*
X713000Y248000D02*
D03*
X305594Y315000D02*
D03*
X328000Y218000D02*
D03*
X408000Y201165D02*
D03*
X357000Y138000D02*
D03*
X305466Y130007D02*
D03*
X347968Y236000D02*
D03*
X339830D02*
D03*
X325830Y252000D02*
D03*
X332000Y260000D02*
D03*
X309999Y261000D02*
D03*
X318000Y252000D02*
D03*
X312000Y215000D02*
D03*
X193600Y755700D02*
D03*
X360540Y659540D02*
D03*
X193600Y743700D02*
D03*
X348540Y659540D02*
D03*
X321000Y144000D02*
D03*
X316000Y136450D02*
D03*
X324000Y189770D02*
D03*
X246999Y185000D02*
D03*
X247000Y193000D02*
D03*
X304000Y196450D02*
D03*
X291150Y255000D02*
D03*
X251000Y116000D02*
D03*
Y126000D02*
D03*
X246999Y163000D02*
D03*
Y176000D02*
D03*
X305460Y362290D02*
D03*
X273360Y292790D02*
D03*
X129280Y275614D02*
D03*
X145000Y261000D02*
D03*
X109680Y196450D02*
D03*
X136080Y265920D02*
D03*
Y236450D02*
D03*
X25000Y415000D02*
D03*
X47000Y408000D02*
D03*
X532000Y136450D02*
D03*
X539000D02*
D03*
X525000D02*
D03*
X382000Y64310D02*
D03*
X353690D02*
D03*
X414750Y34398D02*
D03*
X376000Y181000D02*
D03*
X277550Y126450D02*
D03*
Y116450D02*
D03*
X347060Y191320D02*
D03*
X333800Y191200D02*
D03*
X721000Y61810D02*
D03*
X37000Y411516D02*
D03*
X336000Y534000D02*
D03*
X686000Y482400D02*
D03*
X274000Y549100D02*
D03*
X292500Y582024D02*
D03*
X275249Y44958D02*
D03*
X622611Y853952D02*
D03*
X574202Y864186D02*
D03*
X622568Y885632D02*
D03*
X574202Y890100D02*
D03*
X622582Y875072D02*
D03*
X622596Y864512D02*
D03*
X574216Y853626D02*
D03*
X612582Y849340D02*
D03*
X584926Y849449D02*
D03*
X598197Y849340D02*
D03*
X459100Y630900D02*
D03*
X408301Y772801D02*
D03*
X446101D02*
D03*
X91000Y12000D02*
D03*
X100000D02*
D03*
Y21000D02*
D03*
X91000D02*
D03*
Y30000D02*
D03*
X100000D02*
D03*
X108962Y55038D02*
D03*
X171524Y38910D02*
D03*
X191100D02*
D03*
X202220D02*
D03*
X218493D02*
D03*
X226840Y34724D02*
D03*
X191100Y19510D02*
D03*
X171524Y19439D02*
D03*
X275206Y13278D02*
D03*
X226840Y8810D02*
D03*
X275220Y23838D02*
D03*
X275234Y34398D02*
D03*
X226854Y45284D02*
D03*
X265220Y49570D02*
D03*
X237564Y49461D02*
D03*
X250835Y49570D02*
D03*
X473000Y84000D02*
D03*
X538300Y128000D02*
D03*
X514260Y127060D02*
D03*
X521000Y77000D02*
D03*
X526800Y128080D02*
D03*
X584700Y134480D02*
D03*
X483000Y75000D02*
D03*
X621500Y577200D02*
D03*
X621000Y588700D02*
D03*
X551270Y682300D02*
D03*
X579000Y610000D02*
D03*
X616500Y640200D02*
D03*
X616000Y620000D02*
D03*
X608950Y603700D02*
D03*
X439100Y604470D02*
D03*
X499100Y580130D02*
D03*
X339100Y604470D02*
D03*
X479100D02*
D03*
X469100D02*
D03*
X459100D02*
D03*
X449100D02*
D03*
X217300Y458100D02*
D03*
X240600D02*
D03*
X263900D02*
D03*
X217300Y481400D02*
D03*
X240600D02*
D03*
X263900D02*
D03*
X217300Y504700D02*
D03*
X240600D02*
D03*
X263900D02*
D03*
X194000D02*
D03*
Y481400D02*
D03*
Y458100D02*
D03*
Y528000D02*
D03*
X263900D02*
D03*
X240600D02*
D03*
X217300D02*
D03*
X274000Y541100D02*
D03*
X274000Y557100D02*
D03*
X266000Y565100D02*
D03*
X258000Y565100D02*
D03*
X258000Y573100D02*
D03*
X250000Y573100D02*
D03*
X242000Y573100D02*
D03*
X279000Y595279D02*
D03*
X582000Y812371D02*
D03*
X555000Y794000D02*
D03*
Y758000D02*
D03*
X193600Y642050D02*
D03*
Y630050D02*
D03*
X367941Y605540D02*
D03*
X379941D02*
D03*
X168100Y698000D02*
D03*
X217300Y664700D02*
D03*
X185600Y788700D02*
D03*
X174600D02*
D03*
X185600Y710700D02*
D03*
X174600D02*
D03*
X168100Y686300D02*
D03*
X185600Y675050D02*
D03*
X174600D02*
D03*
X185600Y597050D02*
D03*
X174600D02*
D03*
X26000Y525000D02*
D03*
Y541000D02*
D03*
X10000D02*
D03*
X18000Y533000D02*
D03*
X34000D02*
D03*
Y549000D02*
D03*
X18000D02*
D03*
X10000Y557000D02*
D03*
X26000D02*
D03*
X18000Y565000D02*
D03*
X34000D02*
D03*
X26000Y573000D02*
D03*
X10000D02*
D03*
X234000Y713000D02*
D03*
Y701000D02*
D03*
X234000Y657000D02*
D03*
Y645000D02*
D03*
X234000Y633000D02*
D03*
X234000Y621000D02*
D03*
Y609000D02*
D03*
X234000Y597000D02*
D03*
X234000Y585000D02*
D03*
M02*
