G04*
G04 #@! TF.GenerationSoftware,Altium Limited,Altium Designer,18.1.9 (240)*
G04*
G04 Layer_Color=32768*
%FSLAX44Y44*%
%MOMM*%
G71*
G01*
G75*
%ADD15C,0.1000*%
%ADD16C,0.1500*%
%ADD172C,0.1524*%
D15*
X0Y903040D02*
Y936540D01*
X750000Y903040D02*
Y936540D01*
X-36540Y0D02*
X-3040D01*
X-36540Y900000D02*
X-3040D01*
D16*
X0Y934000D02*
X15240Y939080D01*
X0Y934000D02*
X15240Y928920D01*
X734760D02*
X750000Y934000D01*
X734760Y939080D02*
X750000Y934000D01*
X0D02*
X316088D01*
X425784D02*
X750000D01*
X-39080Y15240D02*
X-34000Y0D01*
X-28920Y15240D01*
X-34000Y900000D02*
X-28920Y884760D01*
X-39080D02*
X-34000Y900000D01*
Y0D02*
Y391088D01*
Y500784D02*
Y900000D01*
D172*
X320152Y937554D02*
X330309D01*
Y935015D01*
X320152Y924858D01*
Y922319D01*
X345544Y937554D02*
X335387D01*
Y929937D01*
X340466Y932476D01*
X343005D01*
X345544Y929937D01*
Y924858D01*
X343005Y922319D01*
X337927D01*
X335387Y924858D01*
X353162Y919780D02*
X355701Y922319D01*
Y924858D01*
X353162D01*
Y922319D01*
X355701D01*
X353162Y919780D01*
X350623Y917241D01*
X365858Y935015D02*
X368397Y937554D01*
X373475D01*
X376014Y935015D01*
Y924858D01*
X373475Y922319D01*
X368397D01*
X365858Y924858D01*
Y935015D01*
X381093D02*
X383632Y937554D01*
X388710D01*
X391249Y935015D01*
Y924858D01*
X388710Y922319D01*
X383632D01*
X381093Y924858D01*
Y935015D01*
X396328Y922319D02*
Y932476D01*
X398867D01*
X401406Y929937D01*
Y922319D01*
Y929937D01*
X403945Y932476D01*
X406484Y929937D01*
Y922319D01*
X411563D02*
Y932476D01*
X414102D01*
X416641Y929937D01*
Y922319D01*
Y929937D01*
X419180Y932476D01*
X421720Y929937D01*
Y922319D01*
X-24859Y395152D02*
X-22319Y397692D01*
Y402770D01*
X-24859Y405309D01*
X-35015D01*
X-37554Y402770D01*
Y397692D01*
X-35015Y395152D01*
X-32476D01*
X-29937Y397692D01*
Y405309D01*
X-35015Y410387D02*
X-37554Y412927D01*
Y418005D01*
X-35015Y420544D01*
X-24859D01*
X-22319Y418005D01*
Y412927D01*
X-24859Y410387D01*
X-35015D01*
X-19780Y428162D02*
X-22319Y430701D01*
X-24859D01*
Y428162D01*
X-22319D01*
Y430701D01*
X-19780Y428162D01*
X-17241Y425623D01*
X-35015Y440858D02*
X-37554Y443397D01*
Y448475D01*
X-35015Y451014D01*
X-24859D01*
X-22319Y448475D01*
Y443397D01*
X-24859Y440858D01*
X-35015D01*
Y456093D02*
X-37554Y458632D01*
Y463710D01*
X-35015Y466249D01*
X-24859D01*
X-22319Y463710D01*
Y458632D01*
X-24859Y456093D01*
X-35015D01*
X-22319Y471328D02*
X-32476D01*
Y473867D01*
X-29937Y476406D01*
X-22319D01*
X-29937D01*
X-32476Y478945D01*
X-29937Y481484D01*
X-22319D01*
Y486563D02*
X-32476D01*
Y489102D01*
X-29937Y491641D01*
X-22319D01*
X-29937D01*
X-32476Y494180D01*
X-29937Y496720D01*
X-22319D01*
M02*
