G04*
G04 #@! TF.GenerationSoftware,Altium Limited,Altium Designer,18.1.9 (240)*
G04*
G04 Layer_Color=8421504*
%FSLAX44Y44*%
%MOMM*%
G71*
G01*
G75*
%ADD19R,0.7000X0.9000*%
%ADD20R,0.5000X1.5000*%
%ADD21R,0.6000X0.8000*%
%ADD22R,0.8000X0.7000*%
%ADD23R,0.7000X0.8000*%
%ADD24R,0.8000X0.6000*%
%ADD25R,2.0000X3.0000*%
%ADD26R,1.0000X1.2000*%
%ADD27R,8.4500X8.0000*%
%ADD28R,1.8000X1.3000*%
%ADD29R,1.7500X2.6500*%
%ADD30R,1.5000X0.5000*%
%ADD31R,1.0000X0.6500*%
%ADD32R,1.0000X1.6000*%
%ADD33R,3.0000X3.2000*%
%ADD34R,1.2000X0.8000*%
%ADD35R,1.5000X0.7500*%
%ADD36R,0.2000X0.7000*%
%ADD37R,1.0000X1.0000*%
%ADD38R,1.0000X1.0000*%
%ADD39R,1.2000X0.5500*%
%ADD40R,0.9000X1.0000*%
%ADD41R,3.0000X0.3200*%
%ADD42R,1.6000X2.7000*%
%ADD43R,1.6000X1.8000*%
G04:AMPARAMS|DCode=44|XSize=0.2mm|YSize=0.4mm|CornerRadius=0.02mm|HoleSize=0mm|Usage=FLASHONLY|Rotation=180.000|XOffset=0mm|YOffset=0mm|HoleType=Round|Shape=RoundedRectangle|*
%AMROUNDEDRECTD44*
21,1,0.2000,0.3600,0,0,180.0*
21,1,0.1600,0.4000,0,0,180.0*
1,1,0.0400,-0.0800,0.1800*
1,1,0.0400,0.0800,0.1800*
1,1,0.0400,0.0800,-0.1800*
1,1,0.0400,-0.0800,-0.1800*
%
%ADD44ROUNDEDRECTD44*%
G04:AMPARAMS|DCode=45|XSize=0.2mm|YSize=0.7mm|CornerRadius=0.02mm|HoleSize=0mm|Usage=FLASHONLY|Rotation=270.000|XOffset=0mm|YOffset=0mm|HoleType=Round|Shape=RoundedRectangle|*
%AMROUNDEDRECTD45*
21,1,0.2000,0.6600,0,0,270.0*
21,1,0.1600,0.7000,0,0,270.0*
1,1,0.0400,-0.3300,-0.0800*
1,1,0.0400,-0.3300,0.0800*
1,1,0.0400,0.3300,0.0800*
1,1,0.0400,0.3300,-0.0800*
%
%ADD45ROUNDEDRECTD45*%
%ADD46R,0.9000X0.7000*%
%ADD47R,2.5000X2.0000*%
%ADD48R,3.3000X2.0000*%
%ADD49R,3.3000X0.5000*%
%ADD50R,1.2000X1.4000*%
%ADD51R,2.6000X2.0000*%
%ADD52R,2.0000X2.5000*%
%ADD53R,2.0000X2.5500*%
%ADD54R,0.8000X1.2000*%
%ADD55R,2.2000X1.0500*%
%ADD56R,1.0500X1.0000*%
%ADD57R,1.4000X2.1000*%
%ADD58R,0.7000X1.8500*%
%ADD59R,1.8500X0.7000*%
G04:AMPARAMS|DCode=60|XSize=0.2mm|YSize=0.4mm|CornerRadius=0.02mm|HoleSize=0mm|Usage=FLASHONLY|Rotation=90.000|XOffset=0mm|YOffset=0mm|HoleType=Round|Shape=RoundedRectangle|*
%AMROUNDEDRECTD60*
21,1,0.2000,0.3600,0,0,90.0*
21,1,0.1600,0.4000,0,0,90.0*
1,1,0.0400,0.1800,0.0800*
1,1,0.0400,0.1800,-0.0800*
1,1,0.0400,-0.1800,-0.0800*
1,1,0.0400,-0.1800,0.0800*
%
%ADD60ROUNDEDRECTD60*%
G04:AMPARAMS|DCode=61|XSize=0.2mm|YSize=0.7mm|CornerRadius=0.02mm|HoleSize=0mm|Usage=FLASHONLY|Rotation=180.000|XOffset=0mm|YOffset=0mm|HoleType=Round|Shape=RoundedRectangle|*
%AMROUNDEDRECTD61*
21,1,0.2000,0.6600,0,0,180.0*
21,1,0.1600,0.7000,0,0,180.0*
1,1,0.0400,-0.0800,0.3300*
1,1,0.0400,0.0800,0.3300*
1,1,0.0400,0.0800,-0.3300*
1,1,0.0400,-0.0800,-0.3300*
%
%ADD61ROUNDEDRECTD61*%
%ADD62R,1.4000X1.2000*%
%ADD63R,2.0000X3.3000*%
%ADD64R,0.5000X3.3000*%
%ADD65R,1.4400X0.4400*%
%ADD66R,0.2000X0.3500*%
%ADD67R,1.8000X1.8000*%
%ADD68R,0.3000X0.9000*%
%ADD69R,0.3000X0.3000*%
%ADD70R,0.3000X0.3000*%
%ADD71R,0.9000X0.3000*%
%ADD72R,1.9000X1.3000*%
%ADD73R,0.8500X0.4500*%
%ADD74R,1.6000X2.5000*%
G36*
X502100Y824300D02*
X496100D01*
Y840300D01*
X502100D01*
Y824300D01*
D02*
G37*
G36*
X492100D02*
X486100D01*
Y840300D01*
X492100D01*
Y824300D01*
D02*
G37*
G36*
X482100D02*
X476100D01*
Y840300D01*
X482100D01*
Y824300D01*
D02*
G37*
G36*
X472100D02*
X466100D01*
Y840300D01*
X472100D01*
Y824300D01*
D02*
G37*
G36*
X462100D02*
X456100D01*
Y840300D01*
X462100D01*
Y824300D01*
D02*
G37*
G36*
X452100D02*
X446100D01*
Y840300D01*
X452100D01*
Y824300D01*
D02*
G37*
G36*
X442100D02*
X436100D01*
Y840300D01*
X442100D01*
Y824300D01*
D02*
G37*
G36*
X432100D02*
X426100D01*
Y840300D01*
X432100D01*
Y824300D01*
D02*
G37*
G36*
X422100D02*
X416100D01*
Y840300D01*
X422100D01*
Y824300D01*
D02*
G37*
G36*
X412100D02*
X406100D01*
Y840300D01*
X412100D01*
Y824300D01*
D02*
G37*
G36*
X402100D02*
X396100D01*
Y840300D01*
X402100D01*
Y824300D01*
D02*
G37*
G36*
X392100D02*
X386100D01*
Y840300D01*
X392100D01*
Y824300D01*
D02*
G37*
G36*
X382100D02*
X376100D01*
Y840300D01*
X382100D01*
Y824300D01*
D02*
G37*
G36*
X372100D02*
X366100D01*
Y840300D01*
X372100D01*
Y824300D01*
D02*
G37*
G36*
X362100D02*
X356100D01*
Y840300D01*
X362100D01*
Y824300D01*
D02*
G37*
G36*
X352100D02*
X346100D01*
Y840300D01*
X352100D01*
Y824300D01*
D02*
G37*
G36*
X342100D02*
X336100D01*
Y840300D01*
X342100D01*
Y824300D01*
D02*
G37*
G36*
X547100Y789300D02*
X531100D01*
Y795300D01*
X547100D01*
Y789300D01*
D02*
G37*
G36*
X307100D02*
X291100D01*
Y795300D01*
X307100D01*
Y789300D01*
D02*
G37*
G36*
X547100Y779300D02*
X531100D01*
Y785300D01*
X547100D01*
Y779300D01*
D02*
G37*
G36*
X307100D02*
X291100D01*
Y785300D01*
X307100D01*
Y779300D01*
D02*
G37*
G36*
X547100Y769300D02*
X531100D01*
Y775300D01*
X547100D01*
Y769300D01*
D02*
G37*
G36*
X307100D02*
X291100D01*
Y775300D01*
X307100D01*
Y769300D01*
D02*
G37*
G36*
X547100Y759300D02*
X531100D01*
Y765300D01*
X547100D01*
Y759300D01*
D02*
G37*
G36*
X307100D02*
X291100D01*
Y765300D01*
X307100D01*
Y759300D01*
D02*
G37*
G36*
X547100Y749300D02*
X531100D01*
Y755300D01*
X547100D01*
Y749300D01*
D02*
G37*
G36*
X307100D02*
X291100D01*
Y755300D01*
X307100D01*
Y749300D01*
D02*
G37*
G36*
X547100Y739300D02*
X531100D01*
Y745300D01*
X547100D01*
Y739300D01*
D02*
G37*
G36*
X307100D02*
X291100D01*
Y745300D01*
X307100D01*
Y739300D01*
D02*
G37*
G36*
X547100Y729300D02*
X531100D01*
Y735300D01*
X547100D01*
Y729300D01*
D02*
G37*
G36*
X307100D02*
X291100D01*
Y735300D01*
X307100D01*
Y729300D01*
D02*
G37*
G36*
X547100Y719300D02*
X531100D01*
Y725300D01*
X547100D01*
Y719300D01*
D02*
G37*
G36*
X307100D02*
X291100D01*
Y725300D01*
X307100D01*
Y719300D01*
D02*
G37*
G36*
X547100Y709300D02*
X531100D01*
Y715300D01*
X547100D01*
Y709300D01*
D02*
G37*
G36*
X307100D02*
X291100D01*
Y715300D01*
X307100D01*
Y709300D01*
D02*
G37*
G36*
X547100Y699300D02*
X531100D01*
Y705300D01*
X547100D01*
Y699300D01*
D02*
G37*
G36*
X307100D02*
X291100D01*
Y705300D01*
X307100D01*
Y699300D01*
D02*
G37*
G36*
X547100Y689300D02*
X531100D01*
Y695300D01*
X547100D01*
Y689300D01*
D02*
G37*
G36*
X307100D02*
X291100D01*
Y695300D01*
X307100D01*
Y689300D01*
D02*
G37*
G36*
X547100Y679300D02*
X531100D01*
Y685300D01*
X547100D01*
Y679300D01*
D02*
G37*
G36*
X307100D02*
X291100D01*
Y685300D01*
X307100D01*
Y679300D01*
D02*
G37*
G36*
X547100Y669300D02*
X531100D01*
Y675300D01*
X547100D01*
Y669300D01*
D02*
G37*
G36*
X307100D02*
X291100D01*
Y675300D01*
X307100D01*
Y669300D01*
D02*
G37*
G36*
X547100Y659300D02*
X531100D01*
Y665300D01*
X547100D01*
Y659300D01*
D02*
G37*
G36*
X307100D02*
X291100D01*
Y665300D01*
X307100D01*
Y659300D01*
D02*
G37*
G36*
X547100Y649300D02*
X531100D01*
Y655300D01*
X547100D01*
Y649300D01*
D02*
G37*
G36*
X307100D02*
X291100D01*
Y655300D01*
X307100D01*
Y649300D01*
D02*
G37*
G36*
X547100Y639300D02*
X531100D01*
Y645300D01*
X547100D01*
Y639300D01*
D02*
G37*
G36*
X307100D02*
X291100D01*
Y645300D01*
X307100D01*
Y639300D01*
D02*
G37*
G36*
X547100Y629300D02*
X531100D01*
Y635300D01*
X547100D01*
Y629300D01*
D02*
G37*
G36*
X307100D02*
X291100D01*
Y635300D01*
X307100D01*
Y629300D01*
D02*
G37*
G36*
X502100Y584300D02*
X496100D01*
Y600300D01*
X502100D01*
Y584300D01*
D02*
G37*
G36*
X492100D02*
X486100D01*
Y600300D01*
X492100D01*
Y584300D01*
D02*
G37*
G36*
X482100D02*
X476100D01*
Y600300D01*
X482100D01*
Y584300D01*
D02*
G37*
G36*
X472100D02*
X466100D01*
Y600300D01*
X472100D01*
Y584300D01*
D02*
G37*
G36*
X462100D02*
X456100D01*
Y600300D01*
X462100D01*
Y584300D01*
D02*
G37*
G36*
X452100D02*
X446100D01*
Y600300D01*
X452100D01*
Y584300D01*
D02*
G37*
G36*
X442100D02*
X436100D01*
Y600300D01*
X442100D01*
Y584300D01*
D02*
G37*
G36*
X432100D02*
X426100D01*
Y600300D01*
X432100D01*
Y584300D01*
D02*
G37*
G36*
X422100D02*
X416100D01*
Y600300D01*
X422100D01*
Y584300D01*
D02*
G37*
G36*
X412100D02*
X406100D01*
Y600300D01*
X412100D01*
Y584300D01*
D02*
G37*
G36*
X402100D02*
X396100D01*
Y600300D01*
X402100D01*
Y584300D01*
D02*
G37*
G36*
X392100D02*
X386100D01*
Y600300D01*
X392100D01*
Y584300D01*
D02*
G37*
G36*
X382100D02*
X376100D01*
Y600300D01*
X382100D01*
Y584300D01*
D02*
G37*
G36*
X372100D02*
X366100D01*
Y600300D01*
X372100D01*
Y584300D01*
D02*
G37*
G36*
X362100D02*
X356100D01*
Y600300D01*
X362100D01*
Y584300D01*
D02*
G37*
G36*
X352100D02*
X346100D01*
Y600300D01*
X352100D01*
Y584300D01*
D02*
G37*
G36*
X342100D02*
X336100D01*
Y600300D01*
X342100D01*
Y584300D01*
D02*
G37*
D19*
X603600Y125080D02*
D03*
Y114080D02*
D03*
X526800Y120080D02*
D03*
Y109080D02*
D03*
D20*
X562300Y812371D02*
D03*
X575300D02*
D03*
X568800Y832371D02*
D03*
X570000Y721500D02*
D03*
X563500Y741500D02*
D03*
X576500D02*
D03*
D21*
X646200Y828000D02*
D03*
Y816000D02*
D03*
X179000Y544000D02*
D03*
Y556000D02*
D03*
X278000Y773000D02*
D03*
Y761000D02*
D03*
X561000Y868700D02*
D03*
Y880700D02*
D03*
X525000Y868700D02*
D03*
Y880700D02*
D03*
X97000Y857600D02*
D03*
Y845600D02*
D03*
X133500Y857800D02*
D03*
Y845800D02*
D03*
X713000Y704000D02*
D03*
Y716000D02*
D03*
X677000Y704000D02*
D03*
Y716000D02*
D03*
X288914Y607316D02*
D03*
Y595316D02*
D03*
X736000Y817000D02*
D03*
Y805000D02*
D03*
X174600Y655050D02*
D03*
Y667050D02*
D03*
X185600Y655050D02*
D03*
Y667050D02*
D03*
X174600Y605050D02*
D03*
Y617050D02*
D03*
X185600Y605050D02*
D03*
Y617050D02*
D03*
X185600Y768700D02*
D03*
Y780700D02*
D03*
X174600Y768700D02*
D03*
Y780700D02*
D03*
Y743700D02*
D03*
Y755700D02*
D03*
X185600Y743700D02*
D03*
Y755700D02*
D03*
Y718700D02*
D03*
Y730700D02*
D03*
X174600Y718700D02*
D03*
Y730700D02*
D03*
X174600Y630050D02*
D03*
Y642050D02*
D03*
X185600Y630050D02*
D03*
Y642050D02*
D03*
X630000Y234000D02*
D03*
Y222000D02*
D03*
X206105Y17026D02*
D03*
Y29025D02*
D03*
X305460Y341980D02*
D03*
Y353980D02*
D03*
X308450Y225000D02*
D03*
Y237000D02*
D03*
X538300Y108580D02*
D03*
Y120580D02*
D03*
X121600Y23800D02*
D03*
Y11800D02*
D03*
D22*
X575000Y782300D02*
D03*
X563000D02*
D03*
X626000Y801000D02*
D03*
X614000D02*
D03*
X575000Y770000D02*
D03*
X563000D02*
D03*
X563000Y794000D02*
D03*
X575000D02*
D03*
X563000Y758000D02*
D03*
X575000D02*
D03*
X188000Y686300D02*
D03*
X176000D02*
D03*
X208000Y565000D02*
D03*
X220000D02*
D03*
X242000Y701000D02*
D03*
X254000D02*
D03*
X254000Y633000D02*
D03*
X242000D02*
D03*
X254000Y621000D02*
D03*
X242000D02*
D03*
Y657000D02*
D03*
X254000D02*
D03*
Y585000D02*
D03*
X242000D02*
D03*
X254000Y597000D02*
D03*
X242000D02*
D03*
X254000Y609000D02*
D03*
X242000D02*
D03*
Y645000D02*
D03*
X254000D02*
D03*
X557200Y249000D02*
D03*
X569200D02*
D03*
X254000Y713000D02*
D03*
X242000D02*
D03*
X537000Y880700D02*
D03*
X549000D02*
D03*
X109100Y845300D02*
D03*
X121100D02*
D03*
X689000Y716000D02*
D03*
X701000D02*
D03*
X141280Y283924D02*
D03*
X129280D02*
D03*
X672290Y497640D02*
D03*
X660290D02*
D03*
X672290Y485000D02*
D03*
X660290D02*
D03*
X672290Y510340D02*
D03*
X660290D02*
D03*
X195320Y284480D02*
D03*
X207320D02*
D03*
X672290Y523040D02*
D03*
X660290D02*
D03*
X261360Y284480D02*
D03*
X273360D02*
D03*
X193220Y29025D02*
D03*
X181220D02*
D03*
X416000Y201165D02*
D03*
X428000D02*
D03*
X395000Y138000D02*
D03*
X383000D02*
D03*
X493630Y95980D02*
D03*
X481630D02*
D03*
X481630Y83980D02*
D03*
X493630D02*
D03*
D23*
X590500Y733300D02*
D03*
Y721300D02*
D03*
X591000Y814200D02*
D03*
Y826200D02*
D03*
X196000Y565000D02*
D03*
Y577000D02*
D03*
X217000Y685000D02*
D03*
Y673000D02*
D03*
X536200Y220000D02*
D03*
Y232000D02*
D03*
X489000Y228000D02*
D03*
Y240000D02*
D03*
X501800Y228000D02*
D03*
Y240000D02*
D03*
X305460Y291180D02*
D03*
Y303180D02*
D03*
X101560Y55038D02*
D03*
Y43038D02*
D03*
X89010Y55038D02*
D03*
Y43038D02*
D03*
D24*
X233000Y565000D02*
D03*
X245000D02*
D03*
X176000Y698000D02*
D03*
X188000D02*
D03*
X474200Y258000D02*
D03*
X462200D02*
D03*
X321800Y198000D02*
D03*
X333800D02*
D03*
X641000Y588700D02*
D03*
X629000D02*
D03*
X654000Y207200D02*
D03*
X642000D02*
D03*
X706000Y482400D02*
D03*
X694000D02*
D03*
X181220Y49450D02*
D03*
X193220D02*
D03*
X359060Y198120D02*
D03*
X347060D02*
D03*
X362000Y64310D02*
D03*
X374000D02*
D03*
X502260Y119060D02*
D03*
X514260D02*
D03*
X502260Y107630D02*
D03*
X514260D02*
D03*
X509000Y85000D02*
D03*
X521000D02*
D03*
X509000Y96000D02*
D03*
X521000D02*
D03*
D25*
X50000Y451000D02*
D03*
Y561000D02*
D03*
X110000Y451000D02*
D03*
Y561000D02*
D03*
D26*
X264000Y551000D02*
D03*
X247000D02*
D03*
X230000D02*
D03*
X213000D02*
D03*
X196000D02*
D03*
D27*
X230000Y494450D02*
D03*
D28*
X162000Y535500D02*
D03*
Y564500D02*
D03*
D29*
X166000Y463500D02*
D03*
Y506500D02*
D03*
D30*
X235000Y685700D02*
D03*
Y672700D02*
D03*
X255000Y679200D02*
D03*
D31*
X584230Y890100D02*
D03*
Y880700D02*
D03*
X237100Y8578D02*
D03*
Y17978D02*
D03*
D32*
X612200Y885400D02*
D03*
X265070Y13278D02*
D03*
D33*
X246000Y742300D02*
D03*
Y792300D02*
D03*
D34*
X632500Y814500D02*
D03*
Y829500D02*
D03*
X606100D02*
D03*
Y814500D02*
D03*
D35*
X468200Y235000D02*
D03*
D36*
X475700Y245500D02*
D03*
X470700D02*
D03*
X465700D02*
D03*
X460700D02*
D03*
X475700Y224500D02*
D03*
X470700D02*
D03*
X465700D02*
D03*
X460700D02*
D03*
D37*
X517000Y304000D02*
D03*
X533000D02*
D03*
X546000Y434000D02*
D03*
X530000D02*
D03*
X577000D02*
D03*
X561000D02*
D03*
X564000Y304000D02*
D03*
X548000D02*
D03*
X584000D02*
D03*
X600000D02*
D03*
D38*
X592800Y217800D02*
D03*
Y233800D02*
D03*
D39*
X575800Y216600D02*
D03*
Y226100D02*
D03*
Y235600D02*
D03*
X550800D02*
D03*
Y216600D02*
D03*
D40*
X591500Y434000D02*
D03*
X608500D02*
D03*
D41*
X564000Y319000D02*
D03*
Y325200D02*
D03*
Y331400D02*
D03*
Y337600D02*
D03*
Y343800D02*
D03*
Y350000D02*
D03*
Y356200D02*
D03*
Y362400D02*
D03*
Y368600D02*
D03*
Y374800D02*
D03*
Y381000D02*
D03*
Y387200D02*
D03*
Y393400D02*
D03*
Y399600D02*
D03*
D42*
X736000Y745500D02*
D03*
D43*
Y794000D02*
D03*
D44*
X627600Y621600D02*
D03*
X628100Y638600D02*
D03*
X633600Y621600D02*
D03*
Y638600D02*
D03*
D45*
X625600Y637600D02*
D03*
Y632600D02*
D03*
X625100Y622600D02*
D03*
Y627600D02*
D03*
X636100Y632600D02*
D03*
Y627600D02*
D03*
Y622600D02*
D03*
Y637600D02*
D03*
D46*
X624500Y654000D02*
D03*
X635500D02*
D03*
X629500Y577200D02*
D03*
X640500D02*
D03*
D47*
X727000Y589100D02*
D03*
Y678100D02*
D03*
D48*
X667000D02*
D03*
Y589100D02*
D03*
D49*
Y617600D02*
D03*
Y625600D02*
D03*
Y633600D02*
D03*
Y641600D02*
D03*
Y649600D02*
D03*
D50*
X621100Y603700D02*
D03*
X639100D02*
D03*
D51*
X153300Y636150D02*
D03*
X153300Y749550D02*
D03*
D52*
X153300Y601150D02*
D03*
Y671150D02*
D03*
X153300Y784550D02*
D03*
Y714550D02*
D03*
X538700Y22580D02*
D03*
X627700D02*
D03*
D53*
X58300Y676400D02*
D03*
Y595900D02*
D03*
X58300Y709300D02*
D03*
Y789800D02*
D03*
D54*
X692460Y524910D02*
D03*
X707460D02*
D03*
Y498510D02*
D03*
X692460D02*
D03*
D55*
X152970Y44275D02*
D03*
Y14776D02*
D03*
D56*
X168220Y29025D02*
D03*
D57*
X157780Y390920D02*
D03*
X112780D02*
D03*
Y290920D02*
D03*
X157780D02*
D03*
X178820Y290916D02*
D03*
X223820D02*
D03*
Y390916D02*
D03*
X178820D02*
D03*
X244860Y290920D02*
D03*
X289860D02*
D03*
Y390920D02*
D03*
X244860D02*
D03*
D58*
X191100Y65300D02*
D03*
X181100D02*
D03*
X171100D02*
D03*
D59*
X123150Y246450D02*
D03*
Y236450D02*
D03*
Y226450D02*
D03*
Y216450D02*
D03*
Y206450D02*
D03*
Y196450D02*
D03*
Y186450D02*
D03*
Y176450D02*
D03*
Y166450D02*
D03*
Y156450D02*
D03*
Y146450D02*
D03*
Y136450D02*
D03*
Y126450D02*
D03*
Y116450D02*
D03*
Y106450D02*
D03*
Y96450D02*
D03*
X291150D02*
D03*
Y106450D02*
D03*
Y116450D02*
D03*
Y126450D02*
D03*
Y136450D02*
D03*
Y146450D02*
D03*
Y156450D02*
D03*
Y166450D02*
D03*
Y176450D02*
D03*
Y186450D02*
D03*
Y196450D02*
D03*
Y206450D02*
D03*
Y216450D02*
D03*
Y226450D02*
D03*
Y236450D02*
D03*
Y246450D02*
D03*
D60*
X571200Y121980D02*
D03*
X588200Y121480D02*
D03*
X571200Y115980D02*
D03*
X588200D02*
D03*
D61*
X587200Y123980D02*
D03*
X572200Y124480D02*
D03*
X582200Y113480D02*
D03*
X577200D02*
D03*
X572200D02*
D03*
X587200D02*
D03*
X577200Y124480D02*
D03*
X582200Y123980D02*
D03*
D62*
X553300Y110480D02*
D03*
Y128480D02*
D03*
D63*
X627700Y82580D02*
D03*
X538700D02*
D03*
D64*
X567200D02*
D03*
X575200D02*
D03*
X583200D02*
D03*
X591200D02*
D03*
X599200D02*
D03*
D65*
X648800Y226000D02*
D03*
D66*
X654800Y232100D02*
D03*
X650800D02*
D03*
X646800D02*
D03*
X642800D02*
D03*
X642800Y219900D02*
D03*
X646800D02*
D03*
X650800D02*
D03*
X654800D02*
D03*
D67*
X498000Y54310D02*
D03*
D68*
X500500Y38810D02*
D03*
X495500D02*
D03*
X505500D02*
D03*
X490500D02*
D03*
X505500Y69810D02*
D03*
X490500D02*
D03*
X500500D02*
D03*
X495500D02*
D03*
D69*
X485500Y41810D02*
D03*
X510500Y66810D02*
D03*
D70*
Y41810D02*
D03*
X485500Y66810D02*
D03*
D71*
X513500Y46810D02*
D03*
Y51810D02*
D03*
X482500Y61810D02*
D03*
Y46810D02*
D03*
Y56810D02*
D03*
Y51810D02*
D03*
X513500Y61810D02*
D03*
Y56810D02*
D03*
D72*
X324710Y123630D02*
D03*
Y178630D02*
D03*
X356710D02*
D03*
Y123630D02*
D03*
D73*
X109860Y31098D02*
D03*
Y21098D02*
D03*
Y11098D02*
D03*
X80860D02*
D03*
Y21098D02*
D03*
Y31098D02*
D03*
D74*
X95360Y21098D02*
D03*
M02*
