G04*
G04 #@! TF.GenerationSoftware,Altium Limited,Altium Designer,18.1.9 (240)*
G04*
G04 Layer_Color=65535*
%FSLAX44Y44*%
%MOMM*%
G71*
G01*
G75*
%ADD10C,0.2500*%
%ADD11C,0.1270*%
%ADD12C,0.2200*%
%ADD13C,0.2000*%
%ADD14C,0.2540*%
%ADD15C,0.1000*%
%ADD16C,0.1500*%
%ADD17R,0.7500X0.9000*%
%ADD18R,0.6500X0.9000*%
G36*
X424980Y142700D02*
X429680D01*
Y130000D01*
X424980D01*
Y142700D01*
D02*
G37*
G36*
X432980D02*
X437680D01*
Y130000D01*
X432980D01*
Y142700D01*
D02*
G37*
G36*
X452950Y122380D02*
X457650D01*
Y135080D01*
X452950D01*
Y122380D01*
D02*
G37*
G36*
X460950D02*
X465650D01*
Y135080D01*
X460950D01*
Y122380D01*
D02*
G37*
G36*
X624630Y143030D02*
X629330D01*
Y130330D01*
X624630D01*
Y143030D01*
D02*
G37*
G36*
X652570Y122710D02*
X657270D01*
Y135410D01*
X652570D01*
Y122710D01*
D02*
G37*
G36*
X660230Y236160D02*
X657690Y238700D01*
X660230D01*
Y236160D01*
D02*
G37*
D10*
X555550Y812371D02*
G03*
X555550Y812371I-1250J0D01*
G01*
X585750Y741500D02*
G03*
X585750Y741500I-1250J0D01*
G01*
X236250Y693700D02*
G03*
X236250Y693700I-1250J0D01*
G01*
X338000Y407000D02*
X538300D01*
Y332000D02*
Y407000D01*
X338000Y332000D02*
X538300D01*
X338000D02*
Y407000D01*
X618265Y160497D02*
X611600D01*
Y155498D01*
X614932Y157164D01*
X616598D01*
X618265Y155498D01*
Y152166D01*
X616598Y150500D01*
X613266D01*
X611600Y152166D01*
X621597Y160497D02*
Y153832D01*
X624929Y150500D01*
X628261Y153832D01*
Y160497D01*
X648255Y158831D02*
X646589Y160497D01*
X643257D01*
X641590Y158831D01*
Y157164D01*
X643257Y155498D01*
X646589D01*
X648255Y153832D01*
Y152166D01*
X646589Y150500D01*
X643257D01*
X641590Y152166D01*
X651587Y157164D02*
Y150500D01*
Y153832D01*
X653253Y155498D01*
X654919Y157164D01*
X656585D01*
X668248D02*
X663250D01*
X661584Y155498D01*
Y152166D01*
X663250Y150500D01*
X668248D01*
X367500Y373828D02*
Y380493D01*
X370832Y383825D01*
X374165Y380493D01*
Y373828D01*
Y378827D01*
X367500D01*
X377497Y370496D02*
Y380493D01*
X382495D01*
X384161Y378827D01*
Y375494D01*
X382495Y373828D01*
X377497D01*
X387494Y370496D02*
Y380493D01*
X392492D01*
X394158Y378827D01*
Y375494D01*
X392492Y373828D01*
X387494D01*
X397490D02*
X400823D01*
X399156D01*
Y383825D01*
X397490D01*
X405821Y380493D02*
Y375494D01*
X407487Y373828D01*
X412486D01*
Y372162D01*
X410819Y370496D01*
X409153D01*
X412486Y373828D02*
Y380493D01*
X429147Y370496D02*
X430813D01*
X432479Y372162D01*
Y380493D01*
X427481D01*
X425815Y378827D01*
Y375494D01*
X427481Y373828D01*
X432479D01*
X435811D02*
X439143D01*
X437477D01*
Y383825D01*
X435811D01*
X444142Y380493D02*
Y375494D01*
X445808Y373828D01*
X450806D01*
Y380493D01*
X459137Y373828D02*
X455805D01*
X454139Y375494D01*
Y378827D01*
X455805Y380493D01*
X459137D01*
X460803Y378827D01*
Y377160D01*
X454139D01*
X464136Y373828D02*
X470800Y380493D01*
X475798Y382159D02*
Y380493D01*
X474132D01*
X477464D01*
X475798D01*
Y375494D01*
X477464Y373828D01*
X484129Y380493D02*
X487461D01*
X489127Y378827D01*
Y373828D01*
X484129D01*
X482463Y375494D01*
X484129Y377160D01*
X489127D01*
X492460Y370496D02*
Y380493D01*
X497458D01*
X499124Y378827D01*
Y375494D01*
X497458Y373828D01*
X492460D01*
X507455D02*
X504123D01*
X502457Y375494D01*
Y378827D01*
X504123Y380493D01*
X507455D01*
X509121Y378827D01*
Y377160D01*
X502457D01*
X417484Y362497D02*
Y352500D01*
Y357498D01*
X419150Y359165D01*
X422482D01*
X424148Y357498D01*
Y352500D01*
X432479D02*
X429147D01*
X427481Y354166D01*
Y357498D01*
X429147Y359165D01*
X432479D01*
X434145Y357498D01*
Y355832D01*
X427481D01*
X437477Y359165D02*
Y352500D01*
Y355832D01*
X439144Y357498D01*
X440810Y359165D01*
X442476D01*
X452473Y352500D02*
X449140D01*
X447474Y354166D01*
Y357498D01*
X449140Y359165D01*
X452473D01*
X454139Y357498D01*
Y355832D01*
X447474D01*
X146500Y222829D02*
Y212832D01*
X149832Y216164D01*
X153165Y212832D01*
Y222829D01*
X156497Y212832D02*
X159829D01*
X158163D01*
Y219497D01*
X156497D01*
X164827Y212832D02*
Y222829D01*
X169826D01*
X171492Y221163D01*
Y217831D01*
X169826Y216164D01*
X164827D01*
X174824Y219497D02*
Y214498D01*
X176490Y212832D01*
X181489D01*
Y211166D01*
X179823Y209500D01*
X178156D01*
X181489Y212832D02*
Y219497D01*
X194818Y221163D02*
X196484Y222829D01*
X199816D01*
X201482Y221163D01*
Y219497D01*
X199816Y217831D01*
X198150D01*
X199816D01*
X201482Y216164D01*
Y214498D01*
X199816Y212832D01*
X196484D01*
X194818Y214498D01*
X204814Y212832D02*
Y214498D01*
X206481D01*
Y212832D01*
X204814D01*
X213145Y221163D02*
X214811Y222829D01*
X218144D01*
X219810Y221163D01*
Y214498D01*
X218144Y212832D01*
X214811D01*
X213145Y214498D01*
Y221163D01*
X233139Y222829D02*
Y212832D01*
X236471Y216164D01*
X239803Y212832D01*
Y222829D01*
X243136Y221163D02*
X244802Y222829D01*
X248134D01*
X249800Y221163D01*
Y214498D01*
X248134Y212832D01*
X244802D01*
X243136Y214498D01*
Y221163D01*
X253132Y212832D02*
X256465D01*
X254798D01*
Y222829D01*
X253132Y221163D01*
X427500Y161497D02*
Y153166D01*
X429166Y151500D01*
X432498D01*
X434165Y153166D01*
Y161497D01*
X437497Y151500D02*
Y158165D01*
X440829Y161497D01*
X444161Y158165D01*
Y151500D01*
Y156498D01*
X437497D01*
X447494Y151500D02*
Y161497D01*
X452492D01*
X454158Y159831D01*
Y156498D01*
X452492Y154832D01*
X447494D01*
X450826D02*
X454158Y151500D01*
X457490Y161497D02*
X464155D01*
X460823D01*
Y151500D01*
X377500Y239496D02*
Y249493D01*
X382498D01*
X384165Y247827D01*
Y244494D01*
X382498Y242828D01*
X377500D01*
X380832D02*
X384165Y239496D01*
X387497D02*
X394161Y246161D01*
X404158Y247827D02*
X402492Y249493D01*
X399160D01*
X397494Y247827D01*
Y241162D01*
X399160Y239496D01*
X402492D01*
X404158Y241162D01*
Y244494D01*
X400826D01*
X407490Y239496D02*
X414155Y246161D01*
X417487Y249493D02*
Y239496D01*
X422486D01*
X424152Y241162D01*
Y242828D01*
X422486Y244494D01*
X417487D01*
X422486D01*
X424152Y246161D01*
Y247827D01*
X422486Y249493D01*
X417487D01*
X427484Y239496D02*
X434148Y246161D01*
X437481Y249493D02*
X440813D01*
X439147D01*
Y239496D01*
X437481D01*
X440813D01*
X445811D02*
Y249493D01*
X450810D01*
X452476Y247827D01*
Y244494D01*
X450810Y242828D01*
X445811D01*
X449144D02*
X452476Y239496D01*
X394161Y229831D02*
X392495Y231497D01*
X389163D01*
X387497Y229831D01*
Y228165D01*
X389163Y226498D01*
X392495D01*
X394161Y224832D01*
Y223166D01*
X392495Y221500D01*
X389163D01*
X387497Y223166D01*
X402492Y221500D02*
X399160D01*
X397494Y223166D01*
Y226498D01*
X399160Y228165D01*
X402492D01*
X404158Y226498D01*
Y224832D01*
X397494D01*
X407490Y221500D02*
Y228165D01*
X412489D01*
X414155Y226498D01*
Y221500D01*
X417487D02*
X422486D01*
X424152Y223166D01*
X422486Y224832D01*
X419153D01*
X417487Y226498D01*
X419153Y228165D01*
X424152D01*
X429150Y221500D02*
X432482D01*
X434148Y223166D01*
Y226498D01*
X432482Y228165D01*
X429150D01*
X427484Y226498D01*
Y223166D01*
X429150Y221500D01*
X437481Y228165D02*
Y221500D01*
Y224832D01*
X439147Y226498D01*
X440813Y228165D01*
X442479D01*
X616165Y778827D02*
X614498Y780493D01*
X611166D01*
X609500Y778827D01*
Y777160D01*
X611166Y775494D01*
X614498D01*
X616165Y773828D01*
Y772162D01*
X614498Y770496D01*
X611166D01*
X609500Y772162D01*
X621163Y778827D02*
Y777160D01*
X619497D01*
X622829D01*
X621163D01*
Y772162D01*
X622829Y770496D01*
X629493Y777160D02*
X632826D01*
X634492Y775494D01*
Y770496D01*
X629493D01*
X627827Y772162D01*
X629493Y773828D01*
X634492D01*
X639490Y778827D02*
Y777160D01*
X637824D01*
X641156D01*
X639490D01*
Y772162D01*
X641156Y770496D01*
X649487D02*
X646155Y773828D01*
Y777160D01*
X649487Y780493D01*
X654485Y770496D02*
Y780493D01*
X659484D01*
X661150Y778827D01*
Y775494D01*
X659484Y773828D01*
X654485D01*
X657818D02*
X661150Y770496D01*
X664482D02*
X667814Y773828D01*
Y777160D01*
X664482Y780493D01*
X609500Y752500D02*
Y762497D01*
X616165Y752500D01*
Y762497D01*
X624495Y752500D02*
X621163D01*
X619497Y754166D01*
Y757498D01*
X621163Y759165D01*
X624495D01*
X626161Y757498D01*
Y755832D01*
X619497D01*
X631160Y760831D02*
Y759165D01*
X629493D01*
X632826D01*
X631160D01*
Y754166D01*
X632826Y752500D01*
X651153D02*
X647821Y755832D01*
Y759165D01*
X651153Y762497D01*
X662816Y760831D02*
X661150Y762497D01*
X657818D01*
X656152Y760831D01*
Y754166D01*
X657818Y752500D01*
X661150D01*
X662816Y754166D01*
Y757498D01*
X659484D01*
X666148Y752500D02*
X669481Y755832D01*
Y759165D01*
X666148Y762497D01*
X701669Y767664D02*
X700003Y765998D01*
Y762666D01*
X701669Y761000D01*
X708334D01*
X710000Y762666D01*
Y765998D01*
X708334Y767664D01*
X705002D01*
Y764332D01*
X710000Y770997D02*
X700003D01*
Y775995D01*
X701669Y777661D01*
X705002D01*
X706668Y775995D01*
Y770997D01*
X701669Y787658D02*
X700003Y785992D01*
Y782660D01*
X701669Y780994D01*
X703335D01*
X705002Y782660D01*
Y785992D01*
X706668Y787658D01*
X708334D01*
X710000Y785992D01*
Y782660D01*
X708334Y780994D01*
X625000Y881997D02*
Y872000D01*
X629998D01*
X631665Y873666D01*
Y875332D01*
X629998Y876998D01*
X625000D01*
X629998D01*
X631665Y878664D01*
Y880331D01*
X629998Y881997D01*
X625000D01*
X634997D02*
X641661D01*
X638329D01*
Y872000D01*
X92664Y881331D02*
X90998Y882997D01*
X87666D01*
X86000Y881331D01*
Y874666D01*
X87666Y873000D01*
X90998D01*
X92664Y874666D01*
Y877998D01*
X89332D01*
X102661Y881331D02*
X100995Y882997D01*
X97663D01*
X95997Y881331D01*
Y879665D01*
X97663Y877998D01*
X100995D01*
X102661Y876332D01*
Y874666D01*
X100995Y873000D01*
X97663D01*
X95997Y874666D01*
X105994Y873000D02*
Y882997D01*
X109326Y879665D01*
X112658Y882997D01*
Y873000D01*
X92000Y797000D02*
Y806997D01*
X95332Y803664D01*
X98665Y806997D01*
Y797000D01*
X101997Y806997D02*
X105329D01*
X103663D01*
Y797000D01*
X101997D01*
X105329D01*
X116992Y805331D02*
X115326Y806997D01*
X111994D01*
X110327Y805331D01*
Y798666D01*
X111994Y797000D01*
X115326D01*
X116992Y798666D01*
X98665Y692331D02*
X96998Y693997D01*
X93666D01*
X92000Y692331D01*
Y690665D01*
X93666Y688998D01*
X96998D01*
X98665Y687332D01*
Y685666D01*
X96998Y684000D01*
X93666D01*
X92000Y685666D01*
X101997Y684000D02*
Y693997D01*
X106995D01*
X108661Y692331D01*
Y688998D01*
X106995Y687332D01*
X101997D01*
X111994Y693997D02*
Y684000D01*
Y687332D01*
X118658Y693997D01*
X113660Y688998D01*
X118658Y684000D01*
X67200Y452697D02*
Y446032D01*
X70532Y442700D01*
X73864Y446032D01*
Y452697D01*
X77197D02*
X80529D01*
X78863D01*
Y442700D01*
X77197D01*
X80529D01*
X85527D02*
Y452697D01*
X92192Y442700D01*
Y452697D01*
X499899Y450598D02*
X489902D01*
Y455597D01*
X491569Y457263D01*
X494901D01*
X496567Y455597D01*
Y450598D01*
X491569Y460595D02*
X489902Y462261D01*
Y465594D01*
X491569Y467260D01*
X493235D01*
X494901Y465594D01*
Y463927D01*
Y465594D01*
X496567Y467260D01*
X498233D01*
X499899Y465594D01*
Y462261D01*
X498233Y460595D01*
X474499Y450598D02*
X464502D01*
Y455597D01*
X466169Y457263D01*
X469501D01*
X471167Y455597D01*
Y450598D01*
X474499Y465594D02*
X464502D01*
X469501Y460595D01*
Y467260D01*
X46665Y21921D02*
X44998Y23587D01*
X41666D01*
X40000Y21921D01*
Y15256D01*
X41666Y13590D01*
X44998D01*
X46665Y15256D01*
Y18588D01*
X43332D01*
X49997Y13590D02*
Y23587D01*
X56661Y13590D01*
Y23587D01*
X59994D02*
Y13590D01*
X64992D01*
X66658Y15256D01*
Y21921D01*
X64992Y23587D01*
X59994D01*
X516969Y457263D02*
X515302Y455597D01*
Y452265D01*
X516969Y450598D01*
X523633D01*
X525299Y452265D01*
Y455597D01*
X523633Y457263D01*
X520301D01*
Y453931D01*
X525299Y460595D02*
X515302D01*
X525299Y467260D01*
X515302D01*
Y470592D02*
X525299D01*
Y475590D01*
X523633Y477256D01*
X516969D01*
X515302Y475590D01*
Y470592D01*
X398298Y450599D02*
X388302D01*
Y455598D01*
X389968Y457264D01*
X393300D01*
X394966Y455598D01*
Y450599D01*
X398298Y460596D02*
Y463928D01*
Y462262D01*
X388302D01*
X389968Y460596D01*
X398298Y473925D02*
X388302D01*
X393300Y468927D01*
Y475591D01*
X423698Y450599D02*
X413702D01*
Y455598D01*
X415368Y457264D01*
X418700D01*
X420366Y455598D01*
Y450599D01*
X423698Y460596D02*
Y463928D01*
Y462262D01*
X413702D01*
X415368Y460596D01*
X413702Y475591D02*
Y468927D01*
X418700D01*
X417034Y472259D01*
Y473925D01*
X418700Y475591D01*
X422032D01*
X423698Y473925D01*
Y470593D01*
X422032Y468927D01*
X449098Y450599D02*
X439102D01*
Y455598D01*
X440768Y457264D01*
X444100D01*
X445766Y455598D01*
Y450599D01*
X449098Y460596D02*
Y463928D01*
Y462262D01*
X439102D01*
X440768Y460596D01*
X439102Y475591D02*
X440768Y472259D01*
X444100Y468927D01*
X447432D01*
X449098Y470593D01*
Y473925D01*
X447432Y475591D01*
X445766D01*
X444100Y473925D01*
Y468927D01*
X372900Y450600D02*
X362903D01*
Y455598D01*
X364569Y457265D01*
X367902D01*
X369568Y455598D01*
Y450600D01*
X372900Y460597D02*
Y463929D01*
Y462263D01*
X362903D01*
X364569Y460597D01*
Y468927D02*
X362903Y470594D01*
Y473926D01*
X364569Y475592D01*
X366236D01*
X367902Y473926D01*
Y472260D01*
Y473926D01*
X369568Y475592D01*
X371234D01*
X372900Y473926D01*
Y470594D01*
X371234Y468927D01*
X347500Y450600D02*
X337503D01*
Y455598D01*
X339169Y457265D01*
X342502D01*
X344168Y455598D01*
Y450600D01*
X347500Y467261D02*
Y460597D01*
X340835Y467261D01*
X339169D01*
X337503Y465595D01*
Y462263D01*
X339169Y460597D01*
X347500Y470594D02*
Y473926D01*
Y472260D01*
X337503D01*
X339169Y470594D01*
X322100Y450600D02*
X312103D01*
Y455598D01*
X313769Y457265D01*
X317102D01*
X318768Y455598D01*
Y450600D01*
X322100Y467261D02*
Y460597D01*
X315436Y467261D01*
X313769D01*
X312103Y465595D01*
Y462263D01*
X313769Y460597D01*
X322100Y477258D02*
Y470594D01*
X315436Y477258D01*
X313769D01*
X312103Y475592D01*
Y472260D01*
X313769Y470594D01*
X464403Y538000D02*
Y544664D01*
Y541332D01*
X474400D01*
X464403Y547997D02*
X474400Y554661D01*
X464403D02*
X474400Y547997D01*
X464403Y557994D02*
X474400D01*
Y562992D01*
X472734Y564658D01*
X466069D01*
X464403Y562992D01*
Y557994D01*
X499400Y538000D02*
X489403D01*
Y542998D01*
X491069Y544664D01*
X494402D01*
X496068Y542998D01*
Y538000D01*
Y541332D02*
X499400Y544664D01*
X489403Y547997D02*
X499400Y554661D01*
X489403D02*
X499400Y547997D01*
X489403Y557994D02*
X499400D01*
Y562992D01*
X497734Y564658D01*
X491069D01*
X489403Y562992D01*
Y557994D01*
X516469Y544664D02*
X514803Y542998D01*
Y539666D01*
X516469Y538000D01*
X523134D01*
X524800Y539666D01*
Y542998D01*
X523134Y544664D01*
X519802D01*
Y541332D01*
X524800Y547997D02*
X514803D01*
X524800Y554661D01*
X514803D01*
Y557994D02*
X524800D01*
Y562992D01*
X523134Y564658D01*
X516469D01*
X514803Y562992D01*
Y557994D01*
X388202Y537999D02*
X398199D01*
Y542998D01*
X396533Y544664D01*
X389869D01*
X388202Y542998D01*
Y537999D01*
X389869Y554660D02*
X388202Y552994D01*
Y549662D01*
X389869Y547996D01*
X396533D01*
X398199Y549662D01*
Y552994D01*
X396533Y554660D01*
X388202Y557993D02*
X398199D01*
Y562991D01*
X396533Y564657D01*
X389869D01*
X388202Y562991D01*
Y557993D01*
X414869Y544664D02*
X413202Y542998D01*
Y539665D01*
X414869Y537999D01*
X421533D01*
X423199Y539665D01*
Y542998D01*
X421533Y544664D01*
X413202Y547996D02*
Y554660D01*
Y551328D01*
X423199D01*
X414869Y564657D02*
X413202Y562991D01*
Y559659D01*
X414869Y557993D01*
X416535D01*
X418201Y559659D01*
Y562991D01*
X419867Y564657D01*
X421533D01*
X423199Y562991D01*
Y559659D01*
X421533Y557993D01*
X448599Y537999D02*
X438602D01*
Y542998D01*
X440269Y544664D01*
X443601D01*
X445267Y542998D01*
Y537999D01*
Y541331D02*
X448599Y544664D01*
X438602Y547996D02*
Y554660D01*
Y551328D01*
X448599D01*
X440269Y564657D02*
X438602Y562991D01*
Y559659D01*
X440269Y557993D01*
X441935D01*
X443601Y559659D01*
Y562991D01*
X445267Y564657D01*
X446933D01*
X448599Y562991D01*
Y559659D01*
X446933Y557993D01*
X372500Y538000D02*
X362503D01*
Y542998D01*
X364169Y544664D01*
X367502D01*
X369168Y542998D01*
Y538000D01*
Y541332D02*
X372500Y544664D01*
X362503Y547997D02*
Y551329D01*
Y549663D01*
X372500D01*
Y547997D01*
Y551329D01*
X337103Y538000D02*
X347100D01*
Y542998D01*
X345434Y544664D01*
X338769D01*
X337103Y542998D01*
Y538000D01*
Y547997D02*
Y554661D01*
Y551329D01*
X347100D01*
Y557994D02*
X337103D01*
Y562992D01*
X338769Y564658D01*
X342102D01*
X343768Y562992D01*
Y557994D01*
Y561326D02*
X347100Y564658D01*
X322100Y538000D02*
X312103D01*
Y542998D01*
X313769Y544664D01*
X317102D01*
X318768Y542998D01*
Y538000D01*
X312103Y547997D02*
X322100D01*
X318768Y551329D01*
X322100Y554661D01*
X312103D01*
X322100Y557994D02*
X312103D01*
Y562992D01*
X313769Y564658D01*
X317102D01*
X318768Y562992D01*
Y557994D01*
Y561326D02*
X322100Y564658D01*
X40000Y39000D02*
Y48997D01*
X44998D01*
X46665Y47331D01*
Y43998D01*
X44998Y42332D01*
X40000D01*
X49997Y39000D02*
X53329D01*
X51663D01*
Y48997D01*
X49997Y47331D01*
X63326Y39000D02*
Y48997D01*
X58327Y43998D01*
X64992D01*
X40000Y64390D02*
Y74387D01*
X44998D01*
X46665Y72721D01*
Y69388D01*
X44998Y67722D01*
X40000D01*
X49997Y64390D02*
X53329D01*
X51663D01*
Y74387D01*
X49997Y72721D01*
X58327D02*
X59994Y74387D01*
X63326D01*
X64992Y72721D01*
Y71055D01*
X63326Y69388D01*
X61660D01*
X63326D01*
X64992Y67722D01*
Y66056D01*
X63326Y64390D01*
X59994D01*
X58327Y66056D01*
X40000Y90000D02*
Y99997D01*
X44998D01*
X46665Y98331D01*
Y94998D01*
X44998Y93332D01*
X40000D01*
X49997Y90000D02*
X53329D01*
X51663D01*
Y99997D01*
X49997Y98331D01*
X64992Y90000D02*
X58327D01*
X64992Y96664D01*
Y98331D01*
X63326Y99997D01*
X59994D01*
X58327Y98331D01*
X40000Y115000D02*
Y124997D01*
X44998D01*
X46665Y123331D01*
Y119998D01*
X44998Y118332D01*
X40000D01*
X49997Y115000D02*
X53329D01*
X51663D01*
Y124997D01*
X49997Y123331D01*
X58327Y115000D02*
X61660D01*
X59994D01*
Y124997D01*
X58327Y123331D01*
X40000Y140000D02*
Y149997D01*
X44998D01*
X46665Y148331D01*
Y144998D01*
X44998Y143332D01*
X40000D01*
X49997Y140000D02*
X53329D01*
X51663D01*
Y149997D01*
X49997Y148331D01*
X58327D02*
X59994Y149997D01*
X63326D01*
X64992Y148331D01*
Y141666D01*
X63326Y140000D01*
X59994D01*
X58327Y141666D01*
Y148331D01*
X71656Y140000D02*
X68324Y143332D01*
Y146664D01*
X71656Y149997D01*
X83319Y148331D02*
X81653Y149997D01*
X78321D01*
X76655Y148331D01*
Y146664D01*
X78321Y144998D01*
X81653D01*
X83319Y143332D01*
Y141666D01*
X81653Y140000D01*
X78321D01*
X76655Y141666D01*
X93316Y148331D02*
X91650Y149997D01*
X88318D01*
X86652Y148331D01*
Y141666D01*
X88318Y140000D01*
X91650D01*
X93316Y141666D01*
X96648Y149997D02*
Y140000D01*
X103313D01*
X106645D02*
X109977Y143332D01*
Y146664D01*
X106645Y149997D01*
X40000Y165540D02*
Y175537D01*
X44998D01*
X46665Y173871D01*
Y170538D01*
X44998Y168872D01*
X40000D01*
X49997Y167206D02*
X51663Y165540D01*
X54995D01*
X56661Y167206D01*
Y173871D01*
X54995Y175537D01*
X51663D01*
X49997Y173871D01*
Y172204D01*
X51663Y170538D01*
X56661D01*
X63326Y165540D02*
X59994Y168872D01*
Y172204D01*
X63326Y175537D01*
X74989Y173871D02*
X73323Y175537D01*
X69990D01*
X68324Y173871D01*
Y172204D01*
X69990Y170538D01*
X73323D01*
X74989Y168872D01*
Y167206D01*
X73323Y165540D01*
X69990D01*
X68324Y167206D01*
X78321Y175537D02*
Y165540D01*
X83319D01*
X84986Y167206D01*
Y173871D01*
X83319Y175537D01*
X78321D01*
X88318Y165540D02*
Y172204D01*
X91650Y175537D01*
X94982Y172204D01*
Y165540D01*
Y170538D01*
X88318D01*
X98315Y165540D02*
X101647Y168872D01*
Y172204D01*
X98315Y175537D01*
X40000Y191000D02*
Y200997D01*
X44998D01*
X46665Y199331D01*
Y195998D01*
X44998Y194332D01*
X40000D01*
X49997Y199331D02*
X51663Y200997D01*
X54995D01*
X56661Y199331D01*
Y197665D01*
X54995Y195998D01*
X56661Y194332D01*
Y192666D01*
X54995Y191000D01*
X51663D01*
X49997Y192666D01*
Y194332D01*
X51663Y195998D01*
X49997Y197665D01*
Y199331D01*
X51663Y195998D02*
X54995D01*
X40000Y216000D02*
Y225997D01*
X44998D01*
X46665Y224331D01*
Y220998D01*
X44998Y219332D01*
X40000D01*
X49997Y225997D02*
X56661D01*
Y224331D01*
X49997Y217666D01*
Y216000D01*
X40000Y242000D02*
Y251997D01*
X44998D01*
X46665Y250331D01*
Y246998D01*
X44998Y245332D01*
X40000D01*
X56661Y251997D02*
X53329Y250331D01*
X49997Y246998D01*
Y243666D01*
X51663Y242000D01*
X54995D01*
X56661Y243666D01*
Y245332D01*
X54995Y246998D01*
X49997D01*
X40000Y267000D02*
Y276997D01*
X44998D01*
X46665Y275331D01*
Y271998D01*
X44998Y270332D01*
X40000D01*
X56661Y276997D02*
X49997D01*
Y271998D01*
X53329Y273664D01*
X54995D01*
X56661Y271998D01*
Y268666D01*
X54995Y267000D01*
X51663D01*
X49997Y268666D01*
X40000Y293000D02*
Y302997D01*
X44998D01*
X46665Y301331D01*
Y297998D01*
X44998Y296332D01*
X40000D01*
X54995Y293000D02*
Y302997D01*
X49997Y297998D01*
X56661D01*
X40000Y318000D02*
Y327997D01*
X44998D01*
X46665Y326331D01*
Y322998D01*
X44998Y321332D01*
X40000D01*
X49997Y326331D02*
X51663Y327997D01*
X54995D01*
X56661Y326331D01*
Y324664D01*
X54995Y322998D01*
X53329D01*
X54995D01*
X56661Y321332D01*
Y319666D01*
X54995Y318000D01*
X51663D01*
X49997Y319666D01*
X40000Y344000D02*
Y353997D01*
X44998D01*
X46665Y352331D01*
Y348998D01*
X44998Y347332D01*
X40000D01*
X56661Y344000D02*
X49997D01*
X56661Y350664D01*
Y352331D01*
X54995Y353997D01*
X51663D01*
X49997Y352331D01*
X40000Y369000D02*
Y378997D01*
X44998D01*
X46665Y377331D01*
Y373998D01*
X44998Y372332D01*
X40000D01*
X49997Y369000D02*
X53329D01*
X51663D01*
Y378997D01*
X49997Y377331D01*
X61660Y369000D02*
X58327Y372332D01*
Y375664D01*
X61660Y378997D01*
X66658D02*
X73323D01*
X69990D01*
Y369000D01*
X76655Y378997D02*
X83319Y369000D01*
Y378997D02*
X76655Y369000D01*
X86652D02*
X89984Y372332D01*
Y375664D01*
X86652Y378997D01*
X40000Y394000D02*
Y403997D01*
X44998D01*
X46665Y402331D01*
Y398998D01*
X44998Y397332D01*
X40000D01*
X49997Y402331D02*
X51663Y403997D01*
X54995D01*
X56661Y402331D01*
Y395666D01*
X54995Y394000D01*
X51663D01*
X49997Y395666D01*
Y402331D01*
X63326Y394000D02*
X59994Y397332D01*
Y400664D01*
X63326Y403997D01*
X68324Y394000D02*
Y403997D01*
X73323D01*
X74989Y402331D01*
Y398998D01*
X73323Y397332D01*
X68324D01*
X71656D02*
X74989Y394000D01*
X78321Y403997D02*
X84986Y394000D01*
Y403997D02*
X78321Y394000D01*
X88318D02*
X91650Y397332D01*
Y400664D01*
X88318Y403997D01*
X676200Y409997D02*
Y403332D01*
X679532Y400000D01*
X682865Y403332D01*
Y409997D01*
X686197D02*
X689529D01*
X687863D01*
Y400000D01*
X686197D01*
X689529D01*
X694527D02*
Y409997D01*
X701192Y400000D01*
Y409997D01*
X682865Y384597D02*
X676200D01*
Y379598D01*
X679532Y381264D01*
X681198D01*
X682865Y379598D01*
Y376266D01*
X681198Y374600D01*
X677866D01*
X676200Y376266D01*
X686197Y384597D02*
Y377932D01*
X689529Y374600D01*
X692861Y377932D01*
Y384597D01*
X696194Y382931D02*
X697860Y384597D01*
X701192D01*
X702858Y382931D01*
Y376266D01*
X701192Y374600D01*
X697860D01*
X696194Y376266D01*
Y382931D01*
X675100Y357131D02*
X676766Y358797D01*
X680098D01*
X681765Y357131D01*
Y355465D01*
X680098Y353798D01*
X678432D01*
X680098D01*
X681765Y352132D01*
Y350466D01*
X680098Y348800D01*
X676766D01*
X675100Y350466D01*
X685097Y358797D02*
Y352132D01*
X688429Y348800D01*
X691761Y352132D01*
Y358797D01*
X695094Y357131D02*
X696760Y358797D01*
X700092D01*
X701758Y357131D01*
Y355465D01*
X700092Y353798D01*
X698426D01*
X700092D01*
X701758Y352132D01*
Y350466D01*
X700092Y348800D01*
X696760D01*
X695094Y350466D01*
X676900Y322800D02*
X680232D01*
X678566D01*
Y332797D01*
X676900Y331131D01*
X685231Y332797D02*
Y326132D01*
X688563Y322800D01*
X691895Y326132D01*
Y332797D01*
X695227Y331131D02*
X696894Y332797D01*
X700226D01*
X701892Y331131D01*
Y329464D01*
X700226Y327798D01*
X701892Y326132D01*
Y324466D01*
X700226Y322800D01*
X696894D01*
X695227Y324466D01*
Y326132D01*
X696894Y327798D01*
X695227Y329464D01*
Y331131D01*
X696894Y327798D02*
X700226D01*
X682865Y306731D02*
X681198Y308397D01*
X677866D01*
X676200Y306731D01*
Y300066D01*
X677866Y298400D01*
X681198D01*
X682865Y300066D01*
Y303398D01*
X679532D01*
X686197Y298400D02*
Y308397D01*
X692861Y298400D01*
Y308397D01*
X696194D02*
Y298400D01*
X701192D01*
X702858Y300066D01*
Y306731D01*
X701192Y308397D01*
X696194D01*
X682865Y281331D02*
X681198Y282997D01*
X677866D01*
X676200Y281331D01*
Y274666D01*
X677866Y273000D01*
X681198D01*
X682865Y274666D01*
Y277998D01*
X679532D01*
X686197Y273000D02*
Y282997D01*
X692861Y273000D01*
Y282997D01*
X696194D02*
Y273000D01*
X701192D01*
X702858Y274666D01*
Y281331D01*
X701192Y282997D01*
X696194D01*
X676200Y247600D02*
Y257597D01*
X681198D01*
X682865Y255931D01*
Y252598D01*
X681198Y250932D01*
X676200D01*
X679532D02*
X682865Y247600D01*
X692861Y255931D02*
X691195Y257597D01*
X687863D01*
X686197Y255931D01*
Y254265D01*
X687863Y252598D01*
X691195D01*
X692861Y250932D01*
Y249266D01*
X691195Y247600D01*
X687863D01*
X686197Y249266D01*
X696194Y257597D02*
X702858D01*
X699526D01*
Y247600D01*
X676200Y222200D02*
Y232197D01*
X681198D01*
X682865Y230531D01*
Y227198D01*
X681198Y225532D01*
X676200D01*
X692861Y222200D02*
X686197D01*
X692861Y228864D01*
Y230531D01*
X691195Y232197D01*
X687863D01*
X686197Y230531D01*
X696194D02*
X697860Y232197D01*
X701192D01*
X702858Y230531D01*
Y228864D01*
X701192Y227198D01*
X699526D01*
X701192D01*
X702858Y225532D01*
Y223866D01*
X701192Y222200D01*
X697860D01*
X696194Y223866D01*
X676200Y196800D02*
Y206797D01*
X681198D01*
X682865Y205131D01*
Y201798D01*
X681198Y200132D01*
X676200D01*
X692861Y196800D02*
X686197D01*
X692861Y203465D01*
Y205131D01*
X691195Y206797D01*
X687863D01*
X686197Y205131D01*
X702858Y196800D02*
X696194D01*
X702858Y203465D01*
Y205131D01*
X701192Y206797D01*
X697860D01*
X696194Y205131D01*
X676200Y171400D02*
Y181397D01*
X681198D01*
X682865Y179731D01*
Y176398D01*
X681198Y174732D01*
X676200D01*
X692861Y171400D02*
X686197D01*
X692861Y178064D01*
Y179731D01*
X691195Y181397D01*
X687863D01*
X686197Y179731D01*
X696194Y171400D02*
X699526D01*
X697860D01*
Y181397D01*
X696194Y179731D01*
X676200Y146000D02*
Y155997D01*
X681198D01*
X682865Y154331D01*
Y150998D01*
X681198Y149332D01*
X676200D01*
X692861Y146000D02*
X686197D01*
X692861Y152664D01*
Y154331D01*
X691195Y155997D01*
X687863D01*
X686197Y154331D01*
X696194D02*
X697860Y155997D01*
X701192D01*
X702858Y154331D01*
Y147666D01*
X701192Y146000D01*
X697860D01*
X696194Y147666D01*
Y154331D01*
X676200Y120600D02*
Y130597D01*
X681198D01*
X682865Y128931D01*
Y125598D01*
X681198Y123932D01*
X676200D01*
X686197Y120600D02*
X689529D01*
X687863D01*
Y130597D01*
X686197Y128931D01*
X694527Y122266D02*
X696194Y120600D01*
X699526D01*
X701192Y122266D01*
Y128931D01*
X699526Y130597D01*
X696194D01*
X694527Y128931D01*
Y127264D01*
X696194Y125598D01*
X701192D01*
X676200Y95200D02*
Y105197D01*
X681198D01*
X682865Y103531D01*
Y100198D01*
X681198Y98532D01*
X676200D01*
X686197Y95200D02*
X689529D01*
X687863D01*
Y105197D01*
X686197Y103531D01*
X694527D02*
X696194Y105197D01*
X699526D01*
X701192Y103531D01*
Y101865D01*
X699526Y100198D01*
X701192Y98532D01*
Y96866D01*
X699526Y95200D01*
X696194D01*
X694527Y96866D01*
Y98532D01*
X696194Y100198D01*
X694527Y101865D01*
Y103531D01*
X696194Y100198D02*
X699526D01*
X676200Y69800D02*
Y79797D01*
X681198D01*
X682865Y78131D01*
Y74798D01*
X681198Y73132D01*
X676200D01*
X686197Y69800D02*
X689529D01*
X687863D01*
Y79797D01*
X686197Y78131D01*
X694527Y79797D02*
X701192D01*
Y78131D01*
X694527Y71466D01*
Y69800D01*
X676200Y44400D02*
Y54397D01*
X681198D01*
X682865Y52731D01*
Y49398D01*
X681198Y47732D01*
X676200D01*
X686197Y44400D02*
X689529D01*
X687863D01*
Y54397D01*
X686197Y52731D01*
X701192Y54397D02*
X697860Y52731D01*
X694527Y49398D01*
Y46066D01*
X696194Y44400D01*
X699526D01*
X701192Y46066D01*
Y47732D01*
X699526Y49398D01*
X694527D01*
X676200Y19000D02*
Y28997D01*
X681198D01*
X682865Y27331D01*
Y23998D01*
X681198Y22332D01*
X676200D01*
X686197Y19000D02*
X689529D01*
X687863D01*
Y28997D01*
X686197Y27331D01*
X701192Y28997D02*
X694527D01*
Y23998D01*
X697860Y25665D01*
X699526D01*
X701192Y23998D01*
Y20666D01*
X699526Y19000D01*
X696194D01*
X694527Y20666D01*
X322700Y5300D02*
Y15297D01*
X327698D01*
X329365Y13631D01*
Y10298D01*
X327698Y8632D01*
X322700D01*
X326032D02*
X329365Y5300D01*
X337695D02*
X334363D01*
X332697Y6966D01*
Y10298D01*
X334363Y11964D01*
X337695D01*
X339361Y10298D01*
Y8632D01*
X332697D01*
X342693Y11964D02*
X346026Y5300D01*
X349358Y11964D01*
X352690Y5300D02*
Y6966D01*
X354356D01*
Y5300D01*
X352690D01*
X371018D02*
X374350D01*
X372684D01*
Y15297D01*
X371018Y13631D01*
X379348Y5300D02*
Y6966D01*
X381015D01*
Y5300D01*
X379348D01*
X387679Y13631D02*
X389345Y15297D01*
X392677D01*
X394343Y13631D01*
Y6966D01*
X392677Y5300D01*
X389345D01*
X387679Y6966D01*
Y13631D01*
X319630Y31225D02*
Y21228D01*
X322962Y24560D01*
X326295Y21228D01*
Y31225D01*
X329627Y21228D02*
X332959D01*
X331293D01*
Y27892D01*
X329627D01*
X337957Y21228D02*
Y31225D01*
X342956D01*
X344622Y29559D01*
Y26226D01*
X342956Y24560D01*
X337957D01*
X347954Y27892D02*
Y22894D01*
X349620Y21228D01*
X354619D01*
Y19562D01*
X352953Y17896D01*
X351286D01*
X354619Y21228D02*
Y27892D01*
X374612Y31225D02*
X367948D01*
Y21228D01*
X374612D01*
X367948Y26226D02*
X371280D01*
X377944Y27892D02*
X381277Y21228D01*
X384609Y27892D01*
X389608D02*
X392940D01*
X394606Y26226D01*
Y21228D01*
X389608D01*
X387941Y22894D01*
X389608Y24560D01*
X394606D01*
X397938Y21228D02*
X401270D01*
X399604D01*
Y31225D01*
X397938D01*
D11*
X153236Y513000D02*
G03*
X153236Y513000I-2236J0D01*
G01*
X151250Y461250D02*
X180750D01*
Y508750D01*
X151250D02*
X180750D01*
X151250Y461250D02*
Y508750D01*
D12*
X640620Y805490D02*
G03*
X640620Y805490I-1000J0D01*
G01*
X684450Y491390D02*
G03*
X684450Y491390I-1000J0D01*
G01*
X78580Y38878D02*
G03*
X78580Y38878I-1000J0D01*
G01*
D13*
X641100Y618100D02*
G03*
X641100Y618100I-500J0D01*
G01*
X568200Y108980D02*
G03*
X568200Y108980I-500J0D01*
G01*
X652570Y122710D02*
X657270D01*
Y135410D01*
X652570D02*
X657270D01*
X652570Y122710D02*
Y135410D01*
Y137950D02*
Y143030D01*
X657270D01*
Y137950D02*
Y143030D01*
X652570Y137950D02*
X657270D01*
X624630Y127790D02*
X629330D01*
Y122710D02*
Y127790D01*
X624630Y122710D02*
X629330D01*
X624630D02*
Y127790D01*
Y130330D02*
Y143030D01*
Y130330D02*
X629330D01*
Y143030D01*
X624630D02*
X629330D01*
X424980Y142700D02*
X429680D01*
Y130000D02*
Y142700D01*
X424980Y130000D02*
X429680D01*
X424980D02*
Y142700D01*
X432980Y130000D02*
Y142700D01*
Y130000D02*
X437680D01*
Y142700D01*
X432980D02*
X437680D01*
X424980Y122380D02*
Y127460D01*
Y122380D02*
X429680D01*
Y127460D01*
X424980D02*
X429680D01*
X432980D02*
X437680D01*
Y122380D02*
Y127460D01*
X432980Y122380D02*
X437680D01*
X432980D02*
Y127460D01*
X460950Y137620D02*
Y142700D01*
X465650D01*
Y137620D02*
Y142700D01*
X460950Y137620D02*
X465650D01*
X452950D02*
X457650D01*
Y142700D01*
X452950D02*
X457650D01*
X452950Y137620D02*
Y142700D01*
X460950Y122380D02*
X465650D01*
Y135080D01*
X460950D02*
X465650D01*
X460950Y122380D02*
Y135080D01*
X452950Y122380D02*
Y135080D01*
X457650D01*
Y122380D02*
Y135080D01*
X452950Y122380D02*
X457650D01*
X472999Y9601D02*
Y85801D01*
X447599D02*
X472999D01*
X447599Y9601D02*
Y85801D01*
Y9601D02*
X472999D01*
X444697Y9600D02*
Y85800D01*
X419297D02*
X444697D01*
X419297Y9600D02*
Y85800D01*
Y9600D02*
X444697D01*
X608600Y117580D02*
Y121580D01*
X598600Y117580D02*
Y121580D01*
X557800Y824371D02*
Y829371D01*
X562300D01*
X579800Y824371D02*
Y829371D01*
X575300D02*
X579800D01*
X642200Y822000D02*
X650200D01*
X559000Y724500D02*
X563500D01*
X559000D02*
Y729500D01*
X576500Y724500D02*
X581000D01*
Y729500D01*
X569000Y778490D02*
Y786110D01*
X620000Y797190D02*
Y804810D01*
X586690Y727300D02*
X594310D01*
X569000Y766190D02*
Y773810D01*
Y790190D02*
Y797810D01*
Y754190D02*
Y761810D01*
X587190Y820200D02*
X594810D01*
X175000Y550000D02*
X183000D01*
X192190Y571000D02*
X199810D01*
X239000Y561000D02*
Y569000D01*
X274000Y767000D02*
X282000D01*
X182000Y694000D02*
Y702000D01*
X154000Y546000D02*
Y554000D01*
X170000Y546000D02*
Y554000D01*
X182000Y682490D02*
Y690110D01*
X214000Y561190D02*
Y568810D01*
X247000Y690200D02*
X252000D01*
Y685700D02*
Y690200D01*
X247000Y668200D02*
X252000D01*
Y672700D01*
X213190Y679000D02*
X220810D01*
X248000Y697190D02*
Y704810D01*
X248000Y629190D02*
Y636810D01*
X248000Y617190D02*
Y624810D01*
Y653190D02*
Y660810D01*
Y581190D02*
Y588810D01*
X248000Y593190D02*
Y600810D01*
X248000Y605190D02*
Y612810D01*
Y641190D02*
Y648810D01*
X304001Y482301D02*
Y507701D01*
X380201D01*
Y482301D02*
Y507701D01*
X304001Y482301D02*
X380201D01*
X304001Y507701D02*
Y533101D01*
X380201D01*
Y507701D02*
Y533101D01*
X304001Y507701D02*
X380201D01*
X563200Y245190D02*
Y252810D01*
X532390Y226000D02*
X540010D01*
X248000Y709190D02*
Y716810D01*
X264000Y734300D02*
X270500D01*
X221500D02*
X228000D01*
X270500D02*
Y800300D01*
X221500Y734300D02*
Y800300D01*
X228000D01*
X264000D02*
X270500D01*
X557000Y874700D02*
X565000D01*
X521000D02*
X529000D01*
X543000Y876890D02*
Y884510D01*
X93000Y851600D02*
X101000D01*
X129500Y851800D02*
X137500D01*
X115100Y841490D02*
Y849110D01*
X709000Y710000D02*
X717000D01*
X673000D02*
X681000D01*
X695000Y712190D02*
Y719810D01*
X468200Y254000D02*
Y262000D01*
X327800Y194000D02*
Y202000D01*
X525000Y298000D02*
Y310000D01*
X456400Y482299D02*
Y507699D01*
X532600D01*
Y482299D02*
Y507699D01*
X456400Y482299D02*
X532600D01*
X456400Y507700D02*
Y533100D01*
X532600D01*
Y507700D02*
Y533100D01*
X456400Y507700D02*
X532600D01*
X380199Y482300D02*
Y507700D01*
X456399D01*
Y482300D02*
Y507700D01*
X380199Y482300D02*
X456399D01*
X380199Y507699D02*
Y533099D01*
X456399D01*
Y507699D02*
Y533099D01*
X380199Y507699D02*
X456399D01*
X284914Y601316D02*
X292914D01*
X586800Y225800D02*
X598800D01*
X560300Y211500D02*
X566300D01*
X560300D02*
Y240700D01*
X566300D01*
Y211500D02*
Y240700D01*
X569800Y211350D02*
X581800D01*
X538000Y428000D02*
Y440000D01*
X569000Y428000D02*
Y440000D01*
X598000Y438000D02*
X602000D01*
X598000Y430000D02*
X602000D01*
X485190Y234000D02*
X492810D01*
X497990D02*
X505610D01*
X556000Y298000D02*
Y310000D01*
X592000Y298000D02*
Y310000D01*
X732000Y811000D02*
X740000D01*
X623600Y644100D02*
X637600D01*
X623600Y616100D02*
X637600D01*
X628000Y659000D02*
X632000D01*
X628000Y649000D02*
X632000D01*
X635000Y584700D02*
Y592700D01*
X630100Y597700D02*
Y609700D01*
X633000Y582200D02*
X637000D01*
X633000Y572200D02*
X637000D01*
X170600Y661050D02*
X178600D01*
X181600D02*
X189600D01*
X170600Y611050D02*
X178600D01*
X181600D02*
X189600D01*
X181600Y774700D02*
X189600D01*
X170600D02*
X178600D01*
X170600Y749700D02*
X178600D01*
X181600D02*
X189600D01*
X181600Y724700D02*
X189600D01*
X170600D02*
X178600D01*
X170600Y636050D02*
X178600D01*
X181600D02*
X189600D01*
X648000Y203200D02*
Y211200D01*
X626000Y228000D02*
X634000D01*
X700000Y478400D02*
Y486400D01*
X202104Y23026D02*
X210105D01*
X301460Y347980D02*
X309460D01*
X187220Y45450D02*
Y53450D01*
X304450Y231000D02*
X312450D01*
X353060Y194120D02*
Y202120D01*
X368000Y60310D02*
Y68310D01*
X534300Y114580D02*
X542300D01*
X508260Y115060D02*
Y123060D01*
Y103630D02*
Y111630D01*
X515000Y81000D02*
Y89000D01*
Y92000D02*
Y100000D01*
X531800Y112580D02*
Y116580D01*
X521800Y112580D02*
Y116580D01*
X645300Y85799D02*
X670700D01*
Y9599D02*
Y85799D01*
X645300Y9599D02*
X670700D01*
X645300D02*
Y85799D01*
X137970Y38026D02*
Y43025D01*
X139970D01*
X137970Y14025D02*
Y19025D01*
Y14025D02*
X139970D01*
X165970Y43025D02*
X167970D01*
Y38026D02*
Y43025D01*
X165970Y15026D02*
X167970D01*
Y20025D01*
X714400Y9600D02*
Y416000D01*
X739800D01*
Y396950D02*
Y416000D01*
Y9600D02*
Y396950D01*
X714400Y9600D02*
X739800D01*
X10300Y5900D02*
Y412300D01*
X35700D01*
Y393250D02*
Y412300D01*
Y5900D02*
Y393250D01*
X10300Y5900D02*
X35700D01*
X135280Y280114D02*
Y287734D01*
X666290Y493830D02*
Y501450D01*
Y481190D02*
Y488810D01*
X666290Y506530D02*
Y514150D01*
X201320Y280670D02*
Y288290D01*
X666290Y519230D02*
Y526850D01*
X267360Y280670D02*
Y288290D01*
X187220Y25215D02*
Y32836D01*
X422000Y197355D02*
Y204975D01*
X389000Y134190D02*
Y141810D01*
X487630Y92170D02*
Y99790D01*
X301650Y297180D02*
X309270D01*
X487630Y80170D02*
Y87790D01*
X593700Y111980D02*
Y125980D01*
X565700Y111980D02*
Y125980D01*
X547300Y119480D02*
X559300D01*
X117600Y17800D02*
X125600D01*
X97750Y49038D02*
X105370D01*
X85200D02*
X92820D01*
X420630Y117137D02*
Y110473D01*
X421963Y109140D01*
X424629D01*
X425962Y110473D01*
Y117137D01*
X433959Y115805D02*
X432626Y117137D01*
X429960D01*
X428627Y115805D01*
Y114472D01*
X429960Y113139D01*
X432626D01*
X433959Y111806D01*
Y110473D01*
X432626Y109140D01*
X429960D01*
X428627Y110473D01*
X436625Y117137D02*
Y109140D01*
X440624D01*
X441956Y110473D01*
Y111806D01*
X440624Y113139D01*
X436625D01*
X440624D01*
X441956Y114472D01*
Y115805D01*
X440624Y117137D01*
X436625D01*
X449840D02*
Y109140D01*
Y113139D01*
X455172D01*
Y117137D01*
Y109140D01*
X457837Y117137D02*
Y109140D01*
X461836D01*
X463169Y110473D01*
Y115805D01*
X461836Y117137D01*
X457837D01*
X465835Y109140D02*
Y117137D01*
X469833D01*
X471166Y115805D01*
Y113139D01*
X469833Y111806D01*
X465835D01*
X468501D02*
X471166Y109140D01*
X616470Y117627D02*
Y110963D01*
X617803Y109630D01*
X620469D01*
X621802Y110963D01*
Y117627D01*
X629799Y116294D02*
X628466Y117627D01*
X625800D01*
X624468Y116294D01*
Y114962D01*
X625800Y113629D01*
X628466D01*
X629799Y112296D01*
Y110963D01*
X628466Y109630D01*
X625800D01*
X624468Y110963D01*
X632465Y117627D02*
Y109630D01*
X636464D01*
X637797Y110963D01*
Y112296D01*
X636464Y113629D01*
X632465D01*
X636464D01*
X637797Y114962D01*
Y116294D01*
X636464Y117627D01*
X632465D01*
X666332Y571665D02*
X664999Y572997D01*
X662333D01*
X661000Y571665D01*
Y570332D01*
X662333Y568999D01*
X664999D01*
X666332Y567666D01*
Y566333D01*
X664999Y565000D01*
X662333D01*
X661000Y566333D01*
X668997Y572997D02*
X671663D01*
X670330D01*
Y565000D01*
X668997D01*
X671663D01*
X675662D02*
Y572997D01*
X678328Y570332D01*
X680994Y572997D01*
Y565000D01*
X683659Y571665D02*
X684992Y572997D01*
X687658D01*
X688991Y571665D01*
Y570332D01*
X687658Y568999D01*
X688991Y567666D01*
Y566333D01*
X687658Y565000D01*
X684992D01*
X683659Y566333D01*
Y567666D01*
X684992Y568999D01*
X683659Y570332D01*
Y571665D01*
X684992Y568999D02*
X687658D01*
X691657Y571665D02*
X692990Y572997D01*
X695656D01*
X696988Y571665D01*
Y566333D01*
X695656Y565000D01*
X692990D01*
X691657Y566333D01*
Y571665D01*
X699654D02*
X700987Y572997D01*
X703653D01*
X704986Y571665D01*
Y570332D01*
X703653Y568999D01*
X704986Y567666D01*
Y566333D01*
X703653Y565000D01*
X700987D01*
X699654Y566333D01*
Y567666D01*
X700987Y568999D01*
X699654Y570332D01*
Y571665D01*
X700987Y568999D02*
X703653D01*
X715649Y572997D02*
Y566333D01*
X716982Y565000D01*
X719648D01*
X720981Y566333D01*
Y572997D01*
X728978Y571665D02*
X727645Y572997D01*
X724979D01*
X723646Y571665D01*
Y570332D01*
X724979Y568999D01*
X727645D01*
X728978Y567666D01*
Y566333D01*
X727645Y565000D01*
X724979D01*
X723646Y566333D01*
X731644Y572997D02*
Y565000D01*
X735643D01*
X736975Y566333D01*
Y567666D01*
X735643Y568999D01*
X731644D01*
X735643D01*
X736975Y570332D01*
Y571665D01*
X735643Y572997D01*
X731644D01*
X645680Y117627D02*
Y112296D01*
X648346Y109630D01*
X651012Y112296D01*
Y117627D01*
X653678D02*
X656343D01*
X655010D01*
Y109630D01*
X653678D01*
X656343D01*
X660342D02*
Y117627D01*
X665674Y109630D01*
Y117627D01*
X14000Y684000D02*
Y693997D01*
X18998D01*
X20665Y692331D01*
Y688998D01*
X18998Y687332D01*
X14000D01*
X23997Y684000D02*
X27329D01*
X25663D01*
Y693997D01*
X23997Y692331D01*
X32327D02*
X33994Y693997D01*
X37326D01*
X38992Y692331D01*
Y690665D01*
X37326Y688998D01*
X38992Y687332D01*
Y685666D01*
X37326Y684000D01*
X33994D01*
X32327Y685666D01*
Y687332D01*
X33994Y688998D01*
X32327Y690665D01*
Y692331D01*
X33994Y688998D02*
X37326D01*
X13000Y797000D02*
Y806997D01*
X17998D01*
X19664Y805331D01*
Y801998D01*
X17998Y800332D01*
X13000D01*
X22997Y797000D02*
X26329D01*
X24663D01*
Y806997D01*
X22997Y805331D01*
X37992Y806997D02*
X31327D01*
Y801998D01*
X34660Y803664D01*
X36326D01*
X37992Y801998D01*
Y798666D01*
X36326Y797000D01*
X32994D01*
X31327Y798666D01*
D14*
X519590Y33990D02*
G03*
X519590Y33990I-1270J0D01*
G01*
X299100Y832300D02*
X329100D01*
X299100Y802300D02*
Y832300D01*
X509100D02*
X539100D01*
Y802300D02*
Y832300D01*
X299100Y592300D02*
Y622300D01*
Y592300D02*
X329100D01*
X509100D02*
X539100D01*
Y622300D01*
X289100Y802300D02*
X299100D01*
X72300Y596150D02*
X140300D01*
X1300D02*
X44300D01*
X72300Y676150D02*
X140300D01*
X1300D02*
X44300D01*
X1300Y596150D02*
Y676150D01*
X159300Y649150D02*
Y655150D01*
Y617150D02*
Y623150D01*
X159300Y730550D02*
Y736550D01*
Y762550D02*
Y768550D01*
X1300Y709550D02*
Y789550D01*
X44300D01*
X72300D02*
X140300D01*
X1300Y709550D02*
X44300D01*
X72300D02*
X140300D01*
X187871Y430946D02*
X186289Y432529D01*
X183123D01*
X181540Y430946D01*
Y429364D01*
X183123Y427781D01*
X186289D01*
X187871Y426198D01*
Y424615D01*
X186289Y423032D01*
X183123D01*
X181540Y424615D01*
X192620Y429364D02*
X195785D01*
X197368Y427781D01*
Y423032D01*
X192620D01*
X191037Y424615D01*
X192620Y426198D01*
X197368D01*
X202117Y423032D02*
Y430946D01*
Y427781D01*
X200534D01*
X203699D01*
X202117D01*
Y430946D01*
X203699Y432529D01*
X213196Y423032D02*
X210031D01*
X208448Y424615D01*
Y427781D01*
X210031Y429364D01*
X213196D01*
X214779Y427781D01*
Y426198D01*
X208448D01*
X181540Y415037D02*
Y405540D01*
X186289D01*
X187871Y407123D01*
Y408706D01*
X186289Y410289D01*
X181540D01*
X186289D01*
X187871Y411871D01*
Y413454D01*
X186289Y415037D01*
X181540D01*
X192620Y405540D02*
X195785D01*
X197368Y407123D01*
Y410289D01*
X195785Y411871D01*
X192620D01*
X191037Y410289D01*
Y407123D01*
X192620Y405540D01*
X202117D02*
X205282D01*
X206865Y407123D01*
Y410289D01*
X205282Y411871D01*
X202117D01*
X200534Y410289D01*
Y407123D01*
X202117Y405540D01*
X211614Y413454D02*
Y411871D01*
X210031D01*
X213196D01*
X211614D01*
Y407123D01*
X213196Y405540D01*
X108540Y432529D02*
Y423032D01*
X113288D01*
X114871Y424615D01*
Y426198D01*
X113288Y427781D01*
X108540D01*
X113288D01*
X114871Y429364D01*
Y430946D01*
X113288Y432529D01*
X108540D01*
X119620Y423032D02*
X122785D01*
X124368Y424615D01*
Y427781D01*
X122785Y429364D01*
X119620D01*
X118037Y427781D01*
Y424615D01*
X119620Y423032D01*
X129117D02*
X132282D01*
X133865Y424615D01*
Y427781D01*
X132282Y429364D01*
X129117D01*
X127534Y427781D01*
Y424615D01*
X129117Y423032D01*
X138614Y430946D02*
Y429364D01*
X137031D01*
X140196D01*
X138614D01*
Y424615D01*
X140196Y423032D01*
X108540Y415037D02*
Y405540D01*
X114871D01*
X119620D02*
X122785D01*
X124368Y407123D01*
Y410289D01*
X122785Y411871D01*
X119620D01*
X118037Y410289D01*
Y407123D01*
X119620Y405540D01*
X129117Y411871D02*
X132282D01*
X133865Y410289D01*
Y405540D01*
X129117D01*
X127534Y407123D01*
X129117Y408706D01*
X133865D01*
X143362Y415037D02*
Y405540D01*
X138614D01*
X137031Y407123D01*
Y410289D01*
X138614Y411871D01*
X143362D01*
X151276Y405540D02*
X148111D01*
X146528Y407123D01*
Y410289D01*
X148111Y411871D01*
X151276D01*
X152859Y410289D01*
Y408706D01*
X146528D01*
X156025Y411871D02*
Y405540D01*
Y408706D01*
X157607Y410289D01*
X159190Y411871D01*
X160773D01*
X246000Y423000D02*
Y432497D01*
X250749D01*
X252331Y430914D01*
Y427748D01*
X250749Y426166D01*
X246000D01*
X249166D02*
X252331Y423000D01*
X260245D02*
X257080D01*
X255497Y424583D01*
Y427748D01*
X257080Y429331D01*
X260245D01*
X261828Y427748D01*
Y426166D01*
X255497D01*
X264994Y423000D02*
X269742D01*
X271325Y424583D01*
X269742Y426166D01*
X266577D01*
X264994Y427748D01*
X266577Y429331D01*
X271325D01*
X279239Y423000D02*
X276074D01*
X274491Y424583D01*
Y427748D01*
X276074Y429331D01*
X279239D01*
X280822Y427748D01*
Y426166D01*
X274491D01*
X285571Y430914D02*
Y429331D01*
X283988D01*
X287153D01*
X285571D01*
Y424583D01*
X287153Y423000D01*
X449000Y91000D02*
Y100997D01*
X453998D01*
X455664Y99331D01*
Y95998D01*
X453998Y94332D01*
X449000D01*
X458997Y91000D02*
X462329D01*
X460663D01*
Y100997D01*
X458997Y99331D01*
X467327Y100997D02*
X473992D01*
Y99331D01*
X467327Y92666D01*
Y91000D01*
X417000D02*
Y100997D01*
X421998D01*
X423665Y99331D01*
Y95998D01*
X421998Y94332D01*
X417000D01*
X426997Y91000D02*
X430329D01*
X428663D01*
Y100997D01*
X426997Y99331D01*
X441992Y100997D02*
X438660Y99331D01*
X435327Y95998D01*
Y92666D01*
X436994Y91000D01*
X440326D01*
X441992Y92666D01*
Y94332D01*
X440326Y95998D01*
X435327D01*
X547400Y511000D02*
X537403D01*
Y515998D01*
X539069Y517664D01*
X542402D01*
X544068Y515998D01*
Y511000D01*
X539069Y520997D02*
X537403Y522663D01*
Y525995D01*
X539069Y527661D01*
X540736D01*
X542402Y525995D01*
X544068Y527661D01*
X545734D01*
X547400Y525995D01*
Y522663D01*
X545734Y520997D01*
X544068D01*
X542402Y522663D01*
X540736Y520997D01*
X539069D01*
X542402Y522663D02*
Y525995D01*
X547400Y480000D02*
X537403D01*
Y484998D01*
X539069Y486665D01*
X542402D01*
X544068Y484998D01*
Y480000D01*
X537403Y489997D02*
Y496661D01*
X539069D01*
X545734Y489997D01*
X547400D01*
X9000Y442000D02*
Y451997D01*
X13998D01*
X15664Y450331D01*
Y446998D01*
X13998Y445332D01*
X9000D01*
X18997Y443666D02*
X20663Y442000D01*
X23995D01*
X25661Y443666D01*
Y450331D01*
X23995Y451997D01*
X20663D01*
X18997Y450331D01*
Y448665D01*
X20663Y446998D01*
X25661D01*
X41665Y894757D02*
X38332D01*
X39998D01*
Y886426D01*
X38332Y884760D01*
X36666D01*
X35000Y886426D01*
X44997Y894757D02*
X51661D01*
Y893091D01*
X44997Y886426D01*
Y884760D01*
X551270Y204997D02*
Y196666D01*
X552936Y195000D01*
X556268D01*
X557934Y196666D01*
Y204997D01*
X561267Y195000D02*
X564599D01*
X562933D01*
Y204997D01*
X561267Y203331D01*
X569597D02*
X571264Y204997D01*
X574596D01*
X576262Y203331D01*
Y196666D01*
X574596Y195000D01*
X571264D01*
X569597Y196666D01*
Y203331D01*
X393998Y325997D02*
X390666D01*
X389000Y324331D01*
Y317666D01*
X390666Y316000D01*
X393998D01*
X395664Y317666D01*
Y324331D01*
X393998Y325997D01*
X398997D02*
Y316000D01*
X405661D01*
X415658Y325997D02*
X408994D01*
Y316000D01*
X415658D01*
X408994Y320998D02*
X412326D01*
X418990Y325997D02*
Y316000D01*
X423989D01*
X425655Y317666D01*
Y324331D01*
X423989Y325997D01*
X418990D01*
X445648Y324331D02*
X443982Y325997D01*
X440650D01*
X438984Y324331D01*
Y322664D01*
X440650Y320998D01*
X443982D01*
X445648Y319332D01*
Y317666D01*
X443982Y316000D01*
X440650D01*
X438984Y317666D01*
X455645Y324331D02*
X453979Y325997D01*
X450647D01*
X448981Y324331D01*
Y317666D01*
X450647Y316000D01*
X453979D01*
X455645Y317666D01*
X458978Y316000D02*
Y325997D01*
X463976D01*
X465642Y324331D01*
Y320998D01*
X463976Y319332D01*
X458978D01*
X462310D02*
X465642Y316000D01*
X475639Y325997D02*
X468974D01*
Y316000D01*
X475639D01*
X468974Y320998D02*
X472307D01*
X485635Y325997D02*
X478971D01*
Y316000D01*
X485635D01*
X478971Y320998D02*
X482303D01*
X488968Y316000D02*
Y325997D01*
X495632Y316000D01*
Y325997D01*
X303000Y851997D02*
Y843666D01*
X304666Y842000D01*
X307998D01*
X309664Y843666D01*
Y851997D01*
X312997D02*
X319661D01*
Y850331D01*
X312997Y843666D01*
Y842000D01*
X280000Y505997D02*
Y497666D01*
X281666Y496000D01*
X284998D01*
X286665Y497666D01*
Y505997D01*
X296661D02*
X293329Y504331D01*
X289997Y500998D01*
Y497666D01*
X291663Y496000D01*
X294995D01*
X296661Y497666D01*
Y499332D01*
X294995Y500998D01*
X289997D01*
X651000Y91000D02*
Y100997D01*
X655998D01*
X657664Y99331D01*
Y95998D01*
X655998Y94332D01*
X651000D01*
X660997Y91000D02*
X664329D01*
X662663D01*
Y100997D01*
X660997Y99331D01*
X145110Y24818D02*
Y34814D01*
X150108D01*
X151775Y33148D01*
Y29816D01*
X150108Y28150D01*
X145110D01*
X161771Y24818D02*
X155107D01*
X161771Y31482D01*
Y33148D01*
X160105Y34814D01*
X156773D01*
X155107Y33148D01*
X720100Y420700D02*
Y430697D01*
X725098D01*
X726765Y429031D01*
Y425698D01*
X725098Y424032D01*
X720100D01*
X730097Y429031D02*
X731763Y430697D01*
X735095D01*
X736761Y429031D01*
Y427365D01*
X735095Y425698D01*
X733429D01*
X735095D01*
X736761Y424032D01*
Y422366D01*
X735095Y420700D01*
X731763D01*
X730097Y422366D01*
X16000Y417000D02*
Y426997D01*
X20998D01*
X22664Y425331D01*
Y421998D01*
X20998Y420332D01*
X16000D01*
X32661Y426997D02*
X25997D01*
Y421998D01*
X29329Y423665D01*
X30995D01*
X32661Y421998D01*
Y418666D01*
X30995Y417000D01*
X27663D01*
X25997Y418666D01*
X135595Y385367D02*
X133928Y387033D01*
X130596D01*
X128930Y385367D01*
Y383700D01*
X130596Y382034D01*
X133928D01*
X135595Y380368D01*
Y378702D01*
X133928Y377036D01*
X130596D01*
X128930Y378702D01*
X138927Y377036D02*
X142259D01*
X140593D01*
Y387033D01*
X138927Y385367D01*
X200364Y385521D02*
X198698Y387187D01*
X195366D01*
X193700Y385521D01*
Y383854D01*
X195366Y382188D01*
X198698D01*
X200364Y380522D01*
Y378856D01*
X198698Y377190D01*
X195366D01*
X193700Y378856D01*
X210361Y377190D02*
X203697D01*
X210361Y383854D01*
Y385521D01*
X208695Y387187D01*
X205363D01*
X203697Y385521D01*
X267675D02*
X266008Y387187D01*
X262676D01*
X261010Y385521D01*
Y383854D01*
X262676Y382188D01*
X266008D01*
X267675Y380522D01*
Y378856D01*
X266008Y377190D01*
X262676D01*
X261010Y378856D01*
X271007Y385521D02*
X272673Y387187D01*
X276005D01*
X277671Y385521D01*
Y383854D01*
X276005Y382188D01*
X274339D01*
X276005D01*
X277671Y380522D01*
Y378856D01*
X276005Y377190D01*
X272673D01*
X271007Y378856D01*
X199530Y172197D02*
Y163866D01*
X201196Y162200D01*
X204528D01*
X206194Y163866D01*
Y172197D01*
X216191Y162200D02*
X209527D01*
X216191Y168864D01*
Y170531D01*
X214525Y172197D01*
X211193D01*
X209527Y170531D01*
X572000Y149997D02*
Y141666D01*
X573666Y140000D01*
X576998D01*
X578665Y141666D01*
Y149997D01*
X586995Y140000D02*
Y149997D01*
X581997Y144998D01*
X588661D01*
X507000Y12000D02*
Y21997D01*
X511998D01*
X513665Y20331D01*
Y16998D01*
X511998Y15332D01*
X507000D01*
X523661Y21997D02*
X520329Y20331D01*
X516997Y16998D01*
Y13666D01*
X518663Y12000D01*
X521995D01*
X523661Y13666D01*
Y15332D01*
X521995Y16998D01*
X516997D01*
X642000Y252997D02*
Y244666D01*
X643666Y243000D01*
X646998D01*
X648664Y244666D01*
Y252997D01*
X651997Y243000D02*
X655329D01*
X653663D01*
Y252997D01*
X651997Y251331D01*
X481230Y26997D02*
Y18666D01*
X482896Y17000D01*
X486228D01*
X487894Y18666D01*
Y26997D01*
X491227Y25331D02*
X492893Y26997D01*
X496225D01*
X497891Y25331D01*
Y23665D01*
X496225Y21998D01*
X494559D01*
X496225D01*
X497891Y20332D01*
Y18666D01*
X496225Y17000D01*
X492893D01*
X491227Y18666D01*
X334000Y106641D02*
X340664Y96644D01*
Y106641D02*
X334000Y96644D01*
X343997D02*
X347329D01*
X345663D01*
Y106641D01*
X343997Y104975D01*
X89000Y99997D02*
Y91666D01*
X90666Y90000D01*
X93998D01*
X95665Y91666D01*
Y99997D01*
X105661D02*
X98997D01*
Y94998D01*
X102329Y96664D01*
X103995D01*
X105661Y94998D01*
Y91666D01*
X103995Y90000D01*
X100663D01*
X98997Y91666D01*
X461200Y214497D02*
Y206166D01*
X462866Y204500D01*
X466198D01*
X467864Y206166D01*
Y214497D01*
X471197Y206166D02*
X472863Y204500D01*
X476195D01*
X477861Y206166D01*
Y212831D01*
X476195Y214497D01*
X472863D01*
X471197Y212831D01*
Y211164D01*
X472863Y209498D01*
X477861D01*
X598000Y634997D02*
Y626666D01*
X599666Y625000D01*
X602998D01*
X604664Y626666D01*
Y634997D01*
X607997Y633331D02*
X609663Y634997D01*
X612995D01*
X614661Y633331D01*
Y631665D01*
X612995Y629998D01*
X614661Y628332D01*
Y626666D01*
X612995Y625000D01*
X609663D01*
X607997Y626666D01*
Y628332D01*
X609663Y629998D01*
X607997Y631665D01*
Y633331D01*
X609663Y629998D02*
X612995D01*
X563500Y480000D02*
X553503D01*
Y484998D01*
X555169Y486665D01*
X558502D01*
X560168Y484998D01*
Y480000D01*
X563500Y489997D02*
Y493329D01*
Y491663D01*
X553503D01*
X555169Y489997D01*
Y498327D02*
X553503Y499994D01*
Y503326D01*
X555169Y504992D01*
X561834D01*
X563500Y503326D01*
Y499994D01*
X561834Y498327D01*
X555169D01*
X563500Y511000D02*
X553503D01*
Y515998D01*
X555169Y517664D01*
X558502D01*
X560168Y515998D01*
Y511000D01*
X563500Y520997D02*
Y524329D01*
Y522663D01*
X553503D01*
X555169Y520997D01*
X563500Y529327D02*
Y532660D01*
Y530993D01*
X553503D01*
X555169Y529327D01*
X579500Y480000D02*
X569503D01*
Y484998D01*
X571169Y486665D01*
X574502D01*
X576168Y484998D01*
Y480000D01*
X579500Y489997D02*
Y493329D01*
Y491663D01*
X569503D01*
X571169Y489997D01*
X579500Y504992D02*
Y498327D01*
X572836Y504992D01*
X571169D01*
X569503Y503326D01*
Y499994D01*
X571169Y498327D01*
X579500Y511000D02*
X569503D01*
Y515998D01*
X571169Y517664D01*
X574502D01*
X576168Y515998D01*
Y511000D01*
X579500Y520997D02*
Y524329D01*
Y522663D01*
X569503D01*
X571169Y520997D01*
Y529327D02*
X569503Y530993D01*
Y534326D01*
X571169Y535992D01*
X572836D01*
X574502Y534326D01*
Y532660D01*
Y534326D01*
X576168Y535992D01*
X577834D01*
X579500Y534326D01*
Y530993D01*
X577834Y529327D01*
D15*
X336900Y186690D02*
G03*
X344520Y186690I3810J0D01*
G01*
X344302Y134620D02*
G03*
X344302Y134620I-3592J0D01*
G01*
X147000Y461000D02*
Y551000D01*
X0Y461000D02*
Y551000D01*
X123000Y461000D02*
X147000D01*
X63000D02*
X97000D01*
X0D02*
X37000D01*
X0Y551000D02*
X37000D01*
X63000D02*
X97000D01*
X123000D02*
X147000D01*
X598200Y895400D02*
X613200D01*
X583200D02*
X598200D01*
Y875400D02*
X613200D01*
X583200D02*
X598200D01*
X603300Y808000D02*
X635300D01*
X603300Y836000D02*
X635300D01*
X603300Y808000D02*
Y808500D01*
Y820730D02*
Y823270D01*
Y835500D02*
Y836000D01*
X635300Y835500D02*
Y836000D01*
Y820730D02*
Y823270D01*
Y808000D02*
Y808500D01*
X457200Y224500D02*
Y245500D01*
X479200Y224500D02*
Y245500D01*
X559000Y315900D02*
X617340D01*
X559000Y402700D02*
X617340D01*
X320000Y426700D02*
X620000D01*
X320000Y311700D02*
Y426700D01*
Y311700D02*
X620000D01*
Y395320D02*
Y426700D01*
X620000Y332970D02*
Y385040D01*
X620000Y311700D02*
Y322810D01*
X728000Y765500D02*
X744000D01*
X236070Y3278D02*
X251070D01*
X266070D01*
X236070Y23278D02*
X251070D01*
X266070D01*
X685960Y495710D02*
X686460D01*
X698690D02*
X701230D01*
X713460D02*
X713960D01*
X713460Y527710D02*
X713960D01*
X698690D02*
X701230D01*
X685960D02*
X686460D01*
X713960Y495710D02*
Y527710D01*
X685960Y495710D02*
Y527710D01*
X105280Y310920D02*
X165280D01*
Y370920D01*
X105280D02*
X165280D01*
X105280Y310920D02*
Y370920D01*
X171320Y370916D02*
X231320D01*
X171320Y310916D02*
Y370916D01*
Y310916D02*
X231320D01*
Y370916D01*
X237360Y370920D02*
X297360D01*
X237360Y310920D02*
Y370920D01*
Y310920D02*
X297360D01*
Y370920D01*
X118900Y61050D02*
Y90550D01*
Y61050D02*
X165150D01*
X197150D02*
X295400D01*
Y90550D01*
Y252550D02*
Y276050D01*
X118900Y252550D02*
Y276050D01*
X295400D01*
X656420Y237430D02*
X658960Y234890D01*
X638640Y237430D02*
X656420D01*
X638640Y234890D02*
Y237430D01*
X658960Y214570D02*
Y234890D01*
X638640Y214570D02*
X658960D01*
X638640D02*
Y234890D01*
X481490Y37800D02*
X486570D01*
X514510Y65740D02*
Y70820D01*
X481490Y37800D02*
Y42880D01*
X509430Y70820D02*
X514510D01*
Y37800D02*
Y42880D01*
X481490Y70820D02*
X486570D01*
X509430Y37800D02*
X514510D01*
X481490Y65740D02*
Y70820D01*
X336900Y191130D02*
X344520D01*
X359710D01*
X321710D02*
X336900D01*
X344520Y186690D02*
Y191130D01*
X336900Y186690D02*
Y191130D01*
X321660Y132080D02*
Y170180D01*
X359760Y132080D02*
Y170180D01*
X359710Y111130D02*
Y114300D01*
X321710Y111130D02*
Y114300D01*
X321660Y187960D02*
X321710D01*
Y191130D01*
X359710Y187960D02*
Y191130D01*
X321710Y111130D02*
X359710D01*
X80360Y36098D02*
X110360D01*
Y35068D02*
Y36098D01*
X80360Y35068D02*
Y36098D01*
Y24908D02*
Y27208D01*
X110360Y24908D02*
Y27208D01*
Y14988D02*
Y17288D01*
X80360Y14988D02*
Y17288D01*
Y6098D02*
Y7128D01*
X110360Y6098D02*
Y7128D01*
X80360Y6098D02*
X110360D01*
D16*
X592800Y865000D02*
Y869665D01*
X595133Y871998D01*
X597465Y869665D01*
Y865000D01*
Y868499D01*
X592800D01*
X604463Y865000D02*
X599798D01*
X604463Y869665D01*
Y870832D01*
X603297Y871998D01*
X600964D01*
X599798Y870832D01*
X241665Y819131D02*
X240499Y820298D01*
X238166D01*
X237000Y819131D01*
Y814466D01*
X238166Y813300D01*
X240499D01*
X241665Y814466D01*
X248663Y813300D02*
X243998D01*
X248663Y817965D01*
Y819131D01*
X247497Y820298D01*
X245164D01*
X243998Y819131D01*
X255661Y813300D02*
X250996D01*
X255661Y817965D01*
Y819131D01*
X254494Y820298D01*
X252162D01*
X250996Y819131D01*
X613000Y846998D02*
Y840000D01*
X616499D01*
X617665Y841166D01*
Y845832D01*
X616499Y846998D01*
X613000D01*
X624663Y840000D02*
X619998D01*
X624663Y844665D01*
Y845832D01*
X623497Y846998D01*
X621164D01*
X619998Y845832D01*
X160000Y445998D02*
Y439000D01*
X163499D01*
X164665Y440166D01*
Y444832D01*
X163499Y445998D01*
X160000D01*
X166998Y444832D02*
X168164Y445998D01*
X170497D01*
X171663Y444832D01*
Y443665D01*
X170497Y442499D01*
X169330D01*
X170497D01*
X171663Y441333D01*
Y440166D01*
X170497Y439000D01*
X168164D01*
X166998Y440166D01*
X157665Y581832D02*
X156499Y582998D01*
X154166D01*
X153000Y581832D01*
Y577166D01*
X154166Y576000D01*
X156499D01*
X157665Y577166D01*
X164663Y582998D02*
X159998D01*
Y579499D01*
X162330Y580665D01*
X163497D01*
X164663Y579499D01*
Y577166D01*
X163497Y576000D01*
X161164D01*
X159998Y577166D01*
X170494Y576000D02*
Y582998D01*
X166996Y579499D01*
X171661D01*
X605168Y222465D02*
X604002Y221299D01*
Y218966D01*
X605168Y217800D01*
X609834D01*
X611000Y218966D01*
Y221299D01*
X609834Y222465D01*
X604002Y229463D02*
Y224798D01*
X607501D01*
X606335Y227130D01*
Y228297D01*
X607501Y229463D01*
X609834D01*
X611000Y228297D01*
Y225964D01*
X609834Y224798D01*
X605168Y231796D02*
X604002Y232962D01*
Y235294D01*
X605168Y236461D01*
X606335D01*
X607501Y235294D01*
Y234128D01*
Y235294D01*
X608667Y236461D01*
X609834D01*
X611000Y235294D01*
Y232962D01*
X609834Y231796D01*
X591500Y444000D02*
Y450998D01*
X594999D01*
X596165Y449832D01*
Y447499D01*
X594999Y446333D01*
X591500D01*
X593833D02*
X596165Y444000D01*
X601997D02*
Y450998D01*
X598498Y447499D01*
X603163D01*
X605495Y449832D02*
X606662Y450998D01*
X608994D01*
X610161Y449832D01*
Y448665D01*
X608994Y447499D01*
X607828D01*
X608994D01*
X610161Y446333D01*
Y445166D01*
X608994Y444000D01*
X606662D01*
X605495Y445166D01*
X528000Y217429D02*
X521002D01*
Y220928D01*
X522169Y222094D01*
X524501D01*
X525667Y220928D01*
Y217429D01*
Y219762D02*
X528000Y222094D01*
Y227926D02*
X521002D01*
X524501Y224427D01*
Y229092D01*
X528000Y231424D02*
Y233757D01*
Y232591D01*
X521002D01*
X522169Y231424D01*
X554000Y257336D02*
Y264334D01*
X557499D01*
X558665Y263167D01*
Y260835D01*
X557499Y259669D01*
X554000D01*
X556333D02*
X558665Y257336D01*
X564497D02*
Y264334D01*
X560998Y260835D01*
X565663D01*
X572661Y257336D02*
X567995D01*
X572661Y262001D01*
Y263167D01*
X571494Y264334D01*
X569162D01*
X567995Y263167D01*
X505000Y201000D02*
X498002D01*
Y204499D01*
X499169Y205665D01*
X501501D01*
X502667Y204499D01*
Y201000D01*
Y203333D02*
X505000Y205665D01*
X499169Y207998D02*
X498002Y209164D01*
Y211497D01*
X499169Y212663D01*
X500335D01*
X501501Y211497D01*
Y210330D01*
Y211497D01*
X502667Y212663D01*
X503834D01*
X505000Y211497D01*
Y209164D01*
X503834Y207998D01*
Y214995D02*
X505000Y216162D01*
Y218494D01*
X503834Y219661D01*
X499169D01*
X498002Y218494D01*
Y216162D01*
X499169Y214995D01*
X500335D01*
X501501Y216162D01*
Y219661D01*
X492000Y201000D02*
X485002D01*
Y204499D01*
X486169Y205665D01*
X488501D01*
X489667Y204499D01*
Y201000D01*
Y203333D02*
X492000Y205665D01*
Y211497D02*
X485002D01*
X488501Y207998D01*
Y212663D01*
X486169Y214995D02*
X485002Y216162D01*
Y218494D01*
X486169Y219661D01*
X490834D01*
X492000Y218494D01*
Y216162D01*
X490834Y214995D01*
X486169D01*
X190000Y586000D02*
Y592998D01*
X193499D01*
X194665Y591832D01*
Y589499D01*
X193499Y588333D01*
X190000D01*
X192333D02*
X194665Y586000D01*
X196998Y587166D02*
X198164Y586000D01*
X200497D01*
X201663Y587166D01*
Y591832D01*
X200497Y592998D01*
X198164D01*
X196998Y591832D01*
Y590665D01*
X198164Y589499D01*
X201663D01*
X519665Y292831D02*
X518499Y293998D01*
X516166D01*
X515000Y292831D01*
Y288166D01*
X516166Y287000D01*
X518499D01*
X519665Y288166D01*
X525497Y287000D02*
Y293998D01*
X521998Y290499D01*
X526663D01*
X528996Y288166D02*
X530162Y287000D01*
X532494D01*
X533661Y288166D01*
Y292831D01*
X532494Y293998D01*
X530162D01*
X528996Y292831D01*
Y291665D01*
X530162Y290499D01*
X533661D01*
X565865Y449832D02*
X564699Y450998D01*
X562366D01*
X561200Y449832D01*
Y445166D01*
X562366Y444000D01*
X564699D01*
X565865Y445166D01*
X572863Y450998D02*
X568198D01*
Y447499D01*
X570530Y448665D01*
X571697D01*
X572863Y447499D01*
Y445166D01*
X571697Y444000D01*
X569364D01*
X568198Y445166D01*
X575196Y444000D02*
X577528D01*
X576362D01*
Y450998D01*
X575196Y449832D01*
X506925Y435831D02*
X505759Y436998D01*
X503426D01*
X502260Y435831D01*
Y431166D01*
X503426Y430000D01*
X505759D01*
X506925Y431166D01*
X512757Y430000D02*
Y436998D01*
X509258Y433499D01*
X513923D01*
X516255Y435831D02*
X517422Y436998D01*
X519754D01*
X520921Y435831D01*
Y434665D01*
X519754Y433499D01*
X520921Y432333D01*
Y431166D01*
X519754Y430000D01*
X517422D01*
X516255Y431166D01*
Y432333D01*
X517422Y433499D01*
X516255Y434665D01*
Y435831D01*
X517422Y433499D02*
X519754D01*
X586665Y292831D02*
X585499Y293998D01*
X583166D01*
X582000Y292831D01*
Y288166D01*
X583166Y287000D01*
X585499D01*
X586665Y288166D01*
X593663Y293998D02*
X588998D01*
Y290499D01*
X591330Y291665D01*
X592497D01*
X593663Y290499D01*
Y288166D01*
X592497Y287000D01*
X590164D01*
X588998Y288166D01*
X600661Y287000D02*
X595995D01*
X600661Y291665D01*
Y292831D01*
X599494Y293998D01*
X597162D01*
X595995Y292831D01*
X550665D02*
X549499Y293998D01*
X547166D01*
X546000Y292831D01*
Y288166D01*
X547166Y287000D01*
X549499D01*
X550665Y288166D01*
X557663Y293998D02*
X552998D01*
Y290499D01*
X555330Y291665D01*
X556497D01*
X557663Y290499D01*
Y288166D01*
X556497Y287000D01*
X554164D01*
X552998Y288166D01*
X559995Y292831D02*
X561162Y293998D01*
X563494D01*
X564661Y292831D01*
Y288166D01*
X563494Y287000D01*
X561162D01*
X559995Y288166D01*
Y292831D01*
X734168Y830665D02*
X733002Y829499D01*
Y827166D01*
X734168Y826000D01*
X738834D01*
X740000Y827166D01*
Y829499D01*
X738834Y830665D01*
X740000Y836497D02*
X733002D01*
X736501Y832998D01*
Y837663D01*
X733002Y844661D02*
X734168Y842328D01*
X736501Y839995D01*
X738834D01*
X740000Y841162D01*
Y843494D01*
X738834Y844661D01*
X737667D01*
X736501Y843494D01*
Y839995D01*
X724000Y769300D02*
X719335D01*
X717002Y771633D01*
X719335Y773965D01*
X724000D01*
X720501D01*
Y769300D01*
X718168Y776298D02*
X717002Y777464D01*
Y779797D01*
X718168Y780963D01*
X719335D01*
X720501Y779797D01*
Y778630D01*
Y779797D01*
X721667Y780963D01*
X722834D01*
X724000Y779797D01*
Y777464D01*
X722834Y776298D01*
X647465Y197980D02*
X646299Y199146D01*
X643966D01*
X642800Y197980D01*
Y193315D01*
X643966Y192149D01*
X646299D01*
X647465Y193315D01*
X649798Y192149D02*
X652130D01*
X650964D01*
Y199146D01*
X649798Y197980D01*
X627769Y206365D02*
X626602Y205199D01*
Y202866D01*
X627769Y201700D01*
X632434D01*
X633600Y202866D01*
Y205199D01*
X632434Y206365D01*
X633600Y213363D02*
Y208698D01*
X628935Y213363D01*
X627769D01*
X626602Y212197D01*
Y209864D01*
X627769Y208698D01*
X719665Y484832D02*
X718499Y485998D01*
X716166D01*
X715000Y484832D01*
Y480166D01*
X716166Y479000D01*
X718499D01*
X719665Y480166D01*
X721998Y484832D02*
X723164Y485998D01*
X725497D01*
X726663Y484832D01*
Y483665D01*
X725497Y482499D01*
X724330D01*
X725497D01*
X726663Y481333D01*
Y480166D01*
X725497Y479000D01*
X723164D01*
X721998Y480166D01*
X216783Y21341D02*
X215617Y20174D01*
Y17842D01*
X216783Y16675D01*
X221448D01*
X222614Y17842D01*
Y20174D01*
X221448Y21341D01*
X222614Y27172D02*
X215617D01*
X219116Y23673D01*
Y28338D01*
X303438Y367885D02*
X302272Y366719D01*
Y364386D01*
X303438Y363220D01*
X308104D01*
X309270Y364386D01*
Y366719D01*
X308104Y367885D01*
X302272Y374883D02*
Y370218D01*
X305771D01*
X304605Y372550D01*
Y373717D01*
X305771Y374883D01*
X308104D01*
X309270Y373717D01*
Y371384D01*
X308104Y370218D01*
X208745Y51480D02*
X207579Y52646D01*
X205246D01*
X204080Y51480D01*
Y46815D01*
X205246Y45648D01*
X207579D01*
X208745Y46815D01*
X215743Y52646D02*
X213410Y51480D01*
X211078Y49147D01*
Y46815D01*
X212244Y45648D01*
X214577D01*
X215743Y46815D01*
Y47981D01*
X214577Y49147D01*
X211078D01*
X306429Y252175D02*
X305262Y251009D01*
Y248676D01*
X306429Y247510D01*
X311094D01*
X312260Y248676D01*
Y251009D01*
X311094Y252175D01*
X306429Y254508D02*
X305262Y255674D01*
Y258007D01*
X306429Y259173D01*
X307595D01*
X308761Y258007D01*
X309927Y259173D01*
X311094D01*
X312260Y258007D01*
Y255674D01*
X311094Y254508D01*
X309927D01*
X308761Y255674D01*
X307595Y254508D01*
X306429D01*
X308761Y255674D02*
Y258007D01*
X350805Y212841D02*
X349639Y214008D01*
X347306D01*
X346140Y212841D01*
Y208176D01*
X347306Y207010D01*
X349639D01*
X350805Y208176D01*
X353138D02*
X354304Y207010D01*
X356637D01*
X357803Y208176D01*
Y212841D01*
X356637Y214008D01*
X354304D01*
X353138Y212841D01*
Y211675D01*
X354304Y210509D01*
X357803D01*
X364335Y79601D02*
X363169Y80768D01*
X360836D01*
X359670Y79601D01*
Y74936D01*
X360836Y73770D01*
X363169D01*
X364335Y74936D01*
X366668Y73770D02*
X369000D01*
X367834D01*
Y80768D01*
X366668Y79601D01*
X372499Y73770D02*
X374832D01*
X373666D01*
Y80768D01*
X372499Y79601D01*
X536169Y136665D02*
X535002Y135499D01*
Y133166D01*
X536169Y132000D01*
X540834D01*
X542000Y133166D01*
Y135499D01*
X540834Y136665D01*
X542000Y138998D02*
Y141330D01*
Y140164D01*
X535002D01*
X536169Y138998D01*
X542000Y149494D02*
Y144829D01*
X537335Y149494D01*
X536169D01*
X535002Y148328D01*
Y145996D01*
X536169Y144829D01*
X502642Y165832D02*
X501476Y166998D01*
X499143D01*
X497977Y165832D01*
Y161166D01*
X499143Y160000D01*
X501476D01*
X502642Y161166D01*
X504975Y160000D02*
X507307D01*
X506141D01*
Y166998D01*
X504975Y165832D01*
X510806D02*
X511972Y166998D01*
X514305D01*
X515471Y165832D01*
Y164665D01*
X514305Y163499D01*
X513139D01*
X514305D01*
X515471Y162333D01*
Y161166D01*
X514305Y160000D01*
X511972D01*
X510806Y161166D01*
X502642Y154831D02*
X501476Y155998D01*
X499143D01*
X497977Y154831D01*
Y150166D01*
X499143Y149000D01*
X501476D01*
X502642Y150166D01*
X504975Y149000D02*
X507307D01*
X506141D01*
Y155998D01*
X504975Y154831D01*
X514305Y149000D02*
Y155998D01*
X510806Y152499D01*
X515471D01*
X502642Y132831D02*
X501476Y133998D01*
X499143D01*
X497977Y132831D01*
Y128166D01*
X499143Y127000D01*
X501476D01*
X502642Y128166D01*
X504975Y127000D02*
X507307D01*
X506141D01*
Y133998D01*
X504975Y132831D01*
X515471Y133998D02*
X510806D01*
Y130499D01*
X513139Y131665D01*
X514305D01*
X515471Y130499D01*
Y128166D01*
X514305Y127000D01*
X511972D01*
X510806Y128166D01*
X502665Y143451D02*
X501499Y144618D01*
X499166D01*
X498000Y143451D01*
Y138786D01*
X499166Y137620D01*
X501499D01*
X502665Y138786D01*
X504998Y137620D02*
X507330D01*
X506164D01*
Y144618D01*
X504998Y143451D01*
X515494Y144618D02*
X513162Y143451D01*
X510829Y141119D01*
Y138786D01*
X511996Y137620D01*
X514328D01*
X515494Y138786D01*
Y139953D01*
X514328Y141119D01*
X510829D01*
X718000Y515998D02*
Y509000D01*
X721499D01*
X722665Y510166D01*
Y514832D01*
X721499Y515998D01*
X718000D01*
X724998Y509000D02*
X727330D01*
X726164D01*
Y515998D01*
X724998Y514832D01*
X600002Y138665D02*
Y134000D01*
X603501D01*
Y136333D01*
Y134000D01*
X607000D01*
X600002Y140998D02*
X607000D01*
Y144497D01*
X605834Y145663D01*
X604667D01*
X603501Y144497D01*
Y140998D01*
Y144497D01*
X602335Y145663D01*
X601169D01*
X600002Y144497D01*
Y140998D01*
X607000Y147996D02*
Y150328D01*
Y149162D01*
X600002D01*
X601169Y147996D01*
X523002Y136665D02*
Y132000D01*
X526501D01*
Y134333D01*
Y132000D01*
X530000D01*
X523002Y138998D02*
X530000D01*
Y142497D01*
X528834Y143663D01*
X527667D01*
X526501Y142497D01*
Y138998D01*
Y142497D01*
X525335Y143663D01*
X524169D01*
X523002Y142497D01*
Y138998D01*
X530000Y150661D02*
Y145996D01*
X525335Y150661D01*
X524169D01*
X523002Y149494D01*
Y147162D01*
X524169Y145996D01*
X129280Y293370D02*
Y300368D01*
X132779D01*
X133945Y299202D01*
Y296869D01*
X132779Y295703D01*
X129280D01*
X131613D02*
X133945Y293370D01*
X136278D02*
X138610D01*
X137444D01*
Y300368D01*
X136278Y299202D01*
X639500Y494000D02*
Y500998D01*
X642999D01*
X644165Y499832D01*
Y497499D01*
X642999Y496333D01*
X639500D01*
X641833D02*
X644165Y494000D01*
X651163D02*
X646498D01*
X651163Y498665D01*
Y499832D01*
X649997Y500998D01*
X647664D01*
X646498Y499832D01*
X639500Y482000D02*
Y488998D01*
X642999D01*
X644165Y487831D01*
Y485499D01*
X642999Y484333D01*
X639500D01*
X641833D02*
X644165Y482000D01*
X646498Y487831D02*
X647664Y488998D01*
X649997D01*
X651163Y487831D01*
Y486665D01*
X649997Y485499D01*
X648830D01*
X649997D01*
X651163Y484333D01*
Y483166D01*
X649997Y482000D01*
X647664D01*
X646498Y483166D01*
X639600Y507000D02*
Y513998D01*
X643099D01*
X644265Y512831D01*
Y510499D01*
X643099Y509333D01*
X639600D01*
X641933D02*
X644265Y507000D01*
X650097D02*
Y513998D01*
X646598Y510499D01*
X651263D01*
X195320Y293370D02*
Y300368D01*
X198819D01*
X199985Y299202D01*
Y296869D01*
X198819Y295703D01*
X195320D01*
X197653D02*
X199985Y293370D01*
X206983Y300368D02*
X202318D01*
Y296869D01*
X204650Y298035D01*
X205817D01*
X206983Y296869D01*
Y294536D01*
X205817Y293370D01*
X203484D01*
X202318Y294536D01*
X639600Y519401D02*
Y526399D01*
X643099D01*
X644265Y525232D01*
Y522900D01*
X643099Y521733D01*
X639600D01*
X641933D02*
X644265Y519401D01*
X651263Y526399D02*
X648930Y525232D01*
X646598Y522900D01*
Y520567D01*
X647764Y519401D01*
X650097D01*
X651263Y520567D01*
Y521733D01*
X650097Y522900D01*
X646598D01*
X261010Y293370D02*
Y300368D01*
X264509D01*
X265675Y299202D01*
Y296869D01*
X264509Y295703D01*
X261010D01*
X263343D02*
X265675Y293370D01*
X268008Y300368D02*
X272673D01*
Y299202D01*
X268008Y294536D01*
Y293370D01*
X180870Y11245D02*
Y18243D01*
X184369D01*
X185535Y17077D01*
Y14744D01*
X184369Y13578D01*
X180870D01*
X183203D02*
X185535Y11245D01*
X187868Y17077D02*
X189034Y18243D01*
X191367D01*
X192533Y17077D01*
Y15911D01*
X191367Y14744D01*
X192533Y13578D01*
Y12412D01*
X191367Y11245D01*
X189034D01*
X187868Y12412D01*
Y13578D01*
X189034Y14744D01*
X187868Y15911D01*
Y17077D01*
X189034Y14744D02*
X191367D01*
X414111Y185000D02*
Y191997D01*
X417609D01*
X418776Y190831D01*
Y188498D01*
X417609Y187332D01*
X414111D01*
X416443D02*
X418776Y185000D01*
X421108D02*
X423441D01*
X422275D01*
Y191997D01*
X421108Y190831D01*
X426940Y185000D02*
X429272D01*
X428106D01*
Y191997D01*
X426940Y190831D01*
X381000Y146450D02*
Y153448D01*
X384499D01*
X385665Y152282D01*
Y149949D01*
X384499Y148783D01*
X381000D01*
X383333D02*
X385665Y146450D01*
X387998D02*
X390330D01*
X389164D01*
Y153448D01*
X387998Y152282D01*
X398494Y146450D02*
X393829D01*
X398494Y151115D01*
Y152282D01*
X397328Y153448D01*
X394995D01*
X393829Y152282D01*
X477000Y115000D02*
Y121998D01*
X480499D01*
X481665Y120831D01*
Y118499D01*
X480499Y117333D01*
X477000D01*
X479333D02*
X481665Y115000D01*
X483998D02*
X486330D01*
X485164D01*
Y121998D01*
X483998Y120831D01*
X489829D02*
X490995Y121998D01*
X493328D01*
X494494Y120831D01*
Y119665D01*
X493328Y118499D01*
X492162D01*
X493328D01*
X494494Y117333D01*
Y116166D01*
X493328Y115000D01*
X490995D01*
X489829Y116166D01*
X309270Y312420D02*
X302272D01*
Y315919D01*
X303438Y317085D01*
X305771D01*
X306937Y315919D01*
Y312420D01*
Y314753D02*
X309270Y317085D01*
Y319418D02*
Y321750D01*
Y320584D01*
X302272D01*
X303438Y319418D01*
X309270Y328748D02*
X302272D01*
X305771Y325249D01*
Y329914D01*
X477000Y104000D02*
Y110998D01*
X480499D01*
X481665Y109831D01*
Y107499D01*
X480499Y106333D01*
X477000D01*
X479333D02*
X481665Y104000D01*
X483998D02*
X486330D01*
X485164D01*
Y110998D01*
X483998Y109831D01*
X494494Y110998D02*
X489829D01*
Y107499D01*
X492162Y108665D01*
X493328D01*
X494494Y107499D01*
Y105166D01*
X493328Y104000D01*
X490995D01*
X489829Y105166D01*
X551502Y91145D02*
Y86480D01*
X555001D01*
Y88813D01*
Y86480D01*
X558500D01*
Y93478D02*
Y95810D01*
Y94644D01*
X551502D01*
X552668Y93478D01*
X119739Y37907D02*
X118572Y36741D01*
Y34408D01*
X119739Y33242D01*
X124404D01*
X125570Y34408D01*
Y36741D01*
X124404Y37907D01*
X125570Y40240D02*
Y42572D01*
Y41406D01*
X118572D01*
X119739Y40240D01*
X118572Y46071D02*
Y50736D01*
X119739D01*
X124404Y46071D01*
X125570D01*
X106000Y65000D02*
X99002D01*
Y68499D01*
X100169Y69665D01*
X102501D01*
X103667Y68499D01*
Y65000D01*
Y67333D02*
X106000Y69665D01*
Y71998D02*
Y74330D01*
Y73164D01*
X99002D01*
X100169Y71998D01*
X99002Y82494D02*
X100169Y80162D01*
X102501Y77829D01*
X104834D01*
X106000Y78995D01*
Y81328D01*
X104834Y82494D01*
X103667D01*
X102501Y81328D01*
Y77829D01*
X93000Y65000D02*
X86002D01*
Y68499D01*
X87169Y69665D01*
X89501D01*
X90667Y68499D01*
Y65000D01*
Y67333D02*
X93000Y69665D01*
Y71998D02*
Y74330D01*
Y73164D01*
X86002D01*
X87169Y71998D01*
X86002Y77829D02*
Y82494D01*
X87169D01*
X91834Y77829D01*
X93000D01*
X319065Y212332D02*
X317899Y213498D01*
X315566D01*
X314400Y212332D01*
Y207666D01*
X315566Y206500D01*
X317899D01*
X319065Y207666D01*
X321398Y206500D02*
X323730D01*
X322564D01*
Y213498D01*
X321398Y212332D01*
X327229D02*
X328396Y213498D01*
X330728D01*
X331894Y212332D01*
Y207666D01*
X330728Y206500D01*
X328396D01*
X327229Y207666D01*
Y212332D01*
X463914Y271751D02*
X462748Y272918D01*
X460415D01*
X459249Y271751D01*
Y267086D01*
X460415Y265920D01*
X462748D01*
X463914Y267086D01*
X469746Y265920D02*
Y272918D01*
X466247Y269419D01*
X470912D01*
X473245Y272918D02*
X477910D01*
Y271751D01*
X473245Y267086D01*
Y265920D01*
X725665Y704831D02*
X724499Y705998D01*
X722166D01*
X721000Y704831D01*
Y700166D01*
X722166Y699000D01*
X724499D01*
X725665Y700166D01*
X727998Y704831D02*
X729164Y705998D01*
X731497D01*
X732663Y704831D01*
Y703665D01*
X731497Y702499D01*
X730330D01*
X731497D01*
X732663Y701333D01*
Y700166D01*
X731497Y699000D01*
X729164D01*
X727998Y700166D01*
X734995Y704831D02*
X736162Y705998D01*
X738494D01*
X739661Y704831D01*
Y700166D01*
X738494Y699000D01*
X736162D01*
X734995Y700166D01*
Y704831D01*
X654665D02*
X653499Y705998D01*
X651166D01*
X650000Y704831D01*
Y700166D01*
X651166Y699000D01*
X653499D01*
X654665Y700166D01*
X661663Y699000D02*
X656998D01*
X661663Y703665D01*
Y704831D01*
X660497Y705998D01*
X658164D01*
X656998Y704831D01*
X663996Y700166D02*
X665162Y699000D01*
X667494D01*
X668661Y700166D01*
Y704831D01*
X667494Y705998D01*
X665162D01*
X663996Y704831D01*
Y703665D01*
X665162Y702499D01*
X668661D01*
X207169Y606965D02*
X206002Y605799D01*
Y603466D01*
X207169Y602300D01*
X211834D01*
X213000Y603466D01*
Y605799D01*
X211834Y606965D01*
X207169Y609298D02*
X206002Y610464D01*
Y612797D01*
X207169Y613963D01*
X208335D01*
X209501Y612797D01*
Y611630D01*
Y612797D01*
X210667Y613963D01*
X211834D01*
X213000Y612797D01*
Y610464D01*
X211834Y609298D01*
Y616296D02*
X213000Y617462D01*
Y619794D01*
X211834Y620961D01*
X207169D01*
X206002Y619794D01*
Y617462D01*
X207169Y616296D01*
X208335D01*
X209501Y617462D01*
Y620961D01*
X207169Y656965D02*
X206002Y655799D01*
Y653466D01*
X207169Y652300D01*
X211834D01*
X213000Y653466D01*
Y655799D01*
X211834Y656965D01*
X213000Y662797D02*
X206002D01*
X209501Y659298D01*
Y663963D01*
X213000Y669794D02*
X206002D01*
X209501Y666295D01*
Y670961D01*
X207169Y632665D02*
X206002Y631499D01*
Y629166D01*
X207169Y628000D01*
X211834D01*
X213000Y629166D01*
Y631499D01*
X211834Y632665D01*
X213000Y638497D02*
X206002D01*
X209501Y634998D01*
Y639663D01*
X213000Y646661D02*
Y641995D01*
X208335Y646661D01*
X207169D01*
X206002Y645494D01*
Y643162D01*
X207169Y641995D01*
X195168Y606965D02*
X194002Y605799D01*
Y603466D01*
X195168Y602300D01*
X199834D01*
X201000Y603466D01*
Y605799D01*
X199834Y606965D01*
X195168Y609298D02*
X194002Y610464D01*
Y612797D01*
X195168Y613963D01*
X196335D01*
X197501Y612797D01*
Y611630D01*
Y612797D01*
X198667Y613963D01*
X199834D01*
X201000Y612797D01*
Y610464D01*
X199834Y609298D01*
X195168Y616296D02*
X194002Y617462D01*
Y619794D01*
X195168Y620961D01*
X196335D01*
X197501Y619794D01*
X198667Y620961D01*
X199834D01*
X201000Y619794D01*
Y617462D01*
X199834Y616296D01*
X198667D01*
X197501Y617462D01*
X196335Y616296D01*
X195168D01*
X197501Y617462D02*
Y619794D01*
X195168Y656665D02*
X194002Y655499D01*
Y653166D01*
X195168Y652000D01*
X199834D01*
X201000Y653166D01*
Y655499D01*
X199834Y656665D01*
X201000Y662497D02*
X194002D01*
X197501Y658998D01*
Y663663D01*
X195168Y665995D02*
X194002Y667162D01*
Y669494D01*
X195168Y670661D01*
X196335D01*
X197501Y669494D01*
Y668328D01*
Y669494D01*
X198667Y670661D01*
X199834D01*
X201000Y669494D01*
Y667162D01*
X199834Y665995D01*
X195168Y632265D02*
X194002Y631099D01*
Y628766D01*
X195168Y627600D01*
X199834D01*
X201000Y628766D01*
Y631099D01*
X199834Y632265D01*
X201000Y638097D02*
X194002D01*
X197501Y634598D01*
Y639263D01*
X201000Y641596D02*
Y643928D01*
Y642762D01*
X194002D01*
X195168Y641596D01*
X207169Y721665D02*
X206002Y720499D01*
Y718166D01*
X207169Y717000D01*
X211834D01*
X213000Y718166D01*
Y720499D01*
X211834Y721665D01*
X207169Y723998D02*
X206002Y725164D01*
Y727497D01*
X207169Y728663D01*
X208335D01*
X209501Y727497D01*
Y726330D01*
Y727497D01*
X210667Y728663D01*
X211834D01*
X213000Y727497D01*
Y725164D01*
X211834Y723998D01*
X213000Y735661D02*
Y730995D01*
X208335Y735661D01*
X207169D01*
X206002Y734494D01*
Y732162D01*
X207169Y730995D01*
X195169Y770665D02*
X194002Y769499D01*
Y767166D01*
X195169Y766000D01*
X199834D01*
X201000Y767166D01*
Y769499D01*
X199834Y770665D01*
X195169Y772998D02*
X194002Y774164D01*
Y776497D01*
X195169Y777663D01*
X196335D01*
X197501Y776497D01*
Y775330D01*
Y776497D01*
X198667Y777663D01*
X199834D01*
X201000Y776497D01*
Y774164D01*
X199834Y772998D01*
X194002Y784661D02*
X195169Y782328D01*
X197501Y779995D01*
X199834D01*
X201000Y781162D01*
Y783494D01*
X199834Y784661D01*
X198667D01*
X197501Y783494D01*
Y779995D01*
X207169Y745665D02*
X206002Y744499D01*
Y742166D01*
X207169Y741000D01*
X211834D01*
X213000Y742166D01*
Y744499D01*
X211834Y745665D01*
X207169Y747998D02*
X206002Y749164D01*
Y751497D01*
X207169Y752663D01*
X208335D01*
X209501Y751497D01*
Y750330D01*
Y751497D01*
X210667Y752663D01*
X211834D01*
X213000Y751497D01*
Y749164D01*
X211834Y747998D01*
X213000Y758494D02*
X206002D01*
X209501Y754995D01*
Y759661D01*
X195169Y721665D02*
X194002Y720499D01*
Y718166D01*
X195169Y717000D01*
X199834D01*
X201000Y718166D01*
Y720499D01*
X199834Y721665D01*
X195169Y723998D02*
X194002Y725164D01*
Y727497D01*
X195169Y728663D01*
X196335D01*
X197501Y727497D01*
Y726330D01*
Y727497D01*
X198667Y728663D01*
X199834D01*
X201000Y727497D01*
Y725164D01*
X199834Y723998D01*
X201000Y730995D02*
Y733328D01*
Y732162D01*
X194002D01*
X195169Y730995D01*
X207169Y770665D02*
X206002Y769499D01*
Y767166D01*
X207169Y766000D01*
X211834D01*
X213000Y767166D01*
Y769499D01*
X211834Y770665D01*
X207169Y772998D02*
X206002Y774164D01*
Y776497D01*
X207169Y777663D01*
X208335D01*
X209501Y776497D01*
Y775330D01*
Y776497D01*
X210667Y777663D01*
X211834D01*
X213000Y776497D01*
Y774164D01*
X211834Y772998D01*
X206002Y784661D02*
Y779995D01*
X209501D01*
X208335Y782328D01*
Y783494D01*
X209501Y784661D01*
X211834D01*
X213000Y783494D01*
Y781162D01*
X211834Y779995D01*
X195169Y745665D02*
X194002Y744499D01*
Y742166D01*
X195169Y741000D01*
X199834D01*
X201000Y742166D01*
Y744499D01*
X199834Y745665D01*
X195169Y747998D02*
X194002Y749164D01*
Y751497D01*
X195169Y752663D01*
X196335D01*
X197501Y751497D01*
Y750330D01*
Y751497D01*
X198667Y752663D01*
X199834D01*
X201000Y751497D01*
Y749164D01*
X199834Y747998D01*
X195169Y754995D02*
X194002Y756162D01*
Y758494D01*
X195169Y759661D01*
X196335D01*
X197501Y758494D01*
Y757328D01*
Y758494D01*
X198667Y759661D01*
X199834D01*
X201000Y758494D01*
Y756162D01*
X199834Y754995D01*
X91665Y832831D02*
X90499Y833998D01*
X88166D01*
X87000Y832831D01*
Y828166D01*
X88166Y827000D01*
X90499D01*
X91665Y828166D01*
X98663Y827000D02*
X93998D01*
X98663Y831665D01*
Y832831D01*
X97497Y833998D01*
X95164D01*
X93998Y832831D01*
X100996D02*
X102162Y833998D01*
X104494D01*
X105661Y832831D01*
Y831665D01*
X104494Y830499D01*
X105661Y829333D01*
Y828166D01*
X104494Y827000D01*
X102162D01*
X100996Y828166D01*
Y829333D01*
X102162Y830499D01*
X100996Y831665D01*
Y832831D01*
X102162Y830499D02*
X104494D01*
X128665Y832831D02*
X127499Y833998D01*
X125166D01*
X124000Y832831D01*
Y828166D01*
X125166Y827000D01*
X127499D01*
X128665Y828166D01*
X135663Y827000D02*
X130998D01*
X135663Y831665D01*
Y832831D01*
X134497Y833998D01*
X132164D01*
X130998Y832831D01*
X137996Y833998D02*
X142661D01*
Y832831D01*
X137996Y828166D01*
Y827000D01*
X556627Y859457D02*
X555461Y860624D01*
X553128D01*
X551962Y859457D01*
Y854792D01*
X553128Y853626D01*
X555461D01*
X556627Y854792D01*
X563625Y853626D02*
X558960D01*
X563625Y858291D01*
Y859457D01*
X562459Y860624D01*
X560126D01*
X558960Y859457D01*
X570623Y860624D02*
X568290Y859457D01*
X565957Y857125D01*
Y854792D01*
X567124Y853626D01*
X569456D01*
X570623Y854792D01*
Y855958D01*
X569456Y857125D01*
X565957D01*
X519665Y858831D02*
X518499Y859998D01*
X516166D01*
X515000Y858831D01*
Y854166D01*
X516166Y853000D01*
X518499D01*
X519665Y854166D01*
X526663Y853000D02*
X521998D01*
X526663Y857665D01*
Y858831D01*
X525497Y859998D01*
X523164D01*
X521998Y858831D01*
X533661Y859998D02*
X528996D01*
Y856499D01*
X531328Y857665D01*
X532494D01*
X533661Y856499D01*
Y854166D01*
X532494Y853000D01*
X530162D01*
X528996Y854166D01*
X643369Y841665D02*
X642202Y840499D01*
Y838166D01*
X643369Y837000D01*
X648034D01*
X649200Y838166D01*
Y840499D01*
X648034Y841665D01*
X649200Y848663D02*
Y843998D01*
X644535Y848663D01*
X643369D01*
X642202Y847497D01*
Y845164D01*
X643369Y843998D01*
Y850995D02*
X642202Y852162D01*
Y854494D01*
X643369Y855661D01*
X644535D01*
X645701Y854494D01*
Y853328D01*
Y854494D01*
X646867Y855661D01*
X648034D01*
X649200Y854494D01*
Y852162D01*
X648034Y850995D01*
X291665Y584663D02*
X290499Y585829D01*
X288166D01*
X287000Y584663D01*
Y579997D01*
X288166Y578831D01*
X290499D01*
X291665Y579997D01*
X298663Y578831D02*
X293998D01*
X298663Y583496D01*
Y584663D01*
X297497Y585829D01*
X295164D01*
X293998Y584663D01*
X304494Y578831D02*
Y585829D01*
X300996Y582330D01*
X305661D01*
X177169Y570665D02*
X176002Y569499D01*
Y567166D01*
X177169Y566000D01*
X181834D01*
X183000Y567166D01*
Y569499D01*
X181834Y570665D01*
X183000Y572998D02*
Y575330D01*
Y574164D01*
X176002D01*
X177169Y572998D01*
X181834Y578829D02*
X183000Y579995D01*
Y582328D01*
X181834Y583494D01*
X177169D01*
X176002Y582328D01*
Y579995D01*
X177169Y578829D01*
X178335D01*
X179501Y579995D01*
Y583494D01*
X275469Y786665D02*
X274302Y785499D01*
Y783166D01*
X275469Y782000D01*
X280134D01*
X281300Y783166D01*
Y785499D01*
X280134Y786665D01*
X281300Y793663D02*
Y788998D01*
X276635Y793663D01*
X275469D01*
X274302Y792497D01*
Y790164D01*
X275469Y788998D01*
X281300Y795995D02*
Y798328D01*
Y797162D01*
X274302D01*
X275469Y795995D01*
X200030Y710832D02*
X198864Y711998D01*
X196532D01*
X195365Y710832D01*
Y706166D01*
X196532Y705000D01*
X198864D01*
X200030Y706166D01*
X207028Y705000D02*
X202363D01*
X207028Y709665D01*
Y710832D01*
X205862Y711998D01*
X203529D01*
X202363Y710832D01*
X209361D02*
X210527Y711998D01*
X212860D01*
X214026Y710832D01*
Y706166D01*
X212860Y705000D01*
X210527D01*
X209361Y706166D01*
Y710832D01*
X258665Y567831D02*
X257499Y568998D01*
X255166D01*
X254000Y567831D01*
Y563166D01*
X255166Y562000D01*
X257499D01*
X258665Y563166D01*
X260998Y568998D02*
X265663D01*
Y567831D01*
X260998Y563166D01*
Y562000D01*
X601665Y591832D02*
X600499Y592998D01*
X598166D01*
X597000Y591832D01*
Y587166D01*
X598166Y586000D01*
X600499D01*
X601665Y587166D01*
X603998Y591832D02*
X605164Y592998D01*
X607497D01*
X608663Y591832D01*
Y590665D01*
X607497Y589499D01*
X606330D01*
X607497D01*
X608663Y588333D01*
Y587166D01*
X607497Y586000D01*
X605164D01*
X603998Y587166D01*
X610995Y592998D02*
X615661D01*
Y591832D01*
X610995Y587166D01*
Y586000D01*
X598665Y606998D02*
X594000D01*
Y603499D01*
X596333D01*
X594000D01*
Y600000D01*
X605663D02*
X600998D01*
X605663Y604665D01*
Y605831D01*
X604497Y606998D01*
X602164D01*
X600998Y605831D01*
X601665Y580998D02*
X597000D01*
Y577499D01*
X599333D01*
X597000D01*
Y574000D01*
X603998Y580998D02*
Y574000D01*
X607497D01*
X608663Y575166D01*
Y576333D01*
X607497Y577499D01*
X603998D01*
X607497D01*
X608663Y578665D01*
Y579832D01*
X607497Y580998D01*
X603998D01*
X614494Y574000D02*
Y580998D01*
X610995Y577499D01*
X615661D01*
X601665Y657998D02*
X597000D01*
Y654499D01*
X599333D01*
X597000D01*
Y651000D01*
X603998Y657998D02*
Y651000D01*
X607497D01*
X608663Y652166D01*
Y653333D01*
X607497Y654499D01*
X603998D01*
X607497D01*
X608663Y655665D01*
Y656832D01*
X607497Y657998D01*
X603998D01*
X610995Y656832D02*
X612162Y657998D01*
X614494D01*
X615661Y656832D01*
Y655665D01*
X614494Y654499D01*
X613328D01*
X614494D01*
X615661Y653333D01*
Y652166D01*
X614494Y651000D01*
X612162D01*
X610995Y652166D01*
X626000Y675000D02*
Y681998D01*
X629499D01*
X630665Y680832D01*
Y678499D01*
X629499Y677333D01*
X626000D01*
X632998Y675000D02*
X635330D01*
X634164D01*
Y681998D01*
X632998Y680832D01*
X642328Y675000D02*
Y681998D01*
X638829Y678499D01*
X643494D01*
X260465Y687166D02*
Y691832D01*
X259299Y692998D01*
X256966D01*
X255800Y691832D01*
Y687166D01*
X256966Y686000D01*
X259299D01*
X258133Y688333D02*
X260465Y686000D01*
X259299D02*
X260465Y687166D01*
X262798Y691832D02*
X263964Y692998D01*
X266297D01*
X267463Y691832D01*
Y690665D01*
X266297Y689499D01*
X265130D01*
X266297D01*
X267463Y688333D01*
Y687166D01*
X266297Y686000D01*
X263964D01*
X262798Y687166D01*
X559665Y714166D02*
Y718831D01*
X558499Y719998D01*
X556166D01*
X555000Y718831D01*
Y714166D01*
X556166Y713000D01*
X558499D01*
X557333Y715333D02*
X559665Y713000D01*
X558499D02*
X559665Y714166D01*
X561998Y713000D02*
X564330D01*
X563164D01*
Y719998D01*
X561998Y718831D01*
X554665Y835166D02*
Y839831D01*
X553499Y840998D01*
X551166D01*
X550000Y839831D01*
Y835166D01*
X551166Y834000D01*
X553499D01*
X552333Y836333D02*
X554665Y834000D01*
X553499D02*
X554665Y835166D01*
X561663Y834000D02*
X556998D01*
X561663Y838665D01*
Y839831D01*
X560497Y840998D01*
X558164D01*
X556998Y839831D01*
X595000Y834200D02*
X588002D01*
Y837699D01*
X589169Y838865D01*
X591501D01*
X592667Y837699D01*
Y834200D01*
Y836533D02*
X595000Y838865D01*
Y845863D02*
Y841198D01*
X590335Y845863D01*
X589169D01*
X588002Y844697D01*
Y842364D01*
X589169Y841198D01*
X595000Y848195D02*
Y850528D01*
Y849362D01*
X588002D01*
X589169Y848195D01*
X612200Y786000D02*
Y792998D01*
X615699D01*
X616865Y791832D01*
Y789499D01*
X615699Y788333D01*
X612200D01*
X614533D02*
X616865Y786000D01*
X619198D02*
X621530D01*
X620364D01*
Y792998D01*
X619198Y791832D01*
X625029Y787166D02*
X626195Y786000D01*
X628528D01*
X629694Y787166D01*
Y791832D01*
X628528Y792998D01*
X626195D01*
X625029Y791832D01*
Y790665D01*
X626195Y789499D01*
X629694D01*
X606000Y718700D02*
X599002D01*
Y722199D01*
X600168Y723365D01*
X602501D01*
X603667Y722199D01*
Y718700D01*
Y721033D02*
X606000Y723365D01*
Y725698D02*
Y728030D01*
Y726864D01*
X599002D01*
X600168Y725698D01*
Y731529D02*
X599002Y732695D01*
Y735028D01*
X600168Y736194D01*
X601335D01*
X602501Y735028D01*
X603667Y736194D01*
X604834D01*
X606000Y735028D01*
Y732695D01*
X604834Y731529D01*
X603667D01*
X602501Y732695D01*
X601335Y731529D01*
X600168D01*
X602501Y732695D02*
Y735028D01*
X582000Y767050D02*
Y774048D01*
X585499D01*
X586665Y772881D01*
Y770549D01*
X585499Y769383D01*
X582000D01*
X584333D02*
X586665Y767050D01*
X593663D02*
X588998D01*
X593663Y771715D01*
Y772881D01*
X592497Y774048D01*
X590164D01*
X588998Y772881D01*
X595995D02*
X597162Y774048D01*
X599494D01*
X600661Y772881D01*
Y768216D01*
X599494Y767050D01*
X597162D01*
X595995Y768216D01*
Y772881D01*
X582000Y755000D02*
Y761998D01*
X585499D01*
X586665Y760831D01*
Y758499D01*
X585499Y757333D01*
X582000D01*
X584333D02*
X586665Y755000D01*
X593663D02*
X588998D01*
X593663Y759665D01*
Y760831D01*
X592497Y761998D01*
X590164D01*
X588998Y760831D01*
X600661Y755000D02*
X595995D01*
X600661Y759665D01*
Y760831D01*
X599494Y761998D01*
X597162D01*
X595995Y760831D01*
X582000Y779000D02*
Y785998D01*
X585499D01*
X586665Y784831D01*
Y782499D01*
X585499Y781333D01*
X582000D01*
X584333D02*
X586665Y779000D01*
X593663D02*
X588998D01*
X593663Y783665D01*
Y784831D01*
X592497Y785998D01*
X590164D01*
X588998Y784831D01*
X599494Y779000D02*
Y785998D01*
X595995Y782499D01*
X600661D01*
X582000Y790000D02*
Y796998D01*
X585499D01*
X586665Y795832D01*
Y793499D01*
X585499Y792333D01*
X582000D01*
X584333D02*
X586665Y790000D01*
X593663D02*
X588998D01*
X593663Y794665D01*
Y795832D01*
X592497Y796998D01*
X590164D01*
X588998Y795832D01*
X600661Y796998D02*
X595995D01*
Y793499D01*
X598328Y794665D01*
X599494D01*
X600661Y793499D01*
Y791166D01*
X599494Y790000D01*
X597162D01*
X595995Y791166D01*
X262000Y654000D02*
Y660998D01*
X265499D01*
X266665Y659831D01*
Y657499D01*
X265499Y656333D01*
X262000D01*
X264333D02*
X266665Y654000D01*
X273663D02*
X268998D01*
X273663Y658665D01*
Y659831D01*
X272497Y660998D01*
X270164D01*
X268998Y659831D01*
X275996Y655166D02*
X277162Y654000D01*
X279494D01*
X280661Y655166D01*
Y659831D01*
X279494Y660998D01*
X277162D01*
X275996Y659831D01*
Y658665D01*
X277162Y657499D01*
X280661D01*
X226000Y692300D02*
X219002D01*
Y695799D01*
X220168Y696965D01*
X222501D01*
X223667Y695799D01*
Y692300D01*
Y694633D02*
X226000Y696965D01*
Y703963D02*
Y699298D01*
X221335Y703963D01*
X220168D01*
X219002Y702797D01*
Y700464D01*
X220168Y699298D01*
X219002Y710961D02*
X220168Y708628D01*
X222501Y706295D01*
X224834D01*
X226000Y707462D01*
Y709794D01*
X224834Y710961D01*
X223667D01*
X222501Y709794D01*
Y706295D01*
X262000Y710000D02*
Y716998D01*
X265499D01*
X266665Y715832D01*
Y713499D01*
X265499Y712333D01*
X262000D01*
X264333D02*
X266665Y710000D01*
X268998Y715832D02*
X270164Y716998D01*
X272497D01*
X273663Y715832D01*
Y714665D01*
X272497Y713499D01*
X271330D01*
X272497D01*
X273663Y712333D01*
Y711166D01*
X272497Y710000D01*
X270164D01*
X268998Y711166D01*
X275996Y715832D02*
X277162Y716998D01*
X279494D01*
X280661Y715832D01*
Y714665D01*
X279494Y713499D01*
X280661Y712333D01*
Y711166D01*
X279494Y710000D01*
X277162D01*
X275996Y711166D01*
Y712333D01*
X277162Y713499D01*
X275996Y714665D01*
Y715832D01*
X277162Y713499D02*
X279494D01*
X262000Y642000D02*
Y648998D01*
X265499D01*
X266665Y647831D01*
Y645499D01*
X265499Y644333D01*
X262000D01*
X264333D02*
X266665Y642000D01*
X268998Y647831D02*
X270164Y648998D01*
X272497D01*
X273663Y647831D01*
Y646665D01*
X272497Y645499D01*
X271330D01*
X272497D01*
X273663Y644333D01*
Y643166D01*
X272497Y642000D01*
X270164D01*
X268998Y643166D01*
X275996Y647831D02*
X277162Y648998D01*
X279494D01*
X280661Y647831D01*
Y643166D01*
X279494Y642000D01*
X277162D01*
X275996Y643166D01*
Y647831D01*
X262000Y630000D02*
Y636998D01*
X265499D01*
X266665Y635831D01*
Y633499D01*
X265499Y632333D01*
X262000D01*
X264333D02*
X266665Y630000D01*
X268998Y635831D02*
X270164Y636998D01*
X272497D01*
X273663Y635831D01*
Y634665D01*
X272497Y633499D01*
X271330D01*
X272497D01*
X273663Y632333D01*
Y631166D01*
X272497Y630000D01*
X270164D01*
X268998Y631166D01*
X275996Y630000D02*
X278328D01*
X277162D01*
Y636998D01*
X275996Y635831D01*
X262000Y618000D02*
Y624998D01*
X265499D01*
X266665Y623831D01*
Y621499D01*
X265499Y620333D01*
X262000D01*
X264333D02*
X266665Y618000D01*
X268998Y623831D02*
X270164Y624998D01*
X272497D01*
X273663Y623831D01*
Y622665D01*
X272497Y621499D01*
X271330D01*
X272497D01*
X273663Y620333D01*
Y619166D01*
X272497Y618000D01*
X270164D01*
X268998Y619166D01*
X275996Y623831D02*
X277162Y624998D01*
X279494D01*
X280661Y623831D01*
Y622665D01*
X279494Y621499D01*
X278328D01*
X279494D01*
X280661Y620333D01*
Y619166D01*
X279494Y618000D01*
X277162D01*
X275996Y619166D01*
X262000Y606000D02*
Y612998D01*
X265499D01*
X266665Y611831D01*
Y609499D01*
X265499Y608333D01*
X262000D01*
X264333D02*
X266665Y606000D01*
X268998Y611831D02*
X270164Y612998D01*
X272497D01*
X273663Y611831D01*
Y610665D01*
X272497Y609499D01*
X271330D01*
X272497D01*
X273663Y608333D01*
Y607166D01*
X272497Y606000D01*
X270164D01*
X268998Y607166D01*
X279494Y606000D02*
Y612998D01*
X275996Y609499D01*
X280661D01*
X262000Y593600D02*
Y600598D01*
X265499D01*
X266665Y599431D01*
Y597099D01*
X265499Y595933D01*
X262000D01*
X264333D02*
X266665Y593600D01*
X268998Y599431D02*
X270164Y600598D01*
X272497D01*
X273663Y599431D01*
Y598265D01*
X272497Y597099D01*
X271330D01*
X272497D01*
X273663Y595933D01*
Y594766D01*
X272497Y593600D01*
X270164D01*
X268998Y594766D01*
X280661Y600598D02*
X275996D01*
Y597099D01*
X278328Y598265D01*
X279494D01*
X280661Y597099D01*
Y594766D01*
X279494Y593600D01*
X277162D01*
X275996Y594766D01*
X262000Y581000D02*
Y587998D01*
X265499D01*
X266665Y586831D01*
Y584499D01*
X265499Y583333D01*
X262000D01*
X264333D02*
X266665Y581000D01*
X268998Y586831D02*
X270164Y587998D01*
X272497D01*
X273663Y586831D01*
Y585665D01*
X272497Y584499D01*
X271330D01*
X272497D01*
X273663Y583333D01*
Y582166D01*
X272497Y581000D01*
X270164D01*
X268998Y582166D01*
X280661Y587998D02*
X278328Y586831D01*
X275996Y584499D01*
Y582166D01*
X277162Y581000D01*
X279494D01*
X280661Y582166D01*
Y583333D01*
X279494Y584499D01*
X275996D01*
X533600Y865600D02*
Y872598D01*
X537099D01*
X538265Y871432D01*
Y869099D01*
X537099Y867933D01*
X533600D01*
X535933D02*
X538265Y865600D01*
X545263D02*
X540598D01*
X545263Y870265D01*
Y871432D01*
X544097Y872598D01*
X541764D01*
X540598Y871432D01*
X547595Y872598D02*
X552261D01*
Y871432D01*
X547595Y866766D01*
Y865600D01*
X106000Y855000D02*
Y861998D01*
X109499D01*
X110665Y860832D01*
Y858499D01*
X109499Y857333D01*
X106000D01*
X108333D02*
X110665Y855000D01*
X112998Y860832D02*
X114164Y861998D01*
X116497D01*
X117663Y860832D01*
Y859665D01*
X116497Y858499D01*
X115330D01*
X116497D01*
X117663Y857333D01*
Y856166D01*
X116497Y855000D01*
X114164D01*
X112998Y856166D01*
X124661Y855000D02*
X119995D01*
X124661Y859665D01*
Y860832D01*
X123494Y861998D01*
X121162D01*
X119995Y860832D01*
X262000Y698000D02*
Y704998D01*
X265499D01*
X266665Y703831D01*
Y701499D01*
X265499Y700333D01*
X262000D01*
X264333D02*
X266665Y698000D01*
X273663D02*
X268998D01*
X273663Y702665D01*
Y703831D01*
X272497Y704998D01*
X270164D01*
X268998Y703831D01*
X275996D02*
X277162Y704998D01*
X279494D01*
X280661Y703831D01*
Y702665D01*
X279494Y701499D01*
X280661Y700333D01*
Y699166D01*
X279494Y698000D01*
X277162D01*
X275996Y699166D01*
Y700333D01*
X277162Y701499D01*
X275996Y702665D01*
Y703831D01*
X277162Y701499D02*
X279494D01*
X204000Y574000D02*
Y580998D01*
X207499D01*
X208665Y579832D01*
Y577499D01*
X207499Y576333D01*
X204000D01*
X206333D02*
X208665Y574000D01*
X215663D02*
X210998D01*
X215663Y578665D01*
Y579832D01*
X214497Y580998D01*
X212164D01*
X210998Y579832D01*
X217995D02*
X219162Y580998D01*
X221494D01*
X222661Y579832D01*
Y578665D01*
X221494Y577499D01*
X220328D01*
X221494D01*
X222661Y576333D01*
Y575166D01*
X221494Y574000D01*
X219162D01*
X217995Y575166D01*
X195320Y694324D02*
Y701322D01*
X198819D01*
X199985Y700155D01*
Y697823D01*
X198819Y696657D01*
X195320D01*
X197653D02*
X199985Y694324D01*
X202318D02*
X204650D01*
X203484D01*
Y701322D01*
X202318Y700155D01*
X208149D02*
X209315Y701322D01*
X211648D01*
X212814Y700155D01*
Y695490D01*
X211648Y694324D01*
X209315D01*
X208149Y695490D01*
Y700155D01*
X685782Y699000D02*
Y705998D01*
X689281D01*
X690447Y704831D01*
Y702499D01*
X689281Y701333D01*
X685782D01*
X688114D02*
X690447Y699000D01*
X692780Y704831D02*
X693946Y705998D01*
X696279D01*
X697445Y704831D01*
Y703665D01*
X696279Y702499D01*
X695112D01*
X696279D01*
X697445Y701333D01*
Y700166D01*
X696279Y699000D01*
X693946D01*
X692780Y700166D01*
X699777Y705998D02*
X704443D01*
Y704831D01*
X699777Y700166D01*
Y699000D01*
D17*
X266751Y738801D02*
D03*
D18*
X225749Y738799D02*
D03*
M02*
