G04*
G04 #@! TF.GenerationSoftware,Altium Limited,Altium Designer,18.1.9 (240)*
G04*
G04 Layer_Color=16711935*
%FSLAX44Y44*%
%MOMM*%
G71*
G01*
G75*
%ADD80R,1.0032X0.8032*%
%ADD129R,1.7032X1.7032*%
%ADD130C,1.7032*%
%ADD131C,0.2032*%
%ADD132R,1.7032X1.7032*%
%ADD133C,2.3032*%
%ADD134C,2.5032*%
%ADD161R,4.5032X5.8032*%
%ADD162R,4.2032X5.8032*%
%ADD163R,1.1032X1.0032*%
%ADD164R,1.4032X1.1532*%
%ADD165R,1.1532X1.6032*%
%ADD166R,1.5032X1.7032*%
%ADD167R,1.5032X1.2032*%
%ADD168R,1.0032X1.7032*%
%ADD169R,0.9032X1.9532*%
%ADD170R,1.0032X1.6032*%
%ADD171R,1.2032X1.7532*%
D80*
X408000Y621300D02*
D03*
X396000D02*
D03*
D129*
X460299Y22301D02*
D03*
X431997Y22300D02*
D03*
X658000Y73099D02*
D03*
X727100Y403300D02*
D03*
X23000Y399600D02*
D03*
D130*
X460299Y47701D02*
D03*
Y73101D02*
D03*
X431997Y47700D02*
D03*
Y73100D02*
D03*
X367501Y495001D02*
D03*
X342101D02*
D03*
X367501Y520401D02*
D03*
X342101D02*
D03*
X519900Y494999D02*
D03*
X494500D02*
D03*
X519900Y520400D02*
D03*
X494500D02*
D03*
X443699Y495000D02*
D03*
X418299D02*
D03*
X443699Y520399D02*
D03*
X418299D02*
D03*
X658000Y22299D02*
D03*
Y47699D02*
D03*
X727100Y377900D02*
D03*
Y352500D02*
D03*
Y327100D02*
D03*
Y301700D02*
D03*
Y276300D02*
D03*
Y250900D02*
D03*
Y225500D02*
D03*
Y200100D02*
D03*
Y174700D02*
D03*
Y149300D02*
D03*
Y123900D02*
D03*
Y98500D02*
D03*
Y73100D02*
D03*
Y47700D02*
D03*
Y22300D02*
D03*
X23000Y18600D02*
D03*
Y44000D02*
D03*
Y69400D02*
D03*
Y94800D02*
D03*
Y120200D02*
D03*
Y145600D02*
D03*
Y171000D02*
D03*
Y196400D02*
D03*
Y221800D02*
D03*
Y247200D02*
D03*
Y272600D02*
D03*
Y298000D02*
D03*
Y323400D02*
D03*
Y348800D02*
D03*
Y374200D02*
D03*
D131*
X51000Y506000D02*
D03*
X95000D02*
D03*
X620000Y328300D02*
D03*
Y390300D02*
D03*
X697000Y655600D02*
D03*
Y611600D02*
D03*
X46300Y618650D02*
D03*
Y653650D02*
D03*
X46300Y767050D02*
D03*
Y732050D02*
D03*
X605200Y52580D02*
D03*
X561200D02*
D03*
D132*
X298500Y47250D02*
D03*
X316701Y495001D02*
D03*
Y520401D02*
D03*
X469100Y494999D02*
D03*
Y520400D02*
D03*
X392899Y495000D02*
D03*
Y520399D02*
D03*
D133*
X44600Y845600D02*
D03*
X19200Y820200D02*
D03*
X70000D02*
D03*
Y871000D02*
D03*
D134*
X19200D02*
D03*
D161*
X61000Y549000D02*
D03*
D162*
X115000D02*
D03*
D163*
X408301Y650050D02*
D03*
X420701D02*
D03*
X446101D02*
D03*
X408301Y799450D02*
D03*
X420701D02*
D03*
X446101D02*
D03*
D164*
X379751Y647749D02*
D03*
X488251D02*
D03*
D165*
X371401Y780849D02*
D03*
X496601D02*
D03*
D166*
X412000Y47250D02*
D03*
D167*
X412150Y138250D02*
D03*
D168*
X414750Y123250D02*
D03*
D169*
X400000Y46000D02*
D03*
X389000D02*
D03*
X378000D02*
D03*
X367000D02*
D03*
X356000D02*
D03*
X345000D02*
D03*
X334000D02*
D03*
X323000D02*
D03*
D170*
X295310Y129360D02*
D03*
D171*
X299120Y153490D02*
D03*
M02*
