M48
;Layer_Color=9474304
;FILE_FORMAT=4:4
METRIC,LZ
;TYPE=PLATED
T1F00S00C0.3000
T2F00S00C0.9000
;TYPE=NON_PLATED
T3F00S00C0.9000
%
T01
X00091Y00012
Y00021
Y0003
X001
Y00021
Y00012
X0010986Y0003914
X00108962Y00055038
X00109781Y00071318
X00118Y00088
X00095Y00106
X00070235Y00109
X0006
X00049882
Y00057887
X0006Y00057957
X00070235Y00057887
X0008086Y0003914
X00105Y0012554
Y0013554
X00138Y00134
X00151
X00164
X00177
X002
X00213
X00226
X00239
X00252999Y00137
X002Y00115
X00197Y00038
X0018588
Y000186
X00166304Y00018529
Y00038
X00213273
X0022162Y00033814
X00221634Y00044374
X00232344Y00048551
X00245614Y0004866
X0026
X00270014Y00033488
X0027Y00022928
X00269986Y00012368
X0022162Y000079
X00284Y00077282
X00318Y00078502
X00329435
X0033233Y00059
X0035433
X00373Y00075
X00376432Y00032
X00403079Y00033488
X00403Y00055
X00407Y00105075
X00404259Y00131
X00373Y00127554
X00355Y00142
X00340476Y00127554
X0034562Y00164191
X00369
X00381Y00181073
X00373Y0020691
X00369Y00229
Y00241648
X00355Y00241
Y00229
X00321
X00315
Y00237
X00321
X00314862Y0024427
X00315079Y00268049
X00327488Y00256355
X0028Y00255
X00264402Y00248
X00254571Y00257362
X00255245Y00276259
X0027337Y00275
X0027336Y0029236
X00296556Y00307154
X00288Y00325
Y00331
Y00337
X00267836Y00327951
X0028Y0036
X0031348Y0035398
X0034093Y00358233
Y00329843
X00345335Y0029927
X00359Y00286
X00386Y00313
X00378Y00329843
X00401Y0020691
X00340524Y00187648
X00310429Y00163
X00302541Y0016886
X00266Y00167
X00253203
X00253Y00153794
X00266
X0027164Y00178802
X0025973Y00188802
X00193Y00156233
X0018
X00167
X00175Y00314
Y00327191
Y0034198
X00157
Y00327191
Y0031382
X00194423Y00327191
Y0034198
X00210351Y00314
X00224
X0028Y00407
Y00459239
X00305Y0046694
X003195Y004635
X00342662Y00503
X0034304Y00526884
X0029012
X00290498Y00503
X00268Y00494407
X00246Y00498
X0024Y00481767
X00207676
X0020866Y0051108
X0021958
Y00522
X0020866
X00192603Y00534441
X00165Y0053527
X00155Y00520389
X0019532Y00503
X00385243Y005
X00414
X00408Y00506378
X00401797Y0051277
X00425Y0051
Y00516
Y00522
X00432Y00488
X00104256Y00495
X00085Y00505
Y00477
X00069Y00454
X0004875Y0047167
X00052Y00505
X00022Y00442
X00037Y00426
X00044941Y0034198
X00062586
Y00326
X00072Y003488
X0011278
X0012175Y0034198
Y00326
X00104256Y00357902
Y0045688
X0012921Y00275464
X00118Y00254
X00072Y00267
X00059Y00237
X00044
X00068Y00184
X0010493Y0018554
Y0017554
Y0016554
X00097Y00155577
X00051Y00155432
X0010493Y0019554
X00131842
X00136Y00561348
X0009536Y005443
Y00582271
X00058Y00591
X00052Y005443
X0016Y00583512
X00171Y00591
X0020492Y0057877
X002252Y0056953
X0026Y0055753
Y0054448
X00281Y00550176
X00287933Y00567
X00345227
X0035216Y00550176
X0038537Y0054238
X0043Y00547
X004301Y005539
X0043Y00561
X00427Y00587
X00421
X0020492Y00542
T02
X00023Y000186
Y00044
Y000694
Y000948
Y001202
X00427
Y000948
Y000694
Y00044
Y000186
Y001456
Y00171
Y001964
Y002218
Y002472
Y002726
Y00298
Y003234
Y003488
Y003742
Y003996
X0039076Y0052924
X00142889Y00523241
X00114949
X00023Y003996
Y003742
Y003488
Y003234
Y00298
Y002726
Y002472
Y002218
Y001964
Y00171
Y001456
X00114949Y00548641
Y00574041
X00142889
Y00548641
X0039076Y0055464
Y0058004
T03
X0029458Y0054575
X0033858
M30
